<?xml version="1.0" standalone="no"?>
<!DOCTYPE svg PUBLIC "-//W3C//DTD SVG 20010904//EN"
 "http://www.w3.org/TR/2001/REC-SVG-20010904/DTD/svg10.dtd">
<svg version="1.0" xmlns="http://www.w3.org/2000/svg"
 width="1044.000000pt" height="1068.000000pt" viewBox="0 0 1044.000000 1068.000000"
 preserveAspectRatio="xMidYMid meet">

<g transform="translate(0.000000,1068.000000) scale(0.100000,-0.100000)"
fill="#000000" stroke="none">
<path d="M7541 10560 c-355 -96 -701 -569 -702 -960 -1 -159 37 -267 123 -353
72 -72 142 -100 258 -105 81 -3 108 0 180 23 47 14 95 29 106 32 30 7 94 -52
130 -121 l28 -53 -27 -56 c-57 -116 -161 -215 -362 -345 -137 -89 -243 -172
-288 -226 -21 -25 -41 -46 -45 -46 -4 0 -32 20 -62 45 -99 82 -312 178 -458
208 -89 19 -123 41 -255 165 -179 169 -249 199 -442 189 -121 -6 -183 -22
-315 -82 l-84 -38 -91 12 c-49 6 -144 16 -210 21 -66 6 -124 15 -129 20 -5 5
-22 67 -38 137 -51 230 -93 285 -292 383 -121 60 -205 80 -346 80 -258 0 -436
-93 -532 -276 -43 -82 -64 -163 -74 -286 -5 -68 -10 -89 -23 -92 -9 -3 -61
-14 -116 -26 -204 -42 -290 -88 -350 -184 -25 -41 -30 -60 -29 -110 0 -92 19
-124 226 -381 48 -59 91 -120 96 -135 8 -21 3 -48 -24 -126 -18 -55 -37 -135
-43 -177 -5 -43 -15 -85 -23 -94 -7 -9 -59 -38 -114 -65 -157 -76 -191 -111
-309 -328 -31 -58 -62 -108 -69 -112 -6 -4 -85 -7 -176 -5 l-165 2 -7 114 c-8
131 -28 205 -73 270 -71 103 -177 154 -325 155 -120 0 -191 -18 -340 -89 -64
-30 -125 -55 -137 -55 -12 0 -33 14 -47 31 -26 31 -30 51 -27 144 2 37 -5 62
-23 95 -74 134 -77 145 -86 278 -10 139 -24 198 -65 267 -71 123 -275 184
-468 141 -443 -99 -852 -680 -766 -1088 27 -128 105 -228 217 -281 63 -30 73
-32 177 -31 91 1 124 5 191 27 45 15 98 38 118 52 20 14 50 32 67 41 37 19 45
14 155 -82 40 -34 90 -73 112 -85 23 -13 43 -31 45 -39 2 -8 -2 -46 -9 -85
-34 -183 -38 -233 -26 -312 23 -148 98 -254 222 -311 44 -21 75 -27 152 -30
130 -6 223 16 350 81 l99 50 107 -50 c128 -61 144 -67 247 -92 200 -49 483
-72 654 -52 149 18 200 39 274 118 179 187 204 209 321 278 136 81 277 184
356 260 95 91 147 125 191 125 105 0 106 -9 179 -875 54 -659 69 -861 77
-1065 l6 -175 -209 -101 c-115 -56 -333 -159 -484 -229 -151 -71 -280 -133
-286 -139 -6 -6 -21 -87 -33 -181 -12 -93 -24 -182 -27 -196 -5 -24 10 -40
142 -155 l146 -127 92 46 c50 25 152 78 226 118 242 127 590 300 656 325 100
37 107 35 235 -63 264 -201 1044 -810 1164 -908 202 -165 288 -256 270 -285
-13 -21 -25 -337 -25 -690 l-1 -381 -132 -267 c-73 -147 -143 -297 -155 -335
-51 -156 -20 -219 163 -332 272 -166 315 -201 427 -339 136 -168 208 -245 254
-272 112 -66 378 -136 581 -153 132 -12 183 -3 231 38 20 17 58 44 84 59 50
29 79 70 97 140 24 86 -25 171 -142 248 -39 26 -95 63 -123 81 -164 107 -316
291 -430 517 -55 110 -56 128 -6 160 59 39 427 250 977 561 281 159 647 367
815 462 177 100 316 173 331 173 19 0 46 -21 104 -81 137 -140 171 -167 242
-189 72 -22 176 -26 237 -9 51 14 153 115 186 184 13 27 26 75 28 106 8 115
-57 200 -261 338 -136 92 -205 168 -289 317 -37 66 -81 139 -98 164 -54 80
-57 75 203 339 234 236 310 329 372 452 65 128 152 244 278 370 l124 124 -9
125 c-16 231 -20 241 -163 360 -45 38 -167 146 -271 241 -304 277 -394 344
-649 479 -134 71 -209 123 -275 189 -30 31 -82 70 -115 88 -156 82 -656 225
-990 283 -157 27 -209 45 -270 90 -57 42 -102 60 -154 60 -54 0 -106 31 -170
102 -31 35 -114 124 -185 198 -161 167 -268 310 -346 461 -33 64 -60 121 -60
126 0 14 304 83 403 91 48 5 126 4 174 0 99 -8 155 1 188 32 12 11 44 62 71
111 27 50 80 132 118 182 118 158 181 267 266 462 29 66 54 122 55 123 2 2 36
-19 75 -47 96 -67 153 -86 265 -85 253 1 512 166 705 449 121 179 170 329 170
525 0 179 -35 286 -125 376 -70 71 -141 97 -260 98 -73 0 -105 -5 -170 -27
-107 -37 -237 -102 -265 -132 -13 -14 -33 -25 -44 -25 -54 0 -212 102 -249
160 -21 34 -20 54 7 185 51 237 -37 486 -196 555 -76 34 -261 39 -367 10z
m291 -55 c130 -44 205 -163 216 -338 5 -98 -11 -219 -33 -237 -11 -9 -25 -8
-59 5 -59 23 -98 10 -172 -57 -100 -92 -170 -197 -201 -302 -8 -28 -24 -66
-35 -83 -12 -20 -22 -63 -27 -113 -10 -99 -22 -113 -115 -143 -186 -58 -389 1
-456 133 -28 55 -44 171 -36 270 23 329 273 683 581 826 135 62 236 74 337 39z
m149 -664 c24 -15 80 -63 124 -105 44 -43 99 -89 123 -103 24 -14 41 -31 39
-37 -13 -31 -241 -357 -260 -371 -20 -15 -23 -14 -39 6 -38 45 -11 134 85 287
55 86 66 112 49 112 -27 0 -77 -68 -146 -197 -29 -54 -58 -98 -66 -98 -7 0
-27 17 -44 38 -22 28 -30 49 -30 75 0 49 48 153 106 230 26 34 52 71 58 82 20
37 -21 23 -64 -23 -38 -40 -55 -67 -137 -214 -16 -29 -36 -53 -45 -53 -24 0
-104 59 -116 86 -9 20 -7 30 16 64 59 89 243 250 286 250 9 0 36 -13 61 -29z
m957 -108 c130 -44 189 -135 200 -305 22 -378 -260 -805 -621 -941 -70 -26
-96 -30 -182 -31 -92 -1 -104 1 -146 26 -55 33 -136 119 -157 168 -11 27 -13
68 -10 190 5 144 7 162 40 256 147 432 572 741 876 637z m-4563 -308 c80 -21
218 -87 281 -135 75 -56 106 -114 149 -273 44 -163 45 -159 -61 -181 -196 -41
-328 -120 -547 -325 -60 -56 -122 -108 -137 -116 -98 -50 -262 36 -321 169
-50 113 -73 330 -50 476 31 200 173 349 376 396 74 17 226 12 310 -11z m3331
-1 c20 -10 59 -39 87 -64 47 -43 50 -49 37 -65 -12 -14 -26 -16 -75 -13 -34 3
-76 13 -94 22 -37 19 -51 15 -31 -9 24 -29 70 -46 150 -55 130 -15 190 -58
190 -135 -1 -46 -40 -167 -55 -169 -19 -2 -29 72 -19 135 6 33 7 62 4 64 -4 2
-15 -10 -25 -28 -34 -56 -27 -136 23 -245 77 -168 69 -242 -52 -487 -88 -179
-188 -336 -341 -541 l-112 -150 -59 7 c-134 17 -215 11 -360 -27 -285 -74
-345 -47 -314 137 15 91 40 119 102 119 81 1 158 53 158 107 0 31 -20 29 -78
-7 -103 -63 -169 -48 -222 52 -38 70 -81 129 -170 228 -113 126 -133 175 -85
206 29 19 54 16 204 -27 127 -37 215 -78 281 -130 39 -31 58 -57 91 -127 23
-48 48 -95 57 -104 16 -19 57 -24 66 -9 3 5 -6 41 -21 80 -24 65 -25 75 -14
114 19 62 119 154 295 271 168 112 245 183 296 275 48 87 87 131 116 131 21 0
23 2 13 27 -5 15 -40 72 -76 127 -75 114 -123 210 -123 244 0 13 12 34 26 49
29 29 64 28 130 -3z m-1813 -529 c72 -19 125 -52 206 -129 113 -109 191 -225
191 -286 0 -25 -4 -30 -24 -30 -13 0 -43 7 -67 15 -55 20 -159 31 -159 18 0
-5 26 -17 58 -27 125 -39 234 -119 236 -173 1 -26 4 -28 37 -25 99 9 193 -178
234 -461 31 -217 80 -352 202 -555 91 -152 108 -186 100 -206 -11 -28 -65 -20
-99 15 -30 30 -31 32 -24 100 3 38 2 69 -3 69 -22 0 -34 -34 -33 -98 1 -37 -2
-72 -6 -78 -12 -19 -45 -31 -132 -49 -336 -67 -766 -362 -1012 -695 -46 -63
-92 -121 -101 -129 -23 -19 -36 -6 -94 88 -113 184 -219 283 -503 471 -174
114 -277 157 -640 263 -106 31 -115 35 -118 59 -7 61 108 337 162 387 31 29
34 51 6 51 -66 0 -118 -68 -180 -235 -128 -340 -246 -476 -580 -670 -133 -77
-233 -151 -273 -200 -27 -34 -47 -45 -47 -25 0 5 14 25 30 43 29 34 40 67 21
67 -20 0 -72 -54 -105 -108 -46 -76 -95 -122 -142 -133 -52 -11 -164 -11 -299
1 -276 25 -466 64 -599 123 l-80 35 75 79 c119 123 192 226 293 415 26 48 58
101 72 117 32 38 84 55 145 48 64 -8 117 -32 242 -110 231 -145 305 -161 132
-29 -100 77 -112 95 -102 158 9 53 80 191 131 256 87 110 242 206 399 248 87
23 117 38 117 59 0 11 -13 13 -69 7 -83 -7 -87 -2 -65 81 42 165 76 236 153
316 70 74 158 126 293 176 140 50 184 77 265 163 183 195 259 256 399 319 165
73 308 109 469 116 161 7 226 -5 329 -57 44 -22 81 -38 83 -36 2 1 -2 17 -8
35 -19 54 23 95 136 131 90 30 264 37 348 15z m-2286 -161 c8 -11 23 -50 35
-89 40 -134 72 -180 197 -287 l84 -72 -134 -45 -134 -44 -65 74 c-110 125
-196 209 -213 209 -16 0 -16 -3 2 -37 10 -21 46 -69 78 -108 78 -93 133 -166
133 -176 0 -18 -73 -89 -92 -89 -35 0 -56 19 -159 148 -118 146 -199 266 -199
294 0 32 38 95 77 127 115 96 348 152 390 95z m-2460 -359 c137 -41 201 -138
218 -332 10 -115 9 -116 -204 -123 -159 -6 -170 -7 -214 -33 -57 -34 -107 -97
-154 -197 -52 -110 -63 -146 -63 -210 0 -70 23 -109 113 -191 l61 -55 -105
-46 c-124 -54 -191 -71 -278 -71 -226 1 -337 146 -317 416 11 158 56 279 163
439 95 142 278 297 428 363 120 54 255 69 352 40z m-23 -535 c19 -18 19 -20 1
-46 -10 -16 -55 -69 -100 -119 -84 -92 -145 -171 -145 -187 0 -24 35 5 159
132 134 137 138 140 179 140 73 0 131 -45 117 -89 -3 -9 -30 -39 -60 -64 -62
-54 -128 -137 -174 -218 -29 -52 -41 -109 -23 -109 5 0 40 46 78 103 77 113
179 223 219 233 36 9 95 -37 95 -75 0 -31 -20 -60 -124 -178 -78 -89 -106
-137 -89 -154 19 -19 41 -2 69 53 38 75 96 141 149 169 38 20 47 22 54 10 14
-22 -5 -59 -63 -125 -29 -34 -78 -96 -110 -138 -64 -88 -104 -128 -126 -128
-53 0 -337 257 -439 397 -30 40 -25 71 29 181 67 139 136 230 190 250 29 11
83 -7 114 -38z m206 34 c76 -51 160 -157 160 -201 0 -39 -27 -27 -99 46 -89
89 -130 149 -110 162 19 12 21 12 49 -7z m913 -334 c106 -31 186 -205 173
-375 -8 -106 -29 -181 -80 -290 -137 -286 -414 -528 -666 -581 -200 -41 -364
53 -406 235 -89 377 270 911 683 1016 65 16 232 14 296 -5z m4785 -615 c32
-10 60 -27 77 -47 41 -48 21 -60 -117 -69 -62 -4 -136 -12 -164 -19 -59 -13
-117 -46 -111 -63 5 -16 33 -14 137 8 71 15 98 16 170 7 148 -18 249 -71 266
-139 6 -21 0 -31 -31 -58 -24 -20 -36 -36 -31 -44 10 -16 53 -6 130 30 34 16
75 32 92 35 36 7 88 -16 103 -45 23 -41 125 -73 466 -146 271 -58 410 -93 590
-152 281 -91 385 -162 237 -163 -115 0 -329 -115 -377 -203 -14 -26 -35 -14
-75 44 -81 119 -164 160 -281 139 -80 -15 -140 -37 -322 -119 -88 -39 -164
-68 -169 -65 -7 5 -9 41 -5 105 5 77 12 111 32 153 18 39 24 60 17 72 -8 15
-11 14 -31 -7 -28 -30 -78 -161 -97 -257 -27 -129 -31 -133 -199 -222 -121
-63 -181 -108 -218 -162 -46 -70 -52 -106 -52 -333 l0 -210 -150 -6 c-262 -12
-375 -57 -531 -213 -144 -145 -211 -275 -201 -390 5 -56 4 -59 -10 -41 -32 43
-217 467 -263 605 -33 99 -35 130 -25 385 9 216 7 226 -67 310 -68 77 -75 60
-23 -55 34 -74 44 -120 27 -120 -25 0 -102 223 -102 295 0 80 112 323 231 500
112 166 190 236 366 329 169 89 165 121 -6 40 -274 -129 -534 -425 -646 -736
-9 -27 -20 -48 -25 -48 -4 0 -10 21 -13 46 -2 25 -19 72 -36 105 -17 33 -31
69 -31 82 0 41 47 123 122 213 289 343 698 606 1003 643 102 12 277 5 343 -14z
m-2597 -122 c155 -164 329 -384 374 -474 30 -58 34 -94 85 -679 44 -510 56
-620 67 -631 11 -11 125 37 378 158 308 148 363 165 404 124 11 -11 25 -37 30
-59 10 -37 52 -285 55 -326 2 -32 -81 -86 -316 -207 -120 -61 -243 -127 -273
-146 -48 -30 -54 -37 -43 -51 34 -41 462 -367 1093 -832 131 -96 246 -182 256
-190 17 -14 12 -25 -90 -213 -60 -109 -111 -201 -115 -204 -3 -4 -16 3 -29 14
-12 11 -198 157 -412 324 -215 167 -563 439 -774 604 -211 165 -386 299 -390
298 -3 -1 -159 -80 -346 -176 -187 -95 -422 -215 -522 -266 l-182 -93 -63 48
c-79 61 -146 128 -157 156 -4 12 -4 40 0 62 5 23 8 91 9 152 l0 111 418 197
c445 210 562 272 588 311 15 23 15 42 5 188 -34 464 -147 1782 -157 1825 -5
27 3 62 16 62 4 0 45 -39 91 -87z m148 20 c141 -78 321 -204 426 -300 136
-123 340 -338 446 -469 72 -90 84 -113 138 -249 80 -205 122 -326 119 -344 -5
-26 -604 653 -1137 1289 -103 124 -102 135 8 73z m716 -503 c31 -34 54 -64 51
-67 -7 -8 -77 58 -108 100 -34 47 -3 29 57 -33z m-153 -337 c268 -310 488
-573 488 -583 0 -14 -512 -258 -597 -284 -27 -9 -28 -8 -47 179 -37 344 -76
805 -76 886 0 27 4 49 9 49 5 0 105 -111 223 -247z m3845 -22 c246 -81 487
-198 611 -296 43 -35 111 -101 151 -148 81 -95 179 -185 327 -304 125 -101
191 -173 200 -220 21 -113 -24 -245 -121 -353 -73 -82 -146 -194 -219 -335
-30 -60 -76 -137 -101 -170 -25 -33 -161 -177 -303 -320 -272 -274 -302 -313
-302 -393 0 -47 14 -62 30 -32 20 37 47 24 103 -52 30 -40 80 -116 112 -168
111 -179 148 -218 306 -310 122 -72 176 -121 185 -167 7 -36 -13 -133 -27
-133 -5 0 -68 25 -140 56 -100 43 -133 53 -142 44 -15 -15 26 -50 81 -69 50
-18 129 -68 147 -94 44 -62 -2 -92 -141 -92 -84 0 -95 2 -166 38 -64 31 -91
53 -160 128 -45 50 -100 100 -121 111 -53 27 -66 63 -73 217 -4 71 -10 134
-13 139 -9 13 -307 122 -371 136 -32 6 -65 17 -74 25 -35 29 -8 112 62 194 23
27 42 50 42 53 0 7 -62 -26 -96 -52 -16 -13 -41 -44 -53 -70 -20 -40 -23 -56
-18 -113 3 -37 2 -72 -1 -78 -23 -35 -130 -45 -183 -17 -60 31 -87 147 -52
221 9 21 47 60 87 92 110 87 223 199 287 283 33 42 68 83 78 90 23 16 36 64
51 186 38 326 145 555 321 688 65 50 104 64 178 64 75 0 91 11 57 37 -39 31
-164 60 -331 78 -380 40 -545 73 -665 132 -105 53 -110 65 -110 261 0 83 2
152 4 152 2 0 32 -14 66 -31 90 -45 174 -74 302 -108 261 -68 263 -44 3 49
-228 80 -341 143 -365 201 -38 91 62 297 194 398 66 51 156 90 208 91 21 0 90
-17 155 -39z m-731 -6 c27 -16 46 -36 53 -57 19 -54 32 -336 29 -628 l-3 -274
-255 -159 c-437 -272 -642 -398 -645 -395 -1 2 -38 77 -82 168 -44 91 -106
203 -137 249 -31 46 -62 102 -68 125 -9 27 -13 110 -13 246 0 192 1 208 22
246 39 73 191 165 549 333 372 175 461 198 550 146z m-1239 -1020 c39 -12 62
-27 95 -64 62 -69 159 -244 221 -401 102 -255 247 -725 247 -800 0 -74 -95
-275 -195 -415 -65 -91 -109 -174 -166 -317 -22 -57 -97 -238 -166 -403 -199
-475 -214 -530 -216 -770 -2 -177 -2 -176 117 -415 188 -377 321 -541 556
-687 64 -40 139 -91 168 -113 53 -43 88 -92 77 -110 -12 -20 -42 -9 -100 39
-54 44 -115 74 -115 56 0 -14 25 -52 61 -94 63 -71 63 -143 0 -175 -52 -27
-127 -29 -261 -8 -69 12 -163 26 -210 32 -99 13 -153 35 -228 91 -78 60 -234
218 -297 303 -62 85 -130 139 -299 239 -198 116 -262 201 -238 314 13 65 50
138 126 255 138 211 145 244 156 743 14 590 36 702 193 1009 100 194 166 263
197 206 6 -11 15 -20 20 -20 18 0 10 81 -16 158 -49 147 -128 280 -331 559
-82 113 -149 232 -158 284 -8 43 16 95 93 205 98 139 210 230 337 275 107 38
251 48 332 24z m1503 -31 c203 -76 327 -107 510 -124 63 -5 134 -13 158 -16
l43 -5 -73 -78 c-58 -59 -87 -102 -131 -188 -69 -135 -133 -321 -147 -429 -23
-166 -30 -198 -65 -268 -44 -90 -102 -157 -208 -239 -199 -156 -263 -263 -242
-402 5 -36 17 -58 48 -92 32 -35 39 -48 31 -61 -12 -19 -257 -169 -291 -178
-42 -11 -71 5 -116 64 -61 79 -302 460 -349 552 -37 73 -38 77 -38 181 0 122
-18 201 -100 443 -76 224 -77 266 -12 338 54 59 146 120 787 511 33 20 64 37
68 37 4 0 62 -21 127 -46z m-2640 -114 c10 -5 30 -42 45 -82 75 -197 199 -409
268 -457 78 -53 209 -211 331 -398 78 -119 116 -200 116 -247 0 -96 -74 -51
-880 542 -250 184 -463 342 -472 351 -17 15 -3 24 205 128 182 93 349 171 365
173 2 0 12 -4 22 -10z m1931 -1682 c274 -411 320 -469 335 -421 11 37 23 49
104 105 101 70 546 328 566 328 18 0 336 -118 347 -129 5 -5 5 -88 0 -186 l-8
-177 -610 -345 c-798 -452 -1132 -640 -1339 -753 l-170 -93 -17 22 c-10 12
-27 48 -39 79 -44 117 -54 174 -55 297 0 188 18 214 246 353 57 35 119 76 138
91 l34 28 -27 35 c-14 20 -62 64 -106 98 -44 35 -80 64 -80 66 0 11 163 403
176 422 38 58 66 35 204 -168 110 -161 225 -310 240 -310 6 0 10 6 10 13 0 31
-133 242 -350 554 l-43 62 78 118 c105 158 145 213 156 213 5 0 100 -136 210
-302z m-668 -704 c91 -57 106 -87 62 -122 -33 -26 -205 -115 -211 -109 -5 5
65 198 85 236 14 26 13 26 64 -5z"/>
<path d="M7684 10400 c-96 -19 -241 -116 -352 -234 -161 -173 -277 -396 -313
-600 -13 -75 -8 -211 8 -227 16 -16 22 24 22 131 -1 141 35 261 124 415 109
189 285 379 404 436 35 17 103 40 151 51 151 34 155 36 72 36 -41 0 -94 -4
-116 -8z"/>
<path d="M8800 9674 c-227 -48 -465 -280 -615 -597 -78 -165 -109 -340 -75
-422 l13 -30 7 25 c5 14 9 59 9 100 4 250 157 546 381 737 88 75 243 154 338
173 63 13 84 31 35 29 -16 0 -57 -7 -93 -15z"/>
<path d="M4384 9245 c-74 -58 -324 -515 -282 -515 35 0 145 171 178 275 20 64
65 146 109 199 57 68 55 88 -5 41z"/>
<path d="M7588 8303 c-41 -69 -93 -139 -150 -199 -82 -87 -101 -114 -80 -114
13 0 93 59 115 84 56 66 160 234 182 296 24 69 -1 44 -67 -67z"/>
<path d="M7329 7845 c-56 -20 -99 -45 -99 -55 0 -16 71 -11 120 8 32 13 45 23
45 37 0 25 -20 28 -66 10z"/>
<path d="M5527 8594 c-3 -3 -1 -19 5 -35 14 -39 54 -49 210 -49 115 0 156 8
128 25 -6 3 -61 10 -123 15 -111 9 -155 18 -194 39 -11 5 -23 8 -26 5z"/>
<path d="M5390 8561 c0 -44 -43 -73 -181 -120 -206 -70 -278 -118 -354 -236
-99 -153 -203 -224 -405 -274 -137 -34 -129 -46 26 -38 124 6 167 23 287 118
56 43 82 72 94 100 34 86 228 226 388 280 146 48 184 85 170 163 -9 43 -25 48
-25 7z"/>
<path d="M5574 8373 c14 -26 26 -51 26 -55 0 -20 -67 -79 -185 -163 -140 -99
-205 -163 -205 -202 0 -33 13 -28 37 15 44 76 125 132 192 132 45 0 82 17 124
58 79 77 82 212 5 253 -17 9 -16 5 6 -38z"/>
<path d="M5720 8367 c0 -37 94 -89 203 -111 82 -17 227 -22 227 -7 0 11 -71
28 -155 37 -82 9 -173 38 -215 69 -37 28 -60 32 -60 12z"/>
<path d="M5844 8145 c37 -146 46 -196 47 -259 1 -122 -31 -163 -140 -177 -39
-4 -86 -16 -103 -25 -65 -33 -108 -88 -108 -139 0 -38 -25 -91 -70 -147 -43
-54 -48 -68 -26 -68 31 0 77 71 155 241 25 55 45 65 159 85 141 24 184 57 198
151 13 85 -39 263 -97 333 -17 21 -19 22 -15 5z"/>
<path d="M6250 8147 c0 -6 24 -44 53 -83 28 -39 58 -80 65 -90 11 -17 12 -15
7 14 -7 48 -33 99 -70 138 -33 35 -55 44 -55 21z"/>
<path d="M4010 7886 c-128 -38 -334 -154 -328 -185 5 -24 28 -17 178 53 169
80 188 86 278 96 81 8 103 20 82 45 -19 22 -120 18 -210 -9z"/>
<path d="M5990 7862 c0 -24 26 -47 70 -60 51 -15 270 -25 300 -14 24 10 24 11
-25 34 -43 20 -67 23 -168 24 -93 1 -121 5 -136 18 -23 21 -41 20 -41 -2z"/>
<path d="M4920 7853 c-13 -3 -47 -14 -74 -25 -27 -10 -66 -19 -85 -18 -55 3
-61 1 -61 -14 0 -21 39 -46 70 -46 15 0 68 20 119 45 51 25 99 45 107 45 8 0
12 5 9 10 -6 10 -39 11 -85 3z"/>
<path d="M5195 7833 c-4 -16 -10 -116 -14 -223 -9 -226 -12 -238 -96 -301 -30
-23 -55 -43 -55 -45 0 -5 103 27 130 41 14 7 36 25 50 40 l25 27 -2 191 c-2
202 -9 297 -23 297 -4 0 -11 -12 -15 -27z"/>
<path d="M4615 7673 c-48 -10 -106 -13 -183 -10 -111 5 -113 5 -96 -14 23 -25
116 -59 163 -59 55 0 85 -27 77 -67 -9 -39 -77 -107 -157 -155 l-63 -38 48 0
c26 0 55 -4 65 -9 23 -13 47 -69 66 -156 25 -110 78 -185 119 -169 24 9 20 20
-19 55 -39 36 -51 67 -59 157 -3 34 -15 85 -27 112 -24 57 -20 93 14 112 13 8
73 15 147 18 l125 5 -78 19 c-92 22 -117 45 -117 111 0 57 15 67 82 59 59 -7
80 5 58 31 -15 18 -71 18 -165 -2z"/>
<path d="M6042 7679 c33 -87 70 -225 72 -266 1 -64 -14 -82 -129 -151 -75 -45
-126 -94 -112 -108 4 -4 23 6 43 21 38 29 122 65 152 65 21 0 62 40 62 59 0 7
8 29 17 48 l16 36 161 -6 c89 -4 176 -9 195 -13 41 -8 35 8 -12 32 -22 12 -72
19 -163 24 -100 5 -139 11 -159 24 -29 19 -45 53 -45 97 0 49 -42 118 -84 141
-15 8 -18 7 -14 -3z"/>
<path d="M6463 7612 c3 -43 12 -92 19 -108 12 -28 13 -26 16 41 4 74 -11 145
-30 145 -8 0 -9 -24 -5 -78z"/>
<path d="M4830 7633 c0 -27 43 -73 75 -82 59 -16 196 14 180 39 -3 5 -46 8
-95 7 -78 -2 -92 1 -119 21 -32 23 -41 27 -41 15z"/>
<path d="M3662 7393 c-5 -10 -12 -43 -15 -74 -12 -121 -96 -280 -204 -386 -76
-75 -87 -93 -53 -93 55 0 157 86 215 180 63 103 119 316 96 366 -13 28 -27 31
-39 7z"/>
<path d="M6241 7288 c40 -79 106 -175 135 -195 48 -34 100 -46 162 -38 43 6
52 9 37 16 -11 4 -38 8 -60 9 -83 1 -180 66 -191 127 -6 32 -76 123 -95 123
-5 0 0 -19 12 -42z"/>
<path d="M6540 7314 c0 -3 20 -28 44 -55 27 -30 51 -71 62 -102 22 -69 34 -80
34 -31 0 53 -41 136 -82 168 -33 25 -58 33 -58 20z"/>
<path d="M5180 7202 c0 -36 114 -112 165 -111 41 1 134 35 115 42 -8 3 -41 7
-72 10 -37 2 -79 14 -121 35 -65 32 -87 38 -87 24z"/>
<path d="M5564 7113 c8 -16 40 -53 71 -83 l56 -55 72 39 c152 82 161 104 27
62 -72 -23 -84 -25 -113 -13 -18 8 -38 22 -46 31 -14 16 -63 46 -76 46 -3 0 1
-12 9 -27z"/>
<path d="M4887 7124 c-26 -8 -15 -28 19 -35 79 -18 201 -2 177 22 -11 11 -167
21 -196 13z"/>
<path d="M6283 6974 c-71 -53 -87 -74 -60 -74 30 0 157 98 157 121 0 19 -29 6
-97 -47z"/>
<path d="M5934 6958 c8 -52 36 -110 55 -116 18 -6 10 39 -20 108 -27 62 -44
66 -35 8z"/>
<path d="M5439 6721 c-105 -34 -80 -51 66 -44 88 5 128 2 184 -12 56 -14 78
-15 97 -6 34 15 30 26 -18 46 -48 19 -284 31 -329 16z"/>
<path d="M2460 6645 c0 -8 10 -19 21 -26 52 -27 170 -61 235 -66 65 -5 76 -3
135 25 36 17 73 40 84 52 18 20 18 20 -7 20 -14 0 -57 -10 -94 -22 -89 -28
-147 -26 -264 6 -111 30 -110 30 -110 11z"/>
<path d="M2998 6349 c-84 -33 -98 -49 -43 -49 56 0 145 44 145 72 0 13 -20 9
-102 -23z"/>
<path d="M985 8266 c-183 -45 -447 -283 -581 -522 -79 -141 -124 -319 -108
-431 l7 -58 13 100 c56 430 384 819 753 895 51 10 96 21 99 24 10 11 -133 4
-183 -8z"/>
<path d="M2034 7471 c-95 -33 -191 -84 -266 -143 -263 -206 -455 -566 -422
-791 l7 -52 13 98 c31 236 142 447 339 642 146 144 263 208 415 225 93 11 106
16 89 36 -18 22 -86 16 -175 -15z"/>
<path d="M7009 6585 c-70 -25 -305 -148 -389 -202 -113 -74 -211 -155 -244
-201 -53 -77 -24 -83 66 -12 184 145 281 213 413 290 188 109 253 162 154 125z"/>
<path d="M7136 6334 c-184 -33 -680 -268 -730 -346 -20 -32 -32 -98 -16 -98 6
0 37 24 68 54 208 197 483 320 857 385 l110 19 -105 0 c-58 0 -141 -6 -184
-14z"/>
<path d="M6264 5723 c-40 -5 -71 -35 -52 -50 7 -6 119 -15 248 -22 129 -6 261
-17 293 -23 107 -21 97 30 -13 67 -83 27 -353 43 -476 28z"/>
<path d="M9755 5224 c31 -73 37 -106 37 -181 -1 -81 10 -111 30 -82 14 21 3
168 -17 217 -10 23 -27 47 -38 53 -17 10 -19 9 -12 -7z"/>
<path d="M9830 4807 c0 -29 91 -133 148 -169 72 -44 47 8 -51 110 -67 69 -97
87 -97 59z"/>
<path d="M9560 4521 c0 -17 4 -32 9 -35 11 -7 22 31 14 50 -9 24 -23 15 -23
-15z"/>
<path d="M9528 4283 c-9 -10 -42 -58 -73 -108 -82 -129 -155 -214 -224 -264
-34 -25 -61 -50 -61 -58 0 -58 174 85 288 237 52 70 108 188 95 201 -6 6 -15
3 -25 -8z"/>
<path d="M9810 2717 c0 -8 9 -22 20 -32 18 -16 20 -16 26 -1 3 9 4 23 0 31 -7
19 -46 20 -46 2z"/>
<path d="M8005 5753 c-86 -21 -470 -210 -549 -271 -72 -54 -85 -78 -102 -177
-18 -101 -16 -287 3 -306 21 -21 34 27 43 164 5 72 15 150 21 172 19 69 72
105 354 245 144 71 268 136 274 144 23 28 3 40 -44 29z"/>
<path d="M7232 4008 c-7 -7 -12 -20 -12 -30 0 -24 -52 -128 -100 -198 -20 -30
-43 -66 -50 -80 -13 -24 -13 -24 11 -9 55 36 208 282 195 315 -7 17 -28 18
-44 2z"/>
<path d="M7130 3505 c0 -50 111 -195 149 -195 17 0 51 29 51 43 0 4 -11 7 -24
7 -32 0 -68 31 -117 100 -42 60 -59 73 -59 45z"/>
<path d="M6788 3252 c-13 -48 36 -212 63 -212 6 0 8 7 4 18 -3 9 -11 53 -17
97 -5 44 -13 86 -17 94 -11 23 -28 24 -33 3z"/>
<path d="M6826 2862 c-12 -14 -21 -47 -27 -103 -17 -150 -103 -360 -191 -468
-73 -91 -88 -115 -79 -124 29 -29 112 40 166 138 67 121 160 447 153 537 -3
40 -3 40 -22 20z"/>
<path d="M6369 1474 c-49 -74 -90 -165 -96 -212 -4 -39 -1 -52 17 -75 21 -27
68 -53 77 -43 2 2 -5 22 -16 45 -29 55 -27 85 14 198 41 112 42 145 4 87z"/>
<path d="M7370 422 c0 -18 39 -43 74 -49 46 -7 47 9 2 36 -34 21 -76 28 -76
13z"/>
</g>
</svg>
