<?xml version="1.0" standalone="no"?>
<!DOCTYPE svg PUBLIC "-//W3C//DTD SVG 20010904//EN"
 "http://www.w3.org/TR/2001/REC-SVG-20010904/DTD/svg10.dtd">
<svg version="1.0" xmlns="http://www.w3.org/2000/svg"
 width="1111.000000pt" height="703.000000pt" viewBox="0 0 1111.000000 703.000000"
 preserveAspectRatio="xMidYMid meet">

<g transform="translate(0.000000,703.000000) scale(0.100000,-0.100000)"
fill="#000000" stroke="none">
<path d="M9183 6806 c-154 -38 -303 -163 -419 -354 -131 -214 -163 -557 -68
-731 37 -69 118 -147 189 -182 90 -44 177 -55 285 -35 48 9 93 16 99 16 24 0
8 -49 -46 -140 -72 -121 -234 -285 -418 -425 -270 -205 -377 -310 -449 -438
l-36 -64 -212 -7 c-117 -3 -390 -9 -606 -12 l-393 -6 -187 185 c-207 204 -221
214 -411 279 -64 22 -167 67 -228 99 -65 35 -150 71 -200 85 -107 29 -329 59
-558 74 -342 22 -401 43 -509 185 -69 90 -92 106 -289 199 -183 87 -260 135
-377 235 -87 73 -150 111 -187 111 -41 0 -105 31 -196 94 -52 36 -129 84 -173
107 -109 57 -163 100 -327 255 -173 166 -258 225 -375 260 -48 14 -130 41
-182 61 -140 52 -213 70 -342 83 -130 13 -233 3 -296 -29 -62 -32 -127 -97
-161 -161 -29 -55 -34 -76 -42 -178 -13 -160 -18 -176 -55 -180 -16 -2 -77 15
-139 38 -236 89 -311 100 -726 100 l-256 0 -69 -72 c-39 -40 -80 -89 -92 -109
-29 -48 -52 -150 -52 -235 0 -80 -23 -323 -45 -487 -32 -234 -16 -425 64 -772
53 -228 64 -309 64 -445 -1 -227 -22 -277 -138 -324 -93 -37 -164 -42 -259
-17 -115 30 -142 28 -181 -13 -42 -45 -113 -207 -121 -278 -4 -34 -2 -69 5
-91 33 -98 187 -222 321 -257 215 -56 327 -105 468 -205 79 -57 112 -65 274
-70 73 -2 134 -4 134 -4 1 -1 -9 -34 -22 -75 -67 -211 -49 -421 46 -562 44
-64 149 -167 188 -185 17 -7 33 -23 36 -34 3 -11 6 -85 7 -165 l1 -145 -188
-83 c-104 -45 -267 -117 -362 -159 l-174 -76 7 -106 c12 -186 32 -391 38 -397
9 -9 357 -134 372 -134 7 0 90 38 184 85 304 151 615 297 670 316 30 11 66 19
80 19 14 0 190 -57 391 -126 640 -221 1921 -657 2632 -896 l447 -150 68 44
c75 49 255 191 290 229 62 68 72 189 73 902 l0 487 194 0 194 0 554 274 c804
399 1011 512 1109 606 73 70 84 106 74 244 -4 54 -13 117 -21 140 -17 48 -65
100 -115 126 -20 11 -43 29 -51 42 -12 19 -78 313 -78 349 0 5 20 9 44 9 24 0
86 9 137 19 134 28 291 48 464 61 260 19 320 45 380 164 34 66 95 146 246 321
149 173 258 381 400 766 91 248 124 330 166 414 50 100 83 133 83 82 0 -56
121 -196 203 -236 92 -45 205 -49 342 -15 92 24 161 69 265 174 104 105 175
212 219 334 25 68 26 80 26 281 l0 210 -28 57 c-63 128 -181 217 -318 240 -80
13 -187 -6 -306 -53 -66 -27 -83 -30 -122 -23 -25 4 -114 7 -196 6 -140 -3
-152 -1 -173 18 -24 22 -28 38 -35 120 -15 164 -132 308 -279 339 -64 14 -180
13 -245 -3z m277 -73 c55 -24 123 -89 151 -144 11 -22 28 -78 38 -123 l18 -83
-104 -6 c-170 -10 -215 -45 -226 -181 -7 -74 -16 -103 -77 -245 -40 -92 -49
-189 -26 -275 11 -42 13 -63 5 -72 -19 -23 -101 -44 -171 -44 -63 0 -69 2 -77
23 -5 13 -34 53 -65 88 -125 142 -136 302 -39 539 75 183 186 334 303 409 30
19 100 50 155 68 l100 33 -71 -3 c-101 -6 -193 -55 -300 -162 -123 -123 -203
-256 -255 -425 -19 -61 -24 -98 -24 -195 0 -111 2 -124 27 -170 15 -27 47 -75
72 -105 44 -53 57 -80 36 -80 -5 0 -39 28 -75 61 -205 193 -203 533 7 841 84
124 189 208 320 253 90 32 205 31 278 -2z m-6853 -47 c38 -8 82 -20 98 -27 17
-6 122 -42 235 -81 112 -38 229 -83 260 -100 49 -28 380 -340 380 -359 0 -4
-66 -28 -147 -54 -82 -26 -168 -58 -193 -70 -76 -39 -137 -101 -197 -202 -31
-52 -63 -98 -71 -101 -8 -3 -36 6 -61 20 -25 14 -91 38 -145 52 -55 15 -124
41 -155 58 -54 31 -147 117 -221 206 -43 51 -66 58 -62 20 3 -25 1 -26 -25
-19 -81 23 -203 103 -203 133 0 25 19 42 47 44 15 1 31 3 36 3 14 2 7 48 -18
119 -44 126 -31 188 58 268 60 54 88 69 159 88 69 19 141 19 225 2z m7948
-350 c19 -8 35 -19 35 -24 0 -5 -29 -12 -65 -15 -92 -9 -164 -46 -255 -134
-119 -113 -210 -260 -272 -437 -28 -80 -32 -104 -32 -201 -1 -99 2 -116 26
-168 15 -31 47 -84 72 -116 70 -91 62 -104 -26 -42 -89 64 -139 144 -164 260
-50 235 41 506 236 701 147 148 335 222 445 176z m-1035 -35 c0 -27 -46 -156
-72 -202 -35 -63 -52 -49 -56 44 -2 66 1 84 20 119 33 59 108 86 108 39z m170
0 c0 -9 -18 -45 -40 -81 -22 -36 -40 -72 -40 -81 0 -9 -6 -22 -14 -28 -33 -27
-48 75 -23 149 19 56 117 90 117 41z m160 -30 c0 -15 -52 -124 -78 -163 -45
-68 -121 -71 -108 -4 12 61 65 154 94 164 34 13 92 15 92 3z m215 -12 c27 -25
-149 -209 -200 -209 -35 0 -32 26 9 108 33 65 65 104 96 115 19 7 82 -3 95
-14z m643 -13 c111 -100 152 -326 98 -537 -43 -169 -114 -296 -228 -405 -98
-94 -253 -164 -365 -164 -39 0 -44 3 -62 38 -11 20 -42 63 -69 95 -111 131
-111 336 1 571 47 97 134 225 199 293 72 74 231 142 335 143 47 0 58 -4 91
-34z m-9258 14 c241 -14 283 -24 485 -124 173 -86 459 -252 573 -334 l64 -45
-74 -22 c-174 -51 -356 -183 -416 -302 -61 -118 -119 -334 -131 -481 -4 -57
-13 -108 -18 -113 -11 -11 -88 23 -147 65 -103 72 -255 204 -417 364 -103 100
-212 203 -244 227 -53 42 -95 57 -95 36 0 -26 19 -47 91 -102 71 -53 169 -163
169 -187 0 -6 -19 -13 -42 -17 -68 -10 -104 -24 -127 -49 -28 -30 -62 -127
-68 -198 -10 -106 57 -203 222 -323 22 -16 41 -30 43 -31 2 -1 -15 -55 -37
-120 -51 -151 -71 -274 -71 -444 0 -166 16 -301 70 -580 52 -270 53 -360 5
-410 -37 -39 -90 -67 -143 -76 -73 -12 -208 42 -373 147 -105 68 -190 104
-289 124 -128 26 -220 72 -295 149 -70 71 -81 100 -73 187 4 34 15 63 35 92
17 23 36 59 42 79 7 21 22 45 34 53 39 27 167 12 167 -20 0 -7 -20 -21 -45
-30 -55 -21 -75 -42 -54 -56 21 -13 62 -2 169 46 52 24 137 58 189 76 134 46
138 51 157 184 19 139 19 297 0 400 -8 44 -35 166 -60 272 -59 247 -69 338
-61 543 10 275 21 358 52 403 l26 38 -11 102 c-19 165 -16 253 12 312 34 71
112 144 173 161 58 15 272 17 513 4z m8120 -220 c80 -40 160 -60 243 -60 52 0
68 -3 64 -12 -40 -91 -58 -151 -72 -243 -27 -178 -43 -245 -81 -330 -86 -192
-125 -293 -193 -488 -147 -426 -276 -655 -507 -897 -107 -113 -144 -164 -179
-253 l-27 -67 -167 0 c-178 0 -224 9 -153 31 23 7 48 19 55 27 10 13 3 15 -58
9 -65 -5 -145 -28 -353 -102 -130 -46 -222 -55 -222 -20 0 7 16 32 35 55 62
75 27 90 -77 35 l-71 -37 -161 165 c-271 277 -300 292 -581 292 -146 0 -180
-4 -245 -23 -41 -12 -100 -22 -131 -22 -63 0 -72 -5 -58 -31 14 -27 99 -25
219 5 123 30 180 40 180 29 -1 -11 -77 -66 -127 -92 -53 -26 -83 -27 -116 -1
-34 27 -37 26 -37 -14 0 -36 12 -51 45 -58 30 -6 22 -36 -44 -178 -78 -165
-91 -207 -102 -320 -5 -52 -13 -124 -19 -160 -13 -83 -3 -203 20 -257 22 -51
61 -73 129 -73 76 0 98 12 111 61 6 22 9 44 6 47 -4 3 -22 -10 -41 -28 -28
-27 -44 -35 -75 -35 -74 0 -105 58 -104 195 0 89 11 123 47 152 20 15 20 20 9
50 -19 52 -15 92 19 192 57 170 169 357 252 420 19 15 60 36 91 46 155 55 274
-4 506 -249 221 -233 262 -304 282 -488 44 -389 -183 -761 -504 -827 -286 -59
-480 42 -657 343 -40 67 -82 128 -94 135 -33 22 -119 31 -148 16 -13 -7 -58
-46 -100 -86 -53 -51 -98 -84 -145 -106 -65 -31 -76 -33 -179 -33 -90 0 -116
3 -138 18 -24 15 -27 23 -21 51 4 22 1 36 -7 41 -12 8 -19 1 -91 -89 -15 -18
-59 -50 -96 -69 -79 -42 -101 -62 -84 -79 16 -16 132 14 179 47 56 37 98 33
122 -12 17 -32 13 -62 -12 -118 -44 -93 -163 -189 -305 -244 -66 -25 -72 -26
-282 -24 -170 1 -211 -1 -196 -10 10 -7 28 -20 40 -29 l21 -18 -25 -20 c-33
-26 -121 -59 -187 -71 -29 -5 -79 -13 -110 -19 -75 -13 -151 -51 -202 -100
-37 -36 -55 -80 -32 -80 5 0 29 16 53 35 83 67 198 109 198 71 0 -16 -193
-145 -273 -181 -48 -23 -78 -28 -196 -35 -116 -6 -143 -11 -167 -28 -16 -11
-78 -33 -139 -48 -151 -38 -268 -38 -425 -1 -63 15 -175 42 -247 59 -73 17
-133 35 -133 40 0 6 29 56 64 111 91 145 136 257 151 378 4 33 14 54 36 75 26
25 39 29 103 32 97 5 264 -27 436 -84 139 -47 253 -64 298 -47 21 8 12 14 -77
54 -55 24 -101 47 -101 50 0 7 202 186 265 234 70 53 122 73 226 87 103 13
109 11 109 -54 0 -20 4 -39 9 -42 16 -10 31 19 51 101 37 150 81 226 226 394
201 233 209 252 199 507 -5 136 -3 202 9 282 29 199 72 285 230 459 77 85 87
101 62 101 -34 0 -154 -114 -235 -223 -105 -143 -125 -233 -123 -548 2 -264
-5 -323 -45 -376 -30 -39 -216 -183 -237 -183 -12 0 -132 50 -255 107 -197 90
-334 228 -554 558 -85 129 -159 220 -177 220 -10 0 -15 -11 -15 -30 -1 -40
-21 -42 -82 -11 -177 93 -246 304 -178 540 32 110 64 162 105 171 38 8 112 -2
159 -21 40 -17 71 -18 71 -3 0 41 -69 79 -143 79 -24 0 -52 6 -63 14 -18 14
-14 19 74 105 138 134 245 210 380 271 222 99 412 150 564 150 78 0 89 -4 167
-68 96 -78 190 -110 401 -137 176 -23 163 -14 155 -95 -5 -53 -2 -86 14 -148
11 -45 18 -89 14 -99 -4 -10 -21 -36 -40 -57 -29 -34 -42 -66 -29 -66 48 0
116 97 116 165 0 22 -9 73 -20 114 -22 82 -18 116 14 133 31 17 193 12 327
-11 110 -19 259 -65 259 -81 0 -4 -19 -12 -42 -19 -142 -42 -228 -96 -228
-142 0 -27 15 -24 58 11 62 49 114 63 232 63 189 -1 359 -54 495 -155 33 -24
101 -89 150 -143 143 -157 260 -275 273 -275 8 0 10 9 6 26 -18 73 119 55 348
-46 112 -48 158 -60 158 -40 0 15 -41 50 -100 83 l-54 31 44 13 c187 54 611
34 748 -36 32 -16 42 -27 42 -46 0 -14 3 -25 8 -25 34 1 215 140 200 155 -3 4
-38 -4 -77 -16 -85 -27 -100 -21 -77 34 52 126 206 296 401 442 174 130 368
311 436 406 24 34 54 74 66 88 l22 26 -6 -52 c-5 -45 -3 -53 11 -53 10 0 23
15 33 37 21 51 12 113 -34 249 -32 95 -36 121 -36 204 -1 78 4 106 24 158 14
35 29 63 33 64 15 0 175 -153 181 -173 5 -14 0 -28 -14 -43 -31 -33 -52 -103
-54 -181 -2 -73 16 -135 38 -135 20 0 25 24 18 93 -3 40 -1 79 7 103 18 56 65
125 105 154 19 14 35 30 35 37 0 6 -30 26 -66 44 -86 43 -114 77 -114 135 0
24 5 44 10 44 6 0 37 -14 70 -30z m-5806 -14 c57 -24 175 -114 207 -160 20
-26 27 -46 23 -59 -7 -22 -6 -22 74 8 76 27 125 2 306 -155 55 -47 112 -81
262 -155 105 -52 194 -101 197 -109 7 -18 -23 -29 -146 -51 -195 -35 -455
-148 -661 -285 -142 -95 -215 -165 -286 -273 -135 -204 -178 -406 -125 -583 8
-27 35 -81 60 -120 24 -38 45 -72 45 -76 0 -13 -164 -9 -242 6 -162 31 -319
98 -448 192 -175 127 -166 122 -329 159 -193 43 -234 57 -302 101 -82 54 -186
105 -264 130 l-70 22 -25 58 c-23 55 -25 70 -25 219 1 139 5 176 29 280 37
158 73 232 151 310 135 136 336 215 543 215 88 0 98 -5 219 -101 141 -113 184
-119 402 -64 160 41 192 43 230 14 35 -26 65 -22 69 9 7 48 -117 72 -253 48
-49 -9 -93 -16 -97 -16 -17 0 -6 22 42 81 51 63 59 79 39 79 -33 0 -66 -29
-127 -112 -23 -32 -51 -62 -61 -68 -43 -22 -105 -5 -146 40 l-19 22 38 73 c69
135 216 270 338 311 110 36 277 41 352 10z m-2357 -893 c26 -20 89 -73 138
-118 99 -89 170 -145 286 -223 92 -61 113 -86 134 -157 18 -63 34 -75 182
-134 99 -39 149 -62 278 -128 42 -22 100 -38 197 -56 161 -29 212 -51 333
-142 172 -129 394 -216 585 -229 47 -3 122 -15 168 -26 47 -11 119 -20 165
-20 78 0 85 -2 129 -35 26 -19 69 -64 95 -100 145 -197 182 -244 247 -313 96
-101 213 -190 384 -292 78 -46 151 -92 162 -103 20 -18 20 -19 2 -45 -11 -15
-27 -51 -37 -81 -23 -70 -41 -87 -103 -94 -28 -3 -83 -20 -123 -37 -129 -55
-134 -54 -289 43 -171 107 -1103 683 -1665 1029 -1310 808 -1484 920 -1527
978 -40 55 -35 179 9 248 32 49 77 71 150 71 44 1 58 -4 100 -36z m69 -594
l74 -40 0 -589 0 -588 -66 -61 c-86 -78 -100 -79 -108 -3 -4 31 -25 152 -48
267 -88 459 -90 665 -9 898 17 49 31 101 31 116 0 55 28 55 126 0z m255 -162
c31 -17 127 -76 213 -131 l156 -98 -2 -322 -3 -321 -95 -6 c-118 -8 -192 -27
-303 -79 -48 -22 -90 -40 -93 -40 -3 0 -4 222 -2 493 3 523 4 537 51 537 12 0
47 -15 78 -33z m618 -384 c181 -109 719 -441 1221 -753 157 -98 411 -255 565
-349 154 -95 284 -176 289 -182 6 -5 0 -19 -15 -35 -49 -54 -196 -166 -255
-195 -58 -29 -64 -30 -120 -20 -52 9 -415 41 -470 41 -17 0 -25 15 -52 103
-69 226 -189 333 -407 361 -54 7 -146 -7 -263 -40 l-96 -27 -56 20 c-81 31
-207 88 -224 102 -7 6 -17 40 -21 77 -8 78 -64 198 -125 267 -23 26 -70 65
-106 88 l-64 42 0 272 c0 251 4 335 18 335 2 0 84 -48 181 -107z m-259 -569
c35 -8 85 -28 110 -44 135 -87 219 -315 162 -443 -25 -57 -41 -62 -176 -53
-178 11 -262 -17 -305 -102 -25 -50 -51 -180 -51 -259 0 -94 21 -123 123 -173
l81 -39 -106 -50 c-128 -60 -204 -81 -292 -81 -139 0 -240 70 -312 215 l-39
79 0 150 c0 144 2 155 31 238 44 123 106 227 191 318 91 97 176 163 269 206
114 53 204 64 314 38z m5908 -345 c55 -19 105 -115 118 -227 13 -120 -44 -193
-250 -317 -118 -71 -908 -466 -1161 -580 -474 -214 -566 -214 -930 0 -228 133
-335 211 -335 242 0 13 18 19 85 26 23 3 69 16 103 30 192 77 332 215 362 354
6 28 19 58 28 66 9 9 62 23 116 32 129 20 162 36 275 134 52 45 106 84 120 88
42 10 73 -18 136 -123 135 -226 247 -337 393 -385 93 -31 273 -24 387 15 110
37 209 102 292 189 104 110 160 219 197 390 10 42 21 77 25 77 4 0 22 -5 39
-11z m-5389 -189 c39 -20 58 -50 45 -71 -9 -15 -71 -7 -167 21 -61 18 -77 27
-77 42 0 10 10 23 23 28 33 14 131 3 176 -20z m632 -27 c91 -41 156 -119 195
-233 27 -81 25 -248 -5 -360 -46 -171 -91 -249 -223 -386 -155 -160 -264 -220
-423 -231 -211 -15 -340 63 -406 245 -34 94 -34 261 0 377 72 248 238 464 426
555 101 49 154 60 285 56 80 -2 116 -7 151 -23z m-1121 -33 c0 -6 -11 -27 -24
-48 -64 -102 -107 -228 -92 -269 7 -17 8 -17 21 1 8 10 23 48 35 83 49 153
141 229 265 221 l45 -3 -61 -85 c-84 -116 -161 -280 -131 -280 6 0 37 44 71
99 99 161 218 254 286 223 14 -6 25 -18 25 -26 0 -8 -32 -54 -70 -102 -77 -97
-190 -308 -190 -355 0 -71 -33 -77 -104 -19 -64 53 -85 65 -191 108 -118 50
-130 66 -129 180 2 143 55 247 138 271 43 13 106 13 106 1z m-29 -642 c0 -40
4 -95 7 -123 7 -48 8 -50 37 -48 17 0 49 7 73 14 52 16 51 17 86 -96 42 -134
133 -263 216 -304 44 -22 135 -47 222 -61 56 -9 541 -142 618 -169 14 -5 117
-37 230 -71 809 -244 1710 -538 1768 -578 28 -18 37 -21 43 -10 12 18 11 533
-2 923 -6 182 -9 358 -7 392 l3 61 190 -119 c178 -112 393 -229 422 -229 7 0
13 -3 13 -7 0 -5 -7 -219 -15 -478 -8 -258 -15 -560 -15 -671 l0 -201 -107
-84 c-239 -189 -228 -182 -265 -174 -101 21 -1038 332 -2068 685 -392 134
-998 342 -1243 426 -87 30 -164 54 -171 54 -8 0 -155 -68 -327 -151 -173 -83
-375 -180 -449 -216 -155 -75 -123 -75 -337 3 l-133 49 0 220 0 220 178 79
c307 138 456 212 488 242 42 40 54 87 54 217 0 59 2 107 4 107 2 0 39 7 83 15
114 22 218 59 303 109 41 24 81 44 88 45 8 1 12 -20 13 -71z m158 -14 c31 -29
23 -46 -34 -80 -58 -34 -65 -27 -65 74 l0 74 38 -23 c20 -12 48 -32 61 -45z
m3064 -61 c24 -155 34 -1230 12 -1252 -11 -11 -241 55 -760 219 -154 48 -361
114 -460 145 -222 70 -788 252 -950 306 -221 74 -234 81 -176 94 24 5 113 60
226 140 10 6 68 -4 187 -33 95 -24 214 -50 263 -57 132 -22 310 -19 425 6 144
30 286 56 380 69 156 20 246 61 403 180 101 78 371 220 417 220 24 0 28 -5 33
-37z"/>
<path d="M2470 6277 c-98 -23 -103 -34 -19 -41 80 -7 415 7 426 18 4 3 1 12
-5 18 -17 17 -332 21 -402 5z"/>
<path d="M1114 6083 c-33 -27 -79 -57 -104 -67 -109 -46 -131 -59 -145 -87
-27 -51 -14 -52 56 -4 52 36 105 55 151 55 35 0 81 40 107 92 19 39 20 58 2
58 -4 0 -34 -21 -67 -47z"/>
<path d="M904 5379 c-20 -27 -52 -114 -65 -179 -18 -90 -16 -369 4 -496 31
-199 88 -386 147 -481 21 -36 40 -43 40 -16 0 10 -20 76 -44 148 -137 402
-163 670 -91 915 27 91 31 137 9 109z"/>
<path d="M1105 3758 c15 -154 41 -255 61 -235 9 9 -49 307 -59 307 -5 0 -6
-33 -2 -72z"/>
<path d="M931 3705 c-2 -85 -42 -132 -119 -142 -65 -9 -52 -27 14 -20 102 11
132 50 116 152 l-9 60 -2 -50z"/>
<path d="M4663 5253 c-15 -3 -23 -12 -23 -24 0 -16 7 -19 42 -19 26 0 57 -9
86 -26 31 -19 47 -23 55 -15 7 7 5 17 -9 32 -35 39 -102 62 -151 52z"/>
<path d="M4905 5170 c-51 -21 -95 -98 -95 -167 0 -53 21 -36 53 43 27 67 66
114 97 114 8 0 22 5 30 10 19 12 -55 13 -85 0z"/>
<path d="M4310 5111 c0 -19 78 -76 148 -109 64 -29 182 -55 182 -40 0 3 -41
20 -91 38 -49 17 -110 47 -133 65 -67 51 -106 68 -106 46z"/>
<path d="M5188 5065 c-53 -39 -61 -67 -30 -106 l19 -22 6 38 c4 27 19 52 49
82 34 35 38 43 23 43 -11 0 -41 -16 -67 -35z"/>
<path d="M4745 4934 c-81 -16 -102 -24 -170 -68 -27 -18 -83 -50 -124 -71 -86
-45 -113 -80 -109 -140 4 -53 29 -53 46 -1 18 55 27 63 100 96 35 16 85 49
112 73 71 64 170 87 380 87 l115 0 -50 -44 c-27 -24 -78 -61 -113 -83 -162
-99 -227 -151 -210 -169 20 -19 188 78 276 160 128 119 226 116 395 -12 37
-29 72 -52 78 -52 45 0 -64 116 -145 154 -28 13 -89 31 -136 40 -47 10 -107
24 -134 32 -62 18 -216 17 -311 -2z"/>
<path d="M4090 4901 c0 -48 107 -175 158 -188 38 -9 34 1 -16 37 -55 42 -92
93 -92 129 0 29 -16 51 -37 51 -8 0 -13 -12 -13 -29z"/>
<path d="M9101 4658 c-21 -46 -42 -94 -46 -108 -16 -53 -78 -195 -102 -234
-14 -23 -61 -78 -104 -122 -44 -45 -79 -87 -79 -93 0 -42 110 32 181 121 71
90 182 350 205 481 11 62 -13 43 -55 -45z"/>
<path d="M4450 4561 c14 -27 88 -53 140 -49 72 5 57 23 -38 46 -110 27 -116
28 -102 3z"/>
<path d="M5259 4516 c-20 -7 -59 -26 -85 -42 -67 -41 -104 -55 -165 -63 -59
-7 -73 -25 -35 -43 40 -17 116 4 216 61 47 27 110 57 140 66 109 34 109 33 35
34 -38 0 -86 -6 -106 -13z"/>
<path d="M5866 4521 c6 -6 64 -30 130 -52 139 -47 224 -92 360 -190 l99 -71
-50 52 c-74 76 -197 165 -304 218 -82 41 -103 47 -170 50 -56 3 -73 1 -65 -7z"/>
<path d="M4713 4330 c-56 -12 -112 -42 -150 -82 -52 -54 -56 -72 -74 -361 -5
-93 -14 -180 -20 -194 -10 -26 -10 -26 -97 -19 l-87 6 42 -42 c51 -51 70 -52
201 -10 50 16 94 27 96 23 2 -3 7 -23 11 -44 5 -27 12 -37 27 -37 16 0 18 5
12 35 -5 31 -2 39 26 65 30 28 43 33 140 45 49 6 79 20 67 31 -4 4 -35 11 -69
15 -64 8 -78 18 -78 60 0 41 25 89 75 143 25 28 45 55 45 62 0 38 -111 -52
-146 -117 -10 -19 -21 -58 -25 -88 -9 -67 -39 -100 -100 -111 -23 -4 -48 -6
-55 -3 -17 6 -25 73 -18 138 7 54 8 56 70 100 82 59 85 65 26 58 -68 -8 -86
11 -80 86 9 121 65 177 195 193 91 12 145 28 151 46 4 14 -115 15 -185 2z"/>
<path d="M7800 4126 c0 -32 156 -86 248 -86 60 0 122 22 122 43 0 12 -22 14
-112 13 -94 0 -123 3 -171 22 -67 26 -87 27 -87 8z"/>
<path d="M6482 3947 c-13 -24 -54 -74 -92 -111 -75 -73 -119 -148 -168 -286
-48 -134 -63 -193 -52 -204 24 -24 66 48 116 203 19 57 48 128 65 157 29 51
80 104 100 104 22 0 29 -66 37 -353 5 -167 12 -309 16 -315 20 -33 25 0 20
141 -3 83 -2 196 3 250 11 126 2 230 -23 258 -16 18 -17 23 -4 52 15 37 26
147 13 147 -4 0 -18 -20 -31 -43z"/>
<path d="M8702 3837 c-77 -34 -86 -47 -31 -47 50 0 114 28 114 50 0 23 -25 22
-83 -3z"/>
<path d="M5457 3313 c-29 -7 -15 -25 61 -78 77 -53 90 -68 137 -155 37 -67 65
-79 65 -25 0 52 -30 102 -103 173 -53 51 -124 97 -139 91 -2 -1 -11 -3 -21 -6z"/>
<path d="M4231 1930 c-93 -70 -259 -107 -431 -96 -98 6 -103 6 -83 -9 30 -21
144 -45 218 -45 34 0 87 7 120 15 117 31 255 115 255 156 0 29 -20 23 -79 -21z"/>
<path d="M4357 5459 c-190 -46 -446 -203 -650 -397 -107 -103 -125 -114 -165
-106 -42 8 -137 -21 -202 -62 -30 -20 -109 -91 -175 -159 -137 -141 -169 -160
-249 -150 -74 10 -142 44 -221 114 -83 73 -312 192 -418 218 -134 32 -95 -8
105 -107 151 -76 224 -120 313 -190 97 -76 116 -83 207 -75 l79 6 29 -31 c16
-17 34 -29 40 -25 6 4 38 48 71 98 129 194 270 295 397 285 l42 -3 -36 -75
c-52 -108 -91 -233 -103 -323 -5 -43 -11 -80 -13 -83 -11 -10 -158 40 -197 67
-23 16 -50 29 -59 27 -28 -5 66 -86 146 -126 82 -40 109 -67 118 -121 19 -115
59 -199 84 -174 9 8 8 31 -6 95 -69 320 90 739 368 965 200 164 371 253 583
302 59 14 77 28 55 41 -21 14 -54 11 -143 -11z"/>
<path d="M1931 3336 c-89 -34 -157 -84 -256 -188 -137 -143 -226 -282 -274
-426 -40 -119 -17 -334 46 -424 52 -76 52 -36 0 87 -54 127 -47 270 19 415 39
86 167 271 234 339 112 114 212 165 350 179 57 5 75 11 75 22 0 27 -118 24
-194 -4z"/>
<path d="M3032 2809 c-194 -38 -473 -358 -561 -643 -30 -99 -28 -190 8 -294
16 -45 42 -99 57 -120 26 -33 29 -35 32 -15 2 12 -14 54 -35 93 -34 67 -38 80
-41 170 -6 146 37 270 152 439 149 218 288 323 466 352 45 8 66 15 58 20 -16
11 -79 10 -136 -2z"/>
</g>
</svg>
