<svg version="1.1" id="Layer_1" xmlns="http://www.w3.org/2000/svg" xmlns:xlink="http://www.w3.org/1999/xlink" x="0px" y="0px"
	 width="100%" viewBox="0 0 1024 880" enable-background="new 0 0 1024 880" xml:space="preserve">
<path fill="#000000" opacity="1.000000" stroke="none" 
	d="
M1025.000000,77.583336 
	C997.736633,76.341484 970.656067,72.867142 943.548401,69.696022 
	C914.642395,66.314522 885.764099,62.695564 856.871033,59.202984 
	C843.993958,57.646408 831.108704,56.158066 818.230164,54.613495 
	C812.411499,53.915634 811.739502,54.670105 813.775757,60.006653 
	C814.846558,62.812870 815.964478,65.605598 816.267395,68.611366 
	C817.492493,80.767204 808.848694,90.014687 795.612854,91.294334 
	C781.106812,92.696785 766.631042,91.512398 752.173889,90.930908 
	C745.818298,90.675278 742.357544,93.041771 739.463196,98.200066 
	C732.282349,110.998154 726.300720,124.398949 719.413147,137.338074 
	C711.673279,151.878281 704.784607,166.887070 694.745056,180.141495 
	C691.150757,184.886688 688.519592,190.368652 685.522461,195.556839 
	C682.295898,201.142166 677.639160,203.888718 671.084412,203.416504 
	C657.014709,202.402893 643.134155,203.638229 629.479492,207.227905 
	C628.195374,207.565491 626.950378,208.052490 625.665100,208.384888 
	C622.309570,209.252701 621.936768,211.155777 623.578064,213.930511 
	C629.267395,223.548904 635.081299,233.096649 642.940796,241.143097 
	C647.128174,245.430130 651.622864,249.420334 656.035522,253.483078 
	C661.289551,258.320587 667.310242,261.588593 674.428223,262.974731 
	C681.360229,264.324615 687.646179,267.141357 693.309326,271.610504 
	C701.001160,277.680634 710.346558,280.609985 719.347107,284.096436 
	C733.818237,289.702087 749.363098,292.014374 763.721558,297.755188 
	C792.629883,309.313446 821.822144,320.695679 846.973145,339.530975 
	C861.016541,350.047943 875.208679,360.122498 890.608032,368.500549 
	C903.637817,375.589386 909.514038,387.175446 911.187439,401.392059 
	C913.390564,420.109039 913.729248,438.941589 914.052795,457.734436 
	C914.775696,499.717651 914.825012,541.712036 915.356812,583.699280 
	C915.536011,597.848022 916.075562,611.998779 917.254272,626.116333 
	C917.605408,630.322449 919.856384,633.276978 922.809387,635.799011 
	C931.421204,643.154297 940.183411,650.333740 948.775146,657.711975 
	C952.181030,660.636780 955.533813,663.691345 958.497253,667.051575 
	C970.937744,681.157654 986.559937,689.721741 1004.586609,694.441650 
	C1013.521240,696.781006 1020.466431,701.949707 1024.819336,710.714294 
	C1025.000000,712.066711 1025.000000,713.133362 1025.000000,714.600037 
	C1017.835510,726.402222 1008.176636,732.310913 994.104675,730.596985 
	C981.717346,729.088196 969.265259,728.091125 957.141724,725.020325 
	C948.353577,722.794373 940.437927,718.407654 932.554199,714.064270 
	C916.384338,705.155884 899.313110,702.803894 881.311584,706.761475 
	C877.038940,707.700867 872.658569,707.645142 868.365601,707.142456 
	C854.642517,705.535645 846.914795,694.379639 849.140259,679.598999 
	C850.263245,672.139954 852.960266,665.134949 855.471375,658.073853 
	C866.779297,626.275635 865.773438,594.636719 853.627686,563.356506 
	C850.027039,554.083557 843.552002,546.126953 840.725708,536.377808 
	C837.020081,523.595398 835.664734,510.600708 836.365051,497.366730 
	C837.086304,483.737152 837.944153,470.114777 838.719238,456.487976 
	C838.886047,453.555054 838.567871,450.626312 835.817871,448.945129 
	C825.187378,442.446228 814.492188,436.056091 806.461731,426.834625 
	C803.584961,427.595428 803.574890,429.385376 803.196777,430.970459 
	C801.423462,438.405365 797.269592,443.756958 790.065186,446.819550 
	C770.433960,455.164795 750.258423,462.043823 730.220276,469.293427 
	C715.973633,474.447693 701.747498,479.671143 687.387146,484.491364 
	C682.702026,486.063965 681.358521,488.831055 681.353943,493.356873 
	C681.329712,517.187500 681.121765,541.017822 681.032288,564.848511 
	C680.981018,578.513367 681.018677,592.178772 681.054199,605.843750 
	C681.060181,608.148193 681.258667,610.452148 681.361694,612.618408 
	C683.683350,613.747681 685.252930,612.384338 686.855591,611.777039 
	C712.554321,602.038818 738.299866,592.416321 763.858948,582.322388 
	C770.402466,579.738098 776.020630,579.755859 781.694824,583.767578 
	C782.643188,584.438110 783.702209,584.953308 784.716125,585.529724 
	C798.979736,593.638489 798.980042,593.638062 798.086304,610.171021 
	C797.354431,623.709595 797.369446,623.747864 784.739685,628.723633 
	C732.994629,649.109253 681.261902,669.526428 629.450317,689.741577 
	C624.819763,691.548279 623.134155,693.917847 623.268005,698.892212 
	C623.639587,712.708435 623.155457,726.540039 624.207947,740.352173 
	C624.754639,747.525757 626.376160,754.494995 631.177795,759.759827 
	C644.087524,773.914795 653.729431,790.205322 663.416321,806.540955 
	C668.960815,815.890991 677.302673,823.136719 683.500549,832.029419 
	C684.548157,833.532593 685.600159,835.033203 686.622498,836.553528 
	C695.063477,849.106018 685.467773,858.308594 675.866333,858.911438 
	C669.196899,859.330078 663.102600,860.342285 657.629517,864.487366 
	C655.388245,866.184875 652.355225,866.294006 649.469788,866.377380 
	C645.788147,866.483765 642.196533,867.097168 639.113525,869.415283 
	C637.459595,870.658997 635.480774,871.117065 633.459106,871.135986 
	C620.031799,871.261719 607.329102,868.430237 595.754944,861.433533 
	C588.976135,857.335754 584.883972,851.255737 583.485596,843.430603 
	C581.721375,833.558838 578.586609,824.145630 574.900452,814.813049 
	C569.696594,801.637939 569.399780,787.456848 567.783997,773.590881 
	C566.803650,765.177551 563.590576,756.721130 565.310669,748.339111 
	C569.871521,726.114624 565.203796,704.678345 561.231934,683.079895 
	C557.682190,663.776794 553.891479,644.491699 552.945740,624.816040 
	C551.979004,604.703491 555.826233,585.421753 562.963074,566.682007 
	C567.402100,555.026062 572.639893,543.627441 574.983276,531.261719 
	C575.383240,529.151001 575.744507,526.978271 575.689270,524.845398 
	C575.421997,514.525391 575.003052,504.209259 574.644104,493.891541 
	C574.327515,484.792938 570.216675,477.300049 564.706360,470.402802 
	C561.154663,465.957184 558.042603,461.235443 555.825562,455.979614 
	C554.795410,453.537506 553.039001,451.764771 550.800171,450.612549 
	C541.598267,445.876648 537.158508,437.807556 534.720581,428.234406 
	C532.989929,421.438385 532.070740,414.540802 531.370361,407.563965 
	C530.580444,399.695068 529.703857,399.191620 522.284363,401.568512 
	C500.565643,408.526184 478.881897,415.593872 457.207367,422.688385 
	C424.136658,433.513123 391.077850,444.374451 358.039001,455.295807 
	C355.316040,456.195923 353.228882,455.924957 351.349457,453.720947 
	C350.271942,452.457336 349.154572,451.142548 347.807739,450.207001 
	C334.538879,440.990753 332.886627,427.981445 335.412231,413.413513 
	C335.888855,410.664368 337.102142,409.337738 339.559235,408.536072 
	C361.566040,401.355713 383.483673,393.891296 405.581696,387.005096 
	C420.563263,382.336548 420.670929,382.691803 420.669891,367.110870 
	C420.668213,341.613312 420.607330,316.115417 420.745300,290.618591 
	C420.764404,287.084259 419.689453,284.682312 416.905457,282.569366 
	C411.732941,278.643616 406.748444,274.467926 401.729980,270.342438 
	C399.760223,268.723175 398.129730,268.523651 396.114227,270.472809 
	C387.901978,278.414764 378.082214,284.117828 368.438141,290.066620 
	C361.870819,294.117584 356.017914,298.889557 351.715820,305.524506 
	C346.538544,313.509155 338.151764,316.417328 329.345978,316.878876 
	C311.390381,317.819977 293.381622,318.153107 275.506714,315.342285 
	C270.033783,314.481628 264.882446,312.625458 260.038696,309.909607 
	C241.845383,299.708557 224.327255,288.470367 208.018066,275.449463 
	C205.165497,273.172028 203.453735,273.910492 201.242859,275.940521 
	C193.150696,283.370758 185.371078,291.177917 175.728638,296.727234 
	C159.341003,306.158386 142.044861,310.796326 123.047897,307.321136 
	C115.076981,305.862976 108.720535,301.324799 102.039467,296.598969 
	C95.190491,303.914520 89.694656,312.036743 83.688667,319.725586 
	C60.927059,348.865204 38.694332,378.425049 14.664975,406.552948 
	C10.803277,411.073273 7.172855,415.957184 1.309831,418.857056 
	C1.000000,416.958344 1.000000,414.916656 0.999999,412.437500 
	C12.668403,397.244080 24.444384,382.571655 35.979126,367.712006 
	C51.908276,347.191223 67.688988,326.554749 83.455635,305.908539 
	C87.092560,301.146057 90.502983,296.198364 93.214966,290.821686 
	C94.522087,288.230225 95.329956,285.591644 94.117447,282.678864 
	C87.166061,265.979858 90.769371,250.461182 100.542580,236.332321 
	C112.233299,219.431366 126.618942,205.196320 145.473114,196.130722 
	C148.993881,194.437851 151.742432,192.072632 153.793076,188.563873 
	C157.630554,181.997650 163.630600,178.908676 171.292328,178.961426 
	C176.957886,179.000443 182.607880,178.950958 188.235367,179.856415 
	C199.113556,181.606689 205.960678,188.640167 207.459244,199.647583 
	C207.913269,202.982559 208.948059,206.175476 211.292145,208.718719 
	C215.940598,213.762161 218.945389,219.636444 219.923447,226.401367 
	C220.694092,231.731766 223.766510,235.093826 228.271286,237.478516 
	C235.189545,241.140869 242.141006,244.741287 249.031311,248.455276 
	C251.682999,249.884567 254.323380,250.066864 257.229523,249.421677 
	C266.805756,247.295639 276.220276,244.484818 286.034607,243.361008 
	C293.232849,242.536728 300.323212,242.815399 307.442871,243.730103 
	C310.362946,244.105286 312.464203,243.493500 313.830811,240.427322 
	C316.269135,234.956680 318.997070,229.603134 321.842438,224.329315 
	C324.626617,219.168930 328.592560,214.901093 333.457672,211.074417 
	C330.349426,206.578934 326.311584,203.604721 322.847168,200.123672 
	C316.738373,193.985489 310.174713,188.278076 304.778351,181.467987 
	C292.574371,166.066849 296.231415,149.320328 313.648163,140.388535 
	C330.129333,131.936539 348.151917,128.331329 365.870544,123.770477 
	C366.514587,123.604706 367.170319,123.430351 367.829193,123.384712 
	C373.428406,122.996895 375.297058,120.131622 374.949493,114.513214 
	C374.466949,106.712822 375.053253,98.852913 374.836487,91.028061 
	C374.398834,75.228256 382.386963,64.662399 395.937134,58.286247 
	C418.350311,47.739521 439.743286,51.676250 459.914276,64.661896 
	C467.186371,69.343529 470.593994,76.789757 472.215027,85.081787 
	C473.174622,89.990524 474.269257,94.856552 476.054016,99.543648 
	C477.813934,104.165459 480.768768,106.825722 486.088776,107.035088 
	C490.205688,107.197098 494.442200,107.890289 498.343964,109.191635 
	C505.995941,111.743805 512.826721,110.552971 519.976318,107.077911 
	C531.947937,101.259094 544.591797,98.974777 557.839355,102.445663 
	C564.736755,104.252785 570.929260,107.303680 576.162964,112.205399 
	C582.214233,117.872864 588.901550,121.606499 597.406982,123.324234 
	C610.481323,125.964684 622.931763,131.064209 633.803894,139.135208 
	C636.993469,141.503021 638.974792,141.329849 641.798828,138.566254 
	C649.454834,131.074127 658.349304,125.083961 667.475647,119.600021 
	C679.836731,112.172394 688.958374,102.340210 695.607056,89.382004 
	C700.017395,80.786308 702.563232,74.419769 694.295166,66.441490 
	C688.103882,60.467220 687.187805,52.082195 691.427917,43.742935 
	C693.707764,39.259117 694.490234,34.251453 694.689026,29.228407 
	C695.129761,18.091721 698.768311,12.902009 709.288025,9.037518 
	C719.430847,5.311501 729.882568,5.356421 740.369019,7.043900 
	C758.260071,9.922928 774.657349,16.421690 789.234131,27.368866 
	C794.901855,31.625284 799.276978,37.085384 803.941833,42.280811 
	C805.958801,44.527233 808.207520,45.503353 811.240356,45.897179 
	C836.156311,49.132515 861.124939,51.928886 886.019409,55.368931 
	C914.692139,59.331070 943.502808,62.286858 972.232605,65.848419 
	C989.570923,67.997818 1006.869507,70.468033 1024.593018,72.897049 
	C1025.000000,74.388893 1025.000000,75.777779 1025.000000,77.583336 
M396.250366,154.932404 
	C366.865356,165.621246 361.276337,178.766327 358.892303,199.851181 
	C362.278534,201.244568 366.624390,196.724030 369.876648,201.690475 
	C366.295044,205.408707 361.463104,205.776047 357.153137,207.145126 
	C341.527008,212.108902 328.956512,220.814148 322.309204,236.294525 
	C316.514923,249.788361 317.408844,251.847763 329.675049,259.581207 
	C331.756775,260.893677 334.612274,261.634644 335.083649,264.757446 
	C332.368103,266.461670 330.215637,265.173706 328.280334,264.061707 
	C324.096832,261.658020 320.008362,259.075409 315.984924,256.409210 
	C302.457733,247.445282 287.914154,245.905365 273.093872,251.874420 
	C258.276031,257.842529 244.894806,256.161377 232.009857,247.205566 
	C229.613541,245.539978 226.885178,244.352112 223.445480,242.470947 
	C226.145264,248.425278 228.255737,253.516052 226.156921,260.099335 
	C222.531113,256.011047 224.346756,250.301727 219.717072,247.397018 
	C214.275070,252.565018 213.630661,259.707001 210.736267,265.637085 
	C214.698761,268.730652 219.649475,267.995575 222.823883,270.939880 
	C222.605438,273.164490 220.017715,273.072723 219.676666,275.224060 
	C219.869492,275.566772 220.079437,276.232117 220.519470,276.661926 
	C221.468140,277.588562 222.511719,278.423889 223.557205,279.244690 
	C234.742706,288.026642 247.109589,294.891602 259.525360,301.729553 
	C270.925201,308.007996 283.059845,310.724670 295.944305,310.741241 
	C304.274353,310.751953 312.633026,310.424622 320.926544,311.001495 
	C329.912170,311.626495 336.528015,309.261169 339.816071,300.176636 
	C340.573792,298.083130 342.378479,296.300751 343.933380,294.585480 
	C345.124298,293.271729 346.535706,291.901978 348.575775,292.676819 
	C349.783356,293.760468 348.333069,294.955872 348.520142,296.229828 
	C355.928040,290.608337 363.374878,285.892517 370.964142,281.373260 
	C392.268799,268.686829 409.035522,252.422180 414.859955,227.061340 
	C416.317780,220.713669 420.075592,215.168579 425.913116,211.555466 
	C427.380157,210.647476 429.171722,210.121902 430.497986,211.624756 
	C431.966400,213.288712 430.756866,214.912827 429.520294,215.964859 
	C423.016388,221.498032 420.918671,229.224838 418.907715,236.969772 
	C416.033234,248.040192 415.988220,248.478729 427.117889,251.346786 
	C446.171844,256.256927 464.031738,263.722534 480.508728,274.456360 
	C493.959686,283.218933 507.176880,292.242188 514.529785,307.349274 
	C515.223022,308.773621 516.153259,310.330994 518.385376,310.210754 
	C524.346985,300.953888 533.019958,293.968231 539.979187,285.473663 
	C541.334167,283.819733 543.263855,282.124786 542.295654,279.799255 
	C541.427551,277.714172 538.910767,277.652039 537.041077,277.549530 
	C531.557800,277.248779 526.052124,277.380341 520.558411,277.229370 
	C518.685364,277.177917 516.486328,277.701996 515.208801,275.156677 
	C516.879211,272.805969 519.491028,272.862946 521.867126,272.845245 
	C529.861755,272.785797 537.860657,272.804535 545.852356,273.009521 
	C551.798584,273.162018 557.388611,272.105743 562.829346,269.653564 
	C576.791687,263.360687 590.564209,256.612274 604.996704,251.420532 
	C607.815857,250.406433 610.747559,249.934525 610.134033,246.136108 
	C612.429626,245.480652 614.160645,246.319138 615.954041,246.588608 
	C621.366150,247.401901 622.326477,246.527527 622.700500,241.021683 
	C622.822693,239.223373 621.873108,236.956497 624.255798,235.717743 
	C628.271606,245.592590 628.516907,245.789337 634.287415,243.756851 
	C634.658691,241.735504 633.290588,240.326324 632.359070,238.829987 
	C629.718994,234.588913 626.975769,230.411407 624.240112,226.230515 
	C615.299438,212.566788 609.943237,197.855118 609.647522,181.272644 
	C609.489563,172.411758 605.436523,164.563416 600.271423,157.432327 
	C599.011841,155.693298 597.359497,153.699463 595.077881,153.917419 
	C590.001160,154.402405 588.369690,152.352554 589.940002,147.520035 
	C587.397217,146.254623 585.207947,145.063889 582.937012,144.057373 
	C578.981201,142.304184 575.005493,140.623154 570.601501,140.219131 
	C568.584290,140.034073 566.131470,139.398056 566.411560,136.902176 
	C566.772583,133.684937 569.649475,134.690384 571.621216,134.954163 
	C574.083191,135.283539 576.468323,136.149139 578.918091,136.619553 
	C580.761597,136.973541 582.815125,138.723969 584.484497,136.709595 
	C586.291870,134.528702 585.112549,132.108154 583.843811,130.210205 
	C578.049805,121.542793 570.819946,114.236794 562.166260,108.400261 
	C560.054688,106.976097 557.499634,106.511894 555.013062,106.402809 
	C545.146057,105.969963 535.348328,106.614861 525.852844,109.509956 
	C518.313171,111.808754 516.812317,114.428406 518.323181,121.491806 
	C517.234314,122.176392 516.361450,121.450569 515.615356,120.895714 
	C508.529205,115.626381 500.428680,114.575005 491.910675,114.894646 
	C486.764221,115.087776 481.604065,115.006950 476.451660,114.935226 
	C454.778137,114.633492 436.442841,122.106308 421.637115,138.110092 
	C414.750244,145.554230 406.515961,151.117920 396.250366,154.932404 
M837.439941,438.000793 
	C842.705139,440.970734 848.251160,443.197021 854.243591,444.157471 
	C856.536621,444.524994 858.888977,444.549255 861.164978,444.986725 
	C862.582336,445.259186 864.305237,445.737518 864.193542,447.696411 
	C864.100891,449.320435 862.587463,449.789032 861.305725,450.012146 
	C859.179932,450.382233 856.885315,451.035461 854.877075,450.592865 
	C848.780273,449.249298 847.830872,452.908417 847.437073,457.481995 
	C846.566406,467.595245 845.634644,477.703217 844.764099,487.816467 
	C842.442749,514.782410 846.725281,539.958679 864.686584,561.451050 
	C867.920410,565.320618 870.330322,569.706970 871.880554,574.511841 
	C873.401794,579.227051 872.637573,580.113220 867.548157,579.821228 
	C867.143066,581.977722 867.312073,584.102661 867.785156,586.239136 
	C873.870300,613.717712 872.386047,640.457336 860.180115,666.224121 
	C858.046936,670.727295 856.616028,675.524414 855.943115,680.540344 
	C854.968872,687.802551 857.775574,693.959229 864.654236,696.028748 
	C875.851501,699.397522 887.665771,699.476746 898.636841,696.206116 
	C904.098999,694.577759 908.123779,694.836609 912.651855,696.922607 
	C921.425720,700.964600 930.152771,705.111145 938.844971,709.326172 
	C942.115784,710.912231 946.191956,710.523804 948.883911,713.446167 
	C953.824890,718.809814 960.200806,720.048035 967.099854,719.925171 
	C975.980347,719.767090 984.683228,720.837891 993.236267,723.384155 
	C997.718079,724.718506 1002.368225,725.471130 1006.950134,723.440186 
	C1009.585571,722.272034 1011.514160,720.451843 1011.432617,717.431519 
	C1011.354065,714.525452 1009.271912,713.119690 1006.690002,712.328918 
	C1001.278992,710.671448 995.851074,709.063049 990.483032,707.275391 
	C988.943909,706.762756 986.779236,706.646606 986.525452,703.460510 
	C998.152466,704.424744 1008.437500,708.457214 1018.526855,714.028687 
	C1018.725342,710.160950 1016.466370,708.626160 1014.324707,707.070374 
	C1006.663635,701.505432 997.839600,698.393188 988.998413,695.435242 
	C980.178162,692.484192 972.074585,688.265625 965.177429,682.096863 
	C950.767822,669.209351 936.373047,656.326538 920.738464,644.902832 
	C914.688782,640.482605 911.184631,634.360168 909.646790,627.064453 
	C907.917969,618.862488 907.707703,610.550781 907.639343,602.208618 
	C907.312866,562.393799 908.670288,522.562988 906.633667,482.765930 
	C906.149231,473.300903 905.301514,463.847595 903.502869,454.518921 
	C903.164246,452.762421 902.931213,450.779327 900.837891,450.035583 
	C897.896179,448.990326 898.047119,446.802368 898.464905,444.312042 
	C898.993591,441.160309 899.404419,437.753571 901.307800,435.327698 
	C909.811340,424.490082 908.514893,413.367371 903.033020,401.909424 
	C902.462646,400.717194 902.135437,399.402283 901.754272,398.126740 
	C897.541809,384.031281 888.892944,374.030151 875.206787,368.179535 
	C866.129089,364.298920 857.736694,358.929718 850.648254,352.078003 
	C831.014771,333.100494 807.064819,322.093018 781.339478,314.904755 
	C762.642090,309.680206 736.804443,315.483521 728.600220,340.651367 
	C723.674622,355.761536 720.416443,371.155426 718.805725,386.935455 
	C718.464233,390.280640 719.634216,392.780396 722.564209,394.460480 
	C730.972229,399.281769 739.534424,403.855652 749.215515,405.439453 
	C761.369324,407.427856 773.572144,409.139984 785.782715,410.751709 
	C796.246399,412.132904 805.761902,415.534058 814.153076,422.131317 
	C821.348083,427.788177 828.513123,433.544067 837.439941,438.000793 
M626.526367,645.062927 
	C632.930786,631.237488 634.049011,599.399414 627.820007,592.580688 
	C614.384644,612.796997 610.926941,636.687927 602.680969,658.551819 
	C601.140869,658.108398 601.058716,657.418274 601.105286,656.766785 
	C602.781067,633.315735 609.308044,611.296570 620.781067,590.777161 
	C624.284912,584.510437 628.352295,578.322632 629.535950,571.257080 
	C632.036499,556.331055 636.494324,542.207825 643.686218,528.888367 
	C644.998901,526.457397 645.470581,523.530579 646.098145,520.779724 
	C647.588928,514.244995 646.208191,507.452271 647.768677,500.911835 
	C648.299683,498.686279 648.310059,495.923615 650.898499,495.111603 
	C653.427002,494.318420 653.079346,498.040558 655.297913,498.638794 
	C656.553101,495.846069 657.402161,493.066376 657.859985,490.070587 
	C659.495544,479.368164 657.467407,468.811707 656.630066,458.233459 
	C655.349182,442.051300 652.061340,426.246460 644.939697,411.531799 
	C639.518677,400.331116 631.368286,391.980164 618.279663,390.630615 
	C608.361328,389.607971 598.387878,388.605865 588.372070,389.900604 
	C584.099670,390.452911 579.343201,389.686798 575.832520,392.544006 
	C557.777161,407.238342 550.832642,419.918549 558.650452,440.829102 
	C562.521729,451.183807 567.684326,460.850006 574.013977,469.910828 
	C577.854675,475.408783 581.352600,481.166901 582.053528,487.984497 
	C584.017578,507.088593 584.351929,526.213074 581.060059,545.210510 
	C579.753235,552.752380 579.825623,560.073181 581.807556,567.445374 
	C583.793701,574.833191 586.571472,582.005432 587.840210,589.588501 
	C588.127869,591.307861 588.843262,593.082092 586.593506,595.237671 
	C580.032104,585.194153 576.652771,574.246887 573.025879,562.842407 
	C562.277954,585.444885 559.642212,608.688660 561.569946,632.618591 
	C563.309570,654.213196 569.102722,675.175964 571.847717,696.620361 
	C574.006470,713.484924 576.380554,730.347595 571.687866,747.195496 
	C570.631958,750.986572 572.604004,753.960022 574.515076,756.924866 
	C576.233093,759.590210 578.399780,762.305481 577.552246,765.637817 
	C575.707275,772.892456 576.330444,780.232483 576.486572,787.523743 
	C576.683838,796.739075 578.217590,805.810486 582.814209,813.971741 
	C586.998779,821.401550 589.194580,829.225098 589.346924,837.747192 
	C589.475403,844.931580 592.436523,850.550842 599.177612,853.870605 
	C606.980835,857.713501 614.969482,861.208923 623.554016,862.598389 
	C634.477844,864.366394 644.676636,860.743347 654.745056,857.039612 
	C655.495911,856.763428 656.434082,856.232544 656.720520,855.574280 
	C659.959717,848.130920 665.341919,850.222595 670.784790,852.254089 
	C671.700134,852.595764 672.737976,852.668762 673.728210,852.739990 
	C677.411011,853.004517 680.255554,851.160706 682.332153,848.488586 
	C684.399292,845.828613 682.854858,843.020020 681.408203,840.577942 
	C679.885498,838.007446 678.187866,835.513306 676.330688,833.173157 
	C670.532410,825.866821 664.171509,818.963379 658.852600,811.329712 
	C648.671814,796.718323 639.149353,781.666809 627.860718,767.820740 
	C622.214661,760.895630 619.272461,752.555176 617.540588,743.723022 
	C614.502258,728.228271 615.304565,712.565857 614.756409,696.943604 
	C614.132324,679.153625 615.521301,661.975830 625.797913,646.656311 
	C625.980591,646.384033 626.070496,646.049561 626.526367,645.062927 
M670.771057,380.834625 
	C675.265930,380.009308 678.905457,382.084869 682.389282,384.420898 
	C691.513123,390.538818 700.540161,396.801544 709.682922,402.890686 
	C712.809631,404.973145 712.914368,404.815857 715.865295,402.708984 
	C708.158569,403.184937 708.666626,398.077728 708.804199,393.407104 
	C708.892029,390.425232 709.349976,387.451355 709.699158,384.480591 
	C712.106689,363.997101 717.001770,344.257721 726.913391,325.964264 
	C729.502136,321.186310 733.095764,317.754089 738.169556,315.897034 
	C745.360229,313.265198 752.572571,310.692871 759.772339,308.085938 
	C761.632507,307.412384 763.480347,306.704803 766.563965,305.553650 
	C742.634705,300.208893 721.273254,291.822510 699.949036,283.245972 
	C688.664429,278.707336 678.984924,270.900482 667.033875,267.761108 
	C659.797607,265.860229 652.691467,263.448700 645.575256,261.118744 
	C644.168884,260.658264 642.126587,260.786774 641.660522,258.450317 
	C644.063904,256.701996 647.673584,258.564178 649.948914,255.807770 
	C647.191895,252.998672 643.834656,252.424911 640.309998,252.197617 
	C629.474365,251.498840 619.143738,253.847488 608.981567,257.283508 
	C581.019409,266.738037 555.371948,280.099792 534.819458,301.826721 
	C523.193909,314.116486 521.536926,333.460297 530.622559,348.329773 
	C530.528015,346.030182 528.734070,344.117493 529.790771,341.991791 
	C531.830811,341.150421 532.665405,342.623474 533.643494,343.673218 
	C540.668335,351.212402 542.491455,360.164490 540.862976,370.092896 
	C538.289368,385.783600 537.734558,401.508789 540.075806,417.293854 
	C540.757751,421.891083 540.943176,426.571289 542.656860,431.860291 
	C543.593994,429.293213 544.260010,427.600067 544.833191,425.876007 
	C547.254578,418.592896 550.030273,411.476501 554.057434,404.891754 
	C561.596008,392.565460 571.896606,384.406616 586.713806,382.885376 
	C595.187744,382.015411 603.657776,381.914978 612.124939,382.873077 
	C625.558228,384.393036 637.836182,388.383087 646.906128,399.227570 
	C647.462280,399.892487 648.066040,400.994324 649.502991,400.316010 
	C649.552795,399.388611 649.743896,398.386383 649.636292,397.417358 
	C648.964661,391.369934 651.733215,387.774048 657.255432,385.523529 
	C661.427307,383.823334 665.568115,382.120880 670.771057,380.834625 
M626.297180,665.726868 
	C625.292786,668.191650 624.071411,670.594116 623.341003,673.137634 
	C622.503601,676.054077 619.776367,679.593689 622.296753,681.948975 
	C624.591370,684.093384 627.891418,681.249146 630.566833,680.215393 
	C670.009033,664.975586 709.417053,649.647095 748.825623,634.320190 
	C761.393921,629.432007 773.945068,624.499390 786.492188,619.556946 
	C788.823242,618.638611 791.041809,617.704285 791.600769,614.685303 
	C793.535461,604.236694 791.990906,600.408569 783.083313,594.521790 
	C781.277405,593.328369 779.403259,592.237671 777.606873,591.030701 
	C774.001404,588.608032 770.379517,588.399841 766.266052,590.000366 
	C749.517029,596.517517 732.704834,602.874207 715.881165,609.197449 
	C703.728333,613.765137 691.551208,618.272583 679.322937,622.632996 
	C674.221802,624.452026 672.997742,623.495422 672.800598,618.180847 
	C672.670898,614.686340 672.738037,611.184937 672.680786,607.687256 
	C672.127319,573.870789 674.174927,540.085938 673.897583,506.273438 
	C673.863464,502.111633 673.842468,497.933838 673.463013,493.795746 
	C673.156494,490.452271 671.172241,489.639496 668.177002,491.228424 
	C666.466125,492.135986 665.260010,493.493317 664.558167,495.216980 
	C662.739319,499.684052 660.645935,504.088867 659.354675,508.711975 
	C655.453979,522.677307 650.888977,536.383972 644.904358,549.604065 
	C642.545349,554.815002 641.549194,560.306580 641.072937,566.015015 
	C639.602051,583.646301 640.085571,601.310791 640.139465,618.951843 
	C640.178894,631.866089 638.409119,644.020142 631.290649,655.102661 
	C629.330444,658.154358 628.163147,661.715393 626.297180,665.726868 
M375.559204,405.167053 
	C366.687134,408.016815 357.854614,410.999817 348.922760,413.647980 
	C345.549896,414.648010 344.362030,416.454163 343.711853,419.877258 
	C341.820587,429.834351 345.045471,437.292053 352.863464,443.551086 
	C356.005035,446.066254 358.374908,446.710815 362.196106,445.435211 
	C389.347931,436.371185 416.587341,427.569733 443.789612,418.656433 
	C470.046265,410.052979 496.336823,401.541382 522.101929,391.525940 
	C525.089539,390.364594 528.478638,389.619995 530.881104,386.207672 
	C525.219116,378.909607 518.515503,372.764801 511.447876,366.961243 
	C508.922180,364.887268 506.382660,364.415802 503.168121,365.530212 
	C492.480499,369.235321 481.721130,372.737335 470.955383,376.212250 
	C458.345276,380.282562 457.981598,380.078400 457.800049,366.848724 
	C457.605835,352.693939 457.685181,338.535461 457.633606,324.378662 
	C457.626404,322.395721 457.865570,320.335815 456.161743,318.786072 
	C448.649628,311.953552 441.258453,304.981445 433.579742,298.341766 
	C430.034302,295.276062 427.910095,296.280457 427.401917,300.936432 
	C426.879089,305.726685 426.419373,310.551910 426.397095,315.363983 
	C426.292908,337.848328 426.197662,360.335266 426.470886,382.816772 
	C426.528534,387.562134 424.907166,389.511383 420.541412,390.830933 
	C405.731934,395.307098 391.039795,400.171600 375.559204,405.167053 
M603.740479,132.885254 
	C599.253235,132.029694 595.083435,129.802322 590.382629,129.441208 
	C590.692627,136.109650 593.306396,141.224319 599.907837,148.361511 
	C604.442688,153.264328 608.683105,158.386414 611.786621,164.348862 
	C616.069702,172.577484 619.494080,173.697388 628.234985,169.911377 
	C630.409485,168.969543 632.258240,166.931168 634.954834,167.388977 
	C635.711182,171.388107 635.263245,172.887222 632.643860,174.941483 
	C630.510620,176.614456 627.979614,177.465805 625.422424,178.246719 
	C616.245972,181.048981 616.244690,181.053818 616.290833,190.706390 
	C616.298035,192.204788 616.310791,193.704514 616.378479,195.201004 
	C616.565735,199.342285 618.680664,201.270035 622.859680,200.714737 
	C628.302246,199.991592 633.757141,199.340240 639.029663,197.688004 
	C647.048462,195.175095 655.305359,193.449127 663.629395,194.765915 
	C670.732849,195.889618 675.287415,193.073044 679.518250,187.953751 
	C701.129822,161.803940 715.338928,131.564575 727.700928,100.377380 
	C729.861938,94.925499 731.907898,90.485992 737.728821,88.445938 
	C740.403564,87.508568 742.434509,85.331985 741.459351,82.239693 
	C740.034180,77.720764 736.441833,75.292450 731.957703,74.320999 
	C727.920715,73.446419 724.848694,75.062851 722.572876,78.474113 
	C721.733398,79.732445 721.779480,81.835327 719.501953,82.025612 
	C719.260925,81.572456 718.865845,81.167107 718.847107,80.745087 
	C718.436523,71.483803 714.537842,65.473961 704.693542,63.753212 
	C699.382874,62.824913 696.998535,59.124001 697.493835,54.856304 
	C700.528137,54.209435 702.701416,56.784569 705.445557,57.101242 
	C708.063110,57.403320 712.133179,57.858723 711.773560,54.603382 
	C711.336853,50.649975 706.431519,49.638107 703.159363,47.798351 
	C701.174744,46.682514 699.023315,45.281208 696.657593,46.898586 
	C696.029480,47.328041 695.746521,48.254272 695.287537,48.940674 
	C691.902954,54.002731 694.408386,58.085968 697.534668,61.993385 
	C700.546082,65.757210 703.995911,69.204597 705.859070,73.770340 
	C708.069519,79.186905 707.582275,85.949478 704.186707,88.198723 
	C700.169800,90.859535 698.134155,94.754646 696.125916,98.753563 
	C693.256226,104.467476 689.546143,109.489937 685.005432,114.008560 
	C678.089722,120.890694 669.860718,125.950333 661.830688,131.300522 
	C656.822815,134.637115 652.086121,138.290649 648.059570,142.789078 
	C643.424133,147.967728 643.218201,150.487625 646.658630,156.514099 
	C647.306885,157.649567 647.814026,158.928482 648.078186,160.204956 
	C648.435303,161.931259 648.071655,163.643005 646.337769,164.499084 
	C644.613281,165.350494 643.394958,164.077240 642.568787,162.880417 
	C640.873718,160.424866 639.219666,157.902573 637.898743,155.234482 
	C634.357483,148.081833 629.006348,142.751938 621.859314,139.391861 
	C616.293335,136.775055 610.537476,134.537888 603.740479,132.885254 
M726.771851,436.196442 
	C740.622742,432.137512 754.259216,427.243042 769.700500,424.292145 
	C767.457520,427.937042 764.833008,428.321899 762.648743,429.147949 
	C735.696899,439.341187 708.261841,448.135651 680.948853,457.287048 
	C663.669006,463.076752 666.850891,459.631714 666.108521,477.300659 
	C665.871033,482.954132 666.795166,483.500397 672.161133,481.586395 
	C704.787048,469.948700 737.446228,458.402313 770.003174,446.574677 
	C777.164429,443.973053 784.548889,441.608582 790.791870,436.941315 
	C794.768677,433.968292 796.293335,429.710236 795.664001,425.041687 
	C795.028870,420.329865 790.378601,420.717712 787.090881,419.514771 
	C786.479431,419.291016 785.779663,419.296783 785.117554,419.225006 
	C767.073608,417.269012 749.053528,415.277039 731.666382,409.554474 
	C728.636047,408.557129 725.151306,407.600647 721.847534,408.974396 
	C712.742737,412.760162 704.897095,409.709625 697.520691,404.502228 
	C692.626160,401.046875 687.551270,397.711700 683.227234,393.615356 
	C676.699097,387.430878 670.001221,386.272858 661.926819,390.235657 
	C659.055359,391.644897 657.880737,393.081970 658.115662,396.222839 
	C658.984497,407.841858 659.480286,419.491791 660.519226,431.094025 
	C661.255432,439.314606 662.640503,447.477112 663.842590,456.463287 
	C684.921814,449.679291 705.470276,443.066071 726.771851,436.196442 
M390.121948,68.615585 
	C386.268463,72.057098 383.862305,76.348434 382.694519,81.350677 
	C380.367157,91.319534 379.759766,101.377335 380.862640,111.573868 
	C381.664276,118.985573 383.191772,126.212273 388.158936,131.936157 
	C395.566864,140.472595 404.225281,144.784744 413.765869,135.860992 
	C417.042542,132.796173 420.523346,129.911285 424.138123,127.253265 
	C435.976196,118.548477 447.875702,110.003784 463.482941,109.427635 
	C466.992188,109.298096 471.100098,108.001572 470.561066,103.386047 
	C469.243439,92.103256 467.641388,80.440338 459.172424,72.084778 
	C444.058563,57.173298 411.298676,49.690868 390.121948,68.615585 
M380.454132,132.903870 
	C377.865021,127.697632 373.326233,128.619522 369.144714,129.705505 
	C356.428986,133.007904 343.764221,136.514496 331.128052,140.111755 
	C326.010376,141.568634 321.001648,143.435532 316.415222,146.227997 
	C305.758514,152.716446 302.356476,162.865021 308.715637,173.551025 
	C316.527435,186.678055 328.110657,196.209763 341.716797,203.122116 
	C344.226288,204.397049 347.381348,205.038269 349.511414,202.302292 
	C351.527679,199.712418 351.250580,196.672958 349.821564,193.800476 
	C348.297577,190.737106 345.710907,188.602570 343.161652,186.456421 
	C337.561310,181.741531 331.691895,177.323105 326.702667,171.931183 
	C325.523560,170.656952 323.838898,168.854431 325.402832,167.137451 
	C327.008057,165.375168 328.843842,166.985916 330.233948,168.078018 
	C336.121521,172.703293 341.865906,177.512375 347.793427,182.084702 
	C352.537109,185.743851 353.290680,185.604691 355.766022,180.265579 
	C362.137543,166.522736 372.576385,157.369644 386.674530,152.160400 
	C390.060303,150.909348 393.378021,149.474167 397.900696,147.650375 
	C390.399323,143.947937 384.613708,139.855942 380.454132,132.903870 
M137.342087,224.741165 
	C131.145264,229.316147 125.948051,234.883896 121.013329,240.768143 
	C110.518585,253.282211 108.992363,265.674927 116.064438,278.996033 
	C120.295486,286.965698 127.238060,290.249268 135.456970,289.476440 
	C157.208801,287.431213 174.314789,276.166748 189.571075,260.679504 
	C183.216278,254.697617 176.660934,249.738953 169.340256,245.758698 
	C165.704742,243.782074 161.618088,242.083664 159.868149,238.009766 
	C157.684036,232.925079 153.910034,229.286926 150.027695,225.620529 
	C146.273621,222.075287 142.370605,221.110352 137.342087,224.741165 
M465.280365,290.234100 
	C453.505493,280.689301 441.806641,271.048492 429.922363,261.641937 
	C424.336548,257.220703 417.956421,255.121170 410.766846,257.275696 
	C407.278534,258.321014 406.682800,260.315735 408.981476,263.198517 
	C412.524017,267.641296 416.502014,271.662231 420.665894,275.513947 
	C448.183411,300.968536 476.569946,325.442108 504.841125,350.045074 
	C511.960114,356.240387 519.227539,362.265045 526.578552,368.496765 
	C527.599976,366.469421 526.735046,365.075226 526.365234,363.740845 
	C524.099548,355.565704 521.618958,347.449402 519.413086,339.258759 
	C518.457275,335.709686 516.582581,333.055634 513.769226,330.725555 
	C497.733887,317.444672 481.790588,304.052673 465.280365,290.234100 
M168.305771,238.173172 
	C174.073135,242.406769 179.742966,246.782089 185.634094,250.835800 
	C192.067352,255.262512 193.297684,254.822937 195.791428,247.542007 
	C198.478897,239.695496 202.223862,232.660263 208.734741,227.180466 
	C211.258347,225.056519 214.434525,222.349167 212.407639,218.347397 
	C211.028931,215.625351 205.764343,216.268051 201.633255,219.464233 
	C198.596222,221.813950 195.890503,224.542374 193.690247,227.708923 
	C191.602295,230.713837 189.683777,233.837692 187.559814,236.815857 
	C186.459076,238.359299 185.533310,240.355133 182.857330,240.087830 
	C181.092270,237.259857 182.977158,234.940414 184.182892,232.806778 
	C187.559982,226.830658 191.833801,221.519928 197.084763,217.042816 
	C198.987991,215.420059 200.813232,213.738327 202.150848,211.574814 
	C203.815231,208.882812 203.084396,206.869736 200.566406,205.257553 
	C196.366043,202.568192 193.237213,204.814728 190.441101,207.654037 
	C185.305145,212.869339 180.362793,218.275055 175.243011,223.506729 
	C173.945465,224.832642 172.707001,226.728210 170.198914,225.886017 
	C169.264969,223.125275 171.129929,221.397400 172.582947,219.737869 
	C177.840164,213.733459 183.306686,207.912140 188.554413,201.899704 
	C190.057037,200.178101 191.672485,198.015427 190.153839,195.596344 
	C188.655823,193.210129 186.039215,193.042664 183.450500,193.267593 
	C181.219543,193.461441 179.331848,194.538528 177.484558,195.664062 
	C172.066437,198.965271 168.149139,203.539963 165.479858,209.326187 
	C164.243332,212.006607 163.415115,215.352524 159.628220,216.013947 
	C157.972183,213.374420 159.546997,211.339157 160.498413,209.340988 
	C163.306030,203.444290 167.219315,198.275955 171.204483,193.128204 
	C172.686813,191.213440 176.112671,188.932953 173.937988,186.424072 
	C171.544098,183.662292 167.710587,184.942703 164.680267,186.425659 
	C163.260941,187.120209 162.046829,188.453552 161.040497,189.733826 
	C157.098572,194.748840 154.311066,200.379349 152.129135,206.379379 
	C150.584946,210.625717 150.620926,214.814316 153.069397,218.361084 
	C157.666946,225.020905 162.130066,231.824112 168.305771,238.173172 
M182.103989,275.648010 
	C171.854523,284.209808 160.387741,290.523285 147.376129,293.656433 
	C134.810486,296.682190 122.485542,296.704773 113.379250,285.751068 
	C104.205215,274.715881 103.234093,261.891663 108.936829,249.091934 
	C115.275543,234.864792 126.239540,224.327682 139.247742,216.116989 
	C144.141312,213.028198 145.209091,208.887772 146.161163,203.780212 
	C145.086853,203.912613 144.741257,203.893066 144.444321,204.003906 
	C143.665985,204.294388 142.869690,204.571945 142.149017,204.976562 
	C122.293022,216.124664 108.234428,232.198837 99.077705,253.169861 
	C90.008255,273.940979 107.286308,305.670044 137.012436,302.664581 
	C148.757721,301.477081 159.829819,298.176239 170.279266,292.679749 
	C192.027588,281.239960 206.788803,264.140076 213.028549,240.111328 
	C213.503601,238.281952 214.546570,236.252213 211.826508,234.552307 
	C207.436264,236.585892 205.892700,240.985931 204.204117,244.978714 
	C199.253555,256.684631 192.445312,266.979279 182.103989,275.648010 
M761.196960,73.553833 
	C768.727661,75.586502 776.398438,75.105232 784.036743,74.670624 
	C790.399597,74.308578 793.429810,69.978439 792.152832,63.721436 
	C790.414551,55.204418 785.592529,48.595528 779.584717,42.602432 
	C769.230286,32.273365 755.870056,28.964813 742.205322,26.314903 
	C738.715820,25.638216 735.221680,24.610558 730.641907,25.779818 
	C736.092041,29.798517 740.743713,33.505550 745.669250,36.803555 
	C756.475525,44.039146 761.854248,53.375217 757.833923,66.573029 
	C756.908325,69.611488 757.715515,71.774574 761.196960,73.553833 
M775.730164,31.698055 
	C785.899475,38.645794 794.006775,47.324459 797.580505,59.371124 
	C801.145935,71.389915 796.571716,78.778786 784.395020,80.460846 
	C771.742981,82.208580 759.495361,80.948868 748.558167,73.437050 
	C747.780762,72.903114 746.882202,72.216995 745.393494,73.419823 
	C746.330994,79.111778 750.168640,82.547394 755.462463,84.136200 
	C771.665588,88.999245 787.754089,87.822311 803.412231,81.835739 
	C809.114014,79.655792 811.434326,73.719749 809.931702,67.801224 
	C807.633606,58.749279 803.368774,50.596561 797.192261,43.713341 
	C776.875854,21.072344 750.903564,12.063451 721.048767,13.472638 
	C714.050415,13.802972 707.651001,16.752737 702.593994,21.930677 
	C707.479858,18.446293 712.628845,16.081917 718.896057,17.046701 
	C725.304321,18.033197 731.777710,18.631914 738.155151,19.776121 
	C750.942688,22.070423 763.797058,24.259960 775.730164,31.698055 
M491.171753,360.574249 
	C493.822723,359.155579 497.372833,359.536163 499.688080,356.378754 
	C488.526733,346.843750 477.987091,336.931702 465.730042,328.438141 
	C465.082123,330.100464 464.605164,330.844208 464.513031,331.632904 
	C463.255249,342.400055 462.746826,353.169342 464.331390,363.963074 
	C464.862640,367.581696 466.948120,368.342834 470.010925,367.380402 
	C476.830688,365.237335 483.617401,362.989075 491.171753,360.574249 
M449.796631,268.820465 
	C469.045166,286.146942 489.195007,302.347717 510.078522,317.654572 
	C504.068451,305.026031 496.604095,293.824127 484.262604,286.644379 
	C475.786163,281.713165 467.589996,276.301941 459.147705,271.309601 
	C455.072540,268.899780 451.011719,266.351685 445.944916,265.504364 
	C447.074829,266.449799 448.204712,267.395264 449.796631,268.820465 
M736.503540,68.434776 
	C739.420898,70.462082 741.074707,68.191597 742.810852,66.499161 
	C744.813965,64.546402 746.406372,62.123169 749.142883,61.049564 
	C749.532532,60.896709 750.070312,61.121368 750.318848,61.147816 
	C751.732849,62.211887 749.942810,63.902458 751.714600,64.983261 
	C753.454895,61.239143 751.731934,57.534073 751.873230,53.921707 
	C751.982727,51.121025 750.976196,48.644844 747.931946,47.716030 
	C744.745605,46.743912 741.762268,47.479546 739.918640,50.143291 
	C736.252625,55.440109 733.949646,61.206303 736.503540,68.434776 
M730.811890,60.457817 
	C732.199280,52.953228 736.054626,46.662647 741.640381,40.463661 
	C735.640686,40.061935 731.193298,40.918770 728.564514,45.526844 
	C724.352295,52.910309 724.096741,60.735493 726.147278,69.443283 
	C729.658325,67.095657 729.865051,64.005333 730.811890,60.457817 
M717.990540,27.675362 
	C720.108337,24.408043 719.225220,22.521805 715.330505,22.727907 
	C710.668030,22.974632 701.975647,31.509815 701.563354,36.044846 
	C701.300720,38.933788 702.894104,40.829483 705.524597,41.648422 
	C707.970276,42.409832 710.065796,41.392426 710.553772,38.915375 
	C711.462341,34.304291 714.946533,31.581242 717.990540,27.675362 
M722.361206,45.124905 
	C723.502686,41.511581 726.556763,39.165749 728.387390,36.016968 
	C729.306885,34.435345 730.305420,32.651642 728.357056,31.100338 
	C726.427551,29.563997 724.632690,30.325613 722.953003,31.703249 
	C716.783508,36.763382 713.734802,53.758152 717.837463,61.365494 
	C719.281128,56.042587 720.665710,50.937637 722.361206,45.124905 
M195.141678,187.228882 
	C192.995758,186.056961 190.946106,184.454056 187.279312,185.990829 
	C191.908615,190.647598 196.179749,194.821472 203.056229,197.999344 
	C200.826935,193.206955 198.781281,190.072952 195.141678,187.228882 
z"/>
<path fill="#000000" opacity="1.000000" stroke="none" 
	d="
M449.584473,175.714630 
	C458.732910,172.919342 465.656982,167.773941 470.760925,160.155350 
	C478.338348,148.844543 489.533630,142.745316 502.340698,140.065445 
	C508.454834,138.786102 513.495422,137.302948 516.596497,131.613556 
	C516.945007,130.974060 517.810791,130.616501 518.616882,129.987625 
	C521.297424,132.970886 520.275452,135.699966 518.536743,138.175186 
	C516.163513,141.553711 512.834534,144.173370 508.795624,144.666718 
	C494.089325,146.462997 483.733337,155.386017 473.817932,165.195587 
	C471.571564,167.417984 469.239227,169.553299 466.981049,171.764023 
	C457.563293,180.983673 446.057953,183.447662 433.399689,182.133041 
	C431.959503,181.983475 430.376190,181.848831 429.666595,179.557159 
	C435.643646,175.585922 442.909851,177.957016 449.584473,175.714630 
z"/>
<path fill="#000000" opacity="1.000000" stroke="none" 
	d="
M439.092590,199.041550 
	C445.179077,199.709518 450.795685,198.792923 456.434052,198.383377 
	C459.692657,198.146698 462.926849,198.067505 465.868622,200.528122 
	C463.925507,203.700607 461.444794,203.055023 459.029907,202.653976 
	C457.557281,202.409424 455.892944,201.888901 454.885315,203.382965 
	C453.692474,205.151688 455.158203,206.556732 456.086731,207.842133 
	C458.591003,211.308899 461.868622,213.774780 465.987885,215.106018 
	C467.344177,215.544327 468.995117,215.396362 470.239899,217.022644 
	C467.696594,219.273361 464.965118,218.234055 462.391602,217.839630 
	C459.116608,217.337662 455.956879,216.007065 452.561310,216.389725 
	C448.048798,216.898239 446.344788,219.414551 447.989044,223.654999 
	C449.868713,228.502609 451.255157,233.361710 451.529144,238.619583 
	C451.766449,243.173843 455.195801,246.277466 458.149139,249.803833 
	C454.918335,252.096451 452.695312,250.404572 450.705994,248.454727 
	C448.113525,245.913681 447.173096,242.475067 446.172028,239.115143 
	C445.412201,236.564682 444.812561,233.961319 443.945740,231.449097 
	C442.550323,227.404846 440.218109,224.757202 435.351562,226.129059 
	C434.112488,226.478348 432.698364,226.616638 431.498322,225.215637 
	C431.563416,221.578552 434.543854,220.878052 437.194244,220.238556 
	C442.089691,219.057327 445.387146,215.888306 448.065399,211.976089 
	C451.170349,207.440582 449.881500,204.791763 444.407745,204.398376 
	C440.914703,204.147339 437.362152,204.301468 434.167725,202.606888 
	C431.956818,201.434036 429.764343,200.077637 431.086060,196.848648 
	C434.130737,196.264343 435.889526,199.484924 439.092590,199.041550 
z"/>
<path fill="#000000" opacity="1.000000" stroke="none" 
	d="
M555.969360,197.084412 
	C551.443359,200.158173 546.746155,201.935303 541.693726,202.077347 
	C537.296021,202.201004 534.575806,204.213501 532.575195,207.855560 
	C530.173889,212.227112 527.766296,216.605316 525.112427,220.823944 
	C523.671631,223.114182 522.176392,225.693604 518.910400,225.827881 
	C517.257019,223.745377 518.857422,222.538467 519.904785,221.433060 
	C523.689148,217.438980 526.062927,212.835358 526.726135,207.331802 
	C527.140808,203.890335 529.254822,201.642441 532.304565,200.198151 
	C536.091431,198.404755 540.132629,197.498306 544.198120,196.565857 
	C553.903748,194.339798 556.973206,189.231415 555.073181,179.399796 
	C554.337769,175.594467 552.830017,172.107208 551.492981,168.528946 
	C550.889343,166.913361 549.546875,165.343735 550.624634,163.406448 
	C561.077942,166.714722 564.640625,188.089951 555.969360,197.084412 
z"/>
<path fill="#000000" opacity="1.000000" stroke="none" 
	d="
M375.938599,224.204041 
	C376.047180,223.297379 376.066406,222.788284 376.208466,222.316147 
	C376.784637,220.400925 377.268005,218.064575 379.891937,218.461349 
	C382.563232,218.865295 382.440094,221.297577 382.163025,223.244019 
	C380.535706,234.675430 378.063751,245.803040 370.401459,255.033142 
	C368.022186,257.899261 365.180786,260.162292 361.999725,261.962189 
	C359.232788,263.527771 356.257385,264.270660 352.653076,262.132782 
	C365.750610,252.633820 373.233429,240.072739 375.938599,224.204041 
z"/>
<path fill="#000000" opacity="1.000000" stroke="none" 
	d="
M576.843567,222.293213 
	C574.644104,229.741837 570.663391,234.470749 562.636719,234.377228 
	C559.538940,234.341125 557.771790,237.847458 554.561646,237.674667 
	C553.700439,233.082672 556.346375,229.782883 562.156982,228.032593 
	C571.064514,225.349442 572.467163,222.823975 571.153809,213.618362 
	C570.172668,206.741791 567.404236,200.620300 563.922546,194.616257 
	C570.529419,193.816605 578.078064,210.085083 576.843567,222.293213 
z"/>
<path fill="#000000" opacity="1.000000" stroke="none" 
	d="
M489.213074,230.127487 
	C489.096863,227.844208 490.415161,226.703812 491.774750,225.797195 
	C496.471802,222.665054 497.760406,218.059967 497.658264,212.806946 
	C497.509979,205.179672 496.337799,197.561920 497.647614,189.920151 
	C498.011078,187.799774 497.816254,185.548981 500.319305,184.579208 
	C502.434998,185.339081 502.181183,187.193008 502.369751,188.768616 
	C503.619446,199.210678 503.463806,209.706223 503.157898,220.176544 
	C502.953491,227.174316 495.947876,232.132187 489.213074,230.127487 
z"/>
<path fill="#000000" opacity="1.000000" stroke="none" 
	d="
M524.333374,166.845963 
	C513.414978,166.687317 508.126038,175.465393 500.681946,181.425369 
	C498.878296,176.448822 501.705658,174.067444 504.060059,171.777191 
	C508.121246,167.826660 512.885681,164.764435 517.770142,161.907455 
	C519.489563,160.901718 521.200623,159.878159 522.876282,158.801682 
	C531.049927,153.550842 531.550842,152.055832 528.091003,143.474930 
	C531.896179,144.294220 533.845703,146.574982 534.352051,150.799728 
	C535.138733,157.363373 531.763489,162.931641 524.333374,166.845963 
z"/>
<path fill="#000000" opacity="1.000000" stroke="none" 
	d="
M412.637024,178.494141 
	C415.865021,177.764542 418.662994,177.661713 421.384064,178.729324 
	C422.831329,179.297180 424.112915,180.212616 423.826965,182.013977 
	C423.580292,183.567657 422.195923,184.412766 420.894012,184.130035 
	C407.816559,181.290115 398.285004,189.927917 387.424896,194.272537 
	C385.265747,195.136292 383.115448,196.824738 379.593811,194.961365 
	C388.684204,185.081024 399.811462,180.615707 412.637024,178.494141 
z"/>
<path fill="#000000" opacity="1.000000" stroke="none" 
	d="
M321.449768,279.565063 
	C311.212524,290.381683 291.462341,289.571808 283.462616,278.318207 
	C284.590912,276.833496 285.867737,277.827911 287.010864,278.195496 
	C296.584503,281.274139 306.130890,282.377411 315.799835,278.458221 
	C317.626465,277.717834 319.928833,276.546326 321.449768,279.565063 
z"/>
<path fill="#000000" opacity="1.000000" stroke="none" 
	d="
M592.493835,189.166718 
	C583.755371,192.357773 575.061279,190.030731 566.384705,189.640167 
	C565.268616,189.589935 564.135559,188.912704 563.860840,187.562012 
	C563.608704,186.322266 564.432983,185.591721 565.400696,185.355621 
	C574.300476,183.184509 583.096680,182.971405 591.552246,187.162781 
	C592.040771,187.404907 592.237183,188.236389 592.493835,189.166718 
z"/>
<path fill="#000000" opacity="1.000000" stroke="none" 
	d="
M531.899719,130.390091 
	C538.406311,132.427612 544.901672,130.977539 551.077820,132.558151 
	C552.668152,132.965118 554.340820,133.046051 555.159241,134.799011 
	C546.261475,141.508926 526.377319,137.081116 525.137207,127.685898 
	C527.430542,128.613647 529.476624,129.441376 531.899719,130.390091 
z"/>
<path fill="#000000" opacity="1.000000" stroke="none" 
	d="
M590.352905,253.172821 
	C587.099060,255.581070 584.624512,258.618042 580.359985,259.277130 
	C580.233276,256.660889 582.277710,256.056427 583.476562,254.962875 
	C591.199707,247.917938 591.685913,244.462860 586.250854,235.595444 
	C584.264160,232.354172 582.487732,228.981705 580.694092,225.626999 
	C580.429138,225.131516 580.600769,224.402618 580.574036,223.855957 
	C581.104736,223.636765 581.505737,223.327927 581.669678,223.423950 
	C590.458862,228.571655 595.608459,245.602203 590.352905,253.172821 
z"/>
<path fill="#000000" opacity="1.000000" stroke="none" 
	d="
M597.718872,222.187683 
	C591.942810,221.705383 586.445374,222.284531 580.177246,219.504578 
	C586.688660,215.298035 592.809265,215.717590 598.849426,216.496338 
	C602.938049,217.023483 606.917297,218.244110 608.410034,223.340240 
	C604.608215,224.524475 601.540527,221.715195 597.718872,222.187683 
z"/>
<path fill="#000000" opacity="1.000000" stroke="none" 
	d="
M527.641602,244.290924 
	C526.745117,243.104248 525.629150,242.209198 526.416748,240.978271 
	C527.209290,239.739731 528.469788,240.308334 529.568298,240.647522 
	C530.039917,240.793152 530.556580,240.925537 530.936523,241.216019 
	C537.358948,246.126785 544.021484,247.831894 551.387939,243.122650 
	C552.375122,242.491577 553.926147,242.251144 555.001221,243.523682 
	C550.080994,252.346954 537.778320,252.807495 527.641602,244.290924 
z"/>
<path fill="#000000" opacity="1.000000" stroke="none" 
	d="
M545.096680,146.182007 
	C551.400757,150.322021 558.121277,151.642441 565.198792,151.683914 
	C568.411926,151.702744 571.728882,151.441574 574.560364,153.911758 
	C566.414429,158.791687 546.359680,156.592819 542.541077,145.848572 
	C543.346558,145.146347 544.072083,145.715637 545.096680,146.182007 
z"/>
<path fill="#000000" opacity="1.000000" stroke="none" 
	d="
M503.981689,235.122864 
	C507.474762,237.489014 511.167847,237.420441 514.781189,237.657425 
	C516.771484,237.787979 518.794434,237.758789 520.581055,238.779938 
	C522.440918,239.842926 522.876526,241.581741 521.051941,242.708160 
	C516.278076,245.655304 511.372772,243.846252 506.703217,242.231812 
	C502.643829,240.828323 499.030426,238.647629 498.431641,233.768707 
	C501.040253,232.241684 502.326904,233.709244 503.981689,235.122864 
z"/>
<path fill="#000000" opacity="1.000000" stroke="none" 
	d="
M465.961853,193.387878 
	C461.739166,193.275284 461.739166,193.275284 458.766571,190.504715 
	C468.114990,186.639954 477.049805,183.683380 487.140411,184.814377 
	C480.255829,187.824158 474.087616,192.346436 465.961853,193.387878 
z"/>
<path fill="#000000" opacity="1.000000" stroke="none" 
	d="
M473.271271,208.134354 
	C471.838684,206.792404 472.110596,205.906693 473.397430,205.181503 
	C476.635712,203.356613 486.564819,203.491547 490.086487,205.414871 
	C487.478058,209.320511 480.970642,210.479782 473.271271,208.134354 
z"/>
<path fill="#000000" opacity="1.000000" stroke="none" 
	d="
M600.857727,208.808777 
	C600.355835,203.537903 596.891418,199.467087 596.641113,194.435440 
	C602.652466,194.314285 606.080688,204.411255 602.923157,212.052139 
	C601.053345,211.935974 601.359558,210.292694 600.857727,208.808777 
z"/>
<path fill="#000000" opacity="1.000000" stroke="none" 
	d="
M329.706360,305.081635 
	C326.607605,305.984680 323.869385,306.553925 321.025452,306.263031 
	C319.983643,306.156464 319.038208,305.782379 318.861267,304.618347 
	C318.724304,303.717255 319.234802,302.948517 320.074890,302.682251 
	C324.825134,301.176605 329.494263,299.091217 334.999298,299.850616 
	C334.884247,303.609039 332.268097,304.066864 329.706360,305.081635 
z"/>
<path fill="#000000" opacity="1.000000" stroke="none" 
	d="
M488.531799,243.893555 
	C481.628113,245.894760 478.163025,245.312378 474.744141,241.804276 
	C477.322327,239.968994 487.411743,239.146072 489.653381,240.670944 
	C492.007019,242.272034 490.148712,242.951614 488.531799,243.893555 
z"/>
<path fill="#000000" opacity="1.000000" stroke="none" 
	d="
M613.381714,236.604858 
	C611.670288,232.517410 607.352051,230.592117 606.246704,226.365631 
	C612.320618,225.301559 618.825439,234.116501 617.545654,241.374649 
	C614.822876,241.105545 614.600037,238.622833 613.381714,236.604858 
z"/>
<path fill="#000000" opacity="1.000000" stroke="none" 
	d="
M563.507019,258.724243 
	C564.114563,261.047485 565.820740,262.836792 564.657227,265.105988 
	C560.095764,263.517334 555.744324,255.495712 556.802490,250.360809 
	C560.741150,251.696793 561.647156,255.380585 563.507019,258.724243 
z"/>
<path fill="#000000" opacity="1.000000" stroke="none" 
	d="
M582.796631,160.568726 
	C588.525391,163.961655 592.979004,167.967361 593.934021,174.708496 
	C591.585815,175.519318 591.044983,174.352234 590.664856,173.284714 
	C589.429626,169.815826 586.978455,167.520782 583.988586,165.514435 
	C581.013428,163.518005 581.022644,163.017776 582.796631,160.568726 
z"/>
<path fill="#000000" opacity="1.000000" stroke="none" 
	d="
M806.633240,402.375854 
	C804.476074,400.805450 802.787781,399.336914 804.643616,396.857330 
	C806.313171,394.626678 808.362122,395.169800 810.442810,396.229584 
	C819.415894,400.799896 827.396790,406.809357 834.882080,413.457703 
	C840.363403,418.326111 846.393738,421.205261 853.890564,420.760162 
	C856.820190,420.586212 859.861328,420.772308 861.972961,423.387878 
	C861.192566,425.802673 859.156616,425.886719 857.429321,425.918854 
	C846.858887,426.115570 836.554565,424.880676 829.043213,416.423096 
	C822.954407,409.567413 815.148865,405.862518 806.633240,402.375854 
z"/>
<path fill="#000000" opacity="1.000000" stroke="none" 
	d="
M861.355469,390.684265 
	C859.674927,381.427063 854.756226,373.392883 854.755554,364.056946 
	C863.350952,368.281921 864.812134,376.615845 866.035217,384.487854 
	C867.631836,394.763763 872.092285,405.353180 865.251404,415.581146 
	C861.379822,407.738647 864.244873,398.984650 861.355469,390.684265 
z"/>
<path fill="#000000" opacity="1.000000" stroke="none" 
	d="
M876.198730,652.402466 
	C876.859558,651.199036 877.326477,650.305115 878.802246,650.210999 
	C880.503906,652.583252 879.521423,655.336914 878.949890,657.670593 
	C877.402832,663.987122 877.645142,669.217468 884.823486,671.779785 
	C885.181152,671.907471 885.354248,672.551941 885.617126,672.961853 
	C879.245972,676.301758 873.051880,672.785400 872.884949,665.692810 
	C872.777588,661.131042 874.401123,656.916687 876.198730,652.402466 
z"/>
<path fill="#000000" opacity="1.000000" stroke="none" 
	d="
M622.222229,836.898315 
	C627.843750,836.843079 632.991394,836.797058 638.139038,836.747131 
	C639.974792,836.729370 642.077209,836.926270 643.423889,835.716492 
	C645.955811,833.441956 648.143738,833.131531 650.802124,835.419861 
	C654.247375,838.385498 657.630371,841.353638 657.971619,846.283203 
	C658.053833,847.470703 657.268555,848.520874 656.013794,848.884583 
	C654.497253,849.324097 653.011780,848.512451 652.678955,847.344116 
	C650.269470,838.886108 644.362427,841.136292 638.405823,842.114746 
	C631.058044,843.321655 623.654785,844.498779 616.150391,844.290894 
	C613.847595,844.227173 610.778992,844.433350 610.502930,841.520813 
	C610.191345,838.234619 613.348633,837.997437 615.824463,837.636902 
	C617.792847,837.350342 619.773254,837.146545 622.222229,836.898315 
z"/>
<path fill="#000000" opacity="1.000000" stroke="none" 
	d="
M627.001465,459.716370 
	C623.182373,466.415802 618.731262,472.164673 613.455811,477.253876 
	C612.034912,478.624664 610.451111,479.860352 608.807922,480.957062 
	C607.306885,481.958923 605.511536,483.103241 603.818542,481.589752 
	C602.034058,479.994507 603.269775,478.143768 604.157227,476.627380 
	C606.511475,472.605133 609.501648,469.039551 612.804749,465.773956 
	C616.099487,462.516632 619.524048,459.386108 622.980652,456.299561 
	C624.151550,455.254028 625.513794,453.584015 627.262939,454.862823 
	C629.037842,456.160461 627.630676,457.865509 627.001465,459.716370 
z"/>
<path fill="#000000" opacity="1.000000" stroke="none" 
	d="
M644.908936,463.141785 
	C650.109070,469.548065 653.022766,476.480988 653.201904,484.435822 
	C653.238464,486.055939 653.405518,488.107330 651.256226,488.489410 
	C649.193665,488.856079 648.067444,486.971558 647.916138,485.454376 
	C646.974304,476.012360 641.251465,468.988403 636.286987,461.550018 
	C635.507080,460.381561 634.198242,458.919220 635.614441,457.537811 
	C637.227661,455.964172 638.776001,457.410187 640.002319,458.389526 
	C641.681091,459.730164 643.126648,461.362823 644.908936,463.141785 
z"/>
<path fill="#000000" opacity="1.000000" stroke="none" 
	d="
M598.295532,757.217590 
	C594.737183,761.693848 593.177734,767.656433 586.886047,769.375183 
	C586.379150,763.596558 600.280640,742.539368 605.882385,740.772095 
	C605.163757,747.197327 601.048523,751.721191 598.295532,757.217590 
z"/>
<path fill="#000000" opacity="1.000000" stroke="none" 
	d="
M610.680237,532.483398 
	C610.181641,528.503235 612.566467,529.299927 614.365234,530.071655 
	C617.902893,531.589478 621.544373,532.475952 625.347778,532.884583 
	C627.889771,533.157654 630.908630,533.730835 630.535828,536.891846 
	C630.144653,540.208923 627.062622,541.188599 624.055603,540.719055 
	C618.638916,539.873230 614.122192,537.280884 610.680237,532.483398 
z"/>
<path fill="#000000" opacity="1.000000" stroke="none" 
	d="
M534.167725,334.514038 
	C534.237976,327.532257 537.004761,321.933228 540.784363,316.739014 
	C549.040588,305.392731 557.992065,294.716431 569.875549,286.908661 
	C574.917236,283.596191 580.276489,280.787720 586.205139,279.674683 
	C596.815796,277.682648 605.916382,272.873322 614.072876,265.996368 
	C615.210327,265.037292 616.448608,264.179016 617.718811,263.402710 
	C618.600037,262.864105 619.625732,262.733887 620.455444,263.593384 
	C621.239685,264.405762 621.238831,265.411865 620.837280,266.375397 
	C620.115906,268.106781 618.810974,269.393860 617.416687,270.597900 
	C609.602722,277.345734 600.629211,282.249023 590.744141,284.740723 
	C569.474182,290.102295 555.683228,304.146881 545.138123,322.277771 
	C542.801147,326.295868 540.981140,330.612305 538.706787,334.670135 
	C537.555603,336.724091 535.925476,338.594269 534.167725,334.514038 
z"/>
<path fill="#000000" opacity="1.000000" stroke="none" 
	d="
M625.798218,296.878998 
	C613.395630,301.485687 601.631958,306.434113 591.551758,314.713287 
	C589.507996,316.391907 586.298767,319.237213 584.183472,316.692932 
	C581.649902,313.645630 585.163208,310.958069 587.385559,308.887939 
	C592.077271,304.517517 597.902161,301.851929 603.659180,299.311798 
	C625.141113,289.833527 647.424377,282.509796 669.737793,275.294464 
	C671.383240,274.762390 673.193481,273.852753 675.903320,276.648254 
	C659.703857,285.250458 642.553345,290.122681 625.798218,296.878998 
z"/>
<path fill="#000000" opacity="1.000000" stroke="none" 
	d="
M606.235962,319.575378 
	C604.347534,319.650635 602.501343,318.549255 604.684509,317.778351 
	C619.257751,312.632446 629.315918,299.386078 644.788208,295.881989 
	C655.291077,293.503387 666.156128,292.392639 675.994751,287.441040 
	C677.983337,286.440186 680.617004,286.267151 681.713928,288.678162 
	C682.985657,291.473328 680.313599,292.459381 678.417358,293.266724 
	C671.810425,296.079376 664.877197,297.876251 657.834961,299.175537 
	C647.877686,301.012695 638.623657,304.275452 630.534668,310.665955 
	C623.581665,316.159027 615.584961,319.300842 606.235962,319.575378 
z"/>
<path fill="#000000" opacity="1.000000" stroke="none" 
	d="
M627.754700,354.227783 
	C622.938904,349.771820 617.748169,347.199158 611.364380,347.146057 
	C608.407959,347.121490 605.268188,346.162781 605.622253,342.427643 
	C606.020020,338.231018 609.599121,338.458954 612.580872,338.911499 
	C619.199646,339.915985 624.839111,343.262726 629.796448,347.502380 
	C637.891052,354.425140 643.532471,363.250458 647.877747,372.892853 
	C648.632751,374.568207 650.022095,376.946136 647.761108,378.311890 
	C645.236389,379.837036 643.858643,377.388916 642.631714,375.710785 
	C641.264648,373.841156 639.974548,371.856720 639.021301,369.754303 
	C636.368713,363.904022 632.709412,358.825439 627.754700,354.227783 
z"/>
<path fill="#000000" opacity="1.000000" stroke="none" 
	d="
M679.334717,342.935822 
	C676.671448,339.582001 677.342651,335.879852 677.812561,332.575897 
	C679.370728,321.620056 682.571899,311.151733 688.921204,301.885162 
	C690.408569,299.714417 690.450439,299.743103 693.505981,298.697845 
	C694.738647,300.812286 693.458862,302.633118 692.559326,304.261200 
	C687.562012,313.306458 685.253784,323.031342 684.028992,333.234131 
	C683.622131,336.623444 684.684387,341.475922 679.334717,342.935822 
z"/>
<path fill="#000000" opacity="1.000000" stroke="none" 
	d="
M695.438293,141.425522 
	C691.599304,149.944901 687.396179,157.873306 681.993774,165.044586 
	C679.178528,168.781540 675.723083,172.125336 669.315735,171.979187 
	C678.437073,160.116043 686.933899,149.065155 695.554016,137.853867 
	C696.692200,138.710800 695.964844,139.915924 695.438293,141.425522 
z"/>
<path fill="#000000" opacity="1.000000" stroke="none" 
	d="
M661.854858,190.045349 
	C659.930359,188.449219 660.699097,187.196045 662.014099,186.226883 
	C665.525085,183.639160 669.343872,183.055923 674.801758,184.670120 
	C670.526489,188.347763 666.858276,190.281601 661.854858,190.045349 
z"/>
<path fill="#000000" opacity="1.000000" stroke="none" 
	d="
M415.273376,103.319214 
	C427.646759,78.375946 433.160370,71.055336 439.602142,70.940285 
	C440.468933,72.308914 439.508514,73.225136 438.615997,73.856522 
	C433.444366,77.515091 430.973450,82.941086 428.818939,88.574280 
	C425.953583,96.065880 422.384430,103.185219 417.686096,109.699974 
	C416.179596,111.788940 414.765198,114.104874 411.319855,114.804268 
	C410.477905,110.054207 413.919678,107.201309 415.273376,103.319214 
z"/>
</svg>