<?xml version="1.0" standalone="no"?>
<!DOCTYPE svg PUBLIC "-//W3C//DTD SVG 20010904//EN"
 "http://www.w3.org/TR/2001/REC-SVG-20010904/DTD/svg10.dtd">
<svg version="1.0" xmlns="http://www.w3.org/2000/svg"
 width="901.000000pt" height="1118.000000pt" viewBox="0 0 901.000000 1118.000000"
 preserveAspectRatio="xMidYMid meet">

<g transform="translate(0.000000,1118.000000) scale(0.100000,-0.100000)"
fill="#000000" stroke="none">
<path d="M5355 11077 c-175 -45 -356 -240 -445 -479 -49 -133 -64 -225 -64
-403 0 -197 19 -296 81 -425 42 -88 133 -184 204 -217 100 -47 222 -49 339 -8
23 8 47 12 52 8 17 -10 2 -198 -22 -294 -12 -46 -36 -114 -55 -150 -45 -89
-65 -161 -65 -236 l0 -63 -132 0 c-155 -1 -261 -18 -338 -54 -101 -47 -170
-38 -430 57 -168 61 -321 90 -453 85 -89 -3 -106 -6 -134 -27 -29 -22 -38 -23
-110 -18 -102 7 -179 33 -203 68 -11 15 -27 56 -36 90 -23 89 -48 134 -105
189 -122 117 -365 189 -598 177 -177 -9 -275 -52 -424 -186 -37 -33 -74 -61
-81 -61 -8 0 -16 17 -19 41 -10 72 -64 167 -141 244 -91 92 -161 127 -266 133
-93 5 -154 -15 -284 -92 -50 -30 -108 -60 -130 -66 -52 -17 -110 -7 -157 26
-56 38 -152 187 -242 374 -84 175 -145 253 -229 296 -241 122 -524 -48 -704
-421 -94 -196 -132 -385 -113 -572 31 -306 197 -523 412 -540 45 -4 90 1 157
16 62 15 96 19 103 12 14 -14 24 -159 37 -521 12 -365 23 -471 56 -557 35 -95
117 -235 219 -373 34 -47 75 -111 89 -142 28 -59 80 -112 164 -168 68 -45 123
-42 298 19 142 49 317 93 520 130 185 34 330 89 396 149 26 24 28 24 53 8 72
-47 97 -215 170 -1131 35 -440 62 -751 81 -935 9 -85 17 -166 17 -178 2 -22
-28 -38 -338 -181 -187 -87 -428 -199 -535 -249 l-195 -91 -3 -181 c-3 -236 0
-246 94 -337 94 -91 161 -135 188 -127 35 11 441 207 779 376 l318 158 317
-247 c902 -704 1101 -863 1221 -977 78 -76 93 -102 85 -158 -3 -24 -9 -281
-12 -573 l-7 -530 -107 -200 c-123 -230 -185 -371 -200 -453 -23 -125 30 -197
244 -330 166 -104 270 -191 367 -307 117 -139 240 -258 310 -299 128 -74 369
-133 587 -143 l131 -6 61 33 c133 70 232 178 232 251 -1 37 -34 102 -76 149
-21 23 -96 80 -166 126 -177 116 -260 199 -370 363 -49 74 -112 180 -139 235
l-51 101 23 15 c20 14 308 177 1144 647 549 308 867 489 949 537 44 26 99 52
123 59 62 16 105 -8 160 -92 23 -35 51 -74 63 -86 31 -33 125 -81 196 -99 209
-54 354 32 408 240 46 177 5 248 -224 390 -60 37 -132 90 -159 118 -44 45
-203 288 -284 434 l-29 52 39 44 c21 24 118 119 216 211 237 223 287 283 392
475 89 163 141 234 267 366 139 146 143 155 136 324 -7 178 -38 234 -196 354
-109 83 -322 272 -322 287 0 15 -218 196 -327 270 -57 39 -175 107 -261 151
-198 102 -218 115 -284 181 -106 107 -203 154 -513 247 -232 69 -504 137 -670
165 -161 28 -208 43 -268 83 -70 48 -121 71 -185 81 -34 5 -70 15 -82 21 -11
6 -46 46 -77 88 -31 42 -145 165 -253 272 -109 107 -216 223 -240 258 -94 141
-130 258 -130 423 l0 97 143 50 c273 96 280 97 482 97 99 0 186 4 192 8 24 15
62 93 83 168 41 153 61 330 67 594 4 218 2 264 -15 360 -11 61 -18 111 -17
113 2 2 28 -33 59 -77 122 -174 279 -236 458 -181 171 53 350 234 433 439 58
142 69 218 70 456 0 183 -3 231 -18 285 -47 166 -131 269 -278 340 -45 22 -98
43 -117 46 -77 15 -225 -43 -347 -136 -106 -80 -107 -80 -159 -32 -51 47 -99
73 -177 96 -77 22 -101 50 -140 164 -63 181 -183 344 -278 377 -61 22 -193 28
-256 12z m224 -79 c64 -30 170 -141 214 -226 20 -38 37 -77 37 -85 0 -24 -25
-38 -111 -62 -143 -41 -232 -123 -249 -231 -6 -33 -20 -72 -35 -93 -14 -20
-36 -51 -50 -69 -28 -39 -40 -114 -33 -211 6 -80 25 -118 94 -191 29 -31 61
-73 69 -94 15 -35 15 -40 0 -63 -9 -14 -42 -37 -73 -51 -48 -23 -71 -27 -142
-27 -72 0 -92 4 -135 27 -105 55 -208 200 -235 333 -19 90 -16 403 4 490 33
137 136 325 239 432 136 142 272 182 406 121z m251 -433 c23 -8 58 -29 78 -46
42 -37 90 -59 129 -59 63 -1 193 -88 193 -131 0 -9 -24 -65 -53 -125 -29 -60
-66 -140 -82 -179 -38 -92 -61 -125 -88 -125 -20 0 -100 36 -167 75 -14 8 -42
15 -62 15 -46 0 -51 20 -12 47 58 40 67 53 61 91 -8 46 -37 75 -91 90 -56 15
-76 35 -76 77 0 45 46 90 112 110 29 8 57 15 64 15 6 0 22 9 35 19 18 15 21
22 12 31 -9 9 -27 7 -80 -10 -141 -47 -172 -70 -187 -142 -5 -23 -12 -28 -35
-28 -54 0 -74 64 -46 149 37 112 172 169 295 126z m942 -66 c90 -23 205 -141
248 -256 102 -271 44 -652 -140 -924 -54 -79 -154 -167 -230 -203 -55 -26 -77
-31 -145 -31 -96 0 -143 21 -217 97 -53 54 -116 175 -143 273 -25 92 -31 292
-11 397 43 229 134 408 272 537 120 112 227 144 366 110z m-1123 -293 c74 -23
137 -48 139 -55 5 -16 -25 -49 -61 -68 -26 -13 -35 -12 -97 6 -84 26 -103 26
-98 4 2 -10 33 -34 69 -53 87 -47 156 -96 170 -121 8 -16 7 -33 -6 -72 -9 -29
-17 -66 -17 -84 0 -52 79 -179 99 -159 4 3 -5 44 -21 89 -22 67 -25 88 -17
110 15 39 65 57 159 57 l78 0 -14 -117 c-18 -157 -9 -383 23 -598 14 -93 28
-231 31 -305 6 -121 3 -154 -24 -320 -35 -207 -74 -371 -97 -406 -20 -31 -57
-39 -117 -25 -137 31 -356 -5 -560 -93 -42 -18 -100 -21 -128 -6 -10 5 -33 35
-51 66 -40 71 -109 154 -195 236 -115 109 -193 207 -235 295 -21 46 -39 87
-39 92 0 4 37 -7 83 -25 100 -41 126 -42 158 -8 66 71 190 116 319 118 134 1
152 -10 240 -152 63 -99 169 -152 214 -106 24 23 13 31 -51 36 -70 6 -83 21
-149 166 -55 118 -57 89 20 311 54 154 90 292 106 406 16 113 27 145 52 145
18 0 20 4 15 36 -8 50 -77 162 -142 233 -30 32 -64 78 -75 102 -47 105 -2 311
68 308 9 0 78 -19 151 -43z m-4804 -193 c69 -36 138 -124 200 -256 56 -117 60
-108 -91 -197 -163 -96 -251 -162 -261 -198 -11 -39 -7 -264 7 -421 21 -236 0
-292 -114 -306 -278 -35 -442 138 -463 486 -24 414 188 804 492 906 58 19 180
11 230 -14z m333 -507 c4 -19 -34 -36 -81 -36 -18 0 -39 -5 -47 -10 -13 -9
-13 -12 4 -25 10 -8 38 -17 62 -20 24 -3 64 -7 88 -11 25 -3 59 -16 78 -29 45
-34 93 -55 122 -55 51 0 46 -56 -8 -89 -48 -30 -88 -26 -187 20 -92 42 -159
59 -159 41 0 -11 58 -49 160 -105 36 -19 76 -47 89 -61 l24 -26 -37 -142 c-41
-160 -60 -215 -83 -240 -17 -19 -30 -145 -19 -175 7 -16 9 -15 22 10 23 42 34
23 34 -56 0 -143 55 -272 177 -410 154 -178 175 -205 206 -267 30 -62 32 -71
33 -185 0 -149 1 -152 15 -138 7 7 15 50 19 96 9 100 32 150 91 201 56 48 113
68 303 106 87 17 170 37 182 42 47 22 21 58 -42 58 -27 0 -44 5 -47 14 -8 21
69 175 106 214 43 45 84 65 256 124 173 58 250 99 430 225 148 103 264 165
356 188 156 40 504 39 575 -2 71 -40 82 -45 88 -38 4 3 -10 22 -31 41 -20 19
-37 42 -37 49 0 21 65 35 168 35 116 0 228 -23 305 -61 69 -36 172 -134 227
-221 56 -86 52 -112 -16 -101 -20 3 10 -21 100 -81 71 -47 156 -111 188 -143
128 -127 218 -305 218 -435 0 -107 49 -280 116 -408 19 -36 65 -104 104 -152
38 -48 70 -91 70 -96 0 -5 -37 -13 -82 -16 -205 -17 -345 -56 -533 -145 -287
-137 -568 -356 -733 -571 -36 -47 -69 -89 -73 -93 -4 -5 -97 63 -207 151 -305
244 -393 298 -622 381 -204 75 -371 169 -485 272 -88 81 -86 88 45 224 106
111 144 160 137 179 -5 12 -13 13 -36 6 -68 -19 -181 -122 -271 -246 -33 -45
-86 -106 -119 -136 -70 -65 -98 -74 -420 -138 -262 -51 -375 -82 -453 -122
-81 -41 -152 -44 -216 -8 -51 29 -143 145 -290 367 -126 191 -168 266 -181
323 -18 81 -31 240 -46 565 -8 176 -25 490 -36 698 -27 462 -27 458 64 544
126 117 322 187 335 119z m857 -63 c53 -28 137 -117 170 -182 88 -175 93 -448
11 -689 -87 -256 -261 -451 -443 -499 -76 -20 -174 -13 -233 17 -175 88 -270
360 -226 648 53 345 248 639 475 714 74 24 189 20 246 -9z m1015 -125 c79 -15
199 -63 267 -107 114 -74 180 -165 190 -265 7 -66 -4 -76 -127 -111 -133 -37
-275 -107 -453 -223 -172 -113 -246 -152 -338 -181 -123 -38 -122 -38 -178 14
-73 68 -86 109 -77 248 8 145 37 285 75 362 53 106 182 212 311 254 93 30 206
33 330 9z m-697 -911 c15 -22 27 -44 27 -48 0 -22 -212 -150 -225 -137 -10 10
10 65 67 186 l49 106 27 -34 c15 -18 39 -51 55 -73z m-256 -273 c9 -24 -19
-155 -34 -161 -22 -9 -70 17 -82 44 -24 52 29 133 86 133 13 0 26 -7 30 -16z
m-176 -140 c18 -22 0 -47 -40 -55 -18 -4 -63 -28 -101 -54 -39 -27 -73 -44
-80 -40 -17 11 -49 86 -43 101 5 15 51 31 133 50 78 17 115 17 131 -2z m3635
-981 c48 -26 68 -48 61 -67 -6 -16 -12 -17 -167 -36 -138 -18 -324 -74 -269
-82 7 -1 115 -3 239 -3 220 0 226 -1 274 -25 36 -19 56 -37 75 -72 l26 -48
-38 -35 c-81 -75 -12 -79 135 -9 l100 49 47 -52 c72 -81 124 -99 474 -169 407
-81 598 -134 817 -229 143 -61 157 -77 75 -88 -71 -10 -193 -54 -244 -89 -25
-17 -80 -67 -121 -110 -42 -43 -81 -78 -88 -78 -7 0 -12 13 -12 30 0 44 -43
123 -86 158 -50 41 -109 56 -198 49 -95 -7 -198 -43 -378 -133 l-147 -74 -12
43 c-16 59 -6 131 30 221 32 80 38 116 21 116 -30 0 -114 -207 -130 -322 -11
-78 -29 -96 -199 -191 -151 -85 -231 -157 -263 -235 -22 -54 -23 -69 -21 -274
l3 -216 -68 -6 c-37 -3 -105 -8 -152 -12 -111 -8 -220 -30 -293 -59 -139 -57
-268 -187 -357 -360 -39 -75 -45 -96 -50 -168 l-5 -82 -28 46 c-57 95 -224
494 -259 618 -19 67 -21 103 -22 311 -1 262 -10 314 -68 384 -53 65 -78 38
-34 -38 31 -54 49 -113 41 -133 -9 -25 -38 23 -74 123 -40 111 -46 160 -27
226 36 124 147 332 262 488 105 144 217 239 382 325 77 40 89 55 45 55 -71 0
-239 -109 -387 -250 -187 -179 -242 -263 -385 -580 l-15 -35 -6 70 c-4 52 -12
79 -29 102 -34 45 -39 117 -13 176 64 145 301 375 578 559 282 189 447 240
759 234 140 -2 165 -5 201 -23z m-2791 -91 c77 -47 313 -298 416 -442 51 -71
56 -84 62 -147 4 -37 22 -255 42 -483 53 -625 66 -763 71 -782 5 -16 10 -16
67 6 91 34 306 132 521 235 l189 92 16 -22 c77 -106 82 -121 101 -325 9 -90 9
-127 1 -143 -14 -26 -94 -72 -366 -210 -233 -117 -296 -160 -275 -186 14 -17
252 -196 606 -456 339 -248 710 -528 762 -575 l44 -39 -42 -80 c-45 -85 -152
-267 -175 -299 -13 -17 -27 -8 -222 140 -114 87 -359 275 -543 418 -390 303
-793 607 -868 655 l-53 33 -62 -27 c-84 -38 -565 -278 -816 -409 l-203 -105
-73 59 c-91 74 -123 112 -130 153 -3 18 -5 102 -3 187 l3 154 335 158 c184 87
418 200 520 251 l185 92 -3 90 c-8 247 -92 1310 -138 1758 -14 136 -22 252
-19 257 9 14 16 13 50 -8z m340 -124 c177 -58 331 -175 555 -423 258 -286 352
-437 438 -705 48 -153 55 -180 44 -180 -9 0 -134 142 -527 600 -357 415 -611
706 -624 715 -6 3 -11 11 -11 16 0 12 38 5 125 -23z m622 -344 c104 -66 193
-167 193 -221 0 -44 -38 -26 -124 60 -86 85 -196 214 -196 230 0 8 24 -5 127
-69z m-331 -216 c130 -136 664 -770 664 -788 0 -14 -638 -325 -647 -316 -3 2
-15 141 -29 308 -22 273 -53 629 -70 796 -6 51 -4 62 8 62 8 0 42 -28 74 -62z
m4085 -179 c118 -39 443 -170 509 -206 111 -61 208 -140 405 -333 202 -197
262 -251 363 -320 107 -74 144 -159 127 -292 -15 -120 -31 -154 -114 -241 -88
-92 -166 -207 -236 -347 -101 -203 -138 -247 -492 -578 -149 -140 -233 -246
-253 -324 -9 -33 -9 -44 2 -55 12 -12 18 -11 39 5 17 14 30 17 45 12 33 -13
98 -95 153 -194 64 -117 85 -144 181 -242 51 -51 111 -98 163 -129 103 -61
163 -108 182 -145 26 -51 14 -150 -19 -150 -8 0 -66 20 -129 45 -64 25 -126
45 -138 45 -22 0 -22 0 -3 -21 10 -12 42 -33 69 -46 75 -38 135 -84 152 -117
13 -26 13 -30 -1 -45 -22 -21 -142 -27 -234 -11 -128 21 -201 68 -266 170 -12
19 -50 54 -84 78 -94 65 -96 72 -102 242 l-5 145 -130 48 c-205 75 -300 117
-336 147 l-33 27 19 43 c11 24 35 66 55 94 57 81 58 83 25 62 -121 -77 -151
-125 -142 -231 8 -85 -4 -109 -63 -125 -106 -28 -210 48 -210 153 0 76 37 121
230 279 35 30 88 83 118 118 115 139 145 172 168 180 22 9 24 15 24 84 0 126
63 407 119 531 95 209 256 342 427 353 41 3 74 8 74 12 0 4 -26 19 -57 33 -71
31 -212 59 -448 87 -312 37 -485 78 -593 141 -77 44 -93 85 -99 248 -5 155 -2
163 64 137 209 -81 496 -166 511 -152 12 13 -18 27 -164 82 -184 68 -341 143
-373 178 -24 26 -25 29 -14 99 11 77 47 178 83 230 51 74 278 215 351 217 9 0
45 -9 80 -21z m-673 -53 c22 -15 46 -42 53 -59 10 -24 14 -147 16 -472 l4
-440 -252 -155 c-685 -421 -683 -420 -695 -407 -7 6 -29 53 -49 102 -46 113
-82 178 -157 282 -103 144 -103 144 -103 398 l0 220 29 53 c21 36 51 69 95
103 108 81 676 353 821 393 31 9 85 15 126 13 59 -2 78 -7 112 -31z m237
-1056 c167 -73 394 -126 679 -157 l69 -8 -75 -76 c-135 -137 -239 -391 -293
-709 -40 -235 -68 -278 -351 -528 -100 -88 -181 -197 -190 -254 -12 -71 3
-107 73 -179 l65 -67 -44 -25 c-150 -85 -340 -187 -347 -187 -14 0 -371 546
-419 639 -41 82 -44 92 -52 210 -10 133 -38 263 -94 437 -53 166 -76 257 -76
295 1 30 8 40 68 87 92 72 297 210 607 406 143 90 261 165 262 165 1 1 54 -22
118 -49z m-1512 10 c66 -31 116 -94 191 -240 86 -168 144 -312 205 -510 27
-91 64 -203 81 -250 61 -165 63 -173 63 -265 1 -166 -49 -278 -226 -508 -47
-60 -68 -102 -106 -204 -27 -70 -108 -274 -181 -453 -243 -594 -244 -596 -244
-815 -1 -184 2 -196 94 -391 207 -439 381 -651 665 -814 50 -28 105 -65 122
-83 34 -32 57 -83 51 -117 -3 -17 -13 -11 -78 41 -70 56 -114 79 -126 66 -10
-9 17 -49 77 -113 33 -35 59 -71 59 -80 0 -9 -20 -37 -45 -62 l-45 -45 -118 6
c-203 10 -440 45 -498 73 -39 18 -108 82 -292 268 -242 246 -315 307 -447 373
-80 41 -161 103 -191 147 -57 83 -40 173 64 347 203 339 212 374 211 914 -1
418 21 582 107 798 56 143 199 401 234 422 8 5 22 -4 37 -24 29 -37 50 -40 59
-6 23 92 -91 306 -387 730 -97 139 -163 275 -156 321 12 73 130 232 240 325
184 155 432 219 580 149z m-1208 -132 c4 -13 58 -126 120 -253 107 -218 168
-315 200 -315 20 0 127 -102 195 -186 130 -162 267 -396 277 -474 6 -42 -8
-70 -35 -70 -25 0 -608 418 -1097 787 -306 230 -290 216 -269 234 22 18 575
298 591 299 6 0 15 -10 18 -22z m2021 -1773 c194 -293 293 -427 319 -433 9 -2
17 8 20 25 4 15 10 35 14 43 14 27 175 127 423 264 l245 136 149 -51 c154 -52
208 -78 218 -105 10 -26 6 -92 -13 -233 -9 -74 -22 -136 -27 -138 -6 -2 -104
-57 -220 -121 -115 -65 -528 -298 -919 -517 -390 -219 -784 -441 -875 -492
l-165 -93 -33 71 c-55 117 -75 207 -76 349 -1 112 1 130 22 172 30 62 90 108
280 220 84 50 151 94 150 98 -3 6 -90 85 -207 187 l-34 29 42 100 c99 231 164
374 171 374 15 0 98 -101 177 -215 131 -187 242 -335 253 -335 22 0 20 30 -5
81 -15 29 -95 154 -179 278 -83 124 -160 242 -170 262 -19 36 -19 37 3 82 12
25 63 107 112 183 l91 138 21 -35 c12 -19 108 -164 213 -324z m-665 -744 c27
-26 49 -53 49 -60 0 -7 -14 -20 -31 -29 -17 -9 -72 -42 -123 -74 -50 -31 -93
-55 -95 -53 -5 5 49 164 70 207 36 72 66 74 130 9z"/>
<path d="M5404 10937 c-115 -79 -233 -268 -289 -462 -91 -314 -63 -645 64
-759 35 -32 33 -13 -8 65 -62 118 -75 180 -75 359 1 175 18 272 77 428 59 158
151 284 257 352 28 18 50 36 50 41 0 18 -29 9 -76 -24z"/>
<path d="M5957 10386 c-49 -18 -67 -34 -84 -74 -14 -33 -16 -145 -3 -137 4 3
13 25 20 50 16 58 60 119 100 140 30 16 40 35 18 35 -7 -1 -30 -7 -51 -14z"/>
<path d="M6029 10164 c-16 -19 -26 -134 -12 -134 10 0 43 102 43 133 0 21 -14
22 -31 1z"/>
<path d="M6597 10430 c-98 -62 -172 -155 -243 -305 -156 -328 -142 -807 27
-949 62 -52 60 -16 -3 60 -63 76 -78 119 -90 262 -34 393 97 748 335 906 31
21 57 42 57 47 0 18 -37 8 -83 -21z"/>
<path d="M5755 9128 c17 -79 24 -173 25 -300 0 -134 7 -165 32 -140 26 26 3
359 -31 445 -15 39 -35 35 -26 -5z"/>
<path d="M5404 8454 c-22 -14 -50 -36 -64 -49 -63 -58 -87 -65 -217 -65 -67 0
-124 -4 -127 -9 -16 -26 77 -54 180 -55 71 -1 88 3 139 29 40 21 71 46 96 79
63 83 59 114 -7 70z"/>
<path d="M5858 8223 c-49 -27 -66 -49 -48 -67 17 -17 140 57 140 85 0 17 -45
8 -92 -18z"/>
<path d="M670 9973 c-211 -142 -362 -427 -401 -761 -9 -69 -8 -117 0 -183 16
-123 42 -188 102 -252 l49 -52 -34 60 c-101 178 -112 420 -31 670 40 124 139
316 193 376 26 29 82 78 124 109 67 49 84 70 59 70 -4 0 -31 -17 -61 -37z"/>
<path d="M901 9324 c-15 -34 -13 -103 3 -134 14 -24 14 -24 26 20 12 43 6 125
-9 134 -4 3 -13 -6 -20 -20z"/>
<path d="M916 9090 c-33 -101 -34 -260 -1 -260 21 0 25 25 25 138 0 101 -12
159 -24 122z"/>
<path d="M3996 8559 c-10 -50 -54 -83 -148 -108 -176 -48 -302 -133 -391 -265
-107 -160 -187 -236 -284 -270 -23 -8 -82 -22 -132 -30 -129 -22 -175 -47
-115 -62 68 -17 243 19 320 66 88 55 266 242 296 312 25 57 225 170 332 188
104 17 146 60 146 149 0 56 -14 68 -24 20z"/>
<path d="M4120 8581 c0 -41 52 -73 145 -90 64 -12 184 -15 209 -5 50 19 -17
42 -157 54 -80 7 -118 15 -143 30 -38 22 -54 25 -54 11z"/>
<path d="M4095 8389 c4 -13 18 -37 31 -52 35 -42 24 -57 -149 -190 -105 -80
-156 -138 -157 -174 0 -34 14 -28 38 16 36 64 106 119 160 126 73 10 102 25
130 68 38 58 37 121 -3 178 -35 50 -61 64 -50 28z"/>
<path d="M4290 8334 c25 -33 43 -42 108 -60 73 -20 233 -25 239 -8 6 18 -24
25 -139 35 -95 8 -134 16 -203 45 -19 7 -19 6 -5 -12z"/>
<path d="M4330 8183 c36 -75 60 -161 60 -219 0 -66 -24 -88 -127 -113 -134
-34 -173 -66 -173 -144 0 -38 -33 -113 -62 -144 -27 -29 -16 -41 17 -19 28 18
54 65 79 143 31 95 80 133 171 133 53 0 119 30 136 62 17 32 14 128 -7 194
-13 42 -32 72 -71 113 l-54 56 31 -62z"/>
<path d="M4722 8184 c1 -10 23 -32 48 -49 26 -18 53 -49 65 -73 20 -41 35 -54
35 -29 0 34 -76 129 -123 154 -26 13 -28 13 -25 -3z"/>
<path d="M1011 8085 c-1 -49 26 -215 47 -282 27 -84 72 -153 146 -218 79 -71
161 -115 215 -115 28 0 41 4 41 13 0 8 -42 45 -92 82 -117 87 -199 165 -237
224 -26 39 -69 156 -109 291 l-10 35 -1 -30z"/>
<path d="M4515 7970 c-5 -9 0 -20 15 -32 19 -15 38 -18 134 -16 86 1 120 -2
150 -15 46 -20 61 -13 28 14 -36 29 -117 49 -223 56 -73 4 -98 3 -104 -7z"/>
<path d="M2655 7883 c-43 -18 -84 -27 -145 -31 -47 -2 -93 -9 -104 -14 -17 -9
-17 -11 -2 -26 24 -24 163 -23 234 2 56 19 126 71 116 87 -9 15 -35 10 -99
-18z"/>
<path d="M4574 7807 c52 -139 105 -219 93 -139 -12 74 -80 202 -107 202 -6 0
1 -28 14 -63z"/>
<path d="M4944 7790 c14 -88 28 -140 38 -140 14 0 5 116 -12 153 -19 40 -34
33 -26 -13z"/>
<path d="M3824 7782 c-6 -4 -14 -20 -18 -35 -6 -26 6 -289 20 -412 l5 -50 -70
-38 c-76 -40 -93 -64 -39 -53 44 9 100 47 134 92 41 53 43 121 9 259 -20 83
-26 125 -22 173 5 62 0 77 -19 64z"/>
<path d="M3457 7759 c-113 -27 -168 -60 -136 -80 35 -22 126 -3 169 36 28 25
62 44 99 56 57 17 -55 7 -132 -12z"/>
<path d="M2423 7652 c-10 -9 -40 -57 -68 -107 -56 -100 -137 -194 -199 -230
-71 -42 -126 -56 -274 -69 -138 -13 -172 -22 -158 -45 10 -15 103 -41 145 -41
62 0 167 27 233 60 91 45 160 102 222 184 65 83 146 223 146 248 0 23 -25 23
-47 0z"/>
<path d="M2950 7632 c0 -4 7 -17 15 -29 15 -21 57 -40 142 -62 56 -15 73 -34
73 -81 0 -69 -94 -149 -176 -150 -34 0 -60 -22 -49 -41 5 -8 25 -9 61 -5 97
11 117 -9 154 -155 34 -134 91 -213 127 -176 13 13 10 19 -25 54 -29 28 -42
52 -47 79 -11 73 -32 149 -56 202 -21 49 -22 55 -9 79 19 34 63 45 152 41 37
-2 68 -2 68 -1 0 2 -16 9 -35 17 -50 21 -85 63 -85 101 0 49 18 64 79 67 30 2
56 8 58 14 6 19 -54 22 -204 11 l-141 -11 -51 27 c-28 14 -51 23 -51 19z"/>
<path d="M4802 7570 c-53 -12 -59 -25 -37 -66 18 -34 80 -94 97 -94 18 0 6 28
-32 74 -22 26 -40 53 -40 58 0 6 38 9 93 8 50 -1 106 -1 122 -1 29 2 29 2 11
16 -22 16 -154 19 -214 5z"/>
<path d="M3527 7533 c-50 -6 -47 -33 5 -50 30 -10 48 -9 95 3 57 15 82 28 71
39 -8 8 -126 14 -171 8z"/>
<path d="M4593 7496 c-78 -37 -143 -84 -143 -103 0 -19 15 -16 54 11 19 13 52
26 73 29 41 7 113 59 113 83 0 21 -17 17 -97 -20z"/>
<path d="M5114 7418 c56 -70 60 -78 45 -93 -8 -7 -34 -18 -59 -23 l-45 -10 62
-1 c41 -1 67 -6 77 -17 23 -22 39 -7 32 30 -9 43 -51 103 -89 126 -46 29 -53
25 -23 -12z"/>
<path d="M4790 7230 c-52 -39 -70 -57 -70 -72 0 -29 98 30 124 72 31 53 18 53
-54 0z"/>
<path d="M3830 7151 c0 -16 100 -102 136 -117 29 -12 45 -13 97 -3 116 23 119
64 4 53 -70 -6 -74 -5 -150 35 -84 44 -87 45 -87 32z"/>
<path d="M1245 7070 c-12 -19 106 -76 178 -86 50 -7 97 1 97 16 0 21 -65 49
-149 64 -100 19 -118 19 -126 6z"/>
<path d="M3528 7063 c-32 -8 -19 -22 34 -38 54 -16 105 -18 147 -6 33 9 38 29
9 35 -38 8 -172 15 -190 9z"/>
<path d="M4206 7056 c5 -14 72 -68 134 -109 13 -10 35 -17 49 -17 27 0 107 48
137 82 19 21 19 21 -1 14 -108 -43 -174 -45 -217 -7 -56 48 -114 69 -102 37z"/>
<path d="M1790 9369 c-104 -70 -201 -203 -273 -379 -93 -224 -117 -445 -71
-651 15 -66 64 -159 84 -159 14 0 14 -1 -26 83 -46 97 -55 168 -44 332 15 209
73 403 165 550 40 65 123 152 221 232 58 47 19 41 -56 -8z"/>
<path d="M3122 9155 c-31 -22 -68 -80 -151 -232 -72 -132 -128 -263 -113 -263
12 0 56 50 85 97 15 22 49 96 77 163 48 116 72 160 120 223 24 30 16 35 -18
12z"/>
<path d="M5430 6646 c-265 -115 -516 -276 -591 -379 -33 -45 -36 -57 -14 -57
20 0 51 20 150 96 117 89 240 170 415 271 191 111 200 116 200 125 0 13 -9 10
-160 -56z"/>
<path d="M5750 6444 c-313 -57 -745 -245 -869 -379 -68 -74 -51 -107 26 -48
26 20 77 59 112 86 85 64 335 186 488 236 126 42 264 71 339 71 23 0 55 5 70
10 26 10 26 11 9 30 -21 24 -7 24 -175 -6z"/>
<path d="M4708 5784 c-38 -16 -58 -48 -40 -66 7 -7 41 -3 104 12 103 24 140
23 313 -11 202 -40 257 -36 180 11 -85 53 -474 91 -557 54z"/>
<path d="M8382 5189 c18 -63 19 -80 9 -119 -26 -99 -26 -113 5 -92 56 37 44
219 -19 270 -14 12 -13 3 5 -59z"/>
<path d="M8440 4805 c0 -28 132 -155 162 -155 22 0 2 34 -60 99 -64 68 -102
89 -102 56z"/>
<path d="M8140 4541 c0 -17 4 -32 9 -35 11 -7 22 31 14 50 -9 24 -23 15 -23
-15z"/>
<path d="M8113 4303 c-16 -21 -54 -78 -83 -127 -37 -61 -94 -130 -174 -213
-66 -68 -117 -126 -113 -129 21 -22 169 110 274 244 63 80 143 218 143 248 0
24 -17 16 -47 -23z"/>
<path d="M8390 2675 c0 -22 48 -51 62 -37 9 9 7 17 -7 32 -21 23 -55 27 -55 5z"/>
<path d="M6435 5778 c-388 -176 -516 -252 -554 -332 -52 -107 -69 -398 -24
-413 18 -6 24 26 33 157 6 95 13 139 30 178 39 89 148 173 335 254 111 48 264
129 296 155 28 24 37 48 22 56 -5 2 -66 -23 -138 -55z"/>
<path d="M5713 3950 c-22 -47 -70 -127 -107 -179 -36 -52 -64 -96 -62 -99 10
-9 60 35 101 91 63 83 117 198 113 239 -3 31 -6 28 -45 -52z"/>
<path d="M5620 3494 c0 -31 50 -111 99 -157 52 -49 80 -58 101 -32 15 19 -3
45 -30 45 -26 0 -70 39 -110 99 -36 53 -60 71 -60 45z"/>
<path d="M5264 3208 c14 -96 40 -198 49 -198 14 0 0 163 -18 206 -20 49 -39
45 -31 -8z"/>
<path d="M5296 2838 c-3 -18 -8 -60 -12 -93 -13 -124 -92 -341 -167 -457 -19
-31 -58 -82 -86 -112 -55 -60 -64 -86 -30 -86 102 0 222 204 284 485 30 135
45 295 27 295 -6 0 -13 -15 -16 -32z"/>
<path d="M4816 1378 c-80 -137 -104 -242 -67 -290 18 -23 81 -56 81 -42 0 3
-9 22 -20 44 -28 55 -25 101 15 213 19 54 35 102 35 107 0 23 -21 7 -44 -32z"/>
<path d="M5870 311 c0 -14 61 -58 84 -63 29 -5 30 19 2 47 -25 25 -86 36 -86
16z"/>
</g>
</svg>
