<?xml version="1.0" standalone="no"?>
<!DOCTYPE svg PUBLIC "-//W3C//DTD SVG 20010904//EN"
 "http://www.w3.org/TR/2001/REC-SVG-20010904/DTD/svg10.dtd">
<svg version="1.0" xmlns="http://www.w3.org/2000/svg"
 width="1095.000000pt" height="1072.000000pt" viewBox="0 0 1095.000000 1072.000000"
 preserveAspectRatio="xMidYMid meet">

<g transform="translate(0.000000,1072.000000) scale(0.100000,-0.100000)"
fill="#000000" stroke="none">
<path d="M6945 10652 c-299 -90 -617 -468 -660 -782 -9 -68 12 -301 31 -349
24 -61 131 -156 196 -176 87 -25 217 -17 346 22 50 16 53 16 80 -3 36 -27 92
-121 92 -155 0 -39 -71 -138 -151 -213 -39 -36 -139 -111 -222 -168 -83 -57
-179 -129 -212 -160 l-61 -57 -115 61 c-147 78 -226 112 -341 144 -117 33
-202 78 -298 155 -137 111 -200 129 -375 110 -127 -15 -217 -37 -280 -70 -46
-24 -59 -26 -170 -25 -127 1 -231 16 -276 40 -43 22 -89 126 -100 225 -5 45
-19 103 -30 128 -30 69 -105 132 -222 190 -135 66 -214 85 -352 84 -92 0 -122
-4 -188 -26 -122 -42 -210 -107 -278 -204 -59 -84 -63 -107 -63 -353 l-1 -224
-130 -33 c-486 -124 -653 -193 -730 -302 -28 -40 -30 -48 -29 -134 2 -159 34
-212 260 -419 79 -72 144 -136 144 -140 0 -5 -29 -44 -65 -86 -35 -42 -87
-121 -115 -174 -28 -54 -61 -104 -73 -113 -17 -12 -53 -15 -169 -15 l-148 0 0
88 c0 91 -15 163 -45 222 -71 140 -220 211 -395 189 -82 -10 -120 -24 -247
-88 -57 -28 -111 -51 -121 -51 -42 0 -71 58 -82 167 -7 66 -15 95 -35 125 -37
56 -55 112 -55 172 -1 210 -72 346 -215 413 -53 25 -71 28 -160 28 -82 0 -114
-5 -181 -28 -280 -95 -570 -415 -644 -711 -49 -195 -4 -390 114 -489 42 -35
115 -66 177 -76 112 -18 211 4 381 82 l76 36 69 -60 c37 -33 94 -78 125 -100
64 -44 67 -53 43 -134 -25 -81 -30 -239 -11 -314 49 -189 169 -284 361 -284
105 0 142 9 288 70 l109 46 96 -47 c173 -82 381 -118 702 -120 167 -1 192 1
258 22 62 20 81 31 125 77 29 30 77 80 107 112 55 57 94 85 300 218 58 37 129
88 158 113 l53 45 37 -35 c20 -19 74 -70 120 -113 l82 -78 0 -561 0 -561 -252
-84 c-344 -114 -611 -207 -681 -238 -55 -25 -58 -28 -73 -81 -19 -65 -15 -172
8 -217 24 -46 91 -118 164 -175 l65 -52 87 27 c253 77 1388 444 1732 560 107
36 198 65 203 65 15 0 36 -68 58 -185 22 -128 51 -229 79 -286 20 -39 83 -100
127 -122 40 -21 67 -54 97 -117 14 -31 55 -95 91 -144 91 -125 96 -144 102
-428 7 -284 4 -302 -82 -534 -137 -367 -154 -437 -162 -675 -8 -253 4 -366 86
-809 66 -358 77 -515 57 -795 -7 -85 -4 -123 18 -251 14 -84 26 -192 26 -240
0 -107 14 -167 70 -303 23 -57 51 -143 62 -190 38 -162 48 -189 86 -238 77
-97 226 -170 396 -195 81 -11 90 -11 178 14 51 14 114 29 140 32 26 3 79 22
117 42 52 27 88 38 146 45 80 9 106 20 151 66 70 74 68 138 -8 216 -27 29 -58
71 -69 94 -10 24 -44 71 -76 105 -72 77 -128 154 -173 233 -47 85 -147 227
-225 320 -166 198 -168 204 -173 520 -2 138 -1 286 3 330 l6 81 62 23 c34 13
145 57 247 97 102 40 239 93 305 119 571 222 1403 549 1418 556 15 8 17 25 17
127 0 132 -10 179 -42 209 -40 37 -200 133 -240 144 -59 15 -156 -14 -528
-161 -365 -144 -526 -200 -572 -200 l-31 0 7 313 c13 546 32 1167 37 1171 2 2
168 61 369 131 834 290 972 352 1024 458 14 28 26 61 26 74 0 13 5 23 11 23 5
0 45 -26 87 -58 112 -85 196 -140 245 -161 64 -28 71 -52 64 -224 -4 -78 -11
-200 -18 -272 -19 -216 -2 -409 49 -555 11 -30 47 -111 82 -179 119 -238 179
-468 187 -716 5 -146 4 -154 -30 -295 -20 -80 -58 -217 -86 -304 -63 -198 -69
-241 -43 -324 53 -167 141 -205 392 -167 148 23 268 23 345 1 33 -9 141 -57
240 -106 102 -51 218 -100 267 -114 221 -63 536 -84 618 -42 114 59 178 136
165 197 -15 68 -131 148 -310 213 -251 92 -277 109 -467 295 -159 154 -204
194 -317 280 -118 90 -147 131 -172 244 -8 35 -14 336 -19 952 -6 741 -10 919
-24 1005 -20 134 -20 212 0 308 21 103 14 221 -20 337 -32 108 -85 223 -127
276 -32 41 -140 117 -203 143 -81 34 -256 151 -356 239 -138 121 -507 325
-698 386 -60 20 -108 41 -115 52 -22 31 -108 64 -402 153 -413 125 -568 186
-645 251 -58 49 -127 80 -219 99 -89 19 -141 48 -228 129 -146 136 -254 259
-342 387 -61 88 -65 114 -18 129 152 48 345 75 482 67 156 -8 173 1 265 147
39 62 101 155 139 208 37 54 106 173 154 266 78 151 116 213 133 213 3 0 24
-15 46 -34 65 -56 123 -79 213 -84 179 -10 354 72 533 250 316 313 414 771
211 992 -62 68 -125 96 -231 103 -106 8 -192 -15 -341 -88 -123 -61 -170 -71
-213 -46 -53 31 -143 111 -154 138 -13 30 -13 35 15 199 15 88 16 117 6 179
-21 135 -93 234 -211 289 -74 34 -216 40 -305 14z m291 -80 c125 -64 145 -110
152 -348 l4 -170 -76 10 c-74 9 -76 9 -116 -19 -87 -60 -230 -249 -230 -302 0
-26 -21 -72 -53 -115 -16 -22 -21 -44 -21 -100 l-1 -73 -56 -22 c-204 -81
-389 -30 -458 127 -97 223 -4 547 229 794 82 87 163 145 281 201 150 70 232
74 345 17z m179 -657 c50 -51 107 -104 128 -119 23 -17 37 -35 37 -49 0 -12
-43 -87 -95 -167 -52 -80 -98 -153 -101 -162 -7 -22 -47 -24 -64 -3 -19 23 -5
108 28 168 16 29 43 75 61 104 18 28 31 59 29 70 -3 15 -8 14 -34 -14 -42 -46
-93 -133 -119 -205 l-22 -61 -34 49 c-30 43 -34 57 -34 109 0 67 16 101 99
210 42 55 56 85 40 85 -34 0 -134 -131 -168 -220 -21 -54 -43 -80 -67 -80 -24
0 -79 47 -90 78 -15 38 28 115 109 200 73 76 140 115 182 106 14 -3 65 -47
115 -99z m793 -30 c71 -22 151 -101 183 -182 57 -148 12 -373 -119 -597 -57
-97 -228 -274 -315 -325 -134 -79 -294 -110 -393 -77 -205 68 -261 353 -129
653 76 171 256 372 426 475 103 62 243 84 347 53z m-1124 -297 c101 -59 131
-107 82 -129 -33 -15 -85 -4 -127 26 -36 28 -53 17 -24 -15 22 -24 62 -37 140
-45 81 -9 140 -38 155 -76 21 -49 -3 -199 -32 -199 -18 0 -29 57 -24 120 l6
65 -19 -50 c-27 -70 -25 -113 8 -191 38 -90 55 -175 47 -237 -20 -146 -213
-506 -394 -732 -105 -131 -113 -135 -247 -135 -71 0 -142 -7 -200 -20 -168
-37 -268 -52 -301 -45 -28 5 -35 12 -44 43 -14 51 -12 162 3 192 11 21 22 26
74 32 96 10 153 50 153 105 0 29 -21 30 -46 2 -43 -47 -102 -61 -152 -35 -37
20 -71 58 -128 146 -27 41 -81 108 -121 147 -80 81 -105 134 -83 181 10 23 14
24 61 18 67 -9 214 -58 313 -104 96 -46 145 -95 205 -211 48 -92 64 -109 86
-91 25 21 18 63 -15 95 -21 20 -30 38 -30 60 0 65 101 168 287 292 142 94 230
175 293 268 56 83 72 98 105 98 14 0 25 5 25 12 0 8 -35 64 -77 127 -121 177
-146 256 -98 304 29 29 42 27 119 -18z m-3093 7 c178 -53 287 -132 348 -254
18 -34 47 -117 67 -184 19 -67 37 -130 40 -139 5 -16 -2 -18 -53 -18 -89 0
-185 -25 -286 -73 -99 -48 -168 -95 -326 -224 -56 -46 -112 -85 -126 -89 -66
-17 -229 106 -264 200 -52 141 -54 386 -4 540 20 63 126 172 203 209 130 63
262 73 401 32z m1464 -574 c124 -59 247 -176 302 -288 41 -85 24 -98 -81 -63
-72 24 -136 27 -136 5 0 -19 25 -31 82 -38 52 -7 153 -54 179 -83 10 -11 19
-28 21 -39 2 -14 12 -21 35 -23 90 -9 168 -178 208 -447 33 -219 43 -243 181
-451 52 -78 94 -149 94 -158 0 -12 -10 -16 -43 -16 -48 0 -68 15 -84 65 l-10
30 -7 -40 c-4 -22 -9 -48 -12 -58 -7 -21 -59 -49 -138 -72 -83 -23 -228 -82
-419 -169 -89 -41 -182 -80 -207 -87 -31 -8 -109 -12 -252 -10 -198 2 -248 -4
-248 -28 0 -5 60 -8 133 -8 112 1 139 -2 182 -20 27 -11 50 -24 52 -30 2 -5
-41 -56 -94 -114 -54 -57 -130 -140 -169 -183 l-71 -78 -38 69 c-20 37 -57 91
-81 120 -96 113 -302 261 -499 360 -132 67 -195 91 -357 139 -154 45 -208 68
-208 89 0 28 58 191 91 258 17 34 41 73 55 88 29 30 32 59 5 59 -20 0 -74 -54
-109 -111 -12 -20 -40 -85 -62 -144 -50 -132 -71 -173 -125 -251 -67 -94 -152
-165 -364 -306 -108 -72 -212 -143 -231 -158 -19 -15 -46 -33 -60 -40 l-24
-13 18 28 c11 17 14 31 8 37 -12 12 -65 -32 -93 -80 -36 -60 -100 -121 -139
-132 -158 -44 -868 73 -878 145 -1 13 27 54 83 118 105 121 168 214 230 337
26 52 59 107 73 123 24 25 31 27 106 27 104 -1 131 -12 246 -94 96 -69 166
-106 201 -106 32 0 22 13 -39 52 -122 79 -142 129 -102 247 56 168 191 291
404 371 129 48 166 67 166 81 0 11 -56 7 -117 -8 -29 -7 -29 0 1 113 63 232
139 315 388 419 138 58 245 127 363 235 50 45 109 95 133 112 134 93 353 148
591 148 127 0 204 -13 279 -46 67 -29 82 -30 82 -3 0 37 18 55 87 87 84 38
185 60 283 61 63 1 85 -4 135 -28z m-2065 -327 c83 -84 124 -114 155 -114 19
0 20 -24 0 -40 -8 -6 -48 -24 -90 -40 -42 -16 -102 -44 -132 -62 -70 -42 -166
-137 -200 -197 -14 -25 -39 -67 -56 -93 l-29 -48 -29 17 c-15 9 -83 61 -150
115 -118 94 -154 117 -167 104 -11 -11 34 -60 129 -141 232 -196 273 -269 174
-310 -55 -24 -130 10 -260 115 -148 121 -230 230 -246 331 -26 161 42 231 301
313 103 33 480 133 505 135 6 1 49 -38 95 -85z m-2370 -86 c91 -39 150 -122
171 -242 14 -82 6 -131 -25 -151 -16 -11 -67 -18 -172 -24 -166 -9 -188 -16
-252 -81 -65 -66 -142 -245 -142 -327 0 -43 31 -98 87 -155 45 -45 54 -60 45
-71 -22 -26 -111 -68 -188 -87 -219 -56 -370 17 -419 205 -54 208 49 488 255
696 222 224 464 314 640 237z m-66 -478 c20 -20 20 -21 2 -54 -10 -19 -53 -75
-95 -124 -161 -189 -140 -205 36 -28 68 68 138 130 154 136 27 11 34 10 57 -7
15 -11 31 -32 36 -46 11 -30 -3 -52 -109 -182 -36 -44 -79 -103 -96 -131 -28
-49 -38 -94 -21 -94 14 0 57 52 112 135 63 94 126 164 158 176 31 12 88 -15
107 -50 17 -34 11 -45 -72 -136 -72 -77 -118 -149 -108 -165 11 -17 38 12 82
87 21 36 52 76 69 89 37 29 74 32 74 6 0 -38 -199 -301 -256 -339 -23 -15 -28
-15 -57 -1 -18 9 -66 45 -107 81 -138 121 -260 274 -260 326 0 77 89 250 161
315 36 33 46 37 77 32 20 -3 45 -15 56 -26z m215 16 c44 -23 141 -134 141
-161 0 -24 -16 -36 -37 -28 -7 3 -28 27 -48 54 -22 31 -52 57 -80 71 -48 24
-62 43 -44 64 15 18 33 18 68 0z m813 -297 c69 -15 124 -70 164 -165 25 -60
28 -81 28 -164 0 -79 -5 -108 -29 -170 -67 -180 -149 -311 -267 -426 -165
-161 -321 -237 -488 -238 -74 -1 -93 3 -142 27 -173 85 -215 321 -103 580 110
255 360 493 578 552 64 17 188 19 259 4z m4511 -541 c27 -14 20 -27 -23 -44
-63 -25 -48 -47 40 -59 125 -17 341 -93 425 -150 99 -67 540 -243 741 -295 63
-16 128 -37 146 -46 29 -15 30 -18 14 -29 -9 -7 -56 -25 -104 -40 -272 -84
-366 -187 -443 -482 -56 -221 -93 -488 -75 -558 7 -26 10 -27 47 -22 l41 5
-23 -24 c-12 -13 -32 -24 -43 -24 -12 0 -80 42 -151 93 -72 51 -166 118 -210
149 l-80 56 -85 -32 c-176 -67 -190 -81 -190 -194 l0 -66 -62 61 c-77 74 -121
102 -217 137 -199 72 -461 75 -606 7 -187 -88 -317 -279 -340 -504 -17 -161
-76 56 -91 336 -5 93 -2 148 11 231 32 201 13 328 -59 395 -32 30 -33 19 -6
-67 26 -83 26 -105 0 -74 -44 53 -110 317 -110 441 0 90 30 149 133 257 226
239 634 463 966 529 158 32 307 38 354 13z m-2606 -48 c22 -10 108 -74 190
-142 81 -68 211 -176 288 -240 488 -403 581 -483 594 -506 25 -47 131 -382
131 -414 0 -19 -26 -5 -84 45 -568 493 -1335 1170 -1340 1182 -33 87 93 130
221 75z m364 -131 c346 -197 512 -335 597 -495 23 -45 42 -87 42 -93 0 -18
-35 9 -330 254 -293 244 -450 382 -450 396 0 16 15 10 141 -62z m-158 -428
l155 -135 4 -330 c3 -376 5 -383 66 -371 20 4 115 30 211 60 97 29 208 60 247
70 67 16 74 16 107 0 20 -9 72 -55 117 -101 82 -86 121 -147 104 -163 -28 -28
-445 -175 -1179 -415 -313 -103 -632 -208 -709 -233 l-138 -45 -69 68 c-38 37
-76 83 -84 100 -19 41 -21 197 -2 212 6 5 191 69 410 141 468 154 553 186 562
209 16 42 25 268 25 655 0 248 4 417 9 415 5 -1 79 -63 164 -137z m4097 -145
c162 -62 385 -171 481 -235 42 -28 107 -78 144 -112 109 -99 217 -174 346
-240 132 -68 199 -129 252 -226 42 -79 98 -259 104 -339 5 -67 4 -75 -37 -165
-51 -114 -66 -209 -33 -209 25 0 37 -41 53 -185 25 -231 31 -426 36 -1075 3
-377 9 -722 15 -766 19 -157 50 -209 193 -316 101 -77 179 -142 329 -277 192
-171 237 -198 496 -296 85 -32 175 -73 200 -89 49 -34 71 -77 51 -101 -11 -13
-19 -9 -55 24 -29 27 -56 42 -82 45 -45 7 -189 41 -218 52 -20 7 -20 7 -1 -14
21 -25 77 -46 158 -62 80 -16 103 -37 103 -94 0 -31 -5 -50 -15 -56 -43 -27
-477 13 -618 57 -29 9 -67 30 -84 45 -17 15 -42 28 -55 28 -13 0 -102 40 -199
90 -97 49 -195 92 -218 95 -24 3 -86 -2 -150 -15 -184 -34 -362 -22 -420 28
-66 59 -60 216 14 391 83 194 105 314 104 566 0 145 -4 208 -18 265 -33 143
-33 140 3 140 37 0 49 20 32 57 -7 14 -58 94 -113 177 -170 253 -211 392 -211
706 1 175 5 218 49 523 l7 47 76 0 c116 0 114 12 -6 49 -152 46 -228 86 -397
206 -227 161 -269 176 -586 215 -230 28 -350 59 -497 130 -144 69 -135 47
-103 253 53 340 140 566 250 646 85 62 214 91 380 87 110 -3 121 -5 240 -50z
m-3789 -137 c51 -27 349 -299 349 -318 0 -15 -54 -38 -232 -97 -119 -39 -150
-46 -160 -36 -9 9 -14 69 -16 217 -4 239 2 265 59 234z m1758 -705 c86 -19
153 -58 209 -120 134 -147 205 -372 233 -736 18 -240 3 -418 -36 -418 -6 0
-20 7 -31 15 -41 31 -44 22 -44 -116 0 -147 -16 -212 -89 -357 -46 -92 -85
-203 -100 -289 -18 -98 -55 -194 -141 -367 -132 -266 -200 -505 -199 -691 l1
-100 28 134 c34 159 84 312 154 476 60 140 103 218 118 213 29 -10 41 -84 42
-258 1 -223 -11 -291 -70 -396 -88 -156 -103 -194 -114 -289 -15 -135 -12
-600 4 -726 30 -218 53 -275 189 -463 57 -77 152 -210 213 -295 60 -85 163
-222 230 -305 167 -209 178 -234 126 -286 -38 -38 -100 -54 -152 -40 -21 6
-42 15 -45 20 -14 23 -45 7 -89 -45 -51 -59 -85 -74 -166 -75 -25 -1 -63 -7
-85 -15 -54 -20 -98 -19 -186 4 -152 39 -295 112 -330 167 -12 20 -22 64 -28
120 -10 93 -29 154 -80 267 -46 98 -60 172 -71 373 -11 205 -20 263 -51 328
l-23 46 22 108 c39 191 28 365 -48 753 -67 339 -83 490 -77 729 4 155 10 226
25 290 22 93 86 296 102 320 10 17 15 7 74 -160 40 -114 75 -184 91 -181 14 3
8 41 -25 159 -44 156 -55 253 -41 359 7 48 15 239 18 423 l6 336 -75 104
c-190 268 -254 423 -246 590 4 70 10 96 35 145 56 108 155 202 253 239 96 36
331 41 469 10z m793 -75 c176 -133 232 -162 307 -156 31 3 75 11 99 18 39 12
52 11 130 -10 154 -42 293 -70 477 -96 99 -14 196 -34 215 -43 32 -16 35 -21
38 -69 3 -45 -1 -55 -26 -85 -60 -68 -251 -151 -752 -326 -515 -181 -727 -247
-745 -232 -12 10 -15 35 -15 114 0 55 4 106 8 113 4 7 228 84 497 172 614 200
707 233 713 250 4 11 -4 12 -34 7 -59 -11 -281 -76 -564 -166 -400 -127 -611
-190 -620 -185 -21 13 -66 362 -76 600 l-7 150 64 22 c35 12 85 22 111 22 45
1 54 -4 180 -100z m-179 -1134 c5 -16 13 -331 17 -700 9 -706 13 -815 37 -815
16 0 272 96 638 240 326 128 442 170 467 170 32 0 139 -61 185 -106 l43 -41 0
-94 c0 -61 -4 -101 -12 -111 -13 -15 -176 -81 -1108 -445 -245 -96 -530 -207
-634 -248 -141 -56 -192 -72 -198 -62 -15 23 -8 117 12 178 12 34 54 127 94
208 l74 147 5 434 c5 505 4 495 101 723 36 84 70 175 77 202 29 120 43 163 74
225 41 81 82 132 103 128 9 -2 20 -16 25 -33z"/>
<path d="M7063 10500 c-97 -34 -170 -81 -261 -166 -222 -207 -336 -416 -364
-670 -10 -81 -9 -108 1 -131 20 -44 29 -13 40 138 14 200 65 325 196 489 108
135 214 225 338 288 58 29 84 36 130 36 59 1 65 4 45 24 -17 17 -64 14 -125
-8z"/>
<path d="M8064 9819 c-140 -44 -333 -205 -440 -365 -103 -154 -151 -296 -159
-464 l-4 -95 13 80 c42 249 134 439 295 608 99 104 197 167 322 208 54 18 99
36 99 41 0 14 -62 8 -126 -13z"/>
<path d="M6977 8568 c-30 -51 -94 -138 -141 -192 -92 -107 -109 -140 -55 -109
65 37 185 203 243 336 39 87 14 68 -47 -35z"/>
<path d="M6691 8112 c-44 -22 -62 -49 -41 -62 8 -5 18 -10 21 -10 13 0 103 65
107 78 6 18 -47 15 -87 -6z"/>
<path d="M3986 9407 c-39 -41 -244 -372 -265 -429 -16 -42 3 -35 58 20 47 47
88 121 146 266 19 46 46 88 83 127 39 43 49 59 36 59 -9 0 -36 -19 -58 -43z"/>
<path d="M4940 8739 c0 -6 -7 -26 -16 -44 -17 -37 -45 -50 -117 -59 -118 -14
-229 -84 -382 -240 -66 -67 -141 -134 -167 -149 -63 -36 -148 -57 -235 -57
-77 0 -98 -10 -57 -28 52 -24 126 -25 191 -3 111 37 153 67 403 287 93 82 142
107 249 128 132 27 151 42 151 122 0 30 -4 54 -10 54 -5 0 -10 -5 -10 -11z"/>
<path d="M5098 8735 c-30 -32 38 -55 161 -55 98 0 131 5 131 20 0 21 -274 54
-292 35z"/>
<path d="M5106 8549 c6 -50 4 -58 -21 -87 -15 -18 -81 -69 -145 -113 -136 -92
-180 -136 -180 -180 0 -43 19 -33 52 27 38 69 62 86 169 120 113 35 151 67
169 142 10 43 9 56 -5 86 -9 19 -23 40 -31 47 -12 10 -14 4 -8 -42z"/>
<path d="M5260 8545 c29 -31 103 -59 210 -79 92 -18 156 -20 164 -7 9 13 -50
31 -103 31 -62 0 -159 24 -223 55 -65 32 -78 32 -48 0z"/>
<path d="M5365 8343 c20 -53 45 -173 45 -222 0 -92 -44 -140 -143 -157 -60
-11 -134 -45 -166 -78 -24 -25 -34 -46 -41 -92 -8 -51 -15 -64 -51 -95 -28
-24 -40 -42 -37 -55 10 -45 148 149 148 208 0 26 35 44 128 67 127 31 166 52
208 111 30 42 41 50 58 45 82 -23 244 -32 311 -15 l30 7 -50 23 c-42 20 -64
24 -140 22 -49 -1 -104 3 -121 8 -38 13 -76 54 -94 100 -16 40 -77 140 -86
140 -3 0 -3 -8 1 -17z"/>
<path d="M5771 8335 c11 -27 75 -125 81 -125 16 0 7 28 -20 66 -29 39 -69 78
-61 59z"/>
<path d="M3672 8171 c-112 -33 -296 -138 -310 -178 -7 -23 26 -14 115 32 129
67 202 93 284 105 79 11 117 33 89 50 -23 15 -109 10 -178 -9z"/>
<path d="M4406 8079 c-25 -14 -52 -19 -79 -17 -33 2 -42 -1 -45 -14 -5 -27 39
-40 96 -27 49 10 122 52 122 69 0 17 -53 10 -94 -11z"/>
<path d="M4749 8083 c-11 -12 -13 -53 -12 -177 3 -186 -5 -224 -53 -268 -43
-39 -31 -57 21 -32 41 19 83 75 94 126 5 20 0 76 -11 143 -12 70 -17 131 -13
168 6 58 -1 70 -26 40z"/>
<path d="M5520 7998 c0 -3 14 -37 31 -75 17 -37 35 -90 40 -117 16 -85 55
-108 47 -28 -6 60 -51 162 -89 198 -16 15 -29 25 -29 22z"/>
<path d="M5914 7985 c-10 -24 12 -176 27 -189 16 -15 7 180 -9 196 -9 9 -13 7
-18 -7z"/>
<path d="M3950 7955 c0 -22 41 -44 106 -56 32 -6 69 -13 82 -15 47 -9 41 -58
-14 -122 -37 -44 -99 -82 -132 -82 -11 0 -25 -7 -33 -16 -19 -23 4 -33 65 -27
67 7 91 -17 105 -103 10 -68 36 -124 76 -173 49 -58 60 -34 19 42 -45 86 -87
307 -62 332 13 13 101 25 135 19 43 -8 42 2 -1 20 -43 18 -68 56 -70 104 l-1
37 62 0 c34 0 67 5 74 12 20 19 -46 26 -161 15 -109 -10 -192 -4 -212 16 -17
17 -38 15 -38 -3z"/>
<path d="M4412 7895 c1 -10 15 -27 29 -37 32 -24 120 -26 173 -4 40 17 50 42
14 33 -94 -23 -129 -20 -211 21 -5 2 -7 -4 -5 -13z"/>
<path d="M5752 7730 c-39 -9 -46 -15 -37 -29 4 -7 47 -11 108 -11 61 -1 118
-7 142 -15 21 -8 40 -13 42 -11 2 1 -10 15 -26 30 -43 42 -141 57 -229 36z"/>
<path d="M3331 7692 c-5 -10 -19 -54 -30 -99 -38 -152 -117 -277 -217 -340
-24 -16 -44 -31 -44 -35 0 -13 83 -8 108 5 50 28 114 103 148 173 59 122 92
314 54 314 -5 0 -14 -8 -19 -18z"/>
<path d="M5579 7654 c-13 -14 -44 -38 -69 -52 -69 -40 -110 -73 -110 -89 0
-12 3 -12 22 1 12 9 32 16 43 16 77 0 155 55 155 109 0 41 -13 45 -41 15z"/>
<path d="M5700 7641 c0 -4 14 -25 30 -46 17 -21 35 -55 41 -76 14 -44 59 -95
59 -65 0 23 -63 146 -89 174 -22 22 -41 29 -41 13z"/>
<path d="M6030 7609 c0 -6 11 -25 25 -43 13 -18 36 -57 49 -87 23 -50 25 -52
25 -23 1 42 -25 113 -51 141 -23 24 -48 31 -48 12z"/>
<path d="M4730 7531 c0 -11 42 -55 72 -75 46 -30 83 -35 139 -21 78 21 79 31
2 38 -47 5 -86 16 -127 37 -59 30 -86 37 -86 21z"/>
<path d="M5070 7461 c0 -20 46 -65 84 -82 72 -33 156 -21 221 31 42 33 36 38
-19 15 -19 -8 -57 -20 -84 -26 -57 -12 -89 -2 -139 41 -33 29 -63 39 -63 21z"/>
<path d="M4450 7446 c0 -7 10 -16 23 -20 35 -9 141 -7 157 4 28 18 -10 30 -97
30 -64 0 -83 -3 -83 -14z"/>
<path d="M5930 7400 c0 -5 25 -10 55 -10 30 0 55 5 55 10 0 6 -25 10 -55 10
-30 0 -55 -4 -55 -10z"/>
<path d="M5790 7343 c-19 -17 -50 -38 -67 -47 -33 -16 -45 -46 -20 -46 16 0
84 48 111 78 32 36 13 48 -24 15z"/>
<path d="M5423 7315 c7 -42 54 -126 75 -133 21 -7 13 34 -20 99 -40 75 -64 91
-55 34z"/>
<path d="M2230 7011 c0 -35 151 -81 263 -81 53 0 71 5 110 30 26 16 47 36 47
45 0 19 -5 19 -77 0 -89 -23 -228 -19 -325 11 -10 3 -18 0 -18 -5z"/>
<path d="M2754 6749 c-60 -11 -124 -41 -100 -46 32 -8 104 7 128 27 30 24 23
28 -28 19z"/>
<path d="M826 8504 c-94 -23 -168 -69 -281 -176 -172 -163 -263 -299 -320
-478 -28 -90 -42 -216 -27 -239 19 -26 32 0 32 63 0 220 182 538 395 691 33
23 84 55 113 69 61 31 189 66 239 66 20 0 32 4 28 10 -9 14 -109 11 -179 -6z"/>
<path d="M1865 7793 c-164 -37 -322 -144 -455 -310 -156 -194 -240 -382 -240
-538 1 -74 13 -56 28 40 34 210 148 414 325 581 122 115 245 182 378 207 32 6
59 14 59 19 0 8 -60 9 -95 1z"/>
<path d="M6069 7144 c-85 -61 -197 -115 -330 -159 -63 -21 -134 -53 -167 -76
-118 -78 -324 -318 -383 -444 -31 -66 -47 -135 -32 -135 17 0 39 31 93 130 78
143 156 241 278 353 77 70 133 99 242 127 159 41 275 103 353 189 68 75 41 83
-54 15z"/>
<path d="M6585 6996 c-283 -95 -527 -186 -633 -237 -79 -38 -117 -64 -169
-115 -46 -45 -63 -68 -56 -75 13 -13 41 1 144 67 107 69 240 129 564 251 231
87 345 137 345 152 0 19 -31 12 -195 -43z"/>
<path d="M6810 6900 c-30 -20 -143 -50 -262 -70 -143 -24 -194 -45 -321 -134
-89 -62 -208 -126 -234 -126 -6 0 -15 -5 -19 -12 -5 -8 13 -10 68 -5 86 6 157
37 250 110 75 59 153 89 328 126 187 40 214 48 241 70 41 33 -5 71 -51 41z"/>
<path d="M6977 6750 c-58 -69 -111 -223 -122 -357 -4 -43 -2 -89 3 -103 l9
-24 12 22 c6 12 17 59 22 105 16 121 35 197 68 269 42 90 52 118 42 118 -5 0
-20 -13 -34 -30z"/>
<path d="M6023 6300 c-27 -11 -49 -48 -35 -62 5 -5 39 -13 75 -18 40 -5 85
-19 117 -36 65 -35 155 -132 211 -227 67 -113 89 -132 89 -78 0 60 -123 248
-215 329 -79 70 -193 113 -242 92z"/>
<path d="M8920 5970 c0 -16 15 -76 34 -132 35 -103 54 -215 59 -338 2 -52 5
-65 19 -68 24 -5 32 49 25 167 -8 135 -32 244 -73 329 -37 76 -64 94 -64 42z"/>
<path d="M8324 5636 c-11 -29 3 -41 94 -90 51 -27 121 -76 162 -112 75 -68
120 -95 209 -125 89 -31 201 -22 201 16 0 15 -27 21 -126 28 -76 6 -118 27
-247 126 -104 79 -223 154 -265 166 -15 4 -24 2 -28 -9z"/>
<path d="M9168 2675 c-3 -6 -14 -48 -23 -94 -28 -136 -9 -196 60 -189 54 5 43
57 -12 58 -31 0 -36 28 -23 113 12 72 11 131 -2 112z"/>
<path d="M6208 4944 c-33 -17 -248 -253 -248 -271 0 -17 44 -16 78 1 67 35
212 215 212 263 0 27 -5 28 -42 7z"/>
<path d="M6345 4920 c-4 -6 11 -39 34 -73 39 -60 66 -117 107 -222 29 -74 49
-67 48 16 0 57 -6 75 -43 145 -62 115 -123 171 -146 134z"/>
<path d="M6046 4071 c-9 -14 32 -59 77 -85 62 -36 107 -42 137 -17 36 29 17
54 -48 63 -27 4 -73 17 -101 28 -59 23 -58 23 -65 11z"/>
<path d="M5959 1598 c-101 -140 -197 -304 -184 -316 15 -14 104 105 172 228
67 121 74 173 12 88z"/>
<path d="M6486 478 c19 -61 90 -138 114 -123 22 14 7 50 -39 96 -52 53 -87 65
-75 27z"/>
<path d="M6060 469 l-25 -10 22 -19 c40 -32 194 -37 306 -9 44 12 48 24 8 32
-62 13 -286 17 -311 6z"/>
</g>
</svg>
