<?xml version="1.0" standalone="no"?>
<!DOCTYPE svg PUBLIC "-//W3C//DTD SVG 20010904//EN"
 "http://www.w3.org/TR/2001/REC-SVG-20010904/DTD/svg10.dtd">
<svg version="1.0" xmlns="http://www.w3.org/2000/svg"
 width="1085.000000pt" height="921.000000pt" viewBox="0 0 1085.000000 921.000000"
 preserveAspectRatio="xMidYMid meet">

<g transform="translate(0.000000,921.000000) scale(0.100000,-0.100000)"
fill="#000000" stroke="none">
<path d="M7511 9090 c-59 -13 -105 -45 -141 -99 -27 -40 -30 -52 -30 -128 0
-64 -6 -101 -26 -159 -26 -75 -27 -78 -10 -129 11 -37 34 -72 76 -118 33 -36
60 -69 60 -75 0 -15 -85 -206 -113 -254 -35 -61 -100 -118 -262 -233 -77 -54
-161 -118 -186 -142 -25 -24 -55 -43 -66 -43 -11 0 -67 23 -124 51 -113 56
-271 113 -340 123 -141 22 -174 35 -319 135 -73 50 -123 76 -187 97 -80 26
-101 29 -228 29 -132 0 -143 -2 -199 -27 -32 -16 -74 -28 -92 -28 -41 0 -139
48 -172 83 -13 14 -48 84 -77 155 -63 157 -78 179 -151 227 -125 83 -287 128
-464 129 -202 1 -300 -41 -444 -190 -52 -54 -95 -90 -125 -103 -25 -10 -138
-38 -251 -61 -113 -23 -228 -51 -256 -61 -91 -34 -184 -148 -184 -226 0 -77
54 -160 278 -430 60 -72 117 -148 126 -167 17 -35 16 -40 -3 -118 -12 -45 -21
-101 -21 -125 0 -78 -18 -104 -109 -153 -118 -63 -150 -99 -224 -247 l-64
-127 -159 -1 c-141 -1 -174 -5 -296 -33 -76 -18 -149 -32 -163 -32 -31 0 -186
77 -278 137 -69 46 -97 82 -97 128 0 38 -24 88 -63 131 -38 43 -67 94 -67 119
0 47 -72 144 -139 187 -43 27 -49 28 -175 28 -162 0 -199 -13 -236 -84 -21
-38 -37 -52 -95 -82 -108 -57 -182 -113 -282 -217 -176 -182 -243 -322 -243
-505 1 -85 4 -105 30 -162 27 -60 28 -66 14 -98 -26 -62 -85 -152 -288 -436
-111 -155 -247 -344 -302 -421 -237 -332 -314 -445 -314 -462 0 -50 94 45 251
252 84 111 534 734 699 967 l33 47 26 -20 c114 -88 165 -104 326 -104 153 1
217 15 352 81 94 45 164 97 291 216 l72 68 110 -82 c211 -160 484 -315 613
-348 110 -28 319 -44 467 -36 155 8 210 18 280 54 45 22 60 37 83 78 30 56 99
117 252 221 125 86 226 173 278 240 61 78 87 104 97 98 35 -22 73 -300 125
-905 39 -465 85 -1073 85 -1129 l0 -38 -242 -113 c-469 -220 -720 -339 -725
-344 -3 -2 -2 -95 2 -206 l8 -201 110 -96 c60 -52 116 -97 122 -100 7 -2 181
83 386 189 572 297 618 320 632 311 6 -4 154 -118 327 -253 173 -135 497 -388
719 -561 223 -173 417 -325 433 -339 l28 -25 -15 -90 c-12 -65 -18 -212 -24
-535 l-8 -445 -28 -70 c-15 -38 -67 -149 -116 -245 -128 -255 -150 -322 -129
-398 20 -75 78 -130 229 -217 121 -70 211 -145 336 -281 230 -250 262 -278
350 -311 150 -58 453 -112 564 -101 25 3 63 13 83 22 51 24 162 128 182 170
32 67 12 159 -46 213 -12 12 -68 51 -122 87 -170 111 -280 219 -380 371 -57
86 -166 280 -166 294 0 4 168 102 373 216 204 115 485 272 622 350 138 78 329
186 425 240 96 54 285 161 420 238 l245 139 39 -44 c114 -126 186 -196 221
-213 34 -17 61 -20 180 -20 158 0 201 14 220 70 6 17 22 42 36 57 19 20 31 51
43 111 16 75 16 87 3 119 -24 58 -137 168 -225 220 -116 69 -212 162 -250 242
-17 36 -56 105 -87 152 -75 120 -82 168 -32 236 12 16 82 80 157 143 215 180
253 226 369 443 93 174 136 238 189 286 179 159 186 175 180 361 -4 113 -6
125 -34 175 -23 41 -53 71 -115 118 -102 77 -191 156 -369 328 -158 151 -228
202 -434 309 -196 102 -249 136 -322 209 -33 34 -87 75 -120 93 -156 82 -647
226 -929 273 -172 28 -226 44 -255 76 -37 38 -74 55 -162 70 -106 18 -130 33
-174 106 -51 84 -89 125 -219 233 -171 143 -329 312 -355 380 -12 30 -11 31
80 40 36 3 106 15 155 27 56 12 150 23 246 27 172 8 195 15 224 72 9 17 48 78
87 137 78 117 165 292 251 502 82 201 155 359 190 414 l31 48 85 -8 c47 -5
169 -9 271 -9 211 1 264 12 319 69 40 41 64 116 55 171 -3 22 -19 64 -35 92
-16 29 -29 55 -29 59 0 3 28 3 63 -1 144 -15 910 -106 1227 -145 385 -48 871
-100 938 -100 79 0 88 12 23 30 -75 20 -713 107 -1316 180 -624 74 -757 90
-860 101 l-110 12 -96 93 c-157 151 -280 219 -501 279 -104 29 -327 42 -407
25z m364 -69 c291 -70 472 -188 609 -396 88 -133 108 -215 65 -269 -29 -37
-68 -55 -156 -72 -76 -14 -304 -19 -362 -8 -37 8 -136 93 -144 124 -8 32 11
34 53 5 60 -41 123 -57 245 -58 190 -3 245 27 245 133 0 77 -43 162 -128 251
-146 155 -350 231 -662 245 -126 6 -138 5 -188 -16 -64 -28 -76 -22 -25 12 59
39 101 59 146 68 59 13 208 3 302 -19z m-277 -96 c2 -12 -10 -35 -29 -55 -34
-38 -59 -88 -59 -119 0 -30 -37 -37 -69 -14 -55 41 -32 134 48 189 45 31 104
30 109 -1z m332 -41 c52 -13 141 -47 198 -74 117 -58 157 -99 218 -226 43 -90
44 -136 1 -168 -35 -26 -170 -34 -277 -16 l-70 12 0 101 c0 56 -5 119 -11 140
-13 50 -66 100 -171 164 -92 56 -114 76 -103 94 10 15 93 5 215 -27z m-230
-29 c15 -18 7 -38 -40 -101 -26 -34 -32 -54 -40 -125 -9 -89 -17 -119 -31
-119 -12 0 -17 29 -23 130 -5 103 9 152 58 198 40 36 57 40 76 17z m140 -94
c0 -5 -15 -28 -34 -50 -40 -48 -52 -82 -60 -170 -7 -71 -16 -83 -61 -79 -28 3
-30 6 -33 51 -3 53 21 159 44 195 8 13 29 32 47 42 33 20 97 27 97 11z m-390
-84 c71 -35 105 -76 82 -99 -21 -21 -99 -14 -133 11 -35 26 -46 22 -29 -9 7
-12 50 -39 104 -64 102 -47 136 -81 136 -132 0 -18 3 -39 6 -48 10 -26 24 -18
24 13 0 40 24 61 69 61 47 0 122 -38 140 -71 29 -53 -16 -109 -89 -109 -34 0
-36 -2 -15 -34 18 -27 14 -42 -58 -201 -25 -55 -77 -174 -117 -264 -81 -185
-154 -321 -246 -463 -90 -136 -95 -139 -207 -132 -79 5 -114 2 -243 -25 -148
-30 -228 -38 -250 -23 -24 16 -34 54 -34 131 0 99 9 111 86 111 86 0 124 27
124 86 0 29 -25 32 -40 4 -17 -33 -154 -64 -186 -42 -6 4 -19 23 -29 42 -47
92 -176 234 -295 325 -36 28 -66 58 -68 68 -11 54 348 -18 489 -98 76 -44 111
-80 158 -166 39 -70 51 -84 71 -84 37 0 37 34 0 79 -17 22 -30 51 -30 66 0 56
70 126 245 249 108 75 202 171 254 260 25 41 62 92 83 113 33 32 38 43 38 83
0 63 -20 106 -79 168 -62 65 -84 114 -75 165 7 41 20 62 38 62 6 -1 40 -15 76
-33z m484 0 c44 -57 60 -187 24 -187 -6 0 -21 9 -33 20 l-21 20 -31 -44 c-38
-54 -68 -64 -90 -30 -33 51 3 186 63 233 37 29 59 26 88 -12z m-3288 -57 c167
-42 309 -141 357 -247 23 -52 53 -220 41 -232 -2 -3 -57 -15 -121 -28 -257
-52 -436 -135 -662 -306 l-94 -72 -63 69 c-135 145 -172 309 -113 502 36 118
134 236 235 283 113 53 282 66 420 31z m-762 -342 c12 -16 16 -47 16 -113 0
-165 39 -283 128 -394 29 -35 52 -70 52 -76 0 -14 -162 -65 -205 -65 -35 0
-81 44 -254 243 -102 117 -145 156 -158 143 -13 -13 28 -72 138 -202 133 -155
171 -209 167 -232 -4 -21 -94 -83 -111 -76 -7 3 -62 65 -124 137 -234 277
-257 311 -256 392 1 89 47 146 150 185 83 31 309 78 380 79 53 1 64 -2 77 -21z
m1861 -188 c39 -6 86 -15 107 -20 78 -21 228 -160 244 -227 9 -33 -6 -46 -39
-34 -46 18 -31 -7 26 -43 28 -18 79 -47 113 -65 137 -72 243 -190 293 -324 12
-32 28 -104 36 -160 32 -211 78 -326 185 -457 71 -86 84 -107 71 -114 -5 -3
-58 -15 -117 -26 -155 -30 -263 -64 -389 -124 -273 -130 -511 -320 -675 -539
-36 -48 -69 -87 -73 -87 -5 0 -61 42 -125 93 -334 267 -442 334 -637 397 -216
70 -306 119 -390 212 -69 77 -80 102 -80 188 0 94 17 141 68 197 31 34 38 46
28 56 -19 19 -62 -12 -98 -72 -18 -30 -49 -104 -69 -165 -20 -61 -47 -131 -59
-156 -59 -116 -154 -211 -330 -327 -55 -37 -142 -97 -192 -135 -51 -37 -93
-66 -93 -63 0 3 7 17 16 31 9 13 13 28 9 32 -12 12 -84 -77 -97 -120 -15 -49
-29 -57 -133 -69 -104 -11 -414 4 -500 26 -127 31 -501 239 -604 335 -33 30
-34 33 -17 46 17 12 15 14 -19 28 -21 9 -40 16 -44 16 -4 0 -16 7 -28 15 l-22
16 25 46 c13 26 36 85 51 131 14 46 32 86 40 89 8 3 24 -4 36 -15 70 -64 248
-142 324 -142 26 0 95 14 153 31 123 36 261 48 338 30 27 -7 81 -33 118 -57
83 -54 191 -107 206 -102 6 2 -5 16 -25 31 -20 15 -53 39 -73 53 -44 32 -66
81 -58 126 11 60 82 195 133 249 63 69 133 111 249 148 51 17 102 36 114 42
34 18 -1 32 -54 20 -24 -6 -47 -6 -52 -1 -11 11 8 125 35 212 13 40 35 83 55
107 50 58 167 126 283 166 108 36 183 77 296 161 175 129 333 213 490 259 113
33 268 43 415 26 103 -13 254 -53 265 -71 8 -13 45 -13 45 0 0 5 -12 17 -27
27 -30 18 -53 42 -53 55 0 25 178 36 305 18z m-4054 -800 c31 -17 22 -52 -27
-116 -52 -66 -97 -155 -92 -181 2 -11 24 15 62 71 81 121 156 173 211 148 61
-28 51 -63 -51 -184 -143 -171 -150 -225 -10 -76 139 148 186 175 220 126 26
-37 19 -54 -52 -132 -70 -77 -107 -138 -118 -196 -11 -54 15 -32 60 50 75 135
147 188 219 161 46 -18 37 -57 -34 -137 -70 -80 -94 -122 -102 -182 -11 -91
-41 -93 -168 -11 -52 34 -109 68 -127 75 -21 9 -43 32 -60 61 -15 25 -50 73
-78 107 -64 78 -74 96 -74 138 0 79 81 250 130 275 31 15 65 16 91 3z m226
-19 c59 -43 104 -111 73 -111 -24 0 -70 32 -109 76 -22 26 -41 51 -41 55 0 18
38 8 77 -20z m-490 -197 c-8 -47 -43 -92 -125 -157 -120 -96 -212 -219 -251
-335 -26 -77 -26 -107 0 -184 32 -96 99 -181 174 -221 34 -19 56 -22 150 -22
187 0 305 54 468 213 97 95 162 183 186 254 58 168 119 201 107 59 -10 -114
-80 -238 -209 -369 -228 -232 -546 -315 -769 -201 -57 29 -147 122 -183 189
-25 46 -30 69 -33 145 -4 82 -1 97 27 170 66 172 213 347 393 468 57 38 72 36
65 -9z m77 -225 c42 -45 83 -94 91 -109 9 -17 48 -48 102 -80 108 -64 212
-141 213 -156 0 -15 -134 -142 -191 -181 -161 -111 -367 -155 -476 -102 -87
42 -153 154 -153 260 0 92 50 203 129 291 55 60 176 157 197 158 7 0 46 -37
88 -81z m5437 -327 c24 -10 59 -35 77 -54 l33 -35 -103 -6 c-100 -7 -249 -36
-289 -57 -51 -28 -17 -32 194 -26 243 8 238 9 304 -73 52 -63 54 -91 6 -103
-32 -8 -44 -30 -23 -43 5 -3 56 10 113 29 56 20 112 36 123 36 11 0 40 -21 64
-46 25 -26 60 -53 79 -61 18 -8 110 -28 205 -44 426 -75 996 -249 996 -305 0
-17 -3 -18 -92 -32 -128 -19 -284 -116 -329 -203 -20 -41 -39 -51 -39 -21 0
96 -92 192 -213 223 -43 10 -55 9 -125 -16 -42 -15 -141 -56 -220 -91 -79 -36
-156 -67 -172 -71 -25 -5 -30 -2 -36 22 -12 49 5 146 36 207 35 67 37 78 10
78 -30 0 -67 -74 -101 -206 -16 -65 -38 -132 -47 -149 -13 -21 -53 -48 -141
-95 -68 -36 -144 -83 -169 -104 -85 -75 -112 -180 -112 -438 0 -71 -3 -128 -7
-128 -5 0 -73 -7 -153 -15 -220 -21 -346 -68 -455 -167 -74 -68 -145 -170
-185 -265 -27 -65 -31 -86 -28 -140 2 -35 1 -60 -4 -55 -15 15 -127 251 -182
384 -85 205 -95 253 -102 502 -6 245 -14 297 -54 360 -56 87 -67 49 -20 -67
32 -82 36 -97 20 -97 -6 0 -30 39 -53 88 -40 83 -42 91 -42 182 0 91 2 99 41
180 54 113 153 277 225 371 84 111 156 170 291 240 117 60 139 79 96 79 -80
-1 -252 -113 -398 -260 -157 -159 -257 -308 -305 -460 -10 -30 -21 -58 -24
-63 -4 -4 -13 16 -19 45 -7 29 -27 81 -44 115 -30 59 -31 65 -19 100 33 95
154 236 343 398 189 162 375 275 554 334 127 43 181 50 325 47 99 -3 135 -8
170 -24z m-2497 -117 c76 -47 139 -108 280 -275 l132 -155 12 -145 c48 -590
97 -1108 105 -1117 5 -4 188 76 399 175 266 125 302 136 334 100 32 -35 51
-93 70 -218 26 -171 27 -169 -26 -204 -25 -17 -160 -90 -300 -161 -154 -79
-255 -137 -255 -145 0 -23 169 -158 600 -483 539 -405 685 -519 685 -535 0 -8
-15 -41 -34 -75 -18 -34 -57 -107 -86 -162 -69 -132 -67 -129 -99 -109 -38 25
-407 308 -696 533 -361 282 -787 601 -803 601 -23 0 -154 -62 -586 -277 -224
-111 -413 -203 -418 -203 -16 0 -176 138 -190 163 -8 15 -11 69 -10 172 2 122
5 152 18 162 8 6 158 78 332 158 410 191 545 260 582 297 28 28 30 34 30 112
0 156 -90 1331 -125 1626 -17 141 -19 203 -7 198 4 -1 30 -16 56 -33z m375
-136 c56 -27 134 -76 173 -108 142 -113 501 -501 548 -590 7 -13 20 -51 30
-85 9 -34 43 -128 74 -209 32 -81 56 -153 54 -158 -4 -11 -156 159 -508 566
-409 473 -520 606 -520 624 0 23 51 10 149 -40z m515 -310 c85 -71 146 -146
146 -181 0 -32 -18 -20 -94 60 -185 194 -211 254 -52 121z m-297 -191 c208
-232 573 -663 573 -678 0 -13 -553 -300 -578 -300 -12 0 -27 132 -57 505 -14
171 -32 370 -40 443 -16 144 -17 152 -12 152 2 0 53 -55 114 -122z m3760 -149
c218 -70 388 -148 509 -235 34 -24 144 -123 245 -220 169 -162 261 -242 383
-332 30 -22 55 -53 72 -89 25 -50 26 -61 21 -139 -8 -106 -31 -159 -105 -238
-67 -72 -129 -164 -209 -308 -145 -265 -154 -277 -368 -463 -225 -196 -298
-287 -307 -385 -3 -34 -2 -35 29 -32 56 5 141 -90 223 -248 49 -94 171 -211
285 -275 112 -62 141 -87 155 -131 15 -43 5 -144 -14 -144 -7 0 -49 18 -93 39
-103 50 -150 63 -174 50 -29 -15 -23 -26 18 -34 47 -9 140 -56 176 -88 48 -46
30 -87 -46 -108 -83 -22 -214 11 -297 76 -78 62 -228 217 -247 254 -13 26 -18
68 -21 154 -2 64 -5 117 -6 117 0 0 -100 36 -220 79 -209 76 -235 90 -236 119
0 21 36 83 79 137 22 27 38 51 35 54 -9 10 -90 -56 -118 -97 -26 -36 -31 -55
-36 -124 -4 -73 -8 -83 -32 -101 -17 -13 -44 -20 -72 -21 -82 -2 -136 63 -136
165 0 70 9 82 144 193 112 92 197 180 256 266 21 30 47 62 57 71 15 12 23 43
36 141 50 374 163 595 361 705 44 24 61 28 124 27 39 -1 72 0 72 2 0 1 -19 16
-42 33 -61 45 -116 58 -311 76 -325 30 -498 65 -633 129 l-94 45 0 176 0 175
58 -29 c137 -69 492 -171 492 -141 0 10 -54 32 -202 80 -140 46 -288 120 -323
162 -28 33 -30 53 -14 130 28 136 133 258 279 327 83 39 124 39 247 0z m-701
-5 c42 -20 59 -50 73 -129 14 -80 31 -389 34 -604 l2 -173 -210 -130 c-497
-308 -647 -394 -666 -382 -6 3 -32 52 -58 108 -26 56 -77 149 -113 207 -36 57
-73 118 -81 136 -27 51 -39 165 -35 328 3 152 3 154 33 196 37 53 145 120 385
240 237 118 402 186 515 212 42 10 88 6 121 -9z m226 -980 c98 -49 287 -111
381 -123 43 -6 117 -11 165 -11 91 0 162 -8 162 -19 0 -3 -33 -43 -74 -89 -77
-86 -142 -196 -190 -326 -40 -106 -56 -177 -67 -298 -15 -174 -31 -200 -265
-438 -118 -120 -199 -210 -209 -233 -33 -79 -10 -185 53 -250 36 -37 37 -39
17 -53 -30 -22 -287 -161 -312 -168 -25 -8 -46 17 -189 234 -255 385 -256 388
-264 565 -6 140 -7 141 -73 336 -37 108 -70 216 -73 240 -8 60 12 105 72 158
36 32 773 507 792 510 1 1 34 -15 74 -35z m-1357 -10 c101 -52 257 -328 329
-585 15 -52 56 -182 91 -290 71 -214 84 -286 66 -370 -16 -74 -98 -239 -161
-324 -69 -92 -133 -226 -286 -600 -241 -590 -244 -600 -244 -810 0 -158 15
-208 130 -432 182 -355 337 -537 565 -663 97 -54 143 -95 155 -141 6 -23 9
-43 6 -46 -3 -3 -39 20 -82 51 -116 85 -152 75 -65 -17 65 -69 77 -100 54
-140 -23 -39 -77 -66 -155 -77 -75 -11 -131 -4 -175 20 -32 19 -96 34 -191 45
-97 12 -185 66 -302 184 -58 59 -132 138 -165 176 -84 99 -147 150 -271 224
-139 82 -188 122 -213 175 -42 85 -22 175 69 318 69 106 145 267 164 343 10
44 16 157 20 420 8 474 23 588 96 772 37 92 139 289 178 344 36 51 68 65 84
39 21 -33 38 -24 38 18 0 107 -110 328 -265 532 -133 175 -225 339 -225 401 0
59 95 196 205 297 77 71 181 128 268 147 90 21 232 15 282 -11z m-1099 -150
c15 -25 46 -91 71 -147 96 -222 162 -326 216 -343 48 -14 160 -143 284 -326
110 -163 152 -263 132 -314 -4 -13 -16 -24 -25 -24 -19 0 -103 57 -394 272
-309 227 -863 638 -874 648 -5 5 47 37 115 71 206 105 423 209 436 209 7 0 24
-21 39 -46z m1825 -1572 c269 -402 298 -436 311 -384 11 41 136 123 457 301
l184 102 124 -46 c68 -25 145 -55 170 -66 l46 -19 -6 -138 c-2 -75 -10 -150
-16 -167 -7 -17 -30 -41 -54 -56 -162 -102 -933 -542 -1462 -836 -394 -219
-484 -266 -500 -259 -42 16 -93 191 -102 351 -8 155 1 182 81 242 34 27 124
84 199 128 75 44 136 82 137 85 0 3 -49 48 -110 99 l-109 93 20 51 c53 136
100 249 133 321 l36 79 25 -23 c29 -27 98 -118 213 -280 103 -145 168 -218
183 -203 15 15 0 42 -149 258 -166 242 -225 345 -217 378 4 14 31 53 61 88 30
35 71 96 91 136 27 52 41 69 49 62 7 -6 99 -139 205 -297z m-597 -699 c30 -27
55 -50 55 -53 1 -8 -174 -110 -198 -117 -34 -9 -34 19 -1 102 42 106 48 115
70 115 11 0 44 -21 74 -47z"/>
<path d="M7359 7658 c-33 -65 -50 -90 -131 -192 -72 -91 -62 -118 17 -45 43
39 119 171 150 259 22 61 -1 48 -36 -22z"/>
<path d="M7113 7240 c-13 -5 -23 -16 -23 -25 0 -21 38 -19 78 5 17 11 32 22
32 25 0 8 -63 4 -87 -5z"/>
<path d="M4641 8454 c-32 -41 -216 -412 -208 -420 20 -21 93 83 143 202 39 95
84 185 110 222 16 21 15 22 -4 22 -11 0 -30 -12 -41 -26z"/>
<path d="M5610 7877 c0 -22 37 -54 77 -68 42 -14 226 -19 257 -6 40 16 -3 28
-129 37 -98 7 -135 14 -162 30 -40 24 -43 24 -43 7z"/>
<path d="M5505 7831 c-8 -39 -32 -58 -85 -66 -52 -8 -190 -54 -241 -80 -73
-38 -123 -83 -187 -168 -36 -50 -88 -107 -115 -128 -53 -43 -143 -74 -242 -84
-175 -18 -163 -64 14 -52 153 10 193 34 415 246 151 144 185 165 335 201 114
28 131 42 131 110 0 55 -15 67 -25 21z"/>
<path d="M5610 7741 c0 -4 9 -20 20 -34 42 -54 22 -83 -125 -182 -99 -67 -155
-125 -155 -160 0 -14 5 -25 10 -25 6 0 10 5 10 10 0 26 84 99 138 121 162 65
206 135 147 236 -24 39 -45 56 -45 34z"/>
<path d="M5794 7675 c60 -49 321 -94 321 -55 0 22 -79 40 -152 33 -52 -4 -70
-1 -118 21 -71 32 -89 33 -51 1z"/>
<path d="M5800 7606 c0 -4 12 -35 26 -69 28 -66 41 -162 30 -221 -8 -42 -27
-54 -115 -73 -107 -22 -161 -72 -161 -147 0 -13 -15 -44 -34 -69 -48 -63 -60
-87 -43 -87 23 0 75 63 102 125 42 96 46 102 69 114 11 6 57 20 101 31 93 23
129 54 140 118 9 54 -17 153 -56 213 -29 46 -59 78 -59 65z"/>
<path d="M6200 7542 c0 -22 101 -142 120 -142 24 0 -1 41 -69 113 -34 36 -51
46 -51 29z"/>
<path d="M5972 7359 c8 -25 52 -38 144 -45 49 -4 104 -13 123 -20 43 -18 51
-18 51 1 0 32 -50 50 -164 56 -61 4 -122 10 -135 14 -18 6 -23 5 -19 -6z"/>
<path d="M4107 7334 c-63 -15 -193 -79 -242 -119 -23 -19 -27 -27 -18 -36 9
-9 45 4 155 57 127 61 150 69 213 72 74 4 101 16 75 32 -21 14 -115 11 -183
-6z"/>
<path d="M6003 7260 c8 -41 92 -223 104 -227 36 -12 -37 186 -85 229 l-25 23
6 -25z"/>
<path d="M5017 7199 c-145 -35 -177 -74 -62 -74 42 0 59 5 77 23 14 12 48 30
76 41 29 10 55 21 59 24 13 13 -73 5 -150 -14z"/>
<path d="M5347 7213 c-11 -10 -8 -215 3 -338 6 -60 7 -111 3 -112 -4 -2 -33
-18 -63 -35 -45 -27 -51 -33 -33 -36 57 -9 163 88 163 149 0 15 -12 76 -26
136 -20 82 -25 124 -21 176 3 48 1 67 -8 67 -6 0 -15 -3 -18 -7z"/>
<path d="M6370 7180 c0 -42 20 -120 31 -120 10 0 10 83 0 119 -10 38 -31 38
-31 1z"/>
<path d="M4530 7081 c0 -16 49 -49 98 -66 133 -48 152 -57 152 -77 0 -45 -115
-148 -166 -148 -35 0 -54 -11 -54 -31 0 -16 7 -18 59 -16 51 2 63 -1 86 -23
33 -30 55 -78 55 -118 0 -79 89 -195 116 -151 3 6 -5 23 -19 37 -35 38 -54 79
-62 137 -4 28 -18 76 -31 107 -18 44 -22 63 -14 82 14 39 40 46 142 41 51 -2
84 -2 73 1 -88 23 -113 36 -123 62 -21 57 -22 65 -7 88 22 34 50 39 89 14 37
-22 52 -15 41 20 -6 19 -14 20 -194 18 -168 -3 -191 -1 -208 15 -22 19 -33 22
-33 8z"/>
<path d="M5023 6984 c24 -26 35 -29 101 -32 80 -4 146 11 146 34 0 18 -15 18
-84 0 -56 -15 -96 -10 -171 19 -16 6 -15 2 8 -21z"/>
<path d="M6196 6994 c-29 -9 -14 -55 49 -149 58 -88 78 -109 95 -103 7 2 -2
21 -20 43 -18 22 -38 55 -46 73 -7 19 -25 47 -39 64 -14 16 -25 34 -25 39 0 7
42 8 118 4 112 -7 116 -6 100 10 -13 14 -37 19 -115 21 -54 2 -106 0 -117 -2z"/>
<path d="M6068 6950 c-20 -21 -54 -48 -75 -59 -50 -25 -106 -77 -98 -90 3 -6
23 2 47 19 25 19 53 30 73 30 25 0 40 9 64 35 61 70 51 130 -11 65z"/>
<path d="M3846 6932 c-3 -5 -9 -43 -15 -86 -16 -129 -93 -266 -186 -333 -36
-26 -28 -38 18 -29 116 22 210 186 211 370 1 51 -3 80 -11 83 -6 2 -14 0 -17
-5z"/>
<path d="M6526 6827 c18 -20 34 -51 37 -74 8 -47 33 -75 43 -49 3 9 3 27 0 40
-9 35 -69 110 -91 115 -16 3 -13 -3 11 -32z"/>
<path d="M6396 6751 c-9 -13 19 -21 75 -21 51 0 66 13 27 24 -34 9 -96 7 -102
-3z"/>
<path d="M6219 6677 c-30 -24 -62 -46 -71 -50 -10 -3 -18 -11 -18 -17 0 -27
61 4 114 59 55 56 40 61 -25 8z"/>
<path d="M5365 6650 c-12 -19 26 -70 66 -91 52 -26 135 -35 183 -19 61 20 41
40 -42 40 -65 0 -106 13 -149 49 -40 33 -49 36 -58 21z"/>
<path d="M5060 6562 c0 -17 68 -32 148 -32 77 0 97 13 35 23 -95 15 -183 20
-183 9z"/>
<path d="M5702 6548 c3 -7 30 -31 62 -53 45 -31 67 -40 99 -40 42 1 167 50
167 66 0 13 -8 11 -84 -15 -76 -27 -84 -26 -161 23 -50 32 -90 41 -83 19z"/>
<path d="M3357 6075 c-66 -14 -91 -30 -63 -41 36 -14 156 21 156 46 0 12 -19
11 -93 -5z"/>
<path d="M6784 6141 c-284 -139 -474 -287 -474 -371 0 -18 3 -19 20 -10 11 6
50 38 87 71 85 76 233 180 383 269 63 37 126 77 140 89 50 41 -12 22 -156 -48z"/>
<path d="M7210 6003 c-276 -49 -665 -204 -822 -328 -51 -40 -81 -86 -65 -101
9 -9 60 22 123 73 75 62 121 91 220 141 161 81 391 153 534 167 89 9 142 24
137 38 -4 12 -81 18 -127 10z"/>
<path d="M6173 5375 c-13 -9 -23 -20 -23 -24 0 -5 87 -11 193 -14 125 -4 213
-11 252 -21 75 -19 168 -21 163 -3 -6 19 -68 45 -138 57 -36 6 -146 14 -245
17 -157 4 -183 3 -202 -12z"/>
<path d="M9530 4928 c0 -3 8 -23 17 -44 12 -28 17 -66 18 -133 0 -98 11 -124
33 -76 18 39 14 134 -7 180 -16 34 -61 88 -61 73z"/>
<path d="M9631 4483 c27 -72 169 -171 169 -118 0 8 -12 21 -27 29 -16 8 -52
37 -81 65 -60 58 -77 64 -61 24z"/>
<path d="M9340 4255 c0 -14 5 -25 10 -25 6 0 10 11 10 25 0 14 -4 25 -10 25
-5 0 -10 -11 -10 -25z"/>
<path d="M9327 4034 c-14 -15 -43 -57 -64 -93 -67 -115 -148 -213 -222 -270
-72 -54 -90 -78 -48 -65 32 10 85 46 137 92 84 74 254 332 232 354 -6 6 -18 1
-35 -18z"/>
<path d="M9574 2548 c-8 -13 43 -61 57 -53 12 8 -6 42 -31 55 -13 7 -21 7 -26
-2z"/>
<path d="M7865 5413 c-74 -18 -352 -151 -460 -220 -143 -91 -153 -110 -167
-291 -10 -135 -5 -222 12 -222 20 0 28 39 32 155 10 230 48 271 416 441 61 29
137 67 167 84 74 42 73 71 0 53z"/>
<path d="M7142 3768 c-7 -7 -12 -21 -12 -31 0 -25 -43 -110 -79 -156 -83 -108
-94 -168 -15 -85 52 54 118 175 129 235 7 39 -4 56 -23 37z"/>
<path d="M7030 3282 c0 -46 109 -172 150 -172 60 0 66 34 10 56 -24 10 -60 39
-91 75 -53 62 -69 71 -69 41z"/>
<path d="M6720 3023 c1 -45 24 -170 33 -180 12 -11 8 138 -5 178 -14 49 -28
50 -28 2z"/>
<path d="M6747 2660 c-4 -14 -16 -70 -28 -125 -41 -195 -94 -307 -204 -439
-69 -82 -73 -104 -17 -91 39 8 103 77 140 152 67 132 126 362 120 469 -3 44
-5 53 -11 34z"/>
<path d="M6307 1339 c-43 -68 -82 -146 -91 -182 -9 -39 17 -83 65 -108 23 -11
39 -17 37 -12 -47 94 -46 122 4 261 17 45 28 86 25 89 -3 3 -21 -19 -40 -48z"/>
<path d="M7285 361 c-8 -14 44 -51 71 -51 35 0 29 13 -15 38 -44 25 -48 26
-56 13z"/>
</g>
</svg>
