<?xml version="1.0" standalone="no"?>
<!DOCTYPE svg PUBLIC "-//W3C//DTD SVG 20010904//EN"
 "http://www.w3.org/TR/2001/REC-SVG-20010904/DTD/svg10.dtd">
<svg version="1.0" xmlns="http://www.w3.org/2000/svg"
 width="738.000000pt" height="1175.000000pt" viewBox="0 0 738.000000 1175.000000"
 preserveAspectRatio="xMidYMid meet">

<g transform="translate(0.000000,1175.000000) scale(0.100000,-0.100000)"
fill="#000000" stroke="none">
<path d="M5505 11700 c-155 -25 -326 -90 -414 -160 -100 -79 -218 -275 -262
-435 -26 -97 -41 -127 -72 -148 -24 -16 -74 -109 -101 -190 -23 -68 -20 -119
14 -231 33 -110 38 -182 15 -226 -28 -54 -43 -54 -172 -11 -143 47 -200 54
-367 42 -169 -13 -216 -4 -351 64 -60 30 -134 60 -164 66 -35 7 -127 9 -260 6
-220 -5 -252 -11 -385 -66 -92 -38 -134 -39 -304 -6 -398 78 -694 84 -877 19
-170 -61 -274 -82 -634 -129 -107 -14 -235 -35 -285 -45 -105 -23 -276 -98
-373 -164 -141 -95 -145 -124 -79 -541 14 -88 35 -241 46 -340 48 -410 86
-520 325 -928 154 -265 274 -483 357 -652 65 -135 77 -165 60 -165 -10 0 -161
115 -367 279 -226 181 -387 301 -402 301 -25 0 -24 -22 3 -61 32 -47 178 -176
439 -389 212 -174 375 -327 375 -354 0 -37 -110 -169 -193 -232 -33 -24 -63
-44 -67 -44 -13 0 -160 111 -395 300 -401 321 -504 396 -530 386 -49 -18 67
-126 626 -579 l206 -167 6 -198 c11 -335 42 -402 241 -513 118 -67 249 -158
361 -254 50 -42 112 -88 139 -102 45 -23 58 -25 145 -21 77 3 117 11 201 41
117 40 166 52 278 68 94 13 137 30 180 72 112 107 122 290 23 415 -71 89 -72
99 -40 262 36 184 17 259 -102 401 -136 162 -348 527 -444 764 -102 254 -132
616 -80 969 14 93 25 173 25 178 0 4 94 8 209 8 224 0 413 12 544 35 44 8 82
13 83 12 1 -1 -4 -38 -12 -82 -33 -185 -47 -383 -48 -640 -1 -311 9 -378 114
-804 106 -429 136 -604 169 -986 l18 -210 -63 -92 c-106 -154 -129 -212 -159
-398 -9 -55 -34 -152 -56 -215 -46 -137 -77 -266 -118 -495 -67 -371 -110
-739 -117 -1005 -3 -107 -10 -212 -15 -232 -10 -41 -12 -42 -158 -78 -207 -52
-285 -133 -366 -380 -15 -47 -46 -130 -67 -185 -22 -55 -44 -110 -49 -122 -8
-22 -11 -21 -101 43 -51 36 -114 76 -139 89 -267 136 -530 63 -619 -173 -44
-114 -44 -283 0 -572 24 -162 26 -357 5 -550 -19 -175 -19 -394 0 -485 19 -91
70 -193 141 -280 31 -38 85 -114 120 -167 107 -163 204 -241 300 -241 39 0 51
5 111 48 9 7 16 6 22 -3 16 -26 90 -32 396 -31 l310 1 70 -75 c77 -82 138
-133 262 -221 45 -32 112 -90 150 -129 141 -148 177 -178 258 -217 185 -90
563 -117 694 -50 47 23 106 88 155 167 20 35 39 63 41 63 2 0 18 -27 36 -61
24 -44 44 -67 76 -86 83 -48 140 -57 358 -57 218 1 299 11 382 50 90 43 114
78 253 384 33 74 101 209 151 300 124 230 243 464 283 563 78 187 129 601 145
1177 9 307 9 304 58 394 15 27 15 38 -1 135 -13 80 -20 214 -26 541 -5 239
-14 581 -20 760 -15 427 -15 690 -1 770 21 125 15 217 -24 340 -57 183 -51
249 60 635 86 298 102 364 125 511 10 70 22 129 25 132 3 3 29 -17 58 -45 65
-64 149 -117 235 -150 87 -32 140 -28 296 28 l117 41 40 -27 c23 -15 80 -57
128 -95 132 -103 158 -114 271 -114 142 0 225 45 277 152 24 50 28 69 28 148
0 84 -2 95 -28 130 -15 22 -84 89 -154 149 -69 61 -135 122 -146 137 l-20 27
23 67 c30 89 29 148 -4 219 -29 63 -44 84 -198 268 -167 200 -181 244 -133
413 30 107 175 402 311 634 156 266 211 382 239 504 33 146 50 321 40 415 -10
90 -10 198 0 297 6 60 4 77 -13 110 -58 112 -149 145 -502 179 -91 9 -182 21
-202 26 -62 16 -64 33 -24 172 55 193 61 230 60 392 -1 179 -20 261 -90 404
-73 149 -197 260 -365 328 -161 65 -401 97 -554 73z m414 -120 c185 -62 362
-185 427 -295 146 -251 86 -691 -166 -1212 -157 -325 -390 -677 -473 -717 -46
-21 -127 -20 -219 3 -145 37 -216 88 -270 196 -46 91 -93 161 -174 261 -108
134 -115 152 -107 303 5 104 4 123 -8 119 -18 -5 -59 -127 -66 -194 -9 -81 25
-177 84 -240 27 -28 80 -106 118 -174 88 -155 139 -225 204 -280 l51 -43 -50
-34 c-70 -47 -75 -61 -49 -125 12 -29 25 -57 29 -61 4 -4 18 21 31 55 34 87
57 98 214 99 177 1 218 9 261 50 89 85 398 532 514 743 70 128 122 196 148
196 9 0 58 -43 108 -95 51 -52 97 -95 103 -95 28 0 -9 108 -70 199 -21 31 -21
33 -3 28 10 -3 78 -13 149 -22 152 -19 199 -39 295 -120 35 -30 68 -55 73 -55
5 0 6 14 2 30 -9 39 6 38 39 -1 36 -42 40 -67 20 -119 -14 -36 -18 -84 -20
-240 -5 -352 -25 -413 -362 -1060 -180 -346 -292 -674 -292 -852 0 -121 56
-144 62 -25 l3 62 79 -90 c191 -219 298 -441 240 -499 -17 -18 -33 -12 -104
40 -32 23 -42 25 -106 22 -79 -5 -160 -37 -226 -90 -63 -50 -70 -76 -57 -216
14 -140 4 -174 -60 -210 -56 -32 -100 -29 -149 11 -71 56 -162 173 -162 208 0
30 25 22 81 -26 52 -44 89 -58 89 -32 0 7 -16 40 -36 73 -73 120 -82 146 -113
326 -44 250 -43 257 32 335 22 24 39 45 36 47 -3 3 -24 0 -47 -6 -80 -20 -86
-4 -46 124 51 162 106 288 220 508 62 119 78 185 79 330 0 136 6 151 102 266
94 112 175 239 248 389 71 146 105 246 105 310 0 50 -11 62 -32 37 -28 -31
-48 -81 -74 -179 -43 -168 -146 -337 -279 -462 -62 -58 -93 -76 -82 -48 2 6 8
23 12 37 7 23 6 24 -9 11 -9 -8 -28 -33 -42 -56 -24 -41 -24 -47 -22 -226 2
-152 -1 -195 -16 -249 -29 -107 -83 -197 -166 -281 -101 -101 -265 -208 -287
-186 -4 4 12 46 35 94 24 47 40 88 37 91 -3 3 -49 -37 -103 -90 -104 -102
-147 -129 -244 -154 -99 -26 -221 2 -311 70 -110 83 -147 100 -147 68 0 -27
62 -96 118 -130 69 -42 164 -72 252 -79 131 -10 384 43 514 108 33 16 63 29
67 29 13 0 -9 -61 -35 -99 -13 -20 -52 -64 -86 -99 -34 -35 -59 -69 -57 -75 2
-6 18 -14 36 -18 43 -9 58 -31 72 -114 13 -76 5 -302 -13 -390 -15 -70 -28
-94 -129 -228 -130 -172 -165 -253 -124 -287 19 -16 39 -1 65 49 l18 36 7 -57
c12 -97 -14 -243 -88 -495 -20 -67 -48 -180 -63 -250 -15 -70 -35 -145 -46
-166 -36 -71 -157 -167 -211 -167 -27 0 -29 40 -8 147 12 56 21 121 21 145 0
47 -27 115 -53 137 -16 12 -16 5 -11 -90 6 -88 3 -117 -15 -189 -32 -128 -63
-184 -114 -209 -59 -28 -184 -52 -304 -58 -125 -7 -153 5 -153 65 0 48 28 144
73 252 49 116 67 191 67 278 0 71 -21 139 -39 128 -5 -3 -11 -45 -13 -93 -8
-128 -54 -257 -159 -439 l-23 -41 28 -33 c21 -25 26 -39 21 -59 -16 -64 -57
-70 -338 -47 -237 19 -279 28 -312 68 -21 25 -25 40 -25 96 0 141 -55 402
-109 518 -17 36 -41 70 -60 83 -32 23 -111 41 -111 26 0 -5 25 -34 55 -66 97
-102 123 -193 132 -466 6 -177 5 -183 -14 -183 -56 0 -466 127 -672 207 -195
76 -245 119 -222 185 8 20 18 175 26 390 7 197 16 362 20 368 13 21 25 -2 25
-49 0 -26 6 -56 14 -66 14 -19 15 -19 35 -1 39 36 21 121 -70 334 -182 423
-316 1054 -296 1397 13 219 114 540 177 560 30 9 53 -8 192 -142 118 -114 157
-140 141 -95 -11 31 -87 135 -216 295 -70 87 -145 185 -168 218 -67 99 -86 53
-28 -70 16 -35 29 -66 29 -70 0 -8 -29 -13 -315 -57 -475 -72 -654 -31 -1015
232 -200 146 -250 169 -250 114 0 -29 62 -87 217 -202 273 -202 271 -198 253
-533 -25 -445 29 -720 214 -1100 92 -190 240 -444 338 -580 113 -157 127 -200
108 -324 -13 -82 -41 -145 -63 -139 -7 3 -23 25 -36 51 -35 68 -93 83 -201 51
-70 -21 -117 -51 -172 -113 -56 -62 -82 -132 -81 -216 2 -113 45 -191 162
-292 43 -37 80 -71 80 -74 2 -16 -163 -81 -217 -86 -123 -11 -232 47 -245 132
-4 23 -32 82 -67 138 -74 121 -110 204 -110 256 0 49 -10 57 -43 30 -64 -50
-41 -149 67 -283 16 -20 26 -39 23 -43 -8 -8 -76 37 -128 84 -68 61 -84 91
-84 155 -1 49 -5 62 -29 86 -30 32 -35 67 -21 141 l8 43 -27 -17 c-34 -23 -55
-62 -63 -121 -5 -42 -4 -48 26 -74 26 -24 31 -36 31 -72 0 -63 -9 -71 -50 -49
-76 40 -120 159 -127 348 -6 146 -15 130 163 316 235 244 290 372 209 483 -74
103 -98 145 -197 339 -55 110 -135 254 -176 320 -244 389 -442 944 -477 1338
-6 67 -4 83 14 117 l20 40 -24 97 c-39 151 -41 184 -16 235 24 51 78 94 208
167 169 96 209 106 490 121 250 13 362 31 542 86 199 61 247 67 430 61 199 -6
491 -61 491 -92 0 -6 -11 -22 -25 -35 -33 -31 -32 -40 6 -40 52 0 138 29 280
96 183 86 220 94 409 94 309 0 402 -35 550 -206 45 -53 85 -90 98 -92 21 -3
22 0 19 60 l-2 63 40 20 c34 17 59 20 175 20 130 -1 139 -2 244 -39 158 -56
228 -41 275 58 25 54 34 60 83 57 33 -1 38 1 38 19 0 12 -22 45 -49 73 -57 60
-69 87 -82 175 -17 119 23 267 80 297 33 16 63 11 111 -22 19 -12 40 -23 47
-23 27 0 11 50 -33 103 -30 36 -31 86 -3 181 68 230 238 406 430 445 177 37
442 37 548 1z m836 -4391 c232 -182 377 -313 406 -371 67 -131 -61 -293 -216
-275 -62 7 -130 44 -256 138 -198 150 -261 235 -276 379 -7 75 0 104 38 138
36 33 138 92 159 92 9 0 74 -46 145 -101z m-802 -131 c3 -137 10 -207 21 -241
l15 -48 -39 31 c-49 38 -88 85 -108 127 -15 31 -14 38 7 106 31 97 81 217 91
217 4 0 10 -87 13 -192z m497 -298 c0 -14 -139 -78 -199 -91 -68 -14 -119 -1
-155 42 -14 17 -26 35 -26 40 0 14 42 10 70 -6 34 -19 104 -18 170 5 60 20
140 26 140 10z m-4279 -210 c141 -95 255 -195 279 -245 43 -89 14 -222 -60
-271 -107 -71 -287 -12 -432 144 -68 73 -76 154 -25 266 37 79 112 156 153
156 6 0 44 -22 85 -50z m747 -616 c173 -82 559 -215 902 -312 285 -81 249 -77
710 -77 392 0 421 2 516 23 136 30 221 66 343 145 56 37 104 67 108 67 3 0 3
-42 1 -92 -7 -153 -45 -200 -236 -298 -97 -49 -131 -78 -117 -100 8 -13 50
-13 97 0 49 14 172 97 228 154 24 25 48 46 53 46 4 0 20 -25 34 -56 28 -62 28
-81 -1 -229 -12 -57 -20 -198 -28 -495 -16 -568 -15 -641 5 -726 23 -99 37
-303 37 -549 0 -254 -12 -379 -38 -415 -59 -80 -315 -147 -632 -166 -132 -7
-285 6 -437 38 l-105 22 5 255 c5 278 10 311 59 367 39 45 72 61 238 119 208
73 315 132 295 164 -8 14 -76 14 -145 1 -29 -6 -55 -9 -56 -7 -2 2 14 44 36
93 49 114 59 161 36 170 -23 9 -58 -26 -95 -96 -47 -89 -121 -167 -271 -288
-167 -135 -177 -152 -205 -377 -60 -468 -61 -476 -100 -493 -120 -55 -727 -80
-1000 -42 -144 21 -399 94 -513 147 -29 14 -60 35 -68 48 -34 53 -41 329 -24
935 12 401 33 731 61 949 23 181 31 220 106 489 l56 202 31 0 c50 0 216 -29
288 -51 158 -46 339 -164 353 -228 13 -60 -78 -264 -146 -325 -60 -55 -203
-89 -273 -66 -74 24 -85 115 -36 303 34 131 38 187 15 187 -38 0 -79 -112
-126 -344 -32 -162 -56 -217 -107 -250 -37 -25 -53 -49 -42 -67 10 -15 35 -10
144 30 32 12 113 33 180 47 223 44 309 107 415 299 69 124 95 155 132 155 16
0 111 -18 211 -40 253 -55 363 -70 583 -77 272 -8 376 11 391 73 11 43 -7 47
-72 17 -57 -27 -64 -28 -219 -27 -163 1 -289 17 -639 80 -278 51 -351 77 -504
178 -121 80 -173 103 -318 141 -210 55 -251 106 -238 300 4 52 11 95 16 95 5
0 53 -21 106 -46z m-508 -2506 c0 -346 9 -445 44 -520 31 -66 56 -203 101
-567 67 -540 103 -719 197 -996 59 -176 61 -183 68 -320 8 -144 14 -179 34
-172 29 9 41 62 40 182 0 114 -2 127 -42 245 -87 262 -174 719 -217 1148 -16
159 -18 333 -3 348 5 4 54 -7 110 -24 342 -105 850 -139 1128 -77 167 37 259
50 272 37 19 -19 18 -1058 0 -1192 -28 -196 -111 -482 -250 -865 -22 -61 -52
-166 -65 -233 -14 -68 -34 -137 -44 -155 -43 -73 -167 -111 -368 -111 -241 -1
-269 13 -516 246 -70 66 -175 156 -233 200 -224 169 -381 386 -423 583 -19 91
-28 614 -16 890 9 188 4 351 -13 473 l-7 53 26 -6 c20 -5 28 -2 37 16 19 35
-2 84 -75 179 -138 178 -155 203 -155 227 0 14 16 72 36 129 22 65 34 118 32
141 -7 86 -47 32 -109 -145 -22 -63 -44 -121 -50 -129 -27 -31 -99 4 -99 48 0
41 102 426 126 476 52 108 193 181 352 182 l82 1 0 -292z m-973 -259 c40 -21
136 -80 213 -130 78 -50 171 -104 208 -120 175 -78 191 -95 236 -249 63 -220
78 -431 53 -714 l-12 -129 -87 114 c-47 63 -116 143 -152 179 -36 35 -66 70
-66 77 0 8 11 18 25 23 37 14 30 36 -17 56 -34 14 -67 18 -158 16 -63 0 -126
3 -140 9 -14 5 -41 31 -60 56 -47 63 -140 163 -151 163 -29 0 9 -92 87 -210
70 -107 83 -115 171 -113 87 3 113 -7 185 -75 110 -102 224 -286 279 -447 39
-117 54 -186 74 -345 20 -163 50 -306 76 -367 10 -24 19 -56 19 -69 0 -22 -4
-24 -44 -24 -60 0 -109 23 -167 77 l-49 46 -57 -44 c-100 -76 -208 -100 -238
-55 -23 35 -37 38 -155 25 -59 -7 -119 -9 -133 -5 -18 4 -41 27 -68 69 -24 34
-77 105 -120 157 -185 229 -219 346 -203 705 9 207 10 488 3 900 -3 210 -2
246 14 290 34 100 98 152 227 185 75 20 83 18 207 -51z m2993 -373 c185 -37
276 -46 465 -46 176 0 389 24 508 57 32 9 60 13 64 10 15 -15 22 -190 22 -537
1 -688 -8 -725 -288 -1194 -167 -280 -235 -414 -286 -566 -20 -61 -51 -132
-68 -158 -66 -98 -179 -127 -480 -120 -207 4 -225 10 -341 123 -65 63 -76 79
-76 107 0 18 72 278 160 577 l160 544 0 619 c0 585 1 619 18 614 9 -3 73 -17
142 -30z"/>
<path d="M2076 10312 c-4 -6 22 -26 61 -48 128 -69 150 -83 164 -100 13 -16
10 -17 -47 -11 -34 4 -119 18 -190 32 -226 46 -366 44 -500 -6 -64 -24 -114
-63 -114 -90 0 -27 22 -24 88 13 55 31 61 33 157 31 55 -1 161 -9 235 -18 74
-8 205 -18 291 -22 l157 -6 17 26 c16 24 15 28 -1 63 -20 43 -90 97 -154 119
-60 21 -155 31 -164 17z"/>
<path d="M3435 10100 c-55 -4 -66 -7 -35 -8 140 -7 281 -40 374 -88 37 -19 70
-33 73 -30 3 2 -23 25 -57 50 -93 69 -188 89 -355 76z"/>
<path d="M6860 10043 c0 -5 16 -39 35 -78 26 -52 38 -90 44 -149 10 -83 22
-109 44 -87 16 16 15 184 -2 233 -15 44 -63 88 -97 88 -13 0 -24 -3 -24 -7z"/>
<path d="M1138 9854 c-200 -48 -310 -195 -296 -395 5 -64 27 -119 47 -119 5 0
8 53 7 118 -1 104 2 122 22 159 54 102 109 141 245 173 130 30 159 47 118 70
-26 13 -73 12 -143 -6z"/>
<path d="M3976 9818 c-8 -13 -24 -61 -36 -108 -40 -158 -134 -326 -234 -418
-25 -23 -78 -63 -117 -88 -72 -47 -84 -71 -34 -67 87 7 263 154 360 302 86
132 135 301 106 374 -13 33 -26 34 -45 5z"/>
<path d="M4270 9806 c0 -50 323 -312 555 -450 158 -95 172 -108 195 -202 21
-87 60 -72 60 23 -1 95 -43 151 -168 219 -180 99 -300 180 -417 283 -140 123
-225 171 -225 127z"/>
<path d="M1760 9741 c-68 -22 -120 -48 -120 -61 0 -14 31 -12 129 6 66 13 120
15 236 11 231 -9 362 -45 502 -137 81 -53 93 -58 93 -36 0 24 -89 97 -153 126
-215 97 -537 140 -687 91z"/>
<path d="M1196 9147 c-22 -47 -32 -275 -17 -394 16 -129 54 -271 96 -359 35
-72 109 -164 133 -164 26 0 11 67 -30 135 -134 223 -174 400 -149 655 14 152
2 200 -33 127z"/>
<path d="M3507 8840 c-66 -11 -123 -41 -132 -71 -9 -29 0 -34 28 -16 39 25 98
37 242 46 131 9 172 19 145 36 -19 12 -219 15 -283 5z"/>
<path d="M5021 8723 c-5 -21 -13 -58 -16 -83 -4 -25 -13 -60 -21 -77 -17 -44
-44 -43 -145 3 -82 37 -251 84 -300 84 -47 0 -33 -18 29 -36 159 -46 194 -59
277 -109 103 -62 152 -82 166 -68 14 14 53 266 45 296 -9 38 -24 33 -35 -10z"/>
<path d="M3347 8623 c-15 -14 -5 -111 16 -174 37 -108 85 -177 228 -324 74
-77 171 -185 216 -240 98 -121 127 -149 147 -142 36 14 8 86 -74 188 -27 34
-49 64 -47 65 2 2 38 -8 80 -21 120 -38 238 -56 403 -62 145 -5 156 -4 285 26
160 39 214 70 289 170 53 70 109 191 118 253 10 75 -35 32 -103 -99 -95 -184
-217 -251 -403 -223 -94 15 -155 41 -260 113 -89 61 -119 74 -134 59 -28 -28
47 -89 210 -171 56 -28 102 -52 102 -54 0 -2 -42 1 -92 5 -310 25 -497 81
-645 193 -83 61 -145 140 -232 295 -75 131 -92 155 -104 143z"/>
<path d="M5285 8483 c-155 -22 -274 -93 -132 -80 63 6 173 39 192 58 7 7 5 13
-5 19 -8 5 -17 9 -20 8 -3 0 -18 -3 -35 -5z"/>
<path d="M3111 8001 c-10 -6 -12 -19 -6 -47 9 -54 78 -117 194 -179 51 -27
116 -69 144 -93 27 -24 86 -62 130 -84 107 -53 154 -85 160 -109 6 -23 45 -26
54 -4 8 22 -17 47 -123 126 -101 74 -126 108 -143 188 -25 119 -84 158 -93 61
l-3 -35 -51 1 c-111 3 -197 54 -210 124 -10 54 -25 68 -53 51z"/>
<path d="M4960 7885 c0 -60 -76 -114 -160 -115 -126 -1 -290 -84 -290 -146 0
-12 -7 -25 -16 -28 -9 -3 -89 -6 -178 -6 -188 0 -194 -2 -231 -86 -35 -79 -62
-113 -97 -122 -43 -11 -59 -39 -34 -57 16 -12 24 -12 55 1 49 20 85 58 118
124 40 78 53 82 209 69 91 -8 137 -8 156 -1 15 6 56 47 92 91 37 44 79 83 94
89 15 5 80 7 144 4 108 -4 117 -3 137 17 18 18 21 33 21 101 0 47 -4 80 -10
80 -5 0 -10 -7 -10 -15z"/>
<path d="M5093 7828 c-23 -24 -43 -69 -43 -94 0 -31 54 -71 105 -78 105 -16
165 -62 165 -128 1 -38 31 -65 121 -106 107 -49 125 -68 134 -139 11 -91 38
-130 66 -97 17 20 0 101 -37 184 -35 79 -51 91 -130 99 -81 9 -91 19 -100 113
-9 92 -26 113 -106 127 -77 13 -109 36 -126 87 -18 53 -25 58 -49 32z"/>
<path d="M3287 7603 c-4 -3 -4 -31 0 -61 7 -63 -1 -72 -62 -72 -51 0 -117 30
-167 76 -38 34 -67 41 -75 17 -6 -17 73 -88 136 -121 31 -16 83 -37 116 -47
73 -20 126 -50 196 -111 91 -78 153 -100 194 -71 25 19 13 33 -45 52 -60 20
-101 60 -147 145 -44 82 -123 200 -132 200 -4 0 -11 -3 -14 -7z"/>
<path d="M4970 7555 c-6 -14 -10 -55 -10 -90 0 -92 -18 -162 -49 -198 -37 -41
-92 -40 -189 2 -122 54 -220 64 -251 27 -17 -20 5 -32 69 -39 31 -3 98 -21
149 -42 100 -39 199 -54 243 -36 16 6 36 27 47 49 36 71 52 228 31 304 -14 48
-27 56 -40 23z"/>
<path d="M4215 7271 c-58 -27 -108 -85 -150 -173 -21 -43 -47 -84 -60 -92 -12
-8 -51 -22 -86 -31 -80 -21 -136 -53 -210 -121 -63 -58 -91 -70 -147 -60 -30
4 -54 22 -121 92 -47 47 -101 97 -122 111 -47 31 -92 29 -97 -4 -3 -20 1 -23
31 -23 39 0 59 -19 102 -95 52 -94 147 -175 204 -175 16 0 69 20 116 46 147
76 193 54 205 -98 4 -46 13 -93 21 -106 27 -43 120 -71 249 -75 63 -2 75 1 78
15 5 24 -36 47 -109 60 -75 13 -113 30 -133 61 -17 25 -66 218 -66 257 0 20 9
29 48 45 26 10 68 40 94 66 37 37 51 61 67 116 23 77 44 101 114 131 50 22 69
48 46 63 -20 12 -29 11 -74 -10z"/>
<path d="M5020 7268 c0 -64 82 -127 166 -128 54 0 112 -21 165 -60 48 -35 82
-36 87 -4 6 43 -85 94 -168 94 -62 0 -106 19 -164 70 -63 55 -86 62 -86 28z"/>
<path d="M4914 7099 c-4 -7 -11 -51 -15 -98 -5 -47 -20 -119 -34 -158 -14 -40
-25 -79 -25 -86 0 -7 13 -25 28 -40 l29 -28 0 46 c0 34 12 70 51 148 71 144
72 149 29 192 -37 37 -51 42 -63 24z"/>
<path d="M5417 6943 c-13 -12 -7 -68 14 -149 11 -44 18 -92 15 -108 -3 -16
-27 -71 -52 -123 -35 -71 -44 -97 -35 -106 18 -18 43 3 73 64 63 124 75 281
30 382 -20 45 -31 55 -45 40z"/>
<path d="M4826 6595 c-49 -57 -100 -89 -201 -124 -73 -26 -94 -44 -79 -69 17
-27 38 -26 113 8 39 17 92 35 118 39 54 11 97 52 113 109 9 35 3 92 -9 92 -4
0 -29 -25 -55 -55z"/>
<path d="M4950 6523 c1 -40 34 -109 62 -127 13 -9 62 -23 108 -31 47 -9 102
-25 123 -36 44 -22 77 -25 77 -6 0 34 -107 96 -165 97 -39 0 -89 31 -141 86
-47 51 -64 55 -64 17z"/>
<path d="M3998 4900 c-28 -17 -21 -37 15 -48 45 -14 105 -20 402 -37 362 -21
585 -46 585 -65 0 -13 -118 -37 -391 -80 -396 -63 -529 -104 -529 -162 0 -29
62 -23 149 17 88 39 204 68 336 84 477 58 498 61 547 95 35 23 49 63 26 77
-23 15 -110 38 -183 48 -38 6 -207 19 -374 31 -282 19 -439 32 -529 45 -20 3
-45 1 -54 -5z"/>
<path d="M2730 4528 c-34 -56 -40 -95 -52 -332 -16 -322 8 -936 38 -965 12
-13 40 20 51 60 17 64 15 302 -3 501 -19 208 -14 481 11 605 20 100 17 156 -7
161 -11 2 -25 -9 -38 -30z"/>
<path d="M3575 4062 c-49 -5 -86 -23 -83 -41 6 -31 72 -52 190 -61 170 -13
226 -36 395 -163 102 -76 126 -81 131 -28 3 29 -3 40 -45 80 -115 110 -438
228 -588 213z"/>
<path d="M3103 854 c-15 -39 76 -244 142 -322 19 -22 55 -49 80 -61 46 -22
105 -28 105 -11 0 10 -33 51 -129 155 -65 71 -121 157 -121 186 0 19 -44 69
-60 69 -6 0 -13 -7 -17 -16z"/>
<path d="M1831 1354 c-25 -32 -28 -89 -7 -139 13 -31 19 -35 54 -35 21 0 46 6
57 13 17 13 17 17 -15 85 -18 39 -41 78 -50 87 -16 15 -19 14 -39 -11z"/>
<path d="M1576 1334 c-10 -27 -7 -62 10 -104 26 -63 77 -81 95 -32 15 38 -4
94 -42 126 -35 30 -54 33 -63 10z"/>
</g>
</svg>
