<?xml version="1.0" standalone="no"?>
<!DOCTYPE svg PUBLIC "-//W3C//DTD SVG 20010904//EN"
 "http://www.w3.org/TR/2001/REC-SVG-20010904/DTD/svg10.dtd">
<svg version="1.0" xmlns="http://www.w3.org/2000/svg"
 width="1088.000000pt" height="1280.000000pt" viewBox="0 0 1088.000000 1280.000000"
 preserveAspectRatio="xMidYMid meet">

<g transform="translate(0.000000,1280.000000) scale(0.100000,-0.100000)"
fill="#000000" stroke="none">
<path d="M10472 12668 c-30 -74 -43 -267 -62 -923 -12 -435 -26 -662 -40 -701
-6 -16 -25 -43 -41 -60 -42 -43 -49 -103 -49 -401 0 -139 -4 -253 -8 -253 -5
0 -71 -11 -147 -26 -170 -31 -296 -70 -445 -139 -151 -70 -233 -102 -420 -165
-193 -66 -283 -110 -387 -193 -45 -36 -114 -84 -154 -108 -100 -62 -154 -113
-199 -189 -57 -95 -108 -139 -265 -225 -150 -83 -196 -112 -265 -170 -39 -33
-45 -35 -56 -20 -7 9 -22 67 -34 130 -11 63 -30 144 -40 180 -67 235 -234 404
-455 460 -74 19 -279 20 -356 1 -110 -25 -219 -113 -301 -242 -61 -95 -87
-161 -98 -250 -13 -103 -25 -143 -72 -243 -51 -109 -53 -158 -13 -233 87 -163
93 -180 64 -207 -56 -52 -230 -76 -619 -86 -140 -4 -289 -11 -330 -17 -95 -13
-156 -12 -247 7 -92 19 -207 19 -358 0 -151 -19 -245 -19 -315 0 -69 19 -138
19 -215 0 -79 -19 -183 -19 -275 1 -156 33 -503 -12 -745 -96 -137 -48 -243
-71 -375 -80 -164 -12 -255 -29 -380 -69 -117 -38 -142 -38 -221 -1 -77 36
-166 50 -321 50 -280 0 -427 -50 -593 -203 l-74 -68 -318 142 c-175 78 -448
199 -608 269 -159 71 -361 160 -449 199 -87 39 -162 68 -167 65 -16 -10 -9
-40 14 -61 55 -51 269 -151 1065 -499 l433 -189 -7 -55 c-24 -188 19 -306 158
-435 70 -66 186 -132 283 -161 50 -15 93 -18 250 -17 200 1 433 17 500 35 28
7 52 24 80 55 22 25 64 73 94 107 110 125 305 316 340 333 77 37 305 14 461
-47 228 -90 484 -90 699 1 53 23 105 43 116 46 12 3 73 -18 145 -51 158 -69
261 -106 319 -115 67 -9 65 -28 -17 -152 -119 -181 -214 -261 -379 -322 -51
-19 -120 -55 -155 -80 -148 -105 -314 -317 -424 -542 -80 -165 -84 -187 -84
-485 0 -398 -12 -504 -104 -945 -20 -93 -36 -195 -36 -226 0 -60 11 -77 77
-115 54 -30 56 -51 38 -356 -35 -602 -62 -905 -90 -1026 -8 -34 -37 -110 -64
-170 -85 -186 -154 -452 -167 -641 -7 -104 6 -189 81 -501 82 -344 79 -312 80
-745 l0 -390 38 -85 c73 -161 107 -268 117 -364 15 -159 76 -283 190 -389 72
-67 124 -93 214 -107 185 -29 524 68 639 182 33 33 47 58 61 106 27 98 3 153
-124 287 -207 220 -431 584 -495 808 -13 48 -27 123 -31 165 -13 163 37 514
113 787 55 197 62 309 40 614 l-16 205 64 120 c73 139 128 266 181 422 43 128
45 132 118 248 68 108 108 225 137 403 54 336 73 417 92 410 33 -10 246 -324
322 -474 32 -63 38 -87 46 -175 12 -144 18 -173 50 -255 34 -83 37 -152 15
-279 -37 -209 -44 -508 -16 -684 13 -78 74 -206 161 -340 34 -52 68 -114 76
-139 16 -54 18 -338 3 -479 -6 -53 -24 -162 -40 -242 -66 -322 -58 -451 34
-548 65 -70 84 -75 353 -82 265 -8 247 -4 383 -83 62 -35 145 -47 346 -47 307
0 462 27 541 95 81 70 107 175 57 235 -33 39 -70 57 -219 110 -345 121 -525
252 -756 548 l-91 117 4 305 c10 568 -18 1866 -42 1990 -5 25 -14 146 -20 270
-32 679 -31 669 -95 921 -50 198 -67 304 -59 375 5 55 3 68 -27 135 -45 100
-47 187 -7 270 16 31 37 64 49 75 23 21 18 20 329 13 152 -3 157 -2 250 29
132 44 256 72 316 72 68 0 188 32 262 69 94 47 210 140 328 264 130 135 161
188 228 397 57 175 155 377 235 485 113 151 181 259 196 309 26 86 96 161 345
371 134 112 200 182 255 270 51 81 75 143 75 192 0 76 18 91 266 213 237 116
262 136 355 294 94 160 221 301 324 361 64 38 88 40 121 12 28 -24 47 -31 185
-71 31 -9 73 -31 96 -51 53 -45 81 -55 157 -55 50 0 69 5 94 24 19 13 53 26
83 29 63 8 111 37 141 85 31 49 30 158 -1 304 -31 143 -44 163 -118 179 -32 7
-64 17 -70 22 -9 6 -13 43 -13 116 -1 170 -19 503 -30 540 -5 19 -26 49 -46
68 l-37 33 7 123 c4 67 11 190 16 272 15 228 24 1163 13 1205 l-10 35 -11 -27z
m-3 -1702 c18 -22 29 -161 36 -478 8 -322 2 -437 -25 -470 -16 -20 -20 -21
-59 -10 -78 24 -76 15 -76 457 0 403 4 455 42 498 19 21 66 22 82 3z m-205
-728 c8 -13 19 -68 24 -122 12 -119 16 -124 133 -161 97 -30 135 -49 143 -70
12 -33 5 -67 -20 -92 -25 -24 -30 -25 -107 -21 -105 7 -297 53 -339 82 -18 12
-51 49 -73 84 -27 41 -47 62 -60 62 -24 0 -133 -50 -175 -81 -62 -46 -21 -54
49 -10 131 83 120 33 -17 -77 -132 -105 -230 -221 -292 -342 -33 -64 -84 -130
-133 -168 -78 -62 -335 -172 -403 -172 -38 0 -40 6 -19 57 8 20 13 38 10 41
-13 13 -245 -109 -245 -128 0 -15 20 -12 98 14 l72 25 0 -24 c0 -54 -32 -250
-47 -289 -25 -62 -63 -114 -144 -193 -66 -63 -370 -313 -382 -313 -2 0 -8 36
-11 79 -4 43 -13 87 -20 97 -13 17 -14 17 -24 -2 -6 -11 -18 -69 -26 -130 -21
-146 -40 -214 -86 -309 -52 -105 -124 -200 -218 -283 -141 -124 -165 -152
-128 -152 29 0 40 -28 27 -73 -70 -242 -169 -463 -238 -532 -111 -110 -265
-193 -377 -203 l-59 -5 6 35 c3 19 26 80 51 134 66 144 85 230 43 196 -7 -7
-26 -38 -41 -69 -79 -163 -189 -294 -292 -346 -96 -48 -159 -61 -299 -61 -148
1 -224 16 -316 66 -99 52 -196 162 -264 298 -58 118 -119 220 -131 220 -17 0
6 -94 47 -190 51 -120 106 -207 185 -290 77 -80 143 -124 207 -135 42 -8 44
-23 5 -43 -23 -11 -37 -9 -105 13 -43 14 -107 28 -143 32 -66 6 -119 26 -155
60 -99 91 -133 81 -67 -20 36 -54 69 -68 186 -76 74 -6 112 -13 141 -29 56
-31 161 -31 200 0 24 19 46 22 189 30 152 8 195 14 406 53 47 8 119 18 160 21
l75 5 -48 -26 c-45 -25 -66 -29 -319 -65 -37 -5 -113 -26 -170 -46 -115 -41
-138 -42 -533 -34 -197 4 -292 -7 -315 -36 -17 -20 4 -44 38 -44 49 0 2 -28
-83 -50 -84 -22 -265 -37 -309 -26 -40 10 -32 40 22 82 59 47 82 72 82 90 0
34 -85 -3 -142 -63 -20 -21 -43 -55 -52 -75 -20 -49 -34 -49 -180 3 -183 65
-192 75 -195 208 0 36 -10 98 -22 140 -12 43 -19 88 -16 108 4 23 2 33 -7 33
-29 0 -39 -29 -32 -88 28 -233 25 -272 -20 -272 -75 0 -237 146 -295 265 -32
66 -34 76 -34 170 1 166 10 180 300 481 l197 204 202 0 c237 0 267 -6 379 -80
90 -58 136 -80 237 -112 64 -19 96 -23 215 -23 132 0 143 2 198 27 69 33 164
125 195 190 22 45 29 98 13 98 -5 0 -31 -33 -59 -74 -95 -137 -163 -177 -308
-184 -114 -5 -235 17 -322 59 -49 24 -99 65 -213 175 -82 79 -154 144 -159
144 -18 0 -10 -32 16 -63 23 -28 24 -31 9 -46 -14 -14 -45 -16 -218 -14 -318
2 -430 19 -558 83 -144 72 -166 114 -71 139 28 8 52 18 52 22 0 13 -134 99
-155 99 -3 0 -5 -18 -5 -40 0 -35 -5 -43 -42 -71 -70 -51 -217 -117 -308 -139
-103 -24 -254 -26 -367 -5 -43 8 -148 39 -233 67 -154 53 -156 53 -278 53 -67
0 -122 1 -122 3 0 1 25 14 55 28 30 15 55 31 55 37 0 19 -109 0 -156 -28 -53
-31 -74 -61 -85 -122 -15 -78 -84 -155 -126 -139 -28 11 -12 97 30 159 59 90
84 190 53 216 -20 17 -35 -7 -51 -85 -8 -36 -20 -73 -27 -82 -7 -8 -43 -34
-79 -57 -65 -42 -99 -87 -99 -132 0 -27 -28 -63 -50 -63 -27 0 -57 43 -69 101
-19 87 -16 96 49 161 55 54 60 62 60 102 0 36 -8 54 -40 97 -22 30 -39 58 -37
64 5 18 90 53 177 74 47 11 164 32 261 46 97 13 237 40 310 59 74 19 186 48
251 65 262 68 459 68 728 2 161 -40 230 -50 230 -33 0 5 -16 17 -35 28 -19 10
-35 24 -35 30 0 16 143 24 439 24 292 0 402 -10 518 -46 45 -14 97 -24 115
-22 29 3 33 6 30 31 -2 22 3 29 25 38 38 15 299 4 378 -15 77 -19 124 -20 162
-1 16 8 93 26 171 39 79 14 163 34 187 46 49 24 175 143 175 166 0 10 -12 14
-39 14 -48 0 -79 24 -113 87 -56 104 -60 175 -12 233 29 34 75 40 112 14 40
-27 43 -11 11 56 -57 119 -38 265 53 401 115 172 355 264 553 214 262 -67 430
-275 466 -579 16 -140 7 -572 -15 -651 -22 -80 -96 -229 -143 -287 -53 -64
-101 -90 -182 -96 -83 -6 -168 15 -279 68 -105 50 -247 142 -262 169 -7 15 -9
54 -4 122 7 95 6 101 -11 98 -11 -2 -22 -17 -27 -34 -15 -55 -27 -158 -21
-186 11 -57 137 -156 333 -263 107 -59 150 -102 150 -153 l1 -38 16 30 c23 44
53 75 93 94 44 23 177 54 190 46 5 -3 10 -30 11 -58 0 -60 13 -144 23 -154 18
-18 29 27 37 140 9 151 18 184 74 307 45 98 75 193 75 242 0 34 33 58 79 58
l35 0 -31 33 c-46 49 -56 75 -57 152 0 145 71 218 364 375 180 96 215 124 285
230 46 70 67 93 96 104 41 17 148 95 215 158 58 54 139 115 185 138 19 10 111
42 203 70 205 62 279 91 446 175 200 100 336 140 487 144 44 1 55 -3 67 -21z
m411 -30 c23 -34 55 -144 62 -215 7 -77 -11 -113 -57 -113 -63 0 -101 72 -107
205 -6 116 4 145 51 145 25 0 39 -7 51 -22z m51 -389 c17 -28 -74 -62 -106
-39 -13 9 -12 13 9 30 25 22 85 27 97 9z m-8341 -1494 c125 -22 217 -68 289
-146 51 -55 66 -86 50 -102 -11 -11 -53 12 -122 64 -82 63 -146 93 -245 113
-202 42 -424 -13 -550 -137 -77 -76 -102 -133 -102 -232 0 -64 5 -89 24 -125
86 -165 248 -253 499 -269 67 -5 126 -11 129 -15 13 -13 -17 -29 -69 -37 -65
-11 -230 5 -321 30 -202 56 -385 248 -395 415 -11 180 180 383 415 440 79 19
287 19 398 1z m-25 -128 c0 -8 -9 -22 -19 -31 -11 -10 -27 -33 -36 -52 -15
-32 -15 -40 1 -117 18 -84 24 -379 9 -426 -6 -19 -13 -21 -98 -21 -210 0 -373
84 -443 226 -68 139 2 308 159 383 83 39 136 49 295 50 104 1 132 -2 132 -12z
m146 -38 c40 -24 57 -51 48 -74 -4 -10 3 -27 20 -44 46 -48 75 -184 42 -197
-35 -13 -243 122 -271 177 -23 43 -18 62 23 101 66 63 87 69 138 37z m10 -341
c75 -31 101 -51 137 -108 21 -32 28 -35 75 -38 28 -2 60 2 70 7 11 6 32 36 47
68 41 89 75 119 75 68 0 -58 -98 -195 -155 -219 -19 -8 -35 -17 -35 -20 0 -3
12 -17 26 -31 25 -25 25 -27 9 -45 -39 -43 -236 -51 -314 -12 -62 30 -76 69
-75 207 0 135 11 170 47 159 12 -3 54 -20 93 -36z m2084 -962 c30 -120 94
-195 257 -299 194 -125 435 -208 636 -222 116 -8 284 14 389 50 43 15 82 24
88 20 25 -16 3 -94 -34 -119 -62 -40 -345 -54 -563 -26 -62 7 -116 11 -119 7
-11 -11 14 -34 44 -41 15 -4 163 -11 328 -15 278 -7 305 -10 345 -29 67 -32
83 -68 85 -185 3 -112 13 -184 60 -394 19 -84 34 -166 34 -183 0 -38 -47 -91
-149 -168 -203 -153 -474 -242 -737 -242 l-114 0 0 98 c0 53 4 103 9 111 5 8
33 21 61 28 98 25 231 138 279 236 39 81 20 110 -31 46 -103 -128 -119 -140
-245 -178 -120 -36 -153 -86 -183 -275 -15 -97 -30 -120 -97 -152 -68 -32
-196 -76 -308 -106 -104 -28 -279 -30 -375 -4 -110 29 -253 78 -305 104 -86
42 -105 60 -105 95 0 39 36 224 89 462 22 99 45 211 52 249 12 74 8 219 -11
376 -22 176 16 387 100 567 62 133 140 244 288 413 l40 45 6 -90 c22 -307 31
-361 69 -414 12 -17 36 -50 52 -73 22 -30 30 -53 30 -83 0 -76 -46 -126 -300
-325 -105 -83 -185 -167 -185 -196 0 -8 11 -19 24 -23 13 -5 26 -17 30 -26 11
-31 6 -269 -9 -366 -8 -53 -23 -119 -35 -148 -24 -61 -26 -91 -5 -91 47 0 96
179 115 425 15 182 24 227 60 302 33 67 63 95 175 160 82 48 163 129 199 201
14 28 30 53 35 56 5 4 50 -14 99 -40 97 -49 189 -72 163 -40 -8 9 -56 41 -106
71 -179 105 -268 192 -305 298 -54 152 -49 276 16 422 l18 40 13 -125 c7 -69
22 -161 33 -204z m1566 -1689 c14 -69 34 -316 34 -418 0 -41 -5 -118 -12 -172
-12 -98 -12 -99 17 -180 28 -77 30 -90 29 -227 0 -111 -6 -167 -22 -240 -27
-116 -27 -128 -2 -155 14 -14 23 -45 30 -96 6 -41 13 -414 17 -829 l6 -755 44
-57 c118 -154 411 -455 503 -516 43 -29 99 -53 179 -78 229 -70 331 -121 331
-164 0 -25 -61 -74 -140 -113 l-65 -32 -265 0 c-291 0 -299 2 -440 65 -111 49
-159 58 -376 70 -99 5 -198 15 -219 22 -50 17 -72 49 -86 122 -13 73 -6 156
31 351 44 231 54 324 54 530 1 223 -2 238 -95 390 -100 166 -148 271 -160 355
-18 117 -6 498 20 640 26 146 26 162 -6 235 -58 135 -73 191 -79 302 -8 161
-18 194 -91 301 -90 131 -253 406 -253 426 0 2 73 6 163 9 299 9 528 82 727
229 89 66 111 63 126 -15z m-1228 -431 c7 -214 -98 -590 -192 -689 -42 -45
-53 -66 -86 -167 -17 -52 -78 -189 -135 -305 -57 -117 -111 -236 -120 -266
-28 -90 -51 -149 -95 -249 -74 -168 -150 -472 -150 -600 0 -53 12 -82 27 -66
3 3 18 67 33 143 35 170 64 287 91 358 21 56 54 105 70 105 24 0 39 -71 39
-183 0 -131 -18 -249 -55 -356 -47 -139 -105 -502 -121 -761 -6 -99 -5 -110
24 -196 99 -295 273 -586 495 -829 112 -122 147 -172 147 -208 0 -50 -44 -133
-79 -151 -41 -22 -48 -20 -60 14 -7 22 -16 30 -34 30 -33 0 -46 -18 -53 -74
-5 -36 -12 -50 -28 -56 -26 -10 -315 -34 -375 -31 -24 1 -56 8 -72 16 -48 25
-147 124 -168 168 -11 24 -41 119 -65 212 -41 158 -62 223 -138 430 l-29 80 6
280 c9 374 0 453 -91 838 -118 500 -106 641 102 1124 l82 192 16 363 c32 704
50 888 87 888 7 0 55 -14 108 -32 87 -29 110 -32 253 -36 185 -5 269 9 423 68
140 54 139 55 143 -54z"/>
<path d="M9413 9714 c-59 -29 -154 -125 -249 -253 -60 -81 -75 -111 -56 -111
11 0 51 44 97 105 62 84 156 176 228 221 98 64 85 89 -20 38z"/>
<path d="M8413 8946 c-65 -75 -153 -236 -153 -282 0 -40 31 -2 77 94 29 59 70
129 93 156 65 78 50 108 -17 32z"/>
<path d="M5220 8523 c0 -5 9 -16 20 -26 45 -38 24 -45 -182 -57 -166 -9 -228
-17 -228 -30 0 -24 308 -13 405 14 59 17 60 66 3 97 -10 5 -18 6 -18 2z"/>
<path d="M6761 8415 c-1 -77 27 -136 105 -229 95 -110 162 -205 206 -289 40
-77 60 -91 66 -47 5 32 -59 154 -115 222 -167 199 -183 222 -251 378 -9 22
-11 17 -11 -35z"/>
<path d="M6020 8430 c-13 -9 -12 -12 4 -25 10 -8 53 -28 95 -45 42 -17 93 -38
113 -47 87 -37 129 -115 153 -284 15 -107 19 -119 41 -119 28 0 17 137 -23
280 -11 40 -27 66 -58 97 -53 50 -156 109 -237 134 -69 22 -68 22 -88 9z"/>
<path d="M4085 8199 c-33 -4 -116 -24 -184 -44 -69 -19 -155 -43 -193 -51 -37
-9 -68 -20 -68 -26 0 -16 99 -1 268 43 84 21 208 46 275 55 67 9 131 20 142
24 26 11 -158 10 -240 -1z"/>
<path d="M5032 8099 c112 -19 202 -47 300 -92 63 -29 83 -21 45 16 -51 52
-227 98 -365 96 l-87 -1 107 -19z"/>
<path d="M7552 7888 c-7 -7 -12 -22 -12 -34 0 -25 -48 -92 -121 -171 -59 -63
-84 -112 -75 -147 12 -48 41 -33 81 43 20 39 63 105 96 148 67 89 87 136 69
158 -15 18 -22 19 -38 3z"/>
<path d="M6735 7880 c-26 -42 167 -186 283 -210 80 -18 132 -57 170 -128 18
-34 37 -62 42 -62 19 0 21 48 5 86 -32 76 -103 130 -225 169 -65 20 -132 57
-178 96 -44 39 -89 61 -97 49z"/>
<path d="M6017 7783 c21 -62 111 -108 210 -108 70 0 112 23 124 68 8 30 -10
38 -30 13 -6 -7 -30 -19 -54 -25 -54 -15 -121 -1 -193 40 -60 34 -65 35 -57
12z"/>
<path d="M5212 7524 c-56 -39 -70 -44 -118 -44 -30 0 -54 -4 -54 -8 0 -33 75
-43 135 -18 35 15 125 92 125 107 0 18 -26 7 -88 -37z"/>
<path d="M5491 7494 c-33 -41 -44 -90 -37 -158 4 -33 10 -128 14 -211 6 -124
10 -156 27 -184 44 -75 58 -34 30 84 -14 57 -11 130 5 140 4 3 20 -7 34 -20
15 -14 31 -25 37 -25 19 0 8 33 -48 146 -56 113 -57 116 -44 157 29 99 23 124
-18 71z"/>
<path d="M5287 7428 c-87 -117 -99 -436 -19 -499 36 -28 50 -9 22 29 -14 19
-24 50 -27 91 -6 67 6 81 27 31 29 -70 80 -106 80 -57 0 13 -15 68 -34 124
-51 150 -52 167 -17 240 16 34 27 64 24 67 -14 13 -33 4 -56 -26z"/>
<path d="M5861 7114 c-30 -38 -61 -129 -61 -179 0 -45 12 -65 27 -43 16 26 91
233 87 240 -10 16 -33 8 -53 -18z"/>
<path d="M5780 6724 c-59 -25 -80 -52 -80 -100 0 -52 35 -99 81 -109 49 -11
56 9 14 40 -20 16 -43 41 -51 58 -14 26 -14 31 2 48 9 10 27 19 39 19 26 0 78
38 70 51 -9 13 -35 11 -75 -7z"/>
<path d="M2441 7712 c19 -56 136 -93 183 -59 25 18 5 32 -58 41 -27 3 -65 15
-83 26 -46 27 -54 25 -42 -8z"/>
<path d="M4180 6603 c-14 -49 -25 -230 -16 -277 7 -39 20 -46 31 -18 13 30 19
332 7 332 -6 0 -16 -17 -22 -37z"/>
<path d="M4704 6165 c-64 -17 -124 -52 -124 -72 0 -11 6 -14 23 -9 133 38 305
54 384 37 29 -6 117 -40 196 -75 182 -81 259 -105 369 -113 60 -4 88 -10 88
-18 0 -21 -34 -25 -315 -40 -325 -17 -472 -35 -459 -56 7 -12 354 -11 529 1
263 19 398 53 411 104 4 19 16 29 44 37 37 11 109 73 98 84 -3 3 -20 -1 -39
-9 -52 -22 -189 -38 -329 -39 -144 -1 -175 6 -356 84 -214 92 -387 120 -520
84z"/>
<path d="M6096 4578 c-9 -12 -16 -27 -16 -33 0 -19 -58 -68 -118 -100 -60 -32
-77 -59 -43 -70 55 -17 231 136 231 201 0 31 -33 32 -54 2z"/>
<path d="M5873 4015 c-7 -20 41 -72 114 -122 79 -54 84 -36 13 41 -74 79 -117
106 -127 81z"/>
<path d="M5951 3146 c-15 -18 -16 -50 -6 -156 l7 -86 -41 -48 c-43 -50 -45
-66 -7 -66 102 0 172 238 102 345 -18 28 -38 32 -55 11z"/>
<path d="M5921 1871 c-72 -101 -64 -251 15 -281 31 -12 151 -13 158 -2 3 5
-27 27 -66 48 -91 50 -96 62 -68 153 12 39 20 79 18 88 -5 29 -34 26 -57 -6z"/>
<path d="M7030 1335 c0 -8 98 -55 115 -55 22 0 18 27 -7 44 -20 14 -108 23
-108 11z"/>
<path d="M4383 4206 c-176 -92 -243 -152 -243 -220 0 -35 10 -33 67 14 160
132 230 177 257 167 7 -3 26 -37 41 -76 41 -109 82 -146 114 -107 10 11 6 26
-18 68 -16 29 -39 90 -52 136 -12 45 -27 82 -33 82 -6 0 -66 -29 -133 -64z"/>
<path d="M4250 3686 c0 -44 60 -86 122 -86 38 0 78 24 78 46 0 11 -15 14 -64
14 -48 0 -69 5 -89 20 -30 23 -47 26 -47 6z"/>
<path d="M3917 3373 c-11 -10 -8 -190 4 -258 12 -72 22 -90 42 -82 13 5 13 13
1 64 -8 33 -13 102 -13 159 1 56 -1 106 -5 112 -8 13 -19 15 -29 5z"/>
<path d="M4068 1505 c-89 -65 -126 -141 -90 -185 24 -30 46 -22 71 28 11 22
33 50 48 63 41 35 63 70 63 101 0 39 -32 37 -92 -7z"/>
<path d="M4577 553 c-4 -3 -7 -17 -7 -29 0 -25 55 -94 74 -94 18 0 37 47 30
74 -8 35 -77 70 -97 49z"/>
<path d="M4325 404 c-9 -9 -15 -26 -13 -38 5 -33 76 -35 113 -3 26 22 26 24
11 40 -22 22 -89 22 -111 1z"/>
</g>
</svg>
