<?xml version="1.0" standalone="no"?>
<!DOCTYPE svg PUBLIC "-//W3C//DTD SVG 20010904//EN"
 "http://www.w3.org/TR/2001/REC-SVG-20010904/DTD/svg10.dtd">
<svg version="1.0" xmlns="http://www.w3.org/2000/svg"
 width="1290.000000pt" height="932.000000pt" viewBox="0 0 1290.000000 932.000000"
 preserveAspectRatio="xMidYMid meet">

<g transform="translate(0.000000,932.000000) scale(0.100000,-0.100000)"
fill="#000000" stroke="none">
<path d="M3824 8751 c-128 -35 -252 -116 -314 -206 -41 -60 -47 -84 -60 -229
-15 -173 -38 -256 -71 -256 -11 0 -54 17 -97 39 -232 116 -393 141 -925 141
l-318 0 -67 -62 c-177 -166 -189 -196 -202 -499 -6 -132 -18 -273 -32 -360
-20 -125 -23 -180 -22 -424 0 -305 9 -376 84 -675 64 -256 65 -267 65 -535 0
-203 -3 -256 -15 -280 -21 -41 -105 -89 -219 -126 l-94 -30 -124 31 c-176 45
-231 32 -268 -67 -10 -26 -30 -66 -45 -88 -44 -65 -49 -80 -61 -161 -19 -138
-13 -153 109 -275 119 -117 168 -146 299 -178 212 -51 380 -121 493 -207 94
-72 111 -81 194 -109 56 -19 95 -25 159 -25 98 0 150 15 225 67 126 86 129
172 28 693 -57 290 -69 390 -69 580 0 195 18 303 81 491 40 120 52 144 68 143
10 0 59 -27 108 -58 l89 -58 -7 -1297 c-4 -713 -13 -1444 -19 -1624 l-12 -328
-70 -31 c-182 -79 -656 -293 -707 -319 -43 -22 -59 -36 -64 -56 -7 -25 3 -574
10 -581 9 -8 449 -162 465 -162 10 0 164 71 342 158 178 87 419 205 536 262
l212 103 198 -68 c109 -37 353 -121 543 -186 730 -249 1033 -353 1260 -431
237 -81 531 -182 1405 -481 264 -91 553 -190 643 -221 l163 -56 243 189 243
189 6 114 c4 62 7 427 7 811 l0 697 215 0 216 0 302 147 c526 257 1327 659
1452 729 239 134 331 208 354 284 20 66 25 197 12 276 -23 133 -71 202 -175
254 -40 21 -68 42 -76 58 -6 14 -16 78 -21 141 -11 135 -29 215 -66 289 -14
28 -24 54 -22 57 6 6 334 22 617 31 l224 7 156 72 c332 153 416 205 452 280
26 53 23 86 -17 180 -35 81 -59 178 -79 310 -45 305 -89 394 -349 715 -147
180 -161 210 -96 210 50 0 154 38 218 80 165 109 266 310 280 560 24 429 -221
857 -564 986 -91 34 -215 43 -302 20 -199 -51 -360 -248 -410 -504 -28 -141
-40 -162 -94 -162 -34 0 -72 19 -152 75 -83 59 -134 83 -222 106 -91 23 -166
24 -251 4 -127 -30 -198 -82 -278 -201 -136 -205 -167 -379 -118 -675 81 -493
472 -834 853 -744 116 28 199 91 306 233 l40 53 13 -43 c23 -77 42 -235 45
-363 l2 -125 -240 -4 c-263 -4 -347 -17 -476 -72 -60 -26 -73 -28 -194 -27
-150 1 -252 16 -304 43 -41 21 -90 71 -215 218 -131 153 -216 210 -436 287
-139 49 -222 87 -297 136 -168 110 -418 160 -1013 204 -346 26 -420 56 -519
209 -23 35 -63 80 -88 100 -49 38 -259 144 -403 203 -94 39 -142 72 -276 190
-155 136 -191 160 -259 167 -73 8 -133 38 -275 137 -58 41 -139 91 -180 112
-89 45 -183 119 -345 271 -278 261 -362 317 -552 365 -81 21 -158 47 -288 96
-83 32 -262 71 -360 79 -52 5 -88 1 -141 -13z m301 -82 c33 -6 114 -32 180
-58 66 -27 197 -74 292 -105 113 -38 192 -70 231 -96 61 -39 311 -275 385
-363 39 -47 40 -50 22 -63 -10 -7 -63 -27 -119 -44 -300 -91 -432 -187 -534
-387 -26 -51 -51 -93 -55 -93 -5 0 -27 13 -50 28 -59 40 -114 60 -220 78 -50
9 -105 23 -120 31 -16 8 -105 88 -199 179 -93 90 -174 164 -180 164 -6 0 -8
-9 -4 -20 21 -68 23 -63 -20 -45 -64 27 -207 106 -231 128 -25 22 -29 56 -12
88 8 16 19 20 52 17 40 -3 42 -2 45 28 2 17 -10 64 -28 108 -46 117 -51 147
-30 194 23 50 141 176 196 208 71 42 230 51 399 23z m7087 -369 c163 -50 318
-198 416 -395 203 -408 118 -889 -183 -1034 -63 -31 -157 -48 -201 -37 -18 5
-31 20 -46 53 -37 83 -12 199 97 458 30 69 39 107 43 165 6 101 -17 151 -117
250 -136 136 -218 154 -391 86 -111 -44 -213 -59 -223 -32 -8 21 35 160 79
252 57 121 137 194 259 236 69 24 186 23 267 -2z m-8622 -136 c140 -2 286 -9
323 -14 144 -22 355 -114 665 -292 123 -70 452 -281 452 -289 0 -3 -60 -29
-132 -57 -315 -122 -447 -273 -538 -616 -33 -126 -70 -322 -70 -375 0 -70 -8
-71 -123 -15 -149 75 -242 150 -512 414 -132 130 -269 260 -305 290 -100 82
-185 112 -164 57 3 -9 36 -40 73 -69 36 -29 112 -97 169 -152 l103 -100 -63
-18 c-35 -10 -82 -25 -105 -33 -110 -42 -177 -290 -115 -427 27 -61 91 -130
167 -181 96 -64 115 -85 115 -128 0 -21 -18 -88 -41 -151 -61 -172 -83 -314
-83 -543 -1 -204 -5 -171 85 -629 21 -109 46 -253 55 -321 14 -109 14 -126 1
-152 -36 -68 -120 -112 -230 -120 -122 -9 -228 28 -377 132 -128 90 -340 185
-413 185 -80 1 -270 95 -360 178 -58 55 -82 123 -75 217 5 61 11 73 91 215 48
84 72 98 151 86 59 -9 95 -38 80 -63 -6 -10 -23 -21 -38 -25 -14 -5 -38 -11
-53 -16 -18 -4 -29 -15 -31 -28 -7 -49 49 -38 253 49 83 35 183 75 224 88 107
34 135 64 150 159 6 41 16 143 21 226 13 203 3 283 -69 569 -67 266 -91 451
-91 693 0 241 39 512 75 526 20 7 20 99 -1 230 -21 132 -16 195 23 279 50 106
145 196 243 228 14 5 68 6 120 3 52 -3 210 -7 350 -10z m2892 -286 c87 -40
262 -174 273 -209 3 -10 -1 -30 -11 -44 -9 -14 -14 -25 -11 -25 3 0 45 9 93
21 143 34 171 22 334 -136 126 -122 164 -148 297 -201 110 -44 363 -165 363
-174 0 -4 -37 -12 -82 -19 -107 -16 -297 -65 -418 -107 -313 -108 -560 -260
-750 -460 -182 -192 -263 -364 -295 -621 -9 -71 -21 -83 -88 -92 -31 -4 -58
-6 -60 -4 -5 4 20 195 33 258 34 162 131 381 227 511 84 111 252 268 385 357
146 98 292 166 454 212 141 40 176 59 130 71 -64 16 -250 -38 -431 -126 -169
-81 -321 -192 -500 -366 -130 -126 -147 -135 -259 -145 -116 -11 -164 -28
-235 -81 -76 -57 -201 -185 -245 -253 -56 -84 -64 -87 -209 -83 l-124 3 -54
38 c-30 21 -93 68 -141 105 -149 116 -417 242 -513 242 -74 0 -70 -42 5 -54
47 -7 263 -114 382 -189 48 -31 118 -81 155 -113 38 -31 92 -68 122 -82 49
-23 61 -24 146 -18 98 7 97 8 130 -39 23 -34 40 -17 184 185 102 143 183 207
310 244 69 20 141 21 141 2 0 -7 -22 -69 -50 -138 -60 -152 -96 -275 -106
-358 -4 -41 -12 -64 -22 -67 -27 -11 -165 37 -230 79 -47 30 -66 38 -74 30
-24 -24 119 -132 241 -181 93 -39 93 -51 -10 -151 -95 -94 -158 -135 -193
-126 -13 3 -90 53 -172 111 -213 152 -287 183 -534 226 -80 13 -169 49 -236
94 -75 49 -242 131 -326 159 -84 29 -89 35 -119 163 -39 162 -11 419 75 689
79 249 336 426 687 474 148 20 194 3 383 -147 87 -68 145 -93 217 -93 64 0
190 25 305 60 123 38 153 38 206 0 48 -35 88 -40 88 -11 0 29 -53 68 -110 80
-70 15 -110 14 -212 -6 -49 -9 -91 -13 -95 -10 -10 11 10 47 66 115 67 83 68
112 2 78 -39 -21 -106 -96 -135 -153 -13 -27 -32 -55 -41 -63 -40 -33 -179 1
-205 51 -10 17 -5 33 23 92 48 101 114 186 194 250 159 128 304 179 488 174
83 -3 111 -8 157 -29z m4568 -44 c224 -52 436 -296 526 -604 35 -118 44 -311
20 -429 -34 -169 -118 -309 -229 -384 -77 -52 -90 -38 -31 33 55 66 99 154
115 229 7 36 10 117 6 226 -4 147 -9 186 -35 287 -58 224 -184 435 -306 513
-119 76 -356 123 -356 70 0 -8 13 -16 33 -19 205 -28 255 -47 347 -133 139
-128 237 -341 275 -598 19 -130 19 -206 -1 -303 -19 -93 -47 -158 -108 -247
-26 -37 -49 -78 -52 -90 -8 -31 -51 -38 -143 -25 -269 38 -499 275 -589 609
-23 85 -26 115 -26 271 -1 195 6 235 62 342 41 81 139 191 196 220 90 47 189
58 296 32z m1031 -42 c42 -27 131 -121 177 -189 34 -48 29 -106 -15 -189 -80
-151 -130 -339 -140 -524 -6 -120 3 -154 38 -155 18 0 38 -20 84 -81 33 -45
103 -132 156 -195 202 -240 263 -370 289 -611 17 -158 45 -262 96 -357 l45
-83 -39 -47 c-44 -52 -122 -103 -196 -127 -28 -9 -107 -44 -176 -77 -170 -81
-302 -101 -735 -114 -166 -4 -203 -3 -219 9 -26 20 -17 52 34 119 71 94 43
100 -53 10 -27 -25 -55 -58 -63 -73 -8 -15 -20 -28 -26 -28 -6 0 -104 94 -217
209 -220 223 -279 270 -380 301 -148 46 -432 48 -551 4 -27 -10 -90 -18 -158
-22 -123 -5 -141 -14 -106 -54 17 -18 26 -20 94 -15 41 4 129 20 195 36 212
51 230 50 156 -8 -81 -64 -204 -111 -241 -91 -11 6 -20 15 -20 20 0 20 -31 9
-42 -15 -15 -32 10 -71 52 -80 16 -4 32 -11 35 -16 4 -5 -29 -82 -71 -171
-105 -223 -124 -281 -134 -410 -4 -59 -13 -114 -19 -122 -35 -43 -19 -292 25
-383 35 -73 71 -93 166 -93 84 0 100 10 123 76 26 75 -4 85 -58 19 -33 -40
-43 -45 -78 -45 -71 0 -119 73 -140 214 -14 94 -4 136 46 196 39 47 41 57 20
118 -14 38 -14 50 0 110 18 78 140 335 208 438 95 145 206 222 331 231 163 12
221 -22 473 -281 216 -221 296 -321 332 -416 81 -212 74 -478 -18 -716 -48
-123 -99 -202 -191 -294 -69 -70 -102 -94 -180 -133 -215 -108 -438 -116 -613
-24 -135 71 -278 226 -358 387 -73 149 -107 180 -199 180 -67 0 -119 -27 -167
-87 -87 -109 -137 -150 -210 -173 -117 -36 -343 -39 -389 -5 -15 10 -19 26
-19 67 0 67 -17 70 -62 8 -76 -102 -93 -118 -175 -159 -109 -56 -120 -66 -85
-82 35 -16 119 2 197 41 70 35 110 43 143 31 35 -14 43 -49 25 -120 -41 -159
-213 -303 -436 -363 -100 -26 -269 -34 -391 -18 -124 16 -159 17 -163 6 -3
-10 3 -14 76 -48 26 -13 49 -28 49 -33 0 -6 -35 -25 -78 -42 -85 -35 -161 -82
-240 -148 -64 -53 -201 -144 -340 -227 l-110 -66 -272 -4 c-149 -2 -275 -7
-279 -11 -4 -4 1 -16 11 -28 26 -28 7 -39 -65 -39 -124 0 -166 30 -245 171
-98 174 -159 319 -201 479 -64 240 -28 616 61 650 15 6 52 10 83 10 76 0 174
24 235 58 103 55 225 208 285 355 24 59 26 74 31 317 8 321 0 305 154 319 92
9 131 25 245 104 101 70 143 127 92 127 -23 0 -41 -11 -147 -87 -86 -61 -106
-68 -239 -84 -75 -9 -106 -9 -121 0 -19 10 -164 276 -162 298 1 23 230 183
263 183 26 0 68 -43 125 -127 45 -68 74 -93 108 -93 45 0 25 37 -96 185 l-90
110 59 27 c93 42 112 41 166 -11 82 -78 236 -351 238 -420 1 -32 -5 -39 -61
-81 -34 -25 -111 -76 -173 -115 -129 -81 -181 -132 -220 -218 -40 -88 -45
-107 -26 -107 18 0 20 -15 6 -56 -21 -61 -50 -273 -50 -364 0 -103 12 -182 62
-418 29 -137 31 -156 19 -190 -20 -56 -79 -152 -180 -297 -87 -123 -111 -168
-98 -182 28 -28 240 253 317 421 43 94 96 149 187 194 113 58 261 91 264 60 1
-7 1 -46 -1 -85 -4 -124 39 -81 85 85 48 176 99 258 311 504 138 160 179 225
165 261 -7 18 -15 25 -26 21 -8 -3 -15 -9 -15 -14 0 -27 -267 -330 -292 -330
-24 0 -239 110 -233 120 3 5 11 10 16 10 26 0 160 74 203 111 93 82 192 262
222 404 22 105 22 310 1 431 -21 114 -86 303 -122 350 -22 28 -24 38 -15 49 7
8 22 15 35 15 12 0 37 11 56 25 139 102 214 139 312 153 38 5 53 12 55 25 4
20 -21 22 -100 6 -103 -21 -179 -51 -259 -105 -45 -30 -87 -54 -94 -54 -22 0
-127 86 -220 180 -101 103 -101 95 -4 145 25 13 81 56 125 96 95 87 166 122
244 122 72 0 121 -22 244 -111 137 -100 182 -96 89 9 -89 98 -206 153 -323
152 -89 -1 -142 -24 -295 -128 -71 -48 -156 -101 -190 -117 -65 -31 -92 -32
-205 -2 -34 9 -90 14 -147 12 -50 -1 -95 1 -100 5 -11 12 24 35 72 48 60 17
109 44 165 94 85 76 149 93 377 104 154 7 185 12 170 28 -13 12 -204 15 -323
4 -143 -13 -196 -30 -244 -76 -20 -19 -65 -46 -100 -61 -128 -52 -190 -96
-190 -135 0 -17 -24 -40 -129 -124 -90 -73 -167 -194 -222 -350 -32 -91 -75
-185 -85 -185 -3 0 -31 17 -62 38 -70 47 -115 72 -214 116 -129 57 -134 99
-50 351 l47 140 39 3 c57 5 192 -15 231 -34 45 -21 70 -15 70 16 0 39 -68 71
-173 81 -47 5 -90 13 -96 19 -15 15 52 87 194 212 140 122 251 194 397 258
202 89 375 138 602 171 l152 21 17 -23 c35 -50 85 -99 132 -129 58 -37 172
-79 215 -80 17 0 53 -12 80 -27 46 -25 61 -27 188 -31 l137 -4 0 -112 c0 -79
6 -134 19 -185 11 -41 17 -81 13 -90 -3 -9 -27 -42 -54 -74 -70 -85 -61 -119
15 -56 74 61 98 147 78 279 -7 41 -14 102 -18 135 -5 58 -4 61 21 73 43 19
182 14 338 -13 149 -25 248 -54 333 -98 56 -28 60 -24 -49 -47 -91 -20 -225
-104 -202 -127 3 -3 40 8 83 23 74 28 86 29 228 27 254 -2 390 -35 522 -124
27 -18 168 -151 314 -296 146 -145 271 -263 278 -263 16 0 14 22 -5 48 -23 33
-10 42 58 42 77 0 159 -21 268 -71 48 -21 93 -39 99 -39 17 0 13 26 -9 71 -12
22 -18 44 -15 49 8 13 90 38 179 55 114 22 365 35 480 25 87 -7 109 -13 193
-54 163 -79 301 -185 330 -253 23 -57 53 -70 74 -32 17 33 -13 98 -74 159 -29
29 -102 90 -162 135 -186 137 -217 191 -234 392 -6 65 -20 150 -31 188 -53
174 -54 176 -36 278 9 52 16 125 17 163 2 106 6 114 82 156 68 37 397 294 397
310 0 4 -12 8 -28 8 -35 0 -105 -47 -212 -144 -103 -93 -194 -156 -226 -156
-19 0 -25 9 -38 53 -25 86 -66 260 -62 265 2 2 26 -13 54 -32 27 -20 54 -36
59 -36 5 0 17 -6 27 -13 17 -12 17 -16 2 -51 -23 -56 -21 -76 8 -76 39 0 56
25 56 81 0 70 -21 104 -87 141 -99 56 -163 135 -163 202 0 37 38 57 127 67 61
7 97 18 168 53 110 55 151 59 216 18z m-8376 -1029 c157 -145 305 -266 428
-349 137 -93 174 -129 182 -179 12 -73 14 -80 42 -113 22 -25 42 -36 88 -47
76 -17 252 -91 370 -154 99 -54 149 -71 300 -101 185 -36 232 -58 453 -208
l204 -137 -5 -35 c-2 -19 -14 -71 -26 -115 -16 -56 -24 -122 -28 -217 -3 -76
-8 -138 -10 -138 -3 0 -131 78 -286 173 -155 96 -394 243 -532 327 -1077 659
-1478 913 -1524 965 -97 110 -67 330 52 392 46 23 107 42 144 42 27 1 49 -15
148 -106z m3838 -588 c96 -33 167 -79 248 -158 251 -247 373 -672 289 -1003
-44 -171 -153 -315 -288 -382 -75 -36 -78 -37 -191 -37 -107 1 -122 3 -197 33
-90 36 -124 62 -124 96 0 36 64 156 115 214 56 62 152 132 217 156 79 29 158
131 158 205 0 37 -12 66 -68 158 -23 40 -59 112 -79 159 -46 111 -108 176
-189 200 -80 23 -431 16 -488 -10 -21 -9 -40 -15 -43 -13 -7 7 74 164 118 228
84 125 191 177 359 178 76 0 109 -4 163 -24z m-3465 -303 c97 -59 230 -139
294 -177 79 -47 118 -77 120 -90 2 -11 0 -249 -4 -530 -10 -738 -14 -2022 -6
-2030 13 -13 117 29 613 247 396 174 362 163 444 143 38 -9 125 -34 193 -55
l123 -38 0 -108 c0 -60 -7 -167 -14 -237 l-14 -128 -221 -111 c-226 -113 -326
-170 -326 -187 0 -23 238 -104 1230 -416 1254 -395 1731 -550 1830 -593 25
-10 51 -27 59 -36 7 -9 20 -16 29 -16 14 0 15 86 8 825 -4 503 -3 825 3 825 5
0 80 -44 167 -97 331 -202 418 -252 490 -284 l74 -33 0 -115 c0 -425 -39
-1483 -56 -1523 -3 -7 -96 -82 -207 -167 l-201 -155 -191 64 c-104 35 -284 97
-400 136 -115 40 -435 150 -710 244 -275 94 -720 247 -990 340 -269 92 -649
223 -842 289 -194 67 -510 175 -702 241 -192 66 -354 120 -360 120 -15 0 -89
-35 -856 -410 l-230 -112 -156 52 c-86 28 -178 64 -206 80 -46 27 -51 32 -57
76 -3 26 -6 140 -6 253 l0 206 133 57 c72 32 265 115 427 186 l295 129 11 679
c7 373 15 1103 19 1622 5 518 10 942 12 942 3 0 84 -48 181 -108z m3066 -98
c26 -10 19 -31 -21 -63 -86 -70 -229 -171 -242 -171 -20 0 -71 50 -71 70 0 9
19 34 43 57 81 79 226 132 291 107z m-673 -73 c76 -29 135 -70 228 -157 208
-195 323 -469 323 -764 -1 -224 -65 -404 -192 -531 -91 -92 -156 -122 -280
-127 -83 -4 -105 -1 -175 23 -266 89 -477 350 -557 690 -30 129 -30 317 0 440
58 231 188 396 351 442 68 19 232 10 302 -16z m-1721 -249 c127 -74 540 -321
775 -465 l190 -116 39 -116 c75 -225 167 -380 311 -520 45 -44 110 -96 144
-115 35 -19 74 -44 87 -55 l25 -20 -20 -117 c-11 -64 -25 -185 -31 -270 -16
-224 -2 -277 145 -589 51 -108 101 -218 110 -245 21 -64 63 -106 139 -140 83
-38 178 -38 295 -1 67 22 114 29 245 37 262 15 351 48 571 210 112 83 215 145
353 214 114 57 209 93 219 82 4 -3 11 -95 16 -204 10 -222 5 -1351 -6 -1368
-5 -8 -35 -3 -104 18 -204 63 -1008 316 -1438 453 -530 168 -916 292 -1100
352 -110 36 -217 70 -238 76 -22 7 -40 17 -40 22 -2 17 90 72 276 166 98 49
180 95 182 102 2 6 6 132 10 278 l6 267 -153 50 c-84 28 -181 58 -214 67 l-62
17 -138 -56 c-77 -30 -285 -120 -464 -200 l-325 -144 -8 51 c-10 59 -1 2305 9
2354 l6 33 47 -27 c25 -14 89 -51 141 -81z m2635 -902 c160 -64 363 -170 452
-237 l31 -24 -39 -91 c-63 -148 -73 -157 -195 -176 -39 -7 -105 -26 -145 -43
-41 -17 -89 -34 -107 -36 -58 -9 -96 32 -128 136 -30 98 -44 461 -19 501 10
16 59 6 150 -30z m4184 -225 c42 -21 100 -93 112 -137 5 -21 14 -94 19 -161
l9 -122 -52 -48 c-95 -89 -151 -123 -482 -299 -647 -343 -1439 -724 -1590
-764 -176 -48 -416 24 -754 225 -164 98 -365 234 -363 246 1 6 62 25 135 43
210 52 350 129 449 249 58 70 84 123 105 214 19 86 30 94 143 109 182 24 236
50 374 179 52 49 108 93 125 99 27 10 34 8 61 -15 40 -33 76 -87 136 -201 110
-212 286 -363 480 -412 261 -67 572 32 775 246 105 112 169 228 224 409 34
114 50 155 61 155 3 0 18 -7 33 -15z"/>
<path d="M4120 8214 c-14 -2 -59 -9 -100 -15 -104 -16 -200 -46 -200 -64 0
-21 62 -19 183 6 135 29 295 31 356 6 41 -17 45 -17 60 -2 15 15 14 17 -4 31
-10 8 -35 19 -55 24 -40 11 -202 21 -240 14z"/>
<path d="M10955 8273 c-38 -9 -40 -23 -3 -23 202 0 394 -146 504 -385 65 -141
114 -357 114 -505 0 -165 -36 -278 -126 -400 -66 -89 -54 -109 19 -30 101 110
150 248 149 420 -2 350 -187 766 -385 867 -87 43 -214 70 -272 56z"/>
<path d="M2311 7960 c-63 -65 -117 -100 -158 -100 -29 0 -116 -45 -145 -75
-33 -33 -37 -65 -8 -65 11 0 49 20 85 45 36 24 82 47 102 50 82 13 111 26 148
66 40 45 80 123 70 139 -12 19 -28 9 -94 -60z"/>
<path d="M2047 7111 c-104 -124 -130 -598 -52 -952 58 -262 155 -499 205 -499
30 0 35 -18 -74 268 -80 212 -132 467 -142 707 -6 139 1 177 70 405 15 46 25
89 23 94 -2 5 -15 -6 -30 -23z"/>
<path d="M2294 5119 c8 -177 14 -219 32 -243 11 -15 17 -17 26 -8 9 9 7 42
-10 144 -12 73 -24 157 -28 186 -4 29 -11 55 -17 59 -7 4 -8 -41 -3 -138z"/>
<path d="M2065 5065 c-4 -55 -12 -98 -19 -104 -7 -6 -55 -15 -106 -20 -51 -6
-97 -14 -103 -20 -21 -21 7 -31 90 -31 133 0 183 35 183 130 0 46 -18 128 -30
135 -4 3 -11 -38 -15 -90z"/>
<path d="M10802 7657 c-13 -15 8 -54 66 -124 42 -52 67 -57 58 -12 -9 49 -36
97 -68 124 -34 29 -41 30 -56 12z"/>
<path d="M6534 6936 c-3 -9 -3 -23 0 -32 6 -16 18 -16 87 1 19 5 33 0 57 -20
40 -33 87 -39 87 -10 0 29 -77 64 -158 72 -56 5 -68 3 -73 -11z"/>
<path d="M6880 6871 c-61 -19 -87 -41 -108 -90 -30 -69 -46 -146 -34 -167 8
-15 11 -14 27 9 9 15 29 59 44 99 28 77 39 87 119 108 42 11 56 33 26 44 -20
7 -42 7 -74 -3z"/>
<path d="M6130 6780 c0 -25 70 -76 175 -128 120 -59 235 -89 235 -62 0 13 -77
49 -103 50 -26 0 -122 51 -207 109 -80 55 -100 62 -100 31z"/>
<path d="M7240 6760 c-43 -23 -95 -77 -103 -108 -3 -13 -1 -37 5 -53 16 -45
41 -34 55 26 9 38 22 59 53 85 59 51 53 83 -10 50z"/>
<path d="M5874 6555 c-9 -24 15 -82 68 -161 60 -90 108 -119 162 -98 20 8 21
24 1 24 -29 0 -93 39 -123 76 -17 20 -35 57 -42 83 -18 75 -52 113 -66 76z"/>
<path d="M8031 6089 c-39 -15 -9 -36 103 -70 178 -55 272 -105 446 -234 138
-103 160 -118 167 -111 16 16 -154 159 -307 259 -101 65 -202 116 -288 146
-68 23 -85 25 -121 10z"/>
<path d="M11490 5840 c-6 -11 -14 -63 -17 -113 -3 -61 -12 -106 -25 -134 -20
-43 -30 -49 -121 -68 -30 -6 -32 -22 -5 -39 22 -13 88 7 126 39 39 33 64 111
70 223 5 98 -6 134 -28 92z"/>
<path d="M7469 5837 c-28 -22 -100 -120 -126 -171 -67 -133 -113 -333 -113
-497 0 -94 17 -214 35 -248 l12 -25 12 23 c8 14 16 108 21 249 12 321 33 411
135 577 30 50 55 93 55 98 0 10 -13 8 -31 -6z"/>
<path d="M10185 5719 c-11 -17 23 -36 145 -79 183 -66 292 -91 415 -97 87 -4
118 -2 148 11 63 26 35 36 -100 36 -142 0 -171 6 -415 86 -179 58 -184 59
-193 43z"/>
<path d="M11634 5476 c-28 -20 -97 -122 -92 -136 8 -26 128 102 128 137 0 17
-10 17 -36 -1z"/>
<path d="M6080 5414 c0 -9 9 -27 20 -41 11 -15 27 -49 35 -78 18 -61 38 -91
53 -81 29 18 -1 132 -48 184 -31 34 -60 42 -60 16z"/>
<path d="M8739 5359 c-25 -45 -49 -74 -95 -108 -80 -61 -108 -95 -144 -175
-42 -93 -120 -332 -127 -390 -5 -43 -4 -48 13 -44 31 6 60 62 105 201 67 208
83 239 193 356 106 114 129 148 124 189 -6 50 -34 38 -69 -29z"/>
<path d="M8765 5170 c-5 -8 -13 -132 -19 -276 -13 -349 4 -558 41 -520 11 11
7 745 -4 781 -7 22 -11 26 -18 15z"/>
<path d="M7490 4610 c0 -13 32 -42 100 -90 110 -78 119 -88 150 -174 23 -61
53 -100 73 -93 7 2 13 25 15 51 4 66 -27 127 -107 206 -99 97 -231 155 -231
100z"/>
<path d="M5898 4071 c-53 -62 -106 -160 -135 -246 -21 -66 -26 -100 -27 -190
-1 -94 2 -115 20 -145 11 -19 27 -35 35 -35 11 0 14 28 16 160 2 179 2 180 92
364 28 57 51 110 51 118 0 23 -17 14 -52 -26z"/>
<path d="M5705 3210 c-16 -26 53 -170 113 -233 36 -37 120 -61 185 -53 96 13
197 66 197 103 0 23 -50 14 -108 -19 -124 -71 -244 -17 -308 137 -26 64 -62
93 -79 65z"/>
<path d="M6253 6123 c3 -5 32 -15 63 -22 32 -7 88 -26 126 -41 213 -87 339
-279 435 -665 24 -95 27 -130 27 -255 0 -134 -2 -150 -27 -213 -14 -37 -49
-101 -78 -141 -66 -94 -60 -121 9 -46 102 109 132 198 132 391 0 295 -88 582
-238 778 -107 140 -221 208 -367 218 -57 4 -86 3 -82 -4z"/>
<path d="M5186 5651 c-15 -6 -4 -12 49 -25 148 -37 277 -117 354 -218 86 -114
184 -361 216 -542 21 -125 20 -284 -4 -379 -24 -91 -37 -118 -89 -181 -22 -27
-43 -57 -45 -67 -9 -34 29 -21 68 22 75 84 135 255 135 390 0 151 -68 447
-140 606 -82 180 -221 327 -353 372 -63 22 -164 34 -191 22z"/>
</g>
</svg>
