<svg xmlns="http://www.w3.org/2000/svg" width="1092" height="602"><path fill="#FEFEFE" d="M0 0h1092v602H0z"/><path fill="#0E0E0E" d="m983.75 15.625 2.594-.074c6.27-.029 11.244 1.215 16.656 4.449 2.375 2.438 2.375 2.438 4 5l1.402 2.078c2.144 3.921 3.428 7.988 4.785 12.235l.827 2.533q.999 3.075 1.986 6.154c3.485-1.276 6.303-2.775 9.313-4.937 7.532-5.148 14.987-7.204 24.062-7.313l3.898-.078c5.83.513 9.608 2.641 13.352 7.078 9.36 11.397 11.834 24.504 12.5 39l.339 5.885c.233 4.155.434 8.312.64 12.469a3169 3169 0 0 0 .887 17.028A410 410 0 0 0 1084 148.75l.503 3.785c.876 6.36.876 6.36 2.532 12.544 3.196 9.675 2.463 22.285-1.91 31.421A120 120 0 0 1 1081 203l-1.152 1.718c-6.702 9.834-14.824 19.457-26.977 21.915-20.476 2.935-20.476 2.935-29.223-1.723-2.93-1.007-5.447-.995-8.523-.937-11.196.14-16.851-4.298-25.14-11.369-3.76-3.038-7.898-5.537-12.027-8.041-5.054-3.214-8.999-7.192-10.673-13.075l-.222-2.175c-.66-3.743-.773-4.091-4-6.563L960 181c-3.267-4.12-3.4-7.874-3.25-12.937l.016-2.092c.045-3.01.22-5.893.746-8.858.68-4.339.593-8.604.55-12.988l-.013-2.664q-.02-3.23-.049-6.461c-12.613 7.54-24.168 16.014-35.574 25.278-13.512 10.944-27.942 19.696-43.004 28.331q-5.91 3.395-11.797 6.828l-2.107 1.215c-5.21 3.044-9.762 6.176-13.518 10.973-9.167 10.728-22.609 19.677-35.832 24.383-9.69 3.538-18.308 8.275-26.992 13.784-7.393 4.653-14.894 8.758-22.778 12.518-1.836.878-3.665 1.77-5.494 2.665-21.842 10.572-21.842 10.572-32.427 10.591-2.49.436-3.924 1.136-6.125 2.329-4.73 2.462-9.363 3.396-14.602 4.23l-3.076.506c-10.322 1.553-20.667 2.05-31.08 2.542-9.62.456-19.161 1.018-28.719 2.264l-2.649.335c-7.474 1.05-14.643 2.925-21.476 6.166-18.197 8.168-35.579 7.717-54.623 2.861-14.936-3.665-28.599-2.582-43.127 2.201l-3.496 1.016c-6.412 1.868-12.546 3.956-18.504 6.984l-2.246 1.094c-10.938 5.89-20.387 15.69-28.281 25.18-1.592 1.866-3.284 3.571-5.036 5.288l-1.722 1.762C462 338 462 338 460.19 339.394c-2.064 1.807-3.034 3.094-4.191 5.606a68 68 0 0 0 .246 7.691l.168 2.268c.178 2.348.379 4.694.586 7.041l.189 2.189a1485 1485 0 0 0 1.584 17.011c1.81 18.497 2.02 34.297-5.52 51.695-2.242 5.556-3.724 11.32-5.253 17.105l-1.219 4.55c-1.074 4.033-2.129 8.07-3.174 12.11a1732 1732 0 0 1-1.744 6.652c-1.855 7.123-3.357 14.189-4.363 21.489-.53 3.387-1.278 6.675-2.062 10.012-1.173 5.207-1.678 10.131-1.875 15.437-.348 8.175-2.019 16.068-7.793 22.262-13.44 11.303-31.835 17.753-48.895 20.738-15.552 3.032-28.838 10.27-39.75 21.813-6.784 6.944-14.558 12.24-24.5 12.625-5.32-.328-8.196-1.847-12.625-4.688-5.146-1.708-10.585-2.224-15.937-2.937-15.626-2.247-15.626-2.247-18.458-5.825-1.04-2.046-1.842-4.075-2.605-6.238-1.981-4.207-1.981-4.207-4.687-7.937-2.002-3.146-1.701-5.397-1.313-9.063 1.623-2.204 3.04-3.845 5-5.687 3.797-3.729 6.652-7.258 9.469-11.782 5.292-8.122 12.126-14.596 19.031-21.343q1.941-1.924 3.879-3.85c11.109-11 11.109-11 17.005-15.884 1.661-1.409 1.661-1.409 2.943-3.16 2.312-2.924 3.845-4.125 7.566-4.885 3.624-.31 7.22-.448 10.857-.534 22.115-.319 22.115-.319 41.25-9.875 2.807-5.168 3.52-10.39 3.438-16.187l-.023-2.329c-.541-19.68-6.804-38.423-14.478-56.359l-.958-2.29c-1.93-4.337-3.568-7.644-7.979-9.835-4.461-.494-8.303-.063-12.147 2.346-2.034 1.728-3.883 3.539-5.728 5.466l-1.93 1.909a226 226 0 0 0-7.328 7.603c-5.82 5.223-13.686 4.007-20.992 3.988l-3.844.05c-7.829.003-14.625-.814-22.031-3.362l-2.745-.941c-12.06-4.303-20.041-12.418-25.692-23.747-4.206-8.074-8.53-10.302-16.875-13.187-10.07-3.523-17.512-9.255-24.365-17.3-1.543-1.787-1.543-1.787-4.323-3.825-4.324.037-6.4.6-10 3a136 136 0 0 1-7.312 2l-2.145.535c-4.662 1.124-9.277 1.888-14.043 2.465-6.517.889-11.9 1.65-16.102 7.063-2.854 4.566-5.115 9.409-7.46 14.25-2.928 5.955-5.666 10.02-11.938 12.687-3.176.436-6.36.38-9.562.375l-2.724-.005c-6.906-.127-12.507-1.234-18.714-4.37l-2.047-.91C96.046 389.437 88.75 384.465 82 379l-2.848-2.094c-18.848-13.97-35.756-30.856-45.24-52.528-2.535-5.526-5.674-7.982-11.178-10.355l-1.984-.648C17 312 17 312 15 310c-1.046-7.336.54-14.46 2.219-21.574.702-3.079 1.202-6.116 1.656-9.238 2.433-13.38 12.385-20.88 22.469-28.97 2.365-1.975 4.514-4.006 6.656-6.218 4.642-4.776 9.77-8.888 15-13l1.906-1.54c13.274-10.205 32.996-12.615 49.194-12.802 3.857-.131 6.33-.334 9.728-2.267 2.616-2.88 4.529-5.922 6.36-9.328l1.154-2.105c9.929-18.379 18.654-37.676 25.72-57.333C165.154 123.417 179.354 101.737 201 91c6.063-2.55 12.355-4.47 18.625-6.437q2.475-.798 4.95-1.6a1381 1381 0 0 1 8.986-2.875Q236.788 79.07 240 78c2.845-.371 5.675-.585 8.54-.766 2.355-.16 4.706-.402 7.046-.718 3.786-.345 6.714-.423 10.414.484 3.852 3.493 6.28 7.606 9 12a103 103 0 0 0 3.688 4c11.97 13.495 15.117 33.579 14.312 51-.45 7.188-4.656 11.93-9.004 17.363-2.14 2.534-2.14 2.534-2.996 5.637 15.585 1.609 32.41-5.14 47.14-9.656 9.147-2.614 19.083-2.383 28.54-2.555l2.27-.043c3.077-.057 6.154-.112 9.231-.147 22.55-.278 45.756-4.978 65.819-15.599h2l.844-1.738C446.942 117.509 468.954 104.998 488 95l2.797-1.52c9.247-4.874 18.719-8.126 29.203-8.48l3.336-.156c18.789-.465 40.625 1.39 58.164 8.594 13.03 4.982 27.613 5.307 41.375 6.187q4.088.27 8.175.55 2.517.174 5.035.331c5.692.383 5.692.383 7.915 1.494 2.968.099 5.907.139 8.875.125l2.473.012 2.394-.004 2.183-.004c2.078-.066 2.078-.066 4.049-.625 11.02-2.743 24.497-.835 35.385 1.695 6.146 1.352 12.345 2.058 18.608 2.618 1.923.173 3.844.378 5.763.585 9.741.617 15.647-2.636 23.27-8.402l1.653-1.231a436 436 0 0 0 8.238-6.328C777.028 74.63 802.51 57.582 829 57.625l2.59-.004c6.99.11 13.668 1.12 20.535 2.379 32.86 5.872 65.361-4.948 92.64-23.842a157 157 0 0 0 14.434-11.627c7.634-6.491 14.647-8.891 24.551-8.906"/><path fill="#FCFCFC" d="M259 81c5.726 2.333 7.232 6.095 9.656 11.434 1.35 2.576 2.768 4.299 4.781 6.379 10.163 11.07 13.31 27.553 12.915 42.18-.879 7.515-3.97 13.75-9.352 19.007-5.9 4.133-10.678 5.038-17.75 5.25-5.846.299-11.215 1.29-16.812 3l-1.982.583c-5.32 1.739-9.709 4.327-12.698 9.187l-.633 1.792L226 183c3.856-2.103 6.891-4.598 10.059-7.598 4.769-3.444 9.928-3.727 15.629-3.652l2.222.012c5.616.085 11.138.594 16.715 1.238 18.355 2.026 31.787-.078 48.766-7.478 13.914-5.868 26.716-5.975 41.609-5.647 17.006.314 32.932.567 49.125-5.437l2.927-1.05c8.533-3.115 16.88-6.637 25.186-10.31l2.366-1.03q2.499-1.094 4.976-2.237c9.286-4.086 16.048-1.515 25.358 1.439l2.88.871c5.995 1.892 11.044 4.248 16.182 7.879-.75 3.823-.75 3.823-2.996 5.414l-2.442 1.211c-2.64 1.331-4.46 2.272-6.562 4.375v3c4.338-.572 7.201-2.172 10.875-4.5 8.237-4.862 8.237-4.862 13.125-4.5 20.181 6.98 34.565 26.804 43.773 45.016 8.373 20.371 3.271 41.861-4.663 61.414-7.992 18.507-18.605 27.08-36.985 34.445C489.328 301.846 478.479 310.112 467 321a702 702 0 0 1-5.187 4.688l-2.168 1.949C458 329 458 329 457 329l.219-2.543c.602-7.8.913-15.571.969-23.394l.039-2.652c.008-5.503-.78-10.109-2.227-15.411v-4l3.184-.367c7.377-.873 14.596-1.828 21.816-3.633v-2l-2.246.219c-3.583.315-7.164.56-10.754.781l-2.107.144c-10.086.624-17.468.195-25.893-6.144-2-2-2-2-2.34-4.738.41-3.932 1.68-6.118 3.777-9.45 2.654-4.23 2.654-4.23 4.563-8.812-5.867 4.31-8.826 8.721-12.129 15.195-2.194 3.288-4.237 5.307-7.871 6.805-3.933.56-7.826.51-11.793.469l-3.46.021c-4.868.03-9.735.013-14.603 0-3.562-.002-7.124.02-10.687.041l-3.284-.034c-9.503.062-17.34 2.666-25.61 7.3C343.98 283.53 334.26 286.899 320 285c-1.13-.15-2.258-.3-3.422-.453q-2.899-.464-5.777-1.035c-4.892-.894-9.844-1.178-14.801-1.512l1 3 3.07.332 4.055.48 2.016.213c4.5.552 7.927 1.74 11.859 3.975v3l-8 1 1 3c9.553.478 18.58-1.234 26.988-5.937 2.261-1.195 4.587-2.185 6.94-3.18 4.131-1.761 8.224-3.61 12.322-5.445l2.719-1.21 2.61-1.17 2.356-1.052c2.287-1.057 2.287-1.057 5.065-3.006 2.565-.267 2.565-.267 5.674-.29l3.532-.04 3.825-.006 3.944-.02q4.14-.017 8.282-.015c3.509 0 7.017-.027 10.526-.061 3.374-.028 6.749-.027 10.123-.029l3.777-.043c8.386.043 16.91.716 23.524 6.4 7.881 8.146 8.262 16.789 8.106 27.604l-.026 3.8c-.1 7.721-.694 15.09-1.83 22.723-1.463 11.148-1.366 22.87 1.043 33.852 4.423 21.11.331 41.467-4.5 62.125l-.628 2.725c-1.65 7.084-3.576 14.06-5.727 21.01-.881 3.095-1.457 6.221-2.051 9.382-.736 3.573-1.63 7.1-2.531 10.633-2.52 9.934-4.65 19.92-6.5 30A613 613 0 0 1 425 523.563l-.467 2.235c-1.519 6.915-3.34 13.098-9.037 17.655-5.244 3.25-11.02 5.528-16.73 7.827a103 103 0 0 0-4.207 1.845c-2.977 1.018-5.828 1.411-8.94 1.811-24.791 3.202-42.311 15.224-60.47 31.642-6.205 5.361-6.205 5.361-11.024 5.672-3.394-1.358-5.025-2.262-7.125-5.25-.75-3.25-.75-3.25-1-6h-3l-.375 1.938L302 585c-2.478 1.239-4.237 1.167-7 1.188l-2.687.042C290 586 290 586 288 584c.265-4.66 1.59-7.311 4.438-10.937a159 159 0 0 0 8.19-11.733c4.647-7.29 9.561-12.909 16.372-18.33l2.547-2.121c2.796-2.32 5.62-4.602 8.453-6.879l3.785-3.059 3.965-3.191 1.86-1.501c4.034-3.233 8.16-6.277 12.39-9.249-5.863-.748-8.922.671-13.676 4.094-3.268 2.68-6.195 5.625-9.125 8.668-2.673 2.72-5.512 5.188-8.41 7.664-1.638 1.441-3.155 2.937-4.664 4.511C312 544 312 544 310 544l-.687 1.688c-1.677 2.954-3.886 4.943-6.313 7.312-2.687 3.034-4.693 6.18-6.687 9.688-4.394 7.44-10.348 15.503-18.313 19.312-3.812.313-3.812.313-7 0l-1-1c.316-5.954 2.2-9.72 5.375-14.562l1.344-2.095C281.377 557.21 286.55 550.542 292 544l2.238-2.742c4.367-5.125 9.14-9.284 14.523-13.287 4.59-3.42 8.97-7.042 13.301-10.784l1.913-1.634c3.398-2.952 6.33-5.917 9.025-9.553-6.35 3.052-11.272 6.816-16.406 11.617-2.579 2.369-5.238 4.568-7.969 6.758-13.068 10.631-23.586 21.726-32.828 35.941-2.08 3.105-4.317 5.894-6.797 8.684l-4-1c-.96-2.538-1.148-3.64-.102-6.191 5.86-9.41 12.949-17.598 20.373-25.785 1.995-2.2 3.963-4.423 5.925-6.653 27.083-30.612 27.083-30.612 48.46-32.035l3.196-.13c5.193-.34 10.156-1.514 15.21-2.706l2.612-.543c7.218-1.598 14.335-4.19 19.826-9.27 6.936-12.427 5.291-32.801 1.563-46.062-3.037-9.907-7.615-19.292-12.063-28.625a1298 1298 0 0 1-3-6.437l-1.125-2.372c-3.92-9.819-2.147-19.786 1.258-29.407 1.62-4.617 2.396-8.907 2.867-13.784-4.754 2.245-6.945 5.291-9 10-.978 3.443-1.631 6.914-2.25 10.438-.26 1.383-.26 1.383-.523 2.794q-.63 3.381-1.227 6.768l-3.07.043c-8.247-.113-8.247-.113-15.493 3.082a273 273 0 0 0-3.796 4.55c-6.5 7.88-14.65 13.352-24.983 14.61-2.415.117-4.803.131-7.22.09l-2.619-.029c-13.317-.307-26.74-1.803-36.444-11.784-2.972-3.579-4.825-7.49-6.75-11.687-3.015-6.458-6.178-9.825-12.625-12.875l-2.773-1.352a195 195 0 0 0-11.915-5.086c-7.464-3.52-12.113-8.332-17.097-14.816-2.513-3.116-5.17-6.01-7.965-8.871l-2.734-2.82c-2.491-2.477-2.491-2.477-6.516-2.055v4l7 2v4c-7.127 4.196-14.21 5.427-22.312 6.75l-3.862.668C166.546 358 166.546 358 163 358l.219-2.43c.314-3.854.57-7.709.781-11.57l.128-2.3c.937-11.807.937-11.807-3.616-22.286-2.356-2.203-4.692-3.84-7.512-5.414l1.094 1.652c5.37 8.726 4.456 14.65 2.219 24.41-2.049 8.438-4.579 16.7-7.313 24.938l-.996 3.129c-3.109 9.275-7.458 17.426-16.379 22.121-7.406 2.116-14.707.356-21.38-3.18C83.129 371.594 51.509 348.477 41 318l-1.04-2.765c-1.682-5.667-1.287-11.427-1.273-17.298l-.048-3.779c-.009-16.342 3.935-32.34 15.572-44.44L56 248l1.727-1.719c17.202-16.104 34.452-19.764 57.33-19.318 1.684.032 3.368.044 5.052.053 8.931.361 17.124 4.025 23.641 10.172 2.723 2.968 4.991 6.212 7.313 9.5 2.943 4.121 5.301 7.042 9.937 9.312l1.809.89c7.752 3.225 18.225 3.858 26.187 1.055 4.235-2.225 4.235-2.225 7.004-5.945l-10 1c-.61-8.779-.257-14.81 5-22l2.125-3.125c5.449-6.134 12.977-10.392 21.098-11.39 2.186-.388 2.186-.388 3.777-3.485-11.977 2.42-21.896 6.758-31.258 14.68C185 229 185 229 183 229l-2 5h-3c-5.372-8.058-4.746-18.915-3-28.062 2.49-10.075 7.638-19.222 13.063-28q1.482-2.46 2.937-4.938l1.785-3.027c5.423-10.237 6.918-20.516 8.39-31.934C202.886 124.823 206.8 112.254 212 100c-4.169 1.308-5.851 2.541-7.937 6.375-5.742 11.275-8.867 23.902-10.536 36.379-2.21 13.604-7.634 24.985-14.26 36.933-1.985 3.625-3.853 7.306-5.704 11l-.963 1.887c-3.882 7.741-5.882 13.593-5.787 22.238-.154 7.654-1.827 12.316-6.708 18.415C158 235 158 235 154 235c-2.734-1.54-2.734-1.54-5.75-3.625l-3.195-2.203C135.08 222.08 135.08 222.08 132 219c-.337-3.18-.445-5.233 1.18-8.035l1.695-2.028c8.894-12.02 14.162-26.552 19.088-40.548 10.081-28.44 22.428-56.578 50.537-70.889 8.276-3.894 17.15-6.202 25.957-8.572 5.96-1.648 10.77-3.413 15.868-6.911 3.898-2.367 8.347-1.7 12.675-1.017"/><path fill="#FBFBFB" d="M1046.055 40.566c5.423-.627 8.396 1.033 12.695 4.309 7.445 6.074 10.285 13.308 11.36 22.68.249 2.771.448 5.544.64 8.32q.167 2.093.34 4.184.332 4.08.629 8.161a663 663 0 0 0 .832 9.995c.427 5.072.638 10.132.79 15.22.763 30.085.763 30.085 9.659 58.565 1.38 12.453-2.999 19.688-10.5 29.063l-1.476 1.81c-3.164 3.906-5.737 7.76-7.829 12.357-1.678 2.485-3.537 3.41-6.195 4.77-2.577.372-2.577.372-5.324.363l-3.092.003-3.272-.054-3.369-.031c-30.414-.484-30.414-.484-40.005-7.531-1.938-2.75-1.938-2.75-2.625-6 1.531-8.353 8.121-14.635 13.539-20.879 4.794-6.407 6.85-11.725 6.648-19.746l-.048-2.407c-.522-13.976-8.9-24.172-17.796-34.417C1000 127 1000 127 1000 123c2.725-.908 4.622-1.184 7.45-1.316l2.568-.127 2.67-.12 2.705-.13q3.303-.159 6.607-.307v-3c-14.186-4.157-32.229-1.723-46 3l-1.94.617c-19.334 6.161-35.744 17.998-51.552 30.422-10.88 8.507-21.968 16.48-33.676 23.813-1.575.987-3.14 1.988-4.703 2.992-15.878 9.958-15.878 9.958-23.879 8.969L857 187c-3.328 4.094-6.132 8.056-8.312 12.875-6.126 12.761-17.655 21.33-30.688 26.125-2.393.563-4.54.836-7 1 .56-3.943 2.442-5.894 5.125-8.75l2.453-2.652L821 213c5.557-6.085 5.557-6.085 10-13-9.047 3.179-14.81 10.78-20.621 18.066-9.03 11.135-18.874 20.738-31.379 27.934l-2.379 1.426c-7.266 4.19-14.813 7.121-22.7 9.897-1.77.623-3.533 1.265-5.296 1.907-5.938 2.099-11.336 3.35-17.625 3.77 1.474-4.624 3.04-9.12 5-13.562 4.298-10.813 5.264-21.73 5.313-33.25l.016-2.855c-.058-5.77-.757-11.14-1.881-16.796-.61-3.45-.678-6.657-.635-10.162l.019-3.602C739 180 739 180 740 179c1.41-.18 2.827-.298 4.244-.389l2.73-.182 2.967-.183 3.023-.197q4.8-.31 9.598-.612 3.246-.21 6.49-.42 7.974-.514 15.948-1.017c-4.543-2.147-7.886-3.379-12.984-3.363l-3.336.002-3.43.048-3.383-.01c-6.326.041-12.252.556-18.438 1.896-2.524.444-4.872.499-7.429.427l-1.398-3.008c-5.166-10.852-11.217-20.499-18.899-29.762C714 140 714 140 714 138c33.42-.455 33.42-.455 46.125 2.8 7.918 2.009 15.34 2.521 23.5 2.575l3.142.042c7.46-.044 14.082-1.364 21.233-3.417a400 400 0 0 1 4-1v-2h-15c1.567-3.134 4.722-3.43 7.875-4.5 16.232-5.86 29.92-14.32 43.333-25.08C870.952 89.398 895.783 78.44 925 80l3.34.5c5.162.705 10.268.684 15.472.688l3.12.037c6.605.012 12.657-.64 19.068-2.225l3.477-.86c18.95-5.36 37.492-12.086 52.523-25.14 7.574-6.01 14.444-10.405 24.055-12.434"/><path fill="#FCFCFC" d="M536.11 92.63c2.49-.005 4.976-.041 7.464-.08 12.49-.086 23.81 1.542 35.426 6.45v3h-2l1 2c2.585.688 5.133 1.274 7.75 1.813 12.424 2.747 23.37 7.226 34.129 14 6.072 3.814 12.166 7.378 18.559 10.625l2.006 1.036c6.595 3.284 12.544 3.72 19.806 3.714l2.361.001c6.451-.056 12.763-.673 19.159-1.473 5.452-.674 10.73-.893 16.23-.716v2l1.637.656c3.19 1.814 5.615 4.255 8.176 6.844l1.611 1.629C719.38 154.39 726.854 166.972 730 181l.844 3.582c2.344 11.303 2.452 22.611 2.469 34.106l.01 2.406c.006 2.306-.005 4.612-.022 6.918l.002 2.078c-.07 4.952-.983 9.174-2.303 13.91l-.64 2.617c-2.137 7.915-5.69 16.991-13.099 21.341-12.1 5.574-27.585 5.333-40.636 6.542-19.746 1.835-39.04 3.644-57.625 11.09-16.975 6.585-34.009 6.882-50.895-.18A151 151 0 0 1 563 283c.583-3.625 1.572-6.402 3.313-9.625 9.295-18.137 16.283-43.552 10.5-63.875A88 88 0 0 0 575 205l-1.242-3.004c-1.889-5.35-1.889-5.35-5.758-8.996.235 1.482.49 2.96.75 4.438l.422 2.496c.728 2.697 1.598 4.548 2.879 6.988 2.927 6.407 2.493 12.971 2.387 19.89l.021 3.909c-.12 18.177-5.39 33.83-18.166 47.045-5.872 5.143-10.707 6.626-18.293 6.234 0-3.938.31-5.088 2.047-8.414l1.312-2.559 1.391-2.652c10.179-19.559 16.262-40.15 10.352-62.105-7.506-22.278-18.868-42.072-40.407-53.114a470 470 0 0 0-5.57-2.656l-3.003-1.424c-8.842-4.109-17.875-7.354-27.126-10.399-3.203-1.087-6.3-2.403-9.414-3.716-2.223-.827-4.418-1.516-6.695-2.172l-2.22-.648q-2.194-.63-4.4-1.216c-2.02-.581-2.02-.581-5.267-1.925-.965-2.156-.965-2.156-1-4 6.46-5.882 11.898-6.708 20.504-6.324 4.102.38 7.61.998 11.496 2.324l3.145.93c13.941 4.305 27.18 10.643 39.726 18.074 2.341 1.279 2.341 1.279 6.129.996-3.243-8.778-18.001-13.587-25.998-17.298A513 513 0 0 0 490 120v-2l2.371-1.242 3.067-1.633 3.058-1.617c2.605-1.265 2.605-1.265 3.504-3.508-4.968.962-9.368 2.078-14 4.125-4.667 1.951-8.97 2.76-14 1.875l-3-2v-3c9.59-9.057 24.381-12.873 36.973-15.558a100 100 0 0 0 4.081-.982c7.942-1.914 15.935-1.832 24.057-1.83"/><path fill="#F9F9F9" d="M995.563 23.438c5 3.205 9.063 7.068 11.437 12.562.43 3.136.37 6.275.375 9.438l.074 2.564c.019 3.903-.126 6.396-1.996 9.877-3.087 2.67-6.313 4.172-10.078 5.621l-2.255.893c-5.36 2.066-10.784 3.845-16.308 5.42l-2.043.59c-12.278 3.302-24.314 3.78-36.923 3.518-14.38-.266-27.964-.097-41.846 4.079l-2.29.65c-21.174 6.081-40.556 17.15-57.96 30.537-14.41 11.054-31.028 19.55-48.645 24.243-2.253.577-2.253.577-4.96 1.62-9.961 3.008-21.18.618-31.237-.91-8.575-1.238-17.09-1.553-25.741-1.796-21.475-.652-21.475-.652-24.167-3.344-2.52-.088-5.014-.115-7.535-.098l-2.283.005c-2.415.005-4.83.018-7.245.03q-2.45.008-4.9.014-6.018.017-12.037.049c-1.677-2.932-3.34-5.871-5-8.812l-1.445-2.526-1.367-2.432-1.27-2.237C657 111 657 111 657 108c3.95-1.287 7.954-1.18 12.063-1.203l2.385-.017q2.5-.015 5.003-.02c2.513-.01 5.025-.04 7.537-.073 13.54-.087 13.54-.087 19.957 1.813 7.645 2.243 15.395 1.876 23.293 1.781 2.653-.031 5.305-.04 7.957-.047l5.11-.03 2.377-.014c4.208-.054 8.173-.368 12.318-1.19v-2l-4-1c9.732-10.411 20.795-18.693 33-26l3.34-2.031c20.442-12.226 42.305-17.438 65.726-11.68 4.59 1.216 8.764 2.834 13.036 4.871 3.376 1.494 6.2 2.276 9.898 1.84 2.052-1.129 2.052-1.129 4.172-2.652 7.18-4.48 15.102-6.596 23.14-9.035q3.464-1.062 6.92-2.14 2.134-.666 4.274-1.31C918.374 56.666 921.6 55.183 925 53a398 398 0 0 1 5.108-2.183c12.344-5.332 23.245-12.35 33.497-21.02 10.135-8.485 19.55-13.018 31.957-6.36"/><path fill="#0D0D0D" d="M208 100h4c-.65 3.964-1.892 7.362-3.437 11.063-2.097 5.325-3.37 10.321-4.106 15.988C204 130 204 130 203.012 133.78a55 55 0 0 0-1.512 8.637c-1.767 17.661-9.256 31.771-18.742 46.52-7.248 12.628-9.113 25.765-6.488 39.898.816 2.419 1.803 3.528 3.73 5.164l1.129-2.223c5.604-8.319 20.167-16.456 29.844-18.363 2.356-.245 4.66-.404 7.027-.414-.754 1.95-.754 1.95-2 4-1.777.582-1.777.582-3.937.813-7.831 1.452-14.704 5.968-19.563 12.25A126 126 0 0 0 190 234l-1.812 2.688c-1.895 5.284-1.948 10.736-2.188 16.312l10-1c-1.37 4.107-3.269 5.01-7.02 6.973-9.613 3.313-20.175 1.576-29.28-2.434-3.964-2.26-6.156-4.82-8.7-8.539-7.029-9.147-13.529-17.17-25.426-19.469-8.461-.924-17.075-.707-25.574-.531l-3.336.05C81.073 228.768 66.734 238.058 56 249c-15.291 17.332-17.071 37.214-16.27 59.541.565 7.246 2.826 13.13 6.27 19.459l1.535 2.941C57.13 347.515 73.682 361.02 89 372l2.45 1.797c4.924 3.55 10.011 6.827 15.175 10.015l1.847 1.168c6.33 3.838 13.053 5.82 20.528 5.02 5.303-1.847 8.92-4.222 12-9l1.172-1.793c8.56-14.083 17.053-39.563 14.828-56.207-1.11-2.557-2.466-4.651-4-7v-2c5.485 1.567 8.022 5.07 11.129 9.672 1.314 3.513 1.164 7.004 1.121 10.703l-.012 2.398c-.104 7.203-1.013 14.129-2.238 21.227l2.152-.443c3.261-.67 6.523-1.332 9.786-1.995l3.384-.697c6.223-1.259 12.355-2.282 18.678-2.865l-1 5h-2v2c-7.135 2.234-13.933 4.114-21.375 5-9.279 1.245-9.279 1.245-16.227 7.063-2.854 4.566-5.115 9.409-7.46 14.25-2.928 5.955-5.666 10.02-11.938 12.687-3.176.436-6.36.38-9.562.375l-2.724-.005c-6.906-.127-12.507-1.234-18.714-4.37l-2.047-.91C96.046 389.437 88.75 384.465 82 379l-2.848-2.094c-18.848-13.97-35.756-30.856-45.24-52.528-2.535-5.526-5.674-7.982-11.178-10.355l-1.984-.648C17 312 17 312 15 310c-1.046-7.336.54-14.46 2.219-21.574.702-3.079 1.202-6.116 1.656-9.238 2.433-13.38 12.385-20.88 22.469-28.97 2.365-1.975 4.514-4.006 6.656-6.218 4.642-4.776 9.77-8.888 15-13l1.906-1.54c13.274-10.205 32.996-12.615 49.194-12.802 3.857-.131 6.33-.334 9.728-2.267 2.616-2.88 4.529-5.922 6.36-9.328l1.154-2.105c10.401-19.253 19.523-39.524 26.807-60.162 1.009-2.813 1.708-4.653 3.851-6.796h4c1.265 3.794.528 4.717-1.062 8.313l-1.405 3.23L162 151c-3.421 7.869-6.727 15.713-9.562 23.813-2.48 6.965-5.355 13.683-8.5 20.375l-1.212 2.61c-2.378 4.95-5.038 9.228-8.514 13.486-1.447 1.82-1.447 1.82-1.962 4.904 1.62 6.075 9.937 10.203 14.938 13.687l2.154 1.547 2.076 1.445 1.868 1.316c1.89 1.144 1.89 1.144 4.714-.183 4.255-3.93 7.07-8.303 7.465-14.14q.072-2.274.097-4.548c.292-15.522 8.079-27.497 15.385-40.808 6.124-11.249 10.574-22.393 12.436-35.121C195.326 126.347 198.329 109.67 208 100"/><path fill="#0F0F0F" d="M255.586 76.516c3.786-.345 6.714-.423 10.414.484 3.852 3.493 6.28 7.606 9 12a103 103 0 0 0 3.688 4c11.97 13.495 15.117 33.579 14.312 51-.45 7.188-4.656 11.93-9.004 17.363-2.14 2.534-2.14 2.534-2.996 5.637 15.585 1.609 32.41-5.14 47.14-9.656 9.147-2.614 19.083-2.383 28.54-2.555l2.27-.043c3.077-.057 6.154-.112 9.231-.147 22.55-.278 45.756-4.978 65.819-15.599h2l.844-1.738C446.942 117.509 468.954 104.998 488 95l2.797-1.52c9.247-4.874 18.719-8.126 29.203-8.48l3.336-.156c18.789-.465 40.625 1.39 58.164 8.594 13.03 4.982 27.613 5.307 41.375 6.187q4.088.27 8.175.55 2.517.174 5.035.331c5.692.383 5.692.383 7.915 1.494 2.713.232 5.408.42 8.125.563l2.285.13q2.795.158 5.59.307c-1 2-1 2-2 3-.907 5.31 2.008 9.35 4.5 13.813l1.3 2.388A701 701 0 0 0 667 128a2411.784 2411.784 0 0 1 14.252-.11q2.423-.015 4.844-.04c2.326-.025 4.652-.037 6.978-.045l2.176-.032c4.035 0 7.118.437 10.75 2.227l-1.937.75c-2.25 1.066-2.25 1.066-2.813 3.375L701 136l-3-1v-2l-2.285.275c-45.197 5.367-45.197 5.367-60.903-3.338l-2.213-1.194c-5.39-2.954-10.513-6.233-15.628-9.634-5.379-3.512-10.97-5.885-16.971-8.109l-2.031-.86c-5.512-2.288-11.23-3.252-17.09-4.296L578 105l-1-3h2v-3q-2.719-.69-5.437-1.375l-3.06-.773L567 96l-3.766-1.078c-7.684-1.679-15.718-1.315-23.547-1.297h-2.573c-21.26.054-44.722 2.586-62.266 16.023C473 111 473 111 471 111l1 3c3.537 1.769 7.178 1.506 11 1 3.377-1.153 6.62-2.47 9.887-3.906 3.252-1.143 5.695-1.299 9.113-1.094-1.22 3.66-2.126 3.923-5.437 5.688-.804.436-1.607.873-2.434 1.324C492 118 492 118 490 118v2l3.438 1c12.397 4.152 27.555 10.324 36.562 20l-1 3c-6.157-.447-10.828-3.342-16.125-6.25-17.55-9.405-35.484-17.73-55.875-15.75-3.142 1.154-5.767 2.468-8 5v3l2.104.655c3.218 1.005 6.432 2.019 9.646 3.032l3.309 1.03c6.546 2.072 12.885 4.398 19.19 7.121 2.908 1.228 5.848 2.329 8.813 3.412 18.75 7.197 40.684 16.497 49.938 35.75l-1 3h-2l-2 2-1.398-1.836C526.833 172.9 516.175 160.28 502 156c-6.382-.25-10.922 3.104-16.133 6.406-2.726 1.516-4.8 2.19-7.867 2.594l-1-4a879 879 0 0 1 4.313-3.437l2.425-1.934C486 154 486 154 489 153c-.198-1.947-.198-1.947-1-4-1.74-1.247-1.74-1.247-3.96-2.05l-2.469-1a242 242 0 0 0-12.196-4.137l-2.445-.788c-9.27-2.912-14.53-3.337-23.368.85q-2.783 1.257-5.574 2.5l-2.943 1.313c-5.197 2.24-10.49 4.217-15.795 6.187l-2.99 1.117a669 669 0 0 1-5.664 2.07 190 190 0 0 0-4.77 1.79c-15.21 5.674-31.94 4.307-47.865 3.956-15.516-.318-27.607.936-41.961 7.192-16.906 6.69-29.82 7.762-47.791 5.726-17.324-2.305-17.324-2.305-33.209 3.274-2.107 1.915-4.032 3.938-6 6h-3c.435-4.934 2.633-7.48 6-11 9.11-6.198 19.92-7.238 30.64-7.738 5.662-.441 9.58-1.812 14.048-5.45 7.477-9.093 9.147-16.05 8.312-27.812-1.996-14.537-6.714-25.353-16.18-36.637-1.719-2.232-2.902-4.31-4.07-6.863-1.838-3.675-2.119-4.177-5.75-5.5-2.543-.427-2.543-.427-5.25-.437l-2.703-.122c-3.029.556-4.062 1.122-6.504 2.82-5.23 3.485-10.986 4.82-16.998 6.448C203.562 97.26 186.74 106.819 173 128a164 164 0 0 0-2.812 5.375c-1.063 2.082-1.063 2.082-2.188 3.625-3.312 1.063-3.312 1.063-6 1 1.285-11.798 10.335-22.451 18-31l1.89-2.176c10.345-11.192 23.6-15.826 37.735-20.261q2.475-.798 4.95-1.6a1381 1381 0 0 1 8.986-2.875Q236.788 79.07 240 78c2.845-.371 5.675-.585 8.54-.766 2.355-.16 4.706-.402 7.046-.718M1066 44c4.1 1.367 4.744 3.339 6.663 7.071 4.489 9.831 5.97 19.984 6.462 30.679l.339 5.885c.233 4.155.434 8.312.64 12.469a3169 3169 0 0 0 .887 17.028A410 410 0 0 0 1084 148.75l.503 3.785c.876 6.36.876 6.36 2.532 12.544 3.196 9.675 2.463 22.285-1.91 31.421A120 120 0 0 1 1081 203l-1.152 1.718c-6.702 9.834-14.824 19.457-26.977 21.915-20.476 2.935-20.476 2.935-29.223-1.723-2.93-1.007-5.447-.995-8.523-.937-11.196.14-16.851-4.298-25.14-11.369-3.76-3.038-7.898-5.537-12.027-8.041-5.054-3.214-8.999-7.192-10.673-13.075l-.222-2.175c-.66-3.743-.773-4.091-4-6.563L960 181c-3.267-4.12-3.4-7.874-3.25-12.937l.016-2.092c.045-3.01.22-5.893.746-8.858.68-4.339.593-8.604.55-12.988l-.013-2.664q-.02-3.23-.049-6.461c-12.024 7.188-23.117 15.171-34 24a5315 5315 0 0 1-5.625 4.5l-2.54 2.031c-.605.485-1.21.97-1.835 1.469l-4-5c18.774-19.176 43.49-34.871 69-43l2.863-.977c7.847-2.272 15.573-2.302 23.7-2.335l3.5-.017c9.156.079 9.156.079 12.937 2.329v3c-2.807.78-5.42 1.171-8.328 1.316l-2.422.127-2.5.12-2.547.13q-3.1.158-6.203.307c1.582 5.017 4.614 8.615 7.813 12.688 9.578 12.454 14.102 23.421 12.187 39.312-2.299 7.202-7.032 12.425-12.098 17.879-3.868 4.313-6.596 8.083-7.465 13.871.343 3.225.343 3.225 2 5.5 11.672 7.97 29.316 6.934 42.875 7.063l3.272.053 3.092-.003 2.747.01c3.138-.454 5.015-1.535 7.577-3.373 1.522-2.282 1.522-2.282 2.688-4.937 2.326-4.574 5.065-8.35 8.437-12.188 6.299-7.38 9.71-13.348 9.406-23.23-.939-6.442-3.001-12.543-5.023-18.715-4.054-12.768-4.54-25.756-4.946-39.055-.43-12.343-1.232-24.631-2.31-36.934-.235-2.74-.444-5.48-.65-8.222-.705-8.472-2.012-15.393-6.602-22.719-.68-1.327-1.35-2.658-2-4h3z"/><path fill="#FAFAFA" d="m208 96 2 1-1 1 2 2-2.187.875c-9.34 7.057-12.465 24.67-14.461 35.71l-.415 3.102c-1.985 14.842-7.476 27.029-14.67 40-1.985 3.625-3.853 7.306-5.704 11l-.963 1.887c-3.882 7.741-5.882 13.593-5.787 22.238-.154 7.654-1.827 12.316-6.708 18.415C158 235 158 235 154 235c-2.734-1.54-2.734-1.54-5.75-3.625l-3.195-2.203C135.08 222.08 135.08 222.08 132 219c-.337-3.18-.445-5.233 1.18-8.035l1.695-2.028c8.894-12.02 14.162-26.552 19.088-40.548 10.401-29.344 23.005-57.133 52.04-71.674z"/><path fill="#F8F8F8" d="M992 123c1.223 1.354 1.223 1.354 2.418 3.262l1.351 2.123 1.418 2.303 1.471 2.333c1.459 2.32 2.902 4.648 4.342 6.979q1.178 1.89 2.36 3.777c1.9 3.062 3.771 6.141 5.64 9.223l1.379 2.145C1014.79 159 1015.34 161.49 1015 166c-2.745 8.061-7.772 14.685-13.216 21.104-4.354 5.218-5.91 9.957-6.409 16.771l-.227 2.93L995 209c-8.8-4.42-18.39-9.97-23-19l-.875-3.375c-1.259-4.056-3.066-6.55-5.687-9.828-2.915-3.644-3.802-5.872-3.708-10.567.288-2.379.922-4.305 1.77-6.542 1.89-5.16 2.16-10.245 1.5-15.688a168 168 0 0 0-2-4 98 98 0 0 1 0-7c8.51-4.495 19.184-10 29-10"/><path fill="#0F0F0F" d="M523.336 84.844c18.789-.465 40.625 1.39 58.164 8.594 13.03 4.982 27.613 5.307 41.375 6.187q4.088.27 8.175.55 2.517.174 5.035.331c5.692.383 5.692.383 7.915 1.494 2.713.232 5.408.42 8.125.563l2.285.13q2.795.158 5.59.307c-1 2-1 2-2 3-.907 5.31 2.008 9.35 4.5 13.813l1.3 2.388A701 701 0 0 0 667 128a2411.784 2411.784 0 0 1 14.252-.11q2.423-.015 4.844-.04c2.326-.025 4.652-.037 6.978-.045l2.176-.032c4.035 0 7.118.437 10.75 2.227l-1.937.75c-2.25 1.066-2.25 1.066-2.813 3.375L701 136l-3-1v-2l-2.285.275c-45.197 5.367-45.197 5.367-60.903-3.338l-2.213-1.194c-5.39-2.954-10.513-6.233-15.628-9.634-5.379-3.512-10.97-5.885-16.971-8.109l-2.031-.86c-5.512-2.288-11.23-3.252-17.09-4.296L578 105l-1-3h2v-3q-2.719-.69-5.437-1.375l-3.06-.773L567 96l-3.766-1.078c-7.684-1.679-15.718-1.315-23.547-1.297h-2.573c-16.802.043-32 1.702-47.583 8.324A36.5 36.5 0 0 1 483 104l-1-3 2-2v-2c12.935-6.812 24.591-11.466 39.336-12.156M454.75 174.875l2.422.055L459 175c-10.293 11.802-34.085 10.644-48.305 11.742l-2.487.192c-4.092.314-8.185.613-12.28.889-30.915 2.161-58.234 10.491-86.053 23.927l-1.943.937c-10.164 4.906-20.233 9.946-30.053 15.516C276 229 276 229 272 229c.69-5.035 4.022-6.904 7.86-9.848C288.075 213.521 301.98 204 312 204v-2a600 600 0 0 0-5-2l-1.797-.73c-13.187-5.196-29.025-7.1-42.515-2.02-4.399 1.986-8.533 4.306-12.688 6.75-5.45 2.603-9.961 3.682-16 3-5.542-2.821-5.542-2.821-6.875-6.25L227 199l5-1 1 3c12.434 1.064 19.945-4.231 29.953-10.754 6.544-4.257 12.168-7.59 20.047-8.246l1 6 2.168.262c5.823.82 10.857 2.033 16.27 4.363 6.626 2.736 12.478 2.897 19.562 2.375v4l2.263-.918q5.054-2.045 10.112-4.082l3.563-1.445 3.398-1.368 3.142-1.269C347 189 347 189 349 189v-2l-2.484.875L343.25 189l-3.234 1.125C337 191 337 191 333 191c.875-3.875.875-3.875 2-5 6.841-1.275 13.816-1.51 20.75-1.937l4.105-.26c9.539-.6 19.08-1.145 28.623-1.679 11.698-.656 23.394-1.334 35.084-2.124l3.384-.215c9.25-.647 19.035-5.168 27.804-4.91"/><path fill="#101010" d="M668.813 237c15.316 3.635 30.203 5.15 45.496.656 2.978-.726 5.637-.764 8.691-.656v4c-11.736 4.871-23.331 5.366-35.875 5.313l-2.338-.001c-11.796-.017-23.072-1.029-34.71-2.987-8.89-1.461-8.89-1.461-17.323.894C630.597 246 628.83 247.883 627 250l-2.238 2.41a264 264 0 0 0-8.57 9.762C611.627 267.61 606.417 272.79 600 276c-2.374.071-4.75.084-7.125.063l-3.883-.028L586 276v-4c3.673-2.83 8.003-4.216 12.313-5.812 8.14-3.146 14.304-6.36 18.687-14.188l-1.988-.168a4121 4121 0 0 1-8.887-.77l-3.129-.263-2.988-.264-2.761-.238C595 250 595 250 593 249l1-3 1.781-.212c14.985-1.818 29.1-4.241 43.219-9.788 10.416-3.665 19.395-1.651 29.813 1"/><path fill="#111" d="M349 238v2c-5.4 1.502-10.176 2.231-15.812 2.375-6.578.273-12.872 1.144-19.313 2.5l-2.366.49c-7.291 1.616-13.687 3.573-18.509 9.635-.934 2.34-1.465 4.52-2 7h11c-2.138 4.276-3.12 5.013-7.062 7.375l-2.985 1.836L289 273c-9.708 5.94-14.743 10.954-18.336 21.938-1.441 6.646-.682 10.936 2.461 16.937l.95 1.838a88.5 88.5 0 0 0 7.859 12.322c1.329 2.449 1.261 4.22 1.066 6.965-4.454-.765-6.218-2.836-9.055-6.207-7.982-11.46-12.15-22.735-10.945-36.793 1.022-3.08 2.237-5.245 4-8h2c.066-.57.131-1.14.2-1.727 1.12-3.182 3.038-4.5 5.613-6.648 6.123-5.39 8.946-9.048 10.5-17.125 1.108-5.23 2.224-8.1 6.48-11.352 13.382-6.963 43.138-14.182 57.207-7.148"/><path fill="#0E0E0E" d="M261 237c-.102 1.703-.102 1.703-1 4a76 76 0 0 1-6.375 4.75l-3.832 2.652-1.936 1.324c-9.51 6.447-9.51 6.447-17.857 14.274l-1.719 1.637C220.862 273.129 216.62 282.647 212 292h-1q.216-2.282.438-4.562l.246-2.567c.364-3.302.833-6.584 1.316-9.871l-3.14 1.313-4.11 1.687-2.066.867C200.186 280.293 197.83 281 194 281c.365-2.58.702-3.735 2.68-5.492l2.195-1.383 2.477-1.566c2.6-1.53 5.232-2.96 7.898-4.372 6.015-3.216 11.533-7.06 17.084-11.005C254.777 237 254.777 237 261 237"/><path fill="#F3F3F3" d="M607 105c3.292-.06 6.583-.094 9.875-.125l2.781-.05c11.754-.084 21.63 1.84 30.422 10.136 3.343 3.666 6.175 7.344 7.922 12.039l-1 3c-5.125.406-8.571-.885-13-3.25l-2.037-1.054A662 662 0 0 1 635 122l-2.794-1.492C612.354 109.878 612.354 109.878 607 106z"/><path fill="#0F0F0F" d="M205 309c4.2.102 6.522 1.112 9.5 3.938 4.686 5.038 8.24 10.944 10.813 17.312 4.641 7.564 15.304 11.215 23 14.938a1974 1974 0 0 1 6.363 3.105l2.81 1.36c2.408 1.29 4.493 2.506 6.514 4.347v3c-5.86.363-10.201-.77-15.625-2.937l-2.38-.946c-15.74-6.537-24.461-15.995-32.218-31.015-2.102-3.669-4.552-6.596-7.492-9.614C205 311 205 311 205 309"/><path fill="#111" d="M505 185c-.143 4.714-2.39 7.03-5.652 10.105-4.77 3.85-10.038 6.868-15.348 9.895l-2.36 1.406c-12.583 6.962-27.304 10.876-41.64 9.594l1-4 2.71-.55c18.358-3.817 34.47-9.63 49.29-21.45 7.256-5.719 7.256-5.719 12-5"/><path fill="#141414" d="M394 284v4l-2.781 1.102c-8.062 3.27-15.718 6.412-21.219 13.46-3.716 4.53-7.406 7.11-13.305 7.856-8.804.206-8.804.206-11.53-1.703-2.028-2.987-2.194-6.167-2.165-9.715.938-2.5.938-2.5 2-4h3l2 5c8.258.422 8.258.422 16-2 1.551-1.663 2.951-3.408 4.367-5.187 6.31-7.005 14.548-9.126 23.633-8.813"/><path fill="#161616" d="m942 106 3 1c-3.335 11.005-13.886 16.288-23 22l-2.953 1.867c-4.569 2.817-9.098 5.035-14.047 7.133a990 990 0 0 0-5.34 2.55c-19.269 9.25-19.269 9.25-29.66 8.45v-3l1.87-.56c24.848-7.557 46.868-18.185 65.767-36.252C940 107 940 107 942 106"/><path fill="#151515" d="m332 505 2 1c-7.816 10.066-18.092 18.261-28.375 25.688-13.37 9.87-23.584 24.893-31.625 39.312l-3-3c7.325-21.477 29.097-38.438 46-52l2.738-2.234 2.637-2.141 2.336-1.898c2.36-1.78 4.663-3.365 7.289-4.727"/><path fill="#181818" d="m676.5 100.625 2.965.024c6.796.133 12.97.922 19.59 2.492 5.882 1.372 11.904 2.015 17.89 2.768l2.598.345 2.313.291c2.303.489 4.092 1.318 6.144 2.455l-1 2c-2.584.083-5.165.141-7.75.188l-2.152.076c-4.434.059-8.1-.485-12.348-1.764-9.153-2.462-18.6-1.817-28-1.687q-2.88.022-5.762.04c-4.663.033-9.325.085-13.988.147 1.36-3.16 1.849-3.912 4.969-5.727 4.757-1.81 9.5-1.722 14.531-1.648"/><path fill="#161616" d="m348.25 515.875 2.703.055L353 516a883 883 0 0 1-7.434 5.531c-7.686 5.686-15.186 11.496-22.406 17.766a152 152 0 0 1-6.539 5.344c-7.237 5.685-12.182 11.425-16.816 19.39-1.466 2.411-2.609 4.232-4.805 5.969h-5l1.137-1.469c2.645-3.465 5.165-6.926 7.426-10.656 3.648-5.924 8-10.473 13.265-14.957 2.325-2.053 4.496-4.209 6.672-6.418a172 172 0 0 1 10.52-9.8 245 245 0 0 0 4.117-3.618l2.113-1.894 1.89-1.708c3.717-2.959 6.358-3.73 11.11-3.605"/><path fill="#1B1B1B" d="M568 193c3 1 3 1 4.281 3.152A315 315 0 0 1 576 205l.988 2.285c4.24 11.391 2.975 26.14.012 37.715l-.487 1.91A690 690 0 0 1 573 260c-1.58-1.606-1.58-1.606-3-4 .346-2.924.346-2.924 1.281-6.309 1.844-7.645 2.235-14.88 2.219-22.754l.086-3.814c.016-7.936-1.196-13.991-4.51-21.218-1.171-3.162-1.272-5.562-1.076-8.905"/><path fill="#202020" d="M821 88v4l-2.535 1.145c-6.899 3.262-13.068 6.799-19.153 11.418C788.638 112.649 775.704 121.066 762 122c2.377-5.644 7.58-6.937 12.89-9.27 12.515-5.594 23.845-12.431 34.622-20.882 3.995-2.967 6.48-4.126 11.488-3.848"/><path fill="#F2F2F2" d="M167 232c1.863.293 1.863.293 4 1 4.33 6.557 5.255 11.213 5 19l-1 1c-6.173-.314-10.445-1.445-15-6-.609-3.728-.636-6.088 1.563-9.242 1.754-1.988 3.545-3.9 5.437-5.758"/><path fill="#171717" d="M378 319c4.533.442 8.024 1.754 12.063 3.813l3.035 1.519c5.395 3.1 9.484 6.336 11.472 12.41.569 2.986.562 5.845.555 8.883l.008 3.477C405 352 405 352 404 354h-3c-1.87-3.739-1.357-8.297-1.523-12.422-.506-3.797-1.626-6.255-3.477-9.578l-1-3-3.395-.586-4.418-.789-2.236-.383c-3.557-.644-5.906-1.212-8.951-3.242.875-3.875.875-3.875 2-5"/><path fill="#191919" d="M361 529c-1.107 3.32-1.499 3.582-4.25 5.438-8.385 6.055-15.776 13.504-23 20.875-4.278 4.34-8.83 8.098-13.75 11.687l-1-2c8.202-11.414 26.84-36.996 42-36"/><path fill="#151515" d="M792 210c-1.473 4.297-4.479 5.782-8.312 7.75l-1.953 1.021c-5.824 2.95-11.832 5.387-17.923 7.729l-2.753 1.062C757.053 229.055 754.344 230 750 230v-2c32.674-18.874 32.674-18.874 42-18"/><path fill="#191919" d="M908 148c-.078 2.649-.51 4.44-2.273 6.457-4.774 4.247-10.163 7.444-15.727 10.543-.84.48-1.68.96-2.547 1.453-5.598 3.025-10.093 4.24-16.453 4.547.27-1.926.27-1.926 1-4 2.039-.656 4.08-1.302 6.137-1.902 8.762-3.36 16.929-9.82 23.996-15.883C904 148 904 148 908 148"/><path fill="#181818" d="M291 339c-.552 3.961-2.45 5.809-5.187 8.625-7.14 7.754-11.51 14.816-12.813 25.375l-5-1c-1.254-9.135 3.68-16.476 8.95-23.656 2.058-2.353 4.146-4.24 6.613-6.156l2.316-1.833C288 339 288 339 291 339"/><path fill="#171717" d="M999.563 72.938 1002 73c-.304 1.875-.304 1.875-1 4a63 63 0 0 1-7.25 4l-2.184 1.053C981.933 86.582 972.769 89.875 962 89c1-3 1-3 2.645-3.844l2.168-.656 2.468-.762c2.83-.768 5.672-1.407 8.532-2.05 7.144-1.718 15.005-8.586 21.75-8.75"/><path fill="#131313" d="M628 165h3q-.683 3.051-1.371 6.102c-.454 2.093-.88 4.193-1.29 6.296-1.387 6.99-3.037 13.267-6.339 19.602h-2c-2.986-5.971-.711-12.736 1.25-18.687 1.67-4.964 3.48-9.187 6.75-13.313"/><path fill="#151515" d="M969 182c3.649 2.432 3.5 3.9 4.434 7.984 1.925 6.85 8.99 10.323 14.566 14.016l-2 5c-13.918-7.399-13.918-7.399-18-15-.876-3.306-1.492-6.619-2-10z"/><path fill="#111" d="m847 201 1.313 1.875c1.684 2.345 1.684 2.345 4.687 4.125-4.8 5.119-9.86 9.325-15.625 13.313l-2.234 1.587c-3.596 2.517-6.928 4.726-11.141 6.1-.125-2.625-.125-2.625 1-6 2.33-1.682 4.774-2.99 7.293-4.371C838.997 213.595 843.54 207.92 847 201"/><path fill="#0C0C0C" d="M1064 192v5q-1.874.722-3.75 1.438l-2.11.808c-4.446 1.566-8.336 1.943-13.078 2.004l-3.652.078c-3.665-.353-5.563-1.016-8.41-3.328v-3l1.74.048c2.629.062 5.257.101 7.885.14l2.738.076c6.843.075 12.157-3.836 18.637-3.264"/><path fill="#181818" d="m441 157 1 3c-10.497 4.765-21.431 7.598-33 7l1-3c9.629-4.513 20.332-7.464 31-7"/><path fill="#151515" d="M228 113h2l.621 1.715.816 2.222c.4 1.097.4 1.097.81 2.215.607 1.831.607 1.831 1.753 2.848 4.848.238 7.72.283 12-2 3.25-.125 3.25-.125 6 0-1.056 3.128-1.985 3.99-4.863 5.738l-3.45 1.575-3.425 1.613c-3.41 1.123-4.942 1.363-8.262.074-3.302-4.585-4.663-8.273-5-14z"/><path fill="#161616" d="M833 142c0 2.8-.513 4.491-2.46 6.527-6.976 5.595-15.497 9.415-24.54 8.473l-3-1 1-3c2.992-.922 2.992-.922 6.875-1.75 6.544-1.518 11.453-3.893 16.953-7.86C830 142 830 142 833 142"/><path fill="#1F1F1F" d="M1046.973 72.836c2.262 1.478 4.12 3.257 6.027 5.164.125 2.625.125 2.625 0 5-1.875-.25-1.875-.25-4-1-1.133-2.047-1.133-2.047-2-4q-2.437-.04-4.875-.062l-2.742-.036c-2.4-.064-2.4-.064-4.383 1.098-2.333.04-4.667.043-7 0v-3c5.13-4.853 12.365-5.964 18.973-3.164"/><path fill="#171717" d="m255 195 2 1-4 4 1 2c-13.031 6.081-13.031 6.081-20 5-5.542-2.821-5.542-2.821-6.875-6.25L227 199l5-1 1 3c8.292.71 13.933-.565 21-5z"/><path fill="#191919" d="M418 287c2.691.361 3.768.73 5.57 2.82l1.555 2.305c3.351 4.582 7.02 7.324 11.836 10.27C439 304 439 304 439.789 306.199L440 308l-4 1-.187-1.875c-.61-2.33-.61-2.33-2.938-3.125L430 303c-5.519-2.661-9.229-5.408-12-11-.312-2.937-.312-2.937 0-5"/><path fill="#DBDBDB" d="M32 272h2c-.501 12.006-5.551 20.997-12 31h-1c.428-7.462 2.437-13.22 5.5-20l1.262-2.887c3.054-6.93 3.054-6.93 4.238-8.113"/><path fill="#111" d="M420 476h1c.26 10.859-.4 21.257-2 32h-4c-.654-10.442.233-22.465 5-32"/><path fill="#151515" d="M513 130c6.171 3.195 11.867 6.283 17 11l-1 3c-5.73-.503-9.94-2.831-14.875-5.562l-2.375-1.288A828 828 0 0 1 506 134l2-2 4 2z"/><path fill="#0E0E0E" d="M353 516q-3.905 2.93-7.82 5.848l-4.305 3.215-2.207 1.642-2.113 1.58-1.923 1.434c-1.758 1.327-1.758 1.327-3.632 3.281-2.125-.375-2.125-.375-4-1l1.207-1.355c3.449-3.927 3.449-3.927 6.23-8.332 4.618-6.834 11.051-6.857 18.563-6.313"/><path fill="#171717" d="M261 237c-.607 3.617-.977 3.981-4.055 6.508q-1.899 1.324-3.82 2.617l-1.934 1.34C243.181 253 243.181 253 240 253l1-4-2-1q3.06-1.91 6.125-3.812l1.727-1.08C256.713 237 256.713 237 261 237"/><path fill="#1D1D1D" d="M41 250c0 3 0 3-1.5 4.688L38 256l2 1c-1.416 3.15-3.137 5.495-5.437 8.063l-1.81 2.035L31 269l-1.598 1.746C28 272 28 272 26 272c1.875-4.75 1.875-4.75 3-7l-5 3c3.38-7.532 10.848-12.743 17-18"/><path fill="#252525" d="M980 166c5.47.438 8.622 1.716 13 5 3.162 2.108 4.507 2.338 8.188 2.625l2.73.227L1006 174c-.875 3.875-.875 3.875-2 5-6.246 1.005-10.333-2.158-15.375-5.375l-2.52-1.54c-4.483-2.797-4.483-2.797-6.105-4.085z"/><path fill="#171717" d="M980 48c2.962 1.064 5.287 2.362 8 4v4c-4.75-.875-4.75-.875-7-2-2.713-.232-5.408-.42-8.125-.562l-2.285-.131A1637 1637 0 0 0 965 53c2.262-6.785 8.996-5.702 15-5"/><path fill="#0B0B0B" d="M222 214c5.22-.652 8.03.88 12.266 3.613C236 219 236 219 238 222c.195 2.48.195 2.48.125 5.188l-.055 2.73L238 232h-4l-.516-1.793c-1.469-4.79-2.803-8.634-6.484-12.207-2.618-1.333-2.618-1.333-5-2z"/><path fill="#1A1A1A" d="m288 214 2 1-1.562 1.188L287 218c.368 2.59.368 2.59 1 5a715 715 0 0 1-5.75 3l-3.234 1.688C276 229 276 229 272 229c.342-2.939.942-3.944 3.11-6.035.87-.67 1.742-1.338 2.64-2.028l2.61-2.035c2.494-1.797 4.91-3.486 7.64-4.902M305 508l3 4c-1.536 3.68-3.782 5.988-6.625 8.75l-2.477 2.422L297 525l-1.375-1.437c-1.558-1.653-1.558-1.653-3.625-2.563z"/><path fill="#242424" d="m893 140-3 2v3c-6.84 2.553-12.662 4.564-20 4v-3c3.454-1.2 6.914-2.383 10.375-3.562l2.984-1.038 2.852-.966 2.634-.905C891 139 891 139 893 140"/><path fill="#1E1E1E" d="M335 521c0 3 0 3-1.531 4.824l-1.969 1.864-1.969 1.886L328 531l1 3a1038 1038 0 0 1-4.812 4.438l-2.708 2.496C319 543 319 543 316 544c0-4.313 1.662-6.613 4.638-9.697a303 303 0 0 1 5.987-5.553l2.102-1.93q1.91-1.755 3.83-3.5A75 75 0 0 0 335 521"/><path fill="#1D1D1D" d="M831 200c-1.372 4.065-3.22 6.674-6.125 9.813l-2.195 2.394L821 214l-3-2-3 3-2-1q2.369-2.662 4.75-5.312l1.344-1.514C825.554 200 825.554 200 831 200"/><path fill="#171717" d="M821 88v4a785 785 0 0 1-6.812 3.563L812.24 96.6c-1.71.877-3.473 1.645-5.24 2.4l-3-1c4.304-5.74 9.162-10.95 17-10"/><path fill="#151515" d="m482 98 3 1v2l-2 1v3l-4.375 2.438-2.46 1.37Q474.102 109.946 472 111l-1-3c2.794-4.47 6.285-7.642 11-10"/><path fill="#1B1B1B" d="M218 213c-.73 1.934-.73 1.934-2 4-1.988.723-1.988.723-4.312 1.063-3.822.682-6.427 1.763-9.688 3.937h-2v-2l-2-1c6.838-3.662 12.135-6 20-6"/><path fill="#D9D9D9" d="m491 308 2 1a975 975 0 0 1-3.375 3.938l-1.898 2.214C486 317 486 317 484 318l-2.125 2.625c-2.686 3.317-5.756 6.01-9.008 8.762A77 77 0 0 0 468 334l-2-1 1.504-1.469c3.431-3.386 6.763-6.782 9.871-10.469 4.121-4.81 8.852-8.914 13.625-13.062"/><path fill="#232323" d="M839 212v3l-3 3-.312 1.895c-.974 2.98-2.625 3.728-5.25 5.355l-2.504 1.578L826 228l-2-1c.2-2.309.2-2.309 1-5 2.145-1.66 2.145-1.66 4.813-3.062 3.657-1.95 6.368-3.883 9.187-6.938"/><path fill="#131313" d="M776 115c-.23 1.89-.23 1.89-1 4-1.926 1.047-1.926 1.047-4.312 1.75l-2.364.734C766 122 766 122 762 122c1.373-3.362 2.619-4.721 5.875-6.312l2.055-1.051c2.427-.747 3.703-.46 6.07.363"/><path fill="#EFEFEF" d="m27 286 2 1c-.327 6.217-3.528 11.009-7 16h-1c.177-6.945 1.882-11.423 6-17"/><path fill="#222" d="M470 138c3.821.546 7.364 1.732 11 3v4q-3.909-.928-7.812-1.875l-2.237-.527c-3.448-.843-5.97-1.61-8.951-3.598l3.438.063c3.378.353 3.378.353 4.562-1.063"/><path fill="#161616" d="M989.625 184.875 992 185c-1.492 4.972-3.605 9.418-6 14h-1a532 532 0 0 1-.125-5.875l-.07-3.305c.26-3.768.999-4.763 4.82-4.945"/><path fill="#1B1B1B" d="M222 214c5.979-.747 9.324 1.677 14 5l-4 4-2.187-2.375c-2.646-2.47-4.417-3.558-7.813-4.625z"/><path fill="#1E1E1E" d="M195 338c3.113.346 4.829.874 7.375 2.75 1.625 2.25 1.625 2.25 1.375 5L203 348l-2-3c-3.557-1.219-3.557-1.219-7-2z"/><path fill="#1A1A1A" d="M446 247c-.576 4.755-2.55 7.97-5 12l-5-1c4.86-11 4.86-11 10-11"/><path fill="#D7D7D7" d="M39 258c-1.385 4.24-3.327 6.707-6.5 9.813l-2.406 2.394C28 272 28 272 26 272c1.735-5.364 6.579-14 13-14"/><path fill="#313131" d="m974 164 3 1-2 9h-3c-.687-3.312-.687-3.312-1-7 1.438-1.937 1.438-1.937 3-3"/><path fill="#1B1B1B" d="M502 110c-1 3-1 3-3.066 4.168l-2.497 1.02-2.503 1.042L492 117l-1-5c3.83-1.802 6.781-2.196 11-2"/><path fill="#131313" d="m316 539 2 1-2 3-.687 1.875c-2.026 3.28-5.124 5.045-8.313 7.125 1.283-5.015 3.172-7.555 7-11z"/><path fill="#161616" d="M1021 197h3c-.492 6.523-.492 6.523-3.062 8.938-.64.35-1.28.7-1.938 1.062-1-1-1-1-1.25-3.312.295-3.173 1.012-4.45 3.25-6.688"/><path fill="#121212" d="M902 137c-3.341 3.58-5.738 5.897-10.75 6.125L889 143c7.534-7.952 7.534-7.952 13-6"/><path fill="#E8E8E8" d="m208 96 2 1-1 1 2 2-2.312 1.25c-2.625 1.709-3.991 3.16-5.688 5.75l-.375-2.375c-.416-2.766-.416-2.766-2.625-4.625q1.931-1.044 3.875-2.062l2.18-1.16z"/><path fill="#0F0F0F" d="m881 166-1 4-9 1 1-4c3.153-.7 5.727-1 9-1"/><path fill="#262626" d="m332 505 2 1a832 832 0 0 1-3.312 3.875l-1.864 2.18C327 514 327 514 324 516c.415-4.838 2.42-6.856 6-10z"/><path fill="#D4D4D4" d="m28 299 2 1v9h-4c-.25-6.625-.25-6.625 2-10"/><path fill="#1A1A1A" d="M368 490v3l-11 2 1-4q1.935-.543 3.875-1.062l2.18-.598C366 489 366 489 368 490"/><path fill="#212121" d="M433 301c2.915 1.074 4.778 1.778 7 4-.375 2.125-.375 2.125-1 4l-4-1v-3l-3-1z"/><path fill="#1E1E1E" d="M904 148h4c-.306 3.674-.758 4.781-3.562 7.313L902 157c-.687-1.687-.687-1.687-1-4 1.188-2.75 1.188-2.75 3-5"/><path fill="#DEDEDE" d="M63 242c0 3 0 3-2.59 5.848a346 346 0 0 1-3.347 3.214c-4.015 3.593-4.015 3.593-7.063 7.938l-2-1c4.575-6.014 9.066-11.302 15-16"/><path fill="#0A0A0A" d="m900 151 3 1c-1.477 5.662-1.477 5.662-4.125 7.375L897 160l-2-3z"/><path fill="#2C2C2C" d="M358.063 528.938 361 529c-1 3-1 3-3.187 4.125-2.93.911-5.777 1.451-8.813 1.875 6-6 6-6 9.063-6.062"/><path fill="#CFCFCF" d="M349 187v2l-10 4v-2l-2-1a345 345 0 0 1 3.75-1.5l2.11-.844C345 187 345 187 349 187"/><path fill="#202020" d="m906 132 2 1v3c-4.222 3-4.222 3-7 3l-1-4a101 101 0 0 1 6-3"/><path fill="#171717" d="M790 105c2.625-.187 2.625-.187 5 0-1.451 3.825-3.382 5.19-7 7h-2a56.5 56.5 0 0 1 4-7"/><path fill="#292929" d="M41 250c0 3 0 3-1.5 4.688L38 256l2 1c-1.392 2.784-3.156 2.979-6 4l-2-3z"/><path fill="#262626" d="M1059 192h5v5l-6 2 .5-1.812c.611-2.301.611-2.301.5-5.188"/><path fill="#161616" d="m1047 76 6 2v5c-2.867-.573-3.861-.861-6-3z"/><path fill="#222" d="m296 562 4 2c-1.812 3-1.812 3-4 6h-6z"/><path fill="#232323" d="M311 521c0 3 0 3-2 6a177 177 0 0 0-2 4l-1-2-4 1c2.68-3.574 5.426-6.32 9-9"/><path fill="#0B0B0B" d="M840 213h4c-1.498 4.662-4.885 5.866-9 8l1-4h2z"/><path fill="#212121" d="M1015 116c4.75.875 4.75.875 7 2v3l-8 1 1.063-1.875L1016 118z"/><path fill="#1E1E1E" d="M290.75 541.625 293 542c-1.152 2.468-2.048 4.048-4 6v-2l-5 2c3.323-5.908 3.323-5.908 6.75-6.375"/><path fill="#0E0E0E" d="m427 297 6 3v3l-6-1c-.562-1.937-.562-1.937-1-4z"/><path fill="#F4F4F4" d="M306 515c0 3.52-.704 4.439-3 7h-2l-1 3h-2l-1 2c0-3 0-3 1.969-5.262l2.531-2.426 2.531-2.449z"/><path fill="#292929" d="M296 282h12v1l-7 1 1 2h-5z"/><path fill="#2B2B2B" d="m255 195 2 1-4 4 1 2-6 2v-4l3-2a496 496 0 0 0 4-3"/><path fill="#343434" d="M434 157h7l1 3-6 2z"/><path fill="#444" d="m482 157 2 1-4 4 3 2-5 1-1-4z"/><path fill="#252525" d="M614 257c.971 3.022 1.192 5.019 0 8l-3 2c0-4.1.03-7.03 3-10"/><path fill="#2B2B2B" d="M335 186h4l-2 5h-4c.875-3.875.875-3.875 2-5"/><path fill="#0D0D0D" d="m809 92 3 1c-1.37 3.161-1.99 3.993-5 6l-3-1z"/><path fill="#CFCFCF" d="M22 294h3c-.496 4.468-.69 5.69-4 9z"/><path fill="#E4E4E4" d="m282 276 2 1a732 732 0 0 1-3.875 4.5l-2.18 2.531L276 286h-2c1.65-4.292 4.738-6.88 8-10"/><path fill="#0A0A0A" d="M829 200h2c-1.27 3.914-2.512 5.79-6 8l-1-3h2v-2h2zM998 175h8l-1 3h-6z"/><path fill="#292929" d="m480 308 2 1-9 8-2-1z"/><path fill="#141414" d="M280 326h2l1 7h-3a129 129 0 0 1-1-6z"/><path fill="#3F3F3F" d="m212 282 1 2h2c-1.75 5.75-1.75 5.75-4 8z"/><path fill="#3C3C3C" d="M252 120c-1.75 3.875-1.75 3.875-4 5v-3l-4-1c2.709-1.354 5.01-1.065 8-1"/><path fill="#DADADA" d="m1014 43 6 2-2 4-3-1z"/><path fill="#313131" d="m350 279 2 1-2.875 1.875c-3.07 1.945-3.07 1.945-5.125 4.125v-2l-2-1q1.931-1.044 3.875-2.062l2.18-1.16z"/><path fill="silver" d="m816 218 2 2-5 5 1 2h-3c.574-3.871 2.487-6.082 5-9"/><path fill="#E0E0E0" d="m905 137 2 1-1.937.875c-2.215.953-2.215.953-3.063 3.125l-2 1v-2l-2-1a136 136 0 0 1 7-3"/><path fill="#212121" d="m26 295 2 2-2 2v3l-4 1c1.125-2.972 2.223-5.334 4-8"/></svg>