<?xml version="1.0" standalone="no"?>
<!DOCTYPE svg PUBLIC "-//W3C//DTD SVG 20010904//EN"
 "http://www.w3.org/TR/2001/REC-SVG-20010904/DTD/svg10.dtd">
<svg version="1.0" xmlns="http://www.w3.org/2000/svg"
 width="1087.000000pt" height="757.000000pt" viewBox="0 0 1087.000000 757.000000"
 preserveAspectRatio="xMidYMid meet">

<g transform="translate(0.000000,757.000000) scale(0.100000,-0.100000)"
fill="#000000" stroke="none">
<path d="M7476 7360 c-50 -19 -108 -68 -129 -105 -6 -11 -27 -64 -47 -117 -74
-194 -183 -333 -342 -436 -51 -32 -176 -105 -278 -162 -465 -257 -610 -394
-753 -712 -90 -200 -133 -267 -196 -305 -72 -43 -226 -106 -471 -193 -283
-100 -352 -127 -525 -205 -107 -48 -186 -76 -275 -97 -452 -107 -451 -106
-771 -434 -203 -209 -300 -316 -319 -354 -28 -55 -155 -168 -225 -201 -37 -17
-127 -42 -235 -64 -189 -38 -283 -67 -394 -122 -242 -120 -366 -150 -366 -90
0 12 14 45 30 72 50 85 40 182 -36 341 -68 143 -180 271 -279 321 -91 45 -144
36 -282 -50 -48 -30 -118 -70 -154 -90 -80 -44 -147 -114 -189 -197 -17 -34
-62 -153 -99 -264 -75 -223 -103 -284 -167 -368 -105 -135 -196 -189 -404
-238 -235 -55 -342 -107 -468 -228 -82 -79 -93 -117 -99 -339 -4 -120 -2 -173
5 -173 21 0 30 -75 36 -290 7 -237 21 -324 63 -403 36 -68 199 -231 288 -289
119 -78 305 -176 420 -220 103 -40 116 -43 210 -43 83 0 107 4 140 22 80 43
121 107 133 207 12 96 45 134 152 172 132 47 204 79 236 105 20 16 44 29 53
29 20 0 111 -56 111 -68 0 -19 84 -53 174 -71 116 -24 165 -50 228 -124 60
-69 140 -123 214 -142 68 -17 264 -20 345 -5 29 6 88 25 131 42 43 17 81 28
85 24 13 -13 16 -286 4 -327 -7 -22 -24 -47 -41 -59 -40 -29 -179 -56 -344
-69 -87 -7 -145 -16 -155 -24 -9 -8 -83 -70 -166 -139 -152 -127 -243 -218
-303 -301 -18 -24 -48 -55 -67 -68 -66 -46 -70 -85 -16 -195 44 -92 50 -96
190 -125 121 -25 155 -36 199 -65 74 -51 165 -22 332 105 147 112 179 126 370
161 223 42 396 109 444 174 13 17 29 56 36 86 22 102 61 221 117 358 30 76 77
193 105 262 109 272 149 429 172 676 22 230 45 302 191 595 87 176 143 260
197 299 38 27 47 30 118 28 70 -1 84 2 166 40 104 48 156 61 239 62 93 1 192
18 238 41 23 12 85 63 138 113 66 62 138 117 225 171 71 44 174 115 229 159
167 132 526 508 680 711 45 61 100 126 121 146 35 33 138 109 148 109 2 0 7
-17 11 -37 50 -266 254 -597 467 -758 129 -97 396 -237 588 -308 402 -149 999
-187 1650 -106 187 23 393 61 492 90 321 94 676 396 802 683 107 242 163 652
138 1009 -33 473 -187 823 -496 1133 -273 272 -550 424 -994 543 -203 55 -484
101 -613 101 -8 0 -55 51 -104 113 -230 292 -365 404 -509 423 -40 6 -55 2
-111 -26 l-65 -33 -44 41 c-68 63 -119 85 -206 89 -58 2 -86 -1 -124 -17z
m189 -79 c28 -16 67 -47 89 -69 l38 -40 -26 -126 c-43 -206 -73 -296 -109
-334 -46 -48 -144 -120 -377 -277 -338 -227 -502 -354 -667 -516 -124 -122
-163 -179 -223 -328 -26 -64 -57 -136 -69 -161 -34 -72 -109 -149 -206 -213
-109 -71 -739 -387 -771 -387 -15 0 -34 14 -56 42 -65 84 -145 156 -231 208
-48 29 -87 56 -87 60 0 5 17 15 38 23 20 8 71 31 112 50 130 61 202 89 315
122 140 42 224 74 331 126 103 51 116 67 185 245 56 143 121 271 179 348 102
139 314 293 675 491 88 48 193 111 233 138 141 97 297 296 341 436 26 84 69
138 134 170 57 28 93 26 152 -8z m422 -56 c70 -29 140 -94 316 -288 187 -206
263 -281 366 -356 179 -130 217 -179 226 -292 3 -35 13 -105 22 -155 16 -91
16 -92 -7 -139 -33 -67 -156 -193 -197 -201 -18 -4 -58 -29 -89 -56 -32 -27
-69 -54 -83 -59 -60 -23 -94 38 -106 189 -21 257 -79 330 -304 378 -105 23
-113 28 -78 57 15 13 25 26 22 29 -9 9 -112 -17 -170 -43 -154 -67 -387 -261
-483 -402 -16 -23 -64 -100 -106 -170 -145 -241 -275 -413 -457 -602 -69 -71
-132 -141 -139 -155 -8 -14 -17 -50 -21 -80 -16 -112 -155 -339 -247 -404 -61
-43 -69 -30 -48 81 10 48 16 117 14 153 l-3 65 -18 -27 c-11 -15 -32 -79 -48
-143 -30 -119 -70 -226 -116 -305 -79 -137 -314 -413 -334 -393 -9 9 -19 58
-54 273 -22 130 -59 229 -122 323 -27 39 -52 77 -56 83 -4 7 55 45 156 99 179
98 307 174 307 182 0 14 -72 -13 -231 -88 -184 -86 -267 -119 -305 -119 -30 0
-174 115 -174 139 0 10 8 25 18 35 11 9 141 79 291 156 443 227 465 248 630
604 112 241 272 387 886 811 379 261 406 293 466 543 60 249 143 332 276 277z
m988 -580 c440 -92 831 -287 1104 -550 276 -266 411 -535 478 -951 25 -155 25
-547 0 -694 -46 -270 -97 -424 -177 -531 -70 -94 -251 -264 -351 -332 -160
-106 -369 -185 -629 -237 -228 -45 -360 -55 -730 -55 -359 0 -506 10 -760 51
-565 91 -990 345 -1219 728 -74 125 -139 324 -127 394 3 19 35 75 74 130 87
122 108 162 126 250 8 38 26 88 40 110 14 22 89 108 167 191 178 190 271 305
331 413 63 113 145 235 235 346 86 106 150 166 210 195 39 19 43 19 66 4 14
-9 39 -45 56 -81 38 -81 58 -99 144 -132 39 -15 106 -52 151 -82 44 -30 98
-61 121 -67 22 -7 87 -35 145 -63 141 -69 146 -69 201 -32 37 24 67 33 150 46
357 54 533 140 630 309 28 49 37 85 21 85 -12 0 -53 -31 -112 -84 -140 -126
-253 -189 -376 -208 -109 -17 -114 -11 -59 64 25 35 58 87 72 117 24 50 25 61
20 150 -7 115 -32 241 -57 291 -23 44 -137 154 -219 209 -34 23 -61 45 -61 48
0 13 221 -8 335 -32z m-950 -430 c232 -60 279 -87 315 -181 25 -69 28 -194 4
-218 -35 -35 -133 -6 -165 48 -23 39 -58 60 -132 79 -84 22 -102 37 -126 108
-11 34 -32 77 -47 96 -22 28 -24 36 -13 50 30 35 77 40 164 18z m-3148 -1160
c85 -42 151 -99 210 -180 l44 -60 -43 -18 c-97 -42 -209 -67 -294 -67 -98 0
-129 11 -199 69 -55 46 -90 60 -108 42 -16 -16 70 -93 142 -128 52 -26 64 -28
181 -27 118 1 133 3 283 47 l158 47 90 -50 c211 -116 357 -275 416 -455 25
-75 27 -94 30 -305 l4 -225 -123 -107 c-151 -132 -210 -175 -374 -274 -171
-102 -205 -126 -267 -188 -28 -29 -66 -62 -84 -75 -74 -51 -204 -75 -268 -51
-30 11 -30 14 -5 135 28 134 -11 347 -92 510 -52 103 -143 235 -163 235 -14 0
7 -54 78 -199 80 -160 104 -226 117 -322 16 -110 -16 -284 -66 -359 -30 -45
-85 -75 -121 -65 -23 5 -24 9 -19 43 4 20 9 85 12 143 9 153 -28 313 -106 469
-78 156 -353 450 -480 515 -61 31 -211 71 -340 90 -58 9 -111 18 -119 21 -19
6 124 102 199 133 74 32 173 39 240 17 28 -9 90 -39 138 -66 93 -54 102 -57
102 -36 0 24 -71 78 -156 117 -75 36 -152 54 -257 61 l-38 3 41 60 c87 125
245 262 380 330 79 39 161 54 347 64 78 4 146 10 150 14 4 5 8 17 8 29 0 25
45 51 137 78 95 28 135 25 215 -15z m-3169 -595 c121 -55 284 -277 327 -449
13 -50 14 -72 5 -114 -23 -109 -88 -180 -175 -192 -137 -20 -275 -101 -304
-178 -26 -67 -9 -63 82 22 69 64 79 69 139 80 35 6 107 11 159 11 171 0 249
23 392 114 70 45 181 100 243 120 27 9 117 27 198 41 215 36 376 105 506 217
27 24 62 45 77 48 80 15 361 -32 452 -76 74 -36 335 -296 408 -406 89 -134
150 -366 140 -529 -9 -137 -33 -179 -147 -254 -133 -87 -223 -209 -340 -459
-54 -117 -66 -135 -76 -121 -24 33 -74 210 -84 299 -33 287 -33 285 -107 318
-57 25 -230 26 -390 3 -126 -19 -168 -36 -243 -99 -110 -92 -291 -166 -410
-166 -63 0 -179 -16 -188 -25 -13 -13 22 -22 101 -28 45 -3 90 -9 100 -13 24
-9 16 -27 -14 -34 -13 -3 -24 -12 -24 -20 0 -30 76 -15 155 30 110 62 310 197
350 235 49 47 73 54 239 67 183 14 230 8 281 -38 50 -45 67 -96 75 -219 6
-100 29 -235 46 -266 20 -38 39 -199 39 -328 -1 -287 -52 -520 -181 -823 -67
-156 -103 -260 -154 -442 -20 -71 -45 -146 -56 -167 -35 -70 -181 -133 -379
-165 -218 -35 -295 -68 -450 -193 -133 -108 -144 -114 -184 -107 -34 7 -58 27
-70 60 -5 14 -12 17 -34 11 -67 -17 -93 -17 -117 -1 -14 9 -25 22 -25 28 0 39
272 330 380 406 36 25 93 70 127 99 34 29 76 60 95 68 l33 14 -36 1 c-36 0
-85 -26 -139 -74 -14 -13 -54 -43 -90 -68 -96 -68 -211 -178 -300 -287 -103
-128 -143 -163 -182 -159 -17 2 -36 11 -42 21 -14 23 20 87 119 217 87 114
153 177 272 256 149 99 233 163 233 179 0 37 -63 4 -167 -85 -17 -16 -76 -59
-130 -98 -116 -83 -140 -107 -247 -249 -81 -107 -116 -133 -130 -98 -8 22 6
46 69 125 83 103 195 219 254 263 30 22 85 69 124 104 91 83 111 93 226 105
199 21 317 44 390 78 l71 33 0 169 c0 205 -13 277 -79 431 -131 306 -143 452
-57 712 48 145 55 179 34 173 -20 -6 -95 -162 -130 -268 -25 -78 -32 -116 -36
-213 -4 -109 -2 -125 23 -202 17 -52 49 -118 86 -175 45 -70 57 -95 49 -105
-28 -34 -121 -96 -175 -117 -53 -20 -77 -23 -200 -23 -185 1 -217 16 -328 149
-27 34 -59 66 -71 73 -28 16 -110 39 -166 47 -70 10 -137 46 -235 128 -120
101 -175 128 -188 94 -8 -20 13 -36 48 -36 16 0 37 -4 45 -10 32 -20 -58 -79
-207 -135 -75 -29 -128 -34 -146 -16 -6 6 -15 56 -18 111 -8 120 -39 198 -91
230 -52 32 -96 21 -49 -12 10 -8 30 -31 42 -53 21 -36 23 -50 22 -150 -2 -133
-48 -371 -84 -437 -49 -88 -167 -113 -297 -62 -101 40 -333 158 -436 222 -128
79 -243 195 -289 292 -47 99 -56 141 -63 295 -10 213 14 289 136 432 108 126
238 202 412 238 87 19 138 19 207 0 51 -13 74 -27 219 -130 134 -95 279 -101
375 -13 l42 38 -42 -6 c-34 -5 -43 -3 -51 13 -39 72 -17 164 60 248 87 96 192
140 261 112 19 -9 43 -27 51 -41 51 -84 47 -79 63 -64 18 19 9 78 -18 106 -41
45 -218 42 -297 -4 -73 -43 -179 -157 -193 -206 -10 -41 -12 -42 -26 -23 -8
11 -27 45 -42 75 -23 49 -26 67 -26 165 0 119 13 171 81 327 45 104 60 167 78
334 21 184 42 256 106 360 29 47 49 88 46 91 -16 16 -65 -41 -107 -125 -53
-105 -81 -198 -110 -367 -23 -136 -55 -253 -104 -371 -40 -96 -75 -227 -75
-278 0 -71 -55 -157 -122 -192 -24 -13 -32 -12 -65 1 -45 19 -72 42 -84 72
l-8 21 -39 -19 c-21 -11 -79 -26 -128 -35 -49 -9 -142 -33 -206 -55 -65 -21
-120 -39 -123 -39 -3 0 -5 7 -5 15 0 8 -6 15 -12 15 -22 0 -123 -115 -188
-214 -35 -53 -67 -96 -72 -96 -33 0 80 244 149 320 26 29 88 76 144 111 55 34
102 65 105 70 11 19 -22 7 -110 -38 -127 -67 -185 -127 -265 -278 -90 -171
-102 -179 -70 -44 26 111 80 201 165 276 140 124 149 132 133 133 -26 0 -134
-77 -212 -151 -73 -70 -95 -76 -58 -16 18 30 101 103 178 156 49 33 161 69
324 101 80 16 167 39 195 50 71 31 141 87 206 167 84 102 132 192 173 322 120
378 128 389 380 558 50 33 110 79 135 101 51 47 75 51 138 22z m-606 -1507
c37 -39 111 -180 104 -198 -7 -19 -78 -20 -114 -1 -34 18 -65 51 -86 93 -21
42 -20 61 4 101 25 40 57 42 92 5z"/>
<path d="M7554 7011 c-58 -27 -74 -44 -74 -77 0 -19 26 -18 34 1 9 23 68 55
103 55 38 0 49 13 27 34 -20 21 -19 21 -90 -13z"/>
<path d="M6103 5430 c-43 -40 -90 -74 -105 -77 -51 -10 -63 -53 -14 -53 46 0
216 136 216 174 0 33 -23 23 -97 -44z"/>
<path d="M8073 6945 c-18 -7 -42 -29 -53 -47 -19 -32 -28 -98 -12 -98 4 0 20
22 35 50 33 59 39 63 97 70 31 3 45 10 45 20 0 21 -70 24 -112 5z"/>
<path d="M7882 6778 c-5 -7 -24 -42 -42 -78 -18 -36 -59 -98 -91 -137 -62 -76
-70 -93 -43 -93 21 0 78 60 121 128 45 69 94 173 87 184 -7 12 -20 10 -32 -4z"/>
<path d="M8873 6192 c-12 -26 -51 -79 -87 -119 -63 -68 -78 -93 -57 -93 15 0
127 96 150 129 26 36 35 78 24 108 -8 21 -10 19 -30 -25z"/>
<path d="M8647 5913 c-13 -12 -7 -30 19 -57 34 -34 48 -33 39 2 -10 42 -42 72
-58 55z"/>
<path d="M7243 5793 c-22 -27 -54 -71 -72 -100 -55 -89 -143 -162 -269 -223
-61 -30 -112 -58 -112 -62 0 -13 75 -9 118 6 61 22 148 81 206 139 67 68 196
253 196 282 0 19 -34 -2 -67 -42z"/>
<path d="M6530 5234 c-6 -14 -10 -33 -10 -42 0 -19 -19 -50 -62 -100 -32 -38
-36 -62 -10 -62 41 0 107 104 119 185 5 38 3 45 -11 45 -9 0 -21 -12 -26 -26z"/>
<path d="M8150 6100 c-13 -23 -6 -70 10 -70 14 0 32 38 28 62 -4 30 -24 34
-38 8z"/>
<path d="M8280 6069 c-15 -27 -5 -80 20 -111 17 -21 19 -22 26 -5 8 21 -12
124 -26 132 -5 3 -14 -4 -20 -16z"/>
<path d="M5187 4000 c-47 -67 -137 -248 -137 -277 l0 -27 31 30 c38 36 82 112
113 195 45 124 43 150 -7 79z"/>
<path d="M5745 3813 c-27 -20 -82 -64 -121 -98 -165 -140 -434 -294 -434 -247
0 4 29 37 65 72 36 35 65 68 65 72 0 4 -8 8 -18 8 -23 0 -118 -98 -196 -203
-74 -99 -116 -133 -191 -155 -76 -23 -81 -46 -12 -50 67 -4 140 22 177 64 16
19 30 41 30 49 0 17 62 61 145 103 141 71 509 334 559 400 16 21 16 22 -1 22
-10 0 -40 -17 -68 -37z"/>
<path d="M1550 4113 c1 -27 35 -96 58 -116 29 -27 77 -9 143 53 61 58 58 84
-5 41 -72 -50 -90 -50 -134 -2 -40 44 -62 52 -62 24z"/>
<path d="M3336 3995 c-80 -48 -186 -134 -186 -151 0 -8 8 -14 19 -14 46 0 250
174 229 196 -3 2 -30 -12 -62 -31z"/>
<path d="M3598 3972 c-42 -31 -126 -94 -185 -139 -84 -64 -150 -103 -298 -175
-256 -124 -661 -330 -760 -386 -199 -111 -260 -198 -67 -96 48 26 160 89 250
141 184 106 421 227 532 271 229 91 663 387 634 433 -10 17 -29 8 -106 -49z"/>
<path d="M3967 3808 c-31 -24 -91 -74 -134 -112 -100 -88 -196 -152 -250 -166
-48 -12 -60 -40 -17 -40 51 0 231 109 381 232 74 60 103 93 103 115 0 23 -27
14 -83 -29z"/>
<path d="M2748 3664 c-26 -8 -54 -24 -63 -36 -33 -47 -11 -50 71 -9 32 17 75
33 96 36 21 4 40 11 44 16 8 14 -95 9 -148 -7z"/>
<path d="M2101 3539 c-33 -22 -89 -72 -124 -110 -92 -101 -153 -126 -234 -97
-43 15 -52 4 -23 -27 45 -48 140 -25 245 60 126 101 195 120 411 109 155 -7
194 -1 194 31 0 19 -5 19 -57 -1 -40 -16 -46 -16 -87 0 -25 10 -82 21 -128 26
-67 6 -85 12 -96 29 -20 29 -31 27 -101 -20z"/>
<path d="M3992 3420 c-79 -32 -210 -150 -237 -212 -16 -39 -21 -108 -7 -108 4
0 22 29 40 65 43 87 88 135 188 197 46 29 84 56 84 61 0 10 -40 8 -68 -3z"/>
<path d="M2753 3160 c-147 -40 -370 -127 -392 -154 -7 -8 -16 -53 -21 -99 -9
-93 -23 -126 -82 -200 -73 -93 -86 -141 -63 -232 26 -100 126 -246 192 -282
68 -36 55 8 -27 96 -33 36 -70 85 -82 109 -51 107 -11 240 103 346 87 81 114
115 101 128 -7 7 -19 5 -41 -8 -42 -25 -56 -10 -42 43 14 52 51 85 141 126 90
42 260 97 298 97 36 0 56 14 49 34 -8 21 -44 20 -134 -4z"/>
<path d="M580 3048 c-19 -16 -60 -42 -90 -58 -30 -15 -66 -37 -80 -49 -23 -19
-23 -20 -5 -21 38 0 208 96 218 124 12 30 -10 32 -43 4z"/>
<path d="M1973 2961 c-38 -32 -113 -105 -168 -161 -55 -56 -145 -141 -200
-188 -114 -100 -110 -118 11 -52 41 23 77 40 79 38 2 -2 -1 -25 -7 -51 -11
-54 -4 -97 16 -97 9 0 16 17 20 45 14 93 118 264 236 390 64 68 100 114 100
126 0 19 -23 6 -87 -50z"/>
<path d="M3450 2593 c0 -21 5 -84 12 -139 l11 -102 -35 -74 c-31 -66 -77 -139
-191 -305 -57 -84 -99 -223 -68 -223 14 0 51 50 58 79 10 43 51 120 133 246
130 202 134 212 132 340 -1 115 -18 206 -39 213 -9 2 -13 -8 -13 -35z"/>
<path d="M1672 2272 c-15 -10 1 -25 61 -61 20 -13 57 -48 81 -79 90 -117 144
-153 282 -187 113 -29 194 -33 194 -10 0 21 -67 48 -186 75 -124 28 -167 53
-246 140 -86 96 -155 141 -186 122z"/>
<path d="M2478 2103 c-47 -53 -74 -100 -92 -162 -24 -83 -20 -151 9 -151 18 0
25 25 24 81 -2 65 6 85 67 165 54 71 67 104 40 104 -7 0 -29 -17 -48 -37z"/>
<path d="M3550 2034 c-6 -14 -10 -42 -10 -62 0 -58 -36 -213 -86 -372 -49
-158 -63 -230 -46 -230 28 0 64 91 113 285 41 159 59 266 59 343 0 65 -13 81
-30 36z"/>
<path d="M3478 1155 c-25 -46 -46 -140 -53 -230 -4 -61 -3 -74 5 -56 23 53 71
253 68 284 l-3 32 -17 -30z"/>
<path d="M2749 648 c-68 -45 -299 -266 -299 -286 0 -25 23 -9 123 86 118 111
195 178 252 215 38 26 38 27 13 27 -14 0 -54 -19 -89 -42z"/>
</g>
</svg>
