<?xml version="1.0" standalone="no"?>
<!DOCTYPE svg PUBLIC "-//W3C//DTD SVG 20010904//EN"
 "http://www.w3.org/TR/2001/REC-SVG-20010904/DTD/svg10.dtd">
<svg version="1.0" xmlns="http://www.w3.org/2000/svg"
 width="1097.000000pt" height="775.000000pt" viewBox="0 0 1097.000000 775.000000"
 preserveAspectRatio="xMidYMid meet">

<g transform="translate(0.000000,775.000000) scale(0.100000,-0.100000)"
fill="#000000" stroke="none">
<path d="M2279 7541 c-104 -20 -205 -96 -244 -186 -13 -28 -30 -101 -39 -161
-21 -140 -33 -184 -53 -191 -17 -7 -96 16 -230 66 -109 40 -219 50 -568 54
-274 2 -281 2 -327 -21 -85 -42 -158 -142 -191 -262 -10 -35 -17 -122 -21
-240 -3 -107 -13 -225 -23 -280 -26 -145 -24 -436 5 -604 13 -72 32 -166 43
-210 42 -164 61 -292 66 -452 8 -213 -2 -255 -66 -295 -58 -38 -159 -69 -220
-69 -25 0 -71 7 -101 15 -125 34 -168 18 -217 -79 -19 -38 -44 -82 -56 -98
-28 -38 -30 -171 -4 -241 33 -85 203 -195 357 -231 136 -31 295 -103 398 -181
68 -51 150 -82 243 -92 52 -5 64 -2 142 36 114 55 131 78 135 191 3 59 -4 129
-22 230 -14 80 -36 209 -50 286 -37 210 -48 355 -36 465 17 157 78 371 112
393 23 14 91 -20 278 -138 80 -51 217 -138 306 -194 l161 -102 7 -541 c4 -298
4 -545 -1 -549 -4 -4 -75 -37 -158 -73 -82 -36 -249 -109 -370 -162 -121 -53
-239 -105 -262 -115 l-43 -19 0 -203 1 -203 102 -75 c56 -41 142 -109 191
-150 147 -124 130 -115 184 -95 26 10 166 67 310 127 145 60 266 108 268 106
2 -3 40 -73 83 -157 92 -175 147 -255 245 -359 312 -329 648 -380 891 -137
159 159 215 338 216 680 0 206 -18 340 -65 497 -20 65 -36 120 -36 123 0 3 33
21 73 41 88 42 83 46 132 -111 66 -211 68 -254 25 -495 -12 -63 -28 -153 -36
-200 -21 -118 -21 -307 0 -395 24 -98 91 -235 190 -383 130 -195 174 -232 279
-232 69 0 117 25 279 142 70 51 198 145 285 208 229 166 233 171 408 475 54
96 122 175 148 175 10 0 22 -11 27 -24 15 -41 50 -921 50 -1276 l0 -126 -660
-359 -660 -360 0 -200 0 -201 126 -99 c149 -118 214 -164 233 -165 12 0 103
46 386 195 44 23 127 67 185 98 296 155 1648 879 2120 1135 l185 100 -3 169
c-1 92 -5 189 -8 215 l-6 47 -176 107 -177 106 -105 -54 c-58 -29 -279 -142
-491 -251 l-386 -197 -7 52 c-3 29 -6 218 -6 420 0 341 1 367 18 372 9 2 42 8
72 11 30 4 82 16 115 27 137 47 516 224 1045 488 631 314 719 378 737 529 7
60 -11 169 -39 234 -19 44 -88 117 -111 117 -5 0 -25 10 -44 21 -52 32 -29 44
49 26 34 -9 130 -23 213 -32 82 -9 210 -28 285 -41 307 -56 470 -37 522 59 5
10 13 58 19 107 9 92 41 234 84 379 41 137 33 225 -49 541 -49 187 -63 313
-48 441 7 55 17 109 22 120 16 30 47 23 66 -13 20 -40 108 -157 161 -215 115
-126 276 -228 400 -253 33 -7 97 -10 149 -8 77 4 101 10 160 39 165 81 305
293 350 528 36 189 27 476 -22 713 -13 64 -24 119 -24 122 0 7 49 30 315 143
249 106 354 160 367 188 15 33 -7 103 -36 117 -46 20 -120 -5 -549 -187 -87
-37 -164 -64 -171 -62 -8 3 -31 33 -52 67 -114 179 -145 222 -219 296 -123
123 -252 198 -415 240 -56 14 -69 14 -138 0 -106 -22 -175 -59 -258 -141 -106
-106 -162 -211 -208 -395 -34 -134 -50 -277 -42 -375 3 -46 3 -91 0 -100 -15
-37 -85 -57 -285 -80 -237 -28 -332 -62 -344 -123 -16 -84 -28 -118 -50 -144
-20 -23 -25 -41 -25 -82 0 -92 1 -91 -750 -413 -172 -74 -295 -123 -306 -123
-4 0 -59 51 -123 113 -174 170 -243 210 -429 252 -142 33 -219 60 -288 101
-156 95 -328 130 -811 169 -106 8 -216 20 -245 26 -98 21 -155 63 -196 145
-32 63 -85 102 -232 171 -258 121 -326 162 -438 265 -55 50 -131 98 -156 98
-38 1 -130 45 -235 114 -57 38 -131 82 -165 99 -81 40 -126 76 -356 292 -156
147 -188 165 -405 235 -55 18 -126 43 -158 56 -129 54 -363 86 -478 65z m281
-77 c45 -8 120 -30 167 -49 46 -19 142 -53 212 -75 100 -31 142 -50 197 -89
83 -59 328 -304 322 -323 -3 -7 -28 -16 -56 -20 -167 -24 -422 -208 -488 -352
-27 -59 -40 -66 -77 -41 -33 21 -128 52 -184 61 -78 11 -138 49 -260 165 -64
60 -123 109 -130 109 -8 0 -11 -4 -8 -10 22 -35 -140 38 -200 91 -54 48 -43
92 21 82 25 -4 35 -1 40 10 3 8 -13 70 -36 137 l-42 122 43 45 c71 73 137 125
177 139 51 18 203 17 302 -2z m6931 -238 c88 -31 158 -79 246 -168 81 -82 90
-93 160 -198 204 -304 297 -664 265 -1026 -15 -163 -33 -237 -87 -349 -175
-360 -493 -417 -799 -143 -121 109 -286 339 -286 398 1 57 91 229 153 290 17
17 92 61 165 97 150 73 163 87 143 153 -7 23 -23 47 -37 57 -33 21 -73 11
-221 -53 -137 -60 -160 -63 -198 -30 -16 15 -56 36 -89 48 -76 28 -86 51 -86
190 1 278 116 567 272 682 108 79 264 100 399 52z m-7997 -176 c142 -14 171
-23 336 -101 295 -142 610 -340 610 -385 0 -7 -18 -18 -42 -24 -118 -28 -186
-70 -303 -185 -74 -72 -99 -105 -128 -167 -49 -101 -84 -237 -98 -372 -10
-106 -22 -156 -35 -156 -3 0 -33 14 -65 31 -91 49 -247 180 -455 383 -206 200
-249 238 -306 267 -84 43 -48 -12 110 -166 50 -50 92 -98 92 -107 0 -12 -19
-23 -68 -37 -82 -25 -103 -46 -137 -134 -28 -77 -32 -150 -10 -203 18 -45 121
-152 191 -200 64 -44 65 -49 25 -176 -62 -199 -66 -226 -66 -458 1 -235 13
-331 90 -695 l35 -169 -20 -40 c-34 -70 -107 -106 -210 -106 -77 1 -137 24
-280 111 -157 96 -243 133 -350 153 -106 20 -190 60 -258 126 -64 61 -91 117
-92 187 0 44 5 57 34 92 18 22 37 56 40 75 12 66 91 101 159 72 21 -8 37 -20
37 -26 0 -6 -28 -24 -63 -39 l-62 -28 27 -13 c35 -16 71 -6 210 56 54 24 126
52 160 61 132 36 141 54 146 305 5 216 -4 297 -57 533 -62 270 -75 381 -68
564 8 196 30 338 57 364 14 12 20 31 20 61 0 52 -18 287 -26 337 -5 35 -2 39
96 135 l101 99 252 -7 c139 -4 306 -12 371 -18z m9300 -126 c14 -37 5 -55 -46
-88 -195 -124 -627 -288 -628 -238 0 4 -3 17 -6 29 -5 19 6 28 102 76 178 89
525 236 560 237 7 0 15 -7 18 -16z m-7210 -79 c50 -8 123 -45 202 -101 63 -44
94 -81 94 -110 0 -15 10 -16 86 -11 49 4 97 2 112 -4 15 -6 61 -43 102 -83
133 -129 176 -162 242 -186 92 -33 259 -114 288 -138 l25 -21 -25 -1 c-45 0
-232 -49 -350 -91 -250 -90 -431 -195 -585 -340 -105 -101 -167 -181 -217
-285 -51 -107 -65 -223 -50 -422 6 -75 13 -144 17 -153 23 -58 -121 -68 -269
-18 -110 36 -255 111 -392 201 -120 79 -170 101 -304 128 -118 24 -206 55
-275 98 -28 17 -90 49 -140 72 -157 72 -159 73 -178 112 -32 66 -41 160 -27
301 30 324 88 453 255 572 107 77 249 125 410 140 91 8 129 -6 236 -85 121
-90 156 -104 259 -104 68 1 104 7 181 32 111 37 139 39 194 12 73 -35 113 -17
63 29 -37 35 -84 44 -189 37 -143 -9 -154 -1 -89 70 61 66 52 100 -12 47 -48
-40 -76 -73 -98 -114 -23 -44 -56 -53 -126 -36 -38 9 -51 18 -58 39 -15 44 40
142 133 237 111 111 203 159 346 181 50 8 65 7 139 -5z m5832 -570 c29 -44 17
-55 -135 -122 -79 -35 -150 -63 -157 -63 -8 0 -22 16 -31 36 -23 46 -13 60 68
102 152 77 226 91 255 47z m-497 -42 c13 -8 37 -31 55 -50 88 -100 90 -136 13
-286 -89 -172 -135 -331 -144 -492 -6 -123 10 -239 68 -470 58 -232 57 -285
-6 -495 -39 -129 -48 -173 -52 -260 -6 -124 -17 -142 -101 -166 -72 -21 -319
-15 -372 9 -20 8 -101 25 -180 37 -287 42 -362 63 -395 113 -8 13 -24 52 -36
88 -51 157 -156 307 -347 497 -188 187 -256 216 -507 217 -126 0 -173 -4 -220
-18 -33 -10 -68 -20 -77 -23 -10 -3 -18 -1 -18 4 0 19 334 162 425 182 26 6
63 8 82 4 33 -6 35 -5 28 15 -3 11 -3 21 1 21 15 0 82 -56 144 -121 77 -81 95
-87 85 -29 -6 36 -5 41 19 50 18 7 51 5 109 -5 260 -46 450 -133 641 -294 118
-99 189 -143 222 -139 39 4 40 21 2 63 -60 69 -52 152 46 480 15 50 30 114 33
143 6 54 17 67 28 32 3 -11 15 -20 26 -20 15 0 19 7 19 38 0 45 -31 79 -123
133 -33 19 -84 57 -115 86 -65 59 -65 76 3 100 80 28 116 94 94 176 -24 90
-99 146 -99 74 0 -39 -15 -57 -47 -57 -30 0 -42 30 -50 126 -6 72 -6 74 25
102 37 35 139 60 171 42 11 -5 41 -46 67 -89 46 -77 107 -151 125 -151 5 0 18
-9 29 -20 16 -16 19 -28 13 -65 -5 -37 -3 -45 10 -45 24 0 49 55 45 98 -2 30
-10 41 -37 57 -71 41 -150 139 -166 207 -9 36 12 46 123 57 49 5 107 17 128
26 102 45 163 50 213 18z m-4062 -161 c69 -70 170 -121 252 -129 63 -6 92 -18
88 -36 -1 -9 13 -11 53 -7 169 15 182 7 185 -107 2 -43 10 -106 19 -140 15
-56 15 -66 2 -91 -8 -16 -22 -35 -31 -42 -23 -19 -48 -70 -35 -70 32 0 71 34
95 85 29 59 30 87 4 198 -11 49 -11 64 1 100 l15 42 59 3 c61 3 215 -18 326
-44 65 -16 200 -72 200 -83 0 -3 -30 -32 -66 -65 -36 -32 -63 -61 -60 -64 3
-3 32 7 63 21 151 67 358 55 531 -32 138 -69 293 -199 344 -288 l17 -29 -299
-129 -300 -128 -106 103 c-167 160 -275 220 -399 220 -111 0 -92 -29 37 -55
90 -19 151 -41 203 -74 46 -29 245 -192 245 -201 0 -3 -103 -49 -228 -102
-125 -53 -333 -142 -462 -197 -342 -146 -454 -189 -463 -181 -16 14 -20 128
-7 229 13 104 51 206 104 276 13 17 31 45 40 63 26 50 -4 42 -51 -13 -133
-159 -186 -338 -160 -542 l8 -62 -48 -21 c-108 -49 -301 -128 -353 -145 -51
-17 -55 -17 -65 0 -33 55 -84 121 -107 138 -36 27 -98 36 -253 36 l-131 1 -18
33 c-44 75 -186 285 -214 315 -39 42 -50 40 -48 -5 l1 -38 -92 2 c-51 1 -102
7 -113 13 -32 17 -47 62 -60 180 -26 224 26 499 99 517 14 3 74 -2 134 -11 82
-13 112 -15 121 -6 28 28 -101 80 -200 80 l-59 1 96 93 c221 214 523 368 829
421 196 34 188 35 257 -33z m-3531 -111 c21 -15 48 -38 59 -51 34 -38 194
-172 320 -267 122 -93 147 -118 183 -188 31 -61 57 -79 187 -133 66 -27 167
-72 225 -100 80 -38 135 -57 230 -77 151 -32 211 -58 357 -158 220 -150 329
-191 563 -212 181 -17 361 -42 407 -56 17 -6 47 -27 65 -47 36 -40 128 -183
128 -198 -1 -5 -30 -31 -66 -59 -81 -62 -98 -92 -91 -157 7 -60 -6 -93 -45
-109 -16 -6 -48 -34 -70 -60 -22 -27 -49 -51 -60 -55 -12 -3 -47 11 -101 42
-160 93 -1053 642 -1307 804 -41 26 -259 164 -485 306 -431 271 -664 422 -704
458 -32 29 -71 113 -71 156 0 44 36 118 71 142 33 25 97 47 135 48 19 0 46
-11 70 -29z m6824 -98 c0 -37 -24 -22 -28 17 -3 30 -2 32 12 21 9 -8 16 -25
16 -38z m185 -43 c13 -21 -7 -50 -52 -75 -109 -60 -665 -315 -1093 -500 -118
-51 -294 -128 -390 -170 -96 -42 -220 -96 -275 -120 -55 -23 -302 -131 -550
-240 -891 -391 -1116 -486 -1199 -505 -36 -8 -42 -6 -69 21 -25 26 -28 32 -16
43 19 18 453 214 844 381 55 23 204 87 330 142 127 55 448 195 715 311 267
116 548 238 625 272 596 261 909 391 1025 426 86 26 97 28 105 14z m-155 -255
c15 -32 39 -57 83 -87 82 -57 102 -97 100 -198 -1 -63 -11 -104 -57 -242 -31
-92 -59 -185 -62 -208 -4 -22 -10 -42 -13 -44 -4 -3 -40 22 -81 55 -126 101
-302 188 -505 250 -82 25 -124 32 -228 36 -108 5 -133 9 -159 27 -45 30 -45
42 1 70 69 44 851 385 883 386 10 0 25 -18 38 -45z m-1330 -639 c0 -16 -58
-65 -108 -90 -44 -23 -86 -18 -90 10 -4 27 34 53 113 75 75 22 85 22 85 5z
m296 -46 c128 -62 450 -393 518 -533 50 -102 56 -391 11 -562 -52 -195 -212
-363 -410 -430 -130 -43 -305 -37 -411 15 -103 50 -232 192 -310 340 -50 96
-92 133 -147 133 -57 0 -116 -30 -144 -74 -65 -102 -140 -150 -237 -153 l-51
-1 -31 93 c-17 51 -34 96 -38 100 -4 4 -33 7 -64 7 -55 0 -56 1 -76 40 -33 63
-43 53 -61 -67 -3 -22 -27 -69 -55 -110 -53 -78 -60 -98 -33 -98 29 0 132 89
133 116 0 17 32 42 62 49 21 5 33 1 52 -19 22 -22 26 -34 26 -89 0 -152 -100
-329 -243 -431 -85 -60 -131 -82 -239 -112 -51 -15 -102 -31 -113 -37 -19 -10
-19 -10 0 -18 11 -4 38 -8 61 -8 22 -1 43 -4 46 -7 3 -3 -24 -44 -60 -92 -60
-80 -112 -171 -112 -198 0 -20 -114 -181 -190 -269 -49 -58 -107 -110 -170
-155 -52 -37 -133 -100 -180 -139 -47 -39 -107 -82 -135 -95 -27 -13 -87 -46
-133 -74 -111 -68 -142 -78 -181 -58 -86 45 -254 311 -328 521 -26 75 -28 90
-27 235 1 213 51 639 83 697 5 11 28 25 50 32 42 12 57 41 23 41 -31 0 -109
59 -148 111 -50 69 -54 111 -15 169 54 79 40 178 -34 250 -19 19 -35 41 -35
51 0 43 163 59 197 19 18 -20 53 -28 53 -11 0 5 -5 22 -10 36 -14 38 9 81 80
149 91 87 140 96 178 33 31 -54 152 -123 152 -88 0 5 -38 51 -85 102 -59 64
-85 99 -83 113 3 19 69 65 94 66 34 0 242 -228 285 -312 12 -24 18 -50 15 -64
-3 -12 -50 -61 -104 -108 -166 -145 -192 -192 -199 -355 -6 -127 11 -341 31
-399 9 -23 40 -98 71 -167 61 -137 90 -246 80 -309 -4 -23 -21 -83 -38 -133
-17 -51 -27 -96 -23 -100 4 -5 21 8 37 27 81 96 96 254 40 422 -29 86 -31 101
-21 132 19 58 249 263 269 240 4 -5 16 -31 25 -57 17 -46 39 -67 53 -53 4 4
-1 47 -12 96 -29 147 -18 286 40 480 48 163 67 291 45 305 -20 12 -32 -10 -39
-71 -4 -33 -10 -65 -14 -72 -13 -19 -79 -14 -127 11 -42 21 -45 24 -44 62 2
71 18 93 86 125 586 270 1356 599 1582 676 113 39 166 32 166 -21 0 -30 4 -35
45 -51 25 -9 45 -20 45 -24 0 -4 -31 -72 -69 -151 -77 -159 -101 -237 -101
-325 0 -32 -10 -92 -21 -133 -36 -128 -8 -253 72 -326 33 -29 47 -35 85 -35
39 0 51 5 80 34 36 36 43 63 19 72 -9 4 -28 -8 -49 -30 -31 -33 -36 -35 -62
-26 -72 28 -98 83 -98 207 0 72 3 86 27 121 25 35 28 48 30 138 2 90 5 107 39
182 95 216 213 372 308 405 66 23 164 21 216 -3z m-4871 -63 c72 -40 160 -91
198 -112 l67 -39 0 -101 c0 -118 3 -111 -120 -241 -203 -214 -239 -347 -226
-845 l7 -266 -24 -20 c-14 -11 -72 -40 -128 -66 -222 -99 -471 -207 -479 -207
-11 0 -102 63 -190 133 l-75 59 4 171 c2 95 4 173 6 175 6 6 751 334 784 345
l33 11 -7 486 c-7 448 -4 590 13 590 4 0 66 -33 137 -73z m410 -248 c91 -48
174 -102 169 -110 -8 -14 -208 -11 -222 3 -19 19 -14 128 7 128 3 0 24 -9 46
-21z m1525 -138 c0 -5 -40 -46 -88 -92 -137 -130 -194 -151 -178 -63 9 46 98
138 147 152 44 13 119 15 119 3z m-1335 -56 c86 -23 159 -66 260 -153 353
-305 550 -796 524 -1302 -15 -290 -143 -538 -324 -626 -56 -27 -68 -29 -175
-29 -107 0 -120 2 -190 33 -158 67 -322 220 -456 424 -68 103 -144 250 -144
279 0 31 66 70 257 154 73 31 149 72 170 90 36 31 38 36 38 89 0 65 -10 76
-70 76 -39 -1 -98 -21 -313 -109 -125 -52 -166 -60 -176 -36 -15 41 -28 274
-23 430 6 202 24 284 93 424 58 119 118 180 217 226 40 18 83 35 97 38 56 10
159 6 215 -8z m855 -445 c0 -6 -161 -80 -174 -80 -11 0 -6 -6 -132 161 -159
211 -165 207 84 57 122 -73 222 -135 222 -138z m990 -9 c36 -11 80 -30 99 -42
29 -18 32 -24 27 -52 -6 -33 -19 -140 -36 -288 -12 -105 -26 -149 -48 -149
-26 0 -191 86 -247 128 -27 20 -58 53 -67 73 -16 32 -17 40 -3 93 8 32 27 79
42 104 35 61 138 166 155 160 7 -3 42 -15 78 -27z m-872 -13 c7 -7 12 -26 12
-44 0 -41 -46 -83 -138 -124 -96 -44 -107 -46 -126 -19 -27 39 -20 66 27 100
52 38 166 92 208 98 3 1 10 -4 17 -11z m4003 -11 c52 -35 82 -118 83 -234 l1
-92 -49 -50 c-61 -62 -230 -158 -636 -363 -460 -233 -835 -409 -1009 -474
-125 -47 -296 -21 -494 76 -108 53 -263 153 -281 182 -9 15 -1 27 43 72 30 30
100 92 155 137 117 95 170 156 226 260 48 88 90 128 161 153 92 32 169 78 211
125 51 59 85 81 125 81 44 0 78 -37 144 -156 66 -120 201 -263 289 -306 244
-120 546 -47 767 186 112 117 183 256 183 357 0 34 20 69 39 69 5 0 23 -10 42
-23z m-3309 -487 c52 -33 101 -66 107 -74 9 -11 -1 -28 -49 -86 -33 -39 -68
-85 -77 -101 -10 -16 -22 -29 -29 -29 -12 0 -47 110 -64 199 -14 77 -13 151 3
151 7 0 56 -27 109 -60z m-1745 -62 c46 -38 -18 -78 -397 -248 -368 -164 -696
-300 -725 -300 -31 0 -45 20 -45 64 l0 41 35 -40 35 -40 -7 33 c-4 24 -1 38
13 53 22 24 144 88 295 152 57 25 178 78 269 117 432 189 442 193 490 183 14
-2 31 -9 37 -15z m2902 -644 c52 -29 134 -65 183 -81 l88 -27 0 -88 c0 -49 -5
-234 -10 -411 -6 -177 -7 -349 -3 -382 8 -57 10 -60 36 -58 47 3 382 164 834
401 l192 101 148 -85 c81 -47 154 -91 162 -99 10 -10 13 -45 12 -146 -3 -208
2 -196 -99 -250 -48 -25 -312 -168 -587 -316 -838 -452 -1342 -723 -1857 -997
l-277 -148 -48 39 c-26 21 -96 78 -155 126 l-108 88 0 157 1 157 192 103 c106
56 359 192 562 303 204 110 414 224 467 252 l98 52 0 703 0 704 38 -23 c20
-12 79 -46 131 -75z"/>
<path d="M2480 7094 c-128 -22 -196 -46 -185 -64 9 -14 56 -12 122 5 39 10
106 15 210 15 153 0 190 8 130 29 -33 12 -233 23 -277 15z"/>
<path d="M9220 7171 c0 -4 28 -16 63 -25 159 -44 299 -141 391 -270 214 -300
345 -915 266 -1246 -28 -116 -53 -176 -114 -266 -25 -38 -46 -75 -46 -82 0
-45 80 53 145 179 64 124 75 176 75 354 0 250 -30 452 -96 653 -131 400 -333
652 -562 701 -63 13 -122 14 -122 2z"/>
<path d="M1059 6904 c-59 -54 -146 -104 -179 -104 -18 0 -82 -37 -92 -54 -12
-18 -9 -56 5 -56 6 0 38 18 70 40 33 22 75 42 95 46 61 10 72 14 107 46 36 31
68 78 80 116 11 38 -18 26 -86 -34z"/>
<path d="M832 6186 c-54 -84 -67 -168 -67 -431 0 -186 4 -246 19 -315 47 -216
130 -420 172 -420 23 0 17 30 -46 211 -83 237 -113 384 -113 564 0 146 9 209
50 334 32 98 26 120 -15 57z"/>
<path d="M1039 4689 c-13 -25 -5 -146 17 -253 16 -83 34 -109 34 -50 0 74 -24
324 -32 324 -4 0 -12 -9 -19 -21z"/>
<path d="M856 4578 c-3 -13 -7 -45 -10 -73 -4 -28 -13 -55 -22 -62 -8 -6 -42
-14 -74 -18 -59 -7 -102 -27 -87 -41 4 -4 31 -9 61 -12 76 -6 141 24 162 75
14 31 14 46 4 90 -13 59 -27 76 -34 41z"/>
<path d="M4192 6254 c-101 -30 -210 -83 -328 -162 -81 -55 -142 -107 -289
-246 -68 -64 -97 -78 -187 -87 -131 -13 -243 -88 -359 -240 -33 -43 -70 -84
-82 -91 -34 -19 -165 -15 -205 6 -19 10 -74 48 -123 85 -194 148 -492 266
-516 205 -7 -20 8 -30 60 -38 80 -13 232 -95 402 -216 120 -86 139 -94 239
-100 75 -5 91 -9 106 -28 10 -12 24 -22 32 -22 14 0 52 48 123 153 49 72 138
158 195 187 24 12 70 25 102 27 49 5 59 3 64 -12 4 -10 2 -30 -4 -44 -5 -14
-22 -54 -36 -88 -15 -34 -40 -113 -56 -175 -18 -69 -37 -118 -47 -126 -24 -18
-65 -7 -150 39 -75 41 -93 46 -93 28 0 -20 62 -66 149 -112 116 -62 122 -69
131 -168 8 -87 31 -134 66 -134 27 0 30 60 8 133 -64 211 55 586 255 804 173
189 473 374 646 399 77 11 105 22 105 40 0 18 -126 8 -208 -17z"/>
<path d="M8665 6111 c-12 -20 55 -121 81 -121 22 0 17 52 -9 91 -23 34 -59 49
-72 30z"/>
<path d="M8864 5900 c-33 -21 -104 -78 -159 -126 -55 -48 -118 -100 -139 -116
-48 -35 -32 -36 37 -3 61 29 350 262 341 276 -9 15 -19 11 -80 -31z"/>
<path d="M7470 4795 c0 -73 404 -340 487 -323 11 2 -15 20 -67 44 -92 44 -152
87 -299 213 -94 80 -121 95 -121 66z"/>
<path d="M8669 4463 c-6 -15 -13 -41 -16 -58 -16 -85 -67 -135 -137 -135 -40
0 -52 -12 -31 -30 26 -22 93 -6 132 32 41 40 83 125 86 174 3 46 -19 56 -34
17z"/>
<path d="M8668 4141 c-29 -27 -50 -52 -46 -56 18 -19 138 60 138 91 0 28 -40
13 -92 -35z"/>
<path d="M4524 6067 c-10 -27 5 -37 55 -37 36 0 53 -5 66 -20 20 -22 56 -23
63 -2 4 14 -90 60 -142 69 -27 4 -37 2 -42 -10z"/>
<path d="M4773 5993 c-21 -11 -41 -33 -54 -61 -23 -47 -37 -132 -22 -132 17 0
33 24 33 49 0 53 77 127 128 123 17 -1 23 3 20 16 -4 23 -63 26 -105 5z"/>
<path d="M4202 5920 c2 -5 30 -30 63 -55 73 -55 178 -98 225 -93 l35 4 -35 16
c-19 9 -69 32 -110 51 -41 18 -93 46 -114 60 -39 27 -70 35 -64 17z"/>
<path d="M5049 5871 c-42 -42 -48 -64 -23 -99 21 -30 34 -28 34 6 0 16 13 49
30 73 16 24 30 47 30 52 0 19 -36 3 -71 -32z"/>
<path d="M3960 5749 c0 -26 66 -132 111 -179 48 -50 75 -60 97 -38 19 19 15
26 -18 33 -41 9 -94 65 -109 115 -7 23 -21 50 -32 61 -21 21 -49 26 -49 8z"/>
<path d="M4629 5750 c-91 -9 -155 -33 -176 -67 -6 -11 -39 -30 -74 -42 -98
-36 -185 -134 -165 -187 4 -10 15 -14 33 -12 23 2 29 9 33 38 9 50 11 54 98
101 42 23 99 57 125 75 27 19 65 38 85 43 54 15 210 41 246 42 17 0 40 4 51 9
25 11 -134 10 -256 0z"/>
<path d="M4942 5700 c-13 -5 -58 -37 -100 -69 -42 -33 -104 -75 -138 -95 -109
-63 -164 -149 -119 -186 20 -17 45 -5 45 21 0 38 31 74 100 117 38 24 102 70
142 103 140 115 235 113 378 -5 63 -53 111 -79 124 -66 12 12 -3 32 -64 84
-85 73 -146 97 -254 102 -50 2 -101 0 -114 -6z"/>
<path d="M4342 5393 c4 -23 59 -59 104 -67 26 -5 43 -2 62 10 l27 18 -68 12
c-38 7 -74 17 -80 22 -7 5 -20 12 -30 15 -14 5 -18 3 -15 -10z"/>
<path d="M5155 5351 c-50 -13 -103 -39 -149 -71 -38 -27 -55 -32 -141 -40
-148 -15 -212 -63 -244 -185 -14 -52 -50 -333 -53 -412 -4 -115 30 -95 42 24
5 44 15 95 23 115 16 38 62 77 115 98 44 17 40 26 -15 33 -64 7 -76 25 -70
104 8 105 40 133 179 159 109 21 176 46 245 90 86 57 112 67 178 68 33 0 62 6
65 11 6 12 -132 17 -175 6z"/>
<path d="M4945 4922 c-58 -36 -143 -139 -159 -193 -9 -27 -38 -89 -65 -137
-51 -89 -68 -144 -56 -181 14 -46 43 -16 60 64 9 45 51 102 87 121 17 9 60 20
96 24 35 5 67 11 70 15 14 13 -33 35 -74 35 -42 0 -74 19 -74 44 0 7 12 35 26
64 28 56 84 112 113 112 22 0 45 25 36 40 -9 15 -26 12 -60 -8z"/>
<path d="M6326 4768 c-14 -24 -55 -72 -92 -108 -77 -74 -127 -169 -188 -353
-39 -118 -43 -137 -23 -137 30 0 74 84 112 217 27 92 70 167 136 235 74 77
113 140 104 168 -10 30 -21 25 -49 -22z"/>
<path d="M6345 4577 c-10 -88 -2 -589 9 -606 7 -11 10 -11 18 2 10 18 12 626
2 651 -12 32 -23 15 -29 -47z"/>
<path d="M4167 4153 c-13 -12 -7 -24 17 -33 14 -5 36 -31 53 -62 19 -36 35
-54 51 -56 26 -4 28 8 6 51 -21 42 -52 75 -86 93 -31 16 -32 16 -41 7z"/>
<path d="M4585 4118 c-11 -6 -45 -33 -75 -58 -72 -62 -126 -92 -231 -130 -48
-17 -95 -37 -105 -45 -32 -23 -6 -30 44 -12 26 9 78 21 115 26 38 5 81 17 95
27 55 35 117 90 154 137 49 63 51 82 3 55z"/>
<path d="M5170 4110 c-13 -9 -13 -11 0 -20 8 -6 26 -13 40 -16 113 -26 145
-37 181 -61 23 -16 53 -36 68 -45 32 -22 61 -23 61 -3 0 22 -68 94 -109 114
-69 35 -208 53 -241 31z"/>
<path d="M4233 3059 c-6 -8 -23 -38 -38 -68 -69 -139 -75 -380 -9 -442 41 -38
49 -13 23 71 -29 96 -23 228 15 348 27 83 31 117 9 91z"/>
<path d="M4691 2443 c-16 -39 -85 -85 -134 -90 -29 -3 -68 4 -121 21 -47 16
-83 23 -89 17 -12 -12 35 -47 101 -72 76 -28 138 -22 195 18 68 49 106 118 71
130 -6 2 -17 -9 -23 -24z"/>
<path d="M2656 4311 c-4 -5 31 -22 76 -37 107 -35 201 -82 265 -132 162 -129
354 -525 434 -898 21 -94 24 -136 24 -314 0 -184 -2 -213 -23 -285 -34 -116
-54 -155 -111 -219 -50 -56 -71 -109 -33 -85 44 28 158 209 193 309 21 59 23
82 23 245 0 191 -14 292 -70 505 -53 202 -153 439 -245 580 -66 102 -190 218
-285 267 -110 58 -233 89 -248 64z"/>
</g>
</svg>
