<?xml version="1.0" standalone="no"?>
<!DOCTYPE svg PUBLIC "-//W3C//DTD SVG 20010904//EN"
 "http://www.w3.org/TR/2001/REC-SVG-20010904/DTD/svg10.dtd">
<svg version="1.0" xmlns="http://www.w3.org/2000/svg"
 width="1104.000000pt" height="675.000000pt" viewBox="0 0 1104.000000 675.000000"
 preserveAspectRatio="xMidYMid meet">

<g transform="translate(0.000000,675.000000) scale(0.100000,-0.100000)"
fill="#000000" stroke="none">
<path d="M2235 6592 c-108 -37 -199 -112 -232 -190 -8 -19 -18 -83 -23 -141
-8 -109 -34 -221 -51 -221 -6 0 -62 23 -125 50 -190 83 -226 90 -503 102 -287
12 -434 3 -507 -32 -29 -14 -62 -43 -90 -79 -85 -108 -91 -135 -114 -476 -5
-88 -17 -214 -26 -280 -12 -90 -15 -164 -10 -295 6 -187 20 -285 79 -530 19
-80 40 -177 46 -217 22 -143 9 -358 -25 -424 -17 -34 -138 -96 -207 -105 -31
-5 -82 1 -156 16 -109 23 -109 23 -143 3 -36 -21 -86 -97 -120 -183 -15 -38
-22 -78 -22 -130 -1 -64 3 -82 26 -121 63 -107 155 -162 393 -234 145 -44 214
-75 323 -148 202 -135 367 -143 488 -22 83 82 86 95 64 206 -117 596 -114 577
-114 794 0 182 1 195 32 309 17 66 42 140 54 165 20 40 27 46 53 45 17 -1 54
-16 83 -34 l52 -33 0 -916 c0 -842 -12 -1559 -28 -1705 l-7 -59 -190 -84
c-104 -46 -254 -112 -333 -146 l-142 -62 0 -260 0 -261 143 -46 c238 -79 215
-77 348 -20 63 27 263 121 444 207 182 87 337 158 347 157 9 0 81 -23 160 -51
78 -28 208 -72 288 -100 229 -78 803 -275 1315 -452 259 -89 488 -167 510
-175 22 -7 173 -58 335 -114 657 -226 816 -280 827 -280 7 0 100 68 205 151
l193 151 6 286 c3 158 7 459 8 670 l1 382 190 0 190 0 622 309 c795 395 928
469 1029 572 78 80 99 193 59 321 -25 81 -62 132 -134 183 -31 22 -56 44 -56
49 0 9 5 8 155 -22 159 -33 491 -65 685 -66 236 -1 251 9 275 177 20 145 42
239 89 390 l43 138 -69 277 c-81 330 -95 424 -79 557 6 52 16 106 23 120 17
37 44 31 67 -14 60 -116 293 -353 406 -413 335 -175 656 -5 789 420 53 170 58
552 10 767 -9 39 -18 90 -21 116 l-5 45 93 44 c52 24 164 73 249 110 213 92
285 128 316 157 22 21 25 29 19 61 -4 20 -11 45 -16 54 -26 48 -106 28 -414
-104 -115 -50 -235 -99 -265 -110 l-55 -19 -33 38 c-19 21 -43 56 -54 78 -58
113 -226 295 -358 385 -109 74 -209 104 -339 98 -90 -3 -105 -7 -175 -41 -173
-86 -291 -264 -347 -521 -12 -57 -22 -152 -26 -256 -3 -91 -10 -175 -14 -188
-13 -34 -66 -51 -187 -62 -140 -13 -303 -46 -367 -75 -55 -24 -68 -45 -79
-118 -3 -21 -19 -57 -35 -79 -26 -35 -31 -52 -31 -95 0 -70 -17 -87 -151 -151
-126 -60 -678 -301 -921 -403 l-68 -28 -72 97 c-125 167 -165 209 -232 241
-62 29 -210 75 -281 87 -44 7 -114 42 -214 103 -34 22 -91 49 -125 61 -79 26
-282 54 -576 80 -406 35 -403 34 -515 178 -74 93 -131 133 -289 201 -142 61
-236 118 -331 201 -102 88 -178 137 -235 149 -63 14 -87 26 -224 114 -60 38
-137 82 -171 98 -79 35 -132 78 -311 249 -81 77 -170 155 -198 174 -53 37
-445 173 -576 202 -92 20 -253 18 -315 -4z m309 -52 c33 -5 107 -30 165 -54
58 -25 159 -61 223 -81 89 -27 135 -48 195 -87 86 -57 349 -311 339 -327 -4
-5 -52 -24 -109 -41 -252 -78 -394 -183 -458 -339 -12 -28 -26 -51 -31 -51 -5
0 -28 10 -51 22 -50 25 -130 48 -172 48 -55 1 -113 37 -217 137 -144 138 -171
158 -197 141 -18 -11 -31 -7 -101 27 -44 21 -92 52 -107 67 -26 28 -27 30 -12
56 13 24 21 27 58 24 32 -2 42 1 38 10 -26 68 -67 214 -67 239 0 49 130 177
208 205 44 16 212 18 296 4z m6897 -236 c162 -48 333 -191 464 -388 225 -339
315 -873 209 -1245 -56 -197 -145 -325 -268 -382 -136 -64 -277 -61 -414 7
-127 62 -345 289 -432 449 l-33 60 66 130 c37 74 79 144 99 162 18 17 90 58
160 92 77 37 132 69 139 82 17 33 13 89 -9 118 -30 39 -76 33 -219 -27 -164
-70 -172 -72 -221 -32 -22 17 -66 40 -98 50 l-59 18 -3 103 c-13 396 138 720
372 801 65 22 176 23 247 2z m-8101 -174 c203 -13 285 -30 420 -87 205 -88
600 -321 664 -391 18 -21 18 -21 -5 -31 -196 -81 -282 -132 -359 -211 -91 -93
-122 -170 -186 -449 -41 -182 -56 -221 -82 -221 -44 0 -256 167 -457 360 -327
314 -364 345 -389 320 -8 -8 24 -44 127 -143 76 -73 138 -137 137 -144 0 -12
-37 -26 -98 -38 -47 -10 -86 -47 -113 -107 -33 -73 -33 -203 -2 -264 29 -54
83 -106 170 -160 l71 -44 -10 -38 c-6 -20 -23 -75 -38 -122 -82 -246 -89 -462
-25 -795 99 -516 98 -563 -4 -630 -90 -60 -226 -35 -406 76 -156 95 -229 128
-352 160 -130 33 -174 53 -257 117 -73 56 -95 102 -96 194 0 57 4 71 25 96 14
17 36 55 50 86 13 30 33 60 44 65 51 28 158 -2 130 -36 -7 -8 -30 -23 -51 -34
-22 -11 -36 -24 -32 -31 12 -19 87 0 245 62 238 94 226 87 251 139 19 40 22
66 26 216 5 198 -5 290 -54 495 -81 339 -92 429 -74 640 16 205 36 311 60 332
25 20 26 70 4 206 -14 88 -14 105 0 171 24 114 85 195 176 235 43 19 246 21
490 6z m9451 -151 c18 -18 19 -23 6 -42 -17 -25 -128 -83 -320 -165 -235 -100
-266 -112 -310 -118 -39 -6 -44 -4 -55 21 -10 22 -10 30 0 43 30 37 582 282
636 282 12 0 31 -9 43 -21z m-7153 -87 c66 -26 138 -71 185 -119 28 -27 37
-45 37 -70 0 -39 13 -42 80 -18 23 8 57 15 75 15 35 0 38 -2 213 -151 99 -85
166 -126 262 -162 110 -41 239 -112 227 -124 -3 -2 -67 -20 -144 -38 -599
-145 -991 -446 -1068 -819 -28 -139 -30 -247 -6 -372 11 -61 21 -114 21 -119
0 -14 -193 4 -270 25 -103 29 -239 97 -340 170 -146 106 -197 127 -438 176
-56 12 -102 29 -140 52 -31 19 -128 70 -215 114 -199 99 -192 88 -191 313 1
176 24 334 64 438 39 104 220 273 338 317 72 27 171 48 269 56 97 8 120 -1
239 -91 49 -38 107 -76 129 -86 60 -28 136 -24 289 16 159 41 177 42 216 14
32 -24 63 -19 58 8 -2 10 -19 26 -38 36 -29 15 -50 17 -125 13 -49 -3 -109 -9
-132 -12 -24 -3 -43 -2 -43 3 0 4 23 36 50 70 28 34 50 67 50 72 0 39 -82 -27
-153 -122 -16 -21 -44 -45 -62 -54 -31 -15 -35 -15 -76 8 -66 37 -69 48 -33
121 84 169 228 291 392 333 76 19 211 13 280 -13z m5768 -547 c4 -24 2 -41 -7
-52 -23 -27 -229 -123 -264 -123 -34 0 -65 31 -65 65 0 24 252 143 307 145 17
0 23 -7 29 -35z m-524 -24 c54 -20 147 -141 155 -199 5 -39 6 -35 -90 -212
-74 -137 -99 -236 -104 -420 -6 -178 1 -232 58 -480 55 -236 56 -317 6 -480
-63 -206 -70 -238 -63 -322 6 -74 6 -77 -20 -97 -73 -57 -291 -85 -376 -48
-44 18 -188 50 -303 67 -99 14 -249 53 -314 81 -47 20 -50 24 -82 102 -17 45
-46 107 -62 137 -121 218 -329 453 -464 523 -160 83 -336 101 -521 52 -193
-50 -160 -30 218 131 220 95 190 95 300 3 34 -28 71 -67 82 -85 28 -47 48 -44
48 6 0 59 23 67 131 45 119 -24 293 -78 382 -119 96 -43 171 -95 272 -185 127
-114 202 -158 228 -132 11 11 3 32 -39 101 -28 46 -13 165 40 328 36 112 75
275 76 321 0 3 6 -5 13 -19 19 -37 41 -32 45 11 3 31 -2 40 -36 70 -22 19 -60
46 -84 61 -25 15 -75 52 -112 82 -66 55 -66 55 -44 69 164 102 165 105 142
193 -16 64 -19 70 -47 102 -31 34 -57 29 -57 -10 0 -47 -13 -62 -45 -54 -33 8
-55 57 -55 125 0 89 32 125 123 137 65 9 98 -13 148 -98 23 -40 69 -101 102
-136 l59 -64 -6 -50 -7 -50 25 19 c30 22 46 54 46 94 0 43 -14 63 -64 93 -46
27 -103 103 -127 169 -20 57 -4 68 122 77 62 4 120 15 144 25 104 46 121 50
157 36z m-4040 -188 c53 -52 177 -111 248 -120 32 -4 61 -14 72 -25 17 -17 36
-20 130 -21 135 -2 135 -2 136 -130 0 -50 5 -105 11 -120 21 -54 14 -90 -26
-132 l-38 -40 29 -3 c79 -9 105 113 59 276 -30 108 2 129 181 119 123 -7 266
-40 382 -88 96 -40 127 -64 114 -89 -9 -16 -2 -18 78 -25 48 -3 107 -11 132
-17 70 -17 179 -70 247 -122 61 -46 184 -171 224 -227 l20 -28 -78 -39 c-43
-22 -235 -107 -428 -190 -192 -82 -510 -219 -705 -305 -528 -230 -500 -219
-507 -201 -8 22 4 225 18 299 12 64 47 140 103 224 31 46 45 81 32 81 -41 0
-142 -149 -194 -284 -10 -28 -17 -94 -21 -205 l-6 -164 -205 -88 c-113 -49
-210 -89 -216 -89 -7 0 -26 22 -44 49 -41 65 -107 125 -154 141 -40 13 -92 10
-168 -11 -41 -10 -53 -10 -92 5 -54 21 -99 71 -204 226 -72 108 -117 158 -128
147 -4 -4 -7 -19 -8 -34 -1 -23 -7 -28 -36 -35 -43 -9 -126 0 -161 18 -53 27
-78 144 -79 362 0 117 3 142 26 212 37 112 54 125 159 124 60 -1 91 -6 109
-17 44 -29 77 -17 57 21 -13 24 -89 57 -168 72 -35 7 -63 14 -63 16 0 5 116
112 175 161 174 145 503 305 683 333 31 5 103 8 159 7 l103 -2 42 -42z m-3524
-115 c24 -16 71 -56 105 -87 91 -84 175 -151 279 -224 117 -82 151 -119 173
-184 20 -64 43 -83 143 -118 42 -15 136 -56 207 -90 137 -67 218 -93 352 -118
105 -19 167 -48 274 -129 200 -150 368 -205 789 -258 214 -26 252 -36 283 -68
35 -37 117 -172 117 -193 0 -9 -22 -33 -49 -52 -27 -20 -61 -52 -77 -72 -26
-34 -28 -44 -27 -116 l2 -78 -42 -19 c-23 -11 -59 -36 -80 -56 -21 -20 -42
-36 -46 -36 -4 0 -27 28 -51 63 -68 97 -216 243 -306 303 -172 114 -271 143
-490 144 l-82 0 -428 266 c-897 557 -1245 782 -1282 828 -26 34 -46 126 -38
180 13 83 59 128 149 145 52 11 71 6 125 -31z m6818 -62 c7 -30 2 -56 -11 -59
-5 -1 -11 17 -13 41 -3 45 13 58 24 18z m194 -88 c0 -11 -11 -30 -24 -43 -43
-43 34 -8 -1996 -895 -305 -133 -690 -301 -855 -372 -165 -72 -387 -168 -492
-214 -106 -46 -204 -84 -218 -84 -18 0 -31 10 -45 33 -32 51 -27 60 52 94 65
27 296 127 1038 448 203 88 741 322 1455 633 388 169 801 345 950 405 99 40
111 43 123 29 6 -9 12 -24 12 -34z m-159 -235 c17 -32 43 -60 83 -88 32 -22
66 -56 77 -75 40 -76 16 -242 -71 -495 -23 -66 -43 -122 -46 -124 -2 -2 -33
23 -68 57 -150 140 -559 292 -787 292 -89 0 -97 2 -119 25 -33 35 -21 51 76
100 140 71 789 353 815 354 10 1 26 -18 40 -46z m-6395 -447 l221 -137 6 -571
c4 -314 7 -736 7 -938 l0 -366 -76 -34 c-90 -39 -101 -56 -88 -132 11 -63 32
-78 110 -78 69 0 156 28 354 113 128 55 176 71 214 71 50 1 50 1 58 -36 8 -39
54 -119 166 -293 36 -55 67 -107 69 -116 3 -12 -17 -29 -74 -62 -113 -65 -115
-70 -46 -95 67 -24 413 -137 758 -247 291 -92 483 -159 551 -191 28 -13 70
-45 95 -70 64 -67 89 -75 211 -68 117 7 193 -7 423 -76 293 -88 450 -148 476
-182 16 -21 17 -21 27 -2 17 34 22 251 14 684 l-8 425 69 83 c70 82 70 83 95
66 82 -54 296 -180 348 -205 34 -16 66 -37 70 -47 5 -9 10 -310 12 -669 l3
-651 -108 -84 c-59 -46 -144 -109 -188 -140 l-80 -56 -85 29 c-47 15 -285 96
-530 179 -245 84 -470 160 -500 170 -30 10 -188 64 -350 120 -162 56 -392 135
-510 175 -391 133 -1282 438 -1384 474 -33 12 -67 21 -76 21 -9 0 -175 -78
-370 -173 -195 -95 -393 -191 -440 -214 l-85 -40 -160 55 c-88 30 -166 60
-173 65 -9 7 -12 59 -10 219 l3 209 341 151 342 150 11 87 c10 71 25 1310 30
2460 1 104 2 113 19 109 10 -3 117 -67 238 -142z m5075 -200 c-13 -13 -49 -38
-81 -55 -49 -26 -69 -31 -128 -31 -96 0 -99 -7 -27 -68 34 -30 32 -46 -34
-189 -62 -137 -82 -204 -86 -297 -2 -40 -8 -84 -15 -96 -15 -28 -15 -199 0
-266 6 -27 18 -59 26 -72 37 -56 133 -80 183 -46 26 19 51 71 44 91 -9 23 -31
14 -41 -16 -6 -16 -20 -34 -31 -41 -30 -16 -97 4 -117 35 -38 59 -34 248 6
303 22 29 23 36 13 79 -16 68 -2 130 58 253 106 220 186 327 273 370 32 15 62
20 128 20 74 0 92 -4 144 -30 74 -37 148 -102 287 -255 128 -140 191 -225 213
-286 25 -73 37 -249 25 -395 -10 -124 -12 -133 -55 -219 -168 -337 -516 -485
-790 -337 -27 15 -88 64 -135 109 -78 74 -109 114 -202 266 -34 56 -75 77
-150 77 -51 0 -51 0 -133 -84 -44 -46 -96 -91 -114 -100 -45 -23 -122 -36
-144 -25 -10 5 -27 40 -39 82 -12 39 -28 84 -36 99 -12 26 -17 27 -58 21 -44
-6 -47 -4 -88 41 -24 25 -46 46 -50 46 -4 0 -7 -28 -7 -62 0 -70 -17 -116 -74
-198 -36 -52 -45 -80 -26 -80 5 0 38 26 72 58 138 127 163 137 198 80 61 -100
-17 -299 -174 -445 -82 -77 -125 -102 -257 -152 -57 -21 -112 -42 -121 -46
-34 -14 -17 -25 37 -25 l55 0 -60 -83 c-32 -45 -89 -137 -126 -202 -103 -186
-147 -247 -248 -342 -149 -141 -343 -283 -586 -429 -57 -35 -131 -43 -174 -20
-36 19 -123 134 -231 302 -95 149 -130 219 -129 264 0 19 19 79 42 132 69 160
85 263 83 526 0 127 3 232 9 242 5 10 20 20 34 24 24 6 40 31 30 47 -3 5 -22
9 -43 9 -77 0 -99 55 -110 273 -7 119 -13 164 -27 194 -22 44 -53 56 -61 24
-10 -37 -21 -22 -12 17 10 44 36 68 90 82 35 10 47 8 96 -15 31 -14 59 -23 62
-20 3 3 0 18 -5 33 -7 17 -7 38 -2 51 20 54 153 181 190 181 11 0 47 -26 81
-58 69 -65 105 -92 124 -92 31 0 7 37 -82 129 l-95 98 51 31 c28 18 60 32 71
32 38 0 177 -144 273 -282 l53 -77 -83 -71 c-128 -109 -210 -200 -229 -256
-30 -88 -18 -442 20 -557 9 -29 38 -101 65 -162 88 -201 96 -294 38 -427 -46
-104 -29 -138 28 -55 65 97 79 257 33 383 -48 130 -43 142 123 299 106 101
112 105 121 83 28 -70 49 -108 62 -108 18 0 18 27 -1 115 -8 39 -15 109 -15
157 0 85 11 137 85 408 23 82 31 195 15 205 -22 13 -40 -25 -40 -82 0 -90 -35
-107 -127 -59 -53 27 -62 49 -49 109 9 39 18 55 36 64 62 29 953 423 1148 507
380 163 499 206 641 227 69 10 158 27 196 38 39 11 79 20 89 20 18 1 18 -1 -3
-23z m-4551 -127 c197 -119 399 -244 425 -262 19 -14 17 -18 -51 -88 -119
-125 -172 -218 -215 -384 -22 -83 -24 -109 -24 -345 0 -217 3 -264 18 -315 10
-33 20 -68 23 -77 3 -10 1 -18 -5 -18 -5 0 -91 -36 -189 -79 -99 -43 -190 -82
-202 -86 l-23 -7 6 873 c3 481 9 884 12 897 7 22 7 22 39 4 17 -11 101 -61
186 -113z m843 -323 c220 -78 440 -302 581 -590 251 -514 245 -1123 -15 -1388
-78 -80 -165 -120 -272 -126 -170 -10 -328 60 -487 217 -149 147 -329 433
-330 523 0 36 39 61 190 126 289 123 321 153 267 247 -22 38 -26 40 -68 38
-44 -1 -161 -45 -364 -136 -55 -25 -103 -42 -106 -39 -4 4 -17 61 -29 127 -29
158 -25 419 9 560 40 167 136 326 238 396 106 74 255 91 386 45z m1037 -51 c0
-25 -119 -143 -171 -169 -58 -28 -79 -25 -79 13 0 76 118 168 218 170 22 1 32
-4 32 -14z m545 -506 c124 -62 122 -60 102 -171 -9 -51 -21 -138 -27 -192 -13
-126 -24 -150 -70 -154 -45 -3 -184 73 -252 139 -45 43 -48 48 -48 98 0 59 19
102 81 182 46 59 120 139 129 139 3 0 41 -18 85 -41z m3119 -10 c53 -41 86
-147 86 -271 0 -56 -2 -61 -47 -109 -52 -55 -137 -108 -393 -244 -318 -168
-1052 -523 -1200 -581 -71 -28 -82 -29 -230 -29 -153 1 -156 1 -232 34 -87 37
-272 146 -335 198 -24 19 -43 42 -43 52 0 20 60 79 180 178 156 129 226 207
275 310 24 50 52 96 62 101 10 5 37 12 60 15 74 9 145 50 236 136 104 98 125
103 180 41 20 -21 46 -58 58 -82 81 -159 212 -294 357 -366 94 -46 97 -47 191
-47 75 1 110 6 161 24 108 39 251 109 296 146 93 77 194 244 233 390 35 126
54 144 105 104z m-3996 -37 c2 -18 -1 -32 -6 -32 -12 0 -30 42 -24 58 7 23 27
6 30 -26z m725 -480 c37 -23 67 -46 67 -51 0 -13 -150 -220 -160 -221 -7 0
-48 148 -60 219 -6 29 -10 76 -10 103 l0 49 48 -28 c26 -15 77 -47 115 -71z
m-1552 78 c37 -20 24 -57 -34 -95 -77 -51 -578 -276 -907 -407 -69 -27 -136
-57 -149 -65 -23 -15 -26 -14 -48 11 -31 36 -29 49 9 81 61 52 541 271 898
410 210 82 202 80 231 65z m-56 -985 c33 -23 69 -52 79 -64 19 -21 19 -21 -1
-21 -23 0 -231 65 -252 79 -32 21 47 66 94 54 11 -3 47 -25 80 -48z m2219 -32
c3 -42 6 -222 6 -400 l0 -325 -42 7 c-51 9 -447 130 -570 175 -49 18 -88 35
-88 40 0 16 79 78 273 214 222 156 318 239 362 315 17 28 35 51 41 51 7 0 14
-31 18 -77z m-1354 -89 c19 -38 56 -98 80 -133 62 -88 80 -115 80 -123 0 -14
-550 150 -573 171 -4 4 29 18 75 30 74 21 146 53 248 111 19 11 39 19 45 17 5
-2 25 -35 45 -73z"/>
<path d="M2545 6169 c-141 -11 -255 -43 -255 -71 0 -7 16 -9 48 -5 56 8 292
26 376 29 67 3 84 21 34 36 -48 15 -113 18 -203 11z"/>
<path d="M9200 6246 c0 -2 37 -17 83 -32 158 -52 263 -122 352 -235 127 -164
235 -435 295 -744 30 -154 31 -453 1 -567 -23 -89 -58 -163 -110 -233 -79
-105 -79 -142 0 -57 184 199 224 590 108 1038 -91 351 -227 601 -396 726 -62
45 -144 84 -194 92 -68 10 -139 17 -139 12z"/>
<path d="M1042 5961 c-46 -53 -60 -62 -129 -85 -105 -35 -143 -59 -143 -91 0
-35 19 -32 85 14 35 25 77 44 111 51 59 12 106 46 129 91 16 30 20 79 7 79 -4
0 -31 -27 -60 -59z"/>
<path d="M813 5240 c-17 -36 -36 -95 -42 -131 -16 -95 -14 -475 3 -581 25
-155 116 -399 165 -442 11 -11 23 -17 26 -14 3 3 -22 82 -55 177 -66 190 -112
393 -130 571 -12 128 -6 174 44 347 15 50 26 102 23 115 -3 19 -9 10 -34 -42z"/>
<path d="M1035 3625 c6 -105 24 -187 44 -193 17 -6 8 65 -25 192 l-23 91 4
-90z"/>
<path d="M847 3629 c-4 -13 -7 -45 -7 -70 0 -59 -16 -73 -105 -90 l-70 -13 53
-10 c71 -12 126 4 147 44 18 35 19 107 1 139 l-13 23 -6 -23z"/>
<path d="M4264 5345 c-77 -17 -198 -65 -289 -115 -104 -58 -197 -126 -325
-239 -141 -126 -178 -148 -261 -160 -132 -18 -245 -93 -364 -240 -32 -40 -71
-79 -86 -87 -36 -18 -178 -19 -222 0 -18 7 -75 46 -127 85 -152 115 -429 239
-485 217 -25 -9 -17 -35 13 -42 120 -26 290 -118 449 -241 119 -92 173 -109
253 -82 31 11 34 10 64 -25 21 -25 36 -35 47 -31 9 3 52 56 95 117 133 188
232 258 364 258 l59 0 -40 -80 c-45 -92 -74 -177 -95 -288 -8 -42 -21 -83 -29
-91 -19 -20 -94 0 -167 44 -61 38 -78 42 -78 21 0 -24 72 -78 155 -117 45 -20
87 -44 94 -53 8 -9 17 -52 22 -95 10 -104 35 -150 73 -135 20 8 20 27 1 101
-19 74 -19 250 0 342 45 214 138 385 287 527 188 179 410 313 593 355 50 12
101 25 115 31 24 9 24 10 5 24 -23 17 -41 17 -121 -1z"/>
<path d="M8656 5172 c-7 -11 42 -89 72 -116 l22 -19 0 35 c0 20 -10 50 -23 69
-22 33 -59 49 -71 31z"/>
<path d="M8868 4978 c-32 -17 -77 -51 -100 -76 -93 -97 -111 -113 -173 -147
-34 -20 -69 -43 -77 -52 -25 -31 42 -5 112 42 88 59 320 245 320 256 0 16 -24
9 -82 -23z"/>
<path d="M7480 3846 c0 -20 135 -144 217 -199 131 -87 262 -142 278 -117 11
18 -13 37 -56 43 -60 8 -181 82 -273 167 -126 117 -166 143 -166 106z"/>
<path d="M8667 3528 c-8 -19 -18 -46 -22 -59 -14 -42 -56 -97 -83 -107 -15 -6
-44 -16 -65 -22 -27 -8 -37 -17 -35 -28 5 -26 57 -26 108 0 37 19 51 35 82 93
40 77 55 132 39 148 -6 6 -14 -2 -24 -25z"/>
<path d="M8715 3244 c-38 -20 -95 -74 -95 -91 0 -19 67 17 104 55 36 39 32 57
-9 36z"/>
<path d="M4521 5131 c-8 -5 -11 -16 -8 -25 5 -12 20 -16 57 -16 41 0 55 -5 82
-29 32 -29 33 -31 33 -112 0 -56 4 -84 12 -86 7 -3 15 8 18 24 22 105 50 143
106 143 35 0 48 19 25 36 -19 13 -29 12 -83 -12 -36 -16 -56 -11 -77 20 -25
40 -134 77 -165 57z"/>
<path d="M4180 4990 c0 -41 176 -130 285 -145 49 -6 48 -6 -45 37 -52 25 -124
63 -159 86 -73 48 -81 50 -81 22z"/>
<path d="M5050 4944 c-41 -38 -50 -67 -30 -105 17 -30 30 -22 30 17 0 29 8 44
40 76 22 22 40 42 40 44 0 2 -9 4 -20 4 -11 0 -38 -16 -60 -36z"/>
<path d="M4614 4820 c-53 -11 -98 -30 -181 -78 -37 -21 -84 -45 -103 -52 -42
-16 -86 -55 -106 -92 -20 -39 -18 -85 5 -97 16 -9 21 -4 35 32 35 85 39 90 93
107 31 10 71 34 96 57 63 58 142 82 308 93 141 10 173 16 163 31 -6 11 -253
10 -310 -1z"/>
<path d="M3974 4784 c12 -48 56 -127 89 -161 23 -24 40 -33 64 -33 42 0 42 16
2 38 -43 23 -74 58 -106 122 -32 61 -61 81 -49 34z"/>
<path d="M5009 4779 c-56 -8 -95 -28 -179 -89 -36 -26 -97 -66 -136 -88 -40
-23 -83 -55 -98 -72 -30 -37 -42 -90 -26 -120 17 -32 44 -21 51 22 9 55 32 83
108 128 39 23 99 68 134 101 76 69 99 79 175 79 73 0 138 -30 216 -98 36 -32
69 -52 83 -52 32 0 20 21 -49 87 -90 85 -178 117 -279 102z"/>
<path d="M4332 4453 c8 -45 170 -86 185 -47 8 21 -13 34 -55 34 -18 0 -49 7
-69 15 -47 20 -65 19 -61 -2z"/>
<path d="M5743 4433 c-21 -8 -15 -23 15 -34 15 -6 70 -22 122 -36 118 -31 152
-49 230 -115 93 -79 154 -128 163 -128 48 -1 -190 208 -302 264 -25 13 -78 31
-118 40 -75 17 -89 18 -110 9z"/>
<path d="M5121 4415 c-24 -7 -55 -25 -70 -38 -51 -48 -78 -58 -173 -67 -102
-10 -149 -25 -197 -66 -53 -45 -73 -96 -81 -214 -5 -60 -15 -122 -25 -144 -23
-55 -32 -205 -12 -230 14 -19 15 -18 25 15 6 19 16 66 23 104 16 95 27 114 96
156 32 20 56 40 53 45 -3 5 -22 9 -42 9 -48 0 -57 11 -64 71 -4 39 -1 58 18
93 28 55 68 77 174 95 91 16 161 42 231 85 72 45 119 62 187 69 34 4 61 12 61
17 0 16 -154 16 -204 0z"/>
<path d="M4950 3999 c-73 -30 -130 -98 -170 -204 -16 -42 -46 -104 -68 -138
-46 -71 -67 -134 -58 -171 9 -37 30 -32 48 12 9 20 24 56 34 80 25 61 72 99
131 107 75 10 93 15 93 25 0 14 -44 30 -79 30 -15 0 -36 6 -46 14 -19 14 -19
16 9 75 31 65 73 110 121 132 16 8 31 22 33 32 4 19 -10 21 -48 6z"/>
<path d="M6325 3849 c-9 -17 -49 -66 -88 -108 -85 -90 -121 -155 -188 -334
-55 -147 -58 -167 -29 -167 28 0 48 35 101 185 62 179 126 285 170 285 10 0
20 -1 21 -2 1 -2 4 -147 7 -323 6 -313 12 -365 40 -365 5 0 8 82 7 183 0 100
1 238 3 307 4 115 3 130 -18 172 -21 44 -21 49 -7 77 18 33 21 106 6 116 -5 3
-16 -8 -25 -26z"/>
<path d="M4150 3214 c0 -3 13 -16 28 -29 15 -13 38 -46 52 -74 23 -51 45 -65
56 -36 9 24 -36 105 -70 126 -30 18 -66 25 -66 13z"/>
<path d="M4520 3148 c-95 -77 -114 -89 -237 -149 -80 -39 -123 -65 -123 -75 0
-12 5 -14 18 -8 50 22 150 54 170 54 42 0 106 42 180 116 69 71 88 104 58 104
-8 0 -38 -19 -66 -42z"/>
<path d="M5153 3174 c-9 -25 21 -42 86 -49 93 -10 129 -24 182 -71 91 -81 119
-27 30 57 -57 53 -131 79 -229 79 -49 0 -64 -4 -69 -16z"/>
<path d="M4207 2093 c-49 -55 -83 -204 -74 -326 7 -88 45 -187 71 -187 20 0
20 23 -1 102 -25 97 -21 225 11 327 14 47 26 88 26 93 0 14 -16 9 -33 -9z"/>
<path d="M4649 1470 c-73 -75 -105 -79 -225 -34 -70 26 -94 30 -94 14 0 -16
70 -56 143 -80 66 -22 68 -22 114 -5 56 22 121 79 140 122 17 41 16 43 -3 43
-9 0 -42 -27 -75 -60z"/>
<path d="M2890 3484 c0 -5 45 -24 99 -43 273 -92 450 -299 592 -692 49 -139
105 -368 120 -493 14 -122 6 -350 -15 -426 -22 -78 -73 -178 -116 -224 -49
-54 -65 -85 -51 -99 17 -17 91 67 139 160 67 129 86 225 86 433 0 137 -5 201
-22 295 -50 269 -139 514 -261 714 -88 146 -263 303 -392 352 -57 22 -179 37
-179 23z"/>
</g>
</svg>
