<?xml version="1.0" standalone="no"?>
<!DOCTYPE svg PUBLIC "-//W3C//DTD SVG 20010904//EN"
 "http://www.w3.org/TR/2001/REC-SVG-20010904/DTD/svg10.dtd">
<svg version="1.0" xmlns="http://www.w3.org/2000/svg"
 width="1290.000000pt" height="1207.000000pt" viewBox="0 0 1290.000000 1207.000000"
 preserveAspectRatio="xMidYMid meet">

<g transform="translate(0.000000,1207.000000) scale(0.100000,-0.100000)"
fill="#000000" stroke="none">
<path d="M7312 11400 c-201 -42 -405 -279 -486 -562 -74 -258 -54 -571 50
-768 48 -91 141 -180 219 -209 90 -34 157 -37 258 -11 49 12 95 19 104 16 14
-6 15 -21 10 -109 -8 -128 -36 -239 -87 -342 -48 -99 -60 -143 -60 -222 l0
-63 -114 0 c-154 0 -256 -15 -346 -52 -110 -45 -165 -42 -333 17 -275 98 -396
125 -547 125 -74 0 -94 -4 -134 -25 -56 -30 -131 -33 -221 -10 -84 22 -107 41
-129 111 -43 136 -51 150 -104 206 -177 186 -622 257 -857 138 -34 -17 -104
-67 -155 -111 -51 -43 -99 -79 -106 -79 -8 0 -14 10 -14 25 0 67 -86 213 -170
289 -65 58 -159 98 -244 104 -87 5 -158 -19 -285 -97 -136 -82 -199 -91 -277
-38 -66 44 -126 136 -234 354 -100 202 -150 268 -242 318 -50 28 -60 30 -163
30 -101 0 -115 -2 -168 -29 -156 -76 -313 -266 -408 -494 -165 -397 -73 -855
203 -1002 78 -42 178 -51 274 -26 34 9 75 16 92 16 27 0 31 -4 36 -37 9 -66
16 -190 26 -493 12 -347 22 -454 50 -535 27 -79 124 -247 210 -365 39 -52 84
-123 101 -157 35 -72 116 -150 195 -189 49 -24 56 -25 115 -14 35 7 104 27
154 46 121 47 280 88 456 118 219 38 408 105 471 168 18 18 21 18 45 3 70 -46
90 -177 163 -1070 61 -748 90 -1075 100 -1134 6 -30 7 -58 3 -62 -5 -4 -168
-82 -363 -172 -195 -90 -435 -201 -532 -247 l-178 -83 0 -181 c0 -100 5 -199
11 -221 8 -29 30 -59 84 -111 74 -72 154 -134 175 -134 18 0 311 141 722 346
l387 194 160 -125 c1114 -868 1364 -1070 1434 -1158 20 -24 30 -48 30 -70 0
-17 -4 -277 -8 -577 l-8 -545 -142 -280 c-185 -364 -205 -443 -137 -544 37
-53 94 -99 220 -175 157 -95 259 -182 386 -329 188 -220 274 -286 430 -336
125 -40 370 -83 481 -84 82 -1 97 1 148 27 125 64 237 183 237 252 -1 77 -90
187 -210 259 -177 106 -287 209 -395 371 -85 127 -185 311 -185 340 0 11 14
27 33 38 17 10 340 191 717 403 377 212 856 482 1065 601 209 119 396 220 416
226 52 14 105 -15 146 -79 74 -117 115 -149 240 -191 66 -22 91 -26 160 -22
69 4 89 9 130 34 91 56 150 167 160 301 10 122 -31 179 -207 287 -127 78 -208
146 -246 203 -70 107 -247 398 -251 413 -3 11 71 89 232 245 261 254 315 317
406 485 90 167 150 250 276 381 133 138 138 151 130 314 -7 165 -41 239 -146
319 -130 99 -245 199 -376 326 -205 200 -374 320 -609 434 -130 64 -252 143
-262 171 -8 20 -100 89 -159 119 -161 80 -712 237 -1021 290 -154 26 -225 49
-279 90 -53 40 -113 66 -174 74 -76 11 -98 26 -164 114 -57 76 -144 167 -314
330 -122 118 -183 197 -234 303 -49 100 -69 192 -69 316 l0 96 153 53 c277 95
362 110 527 92 123 -14 159 7 200 115 29 76 65 276 80 440 16 173 8 522 -14
617 -9 38 -15 70 -13 72 1 2 29 -32 60 -76 64 -89 121 -139 193 -172 41 -19
66 -23 149 -23 94 0 104 2 175 36 197 94 350 295 417 544 25 94 27 113 27 325
1 244 -6 289 -62 408 -61 131 -256 267 -381 266 -97 0 -217 -55 -351 -161 -30
-24 -62 -43 -71 -43 -8 0 -28 14 -44 30 -38 39 -96 73 -165 95 -111 36 -122
48 -162 169 -40 121 -122 260 -194 328 -66 62 -209 92 -322 68z m230 -97 c77
-42 189 -181 219 -271 11 -32 10 -37 -9 -53 -12 -9 -45 -22 -74 -29 -123 -29
-235 -115 -256 -196 -6 -22 -16 -58 -22 -82 -6 -24 -27 -61 -46 -82 -44 -49
-64 -112 -64 -202 0 -113 14 -150 87 -230 36 -39 71 -86 79 -105 14 -31 13
-38 -1 -60 -9 -14 -42 -37 -73 -51 -79 -37 -203 -39 -275 -3 -102 50 -201 183
-231 311 -22 92 -22 432 -1 515 24 90 87 225 148 317 156 235 345 316 519 221z
m213 -414 c24 -6 62 -26 84 -45 46 -40 98 -64 138 -64 64 0 193 -90 193 -134
0 -7 -23 -60 -51 -117 -28 -57 -67 -142 -85 -189 -19 -46 -42 -92 -51 -102
-29 -32 -84 -19 -180 42 -35 22 -58 30 -83 28 -52 -4 -52 24 -1 56 51 33 61
66 35 115 -15 29 -30 40 -77 56 -131 45 -98 147 62 195 73 22 105 45 81 60
-28 17 -230 -62 -249 -98 -6 -12 -11 -30 -11 -41 0 -20 -24 -51 -41 -51 -24 0
-59 50 -59 83 0 148 139 245 295 206z m999 -88 c104 -51 191 -171 233 -321 28
-101 25 -354 -6 -475 -90 -351 -294 -586 -521 -603 -64 -4 -76 -2 -135 27
-152 75 -250 271 -262 523 -7 144 6 235 56 383 77 234 220 412 380 477 67 26
189 21 255 -11z m-1168 -275 c88 -28 140 -49 142 -58 3 -18 -62 -78 -84 -78
-9 0 -47 10 -86 21 -48 15 -73 18 -80 11 -15 -15 -2 -30 55 -58 78 -40 163
-102 175 -129 9 -18 8 -36 -3 -72 -22 -71 -19 -118 10 -167 29 -49 62 -82 72
-73 3 4 -6 44 -21 90 -22 67 -25 87 -17 110 15 39 65 57 157 57 l77 0 -9 -97
c-17 -181 -9 -421 20 -618 37 -248 43 -400 21 -545 -37 -255 -90 -474 -122
-505 -12 -13 -28 -15 -67 -11 -166 18 -221 18 -326 -4 -57 -12 -147 -37 -200
-57 -186 -70 -186 -70 -266 54 -36 57 -103 136 -188 223 -73 74 -147 154 -164
177 -34 43 -106 192 -98 200 3 3 39 -9 80 -26 96 -40 119 -39 167 4 51 46 105
72 196 96 166 42 274 9 328 -101 48 -96 124 -160 190 -160 43 0 73 20 60 40
-3 5 -27 10 -53 10 -28 0 -57 7 -71 17 -25 17 -131 230 -131 261 0 9 23 80 51
157 56 157 103 333 119 445 17 122 28 152 51 145 59 -19 -24 159 -129 277 -75
84 -92 123 -92 210 0 94 45 198 85 198 6 0 74 -20 151 -44z m-4839 -181 c69
-20 131 -80 193 -184 52 -88 94 -187 85 -201 -3 -5 -47 -32 -98 -61 -161 -92
-266 -167 -288 -209 -17 -31 -17 -232 1 -434 19 -227 -1 -286 -104 -301 -137
-21 -281 24 -350 108 -90 111 -120 224 -120 442 0 181 13 257 67 387 95 235
234 386 407 445 77 26 137 29 207 8z m370 -511 c9 -24 -11 -36 -66 -42 -28 -2
-56 -10 -61 -18 -17 -20 22 -36 111 -45 77 -7 103 -18 168 -64 19 -14 46 -25
60 -25 40 0 55 -14 47 -43 -8 -35 -62 -71 -102 -70 -17 1 -72 19 -121 41 -95
43 -163 61 -163 44 0 -12 33 -35 144 -97 49 -27 98 -62 108 -76 19 -26 19 -26
-23 -189 -26 -100 -52 -177 -67 -199 -28 -41 -42 -154 -24 -187 10 -17 11 -16
23 9 18 40 29 16 29 -63 0 -168 53 -267 280 -525 39 -44 85 -109 103 -145 30
-62 32 -70 33 -185 1 -151 1 -152 15 -138 7 7 15 50 19 96 9 97 32 149 86 196
56 49 113 70 294 106 91 18 177 38 193 44 53 20 22 61 -47 61 -19 0 -38 5 -41
10 -4 6 12 52 36 101 66 139 107 168 339 243 148 48 263 109 424 224 138 100
252 160 356 189 54 15 105 18 295 18 244 0 244 0 327 -52 43 -27 46 -5 5 33
-20 19 -37 42 -37 49 0 26 78 38 205 32 135 -7 223 -29 298 -76 92 -59 226
-221 230 -279 2 -25 0 -27 -35 -24 -21 2 -38 1 -38 -2 0 -3 53 -38 117 -78
178 -111 274 -210 348 -357 45 -89 56 -131 66 -236 18 -207 90 -387 218 -549
39 -49 71 -93 71 -96 0 -4 -55 -13 -122 -19 -204 -21 -373 -74 -568 -178 -260
-139 -491 -326 -647 -523 -42 -52 -80 -99 -84 -104 -5 -5 -62 35 -131 91 -342
278 -479 365 -703 443 -146 52 -243 99 -361 178 -91 61 -184 150 -184 175 0
20 31 58 120 152 124 130 152 175 110 175 -60 0 -188 -106 -278 -230 -30 -41
-82 -103 -116 -138 -74 -77 -97 -85 -416 -148 -277 -55 -397 -87 -471 -125
-31 -17 -73 -33 -93 -36 -57 -9 -125 15 -171 62 -71 70 -331 449 -393 572 -42
82 -56 194 -77 648 -8 176 -24 482 -36 680 -21 364 -20 445 5 494 17 32 87 98
144 136 97 64 234 97 249 59z m867 -78 c96 -56 178 -181 212 -322 20 -83 23
-279 5 -374 -44 -229 -160 -450 -296 -563 -91 -76 -171 -110 -272 -115 -78 -4
-88 -2 -148 27 -271 133 -323 608 -112 1014 99 191 238 320 384 357 67 16 178
5 227 -24z m1082 -139 c131 -46 206 -89 275 -157 75 -73 112 -151 107 -224
l-3 -41 -150 -50 c-169 -57 -254 -99 -438 -221 -218 -145 -411 -224 -470 -192
-38 20 -106 108 -113 147 -19 100 24 390 72 490 38 78 142 179 227 221 102 50
155 60 297 56 102 -3 138 -8 196 -29z m-780 -884 c21 -29 33 -56 29 -63 -10
-16 -144 -103 -184 -119 -17 -8 -34 -11 -37 -8 -9 9 15 73 69 185 l51 104 18
-24 c10 -13 34 -46 54 -75z m-249 -279 c10 -26 -17 -155 -34 -161 -25 -10 -67
11 -81 40 -26 53 26 137 85 137 13 0 26 -7 30 -16z m-183 -137 c29 -21 16 -50
-27 -59 -40 -8 -69 -25 -129 -71 -45 -35 -60 -31 -88 23 -30 60 -12 76 120
104 84 18 102 19 124 3z m3638 -984 c57 -26 79 -60 52 -80 -10 -7 -36 -13 -58
-13 -74 0 -291 -45 -351 -72 -13 -6 -22 -15 -19 -19 3 -5 110 -8 237 -7 222 3
234 2 277 -19 44 -22 100 -90 100 -121 0 -8 -17 -29 -37 -47 -24 -20 -34 -36
-29 -44 13 -20 68 -5 173 47 l94 47 47 -52 c77 -85 112 -97 514 -179 327 -66
426 -90 583 -144 143 -49 332 -137 319 -149 -5 -4 -45 -15 -89 -24 -126 -26
-205 -71 -311 -176 -50 -50 -96 -91 -101 -91 -6 0 -13 18 -16 41 -7 52 -53
127 -96 156 -113 76 -269 51 -558 -91 l-153 -75 -11 42 c-16 58 -6 129 30 219
31 78 39 118 21 118 -30 0 -130 -250 -130 -327 0 -62 -35 -95 -191 -183 -164
-92 -246 -166 -275 -250 -17 -48 -19 -80 -17 -267 l3 -212 -53 -5 c-28 -3
-108 -10 -177 -15 -143 -12 -219 -29 -308 -71 -138 -64 -247 -180 -337 -359
-31 -61 -39 -88 -44 -155 l-6 -81 -19 27 c-24 36 -129 269 -195 432 -89 219
-94 245 -96 521 -1 227 -2 243 -25 300 -32 82 -100 148 -100 98 0 -10 16 -49
35 -87 36 -70 43 -100 25 -111 -13 -8 -63 98 -92 198 -20 69 -21 83 -10 135
16 75 133 311 220 442 123 185 236 290 411 382 92 49 110 68 63 68 -39 0 -150
-57 -237 -122 -97 -72 -289 -269 -353 -361 -46 -67 -107 -183 -178 -342 l-18
-40 -6 65 c-4 44 -15 81 -34 115 -59 106 -21 196 159 383 129 135 264 246 429
354 276 181 438 230 741 225 128 -2 157 -6 197 -24z m-2771 -105 c87 -62 333
-328 419 -454 38 -54 38 -55 84 -599 51 -597 67 -770 72 -787 5 -15 9 -15 57
2 98 34 182 72 432 192 138 66 259 122 271 125 16 4 29 -6 53 -35 46 -59 62
-106 71 -207 5 -49 12 -120 16 -157 7 -67 6 -68 -25 -97 -17 -16 -127 -78
-244 -137 -237 -119 -340 -177 -369 -206 -16 -16 -17 -22 -6 -36 12 -15 282
-218 809 -607 325 -239 538 -401 573 -435 l29 -28 -48 -89 c-65 -120 -175
-303 -182 -303 -10 0 -472 352 -837 638 -213 167 -707 539 -778 586 l-56 38
-84 -38 c-117 -52 -437 -212 -741 -371 l-258 -134 -88 71 c-59 48 -94 84 -104
108 -23 52 -35 353 -16 369 8 5 205 101 439 212 234 111 466 223 515 249 l90
47 -3 85 c-9 271 -93 1334 -143 1812 -11 109 -17 202 -14 208 10 15 19 13 66
-22z m327 -114 c181 -60 287 -139 531 -399 251 -266 369 -454 456 -719 51
-158 58 -186 46 -186 -9 0 -200 218 -666 761 -115 134 -274 317 -352 406 -79
89 -143 165 -143 168 0 7 40 -2 128 -31z m663 -374 c97 -71 162 -162 145 -206
-5 -14 -9 -13 -37 3 -50 29 -279 278 -279 303 0 12 90 -41 171 -100z m-423
-136 c33 -23 544 -614 667 -772 40 -52 46 -65 35 -73 -54 -36 -630 -313 -637
-306 -4 4 -9 67 -48 537 -14 168 -32 370 -40 449 -21 201 -22 196 23 165z
m4279 -279 c223 -84 417 -178 508 -247 38 -29 126 -110 195 -179 181 -181 282
-273 385 -350 51 -37 105 -83 122 -102 41 -46 57 -119 49 -210 -11 -121 -29
-159 -117 -253 -92 -97 -155 -190 -235 -346 -106 -208 -139 -248 -431 -520
-100 -93 -205 -199 -233 -236 -54 -73 -94 -163 -85 -193 8 -23 28 -25 45 -4
41 50 98 -7 228 -230 81 -139 204 -262 337 -335 152 -85 201 -160 165 -254
-13 -35 -31 -33 -142 13 -184 77 -221 62 -69 -27 81 -47 151 -108 151 -132 0
-5 -11 -17 -25 -26 -22 -14 -44 -16 -138 -11 -177 8 -275 51 -327 142 -19 33
-55 71 -107 111 -55 42 -82 71 -90 95 -7 19 -12 88 -13 154 0 66 -4 125 -8
132 -4 6 -77 37 -162 68 -158 58 -280 111 -314 137 -26 20 -17 48 42 139 26
41 52 80 56 88 17 27 -113 -69 -136 -101 -20 -29 -23 -45 -23 -124 0 -61 -5
-96 -13 -107 -20 -24 -78 -39 -121 -32 -116 19 -175 131 -122 233 21 39 90
110 156 157 66 48 175 156 221 222 48 66 107 123 128 123 10 0 15 29 19 113
10 185 81 451 155 577 20 35 69 96 107 136 91 92 171 133 279 141 42 3 76 9
76 13 0 4 -26 19 -57 33 -65 28 -223 59 -418 82 -317 37 -462 69 -582 126
-100 48 -121 74 -135 172 -10 76 -8 230 4 242 4 4 62 -13 130 -39 191 -71 421
-136 436 -122 12 13 -17 27 -154 76 -174 63 -379 162 -395 191 -22 42 7 183
59 286 27 53 100 116 200 176 100 59 148 78 189 73 17 -3 111 -34 210 -71z
m-852 16 c63 -29 85 -60 95 -132 5 -35 10 -242 10 -459 l0 -395 -242 -150
c-423 -262 -691 -425 -699 -425 -4 0 -21 35 -39 78 -51 124 -96 207 -174 322
-41 59 -80 124 -87 146 -10 29 -14 97 -14 254 0 245 3 257 87 336 63 59 116
90 388 222 438 214 567 253 675 203z m517 -1156 c131 -33 392 -75 462 -75 20
0 36 -4 36 -9 0 -6 -23 -29 -50 -53 -145 -124 -256 -385 -320 -753 -24 -140
-65 -234 -132 -307 -24 -26 -94 -93 -157 -148 -135 -118 -195 -186 -227 -255
-44 -92 -28 -153 62 -239 32 -30 56 -57 54 -59 -17 -12 -382 -207 -389 -207
-8 0 -365 534 -407 610 -42 74 -56 126 -65 245 -10 134 -32 232 -108 480 -64
206 -71 257 -45 287 47 52 264 201 652 444 l273 172 114 -50 c63 -27 174 -64
247 -83z m-1755 89 c76 -38 114 -90 208 -279 85 -174 131 -288 174 -435 31
-108 92 -289 132 -395 29 -77 31 -212 5 -299 -24 -82 -80 -189 -134 -261 -26
-33 -67 -87 -92 -120 -31 -41 -57 -92 -79 -155 -18 -52 -104 -268 -191 -480
-237 -580 -258 -654 -247 -874 6 -132 25 -192 128 -398 204 -408 366 -599 633
-749 132 -74 185 -134 174 -199 -3 -17 -13 -12 -78 40 -144 116 -175 86 -49
-47 33 -34 59 -69 59 -78 0 -10 -20 -38 -45 -63 l-45 -45 -123 6 c-203 9 -434
43 -494 73 -55 26 -175 140 -384 360 -132 140 -208 200 -343 273 -125 68 -188
119 -215 173 -42 88 -21 167 98 363 98 161 123 212 150 299 29 94 45 281 38
461 -6 195 7 505 28 622 22 129 59 253 106 353 60 129 157 304 189 341 l29 34
29 -34 c19 -24 34 -32 45 -28 57 22 -40 262 -204 505 -44 64 -116 169 -160
232 -110 158 -172 283 -166 333 12 87 175 289 306 376 93 64 167 94 296 125
11 3 52 4 92 2 55 -2 85 -10 130 -32z m-1137 -291 c47 -102 107 -224 135 -270
49 -84 66 -102 155 -166 99 -72 298 -340 386 -521 44 -90 54 -142 32 -164 -26
-26 -31 -22 -333 193 -341 243 -934 683 -1050 778 l-29 25 34 21 c39 24 571
291 580 291 3 0 43 -84 90 -187z m1876 -1505 c246 -377 363 -538 390 -538 7 0
16 12 20 28 3 15 7 32 9 38 6 22 197 141 436 272 l235 130 160 -54 c232 -79
229 -73 197 -327 l-17 -137 -101 -57 c-55 -30 -190 -106 -300 -168 -418 -236
-1788 -1005 -1790 -1005 -1 0 -16 31 -33 68 -53 115 -74 212 -76 347 -1 112 1
124 26 176 33 67 80 104 286 226 78 46 142 88 141 91 0 4 -35 37 -77 74 -42
37 -97 84 -121 105 l-44 39 97 224 c53 124 103 231 110 239 12 11 23 2 71 -55
31 -38 104 -136 161 -219 122 -176 190 -265 204 -265 22 0 20 30 -4 77 -14 28
-99 160 -189 295 -91 135 -168 255 -171 266 -4 13 2 38 15 64 27 55 192 308
200 308 3 0 78 -109 165 -242z m-586 -855 c23 -24 40 -49 38 -55 -4 -12 -240
-158 -247 -152 -6 6 52 169 75 211 37 65 72 64 134 -4z"/>
<path d="M7334 11247 c-157 -116 -277 -354 -319 -637 -28 -180 -14 -362 36
-475 21 -46 74 -115 90 -115 4 0 -12 42 -37 93 -59 121 -78 229 -71 382 16
331 150 624 340 747 26 16 47 34 47 39 0 19 -30 7 -86 -34z"/>
<path d="M7911 10710 c-74 -18 -109 -69 -110 -162 -1 -64 13 -68 28 -8 15 60
60 124 101 145 16 8 30 20 30 25 0 11 -1 11 -49 0z"/>
<path d="M7970 10485 c-15 -18 -26 -135 -13 -135 10 0 43 102 43 133 0 21 -13
22 -30 2z"/>
<path d="M8551 10757 c-58 -29 -170 -149 -215 -229 -115 -207 -169 -465 -146
-697 17 -167 59 -275 130 -334 66 -56 60 -15 -9 67 -59 70 -69 100 -83 254 -9
93 -9 151 0 235 33 320 147 544 345 676 74 50 59 70 -22 28z"/>
<path d="M7695 9443 c17 -89 24 -176 25 -293 0 -69 5 -132 10 -140 47 -75 41
311 -7 432 -20 50 -37 50 -28 1z"/>
<path d="M7303 8741 c-103 -83 -112 -86 -245 -83 -113 3 -142 -4 -115 -27 26
-21 141 -43 198 -38 63 5 141 36 178 70 25 23 81 105 81 119 0 21 -42 3 -97
-41z"/>
<path d="M7820 8554 c-87 -38 -112 -107 -27 -75 29 11 97 69 97 82 0 13 -30
10 -70 -7z"/>
<path d="M2632 10305 c-243 -139 -425 -513 -425 -875 -1 -165 29 -258 113
-348 l39 -44 -44 89 c-50 100 -75 205 -75 316 0 250 137 607 287 748 21 20 66
56 101 79 34 23 60 46 56 51 -7 11 -2 13 -52 -16z"/>
<path d="M2842 9645 c-16 -34 -15 -104 2 -134 19 -35 30 -10 30 71 0 77 -14
103 -32 63z"/>
<path d="M2851 9384 c-15 -53 -25 -176 -17 -208 7 -29 30 -35 40 -10 9 24 7
227 -3 243 -7 11 -12 4 -20 -25z"/>
<path d="M5933 8868 c-27 -58 -46 -71 -158 -103 -189 -55 -279 -120 -393 -284
-132 -190 -214 -247 -397 -276 -155 -25 -192 -65 -60 -65 85 0 179 25 254 67
72 40 192 157 261 253 25 35 64 82 86 104 53 52 213 134 286 146 112 18 151
59 146 153 l-3 52 -22 -47z"/>
<path d="M6062 8889 c8 -54 124 -91 269 -87 162 5 115 42 -73 58 -103 8 -150
20 -163 39 -12 20 -37 12 -33 -10z"/>
<path d="M6030 8716 c0 -7 14 -30 30 -51 38 -48 34 -55 -81 -148 -186 -151
-219 -185 -219 -229 0 -30 18 -20 39 20 38 73 122 132 188 132 41 0 90 34 113
79 25 51 25 81 -1 134 -33 66 -69 99 -69 63z"/>
<path d="M6232 8648 c24 -38 137 -70 247 -72 62 -1 95 3 98 10 6 18 -23 25
-146 35 -74 6 -129 16 -158 29 -57 25 -59 25 -41 -2z"/>
<path d="M6269 8503 c55 -110 75 -222 50 -277 -12 -25 -29 -33 -119 -56 -119
-31 -170 -72 -170 -138 0 -44 -27 -113 -57 -144 -29 -31 -26 -46 5 -29 30 16
57 58 82 131 12 36 31 77 41 91 23 33 86 59 140 59 45 0 98 19 117 43 38 45
31 170 -13 256 -13 25 -42 64 -65 86 l-42 40 31 -62z"/>
<path d="M6662 8498 c3 -7 24 -26 47 -42 26 -17 51 -45 64 -72 21 -43 37 -57
37 -31 0 23 -57 104 -92 131 -37 28 -62 34 -56 14z"/>
<path d="M2951 8405 c-1 -48 28 -226 45 -280 9 -27 26 -68 36 -89 44 -88 201
-220 287 -241 44 -12 81 -10 81 4 0 11 -47 52 -157 135 -155 117 -197 181
-259 391 -20 67 -33 98 -33 80z"/>
<path d="M6454 8288 c-4 -6 3 -19 16 -30 19 -15 40 -18 136 -18 79 0 126 -5
151 -15 45 -19 46 -19 34 4 -14 26 -73 47 -165 60 -101 14 -163 14 -172 -1z"/>
<path d="M4596 8204 c-40 -17 -88 -28 -153 -33 -52 -5 -99 -13 -104 -18 -42
-42 168 -54 256 -14 54 24 108 69 99 83 -9 13 -36 9 -98 -18z"/>
<path d="M6500 8159 c15 -50 82 -188 98 -202 40 -32 -19 144 -69 207 -28 35
-40 33 -29 -5z"/>
<path d="M6885 8103 c10 -74 26 -133 36 -133 15 0 10 83 -7 133 -21 62 -38 62
-29 0z"/>
<path d="M5763 8097 c-6 -6 -13 -27 -16 -45 -6 -30 5 -274 18 -397 l5 -50 -70
-39 c-70 -39 -86 -56 -52 -56 31 1 96 37 129 71 62 65 67 124 27 288 -20 79
-25 122 -21 169 5 62 -2 83 -20 59z"/>
<path d="M5441 8089 c-162 -32 -255 -99 -136 -99 54 0 86 12 133 50 20 16 55
36 77 44 l40 15 -35 -1 c-19 0 -55 -4 -79 -9z"/>
<path d="M4358 7963 c-14 -16 -36 -47 -47 -71 -65 -129 -148 -225 -232 -268
-75 -38 -137 -52 -254 -60 -165 -10 -203 -32 -114 -66 130 -50 354 18 485 147
86 85 214 282 214 330 0 23 -24 18 -52 -12z"/>
<path d="M4890 7946 c0 -27 56 -63 118 -75 82 -16 112 -41 112 -93 0 -34 -6
-47 -43 -83 -28 -28 -57 -47 -87 -55 -88 -23 -95 -26 -98 -43 -3 -16 4 -17 68
-15 69 3 73 2 100 -29 19 -21 33 -54 44 -105 30 -130 86 -219 130 -202 24 9
20 20 -19 55 -35 32 -43 53 -65 162 -7 32 -23 83 -37 113 -46 101 -5 141 136
132 l75 -5 -46 23 c-55 28 -78 57 -78 99 0 48 14 59 77 65 34 3 56 9 53 15 -3
6 -77 10 -191 10 -157 0 -190 3 -205 16 -32 27 -44 31 -44 15z"/>
<path d="M6740 7888 c-49 -13 -55 -22 -40 -57 18 -45 110 -124 110 -96 0 15
-31 62 -54 84 -50 47 -37 55 77 48 56 -3 111 -2 122 3 60 24 -136 41 -215 18z"/>
<path d="M5434 7839 c-14 -23 25 -44 79 -42 54 1 127 26 127 43 0 14 -197 13
-206 -1z"/>
<path d="M6535 7816 c-68 -32 -145 -88 -145 -107 0 -15 17 -10 56 16 20 14 48
25 61 25 30 0 60 15 96 48 28 27 36 52 15 51 -7 0 -45 -15 -83 -33z"/>
<path d="M7039 7752 c5 -10 17 -25 26 -32 9 -7 23 -26 30 -41 18 -34 6 -46
-56 -58 l-44 -9 57 -1 c67 -1 88 -8 88 -28 0 -13 3 -13 15 -3 8 7 15 19 15 28
0 34 -45 105 -83 133 -46 33 -62 37 -48 11z"/>
<path d="M6755 7568 c-41 -29 -95 -80 -95 -90 0 -33 101 25 125 72 25 48 18
52 -30 18z"/>
<path d="M5770 7471 c0 -13 94 -97 130 -116 28 -15 40 -15 99 -4 122 23 122
62 0 52 -63 -5 -71 -4 -131 29 -75 41 -98 50 -98 39z"/>
<path d="M3186 7391 c-25 -39 213 -113 263 -82 37 24 -47 63 -174 81 -86 12
-83 12 -89 1z"/>
<path d="M6147 7374 c8 -21 131 -113 162 -121 13 -3 37 -2 51 4 30 11 119 74
120 84 0 4 -27 -2 -61 -12 -94 -29 -126 -26 -188 21 -55 41 -95 53 -84 24z"/>
<path d="M5450 7372 c0 -19 66 -37 137 -37 69 0 107 14 89 32 -12 12 -226 17
-226 5z"/>
<path d="M3775 9718 c-168 -93 -318 -335 -385 -622 -47 -204 -29 -451 42 -556
34 -50 53 -52 32 -4 -69 159 -67 150 -66 294 2 221 42 393 134 572 55 107 141
210 227 268 51 35 71 60 48 60 -7 0 -21 -6 -32 -12z"/>
<path d="M5058 9467 c-15 -12 -45 -51 -68 -87 -55 -87 -190 -356 -190 -380 0
-57 82 53 137 183 63 150 88 201 121 245 39 51 39 72 0 39z"/>
<path d="M7450 6999 c-287 -116 -589 -301 -669 -411 -30 -41 -39 -68 -23 -68
12 0 104 62 222 150 97 72 238 161 438 277 61 35 112 69 112 74 0 11 7 13 -80
-22z"/>
<path d="M7708 6765 c-212 -38 -425 -109 -623 -208 -198 -99 -335 -214 -299
-250 10 -9 42 10 99 58 211 179 677 365 912 365 48 0 87 15 78 30 -16 25 -46
26 -167 5z"/>
<path d="M6664 6110 c-38 -12 -68 -44 -61 -65 8 -19 30 -19 98 1 76 24 182 20
337 -10 145 -29 206 -33 200 -14 -7 21 -76 49 -170 69 -106 22 -357 34 -404
19z"/>
<path d="M10304 5565 c4 -11 15 -48 24 -83 16 -58 16 -65 -1 -111 -22 -63 -22
-83 0 -79 65 12 58 215 -9 274 -21 19 -21 19 -14 -1z"/>
<path d="M10380 5123 c0 -21 133 -153 154 -153 25 0 19 14 -29 73 -67 82 -125
119 -125 80z"/>
<path d="M10087 4884 c-10 -10 -9 -52 2 -58 12 -8 22 34 12 51 -4 7 -10 10
-14 7z"/>
<path d="M10056 4628 c-13 -18 -43 -64 -67 -103 -64 -106 -100 -150 -211 -262
-56 -56 -99 -106 -95 -109 35 -35 308 252 380 400 49 99 45 141 -7 74z"/>
<path d="M10330 2997 c0 -19 33 -47 53 -47 24 0 21 26 -5 44 -28 20 -48 20
-48 3z"/>
<path d="M8410 6113 c-41 -20 -136 -64 -211 -99 -253 -118 -345 -178 -380
-250 -52 -109 -68 -414 -20 -414 16 0 23 33 31 160 14 229 57 281 340 417 288
138 350 174 350 204 0 27 -23 23 -110 -18z"/>
<path d="M7650 4264 c-18 -42 -56 -108 -85 -147 -81 -112 -96 -149 -41 -106
63 49 176 245 176 304 0 43 -15 28 -50 -51z"/>
<path d="M7564 3800 c12 -70 117 -190 167 -190 9 0 22 7 29 15 16 20 0 41 -39
48 -18 4 -42 22 -63 48 -18 23 -48 58 -66 78 l-34 36 6 -35z"/>
<path d="M7200 3554 c0 -35 42 -220 52 -229 16 -15 2 167 -16 210 -15 36 -36
47 -36 19z"/>
<path d="M7236 3158 c-3 -18 -8 -60 -12 -93 -13 -128 -91 -341 -167 -458 -22
-34 -62 -86 -88 -115 -54 -59 -61 -82 -25 -82 60 0 144 95 201 227 59 136 115
377 115 490 0 59 -16 80 -24 31z"/>
<path d="M6753 1688 c-47 -78 -74 -147 -80 -203 -4 -42 -1 -55 17 -78 21 -27
68 -53 77 -43 2 2 -5 22 -16 45 -29 56 -26 95 14 212 19 56 35 106 35 111 0
21 -18 4 -47 -44z"/>
<path d="M7810 632 c0 -11 39 -47 69 -62 31 -16 47 0 31 29 -16 31 -100 58
-100 33z"/>
</g>
</svg>
