<?xml version="1.0" standalone="no"?>
<!DOCTYPE svg PUBLIC "-//W3C//DTD SVG 20010904//EN"
 "http://www.w3.org/TR/2001/REC-SVG-20010904/DTD/svg10.dtd">
<svg version="1.0" xmlns="http://www.w3.org/2000/svg"
 width="1092.000000pt" height="805.000000pt" viewBox="0 0 1092.000000 805.000000"
 preserveAspectRatio="xMidYMid meet">

<g transform="translate(0.000000,805.000000) scale(0.100000,-0.100000)"
fill="#000000" stroke="none">
<path d="M2515 8004 c-44 -58 -52 -89 -65 -242 -13 -150 -42 -252 -71 -252
-11 0 -56 18 -100 40 -103 52 -229 94 -349 115 -75 14 -178 18 -490 22 l-396
5 -74 -68 c-173 -158 -187 -193 -200 -499 -5 -123 -19 -272 -32 -360 -20 -128
-23 -188 -23 -415 1 -292 10 -374 80 -658 70 -289 70 -287 70 -557 0 -203 -3
-256 -15 -280 -21 -41 -101 -86 -218 -125 l-98 -32 -99 28 c-185 50 -250 36
-290 -64 -11 -28 -30 -64 -41 -79 -39 -52 -54 -92 -65 -170 -19 -137 -13 -152
109 -274 119 -117 168 -146 299 -178 228 -54 371 -115 495 -208 90 -69 105
-77 186 -107 58 -21 91 -26 162 -26 104 0 163 18 239 74 115 84 117 180 16
691 -56 283 -68 385 -68 575 0 195 18 304 81 492 40 119 51 143 68 142 10 0
59 -27 108 -59 l89 -58 -7 -1296 c-4 -713 -13 -1444 -19 -1624 l-12 -328 -265
-118 c-440 -196 -560 -253 -570 -272 -19 -35 -6 -598 14 -605 6 -2 108 -37
226 -79 118 -41 222 -75 231 -75 15 0 176 77 829 397 l255 125 355 -120 c195
-66 515 -175 710 -242 195 -67 517 -177 715 -245 198 -68 520 -178 715 -245
195 -67 445 -153 555 -190 110 -37 340 -116 510 -175 171 -58 388 -133 484
-165 l173 -60 227 176 c124 97 234 184 243 193 24 22 27 130 27 954 l1 677
215 0 216 0 302 147 c526 257 1327 659 1452 729 239 134 331 208 354 284 20
66 25 197 12 276 -23 133 -71 202 -175 254 -40 21 -68 42 -76 58 -6 14 -16 78
-21 141 -11 134 -29 214 -65 289 -14 29 -24 55 -22 58 6 5 328 21 616 30 l223
6 157 73 c333 153 415 205 452 281 21 42 22 51 12 96 -7 27 -23 72 -36 101
-27 59 -59 192 -76 317 -17 124 -54 258 -90 331 -45 90 -95 161 -235 334 -67
84 -130 164 -140 178 -22 35 -13 57 24 57 50 0 154 38 218 80 332 218 379 804
98 1225 -182 274 -452 404 -697 337 -85 -24 -152 -67 -225 -146 -90 -96 -147
-216 -177 -378 -22 -113 -37 -138 -89 -138 -34 0 -65 15 -165 84 -207 141
-435 153 -614 33 -118 -79 -239 -299 -259 -470 -17 -146 9 -363 62 -515 103
-294 302 -500 545 -562 229 -59 411 12 562 218 l46 63 12 -35 c19 -54 42 -228
50 -371 l7 -130 -234 0 c-260 0 -336 -11 -484 -68 -74 -29 -88 -31 -200 -30
-163 1 -259 17 -315 51 -25 15 -83 73 -130 127 -188 221 -264 279 -455 349
-193 71 -257 99 -338 149 -45 27 -113 63 -150 78 -137 57 -421 100 -877 134
-350 26 -409 51 -524 214 -42 61 -69 88 -120 120 -72 45 -202 108 -364 177
-106 45 -111 48 -346 248 -115 98 -120 100 -207 114 -71 11 -125 39 -287 151
-46 32 -118 76 -159 97 -86 45 -200 137 -393 319 -275 259 -417 329 -658 323
l-117 -3 214 -72 c117 -39 238 -87 269 -105 56 -34 318 -280 394 -371 40 -47
41 -50 23 -63 -11 -8 -65 -28 -120 -45 -299 -90 -430 -185 -533 -386 -26 -51
-51 -93 -56 -93 -5 0 -24 11 -42 25 -46 35 -122 63 -220 80 -47 8 -102 23
-122 32 -20 10 -113 91 -205 180 -93 90 -173 163 -179 163 -6 0 -8 -9 -4 -20
21 -68 23 -63 -20 -45 -64 27 -207 106 -231 128 -25 22 -29 56 -12 88 8 16 19
20 52 17 40 -3 42 -2 45 28 2 17 -10 63 -26 105 -50 126 -54 147 -33 194 10
22 44 69 76 103 l57 62 -55 0 c-55 0 -57 -1 -92 -46z m7686 -250 c168 -50 328
-199 426 -397 106 -213 140 -473 89 -672 -57 -215 -217 -381 -389 -401 -82
-10 -102 -2 -127 52 -19 38 -22 56 -17 110 7 68 49 200 112 349 30 70 39 107
43 165 6 101 -17 151 -117 250 -136 136 -218 153 -391 85 -72 -29 -111 -38
-160 -39 l-65 -1 3 30 c9 90 92 280 152 348 104 117 285 167 441 121z m-8606
-140 c138 -2 284 -9 325 -15 178 -26 523 -196 935 -462 94 -60 172 -111 174
-113 8 -8 -7 -15 -132 -63 -364 -139 -494 -326 -586 -840 -12 -63 -21 -129
-21 -147 0 -39 -9 -64 -22 -64 -22 0 -200 97 -272 148 -43 32 -196 172 -340
312 -144 141 -289 277 -323 302 -77 60 -129 86 -144 71 -17 -17 3 -45 68 -93
31 -24 107 -92 167 -150 l110 -107 -55 -13 c-151 -35 -186 -64 -231 -186 -30
-82 -30 -210 0 -276 27 -61 91 -130 167 -181 96 -64 115 -85 115 -128 0 -21
-18 -88 -41 -151 -61 -172 -82 -304 -83 -538 -1 -211 -7 -169 85 -634 21 -109
46 -254 55 -322 15 -119 15 -125 -3 -157 -25 -43 -101 -93 -163 -106 -145 -31
-269 4 -442 126 -123 86 -339 183 -411 183 -81 1 -269 94 -360 178 -59 56 -82
123 -74 218 4 51 14 78 60 160 64 115 77 131 112 140 38 9 111 -4 137 -26 19
-15 21 -22 12 -37 -6 -10 -23 -21 -38 -25 -14 -5 -38 -11 -53 -16 -31 -8 -44
-46 -20 -55 23 -9 90 10 189 54 51 22 140 58 198 80 148 55 187 75 204 101 20
31 34 123 45 305 14 214 4 294 -74 604 -57 225 -76 368 -82 605 -5 211 0 292
34 478 10 59 22 94 34 104 24 21 25 96 3 236 -21 132 -16 195 23 279 50 106
145 196 243 228 14 5 70 6 125 3 55 -3 213 -7 350 -10z m2910 -297 c75 -40
214 -147 241 -186 16 -22 16 -25 -1 -54 l-18 -30 24 6 c13 4 60 15 105 24 118
25 147 12 291 -130 125 -124 178 -161 296 -208 106 -41 377 -170 377 -179 0
-4 -37 -12 -82 -19 -46 -7 -135 -25 -198 -41 -393 -99 -708 -266 -940 -499
-208 -209 -288 -369 -325 -646 -11 -82 -20 -89 -115 -97 -34 -3 -35 -2 -32 32
19 211 72 404 158 570 72 139 131 216 265 344 196 188 428 323 677 392 139 39
174 58 128 70 -86 21 -403 -92 -582 -208 -94 -61 -249 -188 -364 -297 -107
-102 -155 -131 -222 -131 -66 0 -145 -17 -194 -42 -63 -31 -211 -165 -269
-243 -27 -37 -64 -82 -82 -101 l-31 -34 -124 0 c-120 0 -126 1 -171 29 -25 17
-79 57 -119 89 -122 100 -301 200 -442 247 -82 27 -166 34 -166 12 0 -21 22
-37 51 -37 32 0 300 -134 409 -204 41 -27 104 -73 140 -104 36 -30 89 -66 119
-80 49 -22 61 -24 145 -18 96 7 106 4 125 -31 6 -13 17 -23 24 -23 20 0 67 55
135 155 120 178 204 249 341 289 69 20 141 21 141 2 0 -7 -22 -69 -50 -138
-60 -152 -96 -275 -106 -358 -4 -37 -12 -64 -20 -67 -34 -13 -146 27 -256 91
-60 35 -73 17 -21 -31 53 -50 136 -102 213 -134 37 -15 66 -33 68 -42 2 -9 -9
-33 -24 -53 -41 -53 -184 -173 -216 -180 -33 -7 -67 12 -238 135 -174 125
-232 149 -488 201 -112 22 -187 52 -257 100 -63 44 -278 146 -338 162 -44 11
-52 17 -67 53 -30 71 -50 181 -50 279 0 163 77 512 135 611 67 115 167 206
305 275 97 49 181 74 313 95 152 24 213 10 322 -73 28 -21 80 -62 117 -90 73
-55 117 -72 189 -72 64 0 190 25 305 60 121 38 148 37 204 0 52 -34 90 -39 90
-12 0 22 -33 53 -74 71 -54 23 -150 25 -246 6 -49 -11 -92 -16 -95 -13 -11 10
13 53 64 117 29 35 50 68 48 75 -15 43 -125 -48 -178 -147 -47 -89 -104 -104
-201 -56 -70 35 -69 66 6 193 78 130 214 248 359 309 105 44 178 57 297 54 99
-3 109 -5 175 -40z m4545 -33 c222 -52 435 -295 525 -599 33 -112 44 -294 26
-412 -25 -158 -112 -316 -214 -392 -96 -71 -119 -62 -51 20 106 127 129 213
121 456 -4 145 -9 184 -36 288 -58 226 -183 431 -312 515 -109 71 -349 116
-349 65 0 -15 31 -25 85 -25 100 -1 214 -51 302 -133 133 -125 230 -338 268
-592 19 -130 19 -206 -1 -303 -19 -94 -46 -155 -107 -245 -26 -37 -50 -79 -53
-91 -7 -31 -54 -39 -146 -26 -272 39 -504 285 -590 626 -19 75 -23 116 -23
259 0 190 8 231 63 337 41 81 139 191 196 220 90 47 189 58 296 32z m1017 -35
c46 -22 137 -116 184 -188 42 -64 39 -109 -12 -205 -76 -144 -126 -332 -135
-511 -7 -125 1 -159 37 -160 18 0 38 -20 84 -81 33 -45 103 -132 156 -195 202
-240 263 -370 289 -611 17 -158 45 -262 96 -356 51 -94 53 -80 -21 -160 -31
-35 -110 -80 -180 -102 -22 -7 -95 -39 -161 -71 -67 -32 -142 -63 -167 -69
-82 -18 -356 -41 -567 -46 -170 -5 -208 -4 -224 8 -26 20 -17 52 34 119 49 65
53 86 13 65 -33 -17 -116 -101 -132 -133 -7 -13 -17 -23 -23 -23 -6 0 -108 98
-227 218 -237 239 -278 269 -406 301 -155 38 -405 36 -516 -5 -25 -9 -94 -19
-159 -23 -95 -5 -115 -9 -118 -22 -2 -9 5 -24 15 -34 23 -24 127 -15 288 24
216 52 235 50 148 -14 -59 -43 -136 -80 -185 -89 -30 -5 -41 -3 -58 14 -26 26
-38 25 -52 -5 -15 -32 10 -71 52 -80 16 -4 32 -10 35 -15 3 -5 -29 -82 -71
-172 -108 -230 -125 -283 -134 -410 -4 -59 -13 -114 -19 -122 -18 -22 -24
-141 -12 -241 14 -113 50 -192 101 -217 39 -20 149 -25 181 -8 25 14 49 62 49
100 0 41 -15 38 -64 -15 -36 -38 -48 -45 -80 -45 -68 0 -117 76 -137 214 -14
94 -4 136 46 196 39 47 41 57 20 118 -14 38 -14 50 0 110 17 72 137 329 200
427 61 95 147 179 218 211 55 26 73 29 162 29 92 0 104 -3 155 -30 67 -37 292
-253 447 -430 155 -177 191 -255 215 -471 24 -222 -47 -496 -178 -681 -101
-142 -284 -261 -458 -299 -100 -21 -256 -15 -337 13 -170 58 -341 222 -440
423 -73 149 -107 180 -199 180 -67 0 -119 -27 -167 -87 -87 -109 -137 -150
-210 -173 -77 -24 -231 -36 -317 -26 -77 10 -98 31 -90 90 12 81 -28 68 -91
-30 -39 -61 -74 -89 -172 -138 -39 -19 -74 -40 -78 -46 -3 -5 5 -15 19 -22 33
-15 108 1 193 41 77 37 113 44 146 32 35 -14 43 -49 25 -120 -40 -159 -214
-303 -436 -363 -98 -26 -275 -34 -396 -18 -140 18 -143 18 -155 11 -16 -10 2
-24 50 -41 20 -7 47 -21 60 -31 l24 -18 -50 -21 c-117 -50 -150 -67 -204 -107
-154 -117 -278 -202 -396 -273 l-131 -77 -271 -5 c-150 -2 -275 -7 -279 -11
-4 -4 1 -16 11 -28 26 -28 7 -39 -65 -39 -71 0 -122 15 -160 46 -48 41 -172
272 -236 444 -76 201 -102 432 -70 617 30 172 55 203 163 203 76 0 174 24 235
57 102 55 227 211 286 356 24 59 26 74 31 317 8 322 -1 303 153 319 69 7 99
15 145 41 87 49 179 116 202 149 22 30 19 41 -11 41 -21 0 -40 -11 -145 -87
-86 -61 -106 -68 -239 -83 -74 -9 -107 -9 -122 -1 -18 10 -163 277 -161 298 1
23 230 183 263 183 25 0 86 -59 110 -107 27 -54 90 -113 119 -113 46 0 32 30
-72 161 -55 68 -100 128 -101 133 -1 12 108 56 142 58 48 2 113 -68 199 -212
69 -116 112 -210 113 -249 1 -32 -5 -39 -61 -81 -34 -25 -111 -76 -173 -115
-129 -81 -181 -132 -220 -218 -40 -88 -45 -107 -26 -107 18 0 20 -15 6 -56
-21 -63 -50 -274 -50 -369 1 -101 14 -189 65 -437 l29 -136 -19 -44 c-31 -70
-77 -145 -174 -283 -87 -123 -111 -168 -98 -182 29 -28 243 258 320 427 40 87
95 143 184 188 113 58 261 91 264 60 1 -7 1 -46 -1 -85 -4 -124 39 -81 85 85
48 174 103 263 330 527 51 61 108 134 126 163 27 45 30 56 21 77 -16 35 -28
31 -51 -14 -28 -55 -264 -311 -286 -311 -21 0 -235 112 -230 120 3 5 11 10 16
10 26 0 160 74 203 111 82 72 179 237 210 356 41 158 41 363 0 543 -22 98 -84
258 -112 291 -20 24 -22 32 -12 44 7 8 22 15 34 15 22 0 46 14 117 69 63 49
157 90 235 105 50 9 70 17 72 29 4 20 -22 22 -100 6 -103 -21 -179 -51 -259
-105 -45 -30 -87 -54 -95 -54 -7 0 -34 16 -61 36 -52 40 -243 224 -243 236 0
4 32 26 71 49 39 23 103 71 143 107 88 81 160 116 236 116 72 -1 122 -24 244
-112 54 -40 107 -72 117 -72 36 0 19 34 -48 100 -133 129 -289 168 -435 107
-18 -8 -91 -54 -163 -102 -128 -87 -235 -145 -267 -145 -9 0 -55 9 -103 20
-60 15 -113 20 -175 19 -50 -2 -93 1 -97 5 -11 11 25 35 72 47 58 16 111 45
158 88 91 81 152 99 383 110 159 8 186 13 170 28 -22 23 -384 9 -480 -18 -21
-6 -57 -28 -81 -50 -23 -22 -71 -51 -106 -65 -127 -52 -189 -96 -189 -135 0
-17 -24 -40 -129 -124 -90 -73 -167 -194 -222 -350 -32 -91 -75 -185 -85 -185
-3 0 -31 17 -62 38 -70 47 -115 72 -214 116 -129 57 -134 98 -50 351 l47 140
39 3 c57 5 192 -15 231 -34 45 -21 70 -15 70 16 0 39 -68 71 -173 81 -47 5
-90 13 -95 18 -14 14 37 74 148 174 189 170 306 244 520 330 187 75 323 110
553 142 l123 17 16 -23 c62 -92 198 -180 310 -200 32 -6 83 -23 113 -37 49
-23 71 -26 193 -30 l137 -4 0 -112 c0 -79 6 -134 19 -186 23 -85 20 -95 -43
-168 -69 -80 -58 -113 17 -51 79 65 99 152 73 311 -24 145 -22 163 15 178 62
26 374 -8 536 -59 34 -11 88 -33 119 -49 63 -32 65 -30 -36 -53 -30 -6 -80
-24 -110 -39 -56 -29 -108 -75 -97 -86 3 -4 37 5 76 19 94 35 161 41 335 28
222 -17 301 -40 426 -124 25 -17 165 -149 311 -294 146 -145 271 -263 278
-263 16 0 14 22 -5 48 -23 33 -10 42 59 42 81 0 160 -21 268 -70 47 -22 91
-40 97 -40 18 0 14 26 -8 71 -12 22 -18 44 -15 49 7 12 121 45 202 60 167 29
500 30 577 0 170 -64 369 -210 407 -297 35 -81 96 -41 65 42 -23 58 -91 126
-227 228 -192 141 -221 191 -239 399 -7 88 -18 150 -40 218 -39 120 -45 164
-30 218 6 24 15 99 19 167 5 67 11 127 15 134 4 6 32 23 62 38 53 26 395 292
402 312 2 6 -10 11 -26 11 -35 0 -110 -53 -223 -155 -89 -81 -184 -145 -215
-145 -19 0 -26 9 -38 53 -26 89 -66 260 -61 265 2 2 19 -7 37 -21 18 -14 52
-34 76 -46 23 -12 42 -24 42 -27 0 -2 -7 -21 -15 -41 -22 -53 -20 -73 9 -73
39 0 56 25 56 83 0 70 -21 100 -104 150 -80 48 -135 116 -143 176 -5 33 -2 41
19 55 14 9 60 21 103 26 54 7 100 20 145 42 131 66 159 70 227 37z m-8361
-1036 c178 -164 276 -245 422 -345 150 -103 179 -132 187 -186 11 -70 14 -77
42 -110 22 -25 42 -36 88 -47 76 -17 252 -91 370 -154 99 -54 149 -71 300
-101 184 -36 232 -58 453 -207 l204 -137 -5 -36 c-2 -19 -14 -71 -26 -115 -16
-56 -24 -122 -28 -217 -3 -76 -8 -138 -10 -138 -2 0 -101 60 -221 134 -119 73
-341 209 -492 301 -1103 674 -1583 978 -1629 1030 -97 110 -67 330 52 392 46
23 107 42 144 42 27 1 50 -15 149 -106z m3837 -588 c98 -34 168 -79 252 -162
143 -142 241 -331 291 -560 25 -117 23 -334 -4 -436 -48 -176 -153 -317 -286
-383 -128 -63 -284 -59 -433 12 -83 40 -92 56 -70 122 44 126 158 248 293 312
145 70 214 180 172 277 -7 15 -32 61 -56 100 -23 40 -59 111 -78 157 -42 100
-84 152 -150 186 -48 24 -55 25 -264 25 -191 0 -221 -2 -258 -19 -23 -11 -45
-17 -48 -14 -7 8 70 161 117 229 84 125 191 177 359 178 76 0 109 -4 163 -24z
m-3507 -277 c65 -40 195 -118 287 -173 l168 -100 -8 -830 c-10 -1031 -10
-1741 -1 -1751 11 -10 102 25 338 129 625 274 637 279 683 271 20 -3 108 -27
195 -54 l157 -47 3 -64 c2 -35 -4 -142 -14 -237 l-17 -173 -221 -111 c-226
-113 -326 -170 -326 -187 0 -21 333 -134 1075 -367 437 -138 484 -152 705
-223 69 -22 269 -85 445 -141 386 -122 773 -251 835 -278 25 -10 51 -27 59
-36 7 -9 20 -16 29 -16 14 0 15 86 8 825 -4 498 -3 825 3 825 5 0 69 -37 142
-81 366 -223 443 -268 513 -300 l76 -34 0 -115 c0 -425 -39 -1483 -56 -1522
-3 -7 -95 -82 -205 -167 -153 -116 -206 -152 -222 -148 -12 2 -182 60 -377
127 -195 67 -445 153 -555 190 -110 37 -425 145 -700 240 -275 94 -590 203
-700 240 -110 38 -333 114 -495 170 -162 56 -450 155 -640 220 -190 65 -424
146 -521 179 -97 34 -182 61 -189 61 -13 0 -65 -24 -435 -205 -132 -65 -332
-162 -445 -217 l-205 -100 -142 47 c-78 26 -170 62 -205 79 -60 31 -63 35 -70
77 -3 24 -7 139 -7 254 l-1 210 133 57 c72 31 265 115 427 187 l295 129 11
674 c7 370 15 1100 19 1621 6 723 11 947 20 943 6 -2 65 -37 131 -78z m3108
-124 c26 -10 19 -31 -21 -63 -86 -70 -229 -171 -242 -171 -20 0 -71 50 -71 70
0 39 141 141 223 160 41 10 91 12 111 4z m-675 -73 c158 -60 334 -234 435
-431 83 -161 118 -307 118 -490 0 -224 -65 -403 -192 -531 -91 -92 -156 -122
-280 -127 -83 -4 -105 -1 -175 23 -266 89 -476 349 -557 690 -31 129 -30 327
1 445 61 233 188 391 350 437 68 19 232 11 300 -16z m-1759 -226 c83 -47 603
-358 871 -522 l136 -83 38 -116 c90 -282 267 -529 455 -634 34 -19 73 -44 86
-55 l25 -20 -20 -116 c-11 -64 -25 -183 -31 -265 -16 -228 -2 -284 145 -595
51 -108 101 -218 110 -245 21 -64 63 -106 139 -140 83 -38 178 -38 295 -1 67
22 114 29 245 37 96 5 189 17 231 28 100 26 210 84 317 165 51 39 131 94 178
123 165 100 400 207 417 190 22 -21 31 -1539 10 -1572 -7 -13 -27 -7 -377 103
-644 202 -922 289 -1040 328 -74 24 -319 102 -545 174 -764 243 -957 306 -958
316 -2 17 79 66 273 165 l185 95 8 274 c5 150 6 275 4 278 -7 7 -232 81 -331
109 l-90 25 -60 -22 c-74 -26 -318 -131 -636 -272 l-235 -105 -8 42 c-9 48 -1
2315 9 2364 l6 32 32 -19 c17 -10 69 -40 116 -66z m2703 -937 c56 -22 149 -65
205 -95 98 -51 237 -137 246 -151 7 -12 -83 -206 -107 -229 -17 -17 -46 -27
-112 -39 -50 -8 -126 -31 -169 -50 -44 -19 -91 -34 -106 -34 -51 0 -86 42
-116 139 -29 95 -43 462 -19 501 11 17 59 6 178 -42z m4156 -213 c41 -21 100
-92 111 -134 5 -20 12 -70 15 -111 3 -41 8 -98 10 -127 l5 -52 -79 -68 c-53
-46 -136 -100 -252 -165 -433 -241 -1382 -712 -1682 -835 -92 -37 -127 -46
-193 -51 -179 -11 -365 55 -674 238 -159 95 -364 233 -363 245 1 5 67 26 147
46 220 57 360 139 457 268 48 65 65 104 86 194 19 84 30 92 143 107 181 23
242 53 370 175 88 85 134 116 160 107 42 -13 94 -82 166 -220 110 -212 286
-363 480 -412 262 -67 572 32 775 246 105 112 171 234 229 424 32 105 46 140
56 140 3 0 18 -7 33 -15z"/>
<path d="M9955 7723 c-38 -9 -40 -23 -3 -23 203 0 390 -143 503 -383 64 -135
115 -361 115 -506 0 -166 -36 -279 -126 -401 -62 -84 -56 -106 12 -39 44 43
101 141 130 221 90 252 -41 762 -253 989 -70 74 -137 110 -250 134 -69 15 -93
16 -128 8z"/>
<path d="M1307 7406 c-64 -65 -83 -77 -133 -91 -119 -33 -194 -81 -194 -126 0
-31 34 -23 105 26 36 24 82 47 102 50 82 13 111 26 148 66 58 65 89 149 55
149 -5 0 -43 -33 -83 -74z"/>
<path d="M1042 6551 c-57 -78 -80 -189 -89 -416 -11 -316 33 -578 146 -870 38
-98 75 -155 101 -155 11 0 20 5 20 10 0 6 -30 88 -66 183 -81 209 -127 388
-154 599 -33 264 -30 305 46 557 19 63 33 119 31 125 -2 6 -18 -9 -35 -33z"/>
<path d="M1294 4569 c8 -178 14 -219 32 -243 11 -15 17 -17 26 -8 9 9 7 42
-10 144 -12 73 -24 157 -28 186 -4 29 -11 55 -17 59 -6 4 -7 -43 -3 -138z"/>
<path d="M1065 4515 c-4 -57 -12 -98 -20 -105 -7 -6 -44 -13 -81 -16 -176 -15
-181 -62 -6 -52 113 7 152 39 152 129 0 45 -18 127 -30 134 -4 3 -11 -38 -15
-90z"/>
<path d="M9802 7107 c-8 -10 -6 -22 9 -47 32 -52 92 -120 106 -120 34 0 -8
112 -57 153 -36 31 -43 32 -58 14z"/>
<path d="M5534 6386 c-3 -9 -3 -23 0 -32 6 -16 17 -16 89 2 23 5 34 1 56 -20
35 -34 86 -40 86 -11 0 29 -77 64 -158 72 -56 5 -68 3 -73 -11z"/>
<path d="M5890 6324 c-64 -21 -93 -41 -110 -74 -47 -91 -64 -228 -24 -188 8 8
29 52 48 99 35 90 43 97 124 119 23 6 42 17 42 24 0 22 -41 32 -80 20z"/>
<path d="M5130 6230 c0 -49 289 -200 382 -200 15 0 28 4 28 9 0 16 -24 29 -85
46 -73 21 -149 60 -234 120 -69 49 -91 55 -91 25z"/>
<path d="M6245 6214 c-45 -23 -102 -83 -108 -112 -3 -14 0 -38 5 -54 16 -44
41 -32 55 27 10 39 22 58 57 88 28 24 43 44 39 53 -7 18 -11 18 -48 -2z"/>
<path d="M4874 6005 c-9 -22 13 -77 55 -142 69 -105 108 -133 166 -119 36 9
31 21 -15 35 -70 21 -125 83 -144 166 -14 59 -49 94 -62 60z"/>
<path d="M7031 5539 c-40 -16 -8 -36 116 -75 147 -46 269 -108 391 -197 180
-134 203 -149 209 -143 16 16 -153 159 -307 259 -101 65 -202 116 -288 146
-68 23 -85 25 -121 10z"/>
<path d="M10490 5291 c-5 -11 -13 -62 -16 -113 -4 -61 -13 -108 -26 -135 -20
-43 -30 -49 -121 -68 -30 -6 -32 -22 -5 -39 23 -14 91 8 129 42 40 36 69 139
69 244 0 79 -11 104 -30 69z"/>
<path d="M6433 5246 c-154 -168 -238 -523 -188 -800 7 -43 18 -83 23 -88 23
-23 34 41 42 260 12 321 34 414 139 585 28 45 51 86 51 90 0 18 -22 3 -67 -47z"/>
<path d="M9187 5173 c-14 -13 -5 -21 53 -47 168 -75 405 -136 533 -136 89 0
165 20 152 40 -4 6 -57 10 -132 10 -142 0 -171 6 -415 86 -174 56 -181 58
-191 47z"/>
<path d="M10634 4926 c-28 -20 -97 -122 -92 -136 8 -26 128 102 128 137 0 17
-10 17 -36 -1z"/>
<path d="M5080 4864 c0 -9 9 -27 20 -41 11 -15 27 -49 35 -78 18 -61 38 -91
53 -81 29 17 2 121 -45 181 -29 36 -63 47 -63 19z"/>
<path d="M7739 4810 c-24 -45 -49 -74 -93 -108 -85 -64 -103 -86 -143 -172
-45 -93 -122 -329 -130 -394 -5 -43 -4 -48 13 -44 31 6 60 62 105 201 66 208
83 239 193 357 107 115 129 148 124 188 -6 50 -34 38 -69 -28z"/>
<path d="M7765 4620 c-5 -8 -13 -132 -19 -276 -13 -349 4 -558 41 -520 11 11
7 745 -4 781 -7 22 -11 26 -18 15z"/>
<path d="M6490 4061 c0 -13 33 -43 103 -93 87 -62 105 -80 125 -123 57 -124
67 -140 87 -140 17 0 20 8 23 49 5 70 -33 140 -115 215 -101 94 -223 143 -223
92z"/>
<path d="M4895 3518 c-50 -59 -99 -148 -131 -243 -23 -67 -28 -97 -28 -190 -1
-94 2 -115 20 -145 11 -19 27 -36 36 -38 21 -4 25 36 18 168 -8 137 2 178 75
330 36 74 65 141 65 148 0 22 -18 12 -55 -30z"/>
<path d="M4705 2660 c-16 -26 53 -170 113 -233 36 -37 120 -61 185 -53 65 9
144 39 173 67 57 53 2 67 -80 20 -73 -42 -114 -47 -170 -22 -58 25 -101 71
-134 141 -37 81 -68 110 -87 80z"/>
<path d="M5246 5572 c5 -5 36 -15 68 -21 176 -38 316 -136 405 -284 130 -214
219 -606 182 -801 -14 -75 -49 -153 -107 -238 -61 -87 -53 -110 14 -40 101
108 132 200 132 393 0 487 -238 924 -538 988 -62 13 -170 15 -156 3z"/>
<path d="M4186 5101 c-15 -6 -4 -12 50 -25 197 -49 330 -154 422 -333 113
-219 167 -443 159 -653 -5 -157 -28 -234 -95 -322 -59 -77 -68 -98 -43 -98 10
0 35 19 56 41 75 84 135 255 135 391 0 152 -68 445 -140 605 -82 180 -221 327
-353 372 -63 22 -164 34 -191 22z"/>
<path d="M3120 7664 c-14 -2 -59 -9 -100 -15 -104 -16 -200 -46 -200 -64 0
-21 58 -19 182 6 137 28 296 31 357 6 39 -16 46 -16 59 -3 36 35 -38 63 -185
70 -49 3 -99 3 -113 0z"/>
</g>
</svg>
