<?xml version="1.0" standalone="no"?>
<!DOCTYPE svg PUBLIC "-//W3C//DTD SVG 20010904//EN"
 "http://www.w3.org/TR/2001/REC-SVG-20010904/DTD/svg10.dtd">
<svg version="1.0" xmlns="http://www.w3.org/2000/svg"
 width="975.000000pt" height="1199.000000pt" viewBox="0 0 975.000000 1199.000000"
 preserveAspectRatio="xMidYMid meet">

<g transform="translate(0.000000,1199.000000) scale(0.100000,-0.100000)"
fill="#000000" stroke="none">
<path d="M4697 11734 c-17 -25 -78 -134 -135 -242 -207 -395 -330 -625 -545
-1022 -196 -363 -305 -559 -521 -942 -36 -65 -89 -164 -118 -220 l-53 -103 0
-150 c0 -135 2 -155 22 -195 43 -86 154 -134 313 -135 108 0 147 11 221 62 38
26 57 33 76 28 36 -9 63 -74 63 -156 0 -41 5 -70 13 -76 6 -6 38 -13 69 -16
31 -3 97 -22 146 -41 104 -42 139 -44 216 -15 30 12 62 19 71 15 15 -5 15 -8
-1 -35 -9 -16 -56 -67 -103 -114 -158 -155 -209 -257 -196 -393 9 -95 1 -110
-131 -266 -114 -133 -168 -208 -177 -249 -15 -60 -29 -189 -47 -438 -24 -322
-39 -418 -90 -581 -22 -69 -44 -143 -50 -166 -17 -69 -49 -105 -137 -154 -90
-50 -146 -98 -169 -147 -16 -33 -55 -53 -103 -53 -44 0 -94 -18 -125 -45 -43
-37 -87 -45 -205 -35 -188 15 -440 -21 -646 -92 -80 -28 -91 -33 -156 -84 -71
-55 -193 -115 -379 -187 -233 -91 -321 -147 -595 -382 -88 -75 -209 -174 -270
-220 -162 -123 -179 -143 -225 -281 -46 -133 -47 -175 -12 -346 37 -175 64
-376 92 -673 24 -251 46 -363 99 -514 21 -58 63 -176 94 -262 139 -389 121
-483 -141 -752 -241 -245 -399 -368 -525 -407 -122 -37 -153 -50 -202 -82
-129 -86 -139 -190 -29 -308 60 -64 95 -74 206 -60 46 6 203 15 350 19 l267 7
68 37 c245 132 351 167 632 207 286 40 371 95 371 240 0 80 -39 181 -126 325
-141 235 -150 267 -160 590 -7 220 -1 293 46 550 47 264 23 388 -148 766 -81
178 -90 207 -71 213 8 2 36 9 64 15 27 7 83 31 125 54 41 23 95 50 119 60 52
21 154 24 239 7 62 -13 374 -100 382 -107 2 -2 -53 -61 -123 -131 l-127 -127
0 -380 c0 -466 -5 -508 -84 -770 -20 -68 -21 -87 -21 -705 0 -659 0 -664 -42
-765 -26 -61 -83 -141 -166 -232 -72 -80 -118 -138 -242 -308 -64 -88 -266
-294 -305 -311 -14 -6 -42 -18 -62 -27 -27 -12 -46 -31 -68 -69 -51 -91 -36
-166 43 -213 24 -14 66 -28 92 -32 36 -5 56 -14 76 -35 15 -17 54 -40 93 -54
62 -22 81 -24 255 -24 l187 0 58 35 c165 99 314 231 392 347 64 94 118 148
206 204 121 78 165 120 188 181 28 76 28 190 -1 227 -29 37 -66 133 -90 234
-17 70 -20 107 -16 187 8 150 57 285 222 614 92 185 160 347 180 433 37 159 3
439 -92 745 -18 60 -23 93 -18 119 15 84 157 182 605 414 l235 122 340 -11
c391 -14 647 -29 658 -40 16 -15 -480 -1472 -511 -1503 -4 -4 -89 30 -189 76
-295 137 -357 159 -417 152 -83 -11 -421 -87 -426 -97 -3 -4 -5 -68 -5 -141
l0 -132 80 -42 c44 -22 332 -171 640 -329 308 -159 692 -357 853 -442 162 -84
298 -153 303 -153 5 0 96 32 203 71 l195 72 3 179 c2 99 0 185 -4 190 -3 6
-68 43 -144 82 -122 63 -168 96 -154 109 5 4 1292 424 1590 519 69 22 129 43
133 48 8 7 -13 516 -98 2405 -64 1428 -93 2171 -82 2181 19 20 440 -241 597
-370 184 -152 231 -173 411 -186 133 -10 213 -25 313 -59 82 -29 130 -27 191
8 75 44 102 78 165 213 139 299 161 383 121 473 -12 27 -46 85 -76 131 -30 45
-55 91 -55 102 0 66 153 465 515 1342 453 1097 715 1744 715 1764 0 105 -206
-353 -707 -1569 -411 -998 -641 -1523 -697 -1594 -19 -25 -89 -51 -137 -51
-102 0 -218 65 -249 140 -19 46 -7 170 28 280 60 190 217 586 482 1215 299
710 605 1456 675 1651 39 106 33 144 -10 70 -34 -58 -156 -340 -372 -856 -422
-1009 -580 -1385 -600 -1424 -13 -25 -19 -27 -46 -22 -42 9 -199 103 -266 160
-65 57 -78 64 -155 86 -34 9 -96 31 -139 49 -43 17 -94 31 -114 31 -51 0 -101
-28 -130 -71 -26 -39 -62 -57 -102 -51 -22 4 -23 7 -18 60 3 36 39 151 97 312
163 452 221 623 247 730 23 94 25 119 20 250 -5 167 -18 219 -77 308 -45 68
-108 115 -183 137 -115 34 -524 93 -815 117 -165 14 -245 5 -323 -36 -166 -88
-140 -80 -314 -88 -107 -4 -175 -12 -205 -22 -148 -54 -236 -156 -370 -431
-113 -231 -115 -241 -115 -570 0 -154 4 -293 8 -309 5 -16 36 -57 69 -89 65
-65 88 -107 88 -160 0 -47 -22 -62 -89 -62 -122 1 -207 87 -351 356 -34 63
-78 131 -98 152 -64 67 -158 104 -386 152 -127 26 -146 35 -146 68 0 25 87
210 520 1107 370 767 593 1248 586 1267 -3 7 -12 10 -22 6 -18 -6 -337 -646
-664 -1328 -249 -520 -442 -909 -494 -997 -56 -94 -87 -121 -131 -112 -43 8
-93 -15 -151 -68 -68 -62 -104 -130 -104 -196 0 -59 14 -93 72 -170 l39 -53
-68 -31 c-57 -27 -80 -32 -143 -33 -62 0 -85 5 -132 28 -31 15 -72 45 -92 67
-36 40 -36 40 -36 133 0 50 7 121 16 157 19 83 95 241 227 472 447 783 1127
2061 1127 2118 0 34 -29 22 -63 -26z m2008 -1395 c437 -48 591 -89 662 -174
40 -46 81 -143 92 -215 26 -166 -20 -343 -264 -1015 -145 -400 -156 -425 -188
-425 -12 0 -42 -14 -67 -30 -30 -20 -58 -30 -82 -30 -42 0 -252 61 -307 90
-70 36 -133 120 -214 287 -48 99 -52 113 -52 179 0 71 1 75 87 242 115 225
128 265 128 394 -1 292 -68 407 -324 558 -140 83 -137 74 -50 126 22 13 65 28
95 33 71 13 260 5 484 -20z m-818 -100 c218 -30 433 -170 515 -336 28 -58 33
-79 36 -162 5 -114 -18 -215 -77 -349 -21 -48 -62 -140 -91 -206 -29 -65 -55
-138 -58 -162 -6 -55 14 -106 125 -321 46 -89 83 -168 83 -176 0 -8 -16 -27
-35 -41 -20 -15 -33 -32 -30 -37 4 -5 60 -8 128 -7 185 4 305 -35 376 -121 57
-69 94 -105 129 -123 24 -13 41 -35 63 -82 17 -36 29 -73 27 -83 -2 -10 -19
-26 -38 -36 -29 -15 -48 -17 -110 -11 -41 4 -97 6 -124 5 -53 -2 -116 -24
-116 -40 0 -17 122 -23 309 -14 l183 8 24 -55 c53 -122 82 -146 233 -189 124
-36 142 -50 218 -179 l55 -93 -39 -55 c-103 -146 -128 -212 -128 -334 0 -72 4
-93 28 -141 31 -64 102 -149 124 -149 18 0 12 22 -29 102 -76 149 -70 327 14
418 92 101 97 136 37 284 -63 157 -63 249 0 261 14 3 53 12 86 21 91 23 115
27 115 18 0 -20 -48 -74 -92 -104 -26 -18 -48 -37 -48 -41 0 -4 12 -9 28 -11
l27 -3 0 -145 0 -145 32 -47 c60 -85 141 -138 244 -159 77 -15 151 1 230 52
84 54 103 51 151 -26 95 -155 91 -271 -14 -391 -61 -70 -78 -106 -69 -148 12
-51 -4 -95 -50 -142 -44 -45 -112 -79 -145 -72 -14 2 -18 11 -16 29 3 24 -2
28 -44 38 -26 7 -144 18 -263 26 -119 8 -233 19 -253 25 -21 6 -93 53 -160
104 -68 51 -191 138 -274 193 -196 132 -336 243 -460 369 -116 117 -173 190
-251 321 l-56 94 20 22 c10 12 43 49 73 82 99 111 130 165 96 165 -14 0 -49
-27 -218 -169 -66 -55 -189 -119 -298 -155 -142 -47 -233 -60 -410 -61 -191 0
-211 5 -351 91 -167 103 -279 142 -279 96 0 -21 2 -22 155 -102 359 -187 318
-170 400 -170 126 0 376 49 629 124 130 38 146 36 176 -21 14 -26 69 -120 123
-207 l99 -160 -24 -19 c-84 -66 -129 -113 -216 -230 -140 -188 -212 -267 -333
-368 -188 -156 -238 -221 -305 -389 -36 -90 -154 -240 -339 -429 l-33 -34 -68
55 c-93 74 -184 136 -274 188 -147 85 -159 118 -94 249 41 82 91 127 207 188
84 44 157 110 157 141 0 30 -26 28 -75 -8 -22 -16 -90 -63 -151 -104 -126 -85
-157 -118 -214 -227 -22 -42 -47 -82 -55 -89 -14 -11 -44 -5 -193 40 -436 131
-436 131 -448 205 -3 25 -10 47 -14 50 -13 8 -31 -21 -43 -72 -14 -55 1 -51
-164 -36 -56 6 -109 16 -118 23 -24 20 -18 79 21 196 35 104 37 118 45 299 13
311 32 510 54 563 10 23 20 32 37 32 31 0 154 60 196 94 66 56 21 64 -59 10
-104 -70 -159 -90 -159 -59 0 32 32 77 135 186 74 79 115 133 140 182 33 66
35 74 32 161 -2 81 1 97 25 150 103 218 573 476 870 476 73 0 126 -19 113 -41
-4 -5 0 -9 8 -9 18 0 42 58 51 123 9 60 29 74 138 93 207 35 275 56 326 99 49
41 96 195 60 195 -7 0 -31 -27 -53 -60 -65 -99 -148 -142 -302 -160 -219 -24
-326 37 -362 208 -16 76 -14 301 4 412 28 167 111 384 191 497 89 125 222 226
331 252 53 13 100 13 190 0z m-1602 -975 c217 -23 319 -53 389 -115 58 -50
276 -389 292 -453 5 -20 -8 -28 -123 -83 -171 -82 -233 -96 -233 -54 0 20 36
55 105 102 92 62 21 45 -144 -35 -108 -53 -167 -76 -193 -76 -29 0 -164 34
-300 76 -28 8 -21 29 22 68 46 41 86 46 180 21 74 -20 96 -19 129 6 22 16 50
22 143 28 171 12 209 39 209 148 1 74 -11 95 -76 129 -70 37 -87 54 -74 70 36
44 -94 -3 -174 -63 -60 -46 -109 -73 -132 -73 -20 0 -19 -3 10 -46 18 -27 25
-50 25 -85 0 -44 -3 -49 -26 -55 -14 -4 -48 -3 -77 0 -137 18 -131 80 24 269
61 73 86 114 76 123 -20 20 -207 -185 -250 -272 -33 -68 -67 -71 -67 -6 0 41
25 100 94 219 54 95 62 138 15 83 -41 -48 -89 -131 -124 -215 -37 -90 -42 -95
-66 -66 -32 39 -24 87 26 171 46 75 57 120 31 120 -15 0 -34 -28 -86 -125 -41
-78 -65 -104 -82 -87 -24 24 47 242 88 269 54 35 97 36 369 7z m333 -275 c72
-15 82 -28 82 -100 0 -55 -2 -60 -26 -69 -35 -14 -223 -13 -263 1 -27 10 -31
15 -31 47 0 66 44 116 115 132 32 8 43 7 123 -11z m2888 -430 c23 -16 64 -34
90 -40 73 -17 117 -37 150 -68 54 -50 125 -101 178 -126 60 -29 101 -67 93
-89 -5 -12 -11 -13 -35 -4 -24 9 -39 8 -75 -6 -59 -22 -102 -72 -122 -140 -17
-59 -13 -79 31 -145 14 -22 23 -45 19 -50 -9 -16 -100 -13 -140 3 -81 34 -86
121 -17 255 23 44 42 85 42 90 0 22 -24 10 -62 -31 -78 -84 -94 -150 -62 -257
8 -29 12 -56 9 -59 -11 -12 -79 34 -103 69 -20 29 -23 44 -20 99 3 55 12 81
61 177 31 61 57 122 57 134 0 21 -1 22 -20 4 -58 -52 -133 -216 -145 -317 -4
-31 -13 -65 -20 -75 -13 -17 -15 -17 -39 6 -68 63 -75 200 -16 293 57 91 75
126 67 134 -14 15 -41 -11 -94 -90 -65 -96 -75 -141 -61 -258 6 -48 9 -91 5
-94 -12 -13 -75 18 -110 54 -38 39 -76 113 -77 147 0 73 224 376 305 411 36
16 56 11 111 -27z m-346 -127 c0 -30 -70 -131 -102 -148 -25 -13 -35 -13 -59
-4 -38 16 -74 73 -60 97 25 48 79 71 169 72 44 1 52 -2 52 -17z m844 -268 c9
-8 16 -28 16 -43 0 -41 -38 -146 -60 -166 -18 -17 -21 -17 -46 -1 -48 32 -78
131 -54 176 24 44 113 65 144 34z m-546 -250 c91 -30 164 -75 180 -109 16 -35
-16 -55 -88 -55 -69 0 -218 35 -242 57 -27 24 -25 97 4 117 31 22 57 20 146
-10z m-739 -864 c12 -93 30 -391 61 -1020 65 -1340 154 -3444 146 -3495 -3
-25 -53 -42 -1578 -537 -158 -51 -288 -95 -288 -98 0 -3 102 -52 226 -109
l227 -105 -7 -145 c-4 -80 -10 -149 -14 -152 -4 -4 -79 -32 -166 -64 l-159
-57 -96 50 c-1476 766 -1608 838 -1675 912 -31 35 -36 47 -36 90 0 42 4 52 25
66 28 19 136 48 252 69 139 25 165 17 576 -170 81 -37 150 -65 153 -62 7 7
101 267 347 957 119 333 218 612 222 621 5 13 31 17 148 22 165 6 213 0 211
-29 -1 -10 -24 -89 -52 -174 -88 -269 -352 -1151 -352 -1175 0 -22 145 22 940
287 333 110 608 206 612 212 5 6 6 61 3 121 -3 61 -10 209 -15 330 -5 121 -21
477 -35 790 -31 722 -51 1244 -66 1745 l-12 395 96 255 c52 140 116 302 141
360 49 112 134 232 146 208 4 -7 13 -51 19 -98z m-470 -726 c-454 -1262 -476
-1321 -556 -1478 -73 -144 -100 -162 -226 -152 -45 4 -86 11 -91 16 -5 5 -6
125 -3 272 9 448 40 550 269 893 63 94 149 240 192 324 88 171 135 229 270
335 98 76 246 229 301 309 22 32 41 55 42 50 2 -5 -87 -261 -198 -569z m-1999
-102 c219 -37 326 -77 623 -230 295 -151 476 -277 507 -352 10 -25 10 -42 0
-91 -7 -33 -16 -61 -19 -63 -4 -3 -33 27 -66 66 -138 161 -397 323 -538 336
-90 8 -72 -12 87 -94 76 -39 174 -94 218 -124 96 -63 197 -160 221 -212 38
-81 31 -414 -13 -627 -23 -112 -63 -185 -146 -267 -85 -85 -160 -124 -370
-193 -214 -70 -292 -104 -378 -165 -41 -30 -67 -43 -71 -36 -4 6 -4 46 -1 88
8 91 -7 160 -58 267 -66 139 -147 223 -366 379 -146 104 -240 147 -336 153
-98 7 -209 -10 -288 -43 -34 -14 -70 -28 -81 -31 -61 -18 148 148 256 202 84
43 178 69 300 85 262 33 302 39 312 49 16 16 -36 32 -128 38 -103 7 -250 -11
-340 -42 -40 -14 -77 -25 -84 -25 -17 0 -41 62 -41 104 0 56 35 189 75 289 13
32 -21 19 -58 -22 -45 -50 -65 -115 -77 -260 -12 -138 -27 -173 -89 -208 -70
-40 -141 -92 -188 -137 -26 -24 -46 -36 -51 -31 -5 6 -17 39 -27 75 -22 83
-66 172 -122 247 -64 86 -184 204 -247 242 -63 38 -177 71 -245 71 -81 0 -82
16 -2 40 201 60 240 65 507 65 l251 0 55 37 c90 59 140 71 265 64 290 -16 365
-18 449 -7 136 18 187 39 132 55 -13 4 -133 11 -268 15 -227 8 -300 18 -300
39 0 17 47 52 115 84 l70 33 175 0 c190 0 285 -14 396 -59 98 -39 104 -40 104
-17 0 39 -137 88 -378 135 -71 14 -141 30 -156 35 -30 12 -35 44 -8 61 25 16
285 5 422 -18z m2009 -347 c11 -162 43 -909 76 -1745 9 -212 18 -556 22 -766
l6 -381 -149 -52 c-422 -150 -1221 -407 -1231 -397 -4 4 1 30 9 59 235 769
335 1073 388 1182 23 48 65 110 104 155 94 107 109 152 110 315 1 113 -2 136
-21 177 -26 56 -81 111 -168 168 -36 24 -64 45 -61 47 2 3 36 0 75 -6 273 -42
287 -21 625 924 143 401 186 509 197 498 4 -4 12 -84 18 -178z m-3669 -332
c144 -70 254 -199 334 -388 70 -169 81 -247 42 -323 -30 -60 -274 -300 -336
-332 -73 -37 -131 -49 -386 -75 -289 -30 -355 -46 -538 -129 -194 -88 -202
-88 -215 -25 l-7 34 -18 -34 c-29 -54 -18 -118 43 -256 106 -241 147 -376 175
-566 21 -142 20 -205 -6 -373 -19 -121 -23 -181 -23 -426 0 -200 4 -302 13
-342 15 -65 86 -209 154 -313 106 -164 136 -252 104 -312 -31 -60 -118 -94
-361 -142 -181 -36 -302 -70 -415 -118 -153 -64 -235 -91 -310 -102 -197 -29
-646 -42 -693 -20 -32 14 -50 54 -37 78 15 29 54 49 146 76 48 14 89 27 91 29
2 2 -33 4 -77 5 -85 2 -110 7 -110 23 0 14 77 45 175 68 153 37 201 67 370
230 83 80 194 186 248 237 53 50 110 113 127 140 46 72 70 161 70 260 0 97
-14 157 -102 448 -119 392 -144 509 -184 864 -30 270 -55 418 -89 535 -33 117
-33 179 4 271 50 125 112 205 189 244 60 31 152 102 237 185 242 235 619 441
1025 562 98 29 127 34 195 31 70 -3 91 -8 165 -44z m975 -565 c137 -35 436
-243 533 -372 53 -70 118 -198 132 -261 20 -91 -12 -135 -165 -225 -49 -29
-148 -94 -220 -145 -165 -117 -256 -170 -502 -294 -109 -55 -222 -116 -251
-136 -30 -19 -56 -35 -58 -35 -2 0 7 22 20 48 28 55 37 103 20 109 -19 7 -94
-80 -129 -151 -44 -87 -47 -159 -10 -291 76 -272 79 -294 80 -525 0 -274 -4
-287 -198 -725 -82 -186 -120 -297 -138 -402 -27 -162 -30 -175 -50 -180 -26
-7 -25 -16 21 -144 22 -62 40 -122 40 -133 0 -12 -18 -47 -40 -80 -40 -58 -54
-111 -27 -100 7 2 30 25 51 49 60 72 86 56 102 -65 14 -109 -23 -165 -178
-272 -104 -71 -171 -141 -217 -228 -47 -88 -91 -133 -175 -179 -40 -22 -113
-71 -162 -110 -108 -86 -145 -105 -204 -104 -38 1 -182 44 -348 105 l-23 8 22
40 c12 22 20 42 17 46 -4 3 -28 -4 -53 -15 -72 -32 -162 -26 -187 13 -13 19
-9 56 8 86 9 15 58 54 108 86 58 37 132 99 202 169 105 104 153 167 264 351
19 32 78 101 131 154 108 106 172 198 189 268 6 26 15 223 20 437 19 784 28
912 83 1235 14 80 28 182 32 227 4 49 15 98 26 120 26 51 24 94 -11 214 -17
57 -34 136 -37 176 -7 92 12 133 108 234 110 114 164 182 210 261 111 190 383
489 580 636 56 42 184 106 229 115 30 5 101 -1 155 -15z m1842 -475 c60 -40
107 -105 128 -177 19 -63 19 -97 0 -171 -29 -110 -123 -221 -209 -247 -90 -28
-1197 4 -1336 38 l-25 7 30 13 c17 7 46 13 65 14 54 1 133 38 270 127 195 126
234 142 498 207 212 53 302 96 382 182 58 62 113 64 197 7z m-2837 -143 c0
-34 -27 -88 -50 -100 -23 -12 -131 11 -249 54 l-63 23 103 6 c57 4 127 13 154
20 77 22 105 21 105 -3z"/>
<path d="M5010 8576 c0 -21 10 -25 118 -53 155 -40 153 -40 113 -4 -61 53
-231 95 -231 57z"/>
<path d="M5420 8493 c-60 -22 -40 -43 41 -43 78 0 160 -17 223 -46 30 -13 89
-32 133 -40 100 -20 307 -23 348 -4 l30 14 -55 7 c-30 4 -100 7 -155 8 -139 2
-208 15 -264 50 -25 17 -73 37 -106 46 -57 15 -165 19 -195 8z"/>
<path d="M5130 8325 c-84 -82 -135 -161 -120 -185 7 -12 17 -5 47 30 21 25 64
74 96 109 122 135 104 169 -23 46z"/>
<path d="M6519 8353 c-12 -32 -13 -240 -1 -273 17 -46 27 3 30 153 3 103 1
147 -7 147 -6 0 -16 -12 -22 -27z"/>
<path d="M4330 7820 c-37 -25 70 -60 180 -60 71 0 151 16 176 35 35 27 -4 35
-176 35 -94 0 -171 -5 -180 -10z"/>
<path d="M4831 7707 c-17 -34 -19 -50 -11 -75 25 -90 90 -141 180 -142 59 -1
113 -26 176 -84 55 -49 64 -54 64 -33 0 33 -117 120 -250 187 -122 61 -132 72
-124 137 8 65 -6 69 -35 10z"/>
<path d="M4650 7666 c-47 -32 -121 -56 -173 -56 -49 0 -114 -28 -142 -60 l-20
-23 43 22 c23 12 76 26 118 31 86 11 144 34 194 78 42 37 29 42 -20 8z"/>
<path d="M6780 7635 c0 -51 120 -250 227 -377 119 -142 325 -257 417 -234 17
4 26 13 26 27 0 26 -53 49 -113 49 -107 0 -201 85 -368 333 -96 143 -163 227
-181 227 -4 0 -8 -11 -8 -25z"/>
<path d="M4607 7482 c-41 -45 -64 -226 -39 -292 23 -58 90 -90 190 -90 29 0
68 -6 86 -14 35 -15 44 -24 106 -123 41 -65 66 -87 115 -99 28 -6 27 -4 -23
45 -31 30 -63 73 -77 105 -31 70 -56 88 -173 127 -210 69 -227 94 -181 256 24
88 23 115 -4 85z"/>
<path d="M4238 7480 c-38 -22 -76 -120 -59 -149 6 -9 11 -4 15 15 4 16 23 50
42 76 44 62 45 83 2 58z"/>
<path d="M6327 7463 c-3 -5 -8 -23 -12 -41 -10 -46 -67 -102 -156 -150 -121
-67 -128 -92 -18 -72 34 6 67 9 75 6 39 -15 -9 -92 -80 -128 -54 -27 -106 -66
-106 -80 0 -17 86 -3 137 23 25 13 59 41 76 61 26 33 31 47 32 105 2 55 9 82
39 143 34 70 47 140 27 140 -6 0 -12 -3 -14 -7z"/>
<path d="M6028 7402 c-38 -66 -72 -99 -115 -111 -84 -24 -236 -4 -340 44 -62
28 -119 32 -149 11 -22 -17 -25 -15 71 -41 33 -9 84 -30 113 -47 44 -25 68
-31 147 -37 52 -3 100 -12 106 -18 18 -18 2 -61 -31 -78 -73 -38 -228 -27
-292 20 -99 73 -122 79 -154 44 -24 -27 -9 -52 37 -60 35 -5 99 -38 99 -50 0
-4 15 -13 33 -20 41 -17 236 -15 292 3 36 12 44 21 78 90 21 42 62 104 92 137
58 65 71 95 61 136 -9 35 -17 31 -48 -23z"/>
<path d="M5234 7223 c-8 -64 2 -230 17 -285 19 -74 92 -125 146 -103 15 5 13
9 -12 19 -69 30 -93 89 -106 255 -6 69 -12 136 -15 149 -8 40 -22 23 -30 -35z"/>
<path d="M4477 7250 c-14 -17 -29 -20 -97 -20 -50 0 -95 -6 -118 -15 -45 -19
-112 -65 -112 -76 0 -16 23 -9 57 17 29 22 48 27 141 34 59 4 116 11 127 16
32 12 54 35 48 50 -7 20 -26 17 -46 -6z"/>
<path d="M4457 7106 c-33 -30 -48 -81 -54 -185 -5 -69 -3 -85 10 -92 8 -5 18
-23 22 -39 8 -35 15 -40 137 -84 51 -18 102 -37 113 -41 28 -11 -52 73 -87 91
-15 8 -36 14 -47 14 -60 0 -101 54 -101 132 0 52 24 139 50 185 28 48 2 60
-43 19z"/>
<path d="M4090 7071 c-13 -25 -13 -131 0 -151 18 -27 30 9 30 93 0 76 -10 95
-30 58z"/>
<path d="M8045 7029 c-8 -56 1 -182 16 -243 10 -36 12 -38 27 -22 25 24 24
236 -1 284 -10 17 -21 32 -26 32 -5 0 -12 -23 -16 -51z"/>
<path d="M5803 6893 c1 -71 -20 -115 -98 -206 -30 -36 -55 -70 -55 -76 0 -21
18 -19 53 4 20 14 38 25 41 25 13 0 5 -74 -10 -98 -9 -15 -34 -40 -56 -55 -47
-33 -51 -70 -7 -75 21 -2 35 6 62 39 46 54 66 112 78 229 5 52 14 127 21 166
12 75 8 104 -16 104 -11 0 -14 -14 -13 -57z"/>
<path d="M4155 6855 c-5 -2 -23 -6 -40 -10 -27 -6 -28 -8 -11 -17 18 -10 106
-6 186 9 33 6 34 7 10 14 -25 7 -127 10 -145 4z"/>
<path d="M4319 6784 c-23 -26 -48 -77 -70 -142 -35 -103 1 -78 55 37 39 84 47
142 15 105z"/>
<path d="M5255 6745 c-16 -14 -63 -37 -103 -51 -40 -15 -75 -31 -78 -35 -7
-13 84 -11 131 2 39 11 115 76 115 98 0 19 -33 12 -65 -14z"/>
<path d="M3997 6722 c-8 -9 -20 -30 -26 -45 -13 -34 -14 -107 -2 -107 10 0 21
34 21 66 0 12 11 38 25 58 14 20 25 39 25 41 0 12 -28 3 -43 -13z"/>
<path d="M4944 6658 c-16 -13 -35 -28 -42 -35 -21 -21 -59 -26 -133 -19 -38 3
-69 4 -69 1 0 -9 41 -26 87 -35 67 -12 123 4 167 48 55 54 47 84 -10 40z"/>
<path d="M4070 6540 c19 -5 51 -5 70 0 29 7 23 8 -35 8 -58 0 -64 -1 -35 -8z"/>
<path d="M4285 6500 c20 -22 86 -60 105 -60 26 0 4 18 -57 49 -59 29 -65 30
-48 11z"/>
<path d="M4663 6465 c-96 -111 -108 -160 -16 -62 52 55 91 117 74 117 -5 0
-31 -25 -58 -55z"/>
<path d="M4886 5611 c-14 -22 -36 -142 -36 -197 0 -78 15 -121 79 -218 58 -90
75 -142 66 -202 -12 -84 -71 -147 -245 -264 -112 -76 -190 -145 -190 -171 0
-11 4 -19 9 -19 23 0 362 262 411 317 86 98 122 231 86 317 -21 51 -20 106 4
191 21 75 26 125 11 125 -10 0 -41 -77 -61 -149 -27 -101 -43 -112 -87 -54
-28 37 -28 37 -26 185 2 132 -4 168 -21 139z"/>
<path d="M3990 5485 c0 -18 31 -31 125 -52 39 -9 93 -28 121 -44 50 -28 104
-38 104 -20 0 15 -62 63 -110 84 -102 46 -240 64 -240 32z"/>
<path d="M2365 4995 c-136 -28 -269 -84 -329 -137 -53 -46 -61 -74 -18 -64 15
4 88 36 162 70 163 77 270 113 404 136 l101 18 -105 0 c-73 1 -139 -6 -215
-23z"/>
<path d="M1240 4898 c-70 -115 -94 -317 -44 -383 l15 -20 15 20 c12 16 14 39
8 115 -5 75 -3 110 11 160 30 115 33 130 24 136 -5 3 -18 -10 -29 -28z"/>
<path d="M1148 4317 c-14 -19 -52 -49 -84 -68 -31 -19 -66 -46 -77 -61 -22
-29 -33 -115 -18 -137 13 -21 37 0 45 40 9 47 40 84 109 127 77 49 100 74 95
104 -5 36 -39 34 -70 -5z"/>
<path d="M1293 3354 c-11 -29 5 -168 27 -232 26 -75 75 -143 113 -156 48 -17
51 4 8 70 -42 66 -74 148 -92 239 -17 88 -40 121 -56 79z"/>
<path d="M1500 2221 c0 -36 15 -70 88 -206 41 -74 24 -103 -97 -169 -74 -41
-81 -56 -28 -56 50 1 107 33 167 94 l55 57 -55 107 c-71 140 -112 212 -122
212 -4 0 -8 -17 -8 -39z"/>
<path d="M3780 4390 c-113 -99 -178 -144 -306 -208 -102 -51 -131 -73 -119
-92 10 -16 85 -11 134 9 63 26 167 110 292 238 101 104 123 133 99 133 -5 0
-50 -36 -100 -80z"/>
<path d="M2741 4021 c-14 -26 -14 -179 0 -222 16 -46 35 -67 50 -52 8 8 6 27
-6 69 -12 40 -16 84 -13 138 3 82 -9 109 -31 67z"/>
<path d="M2641 3575 c-87 -81 -144 -185 -117 -213 20 -21 43 -4 69 51 13 29
47 77 76 107 85 92 62 139 -28 55z"/>
<path d="M1570 321 c-12 -24 -13 -51 -2 -51 14 0 42 35 42 53 0 23 -27 21 -40
-2z"/>
<path d="M1702 237 c-22 -23 -30 -57 -13 -57 13 0 61 51 61 66 0 21 -24 17
-48 -9z"/>
</g>
</svg>
