<?xml version="1.0" standalone="no"?>
<!DOCTYPE svg PUBLIC "-//W3C//DTD SVG 20010904//EN"
 "http://www.w3.org/TR/2001/REC-SVG-20010904/DTD/svg10.dtd">
<svg version="1.0" xmlns="http://www.w3.org/2000/svg"
 width="1290.000000pt" height="1373.000000pt" viewBox="0 0 1290.000000 1373.000000"
 preserveAspectRatio="xMidYMid meet">

<g transform="translate(0.000000,1373.000000) scale(0.100000,-0.100000)"
fill="#000000" stroke="none">
<path d="M7605 13360 c-81 -13 -214 -55 -303 -96 -178 -82 -303 -195 -374
-342 l-43 -87 -3 -219 c-7 -428 46 -672 201 -923 32 -50 57 -95 57 -100 0 -16
-203 -209 -238 -227 -47 -24 -76 -12 -162 69 -77 71 -100 85 -175 104 -22 6
-74 31 -115 56 -87 52 -113 55 -211 23 -86 -27 -99 -22 -99 39 0 90 -16 122
-99 205 -90 89 -137 108 -260 108 -100 -1 -143 -21 -238 -112 -226 -219 -391
-548 -696 -1393 -280 -774 -514 -1564 -687 -2320 -27 -120 -61 -257 -75 -302
-30 -98 -32 -100 -198 -142 -160 -41 -244 -87 -268 -148 -14 -36 -75 -69 -234
-123 -337 -115 -583 -262 -937 -561 -146 -124 -276 -221 -359 -270 -105 -61
-154 -131 -214 -303 -60 -177 -61 -214 -11 -411 51 -202 74 -374 101 -736 27
-379 47 -483 146 -766 139 -400 169 -495 185 -583 28 -162 6 -273 -78 -402
-84 -128 -510 -523 -659 -611 -36 -21 -126 -57 -204 -82 -225 -72 -297 -127
-317 -246 -16 -98 -1 -140 78 -216 82 -80 113 -89 243 -74 124 15 415 31 561
31 161 0 232 18 352 86 207 118 346 161 713 218 254 40 310 56 365 103 54 47
74 114 68 237 -5 112 -24 157 -132 310 -93 132 -149 245 -176 348 -27 110 -50
315 -57 513 -6 181 -3 197 68 510 26 113 36 336 20 430 -23 132 -60 229 -225
597 -36 81 -66 156 -66 166 0 14 9 21 34 25 19 3 115 44 213 91 210 100 249
111 347 96 121 -18 175 -37 182 -64 9 -38 -20 -265 -91 -695 -74 -460 -82
-515 -94 -676 -12 -149 -1 -254 38 -366 47 -137 64 -327 82 -929 14 -462 3
-773 -31 -862 -25 -68 -94 -166 -190 -273 -102 -112 -217 -255 -290 -360 -155
-222 -339 -410 -432 -441 -89 -29 -187 -149 -188 -229 0 -72 77 -139 180 -156
67 -11 108 -28 130 -54 35 -42 215 -110 369 -139 163 -31 241 -16 348 68 37
29 127 92 198 139 163 107 216 162 286 297 67 131 105 168 248 245 145 78 173
105 237 240 l52 110 -58 118 c-32 65 -78 177 -102 250 -40 124 -43 139 -42
237 2 127 21 206 100 404 64 160 199 446 246 518 17 27 38 53 48 58 35 19 163
-31 585 -225 678 -313 945 -428 1031 -444 157 -30 440 -22 589 15 84 22 190
75 255 128 211 175 189 166 1460 576 587 190 861 283 876 298 11 11 13 43 9
155 -3 78 -10 277 -15 442 -10 298 -24 625 -56 1305 -9 195 -17 524 -18 730
l-1 375 236 410 c263 456 436 757 544 945 40 69 115 199 168 290 52 91 149
257 214 370 94 162 124 206 142 208 12 2 84 -16 159 -40 135 -43 139 -43 282
-43 144 0 146 1 310 48 91 27 188 55 216 63 64 17 136 79 172 148 24 45 27 62
27 146 0 82 -4 107 -31 180 -18 47 -46 148 -63 225 -37 162 -63 226 -120 287
-63 69 -125 94 -342 137 -74 15 -91 29 -139 111 -83 142 -227 205 -380 166
-72 -19 -113 -41 -187 -103 -28 -24 -58 -43 -65 -43 -26 0 -202 91 -245 126
-54 45 -122 147 -185 281 -101 217 -223 361 -368 437 -38 20 -70 38 -70 40 0
1 45 126 101 277 187 507 292 810 332 954 19 71 22 104 22 295 0 214 0 215
-28 274 -39 84 -110 180 -164 221 -95 73 -297 114 -883 180 -481 53 -564 42
-737 -98 -45 -37 -86 -67 -91 -67 -4 0 -36 27 -71 59 -69 65 -147 110 -231
135 -67 20 -225 28 -305 16z m370 -120 c117 -45 219 -179 284 -376 51 -153 71
-307 81 -617 12 -376 29 -488 91 -625 58 -128 144 -227 304 -349 97 -74 135
-108 135 -124 0 -6 -13 -27 -30 -46 -35 -40 -40 -73 -10 -73 11 0 47 13 79 30
70 35 153 50 281 50 282 0 502 -75 647 -220 65 -65 152 -231 156 -295 l2 -40
-37 2 c-21 1 -85 23 -143 47 -152 65 -224 75 -269 37 -31 -27 -161 -203 -252
-341 -95 -146 -144 -241 -144 -282 0 -16 -3 -28 -7 -28 -3 0 -39 32 -79 70
-73 71 -90 81 -100 56 -15 -38 65 -134 186 -224 41 -31 101 -81 133 -113 107
-107 89 -136 -238 -364 -100 -71 -210 -184 -295 -304 -144 -205 -244 -310
-510 -538 -101 -85 -160 -161 -199 -253 -54 -126 -103 -219 -151 -282 -52 -68
-327 -368 -337 -368 -4 0 -74 49 -157 109 -170 122 -250 173 -366 231 -44 22
-80 46 -80 54 0 21 35 116 74 201 48 104 87 139 244 219 135 68 172 100 172
145 0 26 -16 51 -32 51 -4 0 -32 -22 -62 -49 -30 -28 -92 -71 -137 -97 -150
-87 -256 -205 -316 -355 -15 -38 -31 -69 -35 -69 -5 0 -90 27 -190 60 -250 81
-421 127 -563 151 -196 32 -205 38 -205 126 0 120 -43 163 -67 68 -29 -111
-34 -125 -49 -140 -18 -18 -90 -20 -100 -3 -26 42 34 233 109 351 20 31 43 57
50 57 7 0 20 -15 29 -32 l16 -33 7 40 c8 43 47 130 71 156 21 24 17 29 -23 26
l-38 -2 -3 82 c-2 65 5 122 34 260 20 98 47 248 59 333 42 278 91 385 232 501
88 73 198 181 239 235 27 35 28 42 29 143 0 94 4 113 28 165 48 104 119 180
317 341 129 104 220 195 220 220 0 14 -7 16 -39 10 -21 -3 -41 -3 -44 2 -9 15
29 90 78 153 81 106 159 139 189 83 8 -16 45 -64 81 -108 96 -114 136 -177
142 -224 6 -47 17 -58 38 -41 10 8 15 38 17 93 l3 82 57 6 c118 13 262 123
418 320 117 149 143 298 66 394 -13 17 -28 26 -32 22 -4 -4 -11 -60 -15 -125
-4 -67 -14 -132 -22 -152 -25 -57 -110 -171 -177 -238 -89 -87 -167 -125 -273
-130 -106 -4 -131 9 -220 118 -231 287 -326 511 -382 905 -21 148 -16 254 20
373 88 288 266 450 553 502 26 5 126 8 222 6 154 -3 182 -6 235 -26z m856 15
c282 -29 779 -94 864 -115 47 -11 107 -31 134 -44 90 -46 177 -169 202 -287 7
-32 9 -112 7 -208 -6 -195 -26 -275 -160 -661 -96 -276 -271 -736 -285 -747
-26 -21 -140 -26 -308 -14 -236 16 -321 34 -397 83 -79 51 -236 209 -318 318
-122 164 -140 236 -140 551 0 353 -24 528 -114 833 -14 48 -26 97 -26 107 0
46 138 155 234 185 55 17 124 17 307 -1z m-2919 -1392 c76 -42 148 -135 148
-194 0 -43 -27 -59 -97 -59 -36 0 -76 -6 -92 -14 -124 -65 -246 -389 -188
-503 20 -39 6 -90 -95 -338 -145 -357 -246 -632 -383 -1040 -194 -582 -313
-985 -474 -1620 -34 -132 -66 -249 -70 -261 -8 -19 -22 -21 -202 -32 -222 -14
-299 -15 -299 -5 0 4 52 215 114 468 215 864 438 1596 729 2390 197 540 390
926 548 1099 128 141 241 174 361 109z m434 -334 c43 -6 90 -17 104 -24 14 -7
51 -18 82 -24 70 -13 104 -30 143 -71 17 -18 67 -57 112 -86 70 -46 84 -59 94
-93 13 -44 6 -89 -16 -97 -8 -3 -54 17 -102 45 -138 80 -161 78 -269 -20 -30
-27 -68 -52 -85 -56 -40 -8 -44 -18 -18 -52 17 -24 23 -48 26 -108 2 -43 0
-84 -5 -91 -8 -11 -24 -12 -88 -2 -131 19 -146 24 -167 52 -39 52 3 136 148
298 120 133 172 220 133 220 -35 0 -314 -328 -365 -428 -16 -31 -33 -57 -39
-59 -17 -6 -37 53 -36 103 0 55 42 146 122 271 79 121 97 169 55 146 -53 -30
-173 -238 -205 -358 -12 -44 -26 -84 -31 -90 -15 -15 -76 23 -89 56 -19 44 3
112 70 219 59 92 70 123 50 135 -15 9 -39 -25 -112 -162 -38 -70 -78 -137 -89
-148 -20 -20 -20 -20 -35 -1 -8 11 -14 33 -14 49 0 62 89 277 146 354 16 21
35 33 57 36 50 8 337 -2 423 -14z m376 -404 c48 -32 62 -58 48 -85 -15 -28
-250 -201 -269 -198 -33 6 -22 167 16 241 34 67 137 88 205 42z m-815 -197
c84 -46 133 -88 133 -115 0 -11 -11 -34 -25 -53 -19 -25 -25 -46 -25 -82 0
-68 26 -93 109 -102 146 -17 321 -95 321 -143 0 -51 -95 -166 -209 -252 -214
-164 -254 -271 -336 -916 -35 -275 -50 -327 -139 -497 -50 -96 -91 -194 -125
-298 -77 -231 -107 -269 -283 -355 -109 -54 -153 -91 -163 -138 -10 -44 -31
-66 -74 -73 -113 -18 -144 -28 -202 -65 -45 -29 -70 -39 -93 -37 -30 3 -31 4
-30 53 5 146 268 1105 499 1816 147 453 451 1214 518 1297 13 16 34 9 124 -40z
m366 -149 c93 -23 132 -41 141 -64 3 -9 6 -41 6 -71 0 -41 -4 -56 -16 -61 -15
-5 -88 12 -251 59 -41 12 -81 30 -93 43 -20 22 -21 25 -6 53 34 67 83 76 219
41z m3513 -225 c47 -25 120 -54 161 -64 78 -19 129 -49 234 -138 32 -26 103
-72 159 -102 119 -63 134 -80 119 -133 -14 -51 -34 -59 -127 -51 -78 7 -78 6
-116 -26 -57 -51 -89 -122 -90 -200 -1 -56 4 -73 32 -122 41 -71 40 -102 -5
-106 -59 -6 -161 67 -189 135 -31 74 -15 139 66 263 78 119 78 168 1 107 -136
-107 -175 -235 -117 -376 30 -74 33 -101 11 -101 -48 0 -126 75 -166 159 -20
41 -21 52 -11 99 6 30 42 115 80 190 72 142 88 187 73 196 -25 16 -172 -194
-189 -270 -6 -27 -13 -87 -17 -133 -3 -46 -10 -92 -16 -103 -29 -55 -98 23
-144 165 -31 96 -28 122 23 194 55 77 113 174 132 224 39 98 3 73 -100 -71
-101 -140 -130 -200 -130 -267 0 -31 10 -95 22 -143 26 -104 22 -120 -29 -120
-31 0 -44 7 -82 48 -52 54 -151 216 -151 247 0 36 215 343 325 463 50 55 92
81 132 82 12 0 61 -20 109 -46z m1182 -270 c55 -27 120 -93 146 -148 47 -99
-2 -240 -216 -621 -46 -82 -179 -314 -295 -515 -116 -201 -253 -439 -305 -530
-52 -91 -200 -347 -328 -570 -128 -223 -317 -551 -420 -730 -103 -179 -267
-464 -365 -635 -98 -170 -213 -371 -255 -445 -42 -74 -198 -346 -347 -605
-490 -854 -852 -1496 -1008 -1785 -229 -424 -394 -707 -437 -751 -77 -76 -218
-144 -368 -176 -113 -24 -339 -24 -425 0 -199 55 -949 379 -1417 613 -117 58
-215 108 -217 110 -2 2 7 34 22 71 39 103 48 144 56 280 5 68 13 129 19 135 7
7 220 -96 663 -320 360 -181 695 -344 744 -362 81 -30 101 -33 200 -34 239 -2
274 29 629 564 506 760 856 1331 1258 2055 132 236 206 372 423 775 134 248
636 1202 895 1700 647 1244 863 1645 954 1767 122 162 267 220 394 157z m460
-293 c179 -70 236 -152 248 -356 7 -115 20 -172 48 -210 36 -48 50 -94 50
-164 1 -81 -19 -153 -50 -182 -30 -28 -53 -20 -46 16 4 25 3 27 -19 20 -13 -4
-62 -28 -109 -55 -47 -26 -116 -60 -155 -76 -67 -28 -77 -29 -230 -29 -116 0
-182 5 -240 18 -93 20 -185 60 -185 80 0 32 356 647 413 713 l22 25 98 -61
c97 -60 117 -68 117 -51 0 11 -72 74 -140 124 -59 43 -68 70 -46 138 26 78 41
92 96 86 25 -2 82 -19 128 -36z m-1078 19 c21 -13 0 -83 -58 -195 -59 -111
-75 -117 -98 -39 -29 99 -7 172 66 222 35 23 65 28 90 12z m-690 -310 c102
-28 252 -102 284 -140 33 -40 34 -75 1 -96 -30 -19 -119 -14 -266 16 -126 26
-176 52 -189 98 -13 48 -13 85 2 117 9 21 18 25 52 25 23 0 75 -9 116 -20z
m-230 -175 c43 -85 126 -112 427 -141 93 -9 174 -18 181 -20 8 -2 -11 -48 -59
-141 -64 -123 -145 -277 -357 -683 -36 -69 -105 -199 -155 -290 -148 -272
-167 -301 -167 -247 0 12 -5 94 -10 182 -6 88 -21 405 -35 705 l-24 545 74 73
c41 41 80 72 87 70 7 -2 24 -26 38 -53z m682 -30 c-4 -23 -40 -57 -55 -52 -19
6 -18 23 4 51 24 31 56 31 51 1z m-959 -222 c14 -213 66 -1317 68 -1428 l1
-70 -167 -320 c-224 -430 -310 -585 -326 -585 -15 0 -37 349 -65 1050 l-16
415 87 240 c121 334 210 557 253 638 36 67 120 157 147 157 8 0 14 -30 18 -97z
m-338 -230 c-11 -45 -201 -575 -463 -1293 -436 -1194 -459 -1256 -473 -1278
-20 -32 -104 -71 -169 -77 -30 -3 -89 0 -130 7 l-75 14 1 249 c0 178 5 289 18
385 24 184 60 341 90 393 14 24 26 52 26 61 0 32 68 148 170 290 119 166 179
263 278 456 41 80 92 168 113 197 23 31 93 94 171 155 155 120 265 227 333
324 64 90 105 144 112 144 3 0 2 -12 -2 -27z m-2665 -792 c211 -35 335 -82
720 -272 479 -236 651 -363 667 -487 5 -42 -32 -125 -57 -130 -9 -1 -31 22
-54 58 -71 111 -231 240 -426 344 -146 77 -310 121 -310 82 0 -18 18 -29 218
-137 307 -166 442 -273 500 -396 26 -56 27 -64 26 -213 -2 -175 -18 -394 -40
-520 -25 -147 -79 -233 -234 -376 -122 -111 -185 -145 -361 -189 -241 -61
-369 -113 -512 -207 -43 -28 -80 -48 -84 -44 -3 3 -1 25 6 48 32 105 7 254
-61 378 -112 203 -371 445 -598 560 -122 61 -196 82 -315 87 -127 6 -189 -6
-318 -62 -44 -19 -82 -34 -83 -32 -14 14 127 135 254 218 127 83 229 111 557
149 233 27 301 47 239 71 -20 7 -95 9 -239 6 -210 -5 -226 -7 -378 -53 -73
-22 -77 -17 -77 86 0 99 15 198 41 268 27 75 34 118 19 127 -29 18 -102 -94
-135 -208 -12 -42 -15 -87 -13 -180 3 -122 3 -124 -25 -160 -30 -39 -71 -69
-187 -138 -41 -24 -97 -65 -123 -90 l-48 -46 -13 26 c-8 14 -28 65 -44 113
-63 178 -122 268 -274 413 -153 148 -257 197 -475 226 -51 7 -93 16 -93 21 0
4 3 8 8 8 4 0 102 20 217 44 298 63 387 72 594 57 194 -14 228 -9 305 46 95
68 80 66 536 74 404 7 474 11 486 31 18 28 -23 33 -334 39 -329 7 -372 12
-372 48 0 36 112 104 225 137 118 34 492 0 660 -61 70 -25 145 -33 145 -16 0
15 -49 45 -110 69 -132 53 -356 92 -521 92 -74 0 -90 17 -58 61 39 55 64 60
254 55 100 -3 221 -13 295 -25z m2430 -332 c6 -79 21 -397 35 -707 l25 -562
-119 -213 c-65 -116 -162 -291 -216 -387 -416 -747 -1129 -1919 -1152 -1897
-7 8 173 597 283 925 80 241 100 279 194 377 115 120 160 232 160 400 0 200
-77 326 -248 410 -45 21 -82 43 -82 47 0 4 71 8 159 8 87 0 173 3 191 7 77 15
120 86 254 422 84 208 112 285 345 916 156 424 150 409 157 403 2 -3 9 -70 14
-149z m-4530 -460 c104 -28 162 -63 248 -143 84 -80 164 -195 223 -320 40 -86
129 -345 129 -377 0 -23 -418 -442 -460 -462 -47 -21 -173 -42 -495 -82 -148
-19 -313 -45 -365 -58 -52 -14 -172 -59 -265 -101 -232 -103 -254 -106 -255
-33 0 39 -15 33 -46 -19 -25 -42 -26 -49 -16 -99 6 -30 49 -139 96 -242 163
-360 192 -489 182 -806 -14 -460 -18 -1064 -7 -1168 16 -162 33 -197 229 -485
118 -175 135 -269 60 -341 -62 -59 -169 -93 -458 -143 -224 -39 -312 -65 -490
-150 -186 -88 -249 -105 -472 -125 -101 -9 -248 -23 -328 -31 -261 -27 -263
-27 -323 -10 -63 18 -117 65 -117 100 0 57 73 102 183 112 81 8 127 22 127 40
0 11 -23 14 -119 14 -121 0 -148 8 -120 35 21 20 141 59 271 89 91 21 130 36
175 65 50 33 194 168 558 522 250 243 256 422 35 1104 -109 335 -129 430 -175
835 -47 413 -80 623 -114 721 -45 131 -32 292 33 424 40 81 95 138 213 222 44
32 144 113 220 181 256 226 429 345 690 476 204 102 519 223 688 264 70 17
185 14 265 -9z m1311 -729 c133 -41 486 -291 599 -425 48 -56 119 -191 151
-283 49 -142 10 -203 -205 -326 -47 -27 -138 -89 -203 -138 -222 -168 -467
-311 -718 -418 -126 -54 -229 -108 -281 -147 -41 -31 -50 -29 -24 5 45 57 63
129 37 150 -18 16 -46 -5 -92 -68 -100 -136 -115 -313 -45 -534 16 -50 36
-118 44 -151 24 -91 39 -408 27 -567 -16 -202 -37 -269 -187 -593 -157 -340
-199 -454 -240 -654 -32 -154 -39 -175 -60 -167 -25 10 -11 -48 52 -205 l55
-137 -55 -81 c-56 -82 -73 -121 -61 -140 16 -28 54 3 108 88 29 45 42 48 63
16 27 -41 33 -229 9 -280 -23 -47 -117 -125 -235 -194 -110 -65 -148 -107
-226 -253 -74 -138 -118 -186 -202 -216 -57 -21 -98 -49 -267 -182 -57 -45
-120 -70 -177 -70 -22 0 -92 18 -157 40 -65 22 -145 42 -177 46 -66 7 -104 26
-104 52 0 10 11 34 25 55 29 42 24 44 -43 18 -113 -45 -174 -36 -242 34 -27
28 -31 38 -25 62 9 38 85 106 136 123 135 45 382 290 502 498 59 101 171 251
273 362 94 104 189 222 209 261 17 32 30 319 40 914 11 672 21 796 89 1164 20
107 39 235 42 285 7 102 22 136 59 136 14 0 25 6 25 13 0 8 -18 64 -40 126
-70 196 -89 397 -46 479 9 18 63 79 119 135 111 111 184 203 270 342 131 213
520 626 708 753 143 96 310 122 470 72z m3921 -335 c9 -68 33 -544 63 -1240
34 -785 54 -1184 65 -1280 13 -106 14 -101 -17 -113 -68 -27 -1559 -502 -1791
-571 -201 -60 -232 -67 -232 -54 0 10 146 288 291 553 l130 239 502 167 c276
91 506 170 511 175 10 9 -5 536 -30 1049 l-15 316 154 270 c254 445 319 547
346 542 11 -2 18 -20 23 -53z m-1743 -217 c109 -55 168 -154 178 -298 10 -138
-31 -255 -120 -344 -102 -102 -233 -124 -652 -106 -747 32 -1094 52 -1116 66
-31 19 21 41 106 47 73 4 133 33 308 146 215 138 287 168 557 237 262 66 408
132 524 235 66 58 72 61 110 56 22 -3 69 -21 105 -39z m-3437 -216 c-18 -68
-53 -96 -111 -89 -67 8 -319 81 -296 85 141 29 402 67 410 60 6 -5 5 -26 -3
-56z m-228 -142 c66 -17 121 -32 123 -34 3 -2 -50 -61 -117 -131 -123 -129
-200 -232 -200 -269 0 -12 -4 -16 -9 -10 -19 19 37 409 65 452 8 12 15 22 17
22 1 0 56 -14 121 -30z m4821 -620 c8 -146 18 -402 22 -570 l6 -305 -299 -97
c-419 -136 -501 -160 -525 -156 -19 3 -16 12 44 128 63 123 265 479 520 920
71 124 148 256 170 295 22 38 42 65 43 60 2 -6 10 -129 19 -275z m-2205 170
c304 -12 361 -17 384 -33 18 -13 -15 -116 -289 -892 -69 -198 -181 -516 -248
-707 -67 -192 -126 -348 -132 -348 -16 0 -1110 549 -1234 620 -63 36 -131 81
-153 100 -36 33 -41 44 -73 170 -18 74 -47 188 -64 253 -38 144 -41 231 -10
294 30 63 143 133 523 324 176 89 342 175 370 192 28 16 62 34 76 38 29 10
464 5 850 -11z m873 -39 c21 -5 41 -12 44 -15 16 -15 -312 -1082 -412 -1341
-58 -151 -91 -214 -187 -356 -99 -148 -166 -222 -216 -242 -48 -19 -223 -40
-263 -32 -29 7 -30 9 -24 42 3 20 56 176 116 347 61 171 159 451 219 621 95
273 326 921 345 967 4 9 16 19 28 22 35 8 308 -2 350 -13z m-3695 -143 c57
-239 55 -452 -9 -792 -22 -116 -64 -262 -78 -270 -19 -12 -59 125 -67 224 -7
90 10 240 71 628 25 157 45 289 45 294 0 4 4 8 8 8 4 0 18 -42 30 -92z"/>
<path d="M8160 11598 c-76 -133 -123 -287 -101 -334 16 -35 34 -26 44 22 22
108 31 136 72 218 46 91 57 146 30 146 -8 0 -28 -24 -45 -52z"/>
<path d="M7853 11170 c-63 -13 -130 -45 -142 -68 -27 -50 -2 -54 84 -16 117
51 264 49 402 -7 160 -64 210 -81 293 -100 102 -22 179 -24 206 -5 18 14 17
15 -16 30 -20 8 -88 21 -153 30 -87 11 -139 24 -205 51 -181 75 -221 87 -327
90 -55 2 -119 0 -142 -5z"/>
<path d="M7272 10822 c-38 -37 -88 -96 -111 -131 -84 -123 -150 -295 -151
-389 0 -66 43 -127 65 -92 4 6 10 50 15 99 15 163 90 323 218 464 39 44 72 89
72 99 0 37 -41 18 -108 -50z"/>
<path d="M8911 10837 c-62 -67 -43 -347 24 -347 11 0 14 20 12 108 -1 59 2
142 7 185 8 65 7 77 -6 77 -8 0 -24 -11 -37 -23z"/>
<path d="M6665 10380 c-12 -4 -26 -15 -33 -23 -11 -13 -10 -18 10 -29 33 -18
209 -18 232 1 25 21 6 34 -72 48 -80 14 -110 15 -137 3z"/>
<path d="M8932 10268 c-26 -24 -81 -75 -123 -114 -90 -85 -169 -126 -339 -177
-219 -66 -316 -81 -510 -82 -166 0 -180 1 -262 29 -85 27 -108 41 -319 184
-110 75 -184 98 -223 69 -18 -13 -18 -14 2 -33 11 -10 83 -54 159 -98 76 -43
180 -105 230 -138 124 -80 154 -88 337 -88 189 1 299 19 556 94 244 72 333
121 493 275 103 98 102 171 -1 79z"/>
<path d="M6913 10149 c-27 -32 -37 -104 -24 -162 22 -99 59 -128 196 -153 106
-20 142 -43 180 -117 31 -59 55 -74 55 -34 0 58 -51 106 -227 213 -65 39 -126
83 -137 98 -13 17 -22 49 -25 97 -5 58 -8 69 -18 58z"/>
<path d="M6710 10064 c-65 -47 -110 -65 -193 -75 -90 -11 -161 -40 -178 -71
-17 -32 3 -40 48 -17 23 11 77 27 120 34 119 21 172 43 220 91 64 64 53 88
-17 38z"/>
<path d="M8731 9881 c-6 -11 -11 -34 -11 -52 0 -18 -10 -47 -22 -65 -18 -25
-144 -119 -251 -186 -23 -14 6 -22 72 -20 77 4 88 -4 86 -57 -1 -41 -18 -56
-137 -121 -129 -71 -113 -105 27 -59 69 23 136 73 161 120 8 16 19 63 24 105
5 41 21 103 36 137 66 156 77 208 42 215 -9 2 -21 -6 -27 -17z"/>
<path d="M6632 9816 c-39 -61 -62 -161 -62 -270 0 -113 8 -131 72 -161 42 -20
69 -25 133 -25 61 0 87 -5 109 -19 35 -23 63 -64 76 -111 21 -77 102 -170 148
-170 24 0 11 29 -27 59 -42 33 -81 102 -81 142 0 67 -73 127 -194 159 -97 26
-146 50 -180 90 -36 43 -34 86 10 221 19 60 33 115 31 122 -2 7 -18 -10 -35
-37z"/>
<path d="M6209 9789 c-38 -41 -79 -130 -79 -169 0 -30 17 -24 23 8 3 15 22 50
41 77 52 71 76 109 76 118 0 18 -26 4 -61 -34z"/>
<path d="M8337 9728 c-13 -18 -30 -44 -37 -58 -54 -106 -122 -144 -255 -143
-110 1 -167 14 -270 60 -44 20 -101 38 -126 41 -47 4 -98 -13 -83 -28 5 -4 74
-36 153 -69 152 -66 238 -91 311 -91 91 -1 107 -18 75 -80 -26 -50 -67 -65
-175 -65 -109 0 -140 10 -223 72 -97 71 -187 82 -195 24 -4 -28 12 -41 51 -41
32 0 97 -31 117 -55 8 -9 31 -25 53 -36 49 -26 224 -37 312 -20 75 14 103 42
139 136 18 48 48 98 97 160 40 50 81 109 91 133 34 76 9 119 -35 60z"/>
<path d="M7313 9543 c-4 -32 -8 -128 -8 -213 0 -148 1 -157 27 -210 15 -30 37
-61 49 -68 26 -16 129 -29 129 -16 0 5 -21 20 -47 34 -85 45 -112 132 -113
361 0 166 -20 227 -37 112z"/>
<path d="M6489 9555 c-16 -16 -108 -35 -174 -35 -44 0 -124 -35 -170 -74 -31
-27 -24 -33 19 -17 13 6 73 17 133 26 132 19 193 38 223 70 34 36 4 65 -31 30z"/>
<path d="M6452 9367 c-11 -12 -28 -39 -37 -59 -22 -55 -37 -218 -25 -290 13
-85 30 -101 122 -118 29 -6 77 -22 106 -36 59 -29 74 -25 52 13 -18 31 -71 60
-123 68 -57 9 -137 89 -137 136 0 51 35 173 67 237 15 31 30 60 31 64 8 18
-36 6 -56 -15z"/>
<path d="M6063 9358 c-48 -60 -64 -203 -26 -215 19 -7 31 29 42 122 9 88 4
119 -16 93z"/>
<path d="M8030 9104 c-6 -14 -10 -46 -10 -72 0 -76 -17 -118 -73 -179 -75 -82
-97 -113 -97 -135 0 -21 7 -21 81 -3 61 16 32 -87 -41 -141 -66 -49 -92 -124
-42 -124 31 0 95 53 136 113 38 55 38 58 52 201 8 80 18 165 24 189 25 108 0
232 -30 151z"/>
<path d="M6102 9069 c-65 -11 -87 -22 -108 -55 -19 -29 -11 -44 14 -26 36 26
71 34 175 42 102 7 141 19 123 37 -11 12 -144 13 -204 2z"/>
<path d="M6265 8974 c-24 -26 -77 -158 -89 -224 l-7 -35 22 25 c46 52 130 260
105 260 -4 0 -18 -12 -31 -26z"/>
<path d="M7326 8931 c-40 -32 -109 -51 -182 -51 -56 0 -90 -16 -74 -35 18 -22
75 -26 149 -11 79 17 124 43 146 86 21 40 4 45 -39 11z"/>
<path d="M6934 8800 c-49 -43 -63 -50 -99 -50 -23 0 -68 9 -100 20 -70 24 -71
24 -54 3 20 -24 109 -63 145 -63 62 0 146 57 188 128 17 29 -27 8 -80 -38z"/>
<path d="M5950 8699 c-66 -27 61 -36 160 -12 22 6 23 7 5 14 -29 11 -136 10
-165 -2z"/>
<path d="M6190 8650 c0 -30 117 -96 136 -77 10 10 -16 37 -55 56 -53 27 -81
34 -81 21z"/>
<path d="M6901 7450 c-58 -215 -53 -267 42 -391 141 -184 145 -194 107 -304
-45 -131 -89 -178 -288 -308 -157 -102 -252 -190 -252 -230 0 -41 29 -47 54
-12 46 64 108 122 171 160 167 100 278 179 307 219 88 119 143 317 103 370
-21 28 -19 130 5 262 25 137 25 151 4 133 -36 -29 -78 -140 -90 -236 -3 -29
-10 -55 -14 -58 -8 -5 -84 82 -106 122 -12 23 -14 57 -8 191 8 185 -2 207 -35
82z"/>
<path d="M5830 7361 c-26 -18 9 -40 86 -57 38 -7 124 -35 192 -60 90 -34 126
-44 134 -36 25 25 -63 86 -184 126 -84 29 -205 43 -228 27z"/>
<path d="M3995 6795 c-170 -31 -370 -96 -497 -162 -81 -42 -106 -67 -92 -91
26 -40 78 -26 237 65 173 98 296 137 488 152 109 9 138 18 125 40 -10 15 -172
13 -261 -4z"/>
<path d="M2506 6674 c-72 -71 -108 -365 -60 -481 13 -33 33 -44 35 -20 1 6 2
80 3 162 2 135 5 157 29 224 38 106 35 158 -7 115z"/>
<path d="M2403 5949 c-27 -40 -60 -62 -168 -112 -62 -28 -95 -84 -95 -162 0
-108 64 -96 84 15 9 53 31 77 99 111 103 52 144 102 132 161 -9 38 -19 35 -52
-13z"/>
<path d="M2560 4784 c-17 -44 -11 -157 11 -230 54 -176 142 -284 205 -255 26
12 33 41 10 41 -44 0 -118 151 -157 318 -36 158 -49 180 -69 126z"/>
<path d="M2810 3432 c0 -39 29 -119 84 -231 61 -125 60 -142 -6 -185 -29 -18
-81 -48 -116 -66 -34 -18 -61 -38 -59 -44 5 -15 78 -19 125 -7 50 14 117 63
142 104 39 63 20 141 -85 347 -57 110 -85 137 -85 82z"/>
<path d="M5613 6049 c-110 -102 -230 -181 -398 -264 -71 -35 -139 -71 -150
-79 l-20 -16 20 -16 c28 -22 118 -13 181 19 71 37 201 144 335 277 110 108
152 160 130 160 -5 0 -49 -37 -98 -81z"/>
<path d="M4328 5595 c-40 -117 -26 -266 29 -327 24 -26 47 -24 38 5 -14 47
-43 195 -52 267 -5 48 -11 68 -15 55z"/>
<path d="M4228 5067 c-57 -43 -134 -140 -154 -193 -16 -43 -13 -94 6 -94 17 0
48 41 84 110 21 38 51 79 72 95 36 28 74 80 74 103 0 22 -38 13 -82 -21z"/>
<path d="M2906 1099 c-29 -35 -33 -49 -11 -49 17 0 55 39 55 56 0 26 -19 23
-44 -7z"/>
<path d="M3046 998 c-28 -25 -39 -68 -19 -75 15 -5 93 65 93 83 0 22 -46 17
-74 -8z"/>
</g>
</svg>
