<?xml version="1.0" standalone="no"?>
<!DOCTYPE svg PUBLIC "-//W3C//DTD SVG 20010904//EN"
 "http://www.w3.org/TR/2001/REC-SVG-20010904/DTD/svg10.dtd">
<svg version="1.0" xmlns="http://www.w3.org/2000/svg"
 width="1095.000000pt" height="1267.000000pt" viewBox="0 0 1095.000000 1267.000000"
 preserveAspectRatio="xMidYMid meet">

<g transform="translate(0.000000,1267.000000) scale(0.100000,-0.100000)"
fill="#000000" stroke="none">
<path d="M3036 12483 c-4 -21 -11 -841 -16 -1823 -9 -1957 -13 -2267 -29
-2321 -9 -30 -19 -39 -54 -53 -56 -21 -84 -20 -96 3 -28 51 -31 255 -32 2116
-1 1056 -4 1963 -8 2015 l-6 95 -8 -75 c-20 -204 -45 -1654 -53 -2980 -5 -970
-10 -1137 -36 -1168 -13 -15 -58 -12 -129 8 l-37 10 -6 2023 c-6 1890 -10
2209 -28 2164 -13 -30 -27 -901 -38 -2217 -12 -1426 -25 -2307 -40 -2550 -19
-312 -24 -329 -96 -330 -37 0 -49 12 -58 62 -9 50 -159 346 -229 450 -118 178
-310 332 -480 388 -272 88 -529 -67 -667 -400 -74 -180 -99 -324 -107 -621
l-6 -227 -131 -31 c-72 -17 -223 -52 -335 -78 -122 -28 -213 -54 -227 -65 -47
-37 -39 -137 13 -178 40 -32 93 -25 376 45 144 35 280 67 303 71 l41 6 25 -53
c14 -30 41 -106 61 -169 101 -322 351 -656 572 -766 153 -75 342 -84 478 -21
180 83 334 345 403 687 20 98 24 328 10 533 l-9 127 25 0 c19 0 27 -7 32 -25
14 -56 26 -617 36 -1730 13 -1507 29 -2565 40 -2683 8 -89 14 -112 25 -100 16
16 24 488 31 1788 3 795 9 1513 13 1595 l6 150 28 3 c15 2 57 -6 92 -18 l65
-22 0 -961 c1 -1011 14 -2303 26 -2470 5 -72 10 -94 17 -82 14 25 26 1146 26
2427 l1 1077 38 10 c20 6 58 16 84 23 26 6 50 9 53 6 3 -3 15 -691 25 -1529
21 -1714 26 -1981 39 -2024 27 -94 30 40 41 1815 10 1547 15 1783 40 1910 6
30 15 260 19 510 5 250 12 463 16 472 8 19 42 30 152 48 124 20 137 1 167
-235 8 -66 20 -187 26 -270 32 -451 41 -511 99 -626 79 -158 135 -240 216
-318 186 -178 288 -233 400 -217 62 10 96 42 160 151 77 131 223 265 288 265
8 0 18 -10 23 -22 4 -13 9 -239 11 -503 l4 -480 -323 -102 c-178 -56 -376
-118 -441 -138 l-119 -36 4 -112 c4 -138 13 -158 122 -272 l81 -86 55 20 c30
11 282 94 560 184 278 91 658 215 844 276 187 61 343 108 346 104 4 -5 15 -67
23 -138 28 -227 77 -341 158 -366 47 -15 50 -18 151 -189 101 -170 108 -184
119 -270 6 -46 9 -159 7 -258 -4 -175 -4 -178 -42 -282 -129 -355 -163 -483
-186 -686 -12 -110 -6 -161 60 -544 71 -411 80 -497 90 -860 11 -410 31 -574
84 -678 26 -51 45 -112 76 -241 25 -104 65 -169 138 -222 68 -48 127 -66 240
-75 153 -11 321 19 404 74 28 18 50 24 89 24 70 -1 139 30 189 84 22 24 40 48
40 54 0 19 -22 54 -60 96 -21 23 -47 61 -58 86 -11 25 -53 81 -93 125 -41 44
-94 116 -118 159 -72 126 -144 233 -221 323 -81 96 -103 134 -119 211 -10 49
-41 457 -41 535 0 28 6 32 98 72 91 40 472 191 922 366 107 42 310 120 450
175 140 55 277 108 304 118 l49 18 -7 114 c-10 171 -13 175 -183 281 l-82 51
-243 -96 c-650 -256 -679 -267 -691 -255 -15 15 -21 801 -10 1106 l8 199 375
133 c802 283 806 285 862 402 17 36 32 68 34 69 1 2 36 -25 77 -60 41 -34 116
-85 166 -112 l92 -50 -7 -408 -7 -407 86 -173 c90 -180 155 -358 178 -488 8
-42 14 -141 13 -225 0 -179 -14 -254 -86 -464 -51 -148 -67 -242 -54 -314 7
-39 73 -120 117 -142 35 -19 158 -19 369 -1 l155 14 155 -79 c288 -145 447
-193 650 -194 156 0 209 16 279 84 52 51 64 84 46 128 -26 58 -93 103 -246
164 -213 84 -262 117 -496 333 -65 60 -150 133 -189 162 -123 91 -141 121
-164 265 -6 35 -14 438 -20 899 -10 858 -21 1220 -41 1325 -18 97 -68 211
-115 264 -27 30 -72 63 -116 86 -120 62 -229 131 -308 195 -175 140 -250 192
-381 261 -77 40 -147 81 -156 91 -25 27 -36 423 -30 1103 4 492 6 575 20 608
9 20 23 37 31 37 8 0 56 -16 107 -35 143 -55 205 -62 311 -36 49 11 110 32
136 45 125 63 285 283 351 483 44 133 53 213 58 555 l5 326 312 78 c338 84
410 105 438 131 23 21 25 109 2 141 -28 41 -113 29 -509 -69 -142 -35 -256
-59 -279 -57 -38 3 -39 4 -52 56 -36 140 -247 487 -358 588 -78 72 -206 147
-300 176 -59 18 -84 20 -171 15 l-103 -7 -6 1228 c-6 1183 -9 1342 -25 1342
-18 0 -23 -259 -31 -1540 -7 -1230 -11 -1420 -32 -1434 -5 -3 -149 -28 -173
-30 -20 -1 -20 7 -26 1474 -4 811 -10 1489 -15 1505 l-8 30 -9 -40 c-5 -22
-11 -687 -14 -1507 l-5 -1467 -31 6 c-18 3 -56 13 -86 22 -46 14 -56 21 -63
46 -5 17 -13 638 -18 1380 -8 1277 -14 1555 -30 1555 -17 0 -22 -233 -30
-1505 -5 -817 -12 -1378 -19 -1420 -5 -38 -20 -92 -32 -119 -19 -43 -23 -77
-30 -255 -4 -113 -8 -272 -8 -353 -1 -82 -3 -148 -6 -148 -2 0 -81 -18 -175
-40 -94 -22 -174 -40 -178 -40 -4 0 -23 23 -42 51 -19 28 -48 62 -64 76 -28
23 -36 25 -101 20 -109 -9 -385 -54 -440 -73 -110 -37 -148 -85 -155 -198 l-5
-81 -165 -41 c-193 -49 -597 -147 -1005 -245 -159 -38 -298 -72 -307 -75 -13
-4 -27 16 -63 86 -36 68 -62 104 -110 148 -121 111 -288 172 -469 172 -161 0
-274 -38 -372 -124 -95 -84 -150 -189 -182 -349 -19 -96 -32 -131 -32 -89 0
62 -109 117 -256 129 l-71 6 -71 -65 c-59 -54 -87 -72 -165 -102 -126 -49
-138 -63 -147 -173 -9 -110 -21 -122 -158 -149 l-32 -6 0 53 c-1 231 -36 614
-61 660 -32 61 -33 149 -34 2174 0 1122 -4 2034 -9 2053 -11 42 -22 41 -30 -5z
m5880 -2633 c100 -26 170 -67 260 -155 192 -188 345 -537 400 -915 25 -174 16
-444 -20 -605 -68 -300 -204 -518 -372 -597 -59 -28 -82 -33 -165 -36 -115 -5
-170 9 -264 64 l-65 39 0 502 c0 563 -9 505 78 518 60 10 102 47 102 92 0 39
-30 95 -63 118 -12 8 -39 15 -59 15 -32 0 -40 4 -48 26 -6 14 -19 166 -30 337
-11 172 -24 357 -29 412 -11 134 -6 172 28 190 38 21 154 18 247 -5z m-729
-390 l60 -21 6 -162 c4 -89 10 -539 13 -999 l7 -838 -28 0 c-74 0 -175 63
-211 131 -25 49 -33 254 -33 804 -1 569 12 1015 29 1061 6 16 17 32 23 36 21
13 71 9 134 -12z m413 -974 l0 -983 -105 -42 c-58 -22 -109 -41 -114 -41 -19
0 -23 46 -31 340 -8 272 -14 1679 -7 1681 22 7 174 27 210 28 l47 1 0 -984z
m1764 713 c40 -31 34 -57 -19 -80 -56 -25 -447 -123 -580 -146 -105 -17 -149
-14 -159 13 -11 30 4 52 47 68 98 36 421 124 557 151 94 19 124 18 154 -6z
m-1561 -377 c29 -25 18 -72 -22 -99 -40 -27 -54 -28 -75 -7 -16 16 -22 80 -8
100 23 35 69 37 105 6z m-1380 -112 c53 -42 103 -160 92 -217 -13 -69 -107
-138 -204 -150 -66 -8 -81 11 -50 64 26 46 21 82 -17 120 -27 27 -22 28 -148
-6 -108 -29 -223 -29 -260 0 -14 11 -26 29 -26 40 0 46 104 108 181 109 45 0
50 -2 136 -66 26 -19 43 -11 43 20 0 33 40 65 106 86 77 25 116 25 147 0z
m515 -97 c-3 -52 -6 -59 -36 -79 -35 -24 -228 -74 -296 -77 l-41 -2 2 39 c3
44 29 78 75 97 33 13 265 77 286 78 10 1 12 -14 10 -56z m-713 -133 c10 -31
-22 -74 -82 -109 -64 -39 -65 -56 -1 -52 50 3 156 -29 200 -60 25 -19 28 -26
28 -82 1 -58 2 -61 16 -42 12 15 15 35 10 80 -3 38 0 70 7 85 12 23 125 89
154 90 40 1 13 -171 -44 -282 -40 -78 -66 -209 -46 -229 8 -8 14 4 23 41 7 28
14 50 16 48 1 -2 8 -52 14 -112 6 -60 29 -178 52 -265 49 -186 57 -297 39
-541 -16 -204 -29 -251 -82 -290 -68 -49 -100 -55 -279 -55 -180 0 -277 18
-380 70 -75 38 -142 137 -113 166 4 4 39 -7 78 -26 171 -83 396 -70 468 27 32
43 12 45 -33 4 -45 -41 -66 -43 -208 -26 -99 13 -197 42 -242 72 -56 39 -72
68 -80 156 -5 50 -20 109 -39 157 -17 42 -31 78 -31 79 0 11 205 28 271 23
143 -9 265 -89 339 -221 38 -66 56 -82 46 -40 -23 98 -92 183 -208 260 -37 24
-68 51 -68 58 0 7 9 35 21 61 27 61 48 180 49 271 0 39 3 86 7 104 l6 33 18
-24 19 -24 0 53 c0 65 -18 85 -118 125 -39 16 -89 44 -111 64 -41 35 -53 63
-27 63 21 0 27 42 16 119 -15 106 -12 109 121 153 132 43 165 47 174 18z m700
-43 c10 -26 15 -113 20 -353 6 -396 11 -460 41 -545 34 -97 44 -309 44 -971
l0 -547 -64 19 c-178 51 -407 151 -465 203 -22 19 -58 39 -86 46 -149 38 -186
53 -244 97 -64 48 -227 218 -249 260 -20 37 4 40 132 18 133 -23 496 -28 532
-7 24 14 41 98 75 378 30 250 24 362 -29 528 -56 174 -75 274 -76 387 -1 85 3
106 37 201 25 73 37 123 37 161 0 76 20 99 112 127 40 12 78 24 83 26 6 2 27
4 48 4 34 1 40 -3 52 -32z m-3079 -47 c164 -42 305 -153 335 -262 13 -50 5
-74 -31 -93 -41 -21 -346 -95 -393 -95 l-40 0 5 44 c6 53 45 140 99 218 22 33
38 62 35 65 -8 8 -74 -44 -94 -74 -9 -15 -44 -81 -77 -147 -47 -95 -67 -125
-92 -139 -46 -26 -319 -97 -374 -97 -57 0 -59 5 -59 108 0 151 51 282 147 383
88 93 184 122 368 112 54 -3 132 -13 171 -23z m2028 -16 c24 -23 20 -71 -6
-88 -44 -28 -259 -85 -868 -231 -335 -81 -637 -145 -683 -145 -55 0 -186 -33
-381 -96 -181 -59 -638 -184 -670 -184 -17 0 -26 22 -26 64 0 56 21 72 122 96
51 12 490 120 975 241 486 120 1010 248 1165 283 156 35 292 66 303 69 38 9
54 7 69 -9z m-5287 -155 c75 -23 155 -82 248 -180 236 -249 375 -541 442 -924
24 -142 24 -493 0 -625 -77 -414 -275 -660 -531 -660 -108 0 -217 47 -355 151
-128 96 -219 218 -341 459 -98 194 -150 343 -134 385 10 26 54 42 245 90 285
71 314 87 314 171 0 106 -75 114 -393 39 -111 -26 -205 -45 -208 -42 -25 24
-31 241 -14 418 28 277 121 495 271 633 69 65 123 95 188 106 64 12 194 1 268
-21z m1080 -5 l93 -27 0 -326 c-1 -615 -29 -1630 -46 -1650 -2 -2 -46 9 -98
24 l-95 29 -6 80 c-3 45 -7 481 -8 969 l-2 889 24 19 c29 24 27 24 138 -7z
m387 7 c35 -39 40 -150 40 -916 0 -717 -8 -977 -33 -1022 -14 -26 -94 -68
-167 -87 -34 -9 -65 -16 -68 -16 -3 0 -6 451 -6 1003 l0 1002 83 27 c100 32
129 34 151 9z m3796 -60 c26 -52 68 -90 127 -116 64 -29 78 -54 94 -171 15
-112 7 -194 -27 -278 -32 -80 -66 -111 -140 -126 -96 -20 -111 -13 -218 108
-52 59 -126 129 -163 155 -151 107 -327 217 -362 227 -20 5 -78 10 -128 10
-146 0 -126 13 122 81 317 87 651 165 663 156 8 -6 22 -27 32 -46z m-2929
-182 c28 -6 60 -20 70 -30 25 -25 26 -97 2 -106 -29 -11 -126 16 -171 47 -23
16 -47 30 -52 30 -18 0 -10 -22 15 -46 14 -13 25 -34 25 -49 0 -47 30 -99 87
-152 l57 -52 -84 -40 c-119 -58 -112 -60 -271 51 -30 21 -68 40 -86 44 -30 6
-32 5 -35 -27 -2 -28 -7 -35 -30 -37 -25 -3 -27 0 -33 41 -8 53 1 105 22 129
9 9 44 27 78 38 73 24 146 70 170 106 36 55 129 76 236 53z m1869 -30 c0 -16
-103 -59 -159 -66 -81 -9 -62 13 37 42 48 14 92 28 97 30 18 6 25 5 25 -6z
m386 -34 c39 -16 179 -146 225 -209 32 -43 37 -81 13 -90 -9 -3 -50 -6 -92 -6
l-77 0 83 -29 c97 -34 156 -74 149 -102 -4 -15 3 -21 35 -30 92 -24 141 -125
178 -370 27 -179 52 -245 142 -381 72 -110 108 -170 108 -183 0 -7 -55 -6 -75
1 -9 4 -25 25 -35 48 -17 37 -19 39 -19 14 -2 -71 -33 -96 -171 -137 -96 -29
-263 -97 -377 -154 -146 -74 -177 -80 -306 -61 -122 18 -236 9 -266 -20 -14
-15 -2 -16 121 -16 195 0 203 -14 90 -147 -37 -43 -97 -109 -133 -148 l-67
-70 -29 65 c-81 178 -432 418 -753 514 -63 19 -118 40 -122 47 -4 8 -26 138
-48 289 -45 311 -58 372 -73 367 -30 -10 -27 -116 8 -287 35 -168 37 -237 11
-384 -29 -165 -42 -189 -192 -361 -98 -112 -129 -154 -198 -263 -17 -27 -41
-49 -63 -59 -32 -13 -40 -13 -80 2 -94 36 -288 208 -394 348 -109 145 -157
278 -179 502 -6 61 -20 193 -32 295 -11 102 -23 207 -26 234 -5 49 -5 49 22
42 16 -4 26 -2 26 4 0 15 -34 81 -75 145 -19 30 -31 56 -27 59 19 12 248 66
259 62 7 -3 18 -18 25 -33 l11 -28 7 30 c3 17 12 40 19 52 20 38 110 91 208
124 51 17 93 34 93 39 0 5 -18 11 -39 15 -55 9 -155 59 -175 86 -20 29 -21 63
-1 79 15 13 99 -3 268 -50 l38 -11 -6 -52 c-26 -231 -46 -266 -238 -412 -100
-76 -108 -90 -88 -157 13 -42 26 -49 36 -18 15 47 33 13 60 -118 25 -121 52
-163 209 -317 l143 -140 -13 -85 c-16 -108 -17 -177 -3 -186 18 -11 29 10 36
67 7 63 22 85 81 111 52 23 117 80 138 120 37 71 73 312 51 335 -14 13 -36
-26 -42 -76 -17 -141 -51 -223 -127 -306 -67 -74 -87 -72 -109 10 -22 80 -49
131 -101 191 -62 69 -78 95 -78 125 0 42 36 76 126 119 46 22 84 46 84 52 0
18 -82 2 -164 -33 -72 -30 -77 -31 -100 -15 -35 22 -42 72 -21 138 39 117 78
175 154 225 49 33 319 148 327 140 2 -2 7 -28 12 -58 l8 -54 17 49 c26 75 72
139 157 218 164 154 343 225 595 235 150 7 241 -8 334 -52 66 -32 91 -34 56
-5 -8 7 -15 22 -15 35 0 26 67 61 156 80 85 19 266 19 310 0z m-1473 -246
c-36 -62 -158 -139 -221 -139 -37 0 -118 28 -133 46 -9 11 -4 17 27 30 47 20
301 92 327 93 17 1 17 0 0 -30z m1871 -39 c78 -83 116 -140 116 -175 0 -58
-61 -34 -146 57 -58 62 -89 126 -80 162 10 42 39 31 110 -44z m-2944 -82 c25
-42 25 -44 -4 -63 -29 -20 -410 -117 -440 -113 -18 3 -21 9 -21 52 0 41 4 52
25 68 36 26 281 86 358 87 60 1 63 0 82 -31z m684 -30 c99 -59 102 -49 -32
-118 -98 -49 -131 -72 -176 -120 -60 -65 -96 -144 -96 -210 0 -62 -16 -47 -34
31 -26 114 -24 123 37 167 107 80 197 196 197 255 0 46 19 45 104 -5z m3874
-139 c81 -15 92 -26 92 -97 0 -31 5 -194 11 -362 5 -168 13 -450 17 -628 l7
-322 -51 0 c-68 0 -111 16 -118 44 -18 74 -37 466 -52 1100 -7 280 -6 288 12
283 10 -3 47 -11 82 -18z m365 -16 c9 -21 13 -217 15 -782 l3 -754 -31 7 c-69
13 -120 44 -136 81 -25 60 -34 258 -34 750 1 473 7 627 31 678 13 29 49 45
107 46 26 1 35 -4 45 -26z m-6144 -29 c53 -68 -10 -153 -69 -94 -26 26 -35 66
-21 96 15 34 63 33 90 -2z m-995 -227 c12 -47 2 -66 -47 -90 -42 -19 -695
-182 -917 -228 -80 -17 -174 -33 -210 -36 -50 -4 -69 -11 -83 -27 -17 -21 -17
-21 -32 -2 -17 22 -20 92 -5 101 6 3 10 1 10 -4 0 -15 21 -14 39 3 36 32 604
190 1006 281 238 53 227 53 239 2z m2637 -185 c6 -16 6 -29 0 -35 -14 -14 -41
10 -41 38 0 43 24 42 41 -3z m3549 -170 c0 -5 -18 -23 -40 -41 -48 -38 -51
-34 -9 14 30 34 49 44 49 27z m-567 -335 c31 -12 57 -25 57 -29 0 -3 -22 -12
-50 -19 -27 -7 -50 -16 -50 -20 0 -3 26 -9 58 -11 70 -7 255 -67 342 -113 231
-120 432 -205 620 -262 36 -11 107 -33 158 -49 50 -15 92 -30 92 -33 0 -4 -52
-24 -116 -45 -276 -94 -345 -189 -424 -591 -34 -176 -52 -309 -44 -330 4 -9
19 -15 42 -15 26 0 33 -3 25 -11 -19 -19 -76 8 -223 105 -190 127 -218 134
-353 79 -103 -41 -106 -47 -81 -162 l7 -35 -73 64 c-131 112 -256 153 -475
154 -211 1 -293 -32 -400 -161 -78 -94 -128 -198 -133 -276 -5 -72 -12 -84
-36 -59 -26 29 -34 112 -40 431 -7 333 -16 408 -53 446 -14 14 -34 25 -44 25
-30 0 -52 95 -47 201 3 74 9 97 37 152 68 134 248 276 516 407 182 89 305 134
453 165 127 27 148 26 235 -8z m-1987 -260 c138 -111 345 -280 460 -374 l209
-172 48 -153 c51 -166 64 -218 52 -218 -10 0 -66 45 -275 224 -432 370 -730
641 -775 706 -26 37 -27 44 -20 107 8 78 10 83 33 83 9 0 130 -91 268 -203z
m49 112 c307 -166 465 -299 549 -459 40 -75 41 -80 24 -80 -19 0 -292 217
-655 523 -135 113 -106 118 82 16z m-150 -380 l154 -130 3 -299 c2 -200 7
-303 14 -310 8 -8 62 6 195 50 101 33 210 66 242 72 54 11 61 11 103 -11 49
-26 168 -140 189 -182 12 -23 12 -29 1 -38 -35 -29 -735 -269 -1606 -549
l-185 -60 -67 68 c-73 75 -88 109 -88 201 l0 56 58 21 c31 11 226 75 433 143
l377 122 7 489 c4 268 9 488 12 488 2 0 73 -59 158 -131z m3580 -122 c289
-108 409 -173 565 -307 93 -80 228 -175 344 -241 92 -53 141 -108 191 -212 55
-113 75 -190 75 -282 0 -60 -5 -80 -35 -139 -40 -79 -45 -133 -16 -158 20 -17
31 -70 53 -248 8 -63 12 -326 13 -775 2 -704 5 -756 45 -849 25 -59 65 -102
194 -211 61 -51 156 -134 211 -185 181 -166 253 -212 430 -270 188 -62 255
-108 255 -176 0 -19 -3 -34 -6 -34 -4 0 -26 18 -50 39 -28 26 -61 45 -96 55
-74 20 -138 28 -138 17 0 -10 32 -22 130 -46 99 -25 129 -66 74 -101 -22 -15
-48 -16 -222 -11 -225 8 -317 23 -393 65 -30 17 -65 33 -79 37 -14 4 -83 35
-155 68 -71 33 -154 68 -184 77 -49 16 -58 16 -90 2 -45 -18 -286 -21 -348 -3
-58 16 -100 55 -113 101 -13 50 3 126 59 273 63 164 83 282 83 472 0 88 -6
203 -14 255 -16 108 -15 120 14 120 38 0 22 35 -135 293 -82 135 -105 195
-117 310 -19 181 -6 537 23 625 13 39 33 53 107 74 51 15 67 44 28 52 -13 2
-50 9 -83 15 -87 15 -204 77 -333 175 -182 138 -199 145 -482 182 -245 31
-340 54 -462 112 -73 34 -98 50 -98 64 0 65 35 314 55 395 60 237 160 350 359
404 110 30 193 22 341 -34z m-3230 -180 c144 -127 247 -229 238 -238 -4 -4
-60 -24 -123 -44 -63 -20 -141 -45 -172 -55 l-58 -19 0 225 c0 173 3 223 12
218 7 -4 53 -43 103 -87z m579 -159 c17 -23 22 -78 8 -78 -10 0 -42 65 -42 85
0 22 17 18 34 -7z m1497 -407 c24 -16 75 -54 113 -84 130 -105 216 -136 293
-106 43 17 100 12 192 -16 107 -32 209 -50 385 -70 160 -19 202 -32 212 -69
17 -68 -23 -132 -106 -168 -239 -105 -1064 -397 -1169 -414 -35 -6 -41 -3 -56
20 -10 14 -20 47 -23 71 -10 92 15 104 683 327 380 127 399 134 390 148 -10
16 -166 -30 -782 -231 -133 -43 -251 -79 -262 -79 -16 0 -22 13 -36 73 -50
220 -69 531 -35 573 50 60 131 70 201 25z m-558 -10 c85 -33 178 -124 223
-217 72 -149 117 -413 118 -679 0 -202 -18 -252 -70 -194 -17 19 -19 19 -25 2
-4 -10 -8 -61 -8 -113 -1 -116 -22 -210 -61 -270 -42 -65 -69 -134 -91 -230
-32 -138 -57 -206 -135 -373 -86 -181 -134 -319 -163 -464 -21 -102 -27 -193
-13 -193 4 0 15 37 26 82 41 186 164 512 219 583 15 19 17 19 34 2 15 -15 18
-39 21 -157 6 -215 -7 -286 -85 -443 -88 -178 -89 -189 -76 -653 l11 -371 84
-114 c46 -63 135 -188 198 -279 124 -182 185 -262 271 -360 116 -133 144 -206
99 -263 -30 -37 -77 -44 -135 -18 -26 12 -54 21 -61 21 -7 0 -27 -18 -45 -39
-35 -45 -61 -57 -138 -66 -30 -3 -70 -13 -89 -21 -69 -28 -173 -8 -315 61
-125 61 -159 112 -177 265 -8 65 -19 105 -50 169 -47 97 -55 146 -70 396 -5
94 -14 184 -20 200 -5 17 -11 153 -13 315 -3 281 -4 288 -41 485 -76 404 -94
579 -77 740 14 123 67 343 94 387 l19 32 19 -22 c10 -13 32 -60 49 -105 40
-104 78 -177 90 -177 13 0 3 49 -34 160 l-31 95 5 180 c8 320 5 647 -8 691 -6
22 -37 81 -67 130 -130 208 -213 419 -201 511 10 78 106 230 182 288 52 40
148 55 329 51 128 -2 159 -6 208 -25z m487 -1043 c9 -24 14 -214 20 -663 4
-346 11 -638 15 -647 4 -10 13 -18 21 -18 8 0 210 77 449 170 239 94 455 175
479 182 55 15 100 -3 172 -66 47 -41 48 -44 52 -107 2 -35 0 -82 -5 -103 l-9
-39 -184 -72 c-102 -39 -309 -120 -460 -179 -842 -330 -1070 -408 -1070 -367
0 25 47 154 92 253 86 192 84 174 98 678 9 341 6 322 98 545 27 66 59 158 72
205 30 116 65 199 97 232 35 36 48 35 63 -4z"/>
<path d="M8744 9802 c2 -4 45 -32 94 -61 304 -180 453 -477 503 -1004 15 -161
6 -543 -14 -642 -19 -88 -60 -198 -93 -249 -15 -21 -52 -67 -84 -101 -94 -101
-114 -143 -53 -112 80 43 201 217 255 367 23 64 23 71 23 470 -1 458 -6 510
-75 722 -78 239 -180 409 -297 497 -89 67 -193 121 -233 121 -17 0 -29 -4 -26
-8z"/>
<path d="M7360 8582 c0 -34 22 -137 31 -146 13 -14 12 120 -1 145 -13 24 -30
25 -30 1z"/>
<path d="M7325 7979 c-7 -11 20 -96 36 -113 10 -11 12 83 3 108 -7 18 -30 21
-39 5z"/>
<path d="M7313 7558 c8 -30 33 -202 42 -285 4 -40 11 -61 17 -57 30 19 -19
338 -54 360 -7 5 -9 -1 -5 -18z"/>
<path d="M1370 8175 c0 -2 44 -27 98 -54 210 -108 345 -265 447 -518 72 -178
114 -367 135 -608 12 -151 13 -526 0 -624 -15 -112 -73 -225 -180 -351 -26
-30 -52 -65 -59 -77 -22 -43 26 -27 77 25 98 98 162 226 205 406 19 80 22 120
22 326 0 252 -17 400 -70 625 -86 366 -257 661 -453 786 -66 42 -222 87 -222
64z"/>
<path d="M5810 7679 c0 -14 12 -25 38 -36 46 -20 221 -30 248 -15 17 10 15 12
-21 27 -31 13 -55 15 -112 10 -64 -6 -78 -4 -109 14 -43 26 -44 26 -44 0z"/>
<path d="M5716 7642 c-17 -33 -49 -48 -120 -56 -62 -8 -196 -72 -259 -125 -26
-21 -67 -64 -92 -94 -81 -100 -155 -145 -275 -168 -126 -23 -129 -27 -20 -28
131 -1 158 10 270 110 234 210 275 238 389 260 50 10 71 20 102 49 38 36 49
63 29 75 -5 3 -16 -7 -24 -23z"/>
<path d="M5857 7537 c-3 -8 -3 -25 0 -36 11 -42 -16 -76 -108 -136 -95 -61
-208 -160 -196 -171 7 -7 19 1 95 63 36 28 68 45 104 53 29 6 63 18 76 26 50
33 80 156 49 198 -12 16 -15 17 -20 3z"/>
<path d="M6040 7475 c32 -38 161 -59 238 -39 63 17 -8 40 -151 47 -81 5 -96 3
-87 -8z"/>
<path d="M6380 7383 c1 -17 89 -122 113 -134 17 -10 17 -9 6 13 -29 56 -120
149 -119 121z"/>
<path d="M6098 7248 c23 -90 21 -171 -3 -198 -27 -30 -61 -46 -113 -54 -92
-14 -158 -66 -173 -138 -6 -23 -23 -62 -39 -85 -44 -61 -38 -83 12 -44 30 24
74 104 82 152 9 53 32 68 129 83 81 14 147 43 147 66 0 5 15 21 34 35 l34 26
143 -16 c78 -8 144 -13 147 -10 11 11 -33 46 -70 56 -21 5 -65 7 -97 3 -36 -4
-72 -2 -95 6 -44 14 -86 63 -86 99 0 31 -34 81 -55 81 -11 0 -10 -12 3 -62z"/>
<path d="M3634 7145 c-11 -29 24 -115 47 -115 19 0 9 86 -11 108 -25 26 -29
27 -36 7z"/>
<path d="M3750 7121 c0 -44 20 -104 40 -116 20 -12 20 0 2 75 -21 84 -42 105
-42 41z"/>
<path d="M5255 7106 c-83 -26 -115 -43 -115 -58 0 -19 86 0 165 36 41 19 75
37 75 40 0 12 -57 4 -125 -18z"/>
<path d="M5535 7091 c-4 -7 -9 -67 -11 -134 -8 -199 -9 -206 -61 -255 -26 -23
-43 -45 -40 -48 9 -9 107 47 127 74 26 33 33 110 21 235 -11 111 -22 150 -36
128z"/>
<path d="M6220 7010 c0 -6 14 -39 31 -73 57 -111 48 -238 -16 -252 -14 -3 -36
-7 -49 -10 -34 -7 -86 -53 -86 -75 0 -26 17 -34 23 -11 4 17 33 31 99 45 47
11 85 52 97 104 16 76 -17 208 -67 265 -17 19 -32 22 -32 7z"/>
<path d="M6560 6988 c0 -14 7 -49 17 -79 l16 -54 9 35 c6 24 5 48 -4 75 -15
45 -38 59 -38 23z"/>
<path d="M4990 6983 c-25 -1 -65 -6 -89 -9 -62 -8 -38 -26 45 -35 38 -4 72
-13 81 -22 35 -34 -15 -105 -106 -152 -25 -13 -55 -30 -66 -39 -19 -14 -17
-15 30 -16 84 0 125 -49 125 -145 0 -61 23 -105 55 -105 31 0 33 25 5 48 -16
13 -24 37 -31 92 -6 41 -17 86 -25 102 -37 71 -4 103 107 103 l78 0 -37 19
c-48 24 -82 55 -93 85 -15 38 5 51 79 51 39 0 62 4 57 9 -11 10 -147 19 -215
14z"/>
<path d="M5265 6909 c-10 -15 -2 -20 42 -26 42 -6 123 12 123 27 0 14 -157 13
-165 -1z"/>
<path d="M6406 6780 c14 -14 204 -26 204 -13 0 16 -37 23 -129 23 -58 0 -82
-3 -75 -10z"/>
<path d="M3746 6705 c8 -75 49 -207 79 -255 32 -51 151 -157 207 -186 80 -40
129 -25 76 23 -13 11 -64 48 -115 82 -50 34 -104 79 -120 99 -15 20 -52 95
-81 167 l-53 130 7 -60z"/>
<path d="M6376 6702 c22 -39 71 -88 80 -79 4 3 -17 30 -46 59 -44 45 -49 48
-34 20z"/>
<path d="M6647 6704 c-3 -4 11 -31 33 -61 21 -30 42 -68 45 -84 10 -43 27 -36
19 9 -9 51 -28 93 -53 120 -22 23 -33 27 -44 16z"/>
<path d="M5520 6631 c0 -25 53 -69 94 -80 56 -14 113 -14 121 -1 4 6 -5 10
-19 10 -34 0 -104 28 -143 57 -33 24 -53 29 -53 14z"/>
<path d="M5290 6549 c0 -14 63 -39 98 -39 15 0 37 6 48 14 18 14 18 15 -9 25
-37 14 -137 14 -137 0z"/>
<path d="M5820 6553 c1 -12 42 -56 70 -76 36 -25 99 -21 156 9 88 46 90 66 4
29 -77 -34 -106 -32 -159 10 -41 33 -71 45 -71 28z"/>
<path d="M6603 6493 c15 -2 37 -2 50 0 12 2 0 4 -28 4 -27 0 -38 -2 -22 -4z"/>
<path d="M6418 6430 c-26 -17 -49 -38 -52 -46 -9 -24 41 -9 83 25 69 54 44 71
-31 21z"/>
<path d="M6131 6440 c0 -24 42 -103 61 -114 43 -26 25 30 -31 94 -18 21 -30
29 -30 20z"/>
<path d="M4080 5960 c-25 -16 1 -29 68 -36 71 -8 85 8 27 32 -39 16 -73 18
-95 4z"/>
<path d="M6740 6303 c-8 -4 -42 -25 -75 -48 -34 -23 -97 -54 -141 -70 -224
-80 -316 -137 -450 -278 -97 -102 -151 -184 -169 -255 -12 -48 -9 -86 6 -76 5
2 30 46 55 96 117 226 295 385 484 433 92 23 223 90 275 141 54 52 60 74 15
57z"/>
<path d="M7155 6156 c-155 -51 -430 -155 -530 -198 -170 -75 -235 -126 -235
-188 0 -11 3 -20 6 -20 12 0 51 25 99 63 65 52 277 154 430 208 146 50 318
125 348 150 21 18 21 18 2 18 -11 0 -65 -15 -120 -33z"/>
<path d="M7322 6059 c-24 -11 -103 -34 -175 -50 -159 -35 -241 -66 -304 -112
-27 -19 -79 -51 -116 -71 -96 -51 -118 -67 -111 -78 18 -28 140 20 249 97 76
54 157 86 314 124 134 33 216 67 216 91 0 22 -24 21 -73 -1z"/>
<path d="M7473 5912 c-47 -71 -71 -123 -92 -204 -28 -107 -33 -162 -16 -184
13 -18 14 -17 25 11 6 17 18 64 26 105 18 92 39 160 71 223 38 76 44 97 30 97
-6 0 -26 -21 -44 -48z"/>
<path d="M6632 5528 c-17 -17 -15 -46 6 -56 9 -5 42 -12 72 -16 102 -13 155
-59 249 -218 48 -82 71 -105 92 -92 15 9 2 41 -54 134 -62 102 -154 197 -227
233 -57 29 -118 35 -138 15z"/>
<path d="M9170 5265 c0 -8 13 -51 29 -95 36 -98 48 -156 60 -283 9 -107 23
-139 41 -93 23 63 0 283 -41 375 -34 79 -89 137 -89 96z"/>
<path d="M8664 4955 c-9 -23 11 -41 87 -81 38 -20 100 -62 138 -95 89 -74 133
-96 220 -109 96 -15 136 -11 136 15 0 18 -6 20 -71 17 -89 -5 -121 10 -269
120 -110 82 -211 148 -227 148 -5 0 -11 -7 -14 -15z"/>
<path d="M9393 2324 c-35 -81 -49 -142 -37 -162 18 -28 61 -43 112 -40 l47 3
-48 22 c-59 28 -70 53 -56 128 16 89 8 110 -18 49z"/>
<path d="M6706 4259 c-111 -117 -137 -171 -73 -155 58 14 184 157 194 221 9
58 -17 44 -121 -66z"/>
<path d="M6923 4324 c-3 -9 5 -26 19 -42 41 -45 64 -84 83 -141 22 -66 68
-122 86 -104 17 17 -3 80 -53 166 -67 116 -119 162 -135 121z"/>
<path d="M6665 3580 c-28 -46 169 -109 205 -66 9 12 4 17 -32 26 -24 6 -68 20
-99 30 -65 23 -66 23 -74 10z"/>
<path d="M6603 1447 c-27 -29 -92 -128 -132 -198 -30 -55 -41 -96 -21 -84 30
19 190 289 178 301 -3 2 -14 -6 -25 -19z"/>
<path d="M7050 457 c0 -23 59 -107 75 -107 27 0 17 47 -19 84 -34 37 -56 46
-56 23z"/>
<path d="M6715 431 c-26 -4 -40 -11 -40 -21 0 -13 20 -15 120 -14 76 0 131 6
150 14 l30 13 -45 8 c-52 9 -157 9 -215 0z"/>
</g>
</svg>
