<?xml version="1.0" standalone="no"?>
<!DOCTYPE svg PUBLIC "-//W3C//DTD SVG 20010904//EN"
 "http://www.w3.org/TR/2001/REC-SVG-20010904/DTD/svg10.dtd">
<svg version="1.0" xmlns="http://www.w3.org/2000/svg"
 width="1091.000000pt" height="886.000000pt" viewBox="0 0 1091.000000 886.000000"
 preserveAspectRatio="xMidYMid meet">

<g transform="translate(0.000000,886.000000) scale(0.100000,-0.100000)"
fill="#000000" stroke="none">
<path d="M2656 8790 c-32 -5 -79 -21 -105 -36 -63 -36 -161 -141 -196 -209
-25 -50 -28 -67 -27 -133 2 -74 -21 -235 -38 -262 -6 -10 -46 2 -192 60 -108
43 -214 78 -259 86 -45 8 -233 17 -455 23 -434 12 -383 22 -502 -97 -120 -121
-152 -206 -152 -407 0 -148 -14 -326 -37 -465 -12 -74 -17 -165 -17 -305 0
-231 15 -352 76 -600 70 -287 71 -295 72 -505 0 -107 -3 -226 -8 -265 -7 -61
-12 -74 -42 -102 -70 -66 -285 -111 -374 -78 -25 9 -72 18 -105 21 -50 5 -68
2 -105 -18 -37 -19 -48 -31 -60 -68 -8 -25 -28 -66 -43 -92 -35 -58 -43 -87
-52 -180 -10 -103 7 -139 107 -233 101 -95 140 -117 258 -150 275 -76 370
-117 523 -228 93 -67 168 -97 264 -104 144 -11 256 35 321 131 29 43 32 56 32
120 0 64 -36 292 -74 471 -42 200 -59 351 -59 535 0 212 14 297 84 508 34 102
44 122 58 117 9 -3 144 -86 301 -184 157 -98 344 -214 415 -258 l130 -80 2
-644 3 -644 -263 -117 c-240 -108 -627 -278 -670 -296 -16 -7 -18 -26 -18
-241 0 -128 2 -234 3 -235 2 -1 53 -43 113 -92 61 -50 152 -122 203 -161 l93
-71 190 94 c104 52 191 94 193 94 2 0 133 64 292 141 447 218 979 477 1079
524 50 24 176 84 280 135 208 101 524 250 530 250 4 0 402 -246 1040 -643 248
-154 488 -304 535 -332 325 -200 324 -199 331 -236 8 -39 29 -949 32 -1346 2
-222 0 -264 -13 -277 -8 -7 -116 -69 -240 -136 -124 -68 -344 -188 -490 -268
-146 -80 -380 -208 -520 -285 -140 -76 -256 -140 -257 -141 -1 0 -5 -103 -9
-227 l-7 -226 181 -145 c100 -79 199 -153 219 -164 l38 -21 155 81 c85 45 205
108 265 140 61 33 234 125 385 206 151 81 475 255 720 387 592 320 1153 623
1380 746 102 55 240 129 308 165 l122 66 0 72 c0 39 3 145 6 235 l6 164 -163
96 c-90 53 -193 111 -229 129 l-64 32 -571 -286 c-313 -157 -574 -286 -579
-286 -9 0 -7 95 11 761 l6 246 106 6 c114 7 205 29 315 76 l69 29 81 -65 c98
-78 278 -168 426 -213 413 -125 608 -219 866 -416 105 -79 163 -108 264 -130
210 -45 433 -123 353 -124 -30 0 -173 -62 -278 -120 -176 -97 -276 -222 -291
-365 -13 -121 65 -268 194 -366 453 -344 1413 -269 1680 131 50 74 62 114 62
201 0 189 -93 298 -377 442 -90 45 -162 86 -160 90 1 4 69 60 152 125 193 151
247 223 200 262 -26 22 -16 46 50 120 83 92 106 152 108 275 2 121 -18 166
-123 270 l-80 80 0 634 0 634 -95 237 c-131 330 -148 390 -142 510 8 166 -18
203 -238 339 -92 57 -222 150 -315 227 -227 186 -407 280 -665 350 -228 62
-320 58 -780 -32 -71 -14 -161 -30 -198 -36 l-68 -12 -167 170 c-126 127 -182
177 -228 201 -67 36 -256 93 -390 118 -84 16 -174 49 -174 65 0 15 -95 68
-166 93 -155 55 -459 102 -824 127 -337 23 -405 48 -485 180 -56 92 -110 131
-329 242 -244 122 -307 161 -414 252 -136 116 -179 144 -231 151 -64 8 -117
34 -256 125 -66 43 -154 95 -196 115 -92 44 -203 132 -375 298 -73 70 -156
147 -186 172 -50 41 -190 115 -219 115 -6 0 -100 30 -208 66 -108 36 -225 72
-261 80 -83 18 -298 26 -374 14z m284 -64 c75 -14 162 -41 340 -109 52 -20
136 -48 185 -62 141 -42 214 -93 419 -295 l179 -177 -104 -25 c-268 -65 -452
-195 -546 -385 -44 -89 -58 -99 -104 -72 -62 35 -102 51 -173 65 -84 17 -201
70 -269 122 -27 20 -82 78 -123 129 -79 99 -110 124 -120 99 -3 -8 0 -24 6
-36 6 -12 10 -23 8 -25 -10 -10 -242 123 -264 151 -6 8 -8 29 -5 51 6 37 7 38
51 38 l45 0 -2 37 c-1 21 -11 54 -21 75 -11 21 -28 64 -38 96 -16 52 -16 60
-2 90 41 85 167 205 245 233 49 17 197 17 293 0z m-1185 -497 c61 -5 137 -16
170 -24 73 -18 368 -163 560 -276 170 -99 395 -245 395 -256 0 -4 -40 -21 -88
-37 -122 -40 -186 -75 -266 -143 -217 -186 -309 -374 -350 -711 -15 -124 -27
-172 -43 -172 -12 0 -100 55 -173 108 -134 98 -249 202 -459 412 -206 206
-297 280 -345 280 -46 0 -30 -32 43 -88 88 -67 241 -216 241 -234 0 -10 -23
-21 -62 -32 -148 -42 -150 -44 -194 -187 -20 -65 -24 -99 -21 -149 6 -103 47
-163 176 -258 41 -30 82 -63 93 -74 26 -26 23 -84 -13 -191 -41 -125 -58 -201
-75 -336 -26 -210 -20 -285 56 -681 106 -557 105 -576 -34 -646 -143 -71 -238
-45 -565 154 -79 49 -223 112 -255 112 -33 0 -186 55 -259 92 -162 84 -204
148 -195 293 4 66 9 82 41 128 20 28 43 69 52 89 23 56 54 72 121 64 62 -7
118 -31 109 -47 -4 -5 -35 -23 -71 -39 -42 -19 -64 -35 -64 -46 0 -28 82 -10
200 46 58 27 155 66 216 86 155 51 162 57 180 174 19 120 22 433 5 520 -7 36
-36 169 -66 295 -75 319 -89 424 -82 610 7 163 39 422 57 455 8 14 17 19 30
15 26 -8 33 8 20 53 -5 22 -17 103 -26 180 -23 218 -10 263 120 408 l70 77
320 -7 c177 -4 371 -11 431 -17z m2518 -262 c50 -23 217 -146 246 -180 11 -13
11 -20 1 -32 -26 -31 -1 -38 109 -31 71 5 116 4 136 -4 16 -6 84 -64 150 -128
l120 -117 213 -99 c118 -55 225 -108 239 -119 24 -20 25 -21 6 -28 -11 -4 -79
-19 -152 -34 -280 -56 -492 -141 -711 -285 -357 -235 -540 -499 -557 -804 -9
-159 44 -324 136 -428 22 -25 41 -49 41 -52 0 -3 -19 2 -42 11 -26 9 -100 19
-188 23 -121 7 -159 13 -231 38 -134 46 -285 125 -394 208 -143 107 -212 138
-385 175 -156 33 -254 66 -311 104 -53 35 -222 117 -317 155 -45 18 -84 36
-87 40 -2 3 -13 61 -24 127 -71 412 55 775 333 961 78 52 205 99 345 128 153
30 224 9 389 -116 139 -105 161 -115 262 -115 75 0 102 6 232 49 l148 49 61
-31 c71 -37 89 -39 89 -13 0 68 -155 110 -280 76 -36 -10 -74 -19 -86 -22 -34
-8 -36 22 -3 64 16 21 43 56 59 77 59 77 23 83 -54 9 -26 -25 -63 -68 -81 -97
-62 -96 -99 -111 -181 -71 -72 35 -76 54 -32 148 100 208 280 346 506 387 85
16 237 4 295 -23z m1301 -821 c18 -7 52 -32 76 -55 87 -83 209 -142 323 -156
39 -4 64 -13 75 -26 15 -17 26 -19 124 -13 91 6 111 4 133 -10 24 -16 25 -20
25 -125 0 -67 6 -126 15 -157 24 -79 20 -97 -35 -163 -50 -60 -60 -81 -39 -81
24 0 68 35 93 74 44 68 50 106 31 208 -33 183 -23 215 76 225 67 6 258 -20
384 -52 86 -23 265 -93 265 -105 0 -3 -26 -17 -58 -32 -59 -27 -152 -101 -141
-112 3 -3 41 8 84 25 95 36 202 48 337 38 165 -13 276 -51 388 -132 54 -40
299 -281 435 -428 113 -123 153 -128 74 -9 -35 52 -40 64 -28 75 16 16 253 67
417 89 407 57 771 -33 1074 -266 241 -184 295 -223 416 -300 137 -86 176 -118
198 -160 18 -35 18 -110 -2 -194 l-15 -67 35 -71 c52 -107 165 -460 206 -643
25 -116 27 -399 5 -734 -21 -320 -25 -349 -42 -349 -8 0 -56 14 -106 31 -51
16 -148 42 -216 57 l-124 28 -48 187 c-28 111 -62 216 -82 259 -20 40 -86 141
-149 223 -175 233 -205 309 -215 556 -6 162 2 205 44 239 37 29 131 28 184 -2
30 -17 42 -19 51 -10 18 18 -21 64 -67 80 -21 7 -108 17 -194 23 -462 29 -499
36 -609 109 -34 23 -141 125 -247 235 -209 217 -299 296 -365 318 -130 44
-347 47 -534 8 -113 -24 -165 -26 -213 -9 -28 10 -36 10 -42 -1 -20 -32 9 -69
62 -80 30 -6 32 -10 37 -56 5 -47 6 -49 48 -63 26 -8 42 -20 42 -29 0 -9 -28
-68 -62 -132 -145 -272 -152 -293 -137 -395 10 -65 9 -78 -12 -136 -12 -36
-27 -101 -33 -145 -11 -75 -13 -80 -36 -80 -17 0 -30 10 -44 35 -20 33 -21 47
-17 230 8 373 7 443 -8 478 -28 66 -36 32 -32 -129 3 -151 -15 -497 -28 -511
-8 -9 -261 219 -261 236 0 25 101 311 127 358 14 26 67 89 117 140 90 92 134
162 123 192 -10 26 -35 18 -53 -16 -9 -18 -60 -76 -113 -128 -85 -83 -103
-107 -143 -190 -25 -52 -65 -144 -87 -204 -22 -60 -43 -112 -46 -115 -3 -3
-44 8 -91 23 -147 48 -254 75 -384 97 -134 22 -169 36 -207 77 -54 61 -165
223 -194 287 -57 120 -49 275 21 435 17 40 29 74 26 78 -13 12 -69 -56 -102
-123 -95 -192 -79 -362 53 -563 34 -53 63 -102 63 -108 0 -6 -7 -17 -15 -24
-23 -19 -18 -39 18 -60 50 -31 122 -48 248 -59 187 -16 477 -91 552 -142 49
-34 151 -124 264 -231 125 -119 155 -139 279 -179 143 -46 166 -61 224 -149
28 -42 61 -83 75 -90 35 -19 55 -7 55 35 0 20 5 35 12 35 6 0 69 -32 139 -72
281 -156 454 -318 660 -618 49 -70 238 -370 258 -409 11 -20 8 -37 -24 -126
-20 -57 -43 -106 -51 -109 -24 -9 -52 14 -136 119 -106 131 -218 245 -240 245
-50 0 -2 -71 163 -245 152 -160 206 -223 254 -300 79 -125 142 -183 275 -258
95 -53 285 -113 447 -141 174 -31 220 -43 226 -59 5 -15 142 19 412 101 257
78 289 86 309 79 16 -7 17 -10 4 -30 -41 -63 -315 -255 -417 -291 -75 -27
-278 -28 -401 -2 -273 57 -629 165 -760 230 -47 24 -165 96 -262 160 -220 145
-285 177 -521 260 -587 206 -669 265 -955 687 -51 74 -106 150 -123 167 -50
51 -94 39 -64 -18 20 -39 8 -38 -56 7 -284 196 -366 238 -543 283 -217 55
-268 91 -448 313 -140 173 -191 227 -214 227 -27 0 -8 -47 62 -153 36 -55 63
-101 60 -104 -10 -10 -108 30 -164 67 -77 52 -198 176 -283 291 -124 168 -168
219 -189 219 -24 0 -24 1 -5 -43 19 -46 19 -47 -5 -47 -12 0 -78 56 -168 143
-81 78 -187 177 -237 219 -128 109 -177 171 -274 349 -74 134 -120 193 -154
197 l-28 3 15 -30 c25 -47 21 -61 -16 -61 -49 0 -117 38 -179 99 -91 92 -119
173 -119 346 0 180 57 365 117 382 51 14 195 8 230 -10 42 -22 63 -21 63 1 0
41 -62 72 -187 93 -40 7 -73 16 -73 19 0 14 209 209 280 261 241 177 549 299
850 338 95 12 98 12 134 -3z m-3924 -260 c142 -139 233 -213 382 -310 128 -83
153 -108 168 -170 27 -106 43 -119 230 -189 123 -46 181 -72 244 -109 71 -43
172 -75 302 -98 171 -30 193 -40 364 -161 146 -103 325 -189 500 -241 36 -10
155 -28 265 -38 310 -30 438 -48 447 -62 5 -7 27 -44 49 -81 56 -95 112 -163
253 -306 160 -163 349 -328 455 -398 51 -34 145 -114 234 -200 196 -191 314
-268 452 -298 45 -10 65 -20 80 -41 84 -113 194 -180 384 -231 69 -19 163 -52
209 -74 92 -45 240 -142 347 -228 150 -120 432 -411 420 -432 -13 -21 -111
-61 -182 -75 -89 -17 -183 -18 -290 -3 -126 17 -109 9 -493 239 -243 146 -757
459 -1330 812 -2050 1262 -3778 2343 -3847 2407 -30 28 -43 81 -43 173 0 103
19 151 74 183 50 29 151 56 186 49 14 -3 75 -55 140 -118z m6390 -1104 c0 -4
-24 -19 -52 -34 -29 -14 -72 -41 -95 -60 -60 -51 -161 -63 -177 -22 -11 28
112 80 264 112 60 13 60 13 60 4z m-5458 -95 c46 -29 156 -97 245 -150 l161
-97 4 -385 c2 -279 6 -387 15 -396 15 -15 28 -10 353 148 146 71 283 137 306
147 l41 18 63 -32 c167 -84 553 -327 547 -344 -5 -16 -300 -164 -1177 -589
-427 -207 -1072 -515 -1190 -568 l-84 -38 -41 24 c-22 14 -100 72 -173 130
l-132 106 2 191 3 191 120 54 c66 29 280 124 475 211 l355 158 6 400 c4 219 7
506 8 637 0 130 3 237 6 237 2 0 42 -24 87 -53z m5682 38 c87 -23 137 -57 267
-182 228 -221 368 -396 408 -514 82 -241 32 -589 -117 -806 -54 -79 -205 -223
-234 -223 -5 0 -47 36 -95 81 -137 130 -323 261 -498 353 -71 36 -121 76 -140
110 -8 13 -29 21 -72 27 -33 5 -86 18 -117 30 -66 24 -76 41 -76 130 0 68 19
121 57 162 l27 27 -18 50 c-13 37 -16 63 -11 102 22 158 157 417 281 541 60
60 113 92 184 111 71 19 84 19 154 1z m-4889 -528 c132 -82 242 -151 244 -153
11 -10 -40 -47 -137 -97 -92 -48 -409 -197 -419 -197 -2 0 -3 144 -3 321 l0
321 38 -23 c20 -12 145 -90 277 -172z m5780 -142 c63 -16 140 -28 208 -32
l107 -6 0 -206 c0 -312 17 -358 216 -616 186 -240 230 -312 257 -421 19 -75
40 -204 35 -210 -3 -2 -87 -11 -189 -19 -266 -22 -420 -62 -606 -160 -48 -25
-95 -45 -105 -45 -28 0 -308 389 -308 428 0 6 44 34 98 63 214 115 382 242
418 316 24 50 25 242 1 323 -24 82 -71 146 -132 181 -88 49 -82 35 -120 280
-8 53 -18 111 -22 129 -7 38 -20 38 142 -5z m-10 -497 c59 -59 72 -93 82 -209
9 -119 -1 -160 -54 -219 -53 -59 -200 -159 -328 -224 -122 -61 -139 -65 -160
-32 -25 37 -7 74 66 137 123 107 219 267 264 444 32 127 44 155 63 155 8 0 39
-24 67 -52z m1065 -1114 c179 -41 353 -128 457 -230 87 -85 103 -119 103 -217
0 -131 -65 -224 -221 -319 -300 -182 -753 -217 -1141 -88 -322 107 -500 344
-394 525 88 150 318 288 551 332 176 33 495 32 645 -3z m-3667 -213 c124 -78
160 -96 280 -136 l102 -34 6 -533 c3 -368 9 -541 17 -560 11 -26 13 -27 44
-16 18 6 229 110 468 231 239 121 493 249 565 284 l129 65 36 -17 c19 -9 104
-55 187 -103 l153 -87 0 -150 c0 -82 -3 -173 -6 -201 l-6 -51 -112 -60 c-221
-120 -864 -468 -976 -528 -341 -183 -680 -365 -790 -425 -204 -111 -1000 -539
-1197 -644 l-183 -97 -180 143 -179 143 -1 186 0 185 348 189 c191 104 538
293 772 421 l425 232 -3 193 c-5 378 -22 1166 -27 1307 -7 166 -24 158 128 63z
m3147 -1090 c6 -12 10 -98 10 -211 l0 -191 61 -29 c134 -63 275 -62 347 4 l35
33 8 189 c7 195 12 224 34 224 32 0 238 -75 330 -119 155 -76 236 -159 270
-274 31 -106 -1 -195 -109 -302 -110 -110 -276 -187 -484 -224 -156 -28 -290
-35 -422 -22 -296 30 -511 113 -649 250 -81 81 -106 136 -106 236 0 75 3 85
35 139 63 105 168 179 351 246 99 37 213 69 251 69 17 1 31 -6 38 -18z m390
-128 c-1 -259 -11 -277 -152 -271 -136 5 -147 25 -148 271 l0 147 150 0 150 0
0 -147z"/>
<path d="M2940 8293 c-49 -8 -224 -54 -242 -64 -57 -31 34 -39 155 -14 157 32
214 36 290 20 40 -8 83 -15 95 -15 54 0 -11 58 -79 71 -45 8 -174 10 -219 2z"/>
<path d="M1248 8053 c-67 -62 -88 -75 -168 -103 -36 -13 -82 -34 -103 -47 -43
-27 -67 -67 -50 -84 12 -12 40 1 102 47 19 13 46 27 60 30 14 3 42 10 63 15
102 26 240 177 171 187 -16 2 -39 -12 -75 -45z"/>
<path d="M993 7234 c-69 -109 -99 -296 -90 -554 8 -219 30 -338 105 -570 44
-137 91 -233 115 -238 28 -6 21 37 -32 180 -77 210 -116 368 -145 596 -27 209
-20 272 55 514 17 54 29 103 27 110 -2 6 -18 -11 -35 -38z"/>
<path d="M1236 5370 c10 -130 25 -234 37 -254 11 -21 12 -21 15 3 4 26 -36
263 -49 296 -5 12 -6 -6 -3 -45z"/>
<path d="M1017 5336 c-4 -27 -7 -66 -7 -87 0 -52 -18 -65 -97 -74 -37 -4 -78
-11 -93 -17 -24 -9 -24 -10 -6 -24 24 -17 117 -18 165 -1 53 19 76 57 75 125
-1 31 -8 73 -16 92 l-15 35 -6 -49z"/>
<path d="M4935 7315 c-124 -27 -299 -107 -441 -201 -44 -30 -147 -117 -228
-193 -81 -76 -166 -148 -189 -159 -23 -11 -77 -25 -120 -30 -145 -18 -258 -92
-412 -267 -93 -106 -138 -129 -254 -129 -99 -1 -123 10 -246 109 -152 123
-414 252 -522 257 -41 3 -48 0 -48 -16 0 -14 12 -22 52 -32 108 -28 335 -156
472 -267 47 -38 110 -81 140 -95 49 -23 60 -24 144 -17 l91 7 28 -34 c36 -44
45 -38 140 103 90 131 188 231 262 265 43 20 215 58 223 50 2 -2 -17 -46 -42
-98 -44 -96 -92 -242 -115 -352 -13 -65 -45 -106 -82 -106 -31 0 -113 40 -175
84 -57 41 -73 44 -73 17 0 -25 76 -80 197 -144 55 -29 95 -58 105 -75 9 -15
21 -63 28 -107 14 -98 43 -168 66 -163 35 7 39 32 19 130 -37 173 -15 382 61
580 71 188 162 328 292 449 221 206 482 357 682 394 41 7 88 18 103 24 76 29
-44 41 -158 16z"/>
<path d="M5265 7071 c-9 -15 32 -32 59 -25 25 6 74 -14 95 -40 17 -20 81 -22
81 -3 0 18 -39 53 -73 66 -35 14 -154 14 -162 2z"/>
<path d="M5559 6995 c-53 -17 -72 -47 -90 -150 -10 -49 -10 -68 -1 -77 9 -9
16 -1 31 33 12 24 21 52 21 62 0 28 26 72 52 89 13 8 47 23 76 32 28 10 52 19
52 22 0 9 -98 2 -141 -11z"/>
<path d="M4880 6931 c0 -55 254 -191 355 -191 73 0 31 30 -88 65 -36 10 -95
41 -153 81 -52 35 -98 64 -104 64 -5 0 -10 -9 -10 -19z"/>
<path d="M5914 6891 c-70 -43 -94 -114 -55 -162 l19 -24 10 25 c6 14 13 41 17
62 4 25 19 49 48 77 40 39 41 41 17 41 -14 0 -39 -9 -56 -19z"/>
<path d="M4630 6711 c0 -10 18 -55 40 -99 49 -98 104 -152 155 -152 46 0 44
13 -7 49 -63 43 -95 81 -113 131 -24 67 -75 116 -75 71z"/>
<path d="M5350 6716 c-80 -19 -102 -30 -159 -80 -29 -25 -62 -46 -74 -46 -12
0 -44 -11 -72 -24 -103 -49 -163 -153 -121 -211 17 -23 44 -14 50 17 18 97 21
103 56 120 19 9 53 21 75 27 23 6 65 32 100 62 33 28 80 60 104 70 74 33 213
52 339 46 109 -4 139 3 86 23 -36 14 -318 11 -384 -4z"/>
<path d="M5790 6667 c-31 -13 -96 -53 -144 -91 -49 -37 -117 -80 -151 -95 -71
-32 -150 -103 -160 -144 -11 -43 3 -97 24 -97 19 0 31 26 31 66 0 28 46 68
135 119 38 22 99 68 136 102 84 80 133 102 222 103 85 0 110 -11 227 -98 52
-40 103 -72 113 -72 62 0 -56 121 -175 180 -109 53 -179 61 -258 27z"/>
<path d="M5030 6316 c0 -24 48 -54 122 -78 63 -20 72 -21 96 -7 47 26 34 43
-38 50 -37 3 -83 15 -107 27 -49 25 -73 28 -73 8z"/>
<path d="M6675 6271 c-10 -17 49 -49 166 -89 195 -68 247 -97 463 -256 49 -36
94 -66 99 -66 34 0 -215 208 -316 264 -118 66 -342 156 -388 156 -10 0 -20 -4
-24 -9z"/>
<path d="M5963 6250 c-17 -4 -58 -28 -91 -53 -88 -66 -97 -70 -210 -78 -113
-8 -161 -26 -220 -82 -63 -60 -92 -145 -92 -276 0 -96 -36 -322 -57 -365 -14
-27 -17 -28 -64 -23 -59 7 -157 57 -212 109 -41 38 -57 41 -57 8 0 -47 109
-132 228 -177 80 -30 122 -26 199 17 72 41 79 39 87 -19 6 -46 28 -82 39 -64
3 4 8 27 12 50 5 30 16 50 36 67 29 25 45 29 144 41 119 14 111 39 -20 61
l-50 9 2 42 c3 78 46 136 152 206 42 28 51 38 38 43 -69 26 -242 -135 -254
-237 -9 -83 -24 -97 -136 -123 -32 -8 -59 -11 -61 -7 -7 15 13 200 25 219 7
11 30 31 51 44 71 42 118 78 118 89 0 8 -22 9 -70 4 l-70 -7 -1 33 c-3 123 8
173 49 212 37 36 83 53 177 67 112 16 164 34 247 89 88 57 120 69 206 76 97 9
119 14 101 26 -17 10 -200 10 -246 -1z"/>
<path d="M8716 6180 c-38 -34 -61 -88 -51 -120 9 -30 60 -39 270 -49 140 -7
201 -14 233 -26 56 -23 78 -8 43 29 -31 33 -88 44 -262 50 -217 8 -249 28
-163 103 l49 43 -42 0 c-33 0 -50 -7 -77 -30z"/>
<path d="M8785 5679 c-18 -28 82 -88 225 -134 106 -34 202 -37 390 -12 74 9
187 20 251 23 113 6 152 15 135 31 -4 4 -161 8 -349 8 -372 0 -357 -1 -550 65
-102 35 -94 33 -102 19z"/>
<path d="M10005 5543 c11 -63 41 -119 85 -161 37 -37 93 -62 107 -49 9 9 -19
50 -84 125 -34 40 -70 84 -79 97 -24 37 -37 31 -29 -12z"/>
<path d="M9506 5482 c-9 -16 68 -133 123 -188 102 -101 241 -145 302 -95 l23
18 -28 19 c-16 10 -74 26 -129 36 -55 10 -101 19 -101 20 -10 19 -97 132 -124
161 -35 36 -56 45 -66 29z"/>
<path d="M5722 5254 c-30 -21 -28 -59 4 -89 65 -60 228 -85 304 -47 52 25 35
37 -47 34 -74 -4 -161 15 -197 43 -10 8 -19 27 -20 41 -1 34 -14 39 -44 18z"/>
<path d="M6558 5005 c-96 -26 -152 -81 -128 -125 30 -57 127 -98 317 -135 148
-29 188 -46 276 -119 93 -76 126 -74 72 6 -45 67 -161 122 -393 189 -118 33
-174 62 -180 92 -3 13 15 26 73 52 105 48 82 73 -37 40z"/>
<path d="M9930 4912 c0 -18 30 -90 74 -179 41 -81 79 -168 85 -193 6 -25 11
-94 11 -155 1 -189 27 -300 70 -300 25 0 31 58 20 199 -13 153 -43 287 -91
400 -36 84 -107 201 -143 235 l-26 24 0 -31z"/>
<path d="M7482 4341 c-37 -23 15 -73 115 -111 109 -41 227 -36 191 7 -17 21
-101 62 -182 89 -74 25 -103 29 -124 15z"/>
<path d="M7444 4135 c-10 -26 4 -60 64 -151 161 -244 324 -394 430 -394 60 0
39 31 -71 105 -69 45 -116 99 -222 253 -122 175 -184 233 -201 187z"/>
<path d="M9060 3033 c0 -55 156 -199 283 -262 158 -78 347 -106 660 -98 220 5
268 13 420 66 199 70 349 205 322 291 -11 35 -32 22 -55 -35 -37 -92 -127
-155 -295 -208 -148 -46 -272 -62 -490 -62 -222 0 -312 13 -464 67 -114 40
-154 65 -258 159 -103 94 -123 107 -123 82z"/>
<path d="M9060 1734 c0 -41 165 -200 255 -246 214 -110 563 -155 840 -108 206
35 384 97 482 169 83 60 127 153 91 189 -18 18 -28 15 -28 -8 0 -113 -226
-241 -525 -296 -134 -25 -382 -25 -515 -1 -219 41 -359 108 -500 243 -49 46
-92 84 -95 84 -3 0 -5 -12 -5 -26z"/>
</g>
</svg>
