<?xml version="1.0" standalone="no"?>
<!DOCTYPE svg PUBLIC "-//W3C//DTD SVG 20010904//EN"
 "http://www.w3.org/TR/2001/REC-SVG-20010904/DTD/svg10.dtd">
<svg version="1.0" xmlns="http://www.w3.org/2000/svg"
 width="1096.000000pt" height="530.000000pt" viewBox="0 0 1096.000000 530.000000"
 preserveAspectRatio="xMidYMid meet">

<g transform="translate(0.000000,530.000000) scale(0.100000,-0.100000)"
fill="#000000" stroke="none">
<path d="M5340 5260 c-41 -4 -95 -13 -120 -20 -121 -32 -283 -152 -327 -242
-24 -49 -75 -294 -98 -471 -20 -156 -19 -332 5 -678 27 -399 34 -439 136 -750
35 -108 64 -204 64 -214 0 -10 -18 -74 -40 -142 -32 -97 -38 -128 -30 -143 6
-11 15 -20 20 -20 6 0 10 -9 10 -19 0 -14 26 -35 85 -72 47 -29 88 -56 91 -61
7 -11 -128 -10 -244 3 -223 25 -395 76 -534 161 -139 83 -211 116 -319 143
-57 15 -110 32 -118 40 -11 11 -8 41 22 192 77 379 127 700 127 807 0 109 -29
154 -130 200 -215 98 -534 117 -849 51 -283 -60 -484 -161 -991 -498 -107 -72
-227 -145 -265 -164 -67 -32 -175 -59 -332 -83 -39 -6 -80 -18 -90 -25 -17
-13 -17 -15 10 -42 24 -24 34 -28 80 -26 67 2 311 57 393 88 84 32 119 53 383
228 485 323 608 384 841 422 200 32 554 13 729 -40 47 -14 86 -25 89 -25 2 0
2 -143 -1 -317 -5 -350 -4 -347 -82 -576 -51 -148 -90 -224 -126 -243 -37 -19
-64 -14 -179 32 -112 46 -215 71 -358 90 -64 8 -133 23 -152 32 -72 35 -89
127 -35 189 l23 28 234 5 c244 6 264 9 301 54 36 43 146 281 135 292 -2 1 -55
-46 -118 -105 l-114 -108 -370 -11 c-414 -12 -434 -15 -545 -81 -140 -83 -252
-209 -301 -340 -12 -34 -28 -61 -34 -61 -6 1 -57 36 -113 78 -190 144 -390
240 -589 283 -54 11 -115 28 -134 36 -47 21 -83 17 -143 -12 -152 -77 -389
-290 -442 -399 l-28 -57 12 -137 c19 -224 87 -654 132 -837 11 -44 31 -108 44
-143 14 -34 25 -66 25 -71 0 -5 -24 -22 -53 -39 -106 -60 -247 -214 -247 -270
0 -7 61 19 137 57 173 87 226 108 310 121 131 21 335 -21 498 -102 100 -50
157 -92 265 -192 144 -134 176 -156 224 -156 73 0 104 17 129 69 15 32 74 98
196 218 l174 173 -64 -19 c-168 -50 -305 -121 -401 -210 -62 -57 -70 -62 -86
-49 -9 8 -42 36 -72 63 -68 60 -208 152 -312 206 -124 65 -97 73 77 24 192
-55 375 -77 455 -55 38 10 65 32 166 133 133 135 160 179 196 320 15 60 19
100 16 156 -6 85 -38 166 -227 571 l-101 215 68 68 c115 118 273 257 316 279
49 25 136 47 187 48 46 0 49 -8 49 -158 l0 -113 -47 -20 c-170 -73 -371 -188
-418 -239 -18 -20 -17 -20 26 -20 25 0 88 16 144 36 294 105 343 117 536 130
128 8 175 -1 307 -63 114 -52 219 -83 286 -83 l49 0 -41 -44 c-61 -66 -87
-125 -62 -141 15 -9 81 29 187 108 119 90 132 97 178 97 40 0 145 -49 181 -85
33 -33 32 -90 -2 -162 -30 -62 -20 -60 -149 -33 -81 16 -185 7 -243 -22 -75
-38 -67 -48 41 -47 138 2 256 -38 356 -119 69 -56 74 -78 69 -290 l-5 -183 86
-78 c111 -100 128 -111 171 -111 35 0 58 15 95 58 l19 23 -41 -7 c-53 -8 -86
11 -170 99 -75 77 -83 104 -83 264 l0 122 33 6 c111 18 153 22 184 13 70 -19
137 -102 232 -283 53 -102 85 -145 98 -132 4 4 -8 42 -26 85 -18 42 -35 84
-37 92 -7 23 318 169 349 157 9 -3 16 -28 20 -69 4 -34 18 -184 32 -333 40
-428 74 -594 147 -725 37 -68 76 -116 196 -245 82 -88 90 -100 72 -107 -64
-24 -267 -30 -768 -26 -547 5 -776 -1 -1022 -27 -196 -22 -234 -31 -465 -123
-110 -44 -218 -83 -240 -86 -22 -4 -136 0 -252 9 -163 12 -327 15 -705 13
l-493 -3 -100 26 c-781 201 -1083 290 -1300 383 -150 64 -189 92 -193 138 -2
20 17 119 41 220 46 188 65 290 92 508 44 354 84 550 139 673 13 31 87 152
164 269 149 227 202 320 202 349 0 28 -12 23 -54 -18 -125 -124 -367 -485
-461 -688 -55 -118 -90 -258 -134 -540 -30 -188 -59 -347 -81 -437 -15 -64
-20 -118 -20 -239 l0 -155 28 -26 c67 -62 236 -158 411 -235 295 -129 908
-307 1236 -359 178 -28 404 -23 657 15 113 17 224 31 246 31 22 0 115 -14 208
-32 131 -24 197 -32 294 -32 149 0 213 16 420 104 182 78 222 87 460 105 113
8 254 22 314 31 142 20 263 19 531 -5 424 -38 569 -36 773 8 120 26 198 31
662 41 504 10 507 11 681 142 107 80 342 315 393 392 67 101 70 120 70 401 l1
250 -32 95 c-45 134 -59 194 -87 370 -36 219 -48 405 -36 523 10 101 25 153
70 254 26 57 37 97 74 266 16 71 74 193 91 190 5 0 50 -93 100 -205 149 -335
241 -477 406 -628 54 -50 111 -113 137 -153 58 -90 132 -249 176 -378 59 -173
66 -241 64 -593 -1 -299 0 -313 21 -367 44 -113 123 -186 248 -228 183 -62
317 -52 753 53 194 46 246 51 350 31 240 -46 336 -57 435 -51 112 6 175 23
315 86 144 65 193 99 229 163 26 45 81 176 81 192 0 9 -61 36 -172 75 -171 61
-448 187 -808 366 -349 174 -456 234 -550 311 -112 90 -210 248 -315 507 -68
167 -183 511 -191 570 -6 41 -4 44 46 89 109 98 378 263 566 346 309 137 452
229 519 336 37 59 94 183 130 280 35 93 42 204 22 312 -20 106 -34 134 -77
156 -64 34 -216 6 -440 -80 -176 -68 -251 -83 -417 -83 -78 0 -165 5 -193 11
-51 11 -94 9 -435 -22 -66 -6 -187 -12 -270 -12 -146 -2 -154 -1 -283 36 -320
92 -769 263 -1207 462 -298 135 -470 200 -851 324 -188 61 -274 84 -340 91
-49 5 -91 9 -94 8 -3 0 -39 -4 -80 -8z m321 -145 c74 -26 184 -62 244 -82 61
-19 153 -48 205 -65 214 -68 914 -357 1575 -650 l281 -125 239 14 c132 8 425
15 650 17 467 4 407 -6 695 109 222 88 303 112 329 98 22 -12 57 -113 66 -192
13 -100 -82 -284 -214 -414 -91 -90 -147 -126 -366 -236 -282 -143 -380 -203
-544 -332 -40 -32 -101 -72 -135 -90 -58 -30 -66 -32 -176 -32 -109 0 -118 1
-165 29 -64 37 -138 113 -296 301 -123 147 -174 196 -221 214 -26 10 -290 35
-538 51 -91 6 -262 20 -380 31 -385 35 -452 51 -685 167 -137 68 -234 129
-403 255 -74 54 -136 97 -138 94 -12 -12 164 -224 319 -385 218 -226 340 -367
440 -509 100 -143 244 -374 275 -441 24 -52 24 -53 5 -83 -47 -74 -260 -196
-423 -242 -47 -14 -128 -32 -180 -41 -114 -19 -439 -35 -718 -36 l-203 0 -69
70 c-91 91 -92 108 -3 74 23 -9 49 -14 57 -11 16 6 7 35 -114 391 -149 437
-188 694 -177 1190 6 279 20 401 60 522 39 119 107 217 202 292 101 80 169
103 286 98 71 -3 109 -11 220 -51z m737 -1429 c179 -74 295 -94 632 -106 242
-9 370 -22 370 -37 0 -17 -131 -418 -140 -427 -7 -7 -25 1 -57 24 -223 157
-330 217 -473 265 -115 39 -187 76 -273 143 -58 44 -126 125 -127 150 0 16 1
16 68 -12z m1357 -176 c167 -52 243 -118 390 -343 l90 -137 125 0 c69 0 141
-5 160 -10 78 -21 144 -129 260 -420 78 -197 213 -472 282 -575 66 -99 175
-215 248 -265 30 -20 163 -92 295 -159 149 -75 283 -151 355 -201 176 -123
235 -149 361 -160 152 -13 272 -62 285 -117 6 -23 1 -33 -37 -66 -61 -53 -210
-124 -289 -137 -36 -6 -247 -13 -470 -16 -223 -3 -443 -10 -489 -15 -50 -6
-149 -31 -240 -61 -204 -66 -248 -69 -371 -29 -108 35 -192 80 -215 115 -14
21 -16 81 -19 428 l-2 403 -27 87 c-43 141 -105 296 -160 403 -54 104 -107
164 -252 291 -89 77 -185 212 -274 384 -103 200 -231 535 -231 607 l0 26 78
-6 c42 -3 109 -16 147 -27z m-999 -171 c25 -17 107 -85 182 -151 127 -111 214
-181 271 -218 l24 -16 -33 -69 c-83 -179 -120 -266 -136 -321 -24 -80 -22
-200 4 -284 52 -165 159 -611 182 -753 9 -53 10 -102 4 -155 -4 -42 -8 -150
-9 -240 l-1 -163 -156 -158 c-294 -300 -405 -356 -650 -332 -62 6 -201 18
-308 26 -107 9 -212 20 -232 26 -55 14 -180 102 -237 166 -80 90 -232 405
-275 568 -23 89 -92 508 -131 798 -7 47 5 48 90 7 71 -34 148 -109 223 -215
60 -85 164 -184 224 -214 89 -43 240 -20 297 44 42 48 41 65 -3 58 -41 -6 -46
6 -46 132 l0 90 -130 57 c-117 52 -196 79 -316 108 -64 15 -112 57 -206 179
-91 117 -106 147 -65 138 12 -3 63 -15 112 -26 120 -28 270 -37 376 -22 259
37 539 119 724 211 198 98 253 160 280 314 28 163 20 197 -78 356 -65 103 -61
114 19 59z m-5156 -366 c77 -25 271 -125 349 -180 149 -105 269 -257 405 -513
105 -196 139 -289 144 -391 3 -54 0 -101 -8 -125 -34 -107 -147 -239 -248
-290 -49 -25 -67 -29 -130 -27 -135 5 -406 70 -514 124 -64 32 -100 55 -323
199 -153 100 -195 121 -195 100 0 -7 15 -40 32 -74 43 -81 178 -215 296 -295
50 -35 92 -68 92 -73 0 -6 -6 -8 -13 -5 -7 3 -79 20 -160 38 -81 18 -160 40
-176 50 -65 40 -120 178 -156 395 -27 163 -58 282 -110 427 l-35 98 53 113
c121 253 256 390 438 441 66 18 181 13 259 -12z m2893 -546 c29 -14 78 -50
110 -82 51 -50 62 -56 85 -50 96 27 312 10 431 -33 28 -10 74 -16 119 -15 l72
1 -20 -28 c-34 -48 -130 -128 -184 -153 -53 -25 -207 -67 -247 -67 -13 0 -40
19 -68 48 -84 87 -215 132 -388 132 l-103 0 0 141 0 142 70 -6 c43 -4 91 -15
123 -30z m1273 -471 c88 -40 167 -128 128 -143 -23 -9 -139 26 -215 64 -67 33
-93 66 -81 102 7 21 97 9 168 -23z"/>
<path d="M3707 2104 c-36 -36 65 -299 175 -454 36 -53 61 -77 91 -91 46 -20
127 -26 127 -8 0 6 -31 44 -68 84 -77 82 -177 228 -241 350 -49 94 -74 129
-84 119z"/>
<path d="M3353 1887 c-11 -12 -46 -61 -78 -110 -71 -108 -93 -131 -335 -355
-223 -205 -420 -403 -420 -421 0 -24 122 58 440 294 135 100 281 207 325 237
l80 55 7 129 c3 71 9 141 13 155 9 36 -7 44 -32 16z"/>
<path d="M4370 1359 c-113 -76 -165 -99 -263 -119 -54 -11 -97 -25 -108 -37
-10 -10 -36 -59 -57 -108 -36 -86 -39 -90 -72 -93 -67 -7 -210 37 -210 64 0 6
29 31 65 54 62 41 145 114 145 130 0 16 -40 41 -74 47 -36 6 -39 4 -134 -94
-109 -112 -150 -137 -239 -147 -33 -4 -141 -27 -240 -51 -98 -24 -241 -58
-318 -75 -77 -18 -151 -38 -165 -45 l-25 -13 30 -13 c39 -17 254 -17 360 0 44
7 136 26 205 42 78 19 166 32 235 36 131 7 185 -6 407 -93 186 -73 278 -105
278 -96 0 4 -34 46 -76 92 l-76 85 5 67 c3 36 13 80 21 96 14 28 20 30 93 36
137 12 218 69 284 198 52 104 38 111 -71 37z"/>
</g>
</svg>
