<?xml version="1.0" standalone="no"?>
<!DOCTYPE svg PUBLIC "-//W3C//DTD SVG 20010904//EN"
 "http://www.w3.org/TR/2001/REC-SVG-20010904/DTD/svg10.dtd">
<svg version="1.0" xmlns="http://www.w3.org/2000/svg"
 width="1108.000000pt" height="506.000000pt" viewBox="0 0 1108.000000 506.000000"
 preserveAspectRatio="xMidYMid meet">

<g transform="translate(0.000000,506.000000) scale(0.100000,-0.100000)"
fill="#000000" stroke="none">
<path d="M10693 4949 c-31 -9 -110 -60 -298 -191 -224 -156 -724 -367 -945
-399 -106 -15 -597 -15 -770 0 -69 6 -244 22 -390 35 -376 35 -633 48 -955 50
-239 1 -287 -1 -325 -16 -25 -9 -65 -24 -89 -33 -24 -9 -99 -20 -165 -25 -172
-12 -211 -24 -266 -80 -179 -183 -312 -725 -341 -1385 l-11 -240 -64 -59 c-80
-72 -101 -113 -120 -229 -17 -104 -50 -183 -121 -289 -57 -84 -106 -123 -168
-132 -58 -9 -159 -44 -255 -89 -101 -47 -125 -51 -233 -36 -52 7 -219 13 -382
14 l-290 1 -125 32 c-222 57 -450 54 -661 -9 -54 -16 -116 -29 -138 -29 -22 0
-91 15 -153 34 -192 58 -271 75 -402 87 -203 18 -330 0 -533 -76 l-62 -24 -68
126 c-87 159 -195 303 -343 457 -318 329 -660 556 -835 556 -96 0 -137 -35
-260 -221 -46 -70 -97 -138 -113 -151 -19 -16 -66 -34 -135 -51 -186 -46 -283
-112 -385 -260 -87 -127 -139 -248 -187 -437 -33 -131 -32 -177 10 -312 77
-250 139 -469 160 -571 13 -60 25 -110 27 -112 1 -1 113 -59 248 -128 l245
-125 150 44 c205 59 241 77 270 134 12 25 31 52 41 62 47 41 208 52 279 19 55
-26 88 -58 194 -188 102 -125 179 -198 249 -236 26 -14 139 -57 252 -96 113
-38 291 -102 395 -141 l190 -71 185 6 c665 22 1095 44 1350 70 437 45 628 80
903 167 190 59 254 66 691 77 848 22 878 24 957 68 63 34 147 116 242 235 42
53 86 102 96 108 14 7 34 7 64 0 40 -9 275 -26 432 -33 l60 -2 11 -93 c16
-127 28 -171 82 -285 l46 -98 261 5 c143 3 732 8 1310 12 577 3 1051 7 1053 9
4 3 18 130 56 476 l5 46 -65 52 c-102 82 -127 94 -182 88 -26 -3 -87 -10 -137
-16 -49 -6 -216 -15 -370 -21 -274 -9 -360 -20 -352 -43 7 -23 70 -28 437 -38
206 -5 411 -13 455 -17 76 -7 80 -8 102 -41 30 -45 30 -153 0 -266 -21 -77
-23 -79 -57 -86 -137 -28 -1284 -70 -1960 -72 -404 -2 -416 -1 -460 19 -55 26
-110 85 -110 119 0 33 41 309 47 315 2 3 228 8 501 11 273 4 497 7 498 8 0 0
4 218 8 484 3 265 11 579 16 697 27 619 33 881 21 893 -14 14 -559 23 -576 10
-7 -5 -8 -281 -5 -809 5 -817 6 -834 41 -834 25 0 44 295 54 845 5 288 19 565
31 643 l5 32 175 0 174 0 -4 -22 c-3 -13 -7 -88 -11 -168 -3 -80 -10 -237 -15
-350 -5 -113 -14 -376 -20 -585 -11 -407 -26 -686 -38 -696 -8 -8 -182 -23
-497 -44 -288 -19 -461 -40 -522 -64 -56 -22 -146 -37 -298 -51 -60 -5 -114
-10 -119 -10 -5 0 -6 66 -4 148 5 149 15 195 47 207 19 8 242 30 451 45 85 6
171 14 190 18 l35 8 7 249 c4 138 12 435 18 660 12 472 22 603 51 699 11 37
19 70 17 71 -2 2 -113 7 -246 11 -133 4 -242 11 -242 16 0 33 186 71 435 89
171 12 1856 25 1912 14 31 -5 34 -8 20 -16 -28 -16 -152 -37 -317 -53 -257
-26 -329 -44 -344 -83 -13 -32 -38 -653 -55 -1343 -10 -398 -4 -574 23 -615
24 -37 40 -27 48 31 11 74 36 612 48 1019 15 513 29 838 38 847 8 8 167 32
321 48 266 29 495 83 582 139 57 36 79 87 103 237 38 238 3 334 -139 380 -27
9 -54 20 -58 24 -4 4 61 70 145 147 194 178 316 305 351 366 16 26 40 92 53
145 22 83 25 113 21 207 -4 121 -18 165 -76 253 -28 43 -77 86 -93 81 -2 0
-18 -5 -35 -10z m38 -130 c12 -12 33 -46 48 -78 22 -47 26 -70 26 -141 0 -78
-4 -92 -38 -164 -57 -121 -115 -193 -319 -405 -104 -107 -200 -214 -216 -238
-32 -51 -6 -49 -350 -27 -441 28 -1147 7 -1517 -46 -163 -23 -249 -44 -436
-106 l-135 -44 -80 36 c-131 59 -345 106 -371 81 -24 -25 208 -144 354 -182
63 -17 122 -8 349 49 222 57 373 75 804 97 277 14 1125 13 1300 -1 159 -13
290 -44 290 -69 0 -9 -7 -74 -14 -146 -17 -156 -25 -167 -133 -184 -44 -7
-456 -12 -1148 -16 -594 -3 -1201 -10 -1350 -14 -174 -6 -272 -5 -276 1 -3 5
-9 42 -12 83 -4 40 -19 110 -33 156 l-27 84 -15 -35 c-20 -49 -27 -196 -13
-272 7 -35 39 -142 71 -238 69 -205 85 -300 75 -450 -9 -135 -41 -409 -48
-417 -24 -23 -324 -31 -508 -13 -245 24 -319 50 -591 203 -75 43 -141 77 -147
77 -20 0 -112 -206 -126 -283 -7 -34 -5 -37 17 -37 13 0 71 32 130 71 l106 70
71 -46 c99 -64 222 -120 316 -145 68 -18 124 -23 383 -30 167 -5 306 -11 308
-13 18 -18 -153 -534 -241 -727 -28 -63 -74 -180 -101 -260 -58 -173 -78 -198
-226 -284 -219 -128 -285 -136 -941 -119 -221 5 -256 8 -260 22 -54 186 -184
704 -246 983 -13 54 -31 108 -42 120 -18 22 -20 22 -33 5 -45 -57 -19 -309 60
-580 30 -102 60 -179 116 -297 50 -104 54 -154 18 -182 -15 -10 -33 -16 -41
-13 -48 18 -117 273 -189 705 -37 222 -44 243 -78 270 l-27 20 45 40 c55 50
272 159 329 167 24 3 59 0 82 -7 53 -18 61 -12 130 91 69 103 98 130 146 138
55 9 63 32 63 196 0 158 6 178 70 232 85 73 115 191 130 510 17 375 98 800
195 1019 34 77 110 189 145 214 51 36 250 77 250 52 0 -5 -23 -47 -51 -93
-114 -189 -222 -428 -321 -714 -110 -314 -129 -423 -144 -786 -4 -98 -2 -173
3 -183 10 -18 28 53 99 389 49 232 124 524 174 675 33 100 134 356 144 368 2
1 47 -5 101 -13 124 -18 141 -11 83 36 -24 19 -57 45 -75 57 l-32 22 52 82
c122 192 177 225 356 215 58 -4 266 -15 461 -26 489 -28 759 -47 1070 -77 146
-14 342 -28 435 -31 200 -6 241 1 428 76 153 61 322 121 456 162 188 57 275
104 439 237 108 88 182 141 195 142 4 0 16 -9 28 -21z m-2671 -1905 c5 -5 5
-34 0 -69 -8 -54 -20 -436 -36 -1161 l-6 -251 -167 -17 c-91 -9 -214 -20 -273
-23 -105 -6 -108 -5 -116 16 -20 54 45 362 109 518 30 73 32 85 30 193 -1 85
4 139 20 210 17 77 22 140 26 335 2 132 6 246 9 254 4 11 39 13 200 9 107 -3
199 -9 204 -14z m-6703 -66 c214 -139 565 -467 765 -717 106 -131 151 -228
253 -546 172 -538 231 -698 258 -703 15 -3 17 13 17 172 0 97 3 176 8 176 4 0
50 -39 102 -87 124 -112 206 -173 236 -173 13 0 24 2 24 5 0 16 -32 78 -73
143 -26 39 -41 72 -34 72 6 0 85 -7 175 -15 324 -30 428 -67 717 -255 83 -54
188 -116 235 -139 47 -22 117 -59 155 -81 127 -72 347 -134 480 -134 82 0 154
22 197 61 40 36 25 40 -174 46 -200 5 -358 25 -441 54 -69 25 -112 65 -148
139 -18 35 -36 67 -41 70 -4 3 -24 0 -43 -7 -32 -12 -37 -11 -59 10 -13 12
-45 60 -71 107 -26 46 -53 88 -59 92 -6 4 -33 7 -60 7 -49 0 -49 1 -130 88
-45 48 -88 87 -97 87 -9 0 -30 -7 -45 -15 -19 -10 -58 -15 -109 -15 -102 0
-385 21 -384 29 0 3 70 58 155 121 86 63 174 134 196 158 99 108 -15 106 -219
-4 -111 -60 -142 -88 -174 -159 -15 -34 -35 -68 -45 -76 -12 -10 -50 -15 -128
-17 -105 -3 -113 -2 -143 21 -70 52 -125 141 -162 261 -25 80 -27 119 -7 136
17 14 252 73 381 96 50 9 124 16 165 16 68 1 89 -5 215 -54 77 -30 164 -61
194 -68 81 -19 182 -9 274 28 103 42 140 42 180 -1 36 -37 290 -325 331 -374
15 -18 43 -72 62 -120 35 -90 76 -154 90 -140 4 4 0 51 -9 105 -24 135 -25
129 36 147 61 18 210 45 216 40 2 -2 -21 -32 -51 -65 -57 -64 -125 -167 -116
-176 3 -2 34 12 69 32 35 20 98 47 139 60 85 27 344 71 470 80 117 9 130 -1
140 -117 5 -46 18 -127 30 -179 31 -141 79 -328 96 -382 21 -65 10 -80 -99
-132 -192 -91 -394 -130 -832 -161 -411 -29 -543 -45 -733 -91 -59 -14 -143
-29 -187 -33 -160 -15 -720 25 -880 64 -82 19 -661 207 -670 217 -2 2 -53 68
-114 148 l-111 144 0 226 c0 124 -5 242 -10 262 -6 20 -29 63 -51 95 -71 102
-203 305 -268 411 -35 56 -67 104 -72 107 -10 7 -101 -58 -169 -119 -71 -64
-165 -181 -203 -254 -40 -76 -77 -198 -77 -254 0 -38 6 -48 123 -185 96 -113
99 -165 13 -249 -54 -52 -182 -124 -221 -124 -82 0 -332 114 -419 192 -121
108 -118 156 27 393 131 216 153 278 227 644 47 236 66 283 184 461 57 85 136
209 176 275 107 176 109 177 203 171 47 -3 70 -12 124 -48z m-653 -380 c-3
-13 -13 -36 -21 -52 -27 -52 -52 -136 -88 -290 -96 -405 -184 -702 -230 -773
-15 -22 -17 -22 -45 -8 -67 35 -123 214 -124 395 0 207 59 350 208 507 86 90
168 161 250 217 48 32 59 33 50 4z m3676 -678 c48 -14 223 -36 480 -60 118
-11 239 -27 268 -36 65 -18 86 -49 102 -148 6 -39 13 -80 15 -92 4 -20 1 -21
-143 -20 -81 1 -208 -3 -284 -8 -132 -9 -138 -8 -180 14 -23 13 -58 26 -77 31
-31 7 -150 -1 -237 -16 l-30 -5 4 57 c5 73 -2 81 -131 127 -188 67 -193 92
-27 142 81 24 183 30 240 14z m-2980 -120 c34 -50 101 -129 150 -177 102 -99
103 -101 126 -303 8 -74 18 -150 21 -169 l6 -34 -54 5 c-36 3 -89 21 -155 51
-56 26 -111 47 -123 47 -12 0 -44 -11 -71 -25 -78 -40 -81 -38 -94 59 -6 46
-23 66 -93 113 -29 19 -55 43 -58 54 -16 49 67 247 150 357 42 56 106 112 127
112 4 0 35 -41 68 -90z"/>
<path d="M7332 4180 c-45 -33 -82 -64 -82 -69 0 -22 205 -23 241 0 12 7 11 15
-5 43 -10 19 -30 46 -45 60 l-27 26 -82 -60z"/>
<path d="M7686 3852 l-30 -7 28 -13 c15 -7 71 -20 124 -29 119 -21 574 -25
662 -6 77 16 115 32 104 43 -11 11 -846 22 -888 12z"/>
<path d="M6838 3633 c-50 -57 -104 -247 -114 -398 l-5 -90 20 23 c44 50 131
316 133 405 1 66 -11 86 -34 60z"/>
<path d="M7253 3573 c-13 -61 -9 -302 6 -378 20 -99 56 -201 93 -262 18 -29
35 -53 39 -53 3 0 0 26 -7 58 -20 86 -43 282 -54 446 -6 107 -14 157 -27 184
-25 49 -40 51 -50 5z"/>
<path d="M8297 3402 c-39 -42 -7 -102 54 -102 40 0 53 22 39 65 -18 53 -62 71
-93 37z"/>
<path d="M7346 2496 c-38 -65 -86 -217 -86 -271 0 -43 2 -46 17 -34 53 44 123
217 123 305 0 58 -20 58 -54 0z"/>
<path d="M5545 1782 c-63 -39 -69 -72 -14 -72 72 0 121 44 87 78 -17 17 -38
15 -73 -6z"/>
<path d="M3690 1710 c-23 -23 -18 -43 16 -59 55 -25 144 3 144 45 0 36 -127
47 -160 14z"/>
<path d="M3837 1548 c-54 -67 -87 -120 -81 -129 11 -18 52 -8 79 19 33 33 55
80 55 122 0 41 -12 38 -53 -12z"/>
<path d="M4007 1354 c-15 -14 -29 -35 -32 -46 -8 -22 19 -68 39 -68 23 0 73
48 80 75 15 61 -40 86 -87 39z"/>
</g>
</svg>
