<?xml version="1.0" standalone="no"?>
<!DOCTYPE svg PUBLIC "-//W3C//DTD SVG 20010904//EN"
 "http://www.w3.org/TR/2001/REC-SVG-20010904/DTD/svg10.dtd">
<svg version="1.0" xmlns="http://www.w3.org/2000/svg"
 width="994.000000pt" height="516.000000pt" viewBox="0 0 994.000000 516.000000"
 preserveAspectRatio="xMidYMid meet">

<g transform="translate(0.000000,516.000000) scale(0.100000,-0.100000)"
fill="#000000" stroke="none">
<path d="M3404 3841 c-28 -9 -96 -42 -150 -73 -54 -30 -165 -88 -246 -128
l-146 -72 -31 21 c-69 50 -140 73 -220 74 -99 1 -170 -21 -262 -81 -194 -128
-251 -261 -186 -435 l25 -68 -31 -20 c-18 -10 -79 -37 -137 -60 -109 -44 -234
-104 -284 -137 -138 -94 -376 -419 -376 -513 0 -26 75 -100 169 -167 64 -46
418 -223 516 -258 l80 -29 273 -1 c223 -1 276 -4 290 -16 24 -21 123 -78 222
-129 l85 -44 136 -2 c134 -2 136 -3 209 -39 79 -39 239 -94 274 -94 43 0 310
-61 332 -75 13 -8 43 -35 68 -59 25 -24 62 -51 83 -62 54 -26 198 -30 337 -11
61 9 164 21 229 26 155 13 221 43 322 146 49 50 92 83 145 109 143 73 306 176
353 223 65 64 105 127 182 283 36 72 76 147 89 168 24 37 50 112 100 292 53
185 97 279 161 343 15 15 35 27 44 27 9 0 72 -57 141 -127 93 -95 143 -138
195 -167 98 -53 203 -86 320 -97 178 -18 270 -55 482 -192 77 -50 110 -78 136
-117 40 -59 196 -239 239 -275 25 -21 40 -25 91 -25 81 1 134 25 200 93 44 45
56 66 80 140 26 80 33 91 75 122 26 19 72 47 102 61 30 15 72 38 93 52 47 31
187 204 223 274 34 66 43 152 20 196 -9 17 -16 48 -16 69 -1 90 -38 163 -85
163 -26 0 -170 -69 -233 -112 -26 -17 -70 -53 -98 -79 -55 -51 -60 -53 -269
-103 -132 -31 -139 -32 -241 -5 -205 53 -345 119 -579 274 -213 140 -239 155
-372 214 -59 26 -143 70 -185 98 -43 28 -91 57 -107 64 -20 9 -37 29 -52 64
-13 27 -39 72 -57 98 -28 39 -39 47 -56 42 -12 -3 -64 -15 -116 -26 -52 -11
-117 -31 -143 -44 -27 -14 -60 -25 -73 -25 -45 0 -119 -32 -159 -69 -22 -21
-86 -72 -142 -115 -55 -42 -120 -97 -142 -121 -40 -43 -44 -45 -97 -45 -72 0
-140 20 -289 85 -124 54 -147 67 -325 177 -140 87 -187 109 -303 146 -53 18
-143 54 -199 82 -137 68 -178 79 -353 96 -197 18 -297 17 -361 -5z m242 -42
c3 -6 -18 -34 -49 -62 -55 -52 -56 -52 -61 -122 -17 -217 -18 -314 -2 -387 18
-81 118 -423 146 -504 l19 -51 -36 -32 c-43 -38 -41 -57 21 -145 70 -100 113
-185 151 -301 39 -122 42 -141 20 -172 -22 -31 -55 -167 -55 -222 1 -25 7 -73
15 -106 22 -89 20 -95 -17 -95 -86 0 -283 54 -454 125 -67 28 -98 35 -149 35
-75 0 -170 24 -305 75 -124 48 -149 61 -187 98 l-32 30 -108 -11 c-300 -33
-528 5 -708 117 -22 13 -102 55 -178 93 -123 61 -257 146 -265 168 -3 7 37 72
114 185 19 28 70 96 114 151 90 115 151 161 269 204 116 42 149 58 235 113
l79 51 31 -40 c17 -21 50 -59 73 -85 l42 -45 -54 -53 c-29 -29 -69 -78 -89
-110 l-36 -57 -79 -12 c-100 -14 -172 -49 -211 -104 -17 -23 -28 -44 -25 -46
3 -3 44 14 92 39 79 41 91 44 157 43 95 -2 180 -27 241 -73 87 -65 111 -76
130 -61 8 7 23 14 33 15 9 1 24 4 32 8 45 18 155 37 202 35 54 -2 56 -1 144
69 124 100 182 128 264 128 36 0 87 -3 113 -7 37 -6 48 -5 45 5 -4 10 -52 40
-82 50 -13 4 9 66 64 182 26 55 51 111 55 125 9 31 34 60 52 60 16 0 16 4 -2
64 -26 87 -20 136 30 236 49 100 43 115 -23 51 l-40 -39 -133 5 c-122 5 -139
3 -184 -17 l-50 -21 -62 64 c-62 63 -75 87 -51 87 30 0 253 100 351 157 59 34
129 72 156 84 78 33 223 51 237 28z m387 -102 c73 -36 148 -69 167 -73 106
-21 265 -91 430 -189 159 -94 318 -175 412 -209 71 -26 81 -27 234 -24 145 3
164 5 221 29 83 35 131 79 184 167 42 70 56 83 169 159 14 9 35 25 47 36 15
14 51 23 125 33 57 7 106 10 109 6 3 -4 11 -28 18 -55 11 -45 10 -51 -20 -113
-27 -56 -31 -73 -26 -119 7 -71 -8 -97 -108 -176 -85 -68 -201 -204 -233 -273
-11 -22 -25 -66 -31 -96 -41 -201 -89 -276 -198 -310 l-65 -20 -33 20 c-19 11
-65 58 -104 104 -70 83 -144 148 -256 223 -156 104 -324 163 -577 203 -122 19
-254 48 -318 72 -96 35 -171 89 -305 220 -66 65 -121 118 -122 118 -7 0 -2
-29 5 -32 4 -1 39 -52 77 -113 135 -214 196 -252 495 -310 41 -8 84 -17 95
-19 11 -3 29 -22 40 -42 10 -20 41 -56 68 -80 50 -45 66 -81 67 -151 0 -27 -9
-40 -59 -82 -118 -98 -252 -141 -436 -141 -93 0 -142 6 -218 25 -127 31 -220
91 -161 104 10 2 30 -12 50 -35 66 -79 60 1 -11 152 -35 73 -109 317 -141 461
-28 126 -43 348 -29 440 6 39 15 56 52 91 64 62 94 73 181 69 66 -4 85 -10
205 -70z m-1276 -130 c23 -14 67 -59 99 -98 31 -39 71 -80 89 -90 25 -15 35
-29 39 -57 37 -211 79 -476 81 -510 2 -36 19 -30 34 13 15 45 18 111 6 171 -5
27 -4 44 4 48 8 5 124 -49 151 -71 2 -3 -4 -19 -14 -36 -43 -74 -76 -143 -76
-159 0 -13 -16 -22 -56 -34 -83 -24 -154 -57 -207 -98 -47 -36 -71 -44 -81
-27 -3 4 -47 23 -98 41 l-93 33 -163 166 c-171 174 -221 238 -253 321 -36 94
-17 192 47 251 48 44 175 122 239 146 85 33 193 29 252 -10z m2877 -124 c-53
-72 -172 -163 -213 -163 -21 0 10 31 114 115 77 62 104 80 124 84 2 1 -9 -16
-25 -36z m715 -46 c23 -16 103 -58 176 -93 156 -74 252 -132 408 -248 145
-108 240 -156 445 -222 205 -67 282 -72 455 -30 146 35 169 46 241 114 48 44
236 164 299 191 4 1 7 -37 7 -85 -1 -62 3 -100 14 -126 35 -82 9 -157 -87
-251 -35 -34 -77 -80 -93 -101 -16 -21 -44 -46 -64 -54 -52 -22 -160 -94 -205
-139 -22 -21 -49 -59 -59 -84 -66 -155 -74 -168 -122 -199 -27 -17 -62 -30
-79 -30 -51 0 -137 79 -251 230 -96 128 -104 136 -159 157 -32 12 -65 29 -74
36 -34 29 -169 104 -244 135 -84 35 -196 62 -256 62 -108 0 -273 85 -445 229
-71 60 -150 120 -177 135 l-48 26 -77 -73 c-82 -78 -105 -117 -151 -264 -29
-95 -42 -106 -19 -17 47 180 83 239 237 391 61 59 119 125 130 146 11 22 24
75 30 124 5 47 14 94 20 104 9 19 12 18 57 -8 26 -15 67 -40 91 -56z m-3021
-153 c1 -84 -2 -101 -24 -139 -13 -24 -24 -51 -24 -59 0 -27 -23 -18 -84 35
-73 62 -113 111 -138 168 -35 81 -22 88 158 90 l111 1 1 -96z m1300 -315 c106
-22 198 -49 256 -73 34 -14 36 -17 25 -38 -22 -42 -141 -178 -150 -172 -5 3
-21 29 -35 57 -47 92 -112 166 -146 167 -15 0 -68 57 -68 73 0 10 12 9 118
-14z m-2183 -150 c106 -108 225 -177 322 -186 58 -5 64 -8 48 -20 -11 -8 -47
-13 -89 -14 -39 0 -102 -9 -141 -20 -38 -11 -80 -22 -92 -25 -16 -4 -34 3 -60
24 -21 16 -65 43 -98 58 -33 16 -63 33 -67 38 -3 6 2 26 12 46 19 37 106 140
119 140 4 0 25 -18 46 -41z m2641 -39 c118 -66 157 -102 210 -197 41 -73 63
-89 147 -106 50 -11 75 -24 127 -65 35 -29 68 -52 72 -52 18 0 4 -33 -80 -180
-109 -191 -118 -206 -162 -247 -34 -31 -286 -173 -308 -173 -6 0 -10 12 -9 26
4 49 -17 34 -58 -39 -53 -95 -106 -147 -196 -191 -65 -32 -88 -37 -194 -46
-66 -6 -142 -15 -168 -21 -27 -5 -108 -9 -180 -9 -149 0 -177 9 -252 80 -22
21 -55 41 -73 45 -40 8 -63 50 -81 145 -13 67 -7 223 11 269 l9 24 22 -20 c34
-32 161 -93 204 -99 l38 -5 -40 33 c-149 123 -201 190 -241 311 -15 45 -40
108 -56 140 -25 50 -27 58 -11 53 224 -69 497 -35 690 86 65 41 153 130 153
155 0 8 5 11 10 8 6 -3 10 -18 10 -33 0 -38 33 -149 60 -202 47 -93 122 -191
136 -178 6 7 -24 98 -72 218 l-35 88 73 74 c43 42 84 93 96 121 12 26 26 47
30 47 5 0 58 -27 118 -60z m661 -229 c-9 -20 -21 -53 -27 -73 -11 -35 -12 -37
-38 -26 -48 21 -48 26 0 76 25 26 52 58 59 72 12 22 14 23 17 6 2 -10 -3 -35
-11 -55z"/>
</g>
</svg>
