<?xml version="1.0" standalone="no"?>
<!DOCTYPE svg PUBLIC "-//W3C//DTD SVG 20010904//EN"
 "http://www.w3.org/TR/2001/REC-SVG-20010904/DTD/svg10.dtd">
<svg version="1.0" xmlns="http://www.w3.org/2000/svg"
 width="636.000000pt" height="1337.000000pt" viewBox="0 0 636.000000 1337.000000"
 preserveAspectRatio="xMidYMid meet">

<g transform="translate(0.000000,1337.000000) scale(0.100000,-0.100000)"
fill="#000000" stroke="none">
<path d="M5887 13178 c-94 -87 -536 -658 -1395 -1803 -1124 -1497 -1343 -1778
-1494 -1914 -159 -145 -536 -467 -943 -806 -854 -712 -1314 -1125 -1378 -1236
-50 -88 -52 -114 -52 -689 0 -576 2 -601 55 -744 33 -87 134 -230 230 -327
151 -152 283 -199 638 -228 63 -5 115 -11 118 -13 2 -3 -54 -43 -124 -90 -184
-124 -349 -243 -411 -296 -74 -63 -91 -104 -91 -222 0 -123 18 -195 84 -338
60 -131 103 -243 181 -472 60 -176 119 -313 174 -409 58 -100 151 -288 260
-529 54 -119 162 -347 239 -507 176 -366 177 -369 175 -515 -5 -402 -115 -606
-513 -953 -173 -151 -293 -276 -323 -337 -58 -117 -23 -320 74 -424 79 -86
189 -119 394 -119 159 0 267 24 399 87 117 56 182 101 312 217 126 111 178
150 258 191 64 32 339 128 369 128 16 0 14 -9 -18 -66 -113 -207 -211 -316
-356 -396 -124 -68 -226 -143 -255 -188 -34 -52 -25 -63 45 -58 181 13 537
284 785 597 162 204 402 529 500 677 66 99 77 142 83 324 7 192 -5 245 -84
383 -74 129 -172 360 -276 647 -77 213 -116 337 -192 618 -31 116 -75 229
-153 398 -34 71 -66 150 -71 175 -31 140 -75 312 -112 439 -35 121 -42 160
-43 240 -1 134 23 184 201 412 l83 106 137 -91 c149 -99 332 -194 483 -250
168 -63 425 -106 677 -114 161 -5 176 -4 243 18 82 27 93 23 127 -37 63 -109
143 -380 124 -420 -14 -31 -158 -100 -251 -121 -57 -13 -124 -17 -285 -18
-192 0 -222 2 -353 29 -166 33 -215 32 -298 -9 -69 -34 -154 -113 -154 -143 0
-28 18 -28 81 -1 38 17 55 19 72 12 14 -7 52 -66 106 -167 46 -86 117 -213
158 -283 104 -178 181 -334 198 -401 16 -63 38 -327 55 -637 43 -806 91 -1071
273 -1515 65 -158 107 -293 114 -370 4 -49 2 -60 -27 -102 -60 -90 -183 -176
-434 -305 l-171 -88 105 -3 c185 -5 244 12 415 125 99 66 162 128 195 194 29
55 80 258 80 315 0 62 -25 124 -173 429 l-131 270 -38 395 c-21 217 -56 584
-78 815 -21 231 -47 456 -56 500 -34 166 -100 316 -243 559 -104 175 -151 261
-151 274 0 16 36 15 223 -8 89 -11 239 -24 332 -30 188 -11 286 -30 419 -84
l85 -34 343 230 c189 127 400 271 470 320 l127 91 10 51 c28 138 47 363 61
701 13 325 5 432 -40 519 -62 123 -160 216 -227 216 -49 0 -43 -25 34 -137 37
-54 76 -112 88 -129 20 -30 20 -33 8 -235 -21 -353 -53 -782 -62 -839 -8 -49
-14 -60 -62 -103 -53 -48 -559 -391 -631 -428 l-36 -19 -7 68 c-24 258 -45
348 -122 515 -57 123 -63 180 -38 342 33 210 30 765 -5 885 -7 25 -7 38 3 47
17 17 107 39 239 58 333 48 610 106 640 134 13 12 -22 287 -47 377 -63 216
-217 496 -453 819 -449 617 -481 655 -682 824 -313 262 -550 411 -770 485
-120 40 -263 66 -365 66 -94 0 -173 14 -291 51 -112 34 -229 48 -262 30 -12
-6 -22 -15 -22 -20 0 -11 44 -30 119 -52 82 -24 111 -43 111 -74 0 -29 24 -55
51 -55 11 0 66 10 122 21 126 27 212 22 383 -20 309 -76 391 -124 809 -472
254 -211 348 -325 689 -837 295 -444 367 -576 444 -812 67 -207 74 -233 60
-242 -22 -13 -216 -55 -378 -82 -139 -23 -461 -59 -468 -52 -1 2 -13 68 -27
147 -50 285 -128 553 -249 844 -59 144 -116 336 -166 565 -40 179 -73 274
-108 313 -20 23 -72 51 -79 43 -13 -13 136 -615 212 -856 91 -288 281 -1027
315 -1226 14 -78 23 -187 27 -314 6 -216 -11 -619 -30 -720 l-12 -65 -265 -3
c-202 -2 -285 1 -355 13 -229 39 -437 141 -711 346 -50 37 -235 188 -410 335
-351 292 -537 437 -623 482 -31 17 -101 47 -156 66 -55 20 -122 51 -150 70
-66 44 -74 46 -184 56 -81 7 -98 12 -129 37 -41 34 -152 213 -177 288 -18 52
-18 54 3 121 11 38 42 154 67 257 74 303 132 434 208 470 52 25 190 23 262 -4
66 -25 156 -104 220 -194 66 -92 176 -323 248 -519 34 -94 261 -310 451 -431
175 -111 369 -147 801 -149 246 -1 329 9 360 44 49 54 -50 76 -474 105 -123 8
-225 16 -227 17 -9 10 -56 283 -63 366 -6 77 -13 110 -28 130 -11 15 -90 74
-176 132 -176 119 -219 156 -252 220 -23 45 -63 196 -86 323 -7 37 -16 67 -20
67 -4 0 -79 -23 -166 -51 -87 -27 -183 -53 -214 -56 -52 -5 -62 -2 -122 32
-37 20 -76 44 -88 54 l-22 18 68 169 c62 154 242 575 472 1104 49 113 115 270
146 350 75 192 145 329 209 415 96 127 352 476 543 740 250 344 579 789 1084
1465 690 923 997 1342 1060 1444 20 31 21 40 10 47 -23 15 -47 10 -72 -13z
m-2927 -4027 c0 -32 -56 -172 -188 -466 -49 -110 -97 -221 -107 -248 -23 -61
-71 -104 -183 -162 -103 -53 -160 -95 -197 -144 -28 -39 -33 -96 -11 -126 13
-18 17 -18 96 19 45 20 89 36 98 34 26 -5 17 -36 -54 -206 -36 -85 -74 -178
-85 -206 -24 -65 -47 -78 -178 -106 -284 -60 -475 -254 -536 -545 -13 -62 -17
-128 -16 -289 l1 -210 -30 -63 c-35 -72 -34 -84 13 -153 47 -68 119 -135 175
-164 27 -14 130 -53 228 -86 99 -34 217 -80 264 -101 l85 -40 -24 -20 c-38
-31 -191 -124 -269 -163 -163 -82 -345 -137 -499 -151 -87 -7 -217 9 -287 36
-163 65 -377 281 -467 473 -57 121 -79 301 -79 642 0 121 5 247 11 280 20 111
152 359 251 472 28 31 58 73 68 92 24 46 145 162 415 395 698 603 1463 1235
1496 1235 5 0 9 -13 9 -29z m-100 -1906 c22 -11 41 -39 71 -103 60 -123 117
-209 182 -270 71 -66 125 -91 197 -92 104 -1 129 -37 95 -137 -25 -73 -45
-199 -45 -285 0 -43 -2 -78 -5 -78 -8 0 -296 159 -329 182 -62 42 -138 124
-166 179 -16 31 -41 99 -55 150 -30 105 -77 231 -124 329 -35 73 -39 114 -13
129 27 16 159 13 192 -4z m-461 -1391 c242 -138 681 -515 732 -628 29 -62 -25
-38 -130 58 -76 70 -111 91 -111 66 0 -5 18 -66 40 -135 45 -140 45 -138 -5
-265 -18 -47 -39 -123 -46 -169 -15 -105 -7 -386 16 -556 35 -259 64 -357 185
-615 98 -207 167 -382 260 -655 83 -243 162 -454 270 -723 160 -397 165 -488
46 -795 -60 -154 -85 -202 -98 -189 -6 6 -15 61 -19 121 -9 122 -40 229 -92
321 -17 30 -79 128 -138 217 -219 333 -346 666 -399 1051 -29 209 -59 322
-129 476 -117 259 -341 758 -341 761 0 2 82 5 183 7 185 4 217 9 217 34 0 18
-82 59 -148 73 -148 31 -419 -12 -506 -80 l-27 -21 33 -42 c18 -24 61 -77 94
-119 149 -183 353 -577 419 -804 13 -48 57 -248 95 -443 112 -559 91 -504 321
-855 231 -354 314 -523 326 -666 8 -93 -7 -130 -65 -168 -70 -45 -194 -100
-397 -176 -218 -82 -381 -158 -478 -222 -40 -26 -126 -102 -192 -169 -125
-127 -168 -156 -280 -190 -75 -23 -363 -27 -433 -6 -66 20 -107 68 -137 162
-56 180 -33 226 245 473 268 238 387 373 467 532 45 89 131 347 139 417 13
120 -45 267 -378 963 -144 299 -214 455 -291 645 -30 74 -91 212 -135 305 -44
94 -101 231 -127 305 -26 74 -67 173 -93 220 -101 188 -112 224 -112 369 0
154 39 241 159 354 91 85 215 166 516 337 475 269 468 264 482 390 3 33 8 60
11 60 3 0 26 -12 51 -26z"/>
<path d="M2602 8827 c-27 -29 -28 -43 -3 -57 30 -15 66 -12 84 8 21 23 21 36
1 56 -22 23 -57 20 -82 -7z"/>
<path d="M1862 8140 c-113 -32 -220 -94 -377 -217 -194 -153 -291 -244 -282
-266 17 -45 100 -7 292 135 226 166 334 227 465 263 80 21 95 32 78 53 -14 16
-86 52 -103 51 -5 0 -39 -9 -73 -19z"/>
<path d="M2169 7731 c-31 -32 -36 -57 -16 -85 17 -23 72 -24 97 -1 39 35 16
115 -34 115 -10 0 -31 -13 -47 -29z"/>
<path d="M1540 8426 c-182 -80 -324 -170 -399 -252 -80 -87 -177 -267 -169
-313 3 -18 21 -6 122 79 225 189 556 494 556 511 0 16 -35 9 -110 -25z"/>
<path d="M3857 8085 c-124 -101 -329 -373 -315 -417 9 -25 323 282 388 380 58
88 16 109 -73 37z"/>
<path d="M440 7334 c-29 -9 -78 -41 -135 -89 -50 -41 -120 -98 -157 -126 -47
-36 -71 -62 -80 -88 -10 -26 -13 -118 -13 -346 0 -269 3 -319 18 -374 54 -189
160 -302 310 -330 57 -10 173 -5 182 9 2 3 -45 30 -104 58 -129 62 -173 102
-217 197 -58 127 -79 231 -78 395 0 162 13 229 67 339 50 102 178 217 270 242
46 12 55 31 34 74 -22 47 -43 55 -97 39z"/>
<path d="M4387 1043 c-4 -3 -7 -15 -7 -25 0 -25 -38 -97 -99 -188 -53 -77 -63
-110 -35 -110 57 0 168 104 211 195 31 70 26 101 -22 121 -40 16 -39 16 -48 7z"/>
</g>
</svg>
