<?xml version="1.0" standalone="no"?>
<!DOCTYPE svg PUBLIC "-//W3C//DTD SVG 20010904//EN"
 "http://www.w3.org/TR/2001/REC-SVG-20010904/DTD/svg10.dtd">
<svg version="1.0" xmlns="http://www.w3.org/2000/svg"
 width="568.000000pt" height="1319.000000pt" viewBox="0 0 568.000000 1319.000000"
 preserveAspectRatio="xMidYMid meet">

<g transform="translate(0.000000,1319.000000) scale(0.100000,-0.100000)"
fill="#000000" stroke="none">
<path d="M4824 13038 c-42 -34 -174 -157 -293 -273 -358 -349 -393 -375 -1456
-1100 -297 -203 -639 -438 -760 -523 -121 -85 -225 -156 -231 -159 -6 -2 -67
13 -135 33 -103 31 -140 37 -219 38 -88 1 -100 -1 -160 -31 -125 -61 -388
-299 -442 -399 -15 -28 -55 -133 -88 -233 -97 -294 -142 -370 -399 -691 -193
-240 -271 -356 -346 -512 -91 -190 -157 -420 -249 -878 -41 -201 -46 -239 -46
-359 l0 -135 48 -45 c53 -52 150 -104 232 -126 90 -24 386 -38 538 -26 358 29
552 113 972 421 119 87 185 128 194 119 3 -3 10 -38 16 -78 20 -143 119 -330
234 -445 85 -84 89 -93 141 -331 64 -291 105 -381 228 -500 169 -163 253 -357
191 -442 -11 -15 -55 -45 -97 -65 -88 -44 -110 -69 -166 -189 -78 -169 -113
-187 -436 -229 -257 -34 -333 -57 -585 -185 -293 -147 -1009 -568 -1075 -632
-24 -23 -60 -74 -80 -112 -85 -170 -85 -332 1 -524 76 -172 136 -327 176 -452
52 -168 116 -326 178 -445 121 -231 212 -415 253 -511 94 -219 131 -298 256
-547 70 -141 141 -291 156 -332 84 -228 7 -599 -172 -833 -72 -94 -167 -190
-435 -440 l-244 -228 12 -99 c22 -166 52 -277 86 -315 67 -77 209 -117 413
-117 268 -1 468 85 715 307 97 87 175 142 272 191 89 45 306 124 339 124 37 0
21 -43 -64 -170 -80 -119 -168 -203 -295 -282 -117 -73 -235 -162 -286 -217
l-30 -31 80 0 c68 0 90 5 154 33 196 87 410 252 560 432 234 282 591 779 646
899 65 143 49 457 -30 577 -115 173 -361 810 -451 1167 -42 171 -80 277 -157
451 -70 160 -110 281 -172 531 -25 102 -55 219 -67 260 -27 97 -29 227 -4 290
30 75 85 151 172 237 104 104 156 129 458 222 127 39 264 82 305 96 124 43
324 56 531 34 125 -12 164 -30 205 -90 35 -52 166 -339 247 -539 123 -305 160
-458 121 -502 -26 -29 -167 -94 -250 -115 -109 -28 -347 -23 -550 10 -287 48
-382 34 -472 -68 -68 -77 -49 -109 38 -65 69 35 71 34 149 -117 39 -76 109
-205 157 -288 136 -237 161 -285 188 -367 51 -150 73 -339 96 -813 30 -608 91
-979 206 -1257 79 -192 142 -388 155 -480 11 -77 10 -93 -5 -132 -35 -92 -181
-197 -463 -333 -107 -52 -152 -78 -138 -81 11 -2 76 -2 145 0 143 6 194 22
332 105 173 104 239 192 282 374 50 213 56 174 -65 419 -124 252 -151 317
-184 442 -44 171 -73 403 -140 1143 -20 215 -43 437 -51 495 -32 220 -77 332
-267 653 -64 107 -123 210 -132 228 l-17 32 108 -6 c273 -17 799 -92 910 -130
l71 -25 374 248 c206 136 404 273 441 304 76 63 115 123 134 204 23 98 48 477
48 727 0 287 -7 321 -110 533 -75 154 -85 199 -60 282 20 68 20 117 0 165 -9
22 -19 95 -25 178 -16 228 -47 480 -81 657 -27 144 -31 187 -32 340 -1 96 5
227 12 290 30 267 24 1251 -8 1425 -14 75 -76 207 -134 288 -55 78 -162 180
-245 236 -126 86 -257 132 -456 161 -196 29 -242 49 -392 168 -98 78 -146 130
-175 187 -23 43 -46 161 -63 315 -22 193 -34 229 -96 283 l-51 45 172 309
c438 781 447 796 598 1052 146 245 215 338 443 591 203 226 289 327 289 339 0
11 -25 21 -50 21 -10 0 -54 -28 -96 -62z m-698 -852 c8 -20 -26 -83 -230 -426
-209 -349 -322 -549 -397 -702 -60 -122 -53 -118 -203 -118 -111 0 -268 -16
-316 -32 -19 -6 -57 -27 -85 -45 -53 -37 -54 -37 -150 -3 -72 27 -141 23 -246
-14 -118 -41 -216 -103 -310 -196 -107 -106 -170 -200 -276 -409 -124 -245
-152 -275 -289 -307 -78 -18 -167 -14 -214 11 -28 15 -70 20 -70 10 0 -10 40
-78 65 -114 14 -19 25 -43 25 -54 0 -10 -18 -60 -40 -110 -54 -122 -77 -211
-100 -397 -10 -85 -28 -231 -40 -325 -20 -164 -52 -336 -86 -459 -21 -79 -6
-96 41 -45 40 44 89 188 130 379 14 69 32 150 38 180 l12 55 81 1 c68 0 91 5
147 32 87 40 168 103 254 197 85 91 103 122 83 135 -39 24 -202 -56 -287 -140
-35 -33 -79 -68 -98 -75 -35 -15 -111 -20 -139 -9 -51 20 33 279 149 459 43
67 131 162 168 181 35 19 42 12 51 -52 13 -96 118 -258 317 -489 120 -139 189
-227 189 -240 0 -6 -22 -46 -50 -90 -45 -72 -59 -105 -45 -105 13 0 62 30 99
59 57 46 81 41 162 -30 160 -141 285 -199 400 -185 30 3 105 20 165 37 60 16
113 27 119 24 5 -3 7 -77 3 -188 -9 -280 34 -571 103 -698 27 -49 102 -144
270 -343 84 -99 123 -160 111 -172 -10 -11 -62 16 -197 101 -272 170 -304 158
-100 -38 96 -93 233 -189 289 -204 28 -7 486 113 558 146 46 22 90 55 147 111
46 44 88 80 96 80 19 0 50 -30 50 -48 0 -8 -38 -53 -84 -101 -45 -47 -102
-111 -126 -141 -42 -53 -110 -182 -110 -207 0 -38 39 -17 153 83 92 82 253
177 346 205 40 12 45 11 57 -6 15 -21 19 -92 5 -114 -5 -7 -30 -17 -56 -22
-85 -16 -147 -82 -231 -246 -78 -153 -115 -323 -80 -368 32 -42 72 17 107 156
34 135 78 208 219 367 30 34 57 62 61 62 3 0 11 -52 18 -115 21 -193 75 -360
138 -422 54 -55 53 -35 -17 437 -16 113 -30 219 -30 236 0 47 -20 64 -100 85
-81 22 -141 53 -196 101 -54 48 -61 67 -33 90 23 17 23 19 7 32 -27 20 -22 44
28 131 153 268 220 475 231 720 7 159 -8 228 -64 284 -46 46 -53 34 -53 -99
-1 -378 -140 -780 -366 -1061 -89 -111 -221 -197 -349 -228 -90 -21 -112 -7
-244 156 -64 78 -153 186 -199 240 -173 203 -201 325 -237 1028 -37 719 -37
721 -88 757 -18 12 -68 56 -113 97 -76 72 -100 88 -186 124 -71 31 -175 194
-185 291 -7 68 20 166 103 369 158 387 183 416 350 397 109 -12 144 -38 257
-190 l55 -75 5 -345 c6 -399 4 -390 107 -705 38 -115 87 -274 109 -352 48
-168 80 -243 154 -356 131 -201 397 -481 428 -450 22 22 -36 120 -251 427 -39
55 -70 103 -70 107 0 14 58 39 153 67 50 15 91 32 90 37 0 15 -92 33 -205 41
-120 8 -124 12 -131 134 -5 90 -23 151 -96 324 -48 115 -131 359 -131 387 0
25 10 24 56 -8 21 -15 62 -42 89 -61 111 -77 245 -119 462 -147 155 -20 262
-47 340 -86 175 -88 327 -275 393 -484 l23 -70 1 -955 c1 -1010 0 -973 51
-1255 32 -178 38 -280 25 -415 -13 -141 -27 -218 -47 -248 -20 -33 -109 -71
-201 -88 -93 -16 -364 -18 -500 -3 -53 5 -189 25 -302 44 -113 19 -254 39
-315 45 -272 27 -336 43 -497 128 -111 57 -193 130 -224 196 -13 28 -20 54
-16 58 5 5 46 1 93 -7 46 -9 110 -19 142 -22 57 -6 59 -5 98 33 26 25 40 33
41 24 1 -8 3 -80 3 -160 l0 -145 37 1 c76 2 114 54 138 187 24 130 71 153 201
97 38 -16 98 -35 132 -41 77 -15 97 -35 97 -99 0 -26 5 -62 11 -81 15 -44 56
-99 74 -99 33 0 38 42 43 340 l5 295 -82 73 c-104 95 -107 100 -81 159 11 25
19 48 17 50 -2 2 -21 -4 -42 -12 -44 -19 -165 -23 -340 -13 l-120 8 164 -80
c289 -142 319 -174 344 -372 7 -60 10 -108 6 -108 -4 0 -85 40 -180 90 -94 49
-176 90 -180 90 -4 0 -29 -27 -56 -60 -26 -33 -51 -60 -54 -60 -13 0 -178 178
-194 210 -12 23 -20 71 -25 140 -8 111 -16 137 -75 229 -19 30 -55 107 -80
171 -42 107 -73 160 -94 160 -17 0 -167 -53 -194 -68 -15 -9 -30 -24 -33 -34
-8 -26 -59 -65 -135 -104 -94 -47 -104 -46 -123 19 -37 128 -47 228 -26 267
14 26 63 40 143 40 96 0 143 24 202 102 72 96 62 99 -87 31 -96 -43 -110 -47
-203 -51 -55 -2 -104 -8 -108 -12 -5 -4 -1 -22 8 -40 60 -117 -143 14 -234
151 -78 116 -109 245 -136 554 -23 280 -41 340 -139 472 -53 73 -82 85 -133
58 -18 -10 -33 -25 -33 -34 0 -9 16 -36 36 -61 70 -88 159 -285 179 -394 6
-39 5 -41 -63 -105 -83 -79 -358 -292 -495 -384 -227 -152 -588 -244 -922
-235 -182 6 -264 25 -336 81 -72 55 -84 78 -87 170 -3 90 9 132 102 353 56
135 78 219 111 437 33 214 62 315 130 452 69 138 158 257 360 482 288 318 293
328 404 721 58 204 71 230 158 312 79 76 258 213 309 237 24 12 38 13 70 4 56
-15 154 -76 248 -154 119 -98 157 -127 172 -127 20 0 94 70 94 89 0 9 -16 38
-35 65 -28 39 -32 52 -23 63 6 8 98 73 202 145 105 72 306 211 446 308 585
406 1048 719 1236 837 26 16 44 16 50 -1z m-1386 -1421 c17 -9 34 -22 37 -30
3 -8 -22 -63 -55 -122 -182 -323 -217 -485 -140 -649 26 -58 126 -160 292
-299 190 -158 217 -208 252 -445 18 -123 15 -234 -7 -285 -22 -51 -88 -132
-119 -145 -25 -10 -40 -9 -97 9 -37 11 -90 34 -118 52 -95 60 -578 560 -704
730 -131 174 -139 271 -44 543 106 306 326 577 526 648 59 21 128 18 177 -7z
m231 -3427 c32 -64 99 -230 99 -246 0 -10 -189 -99 -269 -127 -24 -8 -66 -15
-93 -15 -44 0 -53 4 -97 45 -54 51 -87 105 -78 129 3 8 47 36 96 60 110 54
164 91 239 161 31 30 60 54 64 55 4 0 22 -28 39 -62z m130 -453 c21 -13 51
-44 67 -67 40 -59 95 -169 87 -176 -3 -4 -70 -5 -148 -3 -141 2 -142 2 -166
-23 -14 -14 -28 -26 -32 -26 -31 0 -89 129 -89 196 0 26 9 40 47 73 25 23 60
45 77 51 46 14 115 3 157 -25z m28 -704 c142 -81 234 -106 531 -141 52 -6 228
-33 390 -60 408 -67 463 -73 640 -74 114 -1 179 4 247 18 101 20 123 18 123
-14 0 -30 48 -120 131 -245 l72 -110 -22 -340 c-35 -530 -54 -683 -95 -764
-24 -45 -86 -94 -217 -172 -68 -40 -194 -118 -279 -174 -85 -56 -165 -107
-177 -114 l-23 -12 0 93 c0 108 -20 200 -81 373 -85 244 -259 621 -349 758
-59 91 -144 171 -215 203 -136 63 -259 78 -385 48 -101 -23 -421 -133 -685
-234 -132 -51 -267 -99 -300 -108 -88 -23 -105 -12 -175 117 -116 213 -255
366 -394 434 -131 64 -103 74 234 87 343 13 438 38 540 143 60 61 66 80 49
147 -16 63 -17 62 107 90 51 12 123 38 165 59 41 21 76 39 78 40 2 0 42 -21
90 -48z m-1326 -611 c68 -43 131 -104 202 -195 197 -253 236 -374 167 -530
-46 -106 -66 -218 -67 -375 0 -112 4 -146 22 -201 19 -59 29 -116 64 -359 16
-109 56 -223 154 -430 96 -202 185 -422 210 -518 26 -101 101 -312 192 -537
113 -279 195 -502 238 -645 l35 -117 -71 -209 c-92 -271 -114 -317 -134 -284
-3 5 -14 62 -25 127 -35 210 -58 266 -185 443 -241 334 -371 662 -441 1111
-46 300 -54 324 -194 625 -115 245 -253 555 -264 590 -6 18 -1 22 31 28 21 3
85 6 143 6 173 1 239 22 192 61 -63 51 -256 72 -411 45 -85 -15 -233 -65 -254
-85 -5 -5 23 -42 61 -83 113 -122 240 -326 357 -573 116 -244 141 -332 240
-840 65 -333 67 -342 120 -452 29 -61 110 -203 181 -315 203 -324 272 -452
318 -590 35 -104 34 -158 -3 -200 -61 -69 -294 -186 -570 -284 -69 -25 -176
-70 -237 -99 -105 -51 -119 -62 -261 -197 -228 -219 -284 -247 -513 -255 -262
-10 -341 26 -386 175 -27 92 -29 152 -6 198 37 72 155 194 387 401 255 227
376 420 446 708 24 100 24 157 -1 267 -29 131 -105 314 -266 639 -169 341
-272 565 -354 770 -32 80 -89 210 -125 290 -116 249 -175 389 -187 442 -7 29
-45 117 -86 197 -101 199 -118 273 -91 402 37 176 182 329 479 505 383 226
696 372 801 373 33 0 57 -8 92 -30z"/>
<path d="M1762 8697 c-5 -7 -13 -22 -16 -34 -15 -48 -230 -229 -387 -326 -88
-55 -152 -78 -292 -108 -160 -33 -185 -64 -79 -95 172 -50 460 63 660 258 107
105 173 222 158 281 -7 29 -30 41 -44 24z"/>
<path d="M2825 8426 c-18 -27 -45 -145 -45 -199 0 -44 15 -77 34 -77 56 0 106
230 61 280 -23 26 -31 25 -50 -4z"/>
<path d="M3658 938 c-10 -7 -25 -31 -34 -53 -19 -46 -59 -107 -121 -183 -52
-64 -54 -82 -13 -82 97 0 219 138 220 246 0 54 -27 91 -52 72z"/>
</g>
</svg>
