<?xml version="1.0" standalone="no"?>
<!DOCTYPE svg PUBLIC "-//W3C//DTD SVG 20010904//EN"
 "http://www.w3.org/TR/2001/REC-SVG-20010904/DTD/svg10.dtd">
<svg version="1.0" xmlns="http://www.w3.org/2000/svg"
 width="607.000000pt" height="1274.000000pt" viewBox="0 0 607.000000 1274.000000"
 preserveAspectRatio="xMidYMid meet">

<g transform="translate(0.000000,1274.000000) scale(0.100000,-0.100000)"
fill="#000000" stroke="none">
<path d="M1095 12614 c-123 -29 -438 -209 -569 -325 -159 -140 -223 -414 -155
-660 52 -191 152 -337 388 -564 91 -88 218 -212 281 -275 209 -207 208 -221
-57 -750 -127 -254 -162 -307 -236 -354 -155 -99 -295 -270 -354 -432 -77
-214 -72 -627 10 -789 69 -138 84 -279 47 -454 -25 -118 -25 -199 0 -375 24
-169 105 -642 167 -981 51 -274 56 -359 30 -500 -9 -44 -27 -143 -42 -220 -55
-294 -46 -425 51 -767 78 -276 128 -479 164 -668 41 -219 63 -295 120 -420 27
-58 53 -132 59 -165 6 -33 15 -186 19 -340 10 -310 12 -321 77 -371 50 -38
138 -67 310 -104 82 -18 166 -40 185 -50 26 -13 54 -46 100 -116 82 -126 268
-315 356 -361 101 -54 99 -46 79 -225 -31 -287 -68 -459 -165 -763 -102 -318
-152 -559 -153 -725 0 -165 85 -553 169 -767 35 -92 36 -93 70 -93 19 0 34 3
34 8 0 4 -24 106 -54 227 -143 582 -140 800 21 1289 55 168 114 306 132 306 5
0 24 -37 41 -82 122 -325 163 -409 201 -416 15 -3 16 3 2 75 -8 43 -43 197
-78 343 -35 146 -73 312 -84 370 -20 108 -55 370 -49 374 2 2 59 20 127 40
190 57 240 87 415 252 l96 91 -59 27 c-73 32 -81 32 -81 0 0 -19 -17 -42 -58
-83 -138 -135 -357 -197 -523 -148 -159 47 -330 256 -391 477 -20 76 -23 107
-23 285 0 179 3 210 24 290 47 179 149 341 292 464 88 76 264 201 284 201 28
0 183 -79 242 -124 87 -66 203 -193 240 -262 51 -97 57 -148 58 -474 0 -208
-4 -321 -14 -383 -11 -68 -12 -90 -2 -100 33 -33 83 56 112 200 11 54 26 185
32 293 l12 195 95 7 c160 12 267 28 373 53 56 14 110 25 120 25 38 0 40 -38
12 -196 -53 -302 -101 -455 -225 -714 -141 -298 -180 -390 -285 -695 -107
-308 -201 -547 -265 -674 -79 -158 -163 -410 -195 -586 -24 -125 -17 -284 13
-343 12 -23 29 -42 37 -42 20 0 29 41 65 290 36 247 66 377 117 505 40 100 67
145 89 145 12 0 14 -33 14 -197 0 -333 -21 -475 -99 -671 -68 -170 -107 -321
-155 -604 l-7 -38 74 0 74 0 18 88 c22 116 77 326 125 489 77 256 80 275 91
563 5 146 8 366 8 490 l-1 225 62 190 c127 391 208 598 311 801 156 306 199
458 244 864 12 109 22 157 40 195 22 46 65 85 94 85 28 0 111 -96 210 -244
190 -284 204 -317 266 -631 69 -345 152 -563 259 -684 32 -35 76 -101 101
-152 64 -126 94 -115 82 29 -5 74 -40 178 -116 352 -65 150 -95 258 -126 464
-30 190 -40 222 -121 362 -121 211 -217 353 -311 460 -29 33 -59 77 -68 96 -8
20 -37 64 -65 99 -28 34 -49 68 -47 73 7 19 58 6 156 -39 152 -69 198 -80 346
-79 111 0 145 4 230 27 130 36 274 106 461 223 142 89 174 105 174 86 0 -4 7
-84 15 -177 20 -233 37 -592 30 -615 -4 -13 -19 -21 -43 -25 -20 -4 -43 -8
-49 -10 -21 -7 -51 -64 -79 -150 -62 -187 -141 -280 -219 -261 -56 14 -154
126 -216 245 -36 68 -59 88 -59 51 0 -37 59 -202 98 -275 30 -55 47 -74 82
-92 114 -60 246 6 357 180 53 83 82 117 98 117 15 0 57 -78 81 -150 26 -77 23
-213 -9 -435 -40 -280 -50 -438 -44 -703 5 -226 12 -299 64 -632 3 -25 7 -232
8 -460 1 -342 4 -434 18 -520 39 -235 103 -419 169 -488 31 -31 34 -32 116
-32 l85 0 -37 43 c-109 127 -160 226 -175 342 -16 123 -39 472 -51 760 -15
404 -33 646 -57 775 -21 115 -29 560 -14 746 7 76 23 187 36 246 33 140 32
181 -9 361 -48 210 -64 352 -81 716 -8 172 -20 353 -26 403 -6 49 -8 95 -6
102 3 7 43 31 90 54 47 23 87 49 90 57 13 31 -35 132 -94 199 -45 51 -84 147
-124 299 -45 176 -109 371 -219 663 -47 127 -86 239 -86 248 0 9 20 107 45
218 l45 201 -63 66 c-34 36 -86 91 -115 121 -85 89 -88 102 -101 360 -6 124
-16 273 -22 333 l-12 107 -100 0 c-75 0 -98 -3 -94 -13 2 -6 19 -57 38 -112
30 -90 33 -112 33 -220 1 -112 -1 -124 -27 -177 -51 -104 -125 -141 -397 -198
-212 -44 -303 -55 -485 -55 -132 0 -177 3 -199 15 -48 25 -52 40 -26 117 21
66 22 71 6 104 -17 37 -191 216 -241 249 -39 26 -81 26 -88 1 -5 -22 17 -70
127 -268 45 -82 75 -147 70 -154 -5 -9 -44 -10 -153 -6 -284 13 -474 67 -583
165 -23 20 -65 73 -94 117 -29 44 -70 97 -91 119 -53 54 -83 97 -83 118 0 9
12 29 28 43 34 32 138 85 167 85 12 0 51 -19 86 -42 81 -52 169 -93 239 -112
82 -21 86 -5 15 61 -57 52 -311 273 -347 302 -16 12 -30 2 -126 -88 -60 -56
-114 -101 -119 -101 -6 0 -111 48 -234 106 -313 148 -359 164 -372 132 -16
-42 90 -142 251 -237 136 -81 196 -126 349 -263 130 -116 163 -159 163 -210 0
-37 -98 -243 -189 -395 -94 -158 -107 -243 -66 -433 75 -356 75 -449 -5 -825
-21 -99 -48 -241 -59 -315 -54 -339 -78 -431 -142 -531 -135 -211 -305 -281
-376 -155 -36 66 -46 181 -40 475 5 268 16 381 62 661 38 235 48 372 36 528
-13 162 -27 562 -41 1157 -14 576 -29 971 -41 1080 -7 65 -18 107 -40 150 -40
81 -51 123 -38 146 5 11 15 19 21 19 6 0 75 -25 154 -55 326 -125 434 -138
634 -73 122 40 171 86 185 175 12 83 41 103 566 392 l46 25 114 -78 c218 -149
410 -323 426 -384 7 -31 -4 -41 -102 -92 -108 -57 -245 -162 -381 -293 -131
-126 -177 -187 -168 -226 11 -45 54 -111 73 -111 11 0 44 36 86 93 125 168
431 457 485 457 24 0 64 -47 98 -115 25 -51 51 -126 138 -394 24 -76 28 -74
-99 -66 -91 6 -120 4 -150 -8 -39 -17 -99 -73 -242 -229 l-90 -97 -105 43
c-135 55 -214 95 -325 166 -151 96 -185 109 -185 69 0 -31 118 -143 226 -214
49 -33 145 -87 212 -120 l123 -60 92 49 c122 65 186 116 293 230 l89 95 110
-42 110 -42 7 -75 c4 -41 11 -136 17 -211 6 -74 17 -155 24 -180 28 -95 70
-29 87 135 16 156 0 307 -46 444 -28 84 -37 130 -43 223 -10 133 -14 145 -126
299 -116 160 -129 201 -91 281 19 41 50 59 104 59 53 1 117 16 189 46 34 14
74 24 90 22 26 -3 29 -9 45 -70 31 -127 50 -283 55 -463 6 -197 -1 -245 -42
-289 -14 -15 -25 -31 -25 -36 0 -4 20 -34 44 -67 83 -111 98 -155 156 -454 22
-111 42 -204 45 -207 6 -6 10 5 37 123 29 130 30 237 0 328 -42 130 -70 337
-107 782 -26 313 -42 405 -76 441 -11 11 -57 41 -103 65 l-84 44 -93 -72 c-52
-39 -107 -85 -123 -102 -54 -57 -118 -41 -216 53 -106 102 -336 247 -457 287
-35 11 -68 29 -73 39 -6 10 -10 41 -10 68 0 48 27 222 35 230 3 3 22 -11 44
-31 66 -60 95 -70 176 -64 77 6 147 27 153 45 5 16 -42 35 -148 62 -112 28
-245 93 -350 169 -46 34 -86 58 -88 53 -1 -5 10 -43 26 -83 60 -151 69 -268
28 -353 -36 -73 -132 -161 -253 -232 -207 -121 -242 -151 -297 -261 -34 -69
-82 -123 -126 -141 -21 -9 -83 -16 -160 -19 -267 -11 -534 57 -764 196 -115
70 -156 83 -213 71 -129 -29 -205 -115 -264 -297 -12 -40 -20 -76 -16 -80 15
-14 76 30 117 86 23 31 61 93 83 139 23 45 45 82 48 82 10 0 153 -85 191 -113
41 -30 55 -61 64 -138 4 -35 16 -82 28 -104 20 -39 21 -56 24 -483 5 -600 -5
-696 -89 -888 -48 -109 -154 -277 -172 -272 -11 4 -27 24 -93 114 -17 22 -25
26 -34 17 -35 -33 -16 -170 41 -289 35 -74 113 -164 141 -164 20 0 21 4 14 92
-8 121 6 150 127 263 50 47 94 85 98 85 11 0 -2 -123 -18 -160 -8 -19 -30 -58
-50 -87 -55 -81 -54 -109 10 -308 78 -240 91 -314 84 -505 -3 -97 -15 -210
-30 -300 -35 -204 -47 -378 -53 -805 l-5 -372 58 -50 c32 -27 86 -71 120 -97
l62 -48 -19 -49 c-11 -26 -26 -65 -35 -85 -45 -108 -75 -307 -75 -498 0 -76
-4 -110 -18 -136 -17 -34 -18 -35 -77 -34 -79 2 -216 46 -259 85 -74 64 -85
153 -61 478 l18 239 -76 86 c-124 140 -128 149 -222 613 -36 177 -88 409 -115
517 -59 233 -74 343 -67 496 8 183 40 230 106 155 39 -44 59 -86 101 -200 63
-173 104 -234 148 -218 23 9 12 91 -33 245 -41 140 -97 303 -109 315 -2 2 -23
-6 -46 -19 -40 -22 -41 -22 -55 -4 -24 32 -28 123 -19 411 15 475 14 485 -40
485 -61 0 -103 73 -121 215 -17 124 -31 179 -99 388 l-53 162 43 255 c55 325
56 364 5 523 -54 167 -71 265 -71 416 0 229 28 333 133 489 74 111 261 312
290 312 20 0 88 112 211 347 103 198 163 301 201 348 l24 30 71 -19 c39 -10
73 -16 76 -13 3 2 -17 40 -44 83 -27 44 -84 144 -127 224 -142 264 -134 256
-415 416 -53 30 -111 74 -152 116 -57 57 -78 88 -128 192 -75 153 -109 280
-117 431 -7 135 7 228 47 311 97 199 395 348 725 361 154 6 243 -9 350 -61
276 -132 731 -764 780 -1082 12 -81 -60 -312 -126 -403 -46 -65 -118 -93 -283
-112 -128 -15 -432 -6 -550 15 -49 9 -91 15 -93 12 -7 -6 133 -98 203 -134 33
-17 87 -38 119 -48 77 -22 219 -22 305 -1 94 24 251 106 359 187 137 103 127
101 157 33 37 -86 51 -108 69 -111 9 -2 78 10 153 27 75 16 236 49 357 72 121
24 221 44 223 45 2 1 -4 16 -13 33 -19 37 -128 121 -157 121 -11 0 -46 -16
-77 -35 -74 -46 -155 -62 -356 -71 l-162 -7 -8 199 c-10 274 -29 362 -115 534
-43 86 -201 323 -286 430 -97 122 -287 308 -369 362 -129 85 -298 129 -489
127 -61 0 -138 -7 -171 -15z m1627 -5914 c108 -52 195 -88 258 -104 173 -44
641 -96 866 -96 158 0 278 19 564 90 231 57 320 71 320 49 0 -23 -113 -123
-171 -151 -128 -62 -437 -130 -684 -150 -109 -9 -179 -9 -292 0 -181 14 -253
27 -547 99 l-230 55 -19 -23 c-26 -32 -124 -228 -153 -307 -32 -85 -31 -127 6
-186 33 -52 51 -55 62 -10 55 219 108 375 137 407 16 16 21 16 76 2 69 -18
229 -81 263 -103 33 -22 27 -53 -24 -121 -63 -85 -161 -172 -359 -321 -177
-133 -212 -164 -197 -174 20 -12 158 36 289 103 165 83 290 205 373 365 l45
86 226 0 c357 0 606 27 849 91 125 33 262 93 297 131 12 13 25 42 28 63 3 22
8 46 10 53 10 29 63 5 194 -88 l63 -44 -6 -46 c-3 -25 -22 -115 -42 -200 -53
-231 -54 -207 11 -350 154 -338 251 -628 275 -815 10 -76 32 -130 96 -235 18
-30 35 -64 36 -75 2 -17 -41 -51 -227 -176 -429 -290 -460 -304 -685 -302
-143 0 -260 17 -419 59 -132 34 -143 47 -97 115 36 52 120 104 250 154 214 80
301 163 361 343 29 87 37 134 25 152 -14 22 -59 -25 -143 -150 -81 -120 -146
-193 -185 -208 -15 -6 -71 -22 -124 -37 -125 -33 -251 -81 -271 -103 -10 -11
-25 -81 -42 -189 -32 -209 -46 -261 -82 -295 -85 -82 -438 -190 -668 -204
l-90 -6 -43 109 c-23 59 -59 134 -80 165 -119 183 -294 283 -514 295 -53 3
-102 9 -108 13 -9 5 0 57 33 191 95 388 168 712 179 791 15 117 4 350 -27 553
-45 297 -44 470 5 565 27 54 55 70 118 70 36 0 54 4 58 14 3 8 -1 48 -9 90 -7
42 -10 76 -6 76 4 0 81 -36 171 -80z"/>
<path d="M4490 6029 c-304 -32 -827 -155 -994 -233 -81 -38 -140 -91 -116
-106 19 -11 27 -10 365 76 356 89 478 113 620 120 190 10 185 1 -57 -100 -117
-49 -253 -109 -302 -134 -157 -78 -345 -202 -366 -242 -10 -19 -9 -20 17 -14
41 11 180 68 423 177 118 52 286 125 372 161 253 105 248 101 250 206 2 105
-11 111 -212 89z"/>
<path d="M4690 5454 c-141 -38 -451 -92 -705 -123 -707 -85 -775 -95 -782
-118 -18 -53 263 -51 762 5 419 47 478 56 589 83 147 37 247 94 282 162 19 35
16 35 -146 -9z"/>
<path d="M3572 11160 c-78 -11 -134 -39 -146 -72 -22 -61 10 -68 203 -48 110
12 234 0 315 -30 172 -65 315 -205 527 -520 88 -130 201 -258 278 -314 25 -19
109 -68 186 -111 289 -159 440 -303 505 -483 61 -168 101 -463 101 -747 1
-246 -8 -301 -114 -675 -71 -255 -84 -449 -47 -710 10 -74 17 -137 15 -139 -5
-4 -20 2 -228 93 -129 57 -221 85 -234 73 -12 -13 50 -67 168 -147 227 -154
279 -222 279 -364 0 -92 -26 -198 -90 -371 -22 -59 -40 -112 -40 -116 0 -21
34 -6 75 32 57 53 105 132 149 245 60 155 70 229 71 494 0 203 -3 254 -24 371
-23 136 -23 138 -6 240 9 57 37 185 62 284 114 462 131 622 98 935 -20 199
-60 446 -84 515 -27 81 -108 193 -216 300 -108 108 -220 189 -385 280 -187
102 -224 138 -420 415 -288 404 -401 503 -628 550 -111 22 -284 32 -370 20z"/>
<path d="M3309 10902 c-24 -16 -107 -86 -184 -156 -264 -242 -372 -318 -449
-320 -62 -1 -95 29 -152 136 -48 91 -100 160 -135 178 -25 14 -49 2 -49 -25 0
-70 138 -355 199 -409 42 -38 162 -3 343 100 123 70 270 130 467 189 328 99
355 138 80 114 -82 -7 -152 -9 -156 -5 -4 4 3 26 16 49 96 171 100 200 20 149z"/>
<path d="M1623 10614 c-11 -30 170 -195 294 -268 83 -49 245 -101 376 -121
129 -20 145 -14 93 38 -93 93 -370 245 -576 315 -149 50 -179 56 -187 36z"/>
<path d="M3483 10560 c-32 -13 -29 -25 15 -55 111 -76 392 -113 392 -52 0 25
-56 67 -115 88 -67 23 -254 36 -292 19z"/>
<path d="M4053 10198 c4 -57 12 -215 19 -352 l12 -250 -50 -44 c-61 -55 -183
-146 -258 -191 -34 -21 -61 -47 -71 -67 -8 -17 -24 -94 -35 -170 -11 -77 -25
-154 -30 -173 -5 -19 -7 -37 -4 -40 2 -3 37 27 77 66 78 76 103 93 139 93 13
0 32 6 42 13 29 21 11 52 -55 99 -32 23 -59 45 -59 49 0 8 323 169 337 169 14
-1 88 -101 133 -178 53 -93 122 -248 154 -349 42 -130 54 -216 111 -823 29
-309 63 -530 83 -537 24 -10 106 83 299 338 l110 146 2 89 c4 183 -33 529 -79
749 -32 154 -50 294 -40 319 7 19 25 26 112 45 202 45 313 73 348 90 42 19 51
46 18 54 -61 15 -223 16 -423 3 l-220 -13 -160 105 c-102 68 -188 134 -236
182 -68 67 -79 83 -98 143 -11 37 -27 124 -36 194 -17 139 -31 204 -51 243
-16 30 -78 100 -89 100 -4 0 -5 -46 -2 -102z m334 -771 c60 -39 146 -95 193
-124 229 -138 247 -203 271 -968 l11 -360 -88 -82 c-48 -46 -91 -83 -95 -83
-18 0 -36 178 -69 703 l-20 317 -150 299 c-165 332 -183 371 -170 371 6 0 58
-33 117 -73z"/>
<path d="M1315 10226 c-40 -40 -34 -86 16 -141 23 -25 47 -45 55 -45 24 0 57
60 58 106 2 87 -74 134 -129 80z"/>
<path d="M2250 10146 c-110 -34 -200 -71 -334 -138 -216 -108 -278 -156 -351
-273 -84 -134 -197 -412 -212 -521 -11 -83 17 -48 109 137 176 352 206 395
331 473 173 108 373 183 584 220 74 13 136 25 138 28 3 2 -23 25 -57 51 -72
55 -94 58 -208 23z"/>
<path d="M993 9663 c-21 -3 -33 -10 -33 -20 0 -25 81 -133 105 -139 63 -16
294 120 261 154 -8 8 -282 12 -333 5z"/>
<path d="M3074 8685 c-14 -22 -16 -38 -9 -103 5 -42 9 -101 9 -130 l1 -53 -81
-77 c-89 -84 -123 -130 -178 -240 -25 -49 -45 -76 -61 -82 -27 -10 -90 -1
-183 26 -65 18 -75 12 -96 -59 -19 -65 -62 -134 -120 -191 -73 -73 -94 -80
-233 -81 -67 0 -124 -3 -128 -7 -15 -14 5 -39 60 -74 156 -99 276 -82 424 62
l64 63 -6 91 -7 91 63 -7 c116 -12 202 -33 271 -69 38 -19 71 -34 72 -32 2 2
-3 46 -12 98 -10 68 -12 103 -5 122 13 32 92 96 211 167 51 30 105 66 122 80
l30 26 -41 149 c-23 83 -47 163 -53 178 -30 76 -83 100 -114 52z"/>
<path d="M2675 8353 c-50 -11 -65 -25 -65 -64 0 -45 19 -59 78 -59 51 0 100
18 112 40 16 30 12 68 -9 80 -19 10 -77 12 -116 3z"/>
<path d="M2110 8040 c-72 -9 -120 -25 -120 -39 0 -11 72 -29 148 -37 40 -5 75
-1 113 10 59 17 108 50 96 63 -12 11 -158 13 -237 3z"/>
<path d="M570 7706 c0 -21 90 -285 111 -328 39 -76 89 -28 89 84 0 68 -38 136
-115 206 -57 52 -85 65 -85 38z"/>
<path d="M3600 6923 c0 -80 105 -168 234 -198 121 -28 112 11 -26 115 -78 60
-168 110 -195 110 -8 0 -13 -12 -13 -27z"/>
<path d="M555 4612 c-82 -39 -196 -137 -272 -235 -245 -315 -296 -845 -118
-1217 107 -221 266 -352 462 -380 87 -12 191 2 260 36 47 23 74 56 59 71 -3 4
-86 12 -183 19 -229 16 -298 39 -391 135 -144 147 -242 498 -212 755 31 255
157 485 350 635 196 153 213 169 197 185 -17 17 -113 14 -152 -4z"/>
<path d="M2955 2983 l-86 -88 79 -5 c91 -6 117 -20 161 -84 35 -50 61 -66 61
-36 0 52 -99 300 -119 300 -5 0 -48 -39 -96 -87z"/>
<path d="M4471 2358 c-48 -127 -82 -720 -50 -868 12 -59 77 -216 139 -339 53
-106 138 -303 166 -384 55 -160 66 -465 28 -724 l-7 -43 51 0 c49 0 51 1 64
37 17 50 17 524 -1 676 -15 133 -37 206 -111 366 -131 285 -173 486 -190 896
-11 260 -21 345 -45 381 -19 30 -33 30 -44 2z"/>
<path d="M2815 2345 c-5 -2 -22 -6 -38 -9 -32 -8 -67 -39 -67 -61 0 -22 76
-55 128 -55 29 0 58 9 87 25 56 33 69 49 53 62 -24 19 -139 46 -163 38z"/>
</g>
</svg>
