<?xml version="1.0" standalone="no"?>
<!DOCTYPE svg PUBLIC "-//W3C//DTD SVG 20010904//EN"
 "http://www.w3.org/TR/2001/REC-SVG-20010904/DTD/svg10.dtd">
<svg version="1.0" xmlns="http://www.w3.org/2000/svg"
 width="866.000000pt" height="953.000000pt" viewBox="0 0 866.000000 953.000000"
 preserveAspectRatio="xMidYMid meet">

<g transform="translate(0.000000,953.000000) scale(0.100000,-0.100000)"
fill="#000000" stroke="none">
<path d="M2700 9398 c-143 -13 -333 -55 -407 -88 -93 -43 -158 -96 -240 -197
-106 -131 -176 -249 -228 -386 -26 -67 -65 -169 -87 -227 -65 -168 -129 -273
-268 -430 -79 -89 -152 -202 -185 -284 -24 -63 -27 -79 -23 -160 4 -69 11
-104 30 -146 55 -121 165 -231 285 -288 51 -24 70 -27 162 -27 l104 0 24 -45
c53 -99 211 -221 458 -349 377 -197 502 -332 757 -814 285 -540 369 -639 694
-819 64 -35 94 -57 94 -69 0 -56 -126 -329 -232 -504 -30 -49 -92 -142 -137
-205 -129 -178 -344 -552 -385 -667 -13 -37 -13 -42 0 -47 27 -10 82 21 113
64 17 23 57 97 90 164 126 257 233 390 466 576 180 144 234 195 219 209 -5 6
-46 0 -103 -15 -52 -13 -96 -23 -97 -21 -4 4 133 338 143 348 8 8 32 1 81 -20
83 -36 86 -37 72 -12 -34 65 -188 210 -420 396 -256 206 -275 230 -445 560
-124 240 -214 389 -320 531 -155 205 -276 306 -530 439 -210 110 -306 179
-369 265 -58 79 -73 135 -57 214 26 127 94 220 352 485 94 97 187 199 206 226
19 29 48 96 68 160 19 61 57 182 84 270 56 179 80 223 199 355 40 44 92 111
116 148 63 98 170 192 220 192 44 0 169 -221 208 -365 16 -61 21 -112 22 -210
1 -159 0 -162 -142 -464 l-105 -224 17 -161 c38 -346 79 -553 113 -564 36 -11
44 227 16 531 l-16 188 116 237 c137 278 162 354 153 478 -11 156 -73 338
-154 456 -40 58 -130 141 -180 167 -59 30 -118 28 -173 -8 -42 -26 -286 -295
-417 -460 -60 -75 -117 -187 -157 -311 -101 -310 -169 -443 -299 -580 -208
-220 -326 -391 -369 -536 -8 -28 -25 -70 -37 -93 -20 -40 -23 -42 -53 -36 -52
11 -158 72 -223 128 -114 97 -171 180 -181 267 -7 63 15 104 174 313 280 367
311 423 388 697 28 100 44 138 82 194 111 163 246 317 303 346 29 14 134 50
308 104 34 11 28 -12 -33 -130 -31 -59 -55 -108 -53 -109 4 -4 31 -8 49 -6 28
2 116 88 153 150 58 95 62 97 151 78 90 -20 127 -21 143 -5 30 30 -1 99 -56
127 -48 24 -134 31 -252 19z"/>
<path d="M2323 9139 c-33 -12 -159 -169 -136 -169 17 0 190 62 232 83 25 12
47 27 48 33 7 23 -110 66 -144 53z"/>
<path d="M3098 8929 c-44 -25 -6 -91 64 -110 40 -10 99 -1 105 17 6 19 -39 66
-81 85 -47 21 -64 23 -88 8z"/>
<path d="M2313 8887 c-51 -55 -64 -95 -55 -172 l8 -60 57 113 c79 158 75 211
-10 119z"/>
<path d="M3283 8753 c-46 -66 -77 -228 -54 -286 14 -36 46 -33 75 6 19 26 21
42 21 164 0 146 -7 166 -42 116z"/>
<path d="M2474 7391 c-75 -41 -112 -68 -181 -135 -83 -79 -82 -93 3 -61 122
46 184 87 237 156 53 70 27 88 -59 40z"/>
<path d="M3362 7158 c-31 -31 -6 -98 71 -188 60 -70 697 -722 982 -1005 336
-333 463 -473 563 -620 52 -78 61 -102 68 -189 11 -123 -6 -197 -115 -506 -27
-79 -48 -165 -66 -275 -71 -448 -93 -521 -260 -875 -147 -312 -178 -390 -152
-390 21 0 101 89 151 167 148 235 271 570 346 948 26 128 105 420 150 550 40
119 80 271 80 310 0 48 -28 144 -64 220 -64 136 -129 222 -302 404 -54 57
-130 142 -168 190 -92 116 -135 159 -241 246 -102 83 -231 213 -357 360 -100
115 -290 303 -429 423 -103 88 -165 156 -193 210 -17 33 -43 41 -64 20z"/>
<path d="M1930 6862 c0 -5 47 -63 104 -130 195 -226 228 -283 345 -602 90
-242 146 -357 214 -440 65 -79 128 -127 300 -232 147 -88 171 -110 164 -148
-27 -132 -105 -244 -324 -465 -284 -285 -507 -611 -491 -716 3 -21 33 -49 41
-39 2 3 58 86 125 185 148 221 225 313 411 492 172 165 247 256 306 372 54
109 62 115 125 108 37 -4 50 -3 50 6 0 26 -200 192 -355 295 -164 108 -254
188 -299 264 -14 24 -59 147 -101 273 -80 244 -137 373 -208 470 -60 82 -153
175 -223 222 -92 62 -184 105 -184 85z"/>
<path d="M3685 6298 c14 -45 76 -137 148 -219 99 -114 172 -212 312 -419 181
-268 215 -303 215 -222 0 110 -235 471 -460 706 -145 151 -233 214 -215 154z"/>
<path d="M4180 5988 c0 -15 45 -92 83 -143 38 -51 129 -145 139 -145 4 0 8 10
8 23 0 38 -59 128 -134 204 -68 69 -96 87 -96 61z"/>
<path d="M4490 5562 c0 -54 264 -407 332 -443 29 -16 32 -6 14 53 -32 109
-103 237 -169 303 -86 86 -177 131 -177 87z"/>
<path d="M4070 5309 c0 -6 50 -62 110 -125 61 -62 115 -125 120 -139 28 -75
-10 -207 -125 -430 -71 -140 -85 -175 -67 -175 21 0 109 67 177 133 90 89 130
165 147 284 11 78 11 83 -18 169 -16 49 -40 101 -53 117 -28 33 -143 112 -218
151 -57 28 -73 32 -73 15z"/>
<path d="M3443 5168 c-4 -7 -8 -51 -8 -98 0 -77 -4 -94 -41 -180 -23 -52 -46
-115 -53 -140 -18 -69 -29 -140 -22 -140 13 1 178 222 209 280 35 67 42 130
21 204 -18 65 -82 110 -106 74z"/>
<path d="M4582 4663 c-96 -98 -331 -403 -374 -486 l-19 -38 23 12 c64 33 347
350 412 461 60 103 37 130 -42 51z"/>
<path d="M7315 4499 c-145 -21 -273 -107 -331 -222 -14 -27 -39 -88 -56 -135
-35 -101 -57 -140 -112 -200 -57 -63 -125 -94 -214 -100 -40 -3 -75 -9 -78
-14 -10 -16 34 -54 78 -67 22 -7 89 -35 149 -62 414 -190 575 -323 544 -446
-9 -39 -82 -106 -205 -189 -159 -107 -133 -103 -257 -40 -60 30 -118 58 -130
61 -55 15 -10 -37 119 -138 37 -28 67 -57 68 -63 0 -6 -27 -47 -61 -92 -74
-99 -81 -102 -344 -178 -333 -97 -568 -193 -840 -344 -96 -54 -184 -95 -220
-104 -33 -8 -152 -22 -265 -31 -113 -8 -228 -18 -256 -21 l-51 -6 -8 78 c-14
148 -75 263 -220 410 -115 116 -124 101 -34 -61 118 -212 159 -314 159 -397 0
-40 -23 -98 -40 -98 -13 0 -18 22 -39 182 -22 163 -31 191 -64 186 -37 -5 -42
-53 -28 -246 6 -96 10 -175 9 -177 -2 -1 -86 -41 -188 -89 -272 -129 -468
-209 -717 -292 -229 -76 -330 -120 -454 -200 -120 -78 -282 -148 -549 -238
-140 -47 -263 -86 -273 -86 -11 0 -55 25 -99 56 -93 65 -192 114 -230 114 -66
0 -77 -32 -25 -76 17 -16 76 -60 130 -98 53 -38 97 -75 97 -82 0 -30 -136
-126 -345 -244 -241 -136 -262 -149 -296 -187 -19 -21 -54 -76 -78 -122 l-43
-83 43 -45 c151 -154 350 -212 684 -200 163 6 210 16 485 101 183 56 287 83
379 96 94 13 194 55 309 130 155 100 252 206 252 275 0 69 37 78 460 105 173
11 362 25 420 31 241 23 482 79 645 151 241 107 243 107 525 174 63 14 126 32
140 39 56 28 200 49 475 70 294 21 455 58 716 163 235 94 409 189 567 309 49
37 138 95 196 128 181 100 262 192 307 345 19 66 22 106 26 332 l5 257 57 22
c153 62 267 272 337 618 21 106 15 162 -31 317 -72 239 -92 282 -165 355 -146
148 -305 222 -687 318 -141 36 -183 44 -273 55 -14 1 -47 -1 -75 -5z m230
-179 c520 -100 684 -182 793 -400 l37 -74 0 -261 c0 -211 -4 -276 -18 -345
-22 -104 -63 -194 -112 -249 -59 -65 -92 -57 -218 58 -70 63 -145 111 -233
147 -92 37 -182 93 -332 206 -203 154 -336 239 -480 309 l-122 59 48 73 c68
100 108 183 133 274 12 43 26 87 31 98 23 45 80 104 120 124 37 19 53 22 121
16 43 -3 148 -19 232 -35z m10 -1145 c164 -53 277 -123 379 -236 105 -117 142
-234 133 -429 -12 -261 -108 -430 -294 -517 -86 -41 -125 -68 -227 -161 -136
-125 -241 -183 -490 -273 -286 -104 -559 -165 -798 -179 -200 -12 -292 -24
-429 -55 -72 -17 -131 -24 -185 -23 -87 2 -127 -11 -394 -132 -325 -148 -539
-196 -1013 -226 -204 -14 -260 -15 -270 -5 -15 16 -5 24 138 103 132 74 185
108 185 119 0 16 -113 10 -180 -10 -90 -26 -198 -73 -266 -116 -77 -50 -153
-123 -291 -282 -63 -73 -143 -154 -176 -179 -108 -82 -134 -90 -582 -200 -104
-25 -228 -58 -275 -74 -266 -88 -473 -86 -706 5 -189 74 -185 92 56 258 52 36
159 104 238 151 177 106 264 167 292 206 30 42 130 86 370 165 247 82 404 147
506 210 175 109 320 178 549 260 167 60 449 169 861 333 l350 140 375 4 c264
2 380 6 394 15 19 11 19 12 -7 22 -15 6 -57 16 -94 22 -36 6 -62 15 -57 19 20
17 268 159 368 210 147 75 251 112 485 171 107 27 218 56 245 65 59 19 138 91
223 204 87 116 179 208 268 265 95 61 153 119 161 157 7 37 24 36 158 -7z"/>
<path d="M6990 2228 c-78 -22 -60 -32 135 -79 149 -35 306 -49 330 -29 24 20
18 54 -13 72 -67 40 -357 63 -452 36z"/>
<path d="M7142 2039 c-36 -18 -98 -64 -151 -114 -49 -46 -109 -96 -132 -111
-59 -37 -176 -78 -286 -100 -50 -10 -90 -21 -88 -25 3 -3 32 -12 65 -19 76
-16 317 -8 375 12 30 11 69 46 154 139 135 146 202 230 195 241 -11 17 -74 7
-132 -23z"/>
<path d="M6405 1925 c-170 -45 -318 -116 -426 -204 -91 -73 -163 -146 -158
-159 2 -6 32 4 69 22 36 18 116 59 179 90 62 32 178 84 258 116 80 32 163 70
184 85 41 26 51 58 23 69 -23 9 -29 8 -129 -19z"/>
<path d="M5080 1660 c-14 -5 -45 -14 -70 -21 l-45 -12 31 -13 c18 -7 85 -22
151 -33 66 -12 172 -32 237 -45 123 -25 170 -23 196 9 17 21 8 30 -58 53 -131
48 -385 84 -442 62z"/>
<path d="M5625 4120 c-60 -13 -92 -27 -180 -78 -111 -65 -198 -152 -152 -152
7 0 45 15 84 34 146 70 209 88 334 93 86 4 137 1 199 -11 90 -19 366 -108 383
-125 6 -6 -6 -19 -38 -38 -111 -65 -241 -181 -222 -199 5 -6 85 28 247 103
103 47 120 65 120 124 0 63 -14 92 -59 117 -55 31 -270 99 -369 117 -105 19
-292 27 -347 15z"/>
<path d="M2015 4036 c-23 -7 -49 -17 -59 -23 -16 -9 -16 -11 -2 -25 8 -9 63
-33 123 -53 137 -48 259 -109 382 -190 114 -74 250 -148 306 -165 64 -20 63
-16 48 -155 -16 -145 -37 -210 -93 -286 -60 -82 -92 -154 -94 -211 -1 -34 3
-52 12 -56 8 -2 77 61 163 149 l149 154 0 193 c0 105 2 192 5 192 3 0 40 -17
83 -38 42 -22 136 -62 207 -90 376 -148 439 -174 523 -216 50 -25 160 -92 244
-147 149 -99 335 -197 411 -218 79 -21 115 30 66 93 -50 64 -479 314 -719 420
-245 108 -546 215 -750 267 -140 35 -231 79 -415 200 -285 186 -458 246 -590
205z"/>
<path d="M4974 3925 c-9 -23 24 -55 58 -55 32 0 37 19 11 42 -29 25 -62 32
-69 13z"/>
<path d="M5132 3858 c-7 -18 -37 -62 -68 -98 -91 -106 -101 -97 119 -103 300
-7 537 -60 617 -138 32 -32 44 -55 70 -141 34 -111 90 -241 109 -252 18 -12
47 3 59 30 27 58 6 229 -39 316 -45 88 -232 256 -344 310 -50 23 -73 28 -139
28 l-78 0 16 -22 c38 -53 32 -74 -12 -40 -59 47 -79 54 -112 37 -47 -25 -78
-20 -98 16 -25 45 -62 89 -76 89 -7 0 -17 -15 -24 -32z"/>
<path d="M2041 3838 c-5 -13 -14 -41 -20 -64 -6 -22 -38 -83 -71 -135 -144
-225 -221 -412 -365 -894 -65 -218 -90 -275 -125 -292 -14 -7 -77 -29 -140
-49 -144 -45 -429 -151 -546 -201 -98 -43 -214 -118 -404 -261 -150 -114 -360
-293 -360 -307 0 -18 93 -128 129 -152 53 -36 107 -46 236 -46 86 0 145 7 206
21 98 24 252 45 449 62 223 20 462 91 612 182 46 28 88 52 95 55 6 3 74 -46
150 -109 322 -264 554 -400 707 -415 71 -6 156 3 156 18 0 14 -140 113 -324
229 -372 233 -438 280 -531 374 -75 75 -100 108 -142 191 -60 118 -113 267
-120 339 -5 60 6 101 147 536 54 168 108 341 120 385 26 99 62 165 118 220 79
79 92 102 92 169 -1 66 -27 157 -47 164 -7 2 -17 -7 -22 -20z m-527 -1540 c32
-48 147 -393 139 -413 -9 -22 -159 -138 -212 -164 -31 -15 -85 -34 -121 -41
-36 -8 -139 -35 -230 -61 l-165 -48 -20 22 c-11 12 -32 37 -46 55 l-26 33 -94
-40 c-209 -89 -411 -109 -562 -56 -87 31 -85 33 168 234 267 211 302 229 635
339 372 122 495 161 507 162 7 0 19 -10 27 -22z"/>
<path d="M4853 3653 c-22 -8 -14 -53 12 -77 14 -13 57 -40 96 -61 93 -49 175
-128 284 -274 50 -66 93 -120 96 -121 12 -1 19 178 9 225 -20 87 -55 119 -239
211 -89 44 -235 106 -244 103 -1 0 -8 -3 -14 -6z"/>
<path d="M6120 3556 c0 -4 37 -48 82 -99 130 -147 228 -312 228 -385 0 -34 88
-101 112 -86 5 3 8 53 8 112 0 98 -2 112 -30 171 -43 90 -151 196 -250 245
-70 34 -150 57 -150 42z"/>
<path d="M5601 3507 c-5 -13 -12 -48 -16 -79 -7 -53 -5 -57 18 -73 17 -11 41
-15 76 -13 l50 3 -52 92 c-28 51 -55 93 -60 93 -4 0 -11 -10 -16 -23z"/>
<path d="M6588 3423 c19 -36 153 -123 188 -123 24 0 15 31 -18 62 -39 37 -92
64 -142 73 -36 7 -37 6 -28 -12z"/>
<path d="M5701 3108 c7 -13 78 -91 158 -173 80 -83 183 -192 229 -243 46 -50
88 -92 93 -92 13 0 11 48 -7 136 -18 88 -33 123 -67 155 -58 56 -365 239 -401
239 -14 0 -15 -3 -5 -22z"/>
<path d="M5280 2955 c-70 -36 -144 -53 -272 -64 -85 -7 -132 -17 -176 -35 -32
-14 -97 -30 -143 -35 -123 -16 -167 -55 -103 -93 35 -20 303 -78 364 -78 54 0
53 22 -4 55 -56 33 -80 60 -72 81 6 15 19 16 104 11 53 -3 140 -15 192 -27
113 -25 156 -24 154 5 -1 11 -8 35 -15 53 -13 31 -12 37 14 83 43 77 35 85
-43 44z"/>
<path d="M5610 2826 c0 -9 24 -42 53 -74 28 -31 76 -93 106 -138 56 -85 80
-107 105 -98 36 14 47 162 15 200 -17 21 -206 112 -249 121 -24 4 -30 2 -30
-11z"/>
<path d="M4421 2713 c-12 -14 -24 -38 -27 -52 -26 -129 -95 -227 -262 -369
-62 -53 -81 -92 -44 -92 10 0 49 20 87 45 83 53 141 85 153 85 5 0 1 -39 -10
-87 -26 -118 -33 -193 -20 -193 6 0 22 15 36 33 87 116 182 515 150 635 -8 30
-38 28 -63 -5z"/>
</g>
</svg>
