<?xml version="1.0" standalone="no"?>
<!DOCTYPE svg PUBLIC "-//W3C//DTD SVG 20010904//EN"
 "http://www.w3.org/TR/2001/REC-SVG-20010904/DTD/svg10.dtd">
<svg version="1.0" xmlns="http://www.w3.org/2000/svg"
 width="640.000000pt" height="866.000000pt" viewBox="0 0 640.000000 866.000000"
 preserveAspectRatio="xMidYMid meet">

<g transform="translate(0.000000,866.000000) scale(0.100000,-0.100000)"
fill="#000000" stroke="none">
<path d="M4260 8581 c-120 -14 -202 -52 -460 -218 -69 -44 -174 -107 -235
-139 -60 -32 -132 -74 -158 -93 -78 -59 -411 -451 -469 -554 -63 -112 -85
-135 -156 -171 -72 -36 -172 -119 -172 -142 0 -19 3 -18 101 15 164 55 200 81
261 184 90 155 346 457 474 560 32 26 113 75 179 109 115 58 200 111 350 218
87 62 165 93 293 120 103 21 222 27 222 11 0 -12 -32 -32 -163 -102 -228 -124
-402 -256 -598 -456 -115 -117 -218 -243 -249 -302 -18 -34 0 -47 42 -30 44
18 127 97 203 194 191 245 532 494 849 619 75 30 84 30 321 7 200 -20 245 -28
311 -61 154 -75 282 -258 315 -449 17 -93 6 -214 -26 -292 -40 -100 -85 -153
-183 -216 -106 -69 -170 -128 -279 -261 -55 -67 -91 -102 -102 -100 -37 7 -53
169 -26 273 35 133 108 247 280 434 52 58 95 109 95 114 0 17 -73 -1 -139 -35
-57 -29 -72 -44 -132 -128 -80 -111 -167 -263 -191 -336 -9 -28 -22 -111 -28
-185 -20 -238 -39 -296 -165 -509 -63 -106 -102 -160 -115 -160 -4 0 -6 35 -3
78 5 77 -8 152 -27 152 -33 0 -100 -442 -100 -655 0 -61 9 -196 20 -300 22
-215 24 -316 10 -501 -14 -177 -47 -480 -65 -589 -8 -49 -22 -173 -30 -275
-19 -216 -45 -346 -114 -561 -125 -390 -188 -628 -226 -849 -23 -138 -41 -168
-133 -231 -42 -28 -81 -55 -85 -59 -20 -17 36 -80 305 -341 156 -152 296 -294
310 -315 l27 -39 -44 -116 c-107 -282 -134 -483 -100 -749 19 -150 56 -281
115 -406 61 -131 116 -211 209 -307 169 -175 381 -273 631 -293 135 -10 238 8
348 62 80 39 109 61 215 163 153 148 155 149 204 116 26 -18 45 -24 62 -20 67
17 141 109 149 185 4 45 2 49 -39 89 -127 124 -865 721 -891 721 -18 0 -106
-100 -128 -146 -23 -46 -23 -47 -5 -81 28 -52 243 -255 415 -391 245 -195 299
-241 311 -263 10 -19 5 -28 -49 -78 -77 -72 -251 -176 -355 -212 -142 -49
-290 -48 -445 5 -324 110 -516 332 -613 706 -36 137 -49 347 -30 495 38 307
168 580 362 758 156 144 314 197 548 183 127 -7 217 -28 292 -68 199 -105 417
-401 484 -657 33 -129 37 -197 24 -463 -13 -276 -11 -293 35 -286 36 5 55 63
67 204 28 316 -23 620 -137 820 -92 161 -192 259 -422 411 -160 107 -211 124
-392 130 -190 6 -281 -6 -373 -50 -95 -45 -176 -108 -297 -229 l-100 -99 -30
21 c-89 63 -330 298 -374 364 -33 49 -33 73 0 122 51 78 65 79 202 24 188 -76
312 -94 185 -27 -91 47 -129 80 -151 126 -13 28 -24 37 -47 39 -37 4 -119 -31
-205 -87 -61 -40 -90 -50 -90 -33 0 25 75 114 164 195 138 126 241 232 351
362 246 292 298 407 299 660 0 108 -5 148 -26 235 -30 117 -50 305 -73 675
-18 294 -35 422 -75 565 -36 128 -60 272 -60 362 0 56 5 76 34 131 19 36 49
109 66 163 69 214 96 284 156 415 77 166 92 217 76 254 -17 37 -39 41 -68 15
-31 -30 -31 -15 0 31 32 47 74 65 117 50 18 -6 67 -11 111 -11 96 0 167 -23
259 -84 240 -160 389 -408 355 -590 -6 -33 -13 -39 -79 -69 -89 -42 -182 -110
-230 -169 -84 -102 -114 -222 -103 -413 6 -118 15 -178 55 -365 48 -224 49
-319 5 -650 -63 -475 -54 -664 52 -1098 50 -206 63 -309 45 -365 -24 -71 -125
-138 -291 -192 -123 -40 -181 -72 -305 -167 -171 -132 -209 -147 -388 -157
-96 -5 -131 -10 -137 -21 -13 -20 -12 -23 4 -46 13 -17 27 -19 128 -18 93 0
130 5 208 28 180 52 292 120 367 223 16 22 34 32 63 37 50 8 224 85 295 131
104 66 145 126 145 212 0 43 -36 228 -60 306 -10 34 -31 116 -46 182 -25 111
-27 136 -27 330 0 131 6 259 16 340 29 237 40 434 34 630 -5 163 -11 214 -41
364 -60 290 -66 461 -20 557 23 49 127 154 176 177 20 9 52 17 71 17 98 0 215
148 397 507 126 246 158 345 207 629 23 136 27 188 27 359 1 192 0 203 -26
280 -83 243 -281 433 -645 618 -236 120 -321 147 -557 177 -84 11 -181 28
-217 39 -122 37 -353 57 -489 42z m1333 -390 c64 -38 150 -93 192 -121 191
-133 321 -344 332 -540 10 -169 -78 -681 -144 -840 -32 -78 -154 -301 -191
-349 -24 -32 -26 -33 -39 -15 -8 10 -32 53 -54 94 -79 152 -257 328 -404 400
-79 39 -214 80 -264 80 -14 0 -36 3 -48 6 -21 6 -13 17 83 118 59 61 127 142
153 180 32 48 59 76 91 93 208 114 347 358 325 568 -9 85 -38 169 -91 261 -66
115 -75 134 -66 134 5 0 61 -31 125 -69z m-968 -1773 c-4 -13 -20 -52 -35 -89
-36 -85 -57 -161 -80 -281 -20 -102 -33 -138 -52 -138 -22 0 13 324 44 408 14
39 31 61 65 87 53 41 67 44 58 13z m-96 -1274 c6 -60 20 -275 31 -479 12 -203
28 -460 36 -570 25 -327 28 -410 15 -461 -14 -55 -61 -124 -172 -254 -45 -52
-98 -120 -119 -150 -68 -99 -253 -260 -275 -238 -10 9 84 335 216 752 39 122
74 239 79 261 29 131 71 471 125 1014 14 139 28 258 32 264 11 18 21 -25 32
-139z m828 -3873 c43 -33 114 -89 158 -126 108 -91 356 -291 428 -344 64 -49
72 -73 34 -117 -18 -21 -29 -26 -48 -21 -75 20 -641 508 -701 605 -21 34 -21
35 -3 48 31 23 51 16 132 -45z"/>
<path d="M4286 8009 c-39 -95 -116 -351 -116 -383 0 -57 67 56 105 176 43 137
52 310 11 207z"/>
<path d="M4955 7938 c-52 -28 -215 -207 -215 -237 0 -36 43 -10 131 78 86 86
128 146 112 162 -4 4 -17 3 -28 -3z"/>
<path d="M4250 7544 c-269 -76 -507 -169 -518 -202 -9 -28 204 14 468 93 152
46 162 34 158 -165 -3 -119 -7 -145 -33 -217 -27 -76 -28 -84 -14 -99 15 -14
19 -14 46 -1 43 23 111 101 139 160 40 88 34 135 -36 276 -56 111 -103 182
-118 180 -4 0 -45 -12 -92 -25z"/>
<path d="M2036 7356 c-96 -36 -311 -256 -369 -377 -36 -77 -57 -202 -57 -339
0 -213 43 -351 141 -455 71 -75 140 -119 303 -191 77 -35 148 -70 159 -79 43
-37 8 -217 -121 -626 l-50 -155 19 -145 c41 -320 41 -512 0 -604 -10 -23 -36
-61 -57 -85 -39 -43 -229 -200 -242 -200 -10 0 -533 438 -608 509 -84 79 -99
103 -82 130 32 51 69 29 348 -203 266 -222 398 -316 442 -316 71 0 -67 130
-615 579 l-138 113 -42 -48 c-63 -71 -107 -135 -107 -157 0 -11 19 -42 42 -69
35 -43 81 -85 278 -263 19 -17 112 -93 207 -168 95 -75 179 -147 187 -159 11
-17 14 -48 13 -118 -2 -93 -1 -97 35 -160 96 -170 212 -300 312 -350 95 -48
152 -38 269 47 l47 35 153 -139 c83 -77 211 -188 282 -247 278 -231 270 -222
290 -320 24 -116 106 -212 295 -347 198 -142 263 -144 432 -16 54 41 65 54 56
65 -20 24 -135 102 -150 102 -35 0 -78 -71 -78 -129 0 -36 -3 -41 -23 -41 -48
0 -265 148 -346 236 -67 71 -84 120 -88 249 l-4 110 150 73 c127 61 159 81
213 135 98 96 158 230 158 352 0 65 31 132 119 254 132 185 158 253 147 389
-7 95 3 129 66 217 54 75 113 235 87 235 -23 0 -289 -403 -289 -438 0 -6 11
-14 25 -18 39 -10 47 -35 29 -91 -26 -80 -157 -328 -176 -331 -27 -5 -32 86
-20 398 11 295 20 354 71 495 33 90 34 124 7 210 -41 127 -59 276 -54 449 4
170 20 225 68 236 19 4 26 13 28 36 4 40 -20 92 -111 248 -165 279 -224 480
-186 631 8 31 8 49 0 63 -15 29 -127 82 -171 82 -52 0 -128 -41 -205 -112 -83
-77 -124 -137 -214 -316 -92 -183 -140 -237 -222 -247 -35 -4 -96 -1 -163 9
-317 47 -538 144 -684 301 -80 85 -109 137 -128 226 -28 129 0 382 52 486 53
103 250 293 327 314 35 10 73 7 240 -16 137 -19 201 -25 208 -18 17 17 7 44
-24 67 -26 20 -43 21 -235 24 -159 1 -216 -1 -246 -12z m1364 -810 c9 -11 9
-48 3 -143 -10 -165 -7 -213 23 -293 32 -82 126 -261 170 -321 62 -85 68 -108
48 -202 -13 -60 -18 -127 -17 -247 0 -182 12 -283 48 -422 14 -51 25 -103 25
-115 0 -13 -20 -85 -44 -161 -25 -76 -51 -176 -60 -223 -18 -102 -42 -366 -56
-629 -12 -228 -28 -401 -41 -450 -13 -52 -64 -96 -175 -150 l-97 -49 -32 27
c-18 15 -81 72 -141 126 -119 109 -258 221 -376 305 l-75 53 -6 157 c-4 122
-10 171 -27 226 -20 62 -22 83 -16 179 12 202 78 486 152 658 55 126 64 168
74 363 13 233 25 321 51 392 62 170 79 230 88 303 19 152 131 419 207 495 67
68 185 133 240 135 12 0 27 -7 34 -14z m-536 -638 c-3 -13 -28 -75 -55 -139
-70 -170 -88 -247 -99 -444 -12 -205 -27 -280 -90 -451 -66 -177 -97 -290
-125 -458 -48 -287 -51 -390 -13 -484 6 -15 16 -46 24 -70 l13 -42 -63 -29
c-71 -32 -133 -84 -177 -148 -27 -39 -28 -43 -11 -43 11 0 52 16 90 36 80 41
93 41 163 -6 64 -42 564 -483 623 -549 29 -32 12 -75 -30 -79 -39 -4 -77 25
-364 270 -238 202 -270 227 -318 252 -32 16 -36 16 -93 -3 -104 -36 -240 -22
-328 33 -103 65 -231 260 -231 352 0 55 34 100 146 193 249 207 260 236 244
611 -5 107 -12 265 -16 350 -8 187 0 233 65 385 62 142 91 240 101 337 4 44 9
80 11 82 2 2 92 8 199 14 148 8 208 16 250 31 76 27 93 27 84 -1z"/>
<path d="M3927 7088 c-26 -69 -39 -219 -32 -383 l6 -150 -112 -80 c-114 -82
-194 -158 -184 -175 14 -22 224 89 367 195 72 53 89 71 103 109 22 57 13 71
-33 54 -27 -10 -34 -10 -41 0 -4 7 -11 81 -14 163 -7 153 -23 288 -36 302 -5
4 -15 -11 -24 -35z"/>
<path d="M3068 7056 c-139 -60 -174 -89 -152 -123 18 -30 40 -26 114 17 73 42
140 103 140 127 0 20 -17 16 -102 -21z"/>
<path d="M5208 6403 c-68 -71 -268 -341 -268 -364 0 -31 36 -23 80 18 61 54
150 177 203 280 66 129 63 145 -15 66z"/>
<path d="M5253 6047 c-68 -78 -132 -207 -102 -207 31 0 195 198 186 224 -2 6
-15 12 -29 14 -18 2 -33 -6 -55 -31z"/>
<path d="M810 5821 c-102 -33 -216 -117 -339 -248 l-101 -108 -74 74 -74 74
-94 -98 c-51 -53 -94 -101 -96 -105 -2 -4 47 -51 108 -105 65 -57 110 -104
110 -115 0 -10 -7 -52 -16 -92 -11 -49 -17 -123 -17 -228 -2 -386 73 -595 285
-802 157 -153 379 -258 548 -258 116 0 311 69 378 133 32 31 44 77 19 77 -12
0 -79 -22 -192 -64 -176 -64 -447 -25 -619 89 -231 153 -375 571 -322 935 35
239 122 417 280 573 132 131 248 177 444 177 182 0 300 -48 424 -172 116 -115
190 -250 247 -445 12 -40 26 -75 32 -79 6 -3 21 3 33 15 33 33 26 90 -23 203
-86 197 -188 306 -446 478 -123 83 -156 92 -325 96 -80 2 -156 0 -170 -5z
m-486 -367 c21 -8 20 -42 -4 -106 -33 -86 -32 -86 -81 -33 -56 60 -89 106 -89
121 0 7 10 15 23 17 36 7 134 8 151 1z"/>
<path d="M4796 5814 c-3 -9 -6 -76 -6 -149 0 -140 4 -165 25 -165 20 0 63 56
75 98 14 53 12 157 -4 197 -13 30 -20 35 -49 35 -23 0 -37 -6 -41 -16z"/>
<path d="M4070 5593 c1 -21 7 -67 15 -103 8 -36 14 -88 15 -117 0 -47 -4 -55
-45 -99 -60 -65 -69 -110 -62 -296 5 -146 18 -208 43 -208 20 0 23 24 32 224
8 177 8 178 34 198 53 38 93 205 68 284 -15 48 -78 154 -91 154 -5 0 -9 -17
-9 -37z"/>
<path d="M4763 5144 c-8 -20 14 -116 32 -140 13 -18 15 -18 31 -2 9 9 19 38
22 66 4 41 1 53 -17 71 -25 25 -59 28 -68 5z"/>
<path d="M5040 4992 c0 -79 57 -428 91 -555 13 -49 29 -38 29 19 0 129 -60
499 -92 570 -18 39 -28 27 -28 -34z"/>
<path d="M1760 4971 c-5 -11 -10 -46 -10 -78 0 -32 -7 -117 -15 -188 -9 -72
-13 -140 -10 -152 6 -27 53 -43 65 -23 18 30 51 339 43 398 -5 29 -34 62 -55
62 -4 0 -12 -9 -18 -19z"/>
<path d="M4814 4724 c-36 -85 0 -455 61 -636 l25 -73 -5 120 c-8 191 -46 609
-55 619 -6 6 -16 -6 -26 -30z"/>
<path d="M4889 3409 c-54 -54 -99 -150 -99 -211 0 -27 4 -48 9 -48 12 0 126
177 146 228 17 42 15 72 -5 72 -5 0 -28 -18 -51 -41z"/>
<path d="M3816 2361 c-16 -17 -16 -22 -3 -48 24 -45 450 -444 482 -451 28 -6
18 70 -14 114 -40 53 -163 172 -301 289 -140 118 -143 120 -164 96z"/>
</g>
</svg>
