<?xml version="1.0" standalone="no"?>
<!DOCTYPE svg PUBLIC "-//W3C//DTD SVG 20010904//EN"
 "http://www.w3.org/TR/2001/REC-SVG-20010904/DTD/svg10.dtd">
<svg version="1.0" xmlns="http://www.w3.org/2000/svg"
 width="512.000000pt" height="512.000000pt" viewBox="0 0 512.000000 512.000000"
 preserveAspectRatio="xMidYMid meet">

<g transform="translate(0.000000,512.000000) scale(0.100000,-0.100000)"
fill="#000000" stroke="none">
<path d="M4279 4390 c-9 -5 -89 -122 -179 -260 l-163 -250 -454 0 -454 0 -24
-25 c-16 -15 -25 -36 -25 -55 0 -19 9 -40 25 -55 23 -24 29 -25 162 -25 l138
0 188 -498 187 -499 0 -272 0 -271 -22 5 c-128 30 -1920 385 -1945 385 l-33 0
0 435 0 435 115 0 c110 0 117 1 140 25 33 32 33 78 0 110 -24 25 -25 25 -225
25 l-202 0 -90 70 c-102 78 -132 87 -173 45 -30 -29 -33 -74 -8 -103 23 -25
149 -124 194 -151 19 -12 46 -21 62 -21 l27 0 0 -440 c0 -418 -1 -440 -18
-440 -32 0 -166 -38 -226 -65 -211 -93 -402 -290 -486 -498 -52 -131 -64 -198
-64 -357 1 -170 18 -249 87 -394 69 -143 183 -277 312 -366 66 -46 201 -107
292 -133 78 -22 78 -22 1188 -25 1179 -3 1199 -3 1324 44 440 165 607 700 340
1090 l-28 41 -3 479 -3 479 -154 415 c-85 228 -156 422 -158 431 -4 13 5 17
42 22 35 3 55 12 75 33 53 56 360 539 360 568 0 54 -73 94 -121 66z m-369
-1118 l165 -447 3 -383 c1 -211 -1 -382 -5 -380 -4 2 -33 16 -63 32 -30 16
-80 37 -110 47 l-55 17 -5 308 -5 309 -178 467 c-97 257 -177 470 -177 473 0
3 60 5 133 5 l132 0 165 -448z m-1532 -993 c356 -71 833 -168 1061 -214 367
-74 422 -87 490 -121 185 -91 310 -293 311 -505 0 -71 -32 -196 -67 -262 -40
-76 -165 -197 -241 -235 -132 -65 -91 -63 -1312 -60 -1243 4 -1142 -3 -1315
83 -195 96 -328 255 -396 475 -31 97 -33 298 -5 400 75 277 303 495 581 555
145 32 195 25 893 -116z"/>
<path d="M1556 2144 c-182 -44 -337 -201 -381 -385 -88 -373 251 -712 624
-624 145 34 277 139 343 272 20 39 39 90 43 112 l6 39 120 4 119 3 32 33 33
32 3 140 c3 138 3 140 -22 165 -33 33 -79 33 -111 0 -23 -22 -25 -32 -25 -120
l0 -95 -74 0 -74 0 -7 41 c-12 71 -74 179 -139 244 -131 130 -313 182 -490
139z m270 -178 c93 -42 169 -128 198 -223 l7 -23 -181 0 c-179 0 -181 0 -205
-25 -16 -15 -25 -36 -25 -55 0 -19 9 -40 25 -55 24 -25 26 -25 205 -25 l181 0
-7 -22 c-29 -96 -105 -181 -199 -225 -51 -24 -73 -28 -145 -28 -72 0 -94 4
-145 28 -78 36 -146 104 -182 181 -24 52 -28 74 -28 146 0 72 4 94 28 145 86
183 293 263 473 181z"/>
<path d="M3605 1751 c-92 -24 -173 -90 -215 -176 -34 -69 -35 -198 -2 -265 34
-71 75 -114 144 -151 58 -31 70 -34 148 -33 72 0 93 4 136 26 75 40 107 70
145 140 31 58 34 70 34 148 0 78 -3 90 -34 148 -57 104 -144 160 -260 167 -36
2 -79 1 -96 -4z m138 -165 c103 -43 128 -177 48 -257 -65 -65 -157 -65 -222 0
-124 123 13 325 174 257z"/>
</g>
</svg>
