<?xml version="1.0" standalone="no"?>
<!DOCTYPE svg PUBLIC "-//W3C//DTD SVG 20010904//EN"
 "http://www.w3.org/TR/2001/REC-SVG-20010904/DTD/svg10.dtd">
<svg version="1.0" xmlns="http://www.w3.org/2000/svg"
 width="512.000000pt" height="512.000000pt" viewBox="0 0 512.000000 512.000000"
 preserveAspectRatio="xMidYMid meet">

<g transform="translate(0.000000,512.000000) scale(0.100000,-0.100000)"
fill="#000000" stroke="none">
<path d="M1470 4410 c-228 -32 -441 -141 -615 -315 -143 -143 -249 -316 -314
-512 -50 -148 -62 -226 -68 -415 -6 -210 8 -320 67 -499 l38 -116 -29 -59
c-31 -64 -49 -154 -49 -250 l0 -61 -103 -5 c-89 -4 -113 -9 -168 -35 -82 -38
-154 -110 -193 -193 -28 -58 -31 -75 -31 -160 0 -86 3 -101 32 -162 39 -84
109 -155 188 -193 52 -25 74 -30 167 -33 l108 -4 0 -62 c0 -266 138 -447 370
-488 101 -17 232 14 316 77 20 14 22 13 53 -35 84 -129 262 -208 413 -181 191
33 329 172 360 363 6 40 13 74 14 76 1 2 51 -32 110 -74 265 -189 398 -274
426 -274 28 0 151 79 418 268 l115 82 12 -76 c7 -41 25 -100 39 -130 75 -159
276 -265 445 -235 122 21 230 89 290 181 31 48 33 49 53 35 44 -33 128 -67
190 -77 175 -29 365 71 445 234 32 65 50 160 51 259 l0 57 108 4 c93 3 115 8
167 33 297 143 295 568 -3 708 -56 26 -80 31 -169 35 l-103 5 0 61 c0 96 -18
186 -50 252 l-30 62 26 68 c14 37 37 116 52 174 24 97 26 122 27 315 0 166 -4
228 -18 295 -58 273 -180 503 -362 685 -146 146 -310 241 -500 291 -128 34
-322 38 -454 10 -246 -52 -475 -167 -714 -359 l-35 -28 -83 67 c-204 164 -434
276 -657 318 -104 20 -270 27 -352 16z m231 -200 c246 -28 517 -161 732 -359
78 -73 91 -81 127 -81 34 0 48 8 112 65 204 182 444 313 663 362 99 22 282 21
370 -1 312 -80 573 -341 688 -689 74 -221 77 -523 7 -750 l-21 -67 -36 15
c-108 45 -237 37 -355 -23 l-76 -39 -41 57 c-47 68 -138 133 -219 156 -39 12
-82 15 -147 12 -79 -3 -101 -8 -159 -37 -119 -58 -208 -172 -235 -299 -6 -29
-11 -120 -11 -202 l0 -150 -540 0 -540 0 0 150 c0 82 -5 173 -11 202 -27 128
-116 241 -236 300 -65 32 -72 33 -183 33 -111 0 -118 -1 -183 -33 -69 -34
-156 -111 -182 -162 l-15 -28 -77 39 c-120 61 -247 70 -356 24 l-36 -15 -21
67 c-50 163 -65 412 -35 584 78 449 412 811 800 868 84 12 118 12 216 1z m-12
-1560 c50 -25 105 -89 119 -139 9 -27 12 -232 12 -723 0 -768 2 -743 -72 -818
-38 -37 -111 -70 -158 -70 -47 0 -120 33 -158 70 -74 74 -72 51 -72 812 0 462
4 693 11 723 13 52 67 118 118 145 50 26 149 27 200 0z m1940 0 c53 -26 107
-92 120 -145 7 -30 11 -259 11 -718 0 -760 1 -743 -71 -816 -101 -100 -259
-86 -345 30 -13 18 -29 49 -34 69 -15 53 -13 1392 2 1441 14 49 69 114 117
139 50 26 149 27 200 0z m-2591 -142 c23 -11 54 -34 67 -52 56 -74 55 -59 55
-668 0 -545 -1 -564 -21 -608 -34 -76 -90 -120 -172 -135 -87 -17 -193 40
-240 129 -22 41 -22 41 -22 616 0 542 1 577 19 610 66 124 189 166 314 108z
m3247 4 c43 -21 84 -61 108 -107 22 -40 22 -45 22 -615 0 -575 0 -575 -22
-616 -47 -89 -153 -146 -240 -129 -82 15 -138 59 -172 135 -20 44 -21 63 -21
611 l0 565 26 52 c14 29 42 64 61 79 66 50 166 61 238 25z m-3785 -723 l0
-191 -88 4 c-74 2 -94 7 -124 27 -126 87 -112 261 27 334 20 11 57 16 108 17
l77 0 0 -191z m2600 1 l0 -190 -540 0 -540 0 0 190 0 190 540 0 540 0 0 -190z
m1709 170 c135 -68 147 -246 23 -331 -30 -20 -50 -25 -124 -27 l-88 -4 0 191
0 191 75 0 c55 0 86 -5 114 -20z m-1719 -564 c0 -3 -91 -69 -202 -147 -112
-78 -231 -161 -264 -185 l-62 -43 -73 51 c-176 122 -445 311 -453 319 -6 5
223 9 522 9 293 0 532 -2 532 -4z"/>
</g>
</svg>
