<?xml version="1.0" standalone="no"?>
<!DOCTYPE svg PUBLIC "-//W3C//DTD SVG 20010904//EN"
 "http://www.w3.org/TR/2001/REC-SVG-20010904/DTD/svg10.dtd">
<svg version="1.0" xmlns="http://www.w3.org/2000/svg"
 width="512.000000pt" height="512.000000pt" viewBox="0 0 512.000000 512.000000"
 preserveAspectRatio="xMidYMid meet">
<metadata>
Created by potrace 1.16, written by Peter Selinger 2001-2019
</metadata>
<g transform="translate(0.000000,512.000000) scale(0.100000,-0.100000)"
fill="#000000" stroke="none">
<path d="M1885 5076 c-115 -37 -202 -111 -256 -221 l-34 -70 0 -340 c0 -327 1
-342 22 -402 l23 -61 -25 -44 c-23 -40 -25 -52 -25 -191 0 -169 7 -194 68
-249 47 -42 94 -58 173 -58 l56 0 31 -63 c23 -46 58 -89 137 -166 l106 -105
-3 -75 -3 -76 -209 -3 -209 -2 -37 25 c-55 38 -92 45 -245 45 -156 0 -197 -8
-237 -45 -27 -25 -29 -25 -207 -25 l-180 0 -3 323 c-3 319 -3 322 -26 355 -40
55 -65 62 -225 62 -133 0 -147 -2 -178 -23 -54 -36 -69 -77 -69 -189 l0 -98
-110 0 c-123 0 -150 -9 -194 -60 -25 -31 -26 -36 -26 -165 0 -132 0 -134 26
-154 34 -27 64 -27 98 0 25 20 26 24 26 120 l0 99 90 0 90 0 0 -495 0 -495
-90 0 -90 0 0 260 c0 247 -1 261 -20 280 -27 27 -83 27 -110 0 -19 -19 -20
-33 -20 -314 l0 -294 26 -32 c44 -51 71 -60 194 -60 l110 0 0 -97 c0 -113 15
-154 69 -190 31 -21 45 -23 178 -23 160 0 185 7 225 62 23 33 23 36 26 361 l3
328 42 -3 41 -3 18 -62 c28 -93 81 -147 183 -183 l80 -28 -1 -173 c0 -170 -2
-181 -63 -509 -60 -318 -63 -341 -58 -445 11 -220 94 -377 236 -444 76 -35
211 -38 283 -4 l47 21 3 -303 c3 -281 4 -304 22 -324 24 -27 97 -29 117 -4 17
20 27 488 34 1666 l5 797 134 0 133 0 13 -57 c44 -199 158 -420 257 -499 75
-60 121 -78 203 -78 80 0 127 17 198 73 101 79 218 302 262 504 l13 57 129 0
128 0 1 -727 c0 -470 4 -753 11 -798 6 -38 12 -261 15 -495 4 -478 1 -460 78
-460 30 0 47 6 61 21 18 20 19 43 22 324 l3 303 47 -21 c72 -33 207 -31 282 4
145 69 240 260 240 481 0 81 -2 91 -25 113 -29 30 -74 33 -106 6 -22 -17 -24
-30 -30 -128 -7 -115 -36 -212 -80 -273 -27 -36 -93 -70 -136 -70 -77 0 -158
58 -197 140 -21 45 -21 52 -24 904 -2 580 1 876 8 911 11 55 46 101 83 110 12
3 74 4 137 3 l115 -3 5 -120 c4 -103 8 -124 27 -151 29 -40 88 -64 158 -64 30
0 55 -2 55 -5 0 -3 -6 -21 -14 -40 -15 -36 -41 -52 -124 -80 -68 -22 -106 -55
-127 -109 -14 -37 -16 -74 -13 -232 4 -160 9 -216 37 -364 37 -195 49 -220
108 -220 38 0 83 37 83 68 0 11 -14 93 -32 183 -28 145 -32 185 -32 338 l-1
174 74 25 c102 34 162 92 188 183 l19 64 41 3 42 3 3 -328 c3 -325 3 -328 26
-361 40 -55 65 -62 225 -62 133 0 147 2 178 23 54 36 69 77 69 190 l0 97 110
0 c123 0 150 9 194 60 l26 32 0 563 0 563 -26 32 c-44 51 -71 60 -194 60
l-110 0 0 98 c0 112 -15 153 -69 189 -31 21 -45 23 -178 23 -160 0 -185 -7
-225 -62 -23 -33 -23 -36 -26 -355 l-3 -323 -180 0 c-178 0 -180 0 -207 25
-40 37 -81 45 -237 45 -153 0 -190 -7 -245 -45 l-37 -25 -209 2 -209 3 -3 76
-3 75 106 105 c79 77 114 120 137 166 l31 63 56 0 c78 0 126 16 171 56 66 59
72 83 68 262 -3 145 -5 160 -26 189 l-23 32 23 63 c21 58 23 83 26 318 l3 255
-28 55 c-37 69 -89 107 -171 123 l-62 12 0 50 c0 93 -62 186 -147 222 -46 19
-1178 18 -1238 -1z m1170 -150 c43 -18 55 -42 55 -111 0 -103 45 -164 127
-172 74 -7 92 -12 113 -33 19 -19 20 -34 20 -237 -1 -182 -4 -226 -19 -268
l-17 -50 -52 -3 -52 -3 0 99 c0 66 -6 117 -17 152 -21 65 -89 142 -157 178
l-51 27 -445 0 -445 0 -51 -27 c-65 -34 -138 -115 -158 -175 -11 -31 -16 -82
-16 -150 l0 -104 -52 3 -52 3 -17 50 c-16 43 -18 88 -19 331 0 305 3 331 56
400 35 45 101 83 161 94 27 4 274 8 551 9 413 1 509 -2 537 -13z m-64 -599
c18 -12 44 -38 56 -56 23 -34 23 -35 23 -421 l0 -387 -29 -39 c-41 -56 -180
-188 -221 -210 -31 -17 -58 -19 -260 -19 -202 0 -229 2 -260 19 -41 22 -180
154 -221 210 l-29 39 0 387 c0 386 0 387 23 421 12 18 38 44 56 56 34 23 35
23 431 23 396 0 397 0 431 -23z m-1101 -582 l0 -145 -52 0 c-81 0 -88 11 -88
143 0 135 7 147 87 147 l53 0 0 -145z m1462 128 c15 -14 18 -32 18 -126 0
-135 -7 -147 -87 -147 l-53 0 0 145 0 145 52 0 c34 0 58 -6 70 -17z m-2682
-1148 l0 -815 -90 0 -90 0 0 815 0 815 90 0 90 0 0 -815z m3960 0 l0 -815 -90
0 -90 0 0 815 0 815 90 0 90 0 0 -815z m340 0 l0 -495 -90 0 -90 0 0 495 0
495 90 0 90 0 0 -495z m-2170 268 l0 -43 -240 0 -240 0 0 43 0 42 240 0 240 0
0 -42z m-1207 -144 c14 -6 35 -30 48 -53 l24 -41 0 -885 c0 -974 3 -929 -63
-1002 -156 -173 -352 -44 -369 242 -4 75 3 126 58 420 59 318 62 345 67 523 3
160 2 195 -13 232 -20 55 -59 88 -127 110 -83 28 -109 44 -124 80 -8 19 -14
37 -14 40 0 3 26 5 58 5 74 0 138 31 164 80 14 27 18 57 18 141 0 58 3 109 7
112 11 12 240 8 266 -4z m-433 -114 l0 -55 -43 0 c-24 0 -99 -3 -165 -7 l-122
-6 0 61 0 62 165 0 165 0 0 -55z m2140 41 c0 -7 -3 -34 -6 -60 l-7 -46 -727 0
-727 0 -7 46 c-3 26 -6 53 -6 60 0 12 123 14 740 14 617 0 740 -2 740 -14z
m990 -48 l0 -61 -122 6 c-66 4 -141 7 -165 7 l-43 0 0 55 0 55 165 0 165 0 0
-62z m-1420 -222 c0 -3 -16 -53 -35 -113 -60 -182 -138 -303 -221 -343 -41
-20 -50 -21 -86 -10 -88 26 -179 159 -243 354 -19 59 -35 109 -35 112 0 2 140
4 310 4 171 0 310 -2 310 -4z"/>
</g>
</svg>
