<?xml version="1.0" standalone="no"?>
<!DOCTYPE svg PUBLIC "-//W3C//DTD SVG 20010904//EN"
 "http://www.w3.org/TR/2001/REC-SVG-20010904/DTD/svg10.dtd">
<svg version="1.0" xmlns="http://www.w3.org/2000/svg"
 width="512.000000pt" height="512.000000pt" viewBox="0 0 512.000000 512.000000"
 preserveAspectRatio="xMidYMid meet">

<g transform="translate(0.000000,512.000000) scale(0.100000,-0.100000)"
fill="#000000" stroke="none">
<path d="M2804 4980 c-25 -13 -149 -130 -330 -313 -395 -398 -394 -394 -394
-806 l0 -235 -399 -655 c-219 -361 -408 -675 -420 -698 -51 -101 -51 -105 -51
-1049 0 -1011 -6 -939 90 -1036 64 -64 124 -88 220 -88 96 0 156 24 220 88 94
95 90 55 90 809 0 766 -13 693 123 693 54 0 90 -5 102 -13 15 -12 31 -110 110
-688 58 -424 99 -690 110 -716 25 -63 113 -139 182 -159 72 -21 181 -15 244
13 99 44 169 150 169 258 0 33 -32 354 -71 713 -39 359 -69 655 -67 658 3 2
142 35 309 73 167 39 373 86 457 105 176 41 230 66 303 143 119 126 147 311
69 462 -29 56 -535 705 -568 728 -9 7 -177 70 -372 142 -195 71 -363 132 -373
136 -17 7 -18 23 -15 244 4 318 -15 281 308 606 158 159 255 265 265 288 61
147 -52 317 -212 317 -38 0 -72 -7 -99 -20z m143 -162 c47 -44 40 -54 -225
-322 -344 -349 -342 -344 -342 -768 0 -242 2 -270 18 -285 9 -10 196 -83 414
-162 l397 -144 249 -316 c137 -174 256 -327 265 -341 65 -102 22 -271 -85
-334 -33 -19 -157 -52 -482 -126 -241 -56 -441 -99 -443 -96 -3 2 -6 35 -6 72
l-2 68 355 81 c195 45 369 89 387 98 84 44 123 167 80 252 -13 27 -377 487
-396 502 -26 20 -75 15 -98 -9 -24 -26 -496 -763 -506 -790 -3 -10 36 -408 88
-885 52 -478 95 -890 95 -916 0 -85 -56 -137 -147 -137 -59 0 -112 26 -134 65
-12 21 -43 220 -104 675 -47 355 -93 668 -101 696 -17 64 -81 127 -145 144
-61 17 -245 9 -284 -12 -38 -20 -82 -64 -103 -103 -15 -27 -18 -101 -22 -705
-5 -633 -6 -678 -23 -704 -54 -81 -212 -72 -259 15 -17 32 -18 75 -16 919 l3
885 27 57 c15 32 199 340 409 685 211 345 393 646 406 668 22 39 23 48 23 290
0 138 5 269 10 293 24 102 44 128 339 425 304 306 310 310 358 265z m307
-2226 c75 -95 136 -177 136 -181 0 -5 -7 -14 -15 -21 -14 -12 -611 -153 -626
-148 -4 2 47 89 114 193 67 105 146 228 175 274 45 70 56 82 66 70 7 -8 75
-92 150 -187z"/>
<path d="M3078 4220 c-240 -41 -378 -300 -279 -525 28 -63 113 -150 180 -182
50 -25 67 -28 161 -28 100 0 108 1 168 34 75 41 135 103 170 179 24 50 27 70
27 157 0 91 -3 105 -30 158 -74 147 -240 233 -397 207z m170 -187 c23 -13 55
-43 70 -65 23 -36 27 -51 27 -118 0 -67 -3 -81 -27 -116 -15 -21 -44 -50 -65
-64 -31 -21 -48 -25 -113 -25 -67 0 -82 4 -118 27 -59 40 -95 106 -95 177 0
170 173 269 321 184z"/>
</g>
</svg>
