<?xml version="1.0" standalone="no"?>
<!DOCTYPE svg PUBLIC "-//W3C//DTD SVG 20010904//EN"
 "http://www.w3.org/TR/2001/REC-SVG-20010904/DTD/svg10.dtd">
<svg version="1.0" xmlns="http://www.w3.org/2000/svg"
 width="512.000000pt" height="512.000000pt" viewBox="0 0 512.000000 512.000000"
 preserveAspectRatio="xMidYMid meet">

<g transform="translate(0.000000,512.000000) scale(0.100000,-0.100000)"
fill="#000000" stroke="none">
<path d="M1238 5030 c-9 -6 -33 -44 -53 -85 -46 -97 -112 -162 -212 -212 -86
-42 -105 -69 -87 -120 7 -21 28 -37 87 -66 100 -50 164 -114 214 -214 29 -59
45 -80 66 -87 51 -18 78 1 120 87 49 99 116 165 216 214 57 29 78 45 85 66 18
51 -2 78 -85 119 -99 49 -169 120 -215 215 -20 40 -44 78 -54 83 -23 13 -60
12 -82 0z m109 -320 l70 -70 -69 -68 -68 -69 -68 69 -69 68 66 69 c36 37 66
69 67 70 0 0 32 -30 71 -69z"/>
<path d="M2123 4706 c-114 -28 -227 -109 -288 -207 -49 -77 -66 -144 -76 -290
-13 -218 -50 -363 -135 -536 -61 -123 -118 -202 -264 -363 -67 -74 -157 -178
-200 -231 -216 -269 -359 -592 -415 -939 -8 -52 -15 -98 -15 -101 0 -4 -146
-206 -325 -450 -348 -475 -349 -476 -300 -524 24 -25 27 -25 200 -25 l175 0 0
-480 0 -480 80 0 80 0 0 534 c0 510 -1 535 -19 557 -18 23 -27 24 -159 29
l-141 5 357 487 c196 268 359 488 362 488 3 0 166 -220 362 -488 l357 -487
-141 -5 c-132 -5 -141 -6 -159 -29 -18 -22 -19 -47 -19 -557 l0 -534 80 0 80
0 0 286 0 285 23 -6 c12 -4 99 -51 192 -105 200 -117 397 -213 550 -269 866
-319 1819 -232 2613 239 56 33 101 64 99 68 -2 4 -20 35 -41 69 l-36 61 -93
-55 c-347 -207 -745 -343 -1157 -395 -175 -22 -544 -16 -730 11 -387 57 -766
192 -1085 387 -60 37 -161 91 -222 121 l-113 55 0 104 0 104 175 0 c173 0 176
0 200 25 46 45 38 64 -130 292 -85 116 -155 213 -155 216 0 3 20 17 43 31 57
32 151 127 184 184 65 110 75 158 84 412 9 251 28 473 59 690 10 74 18 136 16
137 -5 5 -148 24 -152 20 -7 -7 -52 -349 -64 -492 -6 -71 -14 -229 -19 -351
-7 -218 -8 -221 -38 -287 -38 -80 -96 -144 -163 -181 -28 -15 -53 -26 -55 -24
-1 1 -111 152 -244 333 -133 182 -254 336 -268 343 -30 16 -66 9 -93 -18 -28
-28 -25 -13 16 98 85 227 205 421 384 622 221 249 244 276 302 365 145 219
218 446 237 742 7 112 12 141 35 187 31 63 89 119 155 150 45 20 60 21 529 24
l482 3 0 -80 c0 -76 1 -79 25 -85 54 -14 56 -29 53 -334 -3 -265 -4 -282 -24
-308 -28 -39 -63 -63 -101 -70 l-33 -6 0 257 c0 173 -4 271 -12 299 -16 55
-99 138 -154 154 -74 22 -74 21 -74 -67 0 -76 1 -79 25 -85 54 -14 56 -25 53
-374 -3 -306 -4 -322 -24 -348 -46 -62 -65 -69 -199 -72 -122 -4 -125 -3 -150
22 -24 24 -25 29 -25 161 l0 135 120 0 120 0 0 80 0 80 -136 0 c-78 0 -154 5
-178 12 -78 23 -166 135 -166 212 0 13 -13 16 -81 16 l-82 0 7 -52 c14 -111
93 -233 185 -285 25 -15 47 -28 49 -29 2 -1 -13 -24 -34 -51 -48 -62 -92 -160
-110 -242 -19 -92 -17 -193 6 -351 38 -251 51 -404 57 -682 l6 -278 -72 -108
c-39 -59 -71 -111 -71 -115 0 -11 120 -88 129 -83 4 3 40 54 80 114 73 111
123 158 241 225 160 90 384 119 565 72 87 -22 292 -125 347 -174 58 -51 120
-143 148 -218 12 -32 33 -132 46 -222 14 -91 26 -167 29 -169 3 -4 147 16 152
21 8 9 -51 345 -73 409 -28 85 -101 203 -158 257 -20 19 -36 40 -36 45 0 6 20
25 43 43 319 239 755 255 1088 41 30 -19 106 -78 169 -132 l115 -96 52 57 c29
32 52 60 52 63 0 13 -272 226 -339 266 -89 53 -198 96 -318 126 -124 31 -369
32 -493 1 -166 -42 -319 -115 -437 -210 -31 -25 -62 -50 -68 -55 -7 -5 -48 9
-105 36 -149 71 -238 91 -404 90 -188 0 -319 -34 -465 -120 l-55 -32 -6 191
c-8 235 -23 400 -55 620 -34 238 -31 367 6 277 18 -44 92 -105 144 -120 28 -8
91 -11 177 -8 122 3 139 6 185 30 76 40 108 71 145 142 33 63 34 64 82 69 106
13 224 108 257 207 10 30 20 40 50 50 65 22 130 79 169 150 l36 65 0 245 0
245 -34 63 c-37 69 -79 109 -151 144 l-45 23 -595 2 c-453 1 -607 -1 -647 -11z
m1243 -172 c68 -50 69 -54 69 -293 l0 -218 -28 -36 c-15 -20 -32 -37 -38 -37
-5 0 -9 81 -9 201 0 129 -4 216 -12 243 -15 50 -98 137 -148 154 -31 10 -26
11 52 9 70 -2 92 -6 114 -23z"/>
<path d="M4043 4387 c-12 -7 -225 -289 -472 -627 -344 -469 -451 -621 -451
-643 0 -16 10 -38 25 -52 24 -25 27 -25 200 -25 l175 0 0 -200 0 -200 80 0 80
0 0 254 c0 324 14 299 -178 306 l-141 5 357 487 c196 268 359 488 362 488 3 0
166 -220 362 -488 l357 -487 -141 -5 c-187 -7 -178 5 -178 -226 l0 -174 80 0
80 0 0 120 0 120 175 0 c173 0 176 0 200 25 15 14 25 36 25 52 0 22 -107 174
-451 643 -247 338 -460 620 -472 627 -12 7 -29 12 -37 12 -8 0 -25 -5 -37 -12z"/>
<path d="M590 4062 c-15 -12 -25 -35 -31 -72 -14 -89 -60 -135 -149 -149 -61
-10 -90 -36 -90 -81 0 -45 29 -71 90 -81 89 -14 135 -60 149 -149 10 -61 36
-90 81 -90 45 0 71 29 81 90 14 89 60 135 149 149 61 10 90 36 90 81 0 45 -29
71 -90 81 -89 14 -135 60 -149 149 -10 61 -36 90 -81 90 -15 0 -38 -8 -50 -18z
m66 -293 c10 -17 -13 -36 -27 -22 -12 12 -4 33 11 33 5 0 12 -5 16 -11z"/>
<path d="M4084 1283 c-32 -24 -60 -48 -62 -53 -6 -16 188 -203 255 -249 87
-58 204 -115 298 -145 128 -40 126 -40 141 24 22 91 20 98 -28 110 -193 49
-387 166 -500 304 l-44 54 -60 -45z"/>
<path d="M2241 1121 c-23 -33 -41 -62 -41 -66 0 -12 280 -190 355 -226 206
-97 433 -130 655 -94 90 15 490 139 490 152 0 22 -46 143 -54 143 -5 0 -98
-29 -205 -64 -223 -74 -327 -92 -467 -82 -189 13 -334 68 -532 199 -75 49
-141 91 -148 94 -7 2 -30 -22 -53 -56z"/>
</g>
</svg>
