<?xml version="1.0" standalone="no"?>
<!DOCTYPE svg PUBLIC "-//W3C//DTD SVG 20010904//EN"
 "http://www.w3.org/TR/2001/REC-SVG-20010904/DTD/svg10.dtd">
<svg version="1.0" xmlns="http://www.w3.org/2000/svg"
 width="512.000000pt" height="512.000000pt" viewBox="0 0 512.000000 512.000000"
 preserveAspectRatio="xMidYMid meet">

<g transform="translate(0.000000,512.000000) scale(0.100000,-0.100000)"
fill="#000000" stroke="none">
<path d="M4392 4971 c-8 -4 -12 -19 -10 -31 2 -19 47 -50 213 -148 282 -167
274 -163 297 -151 28 15 22 45 -14 72 -53 39 -446 267 -460 267 -7 0 -19 -4
-26 -9z"/>
<path d="M4375 4639 c-5 -14 -1 -27 11 -39 31 -29 465 -280 485 -280 29 0 42
34 21 58 -26 31 -460 282 -487 282 -15 0 -26 -7 -30 -21z"/>
<path d="M2620 4456 c-380 -85 -783 -436 -1030 -900 -29 -53 -54 -96 -57 -96
-3 0 -288 157 -301 166 -2 1 4 34 13 73 26 107 18 240 -19 308 -31 56 -48 70
-201 159 -98 58 -101 59 -175 59 -87 -1 -148 -26 -244 -101 -181 -142 -311
-441 -276 -635 21 -117 52 -154 190 -236 135 -80 146 -84 216 -84 80 0 162 35
242 105 30 25 58 46 64 46 6 0 89 -46 185 -101 132 -77 172 -105 169 -118 -29
-94 -92 -481 -122 -748 -3 -35 -8 -63 -10 -63 -5 0 -228 131 -237 139 -4 4 -1
36 8 72 20 85 19 203 -2 264 -22 65 -76 116 -207 195 -101 60 -113 65 -178 68
-64 4 -75 1 -146 -34 -150 -74 -294 -254 -359 -449 -22 -66 -26 -98 -26 -185
0 -167 25 -205 207 -312 116 -69 124 -73 194 -76 66 -4 79 -1 135 26 34 17 88
54 119 82 l57 51 191 -112 c104 -62 190 -117 190 -123 0 -6 -27 -209 -60 -451
-57 -418 -59 -440 -42 -456 19 -19 1413 -827 1453 -842 23 -9 47 2 217 102
106 62 194 116 197 120 2 4 18 115 35 247 17 131 32 239 33 240 1 1 36 -18 77
-42 53 -31 74 -49 73 -61 -1 -10 -7 -47 -13 -83 -18 -105 7 -227 58 -283 23
-26 238 -151 286 -167 154 -50 382 115 506 365 85 171 102 344 46 460 -32 64
-61 88 -210 173 -95 53 -103 56 -168 56 -57 -1 -80 -7 -141 -37 -40 -20 -99
-60 -132 -90 l-61 -55 -134 79 c-74 43 -139 80 -143 81 -6 3 95 809 106 840 1
4 47 -19 102 -51 87 -50 100 -60 97 -82 -1 -13 -5 -65 -8 -115 -12 -180 29
-246 227 -359 103 -60 104 -60 184 -60 69 0 88 4 138 29 31 16 84 53 116 83
33 29 62 53 66 53 4 0 107 -58 229 -130 123 -71 229 -130 237 -130 14 0 367
198 396 221 8 7 12 18 9 25 -3 7 -1 14 4 16 4 2 -1 55 -11 118 -10 63 -69 418
-129 788 -61 371 -120 701 -131 735 -31 93 -75 169 -136 237 -63 69 -76 78
-891 549 -669 387 -725 417 -802 435 -76 18 -193 19 -270 2z m321 -97 c31 -15
229 -127 439 -250 l383 -223 -102 -18 c-120 -21 -194 -45 -311 -99 l-86 -40
-459 267 c-253 146 -462 268 -465 271 -7 6 17 20 100 54 135 57 192 69 325 66
105 -2 127 -6 176 -28z m17 -544 c369 -214 671 -393 672 -396 0 -3 -19 -19
-42 -36 -176 -126 -398 -393 -549 -658 -31 -55 -60 -99 -63 -99 -7 2 -1321
762 -1356 784 -13 8 -8 23 29 95 88 175 217 352 361 496 107 107 237 210 261
207 8 -2 318 -178 687 -393z m-2030 316 l34 -17 -69 -34 c-86 -42 -200 -155
-268 -263 -52 -84 -115 -251 -115 -304 0 -41 -10 -41 -66 -3 -39 27 -44 35
-44 68 0 20 7 65 15 99 69 294 350 542 513 454z m197 -105 c33 -22 61 -79 70
-143 7 -51 -8 -175 -24 -201 -6 -10 -29 0 -92 36 -112 66 -121 68 -174 42 -54
-26 -101 -87 -121 -158 -28 -94 -12 -119 118 -194 l77 -44 -54 -41 c-74 -57
-109 -74 -169 -80 -42 -4 -57 -1 -86 19 -167 112 -59 510 191 709 91 72 202
95 264 55z m1123 -1062 c702 -405 1281 -740 1285 -744 8 -7 -80 -180 -91 -180
-4 0 -587 335 -1297 743 -1050 605 -1291 747 -1293 765 -8 56 54 152 98 152
12 0 596 -331 1298 -736z m2136 553 c75 -34 134 -82 181 -148 76 -102 88 -152
200 -818 57 -339 107 -630 110 -646 5 -30 3 -32 -141 -114 -80 -46 -149 -79
-153 -75 -4 5 -49 259 -100 564 -51 305 -99 580 -108 610 -63 229 -263 331
-494 251 -131 -45 -235 -114 -359 -240 -103 -104 -170 -197 -238 -331 -24 -47
-45 -86 -47 -88 -1 -2 -46 22 -99 53 l-96 57 17 31 c208 402 543 747 843 868
120 48 179 58 305 56 106 -3 127 -6 179 -30z m-228 -455 c64 -32 120 -103 144
-181 19 -60 255 -1449 248 -1456 -2 -2 -85 44 -184 101 l-181 105 57 113 c98
193 121 361 68 478 -30 65 -60 89 -213 176 -95 54 -103 57 -170 57 -59 0 -81
-5 -135 -32 -36 -18 -95 -57 -132 -87 -37 -31 -70 -56 -72 -56 -4 0 -265 149
-275 157 -9 7 57 132 120 228 135 203 329 362 499 410 73 20 173 14 226 -13z
m-2357 -167 c171 -99 311 -182 311 -185 0 -3 -51 -35 -113 -73 l-112 -67 -3
67 c-3 75 -19 100 -53 82 -17 -9 -19 -23 -19 -123 0 -147 5 -152 97 -100 38
20 114 66 171 101 56 35 107 63 112 63 6 0 154 -83 329 -185 l319 -186 -20
-72 c-17 -68 -108 -673 -108 -725 0 -19 -4 -23 -18 -20 -10 3 -200 111 -423
240 -222 129 -523 304 -667 388 l-264 153 6 31 c3 17 21 159 41 316 40 319 71
482 91 478 7 -2 153 -84 323 -183z m-1078 37 l27 -15 -61 -30 c-77 -38 -193
-149 -256 -242 -58 -87 -105 -196 -122 -285 -7 -36 -16 -68 -19 -73 -4 -4 -28
4 -53 19 -44 24 -47 28 -47 68 0 125 83 313 187 426 127 137 252 185 344 132z
m187 -109 c50 -37 67 -88 66 -193 0 -59 -6 -107 -15 -127 l-14 -31 -90 54
c-77 47 -96 54 -129 50 -105 -12 -205 -194 -157 -284 6 -11 52 -44 102 -73
l92 -52 -34 -29 c-56 -47 -155 -91 -203 -91 -94 0 -148 66 -154 189 -12 228
178 523 386 601 47 17 117 11 150 -14z m515 -704 c1436 -825 1907 -1098 1907
-1105 0 -3 -18 -36 -40 -74 -22 -38 -40 -73 -40 -79 0 -5 -4 -13 -10 -16 -5
-3 -143 71 -307 166 -629 361 -1461 840 -1935 1111 -295 169 -368 215 -368
231 0 45 72 157 100 157 6 0 318 -176 693 -391z m2387 112 c11 -7 7 -17 -26
-53 -135 -146 -224 -373 -211 -535 l5 -64 -32 19 c-148 86 -87 424 116 638
l51 54 41 -26 c22 -13 48 -29 56 -33z m396 6 c43 -46 58 -103 51 -197 -10
-148 -89 -313 -206 -429 -87 -87 -164 -126 -248 -126 -55 0 -65 3 -93 30 -61
59 -73 174 -34 315 27 93 101 224 169 298 107 115 180 155 274 149 47 -3 59
-9 87 -40z m-1138 -67 c71 -40 74 -43 68 -73 -3 -18 -28 -205 -56 -417 -28
-212 -52 -388 -53 -392 -1 -4 -55 25 -119 63 -78 46 -118 76 -118 87 0 51 84
649 102 728 l21 94 41 -24 c23 -12 74 -42 114 -66z m-1468 -482 c165 -95 297
-175 293 -179 -5 -4 -55 -35 -113 -68 l-105 -61 -3 67 c-3 75 -19 100 -53 82
-17 -9 -19 -23 -19 -124 0 -101 2 -115 18 -124 21 -11 11 -16 217 100 82 46
154 83 160 81 30 -10 658 -379 662 -390 3 -7 -21 -195 -53 -418 -44 -306 -61
-404 -71 -402 -7 2 -314 179 -683 393 -529 308 -670 394 -670 410 0 23 99 774
105 793 3 6 7 12 10 12 3 0 141 -77 305 -172z m1956 -629 c30 -17 54 -33 54
-36 0 -3 -23 -30 -50 -60 -67 -73 -126 -175 -163 -281 -27 -75 -31 -101 -31
-194 -1 -119 -4 -122 -64 -54 -104 119 -32 415 151 614 22 23 42 42 45 42 2 0
29 -14 58 -31z m416 4 c122 -72 94 -347 -56 -557 -126 -176 -310 -268 -403
-200 -102 74 -89 299 28 497 119 201 322 323 431 260z m-1094 -107 c56 -32
102 -63 102 -70 -1 -6 -15 -114 -33 -241 l-32 -230 -140 -81 c-77 -45 -141
-81 -143 -79 -2 1 20 173 47 381 28 209 51 385 51 393 0 11 4 11 23 -1 12 -8
68 -41 125 -72z"/>
<path d="M4592 4298 c-28 -28 -1 -75 38 -63 26 8 27 51 1 65 -24 13 -24 13
-39 -2z"/>
<path d="M4584 4116 c-12 -31 0 -51 31 -51 27 0 30 3 30 30 0 25 -4 30 -28 33
-17 2 -29 -2 -33 -12z"/>
<path d="M4590 3945 c-20 -25 -8 -50 25 -50 24 0 31 5 33 24 6 37 -34 55 -58
26z"/>
<path d="M4590 3775 c-26 -31 13 -82 44 -56 19 16 21 42 4 59 -16 16 -33 15
-48 -3z"/>
</g>
</svg>
