<?xml version="1.0" standalone="no"?>
<!DOCTYPE svg PUBLIC "-//W3C//DTD SVG 20010904//EN"
 "http://www.w3.org/TR/2001/REC-SVG-20010904/DTD/svg10.dtd">
<svg version="1.0" xmlns="http://www.w3.org/2000/svg"
 width="512.000000pt" height="512.000000pt" viewBox="0 0 512.000000 512.000000"
 preserveAspectRatio="xMidYMid meet">

<g transform="translate(0.000000,512.000000) scale(0.100000,-0.100000)"
fill="#000000" stroke="none">
<path d="M928 5109 c-64 -15 -151 -65 -202 -116 -62 -61 -114 -167 -122 -249
l-7 -62 -36 16 c-25 11 -67 16 -136 17 -95 0 -104 -2 -175 -36 -97 -47 -162
-112 -209 -209 l-36 -75 0 -850 0 -850 36 -75 c96 -198 319 -297 515 -228 l41
15 7 -61 c8 -82 60 -188 122 -249 168 -167 431 -167 597 0 98 97 127 187 127
398 l0 150 44 -65 c24 -36 78 -105 120 -154 43 -49 85 -105 96 -125 31 -62 52
-149 52 -219 0 -39 -54 -399 -131 -864 -72 -438 -131 -821 -131 -851 0 -116
61 -230 160 -298 103 -71 81 -69 902 -69 709 0 738 1 799 20 154 49 259 190
259 349 0 31 -24 201 -53 378 -58 352 -62 363 -124 363 -40 0 -73 -30 -73 -66
0 -14 23 -163 50 -331 28 -168 50 -324 50 -347 -1 -74 -52 -154 -125 -194 -27
-15 -101 -17 -785 -17 -684 0 -758 2 -785 17 -73 40 -124 120 -125 195 0 23
59 399 131 835 94 573 130 817 130 878 1 162 -52 293 -177 437 -90 104 -140
175 -183 260 -33 66 -81 201 -81 227 0 14 74 16 748 16 l748 0 35 -26 c44 -33
130 -76 199 -100 82 -28 282 -26 364 4 33 12 60 22 62 22 7 0 -49 -128 -80
-183 -42 -75 -90 -140 -177 -240 -109 -126 -161 -261 -161 -417 1 -86 104
-746 122 -781 13 -23 60 -38 87 -28 12 4 29 19 38 33 16 24 14 43 -40 368 -62
368 -68 453 -40 539 28 86 49 121 131 215 42 49 95 118 119 152 l43 64 3 -174
4 -173 36 -75 c131 -272 473 -333 682 -123 72 71 127 191 127 279 l0 32 43
-15 c226 -80 479 61 543 302 20 73 20 1627 0 1700 -34 129 -114 225 -236 284
-71 34 -80 36 -175 36 -71 -1 -111 -6 -137 -17 l-38 -17 0 32 c0 90 -55 209
-129 283 -205 205 -549 144 -677 -120 -20 -41 -36 -93 -40 -128 l-7 -58 -31
19 c-120 74 -296 63 -411 -25 -20 -15 -37 -25 -38 -23 -61 89 -99 125 -177
163 -58 28 -74 31 -155 31 -76 0 -99 -5 -147 -27 -31 -14 -77 -45 -102 -68
l-46 -43 -46 43 c-25 23 -71 54 -102 68 -48 22 -71 27 -147 27 -80 0 -97 -3
-155 -31 -54 -26 -160 -114 -160 -134 0 -3 -4 -11 -9 -19 -8 -12 -16 -10 -45
13 -117 88 -292 99 -413 24 l-33 -20 0 29 c0 86 -56 206 -129 279 -102 102
-255 146 -393 113z m194 -159 c68 -26 133 -90 158 -158 20 -52 20 -79 20
-1247 0 -1165 0 -1196 -20 -1247 -38 -102 -148 -178 -255 -178 -107 0 -217 76
-255 178 -19 50 -20 80 -20 801 0 742 0 749 -21 775 -26 33 -77 36 -105 5 -18
-20 -19 -50 -24 -663 l-5 -641 -49 -24 c-143 -71 -320 -3 -376 145 -19 53 -20
75 -20 849 0 774 1 796 20 849 56 148 233 216 376 145 l49 -24 5 -212 c6 -239
8 -247 76 -247 26 0 42 7 55 23 18 22 19 45 19 342 0 293 2 322 20 371 52 140
212 211 352 158z m3070 0 c68 -26 133 -90 158 -158 20 -52 20 -79 20 -1247 0
-1165 0 -1196 -20 -1247 -38 -102 -148 -178 -255 -178 -107 0 -217 76 -255
178 -20 51 -20 82 -20 1247 0 1168 0 1195 20 1247 52 140 212 211 352 158z
m-1861 -252 c54 -16 114 -70 134 -121 13 -35 15 -79 13 -261 l-3 -218 -52 -20
c-124 -46 -222 -183 -231 -323 -2 -41 -8 -75 -12 -75 -4 0 -22 10 -41 23 -40
27 -75 76 -89 126 -14 50 -13 660 1 716 6 24 27 63 47 86 61 71 143 95 233 67z
m615 -7 c53 -24 109 -91 123 -146 6 -25 11 -130 11 -239 l0 -196 -220 0 -220
0 0 220 c0 201 2 224 20 260 51 100 184 147 286 101z m-1175 -108 c35 -19 64
-43 84 -71 l30 -44 3 -361 c3 -405 2 -414 -65 -481 -86 -85 -213 -84 -303 2
-31 30 -52 61 -59 87 -15 53 -15 703 0 742 21 56 61 102 112 128 69 34 127 33
198 -2z m1764 8 c51 -23 93 -65 116 -116 16 -35 19 -68 19 -242 l0 -202 -47
21 c-81 36 -143 48 -271 55 l-123 6 3 178 3 177 30 44 c59 85 180 120 270 79z
m1257 -41 c68 -26 133 -90 158 -158 19 -51 20 -79 20 -847 0 -774 -1 -796 -20
-849 -56 -148 -233 -216 -376 -145 l-49 24 -3 966 c-2 834 0 968 12 978 28 24
112 50 158 51 26 0 71 -9 100 -20z m-1272 -618 c36 -12 83 -35 105 -50 l40
-28 3 -366 2 -365 -40 -27 c-111 -73 -262 -96 -388 -57 -127 38 -213 110 -295
247 -83 138 -228 224 -382 224 -188 1 -293 219 -174 363 32 39 73 65 124 78
17 4 235 7 485 5 441 -2 457 -2 520 -24z m-1383 -396 c26 -8 67 -18 91 -22 26
-4 47 -14 52 -24 14 -26 97 -84 150 -104 25 -10 83 -22 129 -26 130 -14 217
-66 266 -160 l16 -30 -696 0 -695 0 0 156 c0 86 3 154 8 152 112 -57 128 -62
212 -62 72 -1 94 4 143 27 77 35 129 77 163 131 l27 43 43 -32 c24 -18 65 -40
91 -49z"/>
</g>
</svg>
