<?xml version="1.0" standalone="no"?>
<!DOCTYPE svg PUBLIC "-//W3C//DTD SVG 20010904//EN"
 "http://www.w3.org/TR/2001/REC-SVG-20010904/DTD/svg10.dtd">
<svg version="1.0" xmlns="http://www.w3.org/2000/svg"
 width="512.000000pt" height="512.000000pt" viewBox="0 0 512.000000 512.000000"
 preserveAspectRatio="xMidYMid meet">

<g transform="translate(0.000000,512.000000) scale(0.100000,-0.100000)"
fill="#000000" stroke="none">
<path d="M1000 4963 c0 -362 108 -1054 254 -1639 l56 -222 0 -228 0 -229 -30
-80 c-83 -220 -123 -424 -124 -620 0 -167 14 -253 113 -687 131 -574 131 -588
4 -710 -78 -74 -177 -137 -332 -211 -69 -33 -129 -65 -133 -71 -4 -6 -8 -61
-8 -123 0 -89 3 -115 16 -128 14 -14 68 -15 518 -13 l501 3 53 29 c93 52 138
137 130 246 -3 43 -20 90 -81 215 -42 88 -79 179 -83 202 -10 63 8 142 101
452 156 518 179 632 180 871 0 232 -32 407 -106 568 l-29 65 0 231 0 232 54
134 c271 677 455 1334 482 1720 l7 100 -50 0 -50 0 -7 -97 c-28 -376 -187
-943 -462 -1649 l-74 -191 0 -213 0 -213 -25 23 c-61 57 -151 297 -205 542
-32 148 -45 174 -84 162 -30 -9 -34 -20 -40 -94 -19 -221 -48 -349 -105 -472
l-29 -63 -1 155 c-1 154 -2 157 -56 375 -103 407 -199 934 -235 1285 -6 58
-14 183 -17 278 l-6 172 -49 0 -48 0 0 -107z m734 -2199 c46 -85 98 -140 153
-165 38 -18 43 -25 72 -104 68 -189 99 -458 67 -585 -19 -75 -86 -218 -115
-244 -28 -25 -54 -8 -92 59 -53 94 -76 93 -143 -5 -50 -73 -108 -120 -147
-120 -72 1 -195 102 -241 200 -14 30 -29 82 -33 116 -14 125 50 451 123 622
16 37 48 96 71 132 61 93 108 198 139 306 l26 94 41 -119 c23 -65 58 -149 79
-187z m54 -1164 c54 -50 97 -60 151 -32 l39 21 -19 -72 c-11 -40 -56 -192
-100 -338 -86 -288 -109 -380 -109 -447 0 -59 37 -164 109 -311 44 -89 61
-135 61 -164 0 -56 -35 -113 -85 -137 -39 -19 -62 -20 -488 -20 l-447 0 0 53
0 52 108 51 c59 29 151 81 205 117 80 54 97 61 97 45 0 -24 26 -76 52 -105
l21 -22 33 26 c40 30 41 35 14 71 l-20 27 26 75 c33 92 42 222 24 341 -6 46
-31 172 -55 279 -76 338 -105 464 -110 489 -6 22 -3 21 37 -12 60 -48 121 -77
178 -84 64 -7 144 30 197 92 21 25 38 44 39 45 0 0 19 -18 42 -40z"/>
<path d="M2584 4978 c30 -392 194 -990 451 -1644 l85 -216 0 -232 0 -231 -29
-70 c-46 -108 -80 -236 -96 -362 -38 -287 -6 -493 164 -1055 93 -306 111 -376
111 -436 0 -51 -31 -133 -108 -287 -64 -128 -75 -191 -48 -273 20 -58 73 -119
131 -147 38 -19 67 -20 541 -23 450 -2 504 -1 518 13 13 13 16 39 16 130 0
111 -1 114 -26 134 -15 12 -31 21 -36 21 -20 0 -229 110 -301 159 -90 61 -167
135 -190 184 -33 69 -22 154 83 612 97 420 114 522 114 685 0 190 -33 363
-114 592 l-40 113 0 229 0 228 54 217 c152 606 256 1274 256 1644 l0 107 -48
0 -49 0 -6 -177 c-15 -404 -111 -998 -252 -1558 -55 -219 -55 -221 -55 -375
l-1 -155 -19 35 c-53 95 -103 304 -116 478 -5 82 -9 95 -29 108 -18 12 -29 13
-44 5 -21 -12 -26 -24 -37 -86 -39 -232 -153 -553 -219 -615 l-25 -23 0 215 0
216 -51 128 c-278 700 -443 1277 -480 1672 l-13 132 -49 0 -50 0 7 -92z m985
-2116 c30 -76 64 -139 110 -207 109 -159 211 -588 182 -763 -11 -71 -45 -135
-103 -198 -44 -47 -127 -94 -168 -94 -41 0 -103 52 -151 125 -38 60 -45 66
-73 63 -25 -2 -36 -13 -63 -60 -41 -71 -66 -87 -94 -62 -28 25 -96 168 -114
239 -36 140 0 428 75 609 26 62 35 74 65 84 79 29 170 174 236 375 l33 97 22
-78 c13 -43 32 -101 43 -130z m-157 -1266 c55 -64 134 -100 198 -93 57 7 118
36 178 84 40 33 43 34 37 12 -60 -257 -157 -704 -166 -768 -20 -143 -6 -268
46 -402 4 -10 -4 -28 -19 -46 l-25 -30 38 -31 39 -31 20 22 c26 29 52 81 52
105 0 16 17 9 97 -45 54 -36 146 -88 205 -117 l108 -51 0 -53 0 -53 -459 3
c-448 3 -460 4 -488 24 -45 34 -73 82 -73 128 0 30 18 78 70 186 39 81 77 171
85 200 29 110 19 166 -100 560 -40 135 -82 277 -93 317 l-20 72 39 -21 c54
-28 98 -18 146 31 21 21 40 39 42 40 2 0 21 -19 43 -43z"/>
</g>
</svg>
