<?xml version="1.0" standalone="no"?>
<!DOCTYPE svg PUBLIC "-//W3C//DTD SVG 20010904//EN"
 "http://www.w3.org/TR/2001/REC-SVG-20010904/DTD/svg10.dtd">
<svg version="1.0" xmlns="http://www.w3.org/2000/svg"
 width="512.000000pt" height="512.000000pt" viewBox="0 0 512.000000 512.000000"
 preserveAspectRatio="xMidYMid meet">

<g transform="translate(0.000000,512.000000) scale(0.100000,-0.100000)"
fill="#000000" stroke="none">
<path d="M3190 4163 c-84 -16 -522 -149 -558 -169 -51 -30 -98 -91 -113 -148
-7 -23 -15 -106 -18 -186 l-6 -145 -55 -8 c-415 -61 -768 -155 -1139 -303
-102 -41 -187 -70 -189 -65 -2 5 -34 57 -72 114 -105 159 -171 207 -282 207
-69 0 -564 -144 -613 -178 -85 -59 -128 -189 -141 -422 -19 -333 109 -654 354
-893 66 -63 87 -78 136 -92 74 -22 83 -20 389 67 273 78 321 101 361 172 36
61 46 111 51 258 l5 133 48 8 c500 86 759 158 1157 321 88 36 162 66 166 66 3
0 29 -37 57 -82 81 -132 134 -192 193 -222 83 -41 128 -37 410 43 134 38 256
74 271 80 39 15 106 79 127 120 26 51 49 162 60 288 30 343 -79 647 -333 920
-81 87 -182 132 -266 116z m101 -275 c203 -216 299 -481 270 -747 -16 -150
-29 -201 -54 -211 -40 -17 -446 -130 -467 -130 -50 0 -216 290 -265 462 -13
48 -29 126 -36 173 -14 110 -9 339 9 357 10 10 449 143 485 147 5 1 31 -23 58
-51z m-733 -687 c12 -46 21 -85 18 -88 -11 -11 -361 -147 -494 -192 -182 -61
-425 -121 -627 -156 -82 -14 -159 -27 -170 -30 -18 -4 -23 6 -44 85 -13 49
-22 93 -21 97 5 18 389 165 565 216 192 56 688 160 735 154 9 -1 23 -32 38
-86z m-1729 -43 c72 -100 165 -294 195 -406 14 -52 30 -140 37 -195 14 -117 6
-305 -14 -323 -6 -6 -119 -41 -251 -78 l-238 -68 -40 39 c-112 108 -218 288
-259 439 -38 137 -28 461 15 519 11 15 430 142 477 144 21 1 35 -12 78 -71z"/>
<path d="M4315 3199 c-327 -93 -337 -96 -381 -128 -64 -48 -92 -110 -105 -236
-6 -59 -9 -134 -7 -166 3 -68 11 -62 -107 -79 -147 -21 -469 -89 -610 -129
-197 -56 -402 -130 -627 -225 l-36 -15 -41 67 c-117 194 -198 262 -309 262
-60 0 -524 -126 -592 -160 -41 -22 -92 -73 -113 -116 -33 -65 -59 -232 -59
-379 0 -219 43 -388 147 -569 83 -147 219 -302 299 -343 83 -43 131 -37 420
46 137 40 266 81 287 91 20 11 51 36 68 57 49 59 62 112 68 274 l6 147 111 16
c366 56 675 144 1082 307 175 70 194 76 194 60 0 -6 32 -57 70 -115 107 -159
171 -206 283 -206 64 0 560 143 610 176 80 53 118 152 140 371 35 352 -97 701
-360 955 -70 67 -136 99 -202 98 -14 -1 -120 -28 -236 -61z m310 -231 c189
-208 275 -436 262 -693 -6 -122 -24 -223 -41 -243 -12 -13 -451 -142 -484
-142 -35 0 -160 193 -217 334 -45 112 -71 214 -86 338 -13 111 -6 305 11 322
9 9 458 143 487 145 6 1 37 -27 68 -61z m-745 -674 c20 -73 21 -87 9 -95 -27
-17 -366 -148 -501 -193 -210 -71 -552 -149 -777 -178 -21 -3 -25 3 -42 67
-10 39 -22 80 -25 93 -5 19 1 25 52 48 220 98 548 205 794 259 109 24 425 82
456 84 6 1 22 -38 34 -85z m-1730 -41 c110 -149 196 -356 226 -542 20 -130 17
-363 -6 -384 -8 -8 -114 -42 -235 -76 -121 -34 -228 -64 -238 -67 -38 -12
-203 199 -267 340 -51 112 -73 224 -73 366 0 120 22 273 41 292 11 11 449 136
480 137 16 1 35 -17 72 -66z"/>
</g>
</svg>
