<?xml version="1.0" standalone="no"?>
<!DOCTYPE svg PUBLIC "-//W3C//DTD SVG 20010904//EN"
 "http://www.w3.org/TR/2001/REC-SVG-20010904/DTD/svg10.dtd">
<svg version="1.0" xmlns="http://www.w3.org/2000/svg"
 width="256.000000pt" height="256.000000pt" viewBox="0 0 256.000000 256.000000"
 preserveAspectRatio="xMidYMid meet">

<g transform="translate(0.000000,256.000000) scale(0.100000,-0.100000)"
fill="#000000" stroke="none">
<path d="M447 2303 c-13 -12 -7 -51 9 -57 9 -3 47 -6 85 -6 189 0 476 -102
694 -245 103 -69 251 -192 343 -289 51 -54 93 -87 140 -110 37 -19 75 -43 85
-54 20 -22 106 -290 107 -330 0 -36 -97 -221 -307 -584 -107 -186 -193 -345
-191 -355 4 -22 41 -29 55 -11 6 7 93 155 193 328 200 344 320 577 320 619 0
46 -91 334 -115 367 -13 17 -56 48 -97 69 -54 28 -99 64 -174 139 -276 278
-560 440 -884 506 -95 19 -250 27 -263 13z"/>
<path d="M1417 2253 c-4 -3 -7 -30 -7 -59 0 -42 4 -55 19 -64 40 -21 69 58 41
111 -10 19 -40 26 -53 12z"/>
<path d="M1541 2166 c-64 -65 -76 -97 -37 -104 12 -3 40 18 82 59 35 35 64 67
64 70 0 4 -7 15 -16 23 -8 9 -19 16 -23 16 -3 0 -35 -29 -70 -64z"/>
<path d="M1562 2051 c-8 -4 -12 -19 -10 -32 3 -22 7 -24 63 -24 51 0 60 3 63
19 2 11 -4 26 -14 33 -20 15 -82 17 -102 4z"/>
<path d="M580 1805 c-21 -25 -4 -43 82 -86 46 -23 108 -56 139 -75 32 -19 64
-32 72 -28 26 10 28 34 4 57 -21 22 -256 147 -275 147 -5 0 -15 -7 -22 -15z"/>
<path d="M2000 1805 c-17 -21 -8 -50 17 -53 30 -4 49 31 27 52 -19 20 -28 20
-44 1z"/>
<path d="M946 1564 c-11 -28 -7 -32 57 -78 195 -139 362 -211 537 -231 66 -8
97 8 86 43 -6 17 -15 22 -44 22 -136 1 -352 87 -519 207 -77 55 -107 64 -117
37z"/>
<path d="M1727 1504 c-4 -4 -7 -33 -7 -65 0 -43 4 -58 16 -63 31 -12 45 13 42
73 -3 48 -6 56 -23 59 -12 2 -24 0 -28 -4z"/>
<path d="M447 1314 c-4 -4 -7 -17 -7 -29 0 -18 15 -29 79 -58 154 -71 332
-111 568 -128 75 -5 138 -10 139 -12 2 -1 -36 -33 -84 -69 -119 -90 -225 -199
-262 -269 -27 -51 -31 -72 -40 -186 -6 -70 -19 -164 -29 -208 -21 -86 -16
-109 22 -103 13 2 25 16 33 39 20 59 44 217 44 293 0 84 20 135 81 207 50 60
165 156 290 243 81 55 104 66 138 66 44 0 67 23 51 51 -8 11 -49 14 -227 15
-296 2 -471 31 -661 110 -101 41 -125 48 -135 38z"/>
<path d="M1417 923 c-84 -134 -171 -246 -258 -335 -67 -68 -77 -83 -68 -99 19
-35 46 -20 140 79 96 101 190 224 260 343 42 70 43 99 4 99 -17 0 -35 -20 -78
-87z"/>
<path d="M567 883 c-12 -11 -8 -36 10 -55 15 -17 15 -19 -1 -37 -37 -40 5 -82
45 -45 18 16 20 16 38 0 40 -37 82 5 45 45 -16 18 -16 20 0 38 10 11 16 28 14
38 -5 24 -35 28 -59 7 -18 -16 -20 -16 -37 -1 -19 18 -44 22 -55 10z"/>
<path d="M1955 697 c-18 -15 -28 -36 -32 -64 -5 -39 -2 -46 30 -78 39 -39 70
-44 117 -20 37 19 50 43 50 91 0 82 -101 126 -165 71z m89 -53 c22 -21 3 -56
-27 -52 -25 3 -34 32 -17 53 16 19 25 19 44 -1z"/>
</g>
</svg>
