<?xml version="1.0" standalone="no"?>
<!DOCTYPE svg PUBLIC "-//W3C//DTD SVG 20010904//EN"
 "http://www.w3.org/TR/2001/REC-SVG-20010904/DTD/svg10.dtd">
<svg version="1.0" xmlns="http://www.w3.org/2000/svg"
 width="512.000000pt" height="512.000000pt" viewBox="0 0 512.000000 512.000000"
 preserveAspectRatio="xMidYMid meet">

<g transform="translate(0.000000,512.000000) scale(0.100000,-0.100000)"
fill="#000000" stroke="none">
<path d="M2486 5105 c-51 -18 -112 -79 -132 -132 -17 -45 -17 -76 6 -238 14
-104 12 -288 -5 -390 -30 -186 -94 -323 -201 -432 -215 -219 -490 -182 -589
79 -21 56 -74 115 -123 135 -73 30 -184 12 -241 -40 -34 -31 -87 -151 -111
-249 -43 -176 -38 -333 21 -618 31 -148 47 -308 35 -353 -8 -35 -29 -40 -87
-21 -89 30 -187 5 -256 -63 -46 -47 -172 -305 -221 -456 -70 -214 -86 -320
-87 -562 0 -246 13 -337 80 -540 166 -507 552 -903 1075 -1101 89 -34 265 -80
385 -101 144 -24 515 -24 680 1 904 137 1486 707 1586 1551 15 125 6 446 -15
575 -53 317 -145 597 -301 915 -86 174 -210 391 -249 433 -80 89 -241 88 -324
0 -12 -14 -38 -62 -57 -108 -45 -109 -81 -151 -146 -171 -31 -10 -43 -8 -83 9
-93 42 -110 144 -82 508 19 245 21 501 5 629 -32 264 -123 472 -280 640 -98
105 -184 135 -283 100z m156 -222 c151 -155 229 -367 244 -665 4 -76 0 -214
-10 -361 -28 -415 -19 -558 41 -669 53 -98 167 -155 289 -145 117 9 228 96
285 225 51 113 53 117 82 120 23 3 32 -5 70 -65 201 -312 371 -720 446 -1066
205 -948 -222 -1728 -1092 -1991 -214 -65 -338 -81 -632 -81 -244 0 -268 2
-386 27 -517 111 -928 415 -1149 850 -236 466 -221 1001 43 1503 61 117 75
126 160 105 121 -29 217 9 266 105 24 45 26 59 25 165 -1 92 -9 153 -40 300
-36 174 -39 196 -38 355 0 158 2 176 27 252 52 155 89 163 149 34 182 -387
678 -378 950 17 130 189 194 487 168 782 -6 74 -15 153 -19 176 -19 102 35
114 121 27z"/>
<path d="M2306 2736 c-48 -18 -83 -43 -109 -78 -18 -25 -80 -230 -93 -308 -11
-65 56 -115 120 -90 32 12 48 46 83 184 30 114 36 126 68 126 18 0 44 -29 117
-127 204 -277 283 -401 393 -618 125 -246 175 -418 175 -604 0 -397 -323 -692
-730 -668 -336 21 -589 248 -590 531 0 33 12 125 27 205 35 187 39 445 10 578
-20 92 -15 117 29 133 31 12 55 0 138 -64 60 -46 91 -55 127 -36 26 15 52 68
45 95 -7 28 -98 113 -162 150 -102 60 -235 39 -310 -48 -61 -72 -65 -123 -30
-337 22 -128 17 -219 -25 -467 -34 -203 -34 -227 -13 -331 69 -344 391 -582
789 -583 323 -1 580 133 740 386 274 434 131 965 -483 1798 -104 141 -146 174
-228 182 -30 3 -64 0 -88 -9z"/>
<path d="M4305 4805 c-22 -21 -25 -33 -25 -90 l0 -65 -55 0 c-69 0 -109 -20
-124 -60 -23 -66 22 -112 115 -118 l64 -4 0 -62 c0 -33 6 -68 13 -77 35 -46
101 -47 137 -2 15 19 20 41 20 83 l0 58 66 4 c58 4 70 8 90 32 35 40 32 87 -7
120 -25 22 -41 26 -90 26 l-59 0 0 61 c0 54 -3 64 -29 90 -38 37 -82 39 -116
4z"/>
<path d="M3570 4638 c-34 -18 -50 -54 -50 -114 l0 -52 -66 -4 c-58 -4 -70 -8
-90 -32 -13 -15 -24 -40 -24 -56 0 -16 11 -41 24 -56 20 -24 32 -28 89 -32
l65 -4 4 -65 c4 -57 8 -69 32 -89 15 -13 40 -24 56 -24 16 0 41 11 56 24 24
20 28 32 32 89 l4 65 65 4 c57 4 69 8 89 32 31 35 31 77 0 112 -20 24 -32 28
-89 32 l-65 4 -4 64 c-3 47 -9 70 -24 84 -25 26 -73 34 -104 18z"/>
<path d="M4155 4111 c-41 -17 -59 -50 -63 -117 l-4 -64 -63 0 c-59 0 -65 -2
-90 -32 -32 -38 -29 -81 11 -115 20 -18 37 -23 83 -23 l58 0 6 -67 c4 -57 9
-71 32 -90 39 -34 87 -31 119 8 22 25 26 41 26 90 l0 59 61 0 c54 0 64 3 90
29 37 38 39 82 4 116 -21 22 -33 25 -90 25 l-65 0 0 61 c0 73 -11 96 -55 115
-19 8 -36 14 -37 13 -2 0 -12 -4 -23 -8z"/>
</g>
</svg>
