<?xml version="1.0" standalone="no"?>
<!DOCTYPE svg PUBLIC "-//W3C//DTD SVG 20010904//EN"
 "http://www.w3.org/TR/2001/REC-SVG-20010904/DTD/svg10.dtd">
<svg version="1.0" xmlns="http://www.w3.org/2000/svg"
 width="512.000000pt" height="512.000000pt" viewBox="0 0 512.000000 512.000000"
 preserveAspectRatio="xMidYMid meet">

<g transform="translate(0.000000,512.000000) scale(0.100000,-0.100000)"
fill="#000000" stroke="none">
<path d="M2451 5104 c-210 -56 -350 -269 -313 -476 6 -35 13 -72 16 -83 4 -15
-7 -30 -47 -61 -98 -76 -182 -199 -227 -334 -34 -100 -39 -271 -12 -378 66
-259 253 -452 507 -523 102 -28 259 -30 355 -5 207 54 378 192 470 381 58 118
73 195 68 345 -4 109 -9 136 -36 208 -128 342 -494 540 -837 452 -43 -11 -79
-20 -81 -20 -1 0 -5 22 -9 49 -20 150 107 291 261 291 58 0 137 -37 184 -86
57 -58 81 -68 124 -50 43 18 63 64 46 106 -15 37 -104 122 -156 148 -101 51
-210 64 -313 36z m234 -639 c159 -41 294 -148 360 -286 19 -40 35 -79 35 -86
0 -14 -18 -16 -110 -13 -108 3 -224 46 -320 119 -73 55 -102 55 -185 -4 -63
-46 -163 -95 -191 -95 -8 0 -26 -11 -39 -25 -58 -57 -14 -153 65 -142 51 7
138 42 203 81 l57 35 69 -40 c38 -22 101 -51 141 -65 83 -28 232 -47 292 -38
l41 7 -6 -50 c-19 -159 -133 -326 -276 -402 -86 -45 -163 -64 -265 -63 -111 1
-197 25 -282 80 -237 155 -320 444 -199 697 109 226 371 351 610 290z"/>
<path d="M1813 3006 c-84 -21 -156 -62 -215 -124 -93 -97 -102 -123 -189 -550
-86 -419 -102 -466 -180 -537 -47 -42 -72 -55 -376 -189 -272 -121 -310 -147
-354 -240 -36 -77 -41 -182 -10 -233 32 -51 100 -53 138 -4 7 9 13 46 13 82 0
108 12 118 230 216 102 45 188 83 191 83 19 0 111 -109 137 -163 49 -102 49
-103 0 -115 -142 -35 -180 -47 -243 -80 -100 -51 -211 -164 -259 -262 -166
-341 1 -739 364 -863 l65 -22 1397 -3 c1210 -2 1407 0 1469 13 334 69 544 394
474 730 -25 117 -76 208 -169 300 -93 92 -168 134 -298 167 -124 31 -121 29
-98 88 27 68 60 117 113 169 l46 44 188 -85 c224 -101 233 -109 233 -223 0
-62 3 -74 23 -93 30 -29 89 -30 117 -2 27 27 33 59 28 144 -6 86 -41 160 -100
211 -23 19 -144 79 -301 150 -275 123 -344 162 -390 220 -51 64 -67 120 -144
497 -57 284 -82 388 -105 436 -56 118 -185 217 -317 242 -83 15 -1412 12
-1478 -4z m1478 -172 c67 -20 158 -106 176 -169 7 -22 44 -197 83 -389 40
-193 81 -374 92 -404 38 -101 138 -222 224 -270 15 -9 12 -17 -34 -78 -29 -38
-65 -100 -81 -139 -16 -38 -34 -71 -40 -73 -6 -2 -50 15 -97 38 -65 31 -103
59 -154 109 -94 94 -130 172 -171 371 -18 89 -38 163 -48 174 -40 45 -109 37
-137 -16 -14 -27 -13 -41 16 -186 18 -86 45 -189 62 -229 56 -136 176 -277
292 -343 58 -33 59 -32 -84 -55 -171 -27 -409 -91 -436 -116 -51 -48 -17 -139
52 -139 18 0 74 11 126 25 195 52 409 87 626 104 150 12 213 3 309 -44 211
-104 300 -361 199 -580 -31 -68 -119 -163 -184 -198 -98 -53 -134 -57 -544
-57 l-377 0 26 56 c34 76 36 183 3 267 -38 101 -116 164 -380 309 -116 64
-330 158 -360 158 -22 0 -39 -12 -74 -52 -76 -87 -133 -211 -156 -338 -13 -72
2 -112 50 -129 60 -20 103 15 118 99 6 30 18 75 27 100 17 47 62 130 71 130
15 0 369 -186 436 -230 90 -58 118 -100 118 -180 0 -67 -29 -123 -82 -157
l-42 -28 -855 -3 c-585 -2 -873 1 -908 8 -118 25 -249 123 -302 228 -138 271
27 595 327 641 120 19 491 -26 744 -90 98 -24 111 -24 144 5 35 30 39 86 7
117 -24 24 -195 69 -365 96 -60 10 -108 20 -108 23 0 3 21 16 48 30 26 13 85
63 132 110 85 85 138 167 176 272 26 72 75 331 68 361 -12 56 -96 79 -137 38
-15 -14 -30 -65 -53 -178 -42 -200 -79 -280 -173 -374 -50 -49 -88 -77 -153
-108 -49 -24 -93 -41 -99 -39 -6 2 -24 35 -40 73 -16 39 -51 99 -79 135 -27
36 -49 68 -50 71 0 3 10 10 23 16 38 18 124 101 161 157 57 86 71 134 150 525
42 206 84 388 95 409 18 34 57 76 104 112 48 36 97 39 788 39 589 1 682 -1
730 -15z"/>
</g>
</svg>
