<?xml version="1.0" standalone="no"?>
<!DOCTYPE svg PUBLIC "-//W3C//DTD SVG 20010904//EN"
 "http://www.w3.org/TR/2001/REC-SVG-20010904/DTD/svg10.dtd">
<svg version="1.0" xmlns="http://www.w3.org/2000/svg"
 width="512.000000pt" height="512.000000pt" viewBox="0 0 512.000000 512.000000"
 preserveAspectRatio="xMidYMid meet">
<metadata>
Created by potrace 1.16, written by Peter Selinger 2001-2019
</metadata>
<g transform="translate(0.000000,512.000000) scale(0.100000,-0.100000)"
fill="#000000" stroke="none">
<path d="M177 5106 c-77 -28 -160 -119 -172 -190 -3 -17 -4 -1088 -3 -2381 l3
-2350 24 -40 c35 -57 58 -82 110 -113 l46 -27 1273 -3 1272 -2 0 990 0 990
-330 0 -330 0 0 390 0 390 329 0 329 0 5 373 c4 335 7 382 26 472 91 414 362
667 781 730 140 22 511 16 738 -11 l52 -6 0 -349 0 -349 -252 0 c-275 0 -333
-8 -410 -53 -25 -14 -57 -44 -71 -66 -50 -76 -57 -128 -57 -448 l0 -293 380 0
380 0 0 -22 c0 -13 -21 -188 -47 -390 l-47 -368 -333 0 -333 0 0 -990 0 -990
683 1 c495 0 691 4 714 12 56 21 118 73 149 123 l29 49 0 2375 0 2375 -27 47
c-32 53 -93 105 -146 124 -55 20 -4709 19 -4765 0z"/>
</g>
</svg>
