<svg width="683" height="683" viewBox="0 0 683 683" fill="none" xmlns="http://www.w3.org/2000/svg">
<g clip-path="url(#clip0_228_315)">
<path d="M162.133 149.333C147.2 154.667 134.667 166 129.2 179.467L126.133 186.667H118.8C92.1333 186.8 72.4 196.8 60.8 215.867C54 227.067 52 236.133 52 256.933V274.667H46C38.6667 274.667 27.2 277.067 22.2667 279.6C15.2 283.2 7.6 291.333 3.73333 299.333L0 307.333V341.333C0 374.4 0.133333 375.467 3.2 382.133C10.4 397.6 23.0667 406 41.8667 407.467L52 408.4V425.867C52 446.4 54 455.6 60.8 466.8C72.4 485.867 92.1333 495.867 118.8 496H126.133L129.2 503.2C132.667 511.6 140.533 521.067 148.533 526.667C168.4 540.267 196.533 538.8 215.467 523.333C222 517.867 229.333 507.2 232.667 498C234.933 492.133 235.2 485.6 235.733 441.067L236.267 390.667L329.6 390.4L422.933 390L425.467 386.8C428.933 382.533 428.667 376.533 424.667 372.667L421.467 369.333H328.667H236V341.333V313.333H341.2H446.533L446.933 402.267C447.467 501.6 446.933 496.4 457.067 511.733C473.467 536.8 509.2 543.733 534.133 526.667C542.133 521.067 550 511.6 553.467 503.2L556.533 496H563.867C590.533 495.867 610.267 485.867 621.867 466.8C628.667 455.6 630.667 446.4 630.667 425.867V408.4L640.8 407.467C659.6 406 672.267 397.6 679.467 382.133C682.533 375.467 682.667 374.4 682.667 341.333V307.333L678.933 299.333C675.067 291.333 667.467 283.2 660.4 279.6C655.467 277.067 644 274.667 636.667 274.667H630.667V256.933C630.667 236.133 628.667 227.067 621.867 215.867C610.267 196.8 590.533 186.8 563.867 186.667H556.533L553.467 179.467C550 171.067 542.133 161.6 534.133 156C509.2 138.933 472.667 146.133 456.667 171.2C447.6 185.467 447.6 186.133 446.933 241.6L446.4 292H341.333H236.267L235.733 241.6C235.2 196.933 234.933 190.533 232.667 184.667C226.933 168.933 216.8 158 201.867 151.067C190.933 146.133 173.6 145.333 162.133 149.333ZM194 171.2C202.133 175.067 206.933 179.867 210.933 188.667L214 195.333V341.333V487.333L210.933 494C206.933 502.8 202.133 507.6 194 511.467C177.2 519.467 156.267 511.467 148.4 494C146.133 489.067 146 481.467 145.733 383.333C145.467 325.333 145.067 276.667 144.667 275.067C144.267 273.333 142.133 271.067 139.867 270C134.667 267.2 127.733 269.2 125.467 274.133C124.4 276.533 124 304.8 124 376.267V475.067L113.467 474.267C95.2 473.067 84.2667 466.133 77.2 451.333L73.3333 443.333V341.333V239.333L77.2 231.333C84.2667 216.533 95.2 209.6 113.467 208.4L124 207.6V221.867C124 240.533 126.267 245.333 135.2 245.333C136.933 245.333 139.867 244.133 141.733 242.667C145.067 240 145.067 239.733 145.6 217.067C146 198.8 146.667 192.933 148.4 188.667C156.133 171.333 177.2 163.2 194 171.2ZM516.667 171.2C524.533 174.8 532.267 182.933 534.8 190.133C537.6 197.867 537.6 484.8 534.8 492.533C530.533 504.8 516.267 514.667 502.667 514.667C489.067 514.667 477.733 507.067 471.733 494L468.667 487.333V341.333V195.333L471.733 188.667C475.733 179.867 480.533 175.067 488.667 171.2C497.6 166.933 507.733 166.933 516.667 171.2ZM586.133 211.867C594.933 215.867 600.933 221.733 605.467 231.333L609.333 239.333V341.333V443.333L605.467 451.333C598.4 466.133 587.467 473.067 569.2 474.267L558.667 475.067V341.333V207.6L569.2 208.4C575.6 208.8 582.133 210.133 586.133 211.867ZM52 341.467V387.067L44 386.267C30 385.067 22.2667 377.867 20.6667 364.667C20.1333 360.8 20 347.467 20.2667 335.067C20.8 310.267 21.7333 306.8 29.6 300.933C34.6667 297.067 37.0667 296.4 45.7333 296.133L52 296V341.467ZM652.667 300.533C660.933 306.933 661.867 310.133 662.4 335.067C662.667 347.467 662.533 360.8 662 364.667C660.4 377.867 652.667 385.067 638.667 386.267L630.667 387.067V341.333V295.6L639.333 296.267C646 296.8 649.067 297.867 652.667 300.533Z" fill="#E60000"/>
</g>
<defs>
<clipPath id="clip0_228_315">
<rect width="682.667" height="682.667" fill="white"/>
</clipPath>
</defs>
</svg>
