<svg xmlns="http://www.w3.org/2000/svg" viewBox="0 0 100 100"><path fill="#c7ede6" d="M87.215,56.71C88.35,54.555,89,52.105,89,49.5c0-6.621-4.159-12.257-10.001-14.478 C78.999,35.015,79,35.008,79,35c0-11.598-9.402-21-21-21c-9.784,0-17.981,6.701-20.313,15.757C36.211,29.272,34.638,29,33,29 c-7.692,0-14.023,5.793-14.89,13.252C12.906,43.353,9,47.969,9,53.5C9,59.851,14.149,65,20.5,65c0.177,0,0.352-0.012,0.526-0.022 C21.022,65.153,21,65.324,21,65.5C21,76.822,30.178,86,41.5,86c6.437,0,12.175-2.972,15.934-7.614C59.612,80.611,62.64,82,66,82 c4.65,0,8.674-2.65,10.666-6.518C77.718,75.817,78.837,76,80,76c6.075,0,11-4.925,11-11C91,61.689,89.53,58.727,87.215,56.71z"/><path fill="#fdfcef" d="M68.5,38.5V39h-3v-0.5c0,0-4.242,0-5.5,0c-2.485,0-4.5-2.015-4.5-4.5 c0-2.333,1.782-4.229,4.055-4.455C59.533,29.364,59.5,29.187,59.5,29c0-2.485,2.015-4.5,4.5-4.5c1.438,0,2.703,0.686,3.527,1.736 C67.667,23.6,69.829,21.5,72.5,21.5c2.761,0,5,2.239,5,5c0,0.446-0.077,0.87-0.187,1.282c0.642-0.777,1.6-1.282,2.687-1.282 c1.781,0,3.234,1.335,3.455,3.055C83.636,29.533,83.813,29.5,84,29.5c2.485,0,4.5,2.015,4.5,4.5s-2.015,4.5-4.5,4.5s-9.5,0-9.5,0 H68.5z"/><path fill="#472b29" d="M72.5,21c3.033,0,5.5,2.467,5.5,5.5c0,0.016,0,0.031,0,0.047C78.602,26.192,79.29,26,80,26 c1.831,0,3.411,1.261,3.858,3.005C83.905,29.002,83.952,29,84,29c2.757,0,5,2.243,5,5s-2.243,5-5,5H68.5 c-0.276,0-0.5-0.224-0.5-0.5s0.224-0.5,0.5-0.5H84c2.206,0,4-1.794,4-4s-1.794-4-4-4c-0.117,0-0.23,0.017-0.343,0.032 l-0.141,0.019c-0.021,0.003-0.041,0.004-0.062,0.004c-0.246,0-0.462-0.185-0.495-0.437C82.768,28.125,81.496,27,80,27 c-0.885,0-1.723,0.401-2.301,1.1c-0.098,0.118-0.241,0.182-0.386,0.182c-0.078,0-0.156-0.018-0.228-0.056 c-0.209-0.107-0.314-0.346-0.254-0.573C76.946,27.218,77,26.852,77,26.5c0-2.481-2.019-4.5-4.5-4.5 c-2.381,0-4.347,1.872-4.474,4.263c-0.011,0.208-0.15,0.387-0.349,0.45c-0.05,0.016-0.101,0.024-0.152,0.024 c-0.15,0-0.296-0.069-0.392-0.192C66.362,25.563,65.221,25,64,25c-2.206,0-4,1.794-4,4c0,0.117,0.017,0.23,0.032,0.343 l0.019,0.141c0.016,0.134-0.022,0.268-0.106,0.373c-0.084,0.105-0.207,0.172-0.34,0.185C57.549,30.247,56,31.949,56,34 c0,2.206,1.794,4,4,4h5.5c0.276,0,0.5,0.224,0.5,0.5S65.776,39,65.5,39H60c-2.757,0-5-2.243-5-5c0-2.397,1.689-4.413,4.003-4.877 C59.001,29.082,59,29.041,59,29c0-2.757,2.243-5,5-5c1.176,0,2.293,0.416,3.183,1.164C67.781,22.76,69.945,21,72.5,21L72.5,21z"/><path fill="#472b29" d="M74 28c1.403 0 2.609.999 2.913 2.341C77.28 30.119 77.699 30 78.125 30c1.202 0 2.198.897 2.353 2.068C80.681 32.022 80.874 32 81.063 32c1.529 0 2.811 1.2 2.918 2.732C83.99 34.87 83.886 34.99 83.749 35c-.006 0-.012 0-.018 0-.13 0-.24-.101-.249-.232-.089-1.271-1.151-2.268-2.419-2.268-.229 0-.47.042-.738.127-.022.007-.045.01-.067.01-.055 0-.11-.02-.156-.054C80.038 32.537 80 32.455 80 32.375c0-1.034-.841-1.875-1.875-1.875-.447 0-.885.168-1.231.473-.047.041-.106.063-.165.063-.032 0-.063-.006-.093-.019-.088-.035-.148-.117-.155-.212C76.377 29.512 75.288 28.5 74 28.5c-.208 0-.425.034-.682.107-.023.007-.047.01-.07.01-.109 0-.207-.073-.239-.182-.038-.133.039-.271.172-.309C73.483 28.04 73.744 28 74 28L74 28zM60.117 29.5c1.326 0 2.508.897 2.874 2.182.038.133-.039.271-.172.309C62.795 31.997 62.772 32 62.75 32c-.109 0-.209-.072-.24-.182C62.205 30.748 61.221 30 60.117 30c-.117 0-.23.014-.342.029-.012.002-.023.003-.035.003-.121 0-.229-.092-.246-.217-.019-.137.077-.263.214-.281C59.842 29.516 59.978 29.5 60.117 29.5L60.117 29.5z"/><path fill="#fff" d="M45.5 25h-10c-.276 0-.5-.224-.5-.5s.224-.5.5-.5h10c.276 0 .5.224.5.5S45.777 25 45.5 25zM48.5 25h-1c-.276 0-.5-.224-.5-.5s.224-.5.5-.5h1c.276 0 .5.224.5.5S48.777 25 48.5 25zM53.491 27H44.5c-.276 0-.5-.224-.5-.5s.224-.5.5-.5h8.991c.276 0 .5.224.5.5S53.767 27 53.491 27zM42.5 27h-1c-.276 0-.5-.224-.5-.5s.224-.5.5-.5h1c.276 0 .5.224.5.5S42.777 27 42.5 27zM39.5 27h-2c-.276 0-.5-.224-.5-.5s.224-.5.5-.5h2c.276 0 .5.224.5.5S39.777 27 39.5 27zM45.5 29h-2c-.276 0-.5-.224-.5-.5s.224-.5.5-.5h2c.276 0 .5.224.5.5S45.776 29 45.5 29zM48.5 20c-.177 0-.823 0-1 0-.276 0-.5.224-.5.5 0 .276.224.5.5.5.177 0 .823 0 1 0 .276 0 .5-.224.5-.5C49 20.224 48.776 20 48.5 20zM48.5 22c-.177 0-4.823 0-5 0-.276 0-.5.224-.5.5 0 .276.224.5.5.5.177 0 4.823 0 5 0 .276 0 .5-.224.5-.5C49 22.224 48.776 22 48.5 22zM53.5 24c-.177 0-2.823 0-3 0-.276 0-.5.224-.5.5 0 .276.224.5.5.5.177 0 2.823 0 3 0 .276 0 .5-.224.5-.5C54 24.224 53.776 24 53.5 24zM87.5 69h-10c-.276 0-.5-.224-.5-.5s.224-.5.5-.5h10c.276 0 .5.224.5.5S87.776 69 87.5 69zM91.5 69h-2c-.276 0-.5-.224-.5-.5s.224-.5.5-.5h2c.276 0 .5.224.5.5S91.776 69 91.5 69zM96.5 71h-10c-.276 0-.5-.224-.5-.5s.224-.5.5-.5h10c.276 0 .5.224.5.5S96.777 71 96.5 71zM84.5 71h-1c-.276 0-.5-.224-.5-.5s.224-.5.5-.5h1c.276 0 .5.224.5.5S84.776 71 84.5 71zM81.47 71H79.5c-.276 0-.5-.224-.5-.5s.224-.5.5-.5h1.97c.276 0 .5.224.5.5S81.746 71 81.47 71zM90.5 67h-5c-.276 0-.5-.224-.5-.5s.224-.5.5-.5h5c.276 0 .5.224.5.5S90.777 67 90.5 67zM87.5 73h-2c-.276 0-.5-.224-.5-.5s.224-.5.5-.5h2c.276 0 .5.224.5.5S87.776 73 87.5 73z"/><g><path fill="#a3a3cd" d="M26.24,57.3c-1.4,0-2.54-1.14-2.54-2.54v-0.52c0-1.4,1.14-2.54,2.54-2.54h50.52 c1.4,0,2.54,1.14,2.54,2.54v0.52c0,1.4-1.14,2.54-2.54,2.54H26.24z"/><path fill="#472b29" d="M76.76,52.4c1.015,0,1.84,0.826,1.84,1.84v0.52c0,1.015-0.826,1.84-1.84,1.84H26.24 c-1.015,0-1.84-0.826-1.84-1.84v-0.52c0-1.015,0.826-1.84,1.84-1.84H76.76 M76.76,51H26.24c-1.79,0-3.24,1.451-3.24,3.24v0.52 c0,1.79,1.451,3.24,3.24,3.24H76.76c1.79,0,3.24-1.451,3.24-3.24v-0.52C80,52.451,78.549,51,76.76,51L76.76,51z"/></g><g><path fill="#78cdd4" d="M37,74.3c-1.819,0-3.3-1.48-3.3-3.3V38c0-1.819,1.48-3.3,3.3-3.3s3.3,1.48,3.3,3.3v33 C40.3,72.819,38.819,74.3,37,74.3z"/><path fill="#472b29" d="M37,35.4c1.434,0,2.6,1.167,2.6,2.6v33c0,1.434-1.166,2.6-2.6,2.6s-2.6-1.167-2.6-2.6V38 C34.4,36.566,35.566,35.4,37,35.4 M37,34c-2.209,0-4,1.791-4,4v33c0,2.209,1.791,4,4,4s4-1.791,4-4V38C41,35.791,39.209,34,37,34 L37,34z"/></g><g><path fill="#78cdd4" d="M30,67.3c-1.819,0-3.3-1.48-3.3-3.3V45c0-1.819,1.48-3.3,3.3-3.3s3.3,1.48,3.3,3.3v19 C33.3,65.819,31.819,67.3,30,67.3z"/><path fill="#472b29" d="M30,42.4c1.434,0,2.6,1.167,2.6,2.6v19c0,1.434-1.166,2.6-2.6,2.6s-2.6-1.167-2.6-2.6V45 C27.4,43.566,28.566,42.4,30,42.4 M30,41c-2.209,0-4,1.791-4,4v19c0,2.209,1.791,4,4,4s4-1.791,4-4V45C34,42.791,32.209,41,30,41 L30,41z"/></g><g><path fill="#78cdd4" d="M66,74.3c-1.819,0-3.3-1.48-3.3-3.3V38c0-1.819,1.48-3.3,3.3-3.3s3.3,1.48,3.3,3.3v33 C69.3,72.819,67.819,74.3,66,74.3z"/><path fill="#472b29" d="M66,35.4c1.434,0,2.6,1.167,2.6,2.6v33c0,1.434-1.166,2.6-2.6,2.6s-2.6-1.167-2.6-2.6V38 C63.4,36.566,64.566,35.4,66,35.4 M66,34c-2.209,0-4,1.791-4,4v33c0,2.209,1.791,4,4,4s4-1.791,4-4V38C70,35.791,68.209,34,66,34 L66,34z"/></g><g><path fill="#78cdd4" d="M73,67.3c-1.819,0-3.3-1.48-3.3-3.3V45c0-1.819,1.48-3.3,3.3-3.3s3.3,1.48,3.3,3.3v19 C76.3,65.819,74.819,67.3,73,67.3z"/><path fill="#472b29" d="M73,42.4c1.434,0,2.6,1.167,2.6,2.6v19c0,1.434-1.166,2.6-2.6,2.6s-2.6-1.167-2.6-2.6V45 C70.4,43.566,71.566,42.4,73,42.4 M73,41c-2.209,0-4,1.791-4,4v19c0,2.209,1.791,4,4,4s4-1.791,4-4V45C77,42.791,75.209,41,73,41 L73,41z"/></g><g><path fill="#472b29" d="M30.5,64c-0.276,0-0.5-0.224-0.5-0.5v-11c0-0.276,0.224-0.5,0.5-0.5s0.5,0.224,0.5,0.5v11 C31,63.776,30.776,64,30.5,64z"/></g><g><path fill="#472b29" d="M30.5,50c-0.276,0-0.5-0.224-0.5-0.5v-4c0-0.276,0.224-0.5,0.5-0.5s0.5,0.224,0.5,0.5v4 C31,49.776,30.776,50,30.5,50z"/></g><g><path fill="#472b29" d="M73.5,64c-0.276,0-0.5-0.224-0.5-0.5v-11c0-0.276,0.224-0.5,0.5-0.5s0.5,0.224,0.5,0.5v11 C74,63.776,73.776,64,73.5,64z"/></g><g><path fill="#472b29" d="M73.5,50c-0.276,0-0.5-0.224-0.5-0.5v-4c0-0.276,0.224-0.5,0.5-0.5s0.5,0.224,0.5,0.5v4 C74,49.776,73.776,50,73.5,50z"/></g><g><path fill="#472b29" d="M37.5,71c-0.276,0-0.5-0.224-0.5-0.5v-11c0-0.276,0.224-0.5,0.5-0.5s0.5,0.224,0.5,0.5v11 C38,70.776,37.776,71,37.5,71z"/></g><g><path fill="#472b29" d="M37.5,43c-0.276,0-0.5-0.224-0.5-0.5v-4c0-0.276,0.224-0.5,0.5-0.5s0.5,0.224,0.5,0.5v4 C38,42.776,37.776,43,37.5,43z"/></g><g><path fill="#472b29" d="M37.5,57c-0.276,0-0.5-0.224-0.5-0.5v-12c0-0.276,0.224-0.5,0.5-0.5s0.5,0.224,0.5,0.5v12 C38,56.776,37.776,57,37.5,57z"/></g><g><path fill="#472b29" d="M66.5,71c-0.276,0-0.5-0.224-0.5-0.5v-11c0-0.276,0.224-0.5,0.5-0.5s0.5,0.224,0.5,0.5v11 C67,70.776,66.776,71,66.5,71z"/></g><g><path fill="#472b29" d="M66.5,43c-0.276,0-0.5-0.224-0.5-0.5v-4c0-0.276,0.224-0.5,0.5-0.5s0.5,0.224,0.5,0.5v4 C67,42.776,66.776,43,66.5,43z"/></g><g><path fill="#472b29" d="M66.5,57c-0.276,0-0.5-0.224-0.5-0.5v-12c0-0.276,0.224-0.5,0.5-0.5s0.5,0.224,0.5,0.5v12 C67,56.776,66.776,57,66.5,57z"/></g><g><path fill="#fdfcef" d="M28.5,72.5c0,0,1.567,0,3.5,0s3.5-1.567,3.5-3.5c0-1.781-1.335-3.234-3.055-3.455 C32.473,65.366,32.5,65.187,32.5,65c0-1.933-1.567-3.5-3.5-3.5c-1.032,0-1.95,0.455-2.59,1.165 c-0.384-1.808-1.987-3.165-3.91-3.165c-2.209,0-4,1.791-4,4c0,0.191,0.03,0.374,0.056,0.558C18.128,63.714,17.592,63.5,17,63.5 c-1.228,0-2.245,0.887-2.455,2.055C14.366,65.527,14.187,65.5,14,65.5c-1.933,0-3.5,1.567-3.5,3.5s1.567,3.5,3.5,3.5s7.5,0,7.5,0 V73h7V72.5z"/><path fill="#472b29" d="M30.25 68C30.112 68 30 67.888 30 67.75c0-1.223.995-2.218 2.218-2.218.034.009.737-.001 1.244.136.133.036.212.173.176.306-.036.134-.173.213-.306.176-.444-.12-1.1-.12-1.113-.118-.948 0-1.719.771-1.719 1.718C30.5 67.888 30.388 68 30.25 68zM23.5 72A.5.5 0 1 0 23.5 73 .5.5 0 1 0 23.5 72z"/><path fill="#472b29" d="M32,73h-3.5c-0.276,0-0.5-0.224-0.5-0.5s0.224-0.5,0.5-0.5H32c1.654,0,3-1.346,3-3 c0-1.496-1.125-2.768-2.618-2.959c-0.134-0.018-0.255-0.088-0.336-0.196s-0.115-0.244-0.094-0.377C31.975,65.314,32,65.16,32,65 c0-1.654-1.346-3-3-3c-0.85,0-1.638,0.355-2.219,1c-0.125,0.139-0.321,0.198-0.5,0.148c-0.182-0.049-0.321-0.195-0.36-0.379 C25.58,61.165,24.141,60,22.5,60c-1.93,0-3.5,1.57-3.5,3.5c0,0.143,0.021,0.28,0.041,0.418c0.029,0.203-0.063,0.438-0.242,0.54 c-0.179,0.102-0.396,0.118-0.556-0.01C17.878,64.155,17.449,64,17,64c-0.966,0-1.792,0.691-1.963,1.644 c-0.048,0.267-0.296,0.446-0.569,0.405C14.314,66.025,14.16,66,14,66c-1.654,0-3,1.346-3,3s1.346,3,3,3h7.5 c0.276,0,0.5,0.224,0.5,0.5S21.776,73,21.5,73H14c-2.206,0-4-1.794-4-4s1.794-4,4-4c0.059,0,0.116,0.002,0.174,0.006 C14.588,63.82,15.711,63,17,63c0.349,0,0.689,0.061,1.011,0.18C18.176,60.847,20.126,59,22.5,59c1.831,0,3.466,1.127,4.153,2.774 C27.333,61.276,28.155,61,29,61c2.206,0,4,1.794,4,4c0,0.048-0.001,0.095-0.004,0.142C34.739,65.59,36,67.169,36,69 C36,71.206,34.206,73,32,73z"/><path fill="#472b29" d="M26.5,72c-0.159,0-0.841,0-1,0c-0.276,0-0.5,0.224-0.5,0.5c0,0.276,0.224,0.5,0.5,0.5 c0.159,0,0.841,0,1,0c0.276,0,0.5-0.224,0.5-0.5C27,72.224,26.776,72,26.5,72z"/></g></svg>